<svg xmlns="http://www.w3.org/2000/svg" viewBox="0 0 88.228 85.579"><defs><style>.a{fill:#e1e1e1;}.b{fill:#fff;}</style></defs><g transform="translate(-304 -336)"><g transform="translate(304 336)"><g transform="translate(1.125 3.788)"><path class="a" d="M33.313,7.322C16.2,11.695,2.763,27.033,1.876,44.97c-.761,15.021,8.937,28.078,22.057,34.416A45.444,45.444,0,0,0,68.806,76.28c7.162-4.69,13.373-11.345,16.669-19.331a32.629,32.629,0,0,0-.57-25.479C77.68,14.927,59.236,4.977,41.489,6.054a39.9,39.9,0,0,0-8.176,1.268.331.331,0,0,0,.19.634C51.376,3.582,71.341,10.808,81.419,26.4c4.754,7.289,6.972,16.289,5.134,24.909-1.775,8.43-7.035,15.719-13.564,21.169a45.319,45.319,0,0,1-43.923,8.43c-13.31-4.627-24.719-15.845-26.43-30.3C.672,33.5,11.89,16.385,27.482,9.92A39.324,39.324,0,0,1,33.5,7.956C33.883,7.829,33.693,7.195,33.313,7.322Z" transform="translate(-1.834 -5.975)"/></g><g transform="translate(0 0.508)"><path class="a" d="M42.994.8c-16.162.38-32.071,9.507-39.169,24.338C-3.845,41.174.656,60.5,13.2,72.738A40.528,40.528,0,0,0,35.9,84.146a47.53,47.53,0,0,0,26.24-4.373c15.972-7.542,28.648-24.085,25.733-42.4C84.952,19.181,68.917,4.413,50.98,1.434A47.379,47.379,0,0,0,42.994.8a.319.319,0,0,0,0,.634C61.818,1.244,79.818,13.6,85.776,31.6a34.348,34.348,0,0,1-1.141,25.1A46.074,46.074,0,0,1,67.459,76.033a48.635,48.635,0,0,1-24.972,7.732A39.256,39.256,0,0,1,18.339,76.16C4.395,66.019-2.767,47.575,2.3,30.779,6.994,15.378,21.191,4.476,36.846,2A40.388,40.388,0,0,1,43.057,1.5.353.353,0,0,0,42.994.8Z" transform="translate(-0.059 -0.8)"/></g><g transform="translate(0.945 0)"><path class="a" d="M14,13.943C2.85,25.859-1.714,43.669,4.054,59.2,10.455,76.31,28.265,86.578,46.2,85.5A40.429,40.429,0,0,0,71.048,75.233,48.929,48.929,0,0,0,85.118,51.021a47.468,47.468,0,0,0-1.331-27.7,34.471,34.471,0,0,0-15.4-17.81C53.3-3.106,33.272-1.395,19.519,9.063A44.667,44.667,0,0,0,14,13.943c-.254.317.19.761.444.444A45.266,45.266,0,0,1,62.491,3.422a35.47,35.47,0,0,1,18.127,14.7c4.563,7.669,6.021,17.113,5.07,25.923C83.787,62.493,71.3,79.86,52.667,83.916c-17.62,3.8-36.888-3.93-45.7-19.9C-.763,49.944,1.328,32.134,10.455,19.2a48.2,48.2,0,0,1,3.93-4.817C14.7,14.134,14.258,13.69,14,13.943Z" transform="translate(-1.551 0.001)"/></g></g><path class="a" d="M44.194,66.212c-.254-1.965-2.852-2.725-4.5-1.9a2.721,2.721,0,0,0,.634,5.007C42.229,69.7,44.511,68.43,44.194,66.212Z" transform="translate(289.938 312.572)"/><path class="b" d="M40.988,65.2a.762.762,0,0,0,0,1.521A.762.762,0,0,0,40.988,65.2Z" transform="translate(289.214 312.125)"/><path class="a" d="M95.394,66.212c-.254-1.965-2.852-2.725-4.5-1.9a2.721,2.721,0,0,0,.634,5.007C93.429,69.7,95.711,68.43,95.394,66.212Z" transform="translate(271.189 312.572)"/><path class="b" d="M92.188,65.2a.762.762,0,0,0,0,1.521A.762.762,0,0,0,92.188,65.2Z" transform="translate(270.465 312.125)"/><g transform="translate(332.946 396.89)"><g transform="translate(0 0)"><path class="a" d="M46.218,102.807A68.683,68.683,0,0,1,76.2,96.722a.319.319,0,0,0,0-.634A69.268,69.268,0,0,0,45.9,102.3c-.38.127-.063.7.317.507Z" transform="translate(-45.729 -96.068)"/></g></g></g></svg>