<svg xmlns="http://www.w3.org/2000/svg" viewBox="0 0 512 512" class="icon gstr-icon text-middle">
          <path fill="#010101" d="M229.2 353.1c-24.3 0-44.1 19.8-44.1 44.1s19.8 44.1 44.1 44.1 44.1-19.8 44.1-44.1-19.8-44.1-44.1-44.1zm0 69.2c-13.8 0-25.1-11.2-25.1-25.1 0-13.8 11.2-25.1 25.1-25.1 13.8 0 25.1 11.2 25.1 25.1 0 13.8-11.3 25.1-25.1 25.1zm183.9-69.2c-24.3 0-44.1 19.8-44.1 44.1s19.8 44.1 44.1 44.1 44.1-19.8 44.1-44.1-19.8-44.1-44.1-44.1zm0 69.2c-13.8 0-25.1-11.2-25.1-25.1 0-13.8 11.2-25.1 25.1-25.1 13.8 0 25.1 11.2 25.1 25.1 0 13.8-11.3 25.1-25.1 25.1zm62.3-272.9c-1.8-2-4.3-3.1-7-3.1H250c-5.3 0-9.5 4.3-9.5 9.5 0 5.3 4.3 9.5 9.5 9.5h208.1l-8.5 105.5c-1.5 18.4-17.1 32.9-35.7 32.9H216.5c-9.4 0-17.9-6-21.1-14.8 0-.1 0-.1-.1-.2l-80.7-212c-1.4-3.7-4.9-6.1-8.9-6.1H43.6c-5.3 0-9.5 4.3-9.5 9.5 0 5.3 4.3 9.5 9.5 9.5h55.6l78.3 205.8c5.9 16.4 21.6 27.3 39 27.3H414c28.4 0 52.4-22.1 54.6-50.4l9.3-115.8c.2-2.5-.7-5.1-2.5-7.1z"></path>
          </svg>