<svg xmlns="http://www.w3.org/2000/svg" viewBox="0 0 9.913 9.9"><defs><style>.a{fill:#fff;}</style></defs><g transform="translate(-495.5 -245.6)"><path class="a" d="M502.8,253.8l-2-1.1a3.224,3.224,0,0,0,.9-2.3V249c0-.9-1.2-1.8-2.3-1.8s-2.4,1-2.4,1.8v1.3a3.194,3.194,0,0,0,1,2.3l-2,1.1s-.5.2-.5.5v.8a.472.472,0,0,0,.5.5h6.8a.472.472,0,0,0,.5-.5v-.8C503.4,254,502.8,253.8,502.8,253.8Zm-.1,1.2h-6.6v-.6a.349.349,0,0,1,.2-.1h0l2-1.1a.55.55,0,0,0,.3-.5.764.764,0,0,0-.2-.5,2.688,2.688,0,0,1-.8-1.8V249c0-.5.8-1.2,1.7-1.2A1.819,1.819,0,0,1,501,249v1.3a2.567,2.567,0,0,1-.7,1.8.365.365,0,0,0-.2.5.55.55,0,0,0,.3.5l2,1.1h.1a.1.1,0,0,1,.1.1l.1.7Zm2.3-2.8-2-1.1a3.365,3.365,0,0,0,1-2.3v-1.3c0-.9-1.2-1.9-2.4-1.9a2.876,2.876,0,0,0-2,.9,2.2,2.2,0,0,1,.8.1,1.746,1.746,0,0,1,1.2-.4,1.819,1.819,0,0,1,1.7,1.2v1.3a2.567,2.567,0,0,1-.7,1.8.365.365,0,0,0-.2.5.55.55,0,0,0,.3.5l2,1.1h.1a.1.1,0,0,1,.1.1v.6h-1.3a.6.6,0,0,1,.3.6h1a.472.472,0,0,0,.5-.5v-.8C505.5,252.5,505,252.2,505,252.2Z"/></g></svg>