<?xml version="1.0" encoding="utf-8"?>
<!-- Generator: Adobe Illustrator 19.0.0, SVG Export Plug-In . SVG Version: 6.00 Build 0)  -->
<svg version="1.1" id="Layer_1" xmlns="http://www.w3.org/2000/svg" xmlns:xlink="http://www.w3.org/1999/xlink" x="0px" y="0px"
	 viewBox="-3 4 13 13" style="enable-background:new -3 4 13 13;" xml:space="preserve">
<g id="Group_478" transform="translate(-1297.681 -13.499)">
	<g id="Group_10" transform="translate(1297.681 13.499)">
		<g id="Path_6">
			<path d="M5.3,13.2c-2.3,1.6-5.4,1.1-7.1-1.1c-1.6-2.1-1.2-5,0.7-6.7c1.9-1.7,4.8-1.7,6.7-0.1c2.1,1.7,2.4,4.8,0.7,6.9
				c0,0-0.1,0.1-0.1,0.1l3.4,3.4c0.2,0.2,0.3,0.5,0.1,0.8c0,0,0,0.1-0.1,0.1l0,0c-0.2,0.2-0.6,0.3-0.8,0.1c0,0,0,0-0.1-0.1
				C7.6,15.5,6.4,14.4,5.3,13.2z M2.3,4.8c-2.4,0-4.4,2.1-4.3,4.5c0,2.4,2.1,4.4,4.5,4.3c2.4,0,4.3-2,4.3-4.4c0-2.4-1.9-4.4-4.3-4.4
				C2.4,4.8,2.3,4.8,2.3,4.8z"/>
			<path d="M9.2,17.1c-0.2,0-0.4-0.1-0.5-0.2c0,0-0.1,0-0.1-0.1c-0.4-0.4-0.8-0.7-1.2-1.1C6.8,15,6,14.3,5.3,13.5
				c-2.4,1.5-5.5,1-7.3-1.2c-1.6-2.2-1.3-5.2,0.8-6.9c2-1.8,5-1.8,7-0.1c1.1,0.9,1.7,2.1,1.9,3.4c0.1,1.4-0.3,2.7-1.1,3.7l3.3,3.2
				c0.1,0.1,0.2,0.3,0.3,0.5c0,0.2,0,0.4-0.2,0.6c0,0-0.1,0.1-0.1,0.1C9.7,17,9.5,17.1,9.2,17.1C9.3,17.1,9.3,17.1,9.2,17.1z
				 M5.3,13l0.1,0.1c0.7,0.8,1.5,1.5,2.3,2.3c0.4,0.4,0.8,0.8,1.2,1.1l0,0c0.1,0.1,0.2,0.1,0.3,0.1c0.1,0,0.2,0,0.2-0.1
				c0,0,0.1-0.1,0.1-0.1c0.1-0.1,0.1-0.2,0.1-0.2c0-0.1-0.1-0.2-0.1-0.2L6,12.5l0.1-0.2c0,0,0.1-0.1,0.1-0.1c0.8-1,1.2-2.2,1-3.4
				S6.5,6.4,5.5,5.6C3.7,4,0.9,4-0.9,5.7c-1.9,1.6-2.2,4.4-0.7,6.4C0,14.1,3,14.6,5.2,13.1L5.3,13z M2.4,13.8c-2.5,0-4.6-2-4.6-4.5
				c0-2.5,2-4.6,4.5-4.7c0.1,0,0.1,0,0.2,0C5,4.6,7,6.7,7,9.2C7,11.7,5,13.7,2.4,13.8C2.4,13.8,2.4,13.8,2.4,13.8z M2.4,5
				c0,0-0.1,0-0.1,0l0,0C0,5-1.8,7-1.8,9.3c0,2.3,1.9,4.2,4.3,4.1c2.3,0,4.1-1.9,4.1-4.2C6.6,6.9,4.7,5,2.4,5C2.4,5,2.4,5,2.4,5z"/>
		</g>
	</g>
</g>
</svg>
