<svg xmlns="http://www.w3.org/2000/svg" width="40" height="40" viewBox="0 0 40 40"><defs><style>.a{fill:#fff;}.b{fill:#191e80;}</style></defs><g transform="translate(-203 -83)"><rect class="a" width="40" height="40" rx="7" transform="translate(203 83)"/><g transform="translate(-315.004 -480.085)"><g transform="translate(533.502 576.555)"><g transform="translate(0 0)"><path class="b" d="M235,176h-5.5a.5.5,0,0,1,0-1H235a.5.5,0,0,1,0,1Z" transform="translate(-229 -175)"/></g><g transform="translate(0 2)"><path class="b" d="M238,180h-8.5a.5.5,0,0,1,0-1H238a.5.5,0,0,1,0,1Z" transform="translate(-229 -179)"/></g><g transform="translate(0 4)"><path class="b" d="M238,184h-8.5a.5.5,0,0,1,0-1H238a.5.5,0,0,1,0,1Z" transform="translate(-229 -183)"/></g></g><g transform="translate(531.005 573.085)"><path class="b" d="M236.967,188.06H225.5a1.5,1.5,0,0,1-1.5-1.5v-17a1.5,1.5,0,0,1,1.5-1.5h11.466a1.5,1.5,0,0,1,1.5,1.5v17A1.5,1.5,0,0,1,236.967,188.06Zm-11.466-19a.5.5,0,0,0-.5.5v17a.5.5,0,0,0,.5.5h11.466a.5.5,0,0,0,.5-.5v-17a.5.5,0,0,0-.5-.5Z" transform="translate(-224.005 -168.06)"/></g><g transform="translate(534.002 582.555)"><g transform="translate(1.083 0.456)"><path class="b" d="M232.666,195.535a.5.5,0,0,1-.47-.669c.218-.608,1.4-3.642,3.1-3.642.743,0,1.73-1.779,2.164-2.981a.5.5,0,0,1,.941.338c-.218.608-1.4,3.643-3.1,3.643-.743,0-1.731,1.779-2.164,2.981A.5.5,0,0,1,232.666,195.535Z" transform="translate(-232.166 -187.911)"/></g><g transform="translate(1.076 0.442)"><path class="b" d="M237.925,195.521a.5.5,0,0,1-.471-.331c-.433-1.2-1.421-2.981-2.164-2.981-1.709,0-2.886-3.035-3.1-3.643a.5.5,0,1,1,.94-.339c.433,1.2,1.421,2.981,2.164,2.981,1.709,0,2.886,3.034,3.1,3.642a.5.5,0,0,1-.47.669Z" transform="translate(-232.151 -187.884)"/></g><g transform="translate(0 0)"><path class="b" d="M237.5,188h-7a.5.5,0,0,1,0-1h7a.5.5,0,1,1,0,1Z" transform="translate(-230 -187)"/></g><g transform="translate(0 7.5)"><path class="b" d="M237.5,203h-7a.5.5,0,0,1,0-1h7a.5.5,0,1,1,0,1Z" transform="translate(-230 -202)"/></g></g></g></g></svg>