<svg xmlns="http://www.w3.org/2000/svg" width="40" height="40" viewBox="0 0 40 40"><defs><style>.a{fill:#fff;}.b{fill:#191e80;}</style></defs><g transform="translate(-261 -82)"><rect class="a" width="40" height="40" rx="7" transform="translate(261 82)"/><g transform="translate(50.609 -439.06)"><g transform="translate(223.391 531.06)"><path class="b" d="M236.357,551.06H224.891a1.5,1.5,0,0,1-1.5-1.5v-17a1.5,1.5,0,0,1,1.5-1.5h11.466a1.5,1.5,0,0,1,1.5,1.5v17a1.5,1.5,0,0,1-1.5,1.5Zm-11.466-19a.5.5,0,0,0-.5.5v17a.5.5,0,0,0,.5.5h11.466a.5.5,0,0,0,.5-.5v-17a.5.5,0,0,0-.5-.5Z" transform="translate(-223.391 -531.06)"/></g><g transform="translate(225.695 534.53)"><path class="b" d="M234,539h-5.5a.5.5,0,0,1,0-1H234a.5.5,0,0,1,0,1Z" transform="translate(-228 -538)"/></g><g transform="translate(230.975 546.392)"><path class="b" d="M241.488,565.1a.44.44,0,0,1-.312-.13l-2.487-2.487a.442.442,0,0,1,.625-.625l2.487,2.487a.442.442,0,0,1-.312.755Z" transform="translate(-238.559 -561.725)"/></g><g transform="translate(225.695 536.53)"><path class="b" d="M237,543h-8.5a.5.5,0,0,1,0-1H237a.5.5,0,0,1,0,1Z" transform="translate(-228 -542)"/></g><g transform="translate(225.695 538.53)"><path class="b" d="M237,547h-8.5a.5.5,0,0,1,0-1H237a.5.5,0,0,1,0,1Z" transform="translate(-228 -546)"/></g><g transform="translate(227.436 542.858)"><path class="b" d="M232.673,557.483h0a.5.5,0,0,1-.353-.146l-.692-.692a.5.5,0,1,1,.707-.707l.338.338,1.473-1.474a.5.5,0,0,1,.707.707l-1.827,1.827A.5.5,0,0,1,232.673,557.483Z" transform="translate(-231.482 -554.656)"/></g><g transform="translate(225.556 540.797)"><path class="b" d="M231.284,557.659a3.562,3.562,0,1,1,2.519-6.081h0a3.562,3.562,0,0,1-2.519,6.081Zm0-6.123a2.561,2.561,0,1,0,1.812.75A2.561,2.561,0,0,0,231.284,551.535Z" transform="translate(-227.721 -550.534)"/></g></g></g></svg>