<svg xmlns="http://www.w3.org/2000/svg" width="40" height="40" viewBox="0 0 40 40"><defs><style>.a{fill:#fff;}.b{fill:#191e80;}.c{fill:#1a237e;}</style></defs><g transform="translate(-203 -173)"><rect class="a" width="40" height="40" rx="7" transform="translate(203 173)"/><g transform="translate(4 17)"><g transform="translate(212 166)"><path class="b" d="M398.359,551.06H386.893a1.5,1.5,0,0,1-1.5-1.5v-17a1.5,1.5,0,0,1,1.5-1.5h11.466a1.5,1.5,0,0,1,1.5,1.5v17a1.5,1.5,0,0,1-1.5,1.5Zm-11.466-19a.5.5,0,0,0-.5.5v17a.5.5,0,0,0,.5.5h11.466a.5.5,0,0,0,.5-.5v-17a.5.5,0,0,0-.5-.5Z" transform="translate(-385.396 -531.06)"/></g><g transform="translate(214.5 171.5)"><rect class="c" width="1" height="3" rx="0.5" transform="translate(3 4)"/><rect class="c" width="1" height="3" rx="0.5" transform="translate(8 4)"/><rect class="c" width="1" height="7" rx="0.5" transform="translate(5.5)"/><rect class="c" width="1" height="4" rx="0.5" transform="translate(0.5 3)"/><rect class="c" width="1" height="9.5" rx="0.5" transform="translate(9.5 8.5) rotate(90)"/></g></g></g></svg>