<svg xmlns="http://www.w3.org/2000/svg" width="40" height="40" viewBox="0 0 40 40"><defs><style>.a{fill:#fff;}.b{fill:#1a237e;}</style></defs><g transform="translate(-261 -82)"><rect class="a" width="40" height="40" rx="7" transform="translate(261 82)"/><g transform="translate(-514.083 -481.087)"><g transform="translate(787.083 573.087)"><g transform="translate(0 11.047)"><path class="b" d="M487.573,199.109h-6.465a1.025,1.025,0,0,1-1.024-1.024v-4.807a.5.5,0,0,1,.207-.405l3.626-2.621a.5.5,0,0,1,.586,0l3.626,2.621a.5.5,0,0,1,.207.405v5.068a.763.763,0,0,1-.762.764Zm-6.49-5.574v4.55l6.252.023v-4.573l-3.126-2.26Z" transform="translate(-480.083 -190.156)"/></g><g transform="translate(8.643 0)"><path class="b" d="M504.86,177.014h-6.466a1.025,1.025,0,0,1-1.024-1.024v-4.805a.5.5,0,0,1,.207-.406l3.626-2.621a.5.5,0,0,1,.586,0l3.626,2.621a.5.5,0,0,1,.207.406v5.067a.763.763,0,0,1-.761.763Zm-6.49-5.574v4.55l6.25.023V171.44l-3.126-2.26Z" transform="translate(-497.37 -168.062)"/></g><g transform="translate(9.958 10.376)"><g transform="translate(0 1.093)"><path class="b" d="M502.84,198H500.5a.5.5,0,0,1,0-1h1.838l-.016-5.614c0-.276.222-.385.5-.385h0c.275,0,.5.107.5.383l.018,6.173a.437.437,0,0,1-.146.325A.477.477,0,0,1,502.84,198Z" transform="translate(-500 -191)"/></g><g transform="translate(0.833)"><path class="b" d="M502.166,191.339a.5.5,0,0,1-.354-.854l1.525-1.525a.5.5,0,0,1,.707,0l1.489,1.489a.5.5,0,1,1-.707.707l-1.136-1.136-1.171,1.171A.5.5,0,0,1,502.166,191.339Z" transform="translate(-501.666 -188.814)"/></g></g></g></g></g></svg>