<svg xmlns="http://www.w3.org/2000/svg" width="40" height="40" viewBox="0 0 40 40"><defs><style>.a{fill:#fff;}.b{fill:#191e80;}</style></defs><g transform="translate(-261 -82)"><rect class="a" width="40" height="40" rx="7" transform="translate(261 82)"/><g transform="translate(-7.396 -140.064)"><g transform="translate(281.396 232.064)"><path class="b" d="M286.934,252.064a.5.5,0,0,1-.352-.146l-1.217-1.217-1.134,1.134a.5.5,0,0,1-.647.049l-1.985-1.463a.5.5,0,0,1-.2-.4V233.558a1.5,1.5,0,0,1,1.494-1.494h11.438a1.5,1.5,0,0,1,1.494,1.494V250.02a.5.5,0,0,1-.21.406l-2.082,1.474a.5.5,0,0,1-.64-.054l-1.248-1.248-1.248,1.248a.5.5,0,0,1-.352.146h0a.5.5,0,0,1-.352-.146l-1.165-1.165-1.237,1.238A.5.5,0,0,1,286.934,252.064Zm-1.569-2.565a.5.5,0,0,1,.352.146l1.217,1.217,1.237-1.238a.5.5,0,0,1,.352-.146h0a.5.5,0,0,1,.353.146l1.165,1.165,1.248-1.248a.5.5,0,0,1,.7,0l1.3,1.3,1.529-1.083v-16.2a.5.5,0,0,0-.5-.5H282.89a.5.5,0,0,0-.5.5v16.21l1.438,1.06,1.183-1.183A.5.5,0,0,1,285.365,249.5Z" transform="translate(-281.396 -232.064)"/></g><g transform="translate(289.456 243.502)"><path class="b" d="M299.156,255a.292.292,0,0,1,.294.294v.079a2.372,2.372,0,0,1,.82.271.381.381,0,0,1-.181.718.412.412,0,0,1-.2-.051,2.19,2.19,0,0,0-.469-.193v.859c.859.232,1.227.583,1.227,1.216s-.486,1.04-1.2,1.12v.3a.294.294,0,0,1-.589,0v-.305a2.83,2.83,0,0,1-1.114-.4.388.388,0,0,1,.2-.724.41.41,0,0,1,.22.073,2.154,2.154,0,0,0,.724.317v-.9c-.814-.221-1.216-.532-1.216-1.2a1.159,1.159,0,0,1,1.188-1.114v-.068A.292.292,0,0,1,299.156,255Zm-.266,1.832v-.764c-.271.04-.39.176-.39.356S298.579,256.717,298.89,256.83Zm.532.99v.786c.266-.039.4-.164.4-.367C299.823,258.051,299.727,257.927,299.422,257.819Z" transform="translate(-297.556 -254.998)"/></g><g transform="translate(288.181 235.025)"><path class="b" d="M299.987,239H295.5a.5.5,0,1,1,0-1h4.489a.5.5,0,0,1,0,1Z" transform="translate(-295 -238)"/></g><g transform="translate(288.181 237.019)"><path class="b" d="M299.987,243H295.5a.5.5,0,1,1,0-1h4.489a.5.5,0,0,1,0,1Z" transform="translate(-295 -242)"/></g><g transform="translate(288.181 239.014)"><path class="b" d="M299.987,247H295.5a.5.5,0,1,1,0-1h4.489a.5.5,0,0,1,0,1Z" transform="translate(-295 -246)"/></g><g transform="translate(283.692 237.019)"><path class="b" d="M288.992,243H286.5a.5.5,0,1,1,0-1h2.494a.5.5,0,1,1,0,1Z" transform="translate(-286 -242)"/></g><g transform="translate(283.692 239.014)"><path class="b" d="M288.992,247H286.5a.5.5,0,1,1,0-1h2.494a.5.5,0,1,1,0,1Z" transform="translate(-286 -246)"/></g><g transform="translate(283.692 246.496)"><path class="b" d="M288.992,262H286.5a.5.5,0,1,1,0-1h2.494a.5.5,0,1,1,0,1Z" transform="translate(-286 -261)"/></g><g transform="translate(283.692 244.501)"><path class="b" d="M288.992,258H286.5a.5.5,0,1,1,0-1h2.494a.5.5,0,1,1,0,1Z" transform="translate(-286 -257)"/></g></g></g></svg>