<svg xmlns="http://www.w3.org/2000/svg" width="40" height="40" viewBox="0 0 40 40"><defs><style>.a{fill:#fff;}.b{fill:#191e80;}</style></defs><g transform="translate(-261 -82)"><rect class="a" width="40" height="40" rx="7" transform="translate(261 82)"/><g transform="translate(-476.909 -139.072)"><g transform="translate(748.909 231.072)"><path class="b" d="M765.616,251.072H750.66a1.771,1.771,0,0,1-1.751-1.786V237.849a.538.538,0,0,1,.217-.431l8.388-6.239a.538.538,0,0,1,.642,0l8.387,6.239a.537.537,0,0,1,.217.431V249.91A1.155,1.155,0,0,1,765.616,251.072Zm-15.631-12.953v11.168a.694.694,0,0,0,.675.71h14.957a.08.08,0,0,0,.068-.086V238.119l-7.85-5.838Z" transform="translate(-748.909 -231.072)"/></g><g transform="translate(752.186 244.483)"><path class="b" d="M765.76,259.228H755.538a.538.538,0,0,1-.538-.538v-2.152a.538.538,0,1,1,1.076,0v1.614h9.146v-1.614a.538.538,0,1,1,1.076,0v2.152A.538.538,0,0,1,765.76,259.228Z" transform="translate(-755 -256)"/></g><g transform="translate(753.62 240.179)"><g transform="translate(1.608)"><path class="b" d="M761.192,252.3h0a.478.478,0,0,1-.536-.465l.014-3.39c0-.3.242-.449.538-.449h0a.5.5,0,0,1,.536.49l-.014,3.378C761.729,252.164,761.488,252.3,761.192,252.3Z" transform="translate(-760.654 -248)"/></g><g transform="translate(0 2.791)"><path class="b" d="M759.807,255.9a.537.537,0,0,1-.381-.158l-1.6-1.6a.538.538,0,1,1,.761-.761l1.223,1.222,1.259-1.26a.538.538,0,1,1,.761.761l-1.64,1.64A.536.536,0,0,1,759.807,255.9Z" transform="translate(-757.666 -253.189)"/></g></g><g transform="translate(757.924 240.079)"><g transform="translate(1.622 1.176)"><path class="b" d="M769.218,254.3h0a.486.486,0,0,1-.536-.476l.014-3.385c0-.3.242-.443.538-.443h0a.488.488,0,0,1,.536.479l-.014,3.383C769.755,254.159,769.514,254.3,769.218,254.3Z" transform="translate(-768.68 -250)"/></g><path class="b" d="M766.2,250.531a.538.538,0,0,1-.38-.918l1.64-1.641a.538.538,0,0,1,.761,0l1.6,1.6a.538.538,0,0,1-.761.761l-1.222-1.222-1.26,1.26A.536.536,0,0,1,766.2,250.531Z" transform="translate(-765.666 -247.814)"/></g></g></g></svg>