<svg xmlns="http://www.w3.org/2000/svg" width="40" height="40" viewBox="0 0 40 40"><defs><style>.a{fill:#fff;}.b,.c,.d,.e,.g{fill:none;}.b,.c,.d,.e{stroke:#191e80;}.b,.c{stroke-linecap:round;}.b,.d{stroke-miterlimit:10;}.c,.e{stroke-linejoin:round;}.e{stroke-linecap:square;}.f{stroke:none;}</style></defs><g transform="translate(-261 -82)"><rect class="a" width="40" height="40" rx="7" transform="translate(261 82)"/><g transform="translate(-359.411 -438)"><path class="b" d="M649.225,534.868v14.018a1.144,1.144,0,0,1-1.144,1.144H633.554a1.144,1.144,0,0,1-1.143-1.144v-17.68a1.143,1.143,0,0,1,1.143-1.143H644.39" transform="translate(0 -0.03)"/><path class="b" d="M655.8,558.79" transform="translate(-11.099 -13.662)"/><path class="c" d="M654.387,551.026" transform="translate(-10.429 -9.978)"/><g transform="translate(645.857 530)"><path class="b" d="M661.063,533.408" transform="translate(-659.454 -531.617)"/><line class="b" y2="3.153" transform="translate(1.576)"/><line class="b" x1="3.153" transform="translate(0 1.576)"/></g><g class="d" transform="translate(637.975 534.904)"><circle class="f" cx="2.452" cy="2.452" r="2.452"/><circle class="g" cx="2.452" cy="2.452" r="1.952"/></g><path class="e" d="M2.485,0H5.922A2.485,2.485,0,0,1,8.407,2.485V3.941a.525.525,0,0,1-.525.525H.525A.525.525,0,0,1,0,3.941V2.485A2.485,2.485,0,0,1,2.485,0Z" transform="translate(636.399 541.122)"/></g></g></svg>