<svg xmlns="http://www.w3.org/2000/svg" width="40" height="40" viewBox="0 0 40 40"><defs><style>.a{fill:#fff;}.b{fill:#191e80;}.c{fill:none;stroke:#191e80;stroke-linecap:round;stroke-miterlimit:10;stroke-width:2px;}</style></defs><g transform="translate(-261 -82)"><rect class="a" width="40" height="40" rx="7" transform="translate(261 82)"/><g transform="translate(274 92)"><g transform="translate(2.302 5.468)"><path class="b" d="M493,246h-5.5a.5.5,0,1,1,0-1H493a.5.5,0,0,1,0,1Z" transform="translate(-487 -245)"/></g><g transform="translate(2.302 7.468)"><path class="b" d="M496,250h-8.5a.5.5,0,1,1,0-1H496a.5.5,0,1,1,0,1Z" transform="translate(-487 -249)"/></g><g transform="translate(2.478 10.933)"><path class="b" d="M487.352,257.992v-.012a2.017,2.017,0,0,1,2.069-2.052,2.1,2.1,0,0,1,1.327.4.438.438,0,0,1,.17.346.426.426,0,0,1-.431.426.454.454,0,0,1-.26-.086,1.31,1.31,0,0,0-.811-.283,1.175,1.175,0,0,0-1.151,1.236v.012a1.178,1.178,0,0,0,1.151,1.247,1.275,1.275,0,0,0,.862-.312.4.4,0,1,1,.522.618,2.09,2.09,0,0,1-3.446-1.542Z" transform="translate(-487.352 -255.928)"/><path class="b" d="M496.073,256.5a.433.433,0,0,1,.437-.437h1.378a1.581,1.581,0,0,1,1.157.4,1.246,1.246,0,0,1,.34.907v.012a1.21,1.21,0,0,1-.794,1.207l.607.737a.51.51,0,0,1,.142.335.406.406,0,0,1-.414.4.523.523,0,0,1-.431-.226l-.851-1.078h-.7v.868a.437.437,0,0,1-.873,0Zm1.758,1.491c.425,0,.669-.227.669-.561v-.011c0-.374-.261-.567-.686-.567h-.868v1.139Z" transform="translate(-491.712 -255.996)"/></g><path class="b" d="M492.2,254.064h-8.3a1.5,1.5,0,0,1-1.5-1.5v-17a1.5,1.5,0,0,1,1.5-1.5h10.055a.5.5,0,0,1,.412.218l2.411,3.531a.5.5,0,0,1,.086.282v10.267a.5.5,0,1,1-1,0V238.249l-2.175-3.186h-9.791a.5.5,0,0,0-.5.5v17a.5.5,0,0,0,.5.5h8.3a.5.5,0,0,1,0,1Z" transform="translate(-482.396 -234.064)"/><g transform="translate(10.303 0.468)"><path class="b" d="M506,239h-2.5a.5.5,0,0,1-.5-.5v-3a.5.5,0,1,1,1,0V238h2a.5.5,0,1,1,0,1Z" transform="translate(-503 -235)"/></g><g transform="translate(11.303 16.969)"><g transform="translate(1.5 3)"><path class="c" d="M508,274" transform="translate(-508 -274)"/></g><g transform="translate(1.5)"><path class="c" d="M508,268" transform="translate(-508 -268)"/></g><g transform="translate(0 1.5)"><path class="c" d="M505,271" transform="translate(-505 -271)"/></g></g><g transform="translate(10.803 15.969)"><g transform="translate(2.032 2.204)"><path class="c" d="M508.063,270.408" transform="translate(-508.063 -270.408)"/></g><g transform="translate(1.5)"><path class="b" d="M507.5,270a.5.5,0,0,1-.5-.5v-3a.5.5,0,1,1,1,0v3A.5.5,0,0,1,507.5,270Z" transform="translate(-507 -266)"/></g><g transform="translate(0 1.5)"><path class="b" d="M507.5,270h-3a.5.5,0,1,1,0-1h3a.5.5,0,1,1,0,1Z" transform="translate(-504 -269)"/></g></g></g></g></svg>