<svg xmlns="http://www.w3.org/2000/svg" width="40" height="40" viewBox="0 0 40 40"><defs><style>.a{fill:#fff;}.b{fill:#191e80;}.c{fill:none;stroke:#191e80;stroke-linecap:round;stroke-miterlimit:10;stroke-width:2px;}</style></defs><g transform="translate(-30 -263)"><g transform="translate(-231 180)"><path class="a" d="M7,0H33a7,7,0,0,1,7,7V33a7,7,0,0,1-7,7H7a7,7,0,0,1-7-7V7A7,7,0,0,1,7,0Z" transform="translate(261 83)"/></g><g transform="translate(-394.396 38.936)"><g transform="translate(439.698 239.532)"><path class="b" d="M448,246h-5.5a.5.5,0,0,1,0-1H448a.5.5,0,0,1,0,1Z" transform="translate(-442 -245)"/></g><g transform="translate(439.698 241.532)"><path class="b" d="M451,250h-8.5a.5.5,0,0,1,0-1H451a.5.5,0,1,1,0,1Z" transform="translate(-442 -249)"/></g><g transform="translate(440.049 245.065)"><path class="b" d="M442.7,256.5a.433.433,0,0,1,.437-.437h1.112a1.978,1.978,0,0,1,2.109,1.973v.011a1.986,1.986,0,0,1-2.109,1.984h-1.112a.433.433,0,0,1-.437-.436Zm1.548,2.744a1.13,1.13,0,0,0,1.2-1.185v-.012a1.139,1.139,0,0,0-1.2-1.2h-.675v2.392Z" transform="translate(-442.702 -256.064)"/><path class="b" d="M451.572,256.5a.433.433,0,0,1,.437-.437h1.378a1.582,1.582,0,0,1,1.157.4,1.246,1.246,0,0,1,.34.907v.012a1.21,1.21,0,0,1-.794,1.207l.607.737a.51.51,0,0,1,.142.335.406.406,0,0,1-.414.4.523.523,0,0,1-.431-.227l-.851-1.078h-.7v.868a.437.437,0,0,1-.873,0Zm1.758,1.491c.425,0,.669-.227.669-.561v-.011c0-.374-.261-.567-.686-.567h-.868v1.139Z" transform="translate(-447.137 -256.064)"/></g><g transform="translate(437.396 234.064)"><path class="b" d="M447.2,254.064h-8.3a1.5,1.5,0,0,1-1.5-1.5v-17a1.5,1.5,0,0,1,1.5-1.5h10.055a.5.5,0,0,1,.412.218l2.411,3.531a.5.5,0,0,1,.087.282v10.268a.5.5,0,1,1-1,0V238.249l-2.175-3.186h-9.792a.5.5,0,0,0-.5.5v17a.5.5,0,0,0,.5.5h8.3a.5.5,0,0,1,0,1Z" transform="translate(-437.396 -234.064)"/></g><g transform="translate(447.699 234.532)"><path class="b" d="M461,239h-2.5a.5.5,0,0,1-.5-.5v-3a.5.5,0,1,1,1,0V238h2a.5.5,0,1,1,0,1Z" transform="translate(-458 -235)"/></g><g transform="translate(448.699 251.033)"><g transform="translate(1.5 3)"><path class="c" d="M463,274" transform="translate(-463 -274)"/></g><g transform="translate(1.5 0)"><path class="c" d="M463,268" transform="translate(-463 -268)"/></g><g transform="translate(0 1.5)"><path class="c" d="M460,271" transform="translate(-460 -271)"/></g></g><g transform="translate(448.199 250.033)"><g transform="translate(2.032 2.204)"><path class="c" d="M463.063,270.408" transform="translate(-463.063 -270.408)"/></g><g transform="translate(1.5)"><path class="b" d="M462.5,270a.5.5,0,0,1-.5-.5v-3a.5.5,0,1,1,1,0v3A.5.5,0,0,1,462.5,270Z" transform="translate(-462 -266)"/></g><g transform="translate(0 1.5)"><path class="b" d="M462.5,270h-3a.5.5,0,0,1,0-1h3a.5.5,0,0,1,0,1Z" transform="translate(-459 -269)"/></g></g></g></g></svg>