<svg xmlns="http://www.w3.org/2000/svg" width="40" height="40" viewBox="0 0 40 40"><defs><style>.a{fill:#fff;}.b{fill:#1a237e;}</style></defs><g transform="translate(-261 -82)"><rect class="a" width="40" height="40" rx="7" transform="translate(261 82)"/><g transform="translate(-558.16 -1455)"><path class="b" d="M44.689,10.457h0a.509.509,0,0,0-.035-.1l-.014-.023a.339.339,0,0,0-.063-.088L40.036,5.7a.574.574,0,0,0-.088-.065l-.023-.012a.4.4,0,0,0-.181-.044H31.236A1.428,1.428,0,0,0,29.81,7.008V24.154a1.428,1.428,0,0,0,1.426,1.426H43.27A1.428,1.428,0,0,0,44.7,24.154V10.533a.428.428,0,0,0-.007-.077Zm-1.4-.335H40.826a.672.672,0,0,1-.672-.67V6.987ZM43.27,24.747H31.236a.6.6,0,0,1-.6-.6V7.008a.607.607,0,0,1,.6-.6h8.1V9.452a1.5,1.5,0,0,0,1.5,1.493h3.049V24.154a.6.6,0,0,1-.6.593Z" transform="translate(802.35 1541.42)"/><path class="b" d="M40.872,42.723h8.956a.412.412,0,0,0,0-.823H40.872a.412.412,0,1,0,0,.823Z" transform="translate(794.177 1511.546)"/><path class="b" d="M50.239,53.642a.412.412,0,0,0-.412-.412H40.872a.412.412,0,1,0,0,.823h8.956a.412.412,0,0,0,.412-.412Z" transform="translate(794.177 1502.851)"/><path class="b" d="M-2.958-5.289h.528a1.477,1.477,0,0,0-.189-.559,1.375,1.375,0,0,0-.361-.4A1.584,1.584,0,0,0-3.475-6.5a2.041,2.041,0,0,0-.589-.083,1.9,1.9,0,0,0-.809.164,1.672,1.672,0,0,0-.589.448,1.963,1.963,0,0,0-.359.665,2.649,2.649,0,0,0-.122.815,2.8,2.8,0,0,0,.114.812,1.875,1.875,0,0,0,.342.656,1.584,1.584,0,0,0,.573.437,1.914,1.914,0,0,0,.806.158,1.673,1.673,0,0,0,1.2-.417A1.8,1.8,0,0,0-2.391-4.01h-.528a1.515,1.515,0,0,1-.1.456,1.1,1.1,0,0,1-.231.364,1.051,1.051,0,0,1-.35.239,1.179,1.179,0,0,1-.464.086A1.307,1.307,0,0,1-4.677-3a1.2,1.2,0,0,1-.42-.359,1.536,1.536,0,0,1-.242-.528,2.573,2.573,0,0,1-.078-.642,2.3,2.3,0,0,1,.078-.6A1.548,1.548,0,0,1-5.1-5.642,1.2,1.2,0,0,1-4.679-6a1.29,1.29,0,0,1,.609-.133,1.227,1.227,0,0,1,.72.211A.982.982,0,0,1-2.958-5.289Zm1.223-1.2v3.97h.528v-1.7H.084a.7.7,0,0,1,.311.058A.521.521,0,0,1,.584-4a.645.645,0,0,1,.106.228q.033.131.056.275A1.938,1.938,0,0,1,.779-3.2q.006.15.011.281a1.714,1.714,0,0,0,.025.236.332.332,0,0,0,.075.167h.589a.679.679,0,0,1-.125-.231A1.809,1.809,0,0,1,1.29-3.02a2.56,2.56,0,0,1-.028-.295q-.006-.15-.017-.295A2.556,2.556,0,0,0,1.2-3.888.844.844,0,0,0,1.1-4.129a.609.609,0,0,0-.172-.186.707.707,0,0,0-.281-.111v-.011a.844.844,0,0,0,.526-.373,1.205,1.205,0,0,0,.164-.634.957.957,0,0,0-.32-.762,1.307,1.307,0,0,0-.887-.278Zm1.629,1.83h-1.1V-6.04H.106a.686.686,0,0,1,.539.189.712.712,0,0,1,.167.489.728.728,0,0,1-.075.353.594.594,0,0,1-.2.217.764.764,0,0,1-.292.108A2.129,2.129,0,0,1-.106-4.655Z" transform="translate(841.456 1566)"/></g></g></svg>