<svg xmlns="http://www.w3.org/2000/svg" width="24.845" height="20" viewBox="0 0 24.845 20"><defs><style>.a{fill:#1a237e;}</style></defs><g transform="translate(-28.684 -123.071)"><g transform="translate(31.912 123.071)"><g transform="translate(0 0)"><path class="a" d="M163.317,128.118c0,.121-.005.239-.013.36l-.015.159c-.008.067.026.067,0-.013a.374.374,0,0,1-.015.105,4.463,4.463,0,0,1-.159.658c-.033.1-.072.206-.113.306s.013-.023.013-.028a.33.33,0,0,1-.041.093c-.023.051-.049.1-.075.154a4.736,4.736,0,0,1-.35.578c-.015.023-.1.147-.059.082s-.049.059-.064.08c-.072.087-.147.17-.224.252s-.159.159-.242.234c-.039.033-.075.067-.116.1l-.064.054c-.008.008-.018.013-.026.021l.023-.018c-.015.033-.108.08-.136.1l-.111.077c-.1.064-.2.126-.3.183s-.19.1-.288.147l-.062.028c-.108.051.108-.041,0,0l-.159.062a4.26,4.26,0,0,1-.666.185c-.051.01-.1.021-.154.028a.343.343,0,0,1-.087.013c.062.015.09-.01.031-.005-.118.013-.236.023-.355.028a4.782,4.782,0,0,1-.717-.028c-.1-.01.026.008.031.005-.023.008-.08-.013-.105-.015-.051-.008-.1-.018-.154-.028-.113-.023-.226-.051-.337-.082s-.208-.064-.311-.1l-.159-.062c-.062-.023-.013.018.028.013-.023,0-.069-.031-.093-.041a4.567,4.567,0,0,1-.591-.329l-.126-.085c-.031-.021-.108-.057-.123-.09l.051.039-.039-.031-.064-.054c-.046-.039-.1-.08-.139-.121a4.657,4.657,0,0,1-.455-.473l-.054-.064c0-.005-.008-.008-.01-.013l.018.023c-.033-.015-.069-.093-.09-.123-.069-.1-.134-.2-.193-.3-.051-.087-.1-.177-.147-.267-.026-.051-.051-.1-.075-.154-.01-.021-.018-.041-.028-.062-.046-.1.036.093,0,0a4.866,4.866,0,0,1-.211-.656c-.023-.1-.046-.206-.062-.308a.3.3,0,0,1-.015-.105c0,.008.015.129.005.031-.008-.064-.013-.129-.018-.2a4.265,4.265,0,0,1,0-.7c.005-.059.01-.118.018-.177s-.021-.031-.005.031a.342.342,0,0,1,.013-.087c.021-.121.044-.242.072-.36a4.753,4.753,0,0,1,.2-.622c.044-.113-.049.105,0,0,.01-.021.018-.041.028-.062.023-.051.049-.1.075-.154.051-.1.105-.2.165-.3s.108-.172.167-.255c.021-.028.064-.121.1-.136-.041.018-.059.072-.018.023.026-.031.049-.062.075-.093a4.633,4.633,0,0,1,.455-.47c.041-.039.085-.075.129-.111.021-.015.144-.108.08-.064s.059-.044.082-.059c.054-.039.111-.077.167-.113a4.609,4.609,0,0,1,.563-.311c.018-.008.075-.046.093-.041-.005,0-.118.046-.028.013l.159-.062c.108-.039.219-.075.329-.105s.2-.051.3-.075c.057-.013.116-.023.172-.031l.087-.013c.049-.008-.118.013,0,0a4.533,4.533,0,0,1,.7-.026c.113.005.226.013.339.026.036.005.118.026-.013,0a.646.646,0,0,0,.069.01c.069.01.139.023.206.039a4.664,4.664,0,0,1,.648.185c.049.018.1.036.144.057.108.041-.08-.039-.013-.005l.077.036c.1.046.2.1.3.154s.185.108.275.167l.126.085.069.049.041.031c.044.033.036.026-.023-.018a.926.926,0,0,1,.231.2c.085.075.165.152.242.234s.152.165.224.252c.026.031.072.067.085.105l-.039-.051c.013.018.028.036.041.054l.059.082a4.844,4.844,0,0,1,.339.566c.023.046.046.093.067.139.013.026.023.051.036.077.033.067-.046-.121-.005-.013s.082.213.118.321a4.706,4.706,0,0,1,.162.676.648.648,0,0,0,.01.069c-.026-.123-.008-.064-.005-.031.005.059.013.118.018.177-.01.105-.008.226-.008.347a.514.514,0,1,0,1.028,0,5.035,5.035,0,0,0-.92-2.9A5.181,5.181,0,0,0,161,123.365a5.077,5.077,0,0,0-5.579,1.519,5.14,5.14,0,0,0-1.159,2.874,5.039,5.039,0,0,0,2.908,4.938,5.171,5.171,0,0,0,3.147.368,5.066,5.066,0,0,0,3.956-4.113,6,6,0,0,0,.072-.83.513.513,0,0,0-1.026,0Z" transform="translate(-154.246 -123.071)"/></g></g><g transform="translate(43.32 125.647)"><g transform="translate(0 0)"><path class="a" d="M604.779,227.192c0,.085,0,.167-.01.252,0,.041-.008.082-.01.123-.013.129.015-.085-.005.039a3.228,3.228,0,0,1-.118.488c-.026.077-.051.152-.082.226s.044-.09-.008.018c-.021.041-.039.082-.059.123a3.289,3.289,0,0,1-.252.419c-.018.026-.051.093-.08.108,0,0,.069-.08.028-.039l-.031.039a2.647,2.647,0,0,1-.18.2q-.081.085-.17.162l-.077.067-.051.044c-.072.062.064-.044.01-.008a3.822,3.822,0,0,1-.409.265c-.069.039-.139.075-.211.108l-.046.021c-.062.033.093-.036.028-.013-.044.015-.085.033-.129.049a3.177,3.177,0,0,1-.481.134c-.041.008-.08.015-.121.021-.121.021.075-.005-.021,0s-.177.018-.267.021a3.9,3.9,0,0,1-.519-.021c-.1-.01.1.015-.021,0l-.121-.021c-.085-.018-.17-.039-.252-.062a2.379,2.379,0,0,1-.229-.075c-.039-.013-.075-.028-.111-.044-.069-.026.013.018.028.013a.219.219,0,0,1-.062-.028,3.866,3.866,0,0,1-.429-.237c-.067-.044-.129-.09-.193-.136s.075.064.026.018l-.039-.031c-.033-.028-.069-.057-.1-.087a3.323,3.323,0,0,1-.337-.35c-.015-.018-.028-.036-.044-.051-.039-.044.031.039.028.039-.026-.015-.051-.069-.069-.1-.049-.069-.1-.139-.139-.211s-.08-.136-.116-.206c-.018-.036-.036-.072-.051-.105s-.018-.041-.028-.062c-.031-.059.046.121.005.013a3.512,3.512,0,0,1-.147-.458c-.018-.08-.036-.159-.049-.239a.282.282,0,0,1-.01-.069s.015.134.005.031c-.005-.046-.01-.1-.013-.141a3.179,3.179,0,0,1,0-.519c0-.041.008-.082.013-.123.01-.1-.018.111,0-.021.013-.085.031-.172.051-.257a3.905,3.905,0,0,1,.154-.473c.021-.054-.018.046-.018.044a.312.312,0,0,1,.028-.062c.015-.036.033-.072.051-.108.039-.075.08-.149.123-.221s.085-.134.129-.2l.069-.1-.028.039c0-.008.046-.057.054-.064a3.323,3.323,0,0,1,.337-.35c.028-.026.059-.051.09-.077l.039-.031c.069-.059-.021.013-.026.018a.805.805,0,0,1,.206-.147,3.03,3.03,0,0,1,.429-.237.314.314,0,0,1,.062-.028s-.1.039-.044.018c.039-.013.075-.028.111-.044.08-.031.162-.057.244-.08s.157-.041.237-.057l.121-.023a.564.564,0,0,0,.069-.01c-.026.008-.1.013-.031.005a4.152,4.152,0,0,1,.537-.021c.077,0,.154.01.231.018.134.015-.075-.013.021,0,.046.008.093.015.139.026a3.063,3.063,0,0,1,.5.141c.031.013.064.026.1.036.093.036-.026-.013-.028-.013a.344.344,0,0,1,.062.028c.077.036.152.075.226.116s.136.08.2.121.172.09.206.147c0,0-.082-.067-.039-.028.015.015.036.028.051.044l.09.077c.062.057.123.113.18.175s.105.116.157.175l.031.039c.036.041.036.01-.018-.026a.47.47,0,0,1,.08.108,3.616,3.616,0,0,1,.252.419c.018.036.036.072.051.108.008.015.013.031.021.046.031.062-.036-.1-.013-.028s.062.159.087.242a3.567,3.567,0,0,1,.118.488c.021.121-.005-.075,0,.021.005.041.008.082.013.123.005.085.008.175.008.265a.514.514,0,1,0,1.028,0,3.9,3.9,0,0,0-6.882-2.509,4,4,0,0,0-.9,2.221,3.889,3.889,0,0,0,2.239,3.82,4,4,0,0,0,2.453.283,3.909,3.909,0,0,0,3.036-3.165,4.249,4.249,0,0,0,.057-.65.517.517,0,0,0-.514-.514A.524.524,0,0,0,604.779,227.192Z" transform="translate(-598.008 -223.294)"/></g></g><g transform="translate(28.684 133.951)"><g transform="translate(0 0)"><path class="a" d="M44.207,551.986v1.689c0,.08,0,.157,0,.237,0,.118.031-.111,0,0-.005.023-.01.046-.015.067a.73.73,0,0,1-.031.1s.057-.105,0-.015c-.015.023-.026.049-.041.075-.005.01-.013.018-.018.028-.031.046-.026.039.021-.023.008.023-.123.129-.139.144-.082.077.1-.054,0,0a.43.43,0,0,0-.057.036.427.427,0,0,1-.09.046c.021-.008.041-.018.059-.026l-.064.023a.631.631,0,0,1-.067.018l-.033.008c-.057.01-.046.008.033,0a.48.48,0,0,1-.108.005h-.039c-.728,0-1.455,0-2.183,0h-11.2a.166.166,0,0,1-.036,0c-.057-.005-.046,0,.031.005a.422.422,0,0,1-.085-.018c-.028-.008-.054-.018-.082-.023-.111-.028.1.057,0,0-.026-.013-.049-.026-.075-.041s-.028-.018-.044-.026c-.046-.031-.039-.026.023.021-.021.005-.105-.1-.121-.113a.227.227,0,0,1-.023-.026c-.036-.044-.028-.033.018.026a.438.438,0,0,1-.054-.085c-.01-.021-.021-.041-.031-.059-.057-.1.028.108,0,0-.008-.033-.021-.064-.028-.1l-.008-.033c-.01-.057-.008-.046,0,.033a1.4,1.4,0,0,1-.005-.257v-1.7c0-.108,0-.216.01-.324.005-.072.01-.141.018-.213l.008-.069c.008-.057.005-.046-.005.031,0-.023.008-.046.01-.069a4.971,4.971,0,0,1,.172-.745c.036-.116.075-.229.118-.342l.031-.08c.044-.113-.049.105,0,0l.085-.185a5.188,5.188,0,0,1,.373-.645c.031-.046.064-.093.1-.139a.32.32,0,0,1,.059-.082l-.039.051c.013-.018.028-.036.041-.054.077-.1.157-.19.242-.28a5.306,5.306,0,0,1,.54-.506.367.367,0,0,1,.08-.062c-.111.051-.033.026,0,0s.09-.067.136-.1c.105-.075.216-.144.329-.208s.208-.116.314-.17c.051-.026.1-.049.154-.072a.364.364,0,0,1,.093-.041c-.069.028-.08.033-.028.013.021-.008.041-.018.064-.026a5.131,5.131,0,0,1,.725-.224c.113-.026.229-.049.344-.067a.5.5,0,0,1,.105-.015c-.136-.005-.036.005,0,0,.072-.008.141-.015.213-.018.129-.008.257-.013.383-.013h5.144c.118,0,.237.005.357.013.072.005.147.01.219.021.021,0,.165.023.036,0l.129.021a4.968,4.968,0,0,1,.925.249l.1.039c.018.008.147.064.033.013.064.028.129.057.19.087a4.52,4.52,0,0,1,.44.239q.177.108.347.231c.033.023.069.049.1.075-.09-.077-.021-.015,0,0,.064.051.129.105.19.159a5.005,5.005,0,0,1,.584.607l.059.075c.049.062-.072-.1,0,0,.041.057.082.113.123.172.082.121.162.247.234.375s.129.239.185.36c.013.028.026.059.041.087.057.121-.039-.1.008.021.028.072.057.144.082.219a5.309,5.309,0,0,1,.213.8c.008.039.013.08.021.118s.033.157.005.023a1.708,1.708,0,0,1,.021.2,3.534,3.534,0,0,1,.023.442.514.514,0,1,0,1.028,0,5.768,5.768,0,0,0-1.265-3.571,5.638,5.638,0,0,0-3.242-1.992,8.948,8.948,0,0,0-1.815-.123H34.826a7.574,7.574,0,0,0-1.818.164,5.719,5.719,0,0,0-4.237,4.566,13.9,13.9,0,0,0-.082,2.17c0,.247-.015.5.005.746a1.6,1.6,0,0,0,1.226,1.434,3.935,3.935,0,0,0,.779.039H43.636a1.6,1.6,0,0,0,1.167-.5,1.628,1.628,0,0,0,.422-.974c.008-.087.005-.175.005-.265v-1.7a.512.512,0,1,0-1.023,0Z" transform="translate(-28.684 -546.3)"/></g></g><g transform="translate(42.173 134.092)"><g transform="translate(0 0)"><path class="a" d="M563.727,555.993v1.6c0,.046,0,.09,0,.136v.044c-.008-.008.028-.1.008-.051a.337.337,0,0,0-.013.049c-.018.1,0-.036.015-.028s-.021.041-.023.044c-.051.1.008-.015.013-.01a.591.591,0,0,1-.069.069c-.021-.021.1-.057.023-.023a.36.36,0,0,0-.044.023c-.046.033.044-.028.046-.018s-.057.015-.064.018c-.09.028.1,0,0,0h-6.19c-.483,0-.972-.018-1.458,0h-.023l.514.514a15.366,15.366,0,0,0-.026-1.54,5.685,5.685,0,0,0-1.041-2.784,6.191,6.191,0,0,0-1.226-1.247c.033.27.069.537.1.807l.093-.08c.015-.013.123-.1.023-.021.054-.041.108-.08.165-.118a4.069,4.069,0,0,1,.422-.244c.036-.018.075-.033.111-.051.123-.059-.1.036.028-.013.064-.023.129-.049.193-.069a3.516,3.516,0,0,1,.483-.126.675.675,0,0,1,.126-.021c-.129,0,.008,0,.031,0,.072-.008.141-.013.213-.015s.123-.005.188-.005h4.244q.108,0,.216.008a.649.649,0,0,1,.213.021l-.067-.008.069.01.1.018q.085.015.17.039a3.511,3.511,0,0,1,.4.121c.033.013.064.026.1.036.108.041-.08-.039-.013-.005s.113.051.17.08a3.677,3.677,0,0,1,.352.2c.057.036.113.075.167.116l.028.021c.044.033.036.026-.023-.018.031.005.08.064.105.085a3.241,3.241,0,0,1,.3.291c.049.054.1.108.144.164.013.018.059.057.064.08-.041-.057-.051-.067-.028-.039.01.013.021.026.031.041a3.468,3.468,0,0,1,.237.37c.039.069.075.139.111.211a.66.66,0,0,1,.028.062c.01.021.018.041.028.062-.028-.069-.033-.08-.013-.028a4.1,4.1,0,0,1,.141.424c.018.067.033.136.049.2.008.033.013.069.021.1s.015.193.008.039c.013.154.033.306.033.463a.514.514,0,0,0,1.028,0,4.208,4.208,0,0,0-1.45-3.17,4.3,4.3,0,0,0-2.8-1.023h-3.869a6.46,6.46,0,0,0-.946.054,4.2,4.2,0,0,0-2.141,1.01.491.491,0,0,0-.141.432.545.545,0,0,0,.244.375c-.1-.077.021.018.046.039l.131.111c.087.075.17.154.252.237s.152.157.221.237l.1.116c.015.021.033.039.049.059s.075.1.031.039.026.036.028.041c.015.021.031.041.044.062.031.041.059.085.087.126.064.1.126.2.183.293s.1.18.147.272c.023.046.046.093.067.139l.031.069c.049.105-.031-.08.008.021a5.474,5.474,0,0,1,.211.63c.028.108.054.219.075.329l.031.177a.51.51,0,0,1,.013.08l-.008-.057c0,.021.005.041.008.059a7.384,7.384,0,0,1,.033.859v.74a.522.522,0,0,0,.514.514h7.417a1.676,1.676,0,0,0,.684-.09,1.156,1.156,0,0,0,.7-1.049c0-.126,0-.254,0-.383v-1.355a.519.519,0,0,0-.514-.514A.537.537,0,0,0,563.727,555.993Z" transform="translate(-553.403 -551.8)"/></g></g></g></svg>