<svg xmlns="http://www.w3.org/2000/svg" width="40" height="40" viewBox="0 0 40 40"><defs><style>.a{fill:#fff;}.b{fill:#191e80;}</style></defs><g transform="translate(-203 -83)"><rect class="a" width="40" height="40" rx="7" transform="translate(203 83)"/><g transform="translate(52.609 -438)"><g transform="translate(163.391 531.03)"><path class="b" d="M176.338,551.03H164.889a1.5,1.5,0,0,1-1.5-1.5V532.558a1.5,1.5,0,0,1,1.5-1.5h11.449a1.5,1.5,0,0,1,1.5,1.5v16.977A1.5,1.5,0,0,1,176.338,551.03Zm-11.449-18.971a.5.5,0,0,0-.5.5v16.977a.5.5,0,0,0,.5.5h11.449a.5.5,0,0,0,.5-.5V532.558a.5.5,0,0,0-.5-.5Z" transform="translate(-163.391 -531.06)"/></g><g transform="translate(165.692 541.484)"><path class="b" d="M173.991,553H168.5a.5.5,0,1,1,0-1h5.492a.5.5,0,1,1,0,1Z" transform="translate(-168 -552)"/></g><g transform="translate(165.692 543.481)"><path class="b" d="M176.986,557H168.5a.5.5,0,1,1,0-1h8.487a.5.5,0,1,1,0,1Z" transform="translate(-168 -556)"/></g><g transform="translate(165.692 545.478)"><path class="b" d="M176.986,561H168.5a.5.5,0,1,1,0-1h8.487a.5.5,0,1,1,0,1Z" transform="translate(-168 -560)"/></g><g transform="translate(165.692 531)"><path class="b" d="M171.994,537.989a.5.5,0,0,1-.357-.15l-1.39-1.423-1.39,1.423a.5.5,0,0,1-.856-.349V531.5a.5.5,0,0,1,.5-.5h3.495a.5.5,0,0,1,.5.5v5.991A.5.5,0,0,1,171.994,537.989Zm-1.747-2.787a.5.5,0,0,1,.357.15l.891.913V532H169v4.266l.891-.912a.5.5,0,0,1,.357-.15Z" transform="translate(-168 -531)"/></g></g></g></svg>