<svg xmlns="http://www.w3.org/2000/svg" width="40" height="40" viewBox="0 0 40 40"><defs><style>.a{fill:#fff;}.b{fill:#1a237e;}</style></defs><g transform="translate(-261 -82)"><rect class="a" width="40" height="40" rx="7" transform="translate(261 82)"/><g transform="translate(-558.16 -1455)"><path class="b" d="M44.689,10.457h0a.509.509,0,0,0-.035-.1l-.014-.023a.339.339,0,0,0-.063-.088L40.036,5.7a.574.574,0,0,0-.088-.065l-.023-.012a.4.4,0,0,0-.181-.044H31.236A1.428,1.428,0,0,0,29.81,7.008V24.154a1.428,1.428,0,0,0,1.426,1.426H43.27A1.428,1.428,0,0,0,44.7,24.154V10.533a.428.428,0,0,0-.007-.077Zm-1.4-.335H40.826a.672.672,0,0,1-.672-.67V6.987ZM43.27,24.747H31.236a.6.6,0,0,1-.6-.6V7.008a.607.607,0,0,1,.6-.6h8.1V9.452a1.5,1.5,0,0,0,1.5,1.493h3.049V24.154a.6.6,0,0,1-.6.593Z" transform="translate(802.35 1541.42)"/><path class="b" d="M40.872,42.723h8.956a.412.412,0,0,0,0-.823H40.872a.412.412,0,1,0,0,.823Z" transform="translate(794.177 1511.546)"/><path class="b" d="M50.239,53.642a.412.412,0,0,0-.412-.412H40.872a.412.412,0,1,0,0,.823h8.956a.412.412,0,0,0,.412-.412Z" transform="translate(794.177 1502.851)"/><path class="b" d="M-4.93-2.3V-5.905h1.041a1.9,1.9,0,0,1,.722.12,1.172,1.172,0,0,1,.478.351,1.429,1.429,0,0,1,.267.56,3.11,3.11,0,0,1,.081.745,2.653,2.653,0,0,1-.088.732,1.783,1.783,0,0,1-.225.5,1.175,1.175,0,0,1-.309.319,1.517,1.517,0,0,1-.348.179,1.46,1.46,0,0,1-.332.078A2.593,2.593,0,0,1-3.9-2.3Zm-.618-4.126V-1.78h1.594a2.789,2.789,0,0,0,1-.163,1.749,1.749,0,0,0,.7-.472,1.94,1.94,0,0,0,.4-.761,3.761,3.761,0,0,0,.13-1.038A2.189,2.189,0,0,0-2.3-5.879a2.317,2.317,0,0,0-1.653-.547Zm4.581,0V-1.78h.618V-3.764h1.51a.821.821,0,0,1,.364.068.61.61,0,0,1,.221.182.755.755,0,0,1,.124.267q.039.153.065.322a2.268,2.268,0,0,1,.039.345q.007.176.013.329a2.005,2.005,0,0,0,.029.277.388.388,0,0,0,.088.2h.69a.794.794,0,0,1-.146-.27,2.117,2.117,0,0,1-.075-.322,3,3,0,0,1-.033-.345q-.007-.176-.02-.345a2.991,2.991,0,0,0-.055-.325.988.988,0,0,0-.111-.283.713.713,0,0,0-.2-.218.828.828,0,0,0-.329-.13v-.013a.988.988,0,0,0,.615-.436,1.41,1.41,0,0,0,.192-.742A1.12,1.12,0,0,0,2.257-6.1a1.53,1.53,0,0,0-1.038-.325ZM.94-4.285H-.349v-1.62H1.187a.8.8,0,0,1,.631.221.834.834,0,0,1,.2.573.852.852,0,0,1-.088.413.7.7,0,0,1-.234.254.9.9,0,0,1-.342.127A2.492,2.492,0,0,1,.94-4.285Z" transform="translate(841.16 1566)"/></g></g></svg>