<svg xmlns="http://www.w3.org/2000/svg" width="40" height="40" viewBox="0 0 40 40"><defs><style>.a{fill:#fff;}.b{fill:#191e80;}</style></defs><g transform="translate(-117 -83)"><g transform="translate(-144 1)"><rect class="a" width="40" height="40" rx="7" transform="translate(261 82)"/></g><g transform="translate(-153.394 -438.06)"><g transform="translate(285.192 542.009)"><path class="b" d="M292.984,548H287.5a.5.5,0,1,1,0-1h5.486a.5.5,0,1,1,0,1Z" transform="translate(-287 -547)"/></g><g transform="translate(285.192 545.004)"><path class="b" d="M295.976,552H287.5a.5.5,0,1,1,0-1h8.478a.5.5,0,1,1,0,1Z" transform="translate(-287 -551)"/></g><g transform="translate(283.394 531.06)"><path class="b" d="M288.932,551.06h0a.5.5,0,0,1-.352-.146l-1.217-1.217-1.134,1.134a.5.5,0,0,1-.648.05l-1.985-1.464a.5.5,0,0,1-.2-.4V532.556a1.5,1.5,0,0,1,1.494-1.5h11.436a1.5,1.5,0,0,1,1.494,1.5v16.46a.5.5,0,0,1-.21.406l-2.082,1.473a.5.5,0,0,1-.64-.054l-1.247-1.247-1.247,1.247a.5.5,0,0,1-.7,0l-1.165-1.164-1.237,1.237a.5.5,0,0,1-.354.146Zm-1.569-2.565a.5.5,0,0,1,.352.146l1.217,1.217,1.237-1.238a.5.5,0,0,1,.7,0l1.164,1.164,1.247-1.247a.5.5,0,0,1,.7,0l1.3,1.3,1.529-1.082v-16.2a.5.5,0,0,0-.5-.5H284.889a.5.5,0,0,0-.5.5v16.208l1.438,1.06,1.183-1.183A.5.5,0,0,1,287.364,548.5Z" transform="translate(-283.394 -531.06)"/></g><g transform="translate(286.166 533.809)"><path class="b" d="M290.989,534.567a.372.372,0,0,1,.375.374v.1a3.046,3.046,0,0,1,1.044.345.486.486,0,0,1-.23.915.519.519,0,0,1-.254-.064,2.793,2.793,0,0,0-.6-.244v1.094c1.094.3,1.562.742,1.562,1.548s-.619,1.325-1.524,1.426v.381a.375.375,0,0,1-.749,0v-.389a3.605,3.605,0,0,1-1.418-.5.495.495,0,0,1,.254-.921.528.528,0,0,1,.281.093,2.73,2.73,0,0,0,.921.4v-1.143c-1.036-.281-1.548-.677-1.548-1.534a1.476,1.476,0,0,1,1.512-1.418v-.087a.372.372,0,0,1,.373-.377Zm-.338,2.332v-.972c-.345.05-.5.224-.5.453S290.253,536.756,290.651,536.9Zm.677,1.26v1c.338-.05.508-.208.508-.468C291.84,538.455,291.713,538.3,291.328,538.16Z" transform="translate(-288.952 -534.567)"/></g></g></g></svg>