<svg xmlns="http://www.w3.org/2000/svg" width="40" height="40" viewBox="0 0 40 40"><defs><style>.a{fill:#fff;}.b{fill:#191e80;}</style></defs><g transform="translate(-261 -82)"><rect class="a" width="40" height="40" rx="7" transform="translate(261 82)"/><g transform="translate(-313.396 -141.164)"><g transform="translate(586.396 234.849)"><path class="b" d="M598.25,254.757H587.818a1.424,1.424,0,0,1-1.422-1.422v-15.47a1.424,1.424,0,0,1,1.422-1.422H598.25a1.423,1.423,0,0,1,1.422,1.422v15.47A1.423,1.423,0,0,1,598.25,254.757Zm-10.432-17.288a.4.4,0,0,0-.395.4v15.47a.4.4,0,0,0,.395.395H598.25a.4.4,0,0,0,.4-.395v-15.47a.4.4,0,0,0-.4-.4Z" transform="translate(-586.396 -236.442)"/></g><g transform="translate(588.437 233.164)"><path class="b" d="M602.221,251.478h-.764a.513.513,0,0,1,0-1.027h.764a.4.4,0,0,0,.395-.395V234.586a.4.4,0,0,0-.395-.395H591.788c-.276,0-.4.6-.4.909a.513.513,0,1,1-1.026,0c0-.932.445-1.936,1.422-1.936h10.433a1.424,1.424,0,0,1,1.422,1.422v15.471A1.424,1.424,0,0,1,602.221,251.478Z" transform="translate(-590.366 -233.164)"/></g><g transform="translate(589.004 238.32)"><path class="b" d="M591.765,240.192a.237.237,0,0,1,.238.238v.064a1.928,1.928,0,0,1,.664.22.308.308,0,0,1-.147.582.333.333,0,0,1-.16-.041,1.766,1.766,0,0,0-.38-.156v.7c.7.188.994.472.994.985s-.394.843-.971.907v.243a.238.238,0,1,1-.477,0v-.247a2.29,2.29,0,0,1-.9-.321.315.315,0,0,1,.16-.586.337.337,0,0,1,.179.059,1.742,1.742,0,0,0,.586.257v-.729c-.66-.179-.985-.431-.985-.976a.939.939,0,0,1,.962-.9v-.055A.237.237,0,0,1,591.765,240.192Zm-.215,1.484v-.619c-.22.032-.316.142-.316.289S591.3,241.585,591.549,241.676Zm.43.8v.637c.215-.032.325-.133.325-.3S592.227,242.565,591.98,242.478Z" transform="translate(-590.468 -240.192)"/></g><g transform="translate(591.756 244.026)"><path class="b" d="M596.261,253.037a.438.438,0,0,1-.44-.4.875.875,0,0,1,.049-.264c.215-.566.5-.957,1.094-.957s1.114.381,1.465.381a.469.469,0,0,0,.459-.283.439.439,0,0,1,.821.176.875.875,0,0,1-.049.264c-.215.567-.5.957-1.094.957s-1.114-.38-1.465-.38a.47.47,0,0,0-.46.283A.437.437,0,0,1,596.261,253.037Z" transform="translate(-595.821 -251.289)"/></g><g transform="translate(591.848 246.962)"><path class="b" d="M599.085,258.028h-2.571a.514.514,0,0,1,0-1.028h2.571a.514.514,0,0,1,0,1.028Z" transform="translate(-596 -257)"/></g></g></g></svg>