<svg xmlns="http://www.w3.org/2000/svg" width="40" height="40" viewBox="0 0 40 40"><defs><style>.a{fill:#fff;}.b,.c{fill:#1a237e;}.c{stroke:#1a237e;}</style></defs><g transform="translate(-261 -82)"><rect class="a" width="40" height="40" rx="7" transform="translate(261 82)"/><g transform="translate(213.1 80.1)"><path class="b" d="M74.8,11.9H61.068A1.17,1.17,0,0,0,59.9,13.068V30.732A1.17,1.17,0,0,0,61.068,31.9H74.8a1.17,1.17,0,0,0,1.168-1.168V13.068A1.17,1.17,0,0,0,74.8,11.9Zm.348,18.832a.348.348,0,0,1-.348.348H61.068a.348.348,0,0,1-.348-.348V13.068a.348.348,0,0,1,.348-.348H74.8a.348.348,0,0,1,.348.348Z"/><path class="c" d="M156.234,115H148.41a.41.41,0,0,0,0,.819h7.825a.41.41,0,0,0,0-.819Zm0,3.933H148.41a.41.41,0,0,0,0,.819h7.825a.41.41,0,0,0,0-.819Zm-4.22,3.933H148.41a.41.41,0,0,0,0,.819h3.605a.41.41,0,1,0,0-.819Z" transform="translate(-84.491 -98.876)"/></g></g></svg>