<svg xmlns="http://www.w3.org/2000/svg" width="40" height="40" viewBox="0 0 40 40"><defs><style>.a{fill:#fff;}.b{fill:#191e80;}</style></defs><g transform="translate(-261 -82)"><rect class="a" width="40" height="40" rx="7" transform="translate(261 82)"/><g transform="translate(171.604 -141.064)"><g transform="translate(104.782 248.138)"><path class="b" d="M107.167,264.641v-.008a1.412,1.412,0,0,1,1.442-1.423,1.524,1.524,0,0,1,.94.268.3.3,0,0,1,.126.243.3.3,0,0,1-.484.236.962.962,0,0,0-.6-.188.826.826,0,0,0-.79.857v.008a.824.824,0,0,0,.833.872.964.964,0,0,0,.57-.165v-.393h-.409a.26.26,0,0,1-.263-.259.263.263,0,0,1,.263-.264h.692a.3.3,0,0,1,.3.3v.668a.41.41,0,0,1-.213.386,1.833,1.833,0,0,1-.963.275A1.376,1.376,0,0,1,107.167,264.641Z" transform="translate(-107.167 -263.211)"/><path class="b" d="M113.345,265.726a.283.283,0,0,1-.114-.228.278.278,0,0,1,.283-.279.292.292,0,0,1,.173.055,1.16,1.16,0,0,0,.7.247c.248,0,.4-.1.4-.26v-.008c0-.154-.095-.232-.554-.35-.554-.142-.912-.295-.912-.841v-.008a.86.86,0,0,1,.963-.829,1.6,1.6,0,0,1,.873.244.28.28,0,0,1-.15.518.289.289,0,0,1-.153-.043,1.146,1.146,0,0,0-.578-.185c-.232,0-.354.107-.354.24v.008c0,.181.118.24.594.362.558.145.872.346.872.825v.008c0,.546-.417.853-1.01.853A1.776,1.776,0,0,1,113.345,265.726Z" transform="translate(-110.199 -263.219)"/><path class="b" d="M118.9,263.863h-.582a.279.279,0,0,1,0-.558h1.768a.279.279,0,0,1,0,.558H119.5v1.914a.3.3,0,1,1-.605,0Z" transform="translate(-112.603 -263.258)"/></g><g transform="translate(102.396 233.064)"><path class="b" d="M115.361,253.064H103.894a1.5,1.5,0,0,1-1.5-1.5v-17a1.5,1.5,0,0,1,1.5-1.5h11.467a1.5,1.5,0,0,1,1.5,1.5v17A1.5,1.5,0,0,1,115.361,253.064Zm-11.467-19a.5.5,0,0,0-.5.5v17a.5.5,0,0,0,.5.5h11.467a.5.5,0,0,0,.5-.5v-17a.5.5,0,0,0-.5-.5Z" transform="translate(-102.396 -233.064)"/></g><g transform="translate(104.698 243.533)"><path class="b" d="M113,255h-5.5a.5.5,0,1,1,0-1H113a.5.5,0,1,1,0,1Z" transform="translate(-107 -254)"/></g><g transform="translate(104.698 245.533)"><path class="b" d="M116,259h-8.5a.5.5,0,0,1,0-1H116a.5.5,0,0,1,0,1Z" transform="translate(-107 -258)"/></g><g transform="translate(105.448 236.657)"><path class="b" d="M109,245.125a.494.494,0,0,1-.295-.1.5.5,0,0,1-.109-.7l2.833-3.875a.5.5,0,0,1,.808.59L109.4,244.92A.5.5,0,0,1,109,245.125Z" transform="translate(-108.5 -240.25)"/></g><g transform="translate(105.073 236.813)"><circle class="b" cx="0.844" cy="0.844" r="0.844" transform="translate(0 0)"/></g><g transform="translate(108.073 239.814)"><circle class="b" cx="0.844" cy="0.844" r="0.844" transform="translate(0 0)"/></g></g></g></svg>