<svg xmlns="http://www.w3.org/2000/svg" width="40" height="40" viewBox="0 0 40 40"><defs><style>.a{fill:#fff;}.b{fill:#1a237e;}</style></defs><g transform="translate(-261 -83)"><path class="a" d="M7,0H33a7,7,0,0,1,7,7V33a7,7,0,0,1-7,7H7a7,7,0,0,1-7-7V7A7,7,0,0,1,7,0Z" transform="translate(261 83)"/><g transform="translate(266 -865.362)"><path class="b" d="M7.288,996.888l-2.272,10a.714.714,0,0,0,.668.838H24.772a.714.714,0,0,0,.668-.838l-2.272-10a.7.7,0,0,0-.668-.526H19.318a.682.682,0,1,0,0,1.364h2.635l1.96,8.636H6.542l1.96-8.636h2.635a.682.682,0,1,0,0-1.364H7.955a.717.717,0,0,0-.668.526Z" transform="translate(0 -29.364)"/><path class="b" d="M34.544,975.635a.764.764,0,0,1-.469-.185l-3.864-3.636a.781.781,0,0,1-.057-.994.71.71,0,0,1,.994.007l2.713,2.557V959.044a.682.682,0,1,1,1.364,0v14.339l2.713-2.557a.751.751,0,0,1,.994-.007.771.771,0,0,1-.057.994l-3.864,3.636A.656.656,0,0,1,34.544,975.635Z" transform="translate(-19.318 0)"/></g></g></svg>