<svg xmlns="http://www.w3.org/2000/svg" width="40" height="40" viewBox="0 0 40 40"><defs><style>.a{fill:#fff;}.b,.c{fill:#1a237e;}.c{font-size:7px;font-family:Reross-Quadratic, Reross;letter-spacing:0.01em;}</style></defs><g transform="translate(-261 -82)"><rect class="a" width="40" height="40" rx="7" transform="translate(261 82)"/><g transform="translate(-1227 -431)"><g transform="translate(1497 528.926)"><g transform="translate(0 8.148)"><path class="b" d="M706.222,310.926H684.741a.74.74,0,0,1-.741-.741v-4.444a.741.741,0,0,1,1.481,0v3.7h20v-3.7a.741.741,0,0,1,1.482,0v4.444A.74.74,0,0,1,706.222,310.926Z" transform="translate(-684 -305)"/></g><g transform="translate(7.586 1)"><g transform="translate(3.326)"><path class="b" d="M699.472,302.148h0c-.41,0-.74-.163-.739-.572l.03-7.016c0-.408.333-.56.741-.56h0a.667.667,0,0,1,.739.652l-.03,6.976C700.211,302.036,699.88,302.148,699.472,302.148Z" transform="translate(-698.731 -294)"/></g><g transform="translate(0 5.057)"><path class="b" d="M698.3,305.7h0a.738.738,0,0,1-.524-.217l-3.316-3.316a.741.741,0,0,1,1.047-1.047l2.793,2.793,2.87-2.87a.741.741,0,0,1,1.047,1.047l-3.394,3.394A.74.74,0,0,1,698.3,305.7Z" transform="translate(-694.241 -300.827)"/></g></g></g><text class="c" transform="translate(1498 528)"><tspan x="0" y="0">TALLY</tspan></text></g></g></svg>