<svg xmlns="http://www.w3.org/2000/svg" width="40" height="40" viewBox="0 0 40 40"><defs><style>.a{fill:#fff;}.b{fill:#191e80;}</style></defs><g transform="translate(-261 -82)"><rect class="a" width="40" height="40" rx="7" transform="translate(261 82)"/><g transform="translate(-619.251 -481.025)"><g transform="translate(893.251 573.025)"><g transform="translate(0 0.031)"><path class="b" d="M599.194,188.031H587.749a1.5,1.5,0,0,1-1.5-1.494v-16.98a1.5,1.5,0,0,1,1.5-1.494h2.727a.5.5,0,0,1,0,1h-2.727a.5.5,0,0,0-.5.5v16.98a.5.5,0,0,0,.5.5h11.446a.5.5,0,0,0,.5-.5V169.557a.5.5,0,0,0-.5-.5h-2.707a.5.5,0,0,1,0-1h2.707a1.5,1.5,0,0,1,1.5,1.494v16.98a1.5,1.5,0,0,1-1.5,1.5Z" transform="translate(-586.251 -168.062)"/></g><g transform="translate(4.209 0)"><g transform="translate(0 2.421)"><path class="b" d="M600.208,177.842h-5.031a.5.5,0,0,1-.5-.5v-2.887a1.608,1.608,0,0,1,1.606-1.607H599.1a1.608,1.608,0,0,1,1.606,1.607v2.887a.5.5,0,0,1-.5.5Zm-4.534-.993h4.037v-2.39a.613.613,0,0,0-.613-.613h-2.811a.613.613,0,0,0-.612.613Z" transform="translate(-594.681 -172.85)"/></g><g transform="translate(2.655)"><path class="b" d="M600.5,171a.5.5,0,0,1-.5-.5v-2a.5.5,0,1,1,1,0v2A.5.5,0,0,1,600.5,171Z" transform="translate(-600 -168)"/></g></g><g transform="translate(4.206 8.986)"><g transform="translate(0 1.997)"><path class="b" d="M599.091,195.034h-2.8a1.616,1.616,0,0,1-1.614-1.614V190.5a.5.5,0,0,1,.5-.5h5.031a.5.5,0,0,1,.5.5v2.92A1.616,1.616,0,0,1,599.091,195.034ZM595.674,191v2.421a.616.616,0,0,0,.615.616h2.8a.617.617,0,0,0,.616-.616V191Z" transform="translate(-594.676 -190)"/></g><g transform="translate(2.658 6.49)"><path class="b" d="M600.5,202a.5.5,0,0,1-.5-.5v-2a.5.5,0,1,1,1,0v2A.5.5,0,0,1,600.5,202Z" transform="translate(-600 -199)"/></g><g transform="translate(1.16)"><path class="b" d="M597.5,188.5a.5.5,0,0,1-.5-.5v-1.5a.5.5,0,1,1,1,0V188A.5.5,0,0,1,597.5,188.5Z" transform="translate(-597 -186)"/><g transform="translate(2.995)"><path class="b" d="M603.5,188.5a.5.5,0,0,1-.5-.5v-1.5a.5.5,0,1,1,1,0V188A.5.5,0,0,1,603.5,188.5Z" transform="translate(-603 -186)"/></g></g></g></g></g></g></svg>