<svg xmlns="http://www.w3.org/2000/svg" width="40" height="40" viewBox="0 0 40 40"><defs><style>.a{fill:#fff;}.b{fill:none;stroke:#1a237e;stroke-linecap:round;stroke-linejoin:round;}</style></defs><g transform="translate(-261 -83)"><path class="a" d="M7,0H33a7,7,0,0,1,7,7V33a7,7,0,0,1-7,7H7a7,7,0,0,1-7-7V7A7,7,0,0,1,7,0Z" transform="translate(261 83)"/><g transform="translate(-7057 -6651)"><g transform="translate(7329 6744)"><line class="b" x1="8.965" y1="5.17" transform="translate(4.482 2.199)"/><path class="b" d="M20.93,15.946V7.977a1.992,1.992,0,0,0-1-1.723L12.961,2.269a1.992,1.992,0,0,0-1.992,0L4,6.253A1.992,1.992,0,0,0,3,7.977v7.969a1.992,1.992,0,0,0,1,1.723l6.973,3.984a1.992,1.992,0,0,0,1.992,0l6.973-3.984A1.992,1.992,0,0,0,20.93,15.946Z" transform="translate(-3 -2.002)"/><path class="b" d="M3.27,6.96l8.7,5.03,8.7-5.03" transform="translate(-3.001 -2.021)"/><line class="b" y1="10.041" transform="translate(8.965 9.959)"/></g></g></g></svg>