<svg xmlns="http://www.w3.org/2000/svg" width="40" height="40" viewBox="0 0 40 40"><defs><style>.a{fill:#fff;}.b{fill:#1a237e;}.c{fill:#191e80;}</style></defs><g transform="translate(-290 -173)"><rect class="a" width="40" height="40" rx="7" transform="translate(290 173)"/><g transform="translate(-529.16 -1364)"><path class="b" d="M44.689,10.457h0a.509.509,0,0,0-.035-.1l-.014-.023a.339.339,0,0,0-.063-.088L40.036,5.7a.574.574,0,0,0-.088-.065l-.023-.012a.4.4,0,0,0-.181-.044H31.236A1.428,1.428,0,0,0,29.81,7.008V24.154a1.428,1.428,0,0,0,1.426,1.426H43.27A1.428,1.428,0,0,0,44.7,24.154V10.533a.428.428,0,0,0-.007-.077Zm-1.4-.335H40.826a.672.672,0,0,1-.672-.67V6.987ZM43.27,24.747H31.236a.6.6,0,0,1-.6-.6V7.008a.607.607,0,0,1,.6-.6h8.1V9.452a1.5,1.5,0,0,0,1.5,1.493h3.049V24.154a.6.6,0,0,1-.6.593Z" transform="translate(802.35 1541.42)"/><path class="b" d="M40.872,42.723h8.956a.412.412,0,0,0,0-.823H40.872a.412.412,0,1,0,0,.823Z" transform="translate(794.177 1517.546)"/><path class="b" d="M50.239,53.642a.412.412,0,0,0-.412-.412H40.872a.412.412,0,1,0,0,.823h8.956a.412.412,0,0,0,.412-.412Z" transform="translate(794.177 1508.851)"/><g transform="translate(834.932 1550.749)"><path class="c" d="M290.989,534.567a.372.372,0,0,1,.375.374v.1a3.046,3.046,0,0,1,1.044.345.486.486,0,0,1-.23.915.519.519,0,0,1-.254-.064,2.793,2.793,0,0,0-.6-.244v1.094c1.094.3,1.562.742,1.562,1.548s-.619,1.325-1.524,1.426v.381a.375.375,0,0,1-.749,0v-.389a3.605,3.605,0,0,1-1.418-.5.495.495,0,0,1,.254-.921.528.528,0,0,1,.281.093,2.73,2.73,0,0,0,.921.4v-1.143c-1.036-.281-1.548-.677-1.548-1.534a1.476,1.476,0,0,1,1.512-1.418v-.087a.372.372,0,0,1,.373-.377Zm-.338,2.332v-.972c-.345.05-.5.224-.5.453S290.253,536.756,290.651,536.9Zm.677,1.26v1c.338-.05.508-.208.508-.468C291.84,538.455,291.713,538.3,291.328,538.16Z" transform="translate(-288.952 -534.567)"/></g></g></g></svg>