<svg xmlns="http://www.w3.org/2000/svg" width="40" height="40" viewBox="0 0 40 40"><defs><style>.a{fill:#fff;}.b{fill:#191e80;}</style></defs><g transform="translate(-261 -82)"><rect class="a" width="40" height="40" rx="7" transform="translate(261 82)"/><g transform="translate(-468.396 -481.085)"><g transform="translate(742.396 573.085)"><path class="b" d="M448.359,188.06H436.893a1.5,1.5,0,0,1-1.5-1.5v-17a1.5,1.5,0,0,1,1.5-1.5h11.465a1.5,1.5,0,0,1,1.5,1.5v17A1.5,1.5,0,0,1,448.359,188.06Zm-11.465-19a.5.5,0,0,0-.5.5v17a.5.5,0,0,0,.5.5h11.465a.5.5,0,0,0,.5-.5v-17a.5.5,0,0,0-.5-.5Z" transform="translate(-435.396 -168.06)"/><g transform="translate(2.302 3.47)"><path class="b" d="M446,176h-5.5a.5.5,0,1,1,0-1H446a.5.5,0,1,1,0,1Z" transform="translate(-440 -175)"/></g><g transform="translate(2.302 5.47)"><path class="b" d="M449,180h-8.5a.5.5,0,1,1,0-1H449a.5.5,0,0,1,0,1Z" transform="translate(-440 -179)"/></g><g transform="translate(2.804 14.004)"><path class="b" d="M444.469,199.961h-3.038a.426.426,0,0,1-.426-.426V196.5a.427.427,0,0,1,.426-.426h3.038a.426.426,0,0,1,.426.426v3.038a.426.426,0,0,1-.426.426Zm-2.612-.853h2.185v-2.185h-2.185Z" transform="translate(-441.005 -196.07)"/></g><g transform="translate(8.102 14.004)"><path class="b" d="M455.061,199.961h-3.038a.426.426,0,0,1-.423-.426V196.5a.426.426,0,0,1,.426-.426h3.038a.426.426,0,0,1,.426.426v3.038a.426.426,0,0,1-.429.426Zm-2.611-.853h2.185v-2.185H452.45Z" transform="translate(-451.6 -196.07)"/></g><g transform="translate(8.099 9.055)"><path class="b" d="M455.059,190.062h-3.038a.426.426,0,0,1-.426-.426V186.6a.427.427,0,0,1,.426-.426h3.038a.426.426,0,0,1,.426.426v3.038a.426.426,0,0,1-.426.427Zm-2.611-.853h2.185v-2.185h-2.185Z" transform="translate(-451.595 -186.171)"/></g><g transform="translate(2.962 9.528)"><path class="b" d="M442.656,190.084h0a.427.427,0,0,1-.3-.125l-.911-.911a.427.427,0,1,1,.6-.6l.609.61,1.812-1.812a.427.427,0,1,1,.6.6l-2.113,2.113A.427.427,0,0,1,442.656,190.084Z" transform="translate(-441.319 -187.118)"/></g></g></g></g></svg>