<svg xmlns="http://www.w3.org/2000/svg" width="40" height="40" viewBox="0 0 40 40"><defs><style>.a{fill:#fff;}.b{fill:#191e80;}</style></defs><g transform="translate(-290 -83)"><path class="a" d="M7,0H33a7,7,0,0,1,7,7V33a7,7,0,0,1-7,7H7a7,7,0,0,1-7-7V7A7,7,0,0,1,7,0Z" transform="translate(290 83)"/><g transform="translate(-167.391 -480.085)"><g transform="translate(470.391 573.085)"><path class="b" d="M176.357,188.06H164.891a1.5,1.5,0,0,1-1.5-1.5v-17a1.5,1.5,0,0,1,1.5-1.5h11.466a1.5,1.5,0,0,1,1.5,1.5v17A1.5,1.5,0,0,1,176.357,188.06Zm-11.466-19a.5.5,0,0,0-.5.5v17a.5.5,0,0,0,.5.5h11.466a.5.5,0,0,0,.5-.5v-17a.5.5,0,0,0-.5-.5Z" transform="translate(-163.391 -168.06)"/></g><g transform="translate(472.695 584.574)"><path class="b" d="M176.928,193.519H168.5a.5.5,0,0,1,0-1h7.242l-.615-.63a.5.5,0,0,1,.716-.7l1.443,1.479a.5.5,0,0,1-.358.85Z" transform="translate(-168 -191.039)"/></g><g transform="translate(472.623 588.054)"><path class="b" d="M169.871,200.479a.5.5,0,0,1-.35-.142l-1.515-1.479a.5.5,0,0,1,.35-.857h8.571a.5.5,0,0,1,0,1h-7.344l.636.621a.5.5,0,0,1-.35.857Z" transform="translate(-167.856 -198)"/></g><g transform="translate(472.695 576.555)"><path class="b" d="M174,176h-5.5a.5.5,0,0,1,0-1H174a.5.5,0,0,1,0,1Z" transform="translate(-168 -175)"/></g><g transform="translate(472.695 578.555)"><path class="b" d="M177,180h-8.5a.5.5,0,0,1,0-1H177a.5.5,0,0,1,0,1Z" transform="translate(-168 -179)"/></g><g transform="translate(472.695 580.555)"><path class="b" d="M177,184h-8.5a.5.5,0,0,1,0-1H177a.5.5,0,0,1,0,1Z" transform="translate(-168 -183)"/></g></g></g></svg>