<svg xmlns="http://www.w3.org/2000/svg" width="40" height="40" viewBox="0 0 40 40"><defs><style>.a{fill:#fff;}.b{fill:#191e80;}</style></defs><g transform="translate(-261 -82)"><rect class="a" width="40" height="40" rx="7" transform="translate(261 82)"/><g transform="translate(-306.487 -436.955)"><g transform="translate(589.095 530.283)"><path class="b" d="M602.532,533.614a.77.77,0,1,1-.77.77.77.77,0,0,1,.77-.77m0-1a1.767,1.767,0,1,0,1.767,1.767A1.767,1.767,0,0,0,602.532,532.617Z" transform="translate(-600.765 -532.617)"/></g><g transform="translate(587.46 534.268)"><path class="b" d="M603.666,544.823h-5.3a.878.878,0,0,1-.878-.878V542.9a2.294,2.294,0,0,1,2.29-2.29h2.478a2.294,2.294,0,0,1,2.29,2.29v1.047A.878.878,0,0,1,603.666,544.823Zm-5.182-1h5.063V542.9a1.3,1.3,0,0,0-1.293-1.292h-2.478a1.3,1.3,0,0,0-1.293,1.292Z" transform="translate(-597.486 -540.608)"/></g><g transform="translate(579.121 540.755)"><path class="b" d="M582.532,553.614a.77.77,0,1,1-.77.77.77.77,0,0,1,.77-.77m0-1a1.767,1.767,0,1,0,1.767,1.767A1.767,1.767,0,0,0,582.532,552.617Z" transform="translate(-580.765 -552.617)"/></g><g transform="translate(577.486 544.74)"><path class="b" d="M583.666,564.823h-5.3a.878.878,0,0,1-.878-.878V562.9a2.294,2.294,0,0,1,2.29-2.29h2.478a2.294,2.294,0,0,1,2.29,2.29v1.047A.878.878,0,0,1,583.666,564.823Zm-5.182-1h5.063V562.9a1.3,1.3,0,0,0-1.293-1.292h-2.478a1.3,1.3,0,0,0-1.293,1.292Z" transform="translate(-577.486 -560.608)"/></g><g transform="translate(585.223 528.955)"><path class="b" d="M604.344,540.454H593.5a.5.5,0,0,1-.5-.5v-10.5a.5.5,0,0,1,.5-.5h10.845a.5.5,0,0,1,.5.5v10.5A.5.5,0,0,1,604.344,540.454Zm-10.346-1h9.847v-9.5H594Z" transform="translate(-593 -528.955)"/></g><g transform="translate(586.069 541.557)"><g transform="translate(0 2.948)"><path class="b" d="M596.76,563.9a2.053,2.053,0,0,1-2.064-2.1,2.206,2.206,0,0,1,.645-1.517.5.5,0,1,1,.709.7,1.214,1.214,0,0,0-.357.832,1.063,1.063,0,0,0,.313.783,1.1,1.1,0,0,0,.787.3,1.211,1.211,0,0,0,.828-.366.5.5,0,0,1,.709.7,2.2,2.2,0,0,1-1.509.662Z" transform="translate(-594.696 -560.136)"/></g><g transform="translate(3.02 0)"><path class="b" d="M603.542,557.991a.5.5,0,0,1-.354-.848,1.215,1.215,0,0,0,.357-.832,1.066,1.066,0,0,0-.313-.784,1.109,1.109,0,0,0-.787-.3,1.212,1.212,0,0,0-.829.366.5.5,0,1,1-.709-.7,2.2,2.2,0,0,1,1.509-.662,2.053,2.053,0,0,1,2.126,2.1,2.206,2.206,0,0,1-.645,1.517A.5.5,0,0,1,603.542,557.991Z" transform="translate(-600.751 -554.225)"/></g><g transform="translate(2.137 2.24)"><path class="b" d="M599.477,561.131a.5.5,0,0,1-.355-.848l1.4-1.418a.5.5,0,1,1,.709.7l-1.4,1.419a.5.5,0,0,1-.354.146Z" transform="translate(-598.98 -558.717)"/></g></g></g></g></svg>