<svg xmlns="http://www.w3.org/2000/svg" width="40" height="40" viewBox="0 0 40 40"><defs><style>.a{fill:#fff;}.b{fill:#191e80;}.c{fill:none;stroke:#191e80;stroke-linecap:round;stroke-linejoin:round;stroke-width:1.892px;}</style></defs><g transform="translate(-117 -173)"><rect class="a" width="40" height="40" rx="7" transform="translate(117 173)"/><g transform="translate(-561.146 -390.088)"><g transform="translate(692.492 588.192)"><path class="b" d="M389.779,200.149a.941.941,0,1,1,.941-.941A.941.941,0,0,1,389.779,200.149Z" transform="translate(-388.838 -198.267)"/></g><g transform="translate(689.146 573.088)"><g transform="translate(0 0)"><path class="b" d="M399.032,188.063H383.873a1.734,1.734,0,0,1-1.727-1.738V174.958a.5.5,0,0,1,.2-.4l8.542-6.395a.5.5,0,0,1,.6,0l8.459,6.395a.5.5,0,0,1,.2.4v11.987a1.117,1.117,0,0,1-1.116,1.121Zm-15.889-12.856v11.118a.738.738,0,0,0,.731.742h15.158a.119.119,0,0,0,.116-.122V175.206l-7.962-6.019Z" transform="translate(-382.146 -168.063)"/></g><g transform="translate(2.142 9.838)"><path class="b" d="M389.894,191.629h-3.039a.427.427,0,0,1-.427-.427v-3.039a.427.427,0,0,1,.427-.427h3.039a.427.427,0,0,1,.427.427V191.2a.427.427,0,0,1-.427.427Zm-2.612-.854h2.186V188.59h-2.186Z" transform="translate(-386.429 -187.737)"/></g><g transform="translate(16.714 16.2)"><path class="c" d="M415.571,200.459" transform="translate(-415.571 -200.459)"/></g><g transform="translate(1.443 14.431)"><path class="b" d="M398.221,200.149H386.532a1.5,1.5,0,0,1-1.5-1.5v-.226a1.5,1.5,0,0,1,1.5-1.5h11.689a1.5,1.5,0,0,1,1.5,1.5v.226a1.5,1.5,0,0,1-1.5,1.5Zm-11.689-2.226a.5.5,0,0,0-.5.5v.226a.5.5,0,0,0,.5.5h11.689a.5.5,0,0,0,.5-.5v-.226a.5.5,0,0,0-.5-.5Z" transform="translate(-385.032 -196.923)"/></g><g transform="translate(6.347 15.104)"><path class="b" d="M395.779,200.149a.941.941,0,1,1,.941-.941.941.941,0,0,1-.941.941Z" transform="translate(-394.838 -198.267)"/></g><g transform="translate(9.347 15.104)"><path class="b" d="M401.779,200.149a.941.941,0,1,1,.941-.941A.941.941,0,0,1,401.779,200.149Z" transform="translate(-400.838 -198.267)"/></g><g transform="translate(12.347 15.104)"><path class="b" d="M407.779,200.149a.941.941,0,1,1,.941-.941A.941.941,0,0,1,407.779,200.149Z" transform="translate(-406.838 -198.267)"/></g></g></g></g></svg>