<svg xmlns="http://www.w3.org/2000/svg" width="40" height="40" viewBox="0 0 40 40"><defs><style>.a{fill:#fff;}.b{fill:#191e80;}</style></defs><g transform="translate(-117 -173)"><rect class="a" width="40" height="40" rx="7" transform="translate(117 173)"/><g transform="translate(-255.396 -348.06)"><g transform="translate(387.448 540.546)"><path class="b" d="M396.1,558.266H390a.5.5,0,0,1-.5-.5v-7.234a.5.5,0,0,1,.5-.5h6.1a.5.5,0,0,1,.5.5v7.234A.5.5,0,0,1,396.1,558.266Zm-5.6-1h5.1v-6.234h-5.1Z" transform="translate(-389.5 -550.032)"/></g><g transform="translate(391.698 538.08)"><path class="b" d="M403.635,553.336h-1.722a.5.5,0,0,1,0-1h1.222V546.1H399v.469a.5.5,0,1,1-1,0V545.6a.5.5,0,0,1,.5-.5h5.135a.5.5,0,0,1,.5.5v7.234a.5.5,0,0,1-.5.5Z" transform="translate(-398 -545.1)"/></g><g transform="translate(389.198 542.53)"><path class="b" d="M395,555h-1.5a.5.5,0,0,1,0-1H395a.5.5,0,0,1,0,1Z" transform="translate(-393 -554)"/></g><g transform="translate(389.198 544.03)"><path class="b" d="M396,558h-2.5a.5.5,0,0,1,0-1H396a.5.5,0,0,1,0,1Z" transform="translate(-393 -557)"/></g><g transform="translate(389.198 545.53)"><path class="b" d="M396,561h-2.5a.5.5,0,0,1,0-1H396a.5.5,0,0,1,0,1Z" transform="translate(-393 -560)"/></g><g transform="translate(385.396 531.06)"><path class="b" d="M398.359,551.06H386.893a1.5,1.5,0,0,1-1.5-1.5v-17a1.5,1.5,0,0,1,1.5-1.5h11.466a1.5,1.5,0,0,1,1.5,1.5v17a1.5,1.5,0,0,1-1.5,1.5Zm-11.466-19a.5.5,0,0,0-.5.5v17a.5.5,0,0,0,.5.5h11.466a.5.5,0,0,0,.5-.5v-17a.5.5,0,0,0-.5-.5Z" transform="translate(-385.396 -531.06)"/></g><g transform="translate(387.851 532.813)"><path class="b" d="M391.91,534.567a.293.293,0,0,1,.295.294v.08a2.4,2.4,0,0,1,.822.272.382.382,0,0,1-.182.72.409.409,0,0,1-.2-.05,2.194,2.194,0,0,0-.47-.192v.862c.861.232,1.23.584,1.23,1.219s-.487,1.043-1.2,1.122v.3a.295.295,0,1,1-.59,0v-.306a2.838,2.838,0,0,1-1.116-.4.39.39,0,0,1,.2-.726.416.416,0,0,1,.221.073,2.148,2.148,0,0,0,.725.318v-.9c-.816-.221-1.219-.533-1.219-1.208a1.162,1.162,0,0,1,1.19-1.116v-.069a.293.293,0,0,1,.293-.3Zm-.266,1.836v-.765c-.272.04-.391.176-.391.357S391.331,536.29,391.643,536.4Zm.533.992v.787c.267-.039.4-.164.4-.368,0-.187-.094-.312-.4-.419Z" transform="translate(-390.306 -534.567)"/></g></g></g></svg>