<svg xmlns="http://www.w3.org/2000/svg" width="40" height="40" viewBox="0 0 40 40"><defs><style>.a{fill:#fff;}.b{fill:#191e80;}</style></defs><g transform="translate(-261 -83)"><path class="a" d="M7,0H33a7,7,0,0,1,7,7V33a7,7,0,0,1-7,7H7a7,7,0,0,1-7-7V7A7,7,0,0,1,7,0Z" transform="translate(261 83)"/><g transform="translate(-364.726 -140.535)"><g transform="translate(649.909 247.79)"><path class="b" d="M662.834,261.864a.567.567,0,0,1-.4-.166l-.785-.784a.567.567,0,0,1,.8-.8l.384.383,1.672-1.672a.567.567,0,0,1,.8.8l-2.073,2.073A.566.566,0,0,1,662.834,261.864Z" transform="translate(-661.483 -258.656)"/></g><g transform="translate(647.777 245.451)"><path class="b" d="M661.766,262.619a4.042,4.042,0,1,1,2.859-6.9h0a4.041,4.041,0,0,1-2.859,6.9Zm0-6.949a2.908,2.908,0,1,0,2.056.852h0A2.889,2.889,0,0,0,661.766,255.67Z" transform="translate(-657.725 -254.535)"/></g><g transform="translate(634.726 245.451)"><path class="b" d="M638.766,262.619a4.042,4.042,0,1,1,2.859-6.9h0a4.041,4.041,0,0,1-2.859,6.9Zm0-6.949a2.908,2.908,0,1,0,2.056.852h0A2.889,2.889,0,0,0,638.766,255.67Z" transform="translate(-634.726 -254.535)"/></g><g transform="translate(641.535 233.535)"><path class="b" d="M650.766,241.619a4.042,4.042,0,1,1,2.859-6.9h0a4.041,4.041,0,0,1-2.859,6.9Zm0-6.949a2.908,2.908,0,1,0,2.056.852h0A2.889,2.889,0,0,0,650.766,234.67Z" transform="translate(-646.726 -233.535)"/></g><g transform="translate(639.462 239.662)"><path class="b" d="M643.64,251.257a.562.562,0,0,1-.281-.075.567.567,0,0,1-.211-.774l3.3-5.788a.568.568,0,1,1,.986.563l-3.3,5.787A.566.566,0,0,1,643.64,251.257Z" transform="translate(-643.073 -244.333)"/></g><g transform="translate(647.369 239.587)"><path class="b" d="M660.877,251.123a.567.567,0,0,1-.493-.286l-3.3-5.788a.567.567,0,1,1,.985-.562l3.3,5.787a.567.567,0,0,1-.492.849Z" transform="translate(-657.006 -244.2)"/></g><g transform="translate(637.822 248.549)"><circle class="b" cx="0.945" cy="0.945" r="0.945"/></g><g transform="translate(644.631 236.633)"><circle class="b" cx="0.945" cy="0.945" r="0.945" transform="translate(0)"/></g></g></g></svg>