<svg xmlns="http://www.w3.org/2000/svg" width="40" height="40" viewBox="0 0 40 40"><defs><style>.a{fill:#fff;}.b{fill:#191e80;}</style></defs><g transform="translate(-261 -82)"><rect class="a" width="40" height="40" rx="7" transform="translate(261 82)"/><g transform="translate(-666.01 -481.088)"><g transform="translate(938.01 573.088)"><g transform="translate(4.319 0)"><path class="b" d="M643.823,169.053a3.271,3.271,0,1,1-3.354,3.27,3.317,3.317,0,0,1,3.354-3.27m0-.99a4.262,4.262,0,1,0,4.345,4.26,4.262,4.262,0,0,0-4.345-4.26Z" transform="translate(-639.645 -168.063)"/></g><g transform="translate(0 10.671)"><path class="b" d="M646.509,198.729h-14a1.488,1.488,0,0,1-1.5-1.476v-2.718a5.186,5.186,0,0,1,5.226-5.135h6.543a.5.5,0,1,1,0,.99h-6.543A4.2,4.2,0,0,0,632,194.534v2.718a.5.5,0,0,0,.505.486h14a.5.5,0,1,1,0,.99Z" transform="translate(-631.01 -189.4)"/></g><g transform="translate(12.518 13.214)"><path class="b" d="M661.522,199.122h-5a.48.48,0,0,1-.48-.48v-3.678a.48.48,0,0,1,.48-.48h5a.48.48,0,0,1,.48.48v3.679a.48.48,0,0,1-.48.479ZM657,198.163h4.042v-2.72H657Z" transform="translate(-656.041 -194.485)"/></g><g transform="translate(13.602 11.134)"><path class="b" d="M661.5,193.319a.5.5,0,0,1-.5-.5v-.993c0-.236-.384-.5-.9-.5s-.9.264-.9.5v.98a.5.5,0,0,1-1,0v-.98a1.949,1.949,0,0,1,3.793,0v.993A.5.5,0,0,1,661.5,193.319Z" transform="translate(-658.208 -190.326)"/></g><g transform="translate(14.999 14.972)"><path class="b" d="M661.5,199.5a.5.5,0,0,1-.5-.5v-.5a.5.5,0,0,1,1,0v.5A.5.5,0,0,1,661.5,199.5Z" transform="translate(-661 -198)"/></g></g></g></g></svg>