<svg xmlns="http://www.w3.org/2000/svg" width="40" height="40" viewBox="0 0 40 40"><defs><style>.a{fill:#fff;}.b{fill:#191e80;}</style></defs><g transform="translate(-261 -83)"><path class="a" d="M7,0H33a7,7,0,0,1,7,7V33a7,7,0,0,1-7,7H7a7,7,0,0,1-7-7V7A7,7,0,0,1,7,0Z" transform="translate(261 83)"/><g transform="translate(-257.234 -438.814)"><g transform="translate(533.164 545.801)"><path class="b" d="M538.786,557.7a.261.261,0,0,1,.262.263v.07a2.116,2.116,0,0,1,.731.242.339.339,0,0,1-.162.639.36.36,0,0,1-.176-.045,1.963,1.963,0,0,0-.418-.171v.766c.766.206,1.093.519,1.093,1.081s-.432.927-1.068,1v.267a.262.262,0,0,1-.524,0v-.27a2.521,2.521,0,0,1-.993-.353.346.346,0,0,1,.177-.645.368.368,0,0,1,.2.065,1.936,1.936,0,0,0,.645.283v-.8c-.726-.2-1.081-.474-1.081-1.073a1.033,1.033,0,0,1,1.058-.993v-.06a.261.261,0,0,1,.26-.263Zm-.237,1.633v-.68c-.242.035-.348.156-.348.317s.07.262.347.363Zm.473.881v.7c.237-.035.358-.146.358-.324s-.086-.28-.358-.375Z" transform="translate(-537.358 -557.7)"/></g><g transform="translate(540.895 531.814)"><g transform="translate(1.628 1.178)"><path class="b" d="M555.22,538.32h0a.486.486,0,0,1-.54-.478l.014-3.4c0-.3.243-.445.54-.445h0a.491.491,0,0,1,.54.481l-.014,3.4C555.76,538.175,555.518,538.32,555.22,538.32Z" transform="translate(-554.68 -533.995)"/></g><path class="b" d="M552.206,534.542a.54.54,0,0,1-.382-.922l1.647-1.647a.54.54,0,0,1,.764,0l1.61,1.61a.54.54,0,1,1-.764.764l-1.228-1.228-1.266,1.265a.536.536,0,0,1-.382.158Z" transform="translate(-551.666 -531.814)"/></g><g transform="translate(528.233 544.316)"><path class="b" d="M540.535,562.45H528.773a.54.54,0,0,1-.54-.54v-6.417a.54.54,0,0,1,.54-.54h11.761a.54.54,0,0,1,.54.54v6.417a.54.54,0,0,1-.54.54Zm-11.221-1.081h10.681v-5.337H529.314Z" transform="translate(-528.233 -554.952)"/></g><g transform="translate(531.64 541.277)"><path class="b" d="M546.841,556.826h-1.787a.54.54,0,1,1,0-1.081H546.3v-5.337H535.62v.91a.54.54,0,0,1-1.081,0v-1.45a.54.54,0,0,1,.54-.54h11.762a.54.54,0,0,1,.54.54v6.417A.54.54,0,0,1,546.841,556.826Z" transform="translate(-534.539 -549.328)"/></g><g transform="translate(535.077 538.035)"><path class="b" d="M553.2,550.826h-1.787a.54.54,0,0,1,0-1.081h1.247v-5.337H541.981v.91a.54.54,0,0,1-1.081,0v-1.45a.54.54,0,0,1,.54-.54H553.2a.54.54,0,0,1,.54.54v6.417A.54.54,0,0,1,553.2,550.826Z" transform="translate(-540.9 -543.328)"/></g></g></g></svg>