<svg xmlns="http://www.w3.org/2000/svg" width="40" height="40" viewBox="0 0 40 40"><defs><style>.a{fill:#fff;}.b{fill:#191e80;}</style></defs><g transform="translate(-261 -82)"><rect class="a" width="40" height="40" rx="7" transform="translate(261 82)"/><g transform="translate(-56.1 -140.064)"><g transform="translate(339.329 243.532)"><path class="b" d="M351.16,255a.293.293,0,0,1,.295.295v.079a2.379,2.379,0,0,1,.822.272.382.382,0,0,1-.181.72.413.413,0,0,1-.2-.051,2.2,2.2,0,0,0-.471-.193v.862c.862.233,1.23.584,1.23,1.219s-.488,1.043-1.2,1.123v.3a.3.3,0,0,1-.59,0v-.306a2.837,2.837,0,0,1-1.117-.4.389.389,0,0,1,.2-.726.41.41,0,0,1,.221.074,2.16,2.16,0,0,0,.726.318v-.9c-.816-.221-1.219-.533-1.219-1.208a1.162,1.162,0,0,1,1.191-1.117v-.068A.293.293,0,0,1,351.16,255Zm-.267,1.837v-.766c-.272.04-.391.176-.391.357S350.582,256.721,350.894,256.835Zm.533.992v.788c.267-.04.4-.164.4-.368C351.829,258.059,351.733,257.934,351.427,257.827Z" transform="translate(-349.556 -254.998)"/></g><g transform="translate(338.05 235.032)"><path class="b" d="M352,239h-4.5a.5.5,0,1,1,0-1H352a.5.5,0,1,1,0,1Z" transform="translate(-347 -238)"/></g><g transform="translate(338.05 237.032)"><path class="b" d="M352,243h-4.5a.5.5,0,1,1,0-1H352a.5.5,0,1,1,0,1Z" transform="translate(-347 -242)"/></g><g transform="translate(338.05 239.032)"><path class="b" d="M352,247h-4.5a.5.5,0,1,1,0-1H352a.5.5,0,1,1,0,1Z" transform="translate(-347 -246)"/></g><g transform="translate(333.55 246.533)"><path class="b" d="M341,262h-2.5a.5.5,0,1,1,0-1H341a.5.5,0,1,1,0,1Z" transform="translate(-338 -261)"/></g><g transform="translate(333.55 244.533)"><path class="b" d="M341,258h-2.5a.5.5,0,1,1,0-1H341a.5.5,0,1,1,0,1Z" transform="translate(-338 -257)"/></g><g transform="translate(331.209 232.064)"><path class="b" d="M346.282,252.064H334.815a1.5,1.5,0,0,1-1.5-1.5V242.22a.5.5,0,1,1,1,0v8.346a.5.5,0,0,0,.5.5h11.467a.5.5,0,0,0,.5-.5v-17a.5.5,0,0,0-.5-.5H334.815a.5.5,0,0,0-.5.5v.6a.5.5,0,1,1-1,0v-.6a1.5,1.5,0,0,1,1.5-1.5h11.467a1.5,1.5,0,0,1,1.5,1.5v17A1.5,1.5,0,0,1,346.282,252.064Z" transform="translate(-333.317 -232.064)"/></g><g transform="translate(329.1 234.679)"><path class="b" d="M331.98,244a.755.755,0,0,1-.538-.223l-2.12-2.12a.761.761,0,0,1,0-1.075l3.143-3.143a.5.5,0,0,1,.353-.147h2.555a.5.5,0,0,1,.5.513l-.067,2.489a.5.5,0,0,1-.146.34l-3.143,3.143A.755.755,0,0,1,331.98,244Zm-1.783-2.88,1.783,1.783,2.834-2.834.048-1.777h-1.836Z" transform="translate(-329.1 -237.293)"/></g><g transform="translate(333.495 236.095)"><circle class="b" cx="0.514" cy="0.514" r="0.514" transform="translate(0 0)"/></g></g></g></svg>