<svg xmlns="http://www.w3.org/2000/svg" width="40" height="40" viewBox="0 0 40 40"><defs><style>.a{fill:#fff;}.b{fill:#191e80;}</style></defs><g transform="translate(-261 -82)"><rect class="a" width="40" height="40" rx="7" transform="translate(261 82)"/><g transform="translate(-754 -325)"><g transform="translate(1029.026 421.148)"><path class="b" d="M705.923,252.347a5.611,5.611,0,1,1,3.969-1.642A5.6,5.6,0,0,1,705.923,252.347Zm0-9.91a4.3,4.3,0,1,0,3.04,1.26A4.271,4.271,0,0,0,705.923,242.436Z" transform="translate(-700.312 -241.124)"/></g><g transform="translate(1032.405 423.521)"><path class="b" d="M707.561,244.734a.385.385,0,0,1,.387.387v.1a3.149,3.149,0,0,1,1.081.358.5.5,0,0,1,.268.448.5.5,0,0,1-.508.5.543.543,0,0,1-.26-.067,2.842,2.842,0,0,0-.619-.253v1.133c1.133.306,1.617.768,1.617,1.6s-.64,1.372-1.58,1.476v.4a.388.388,0,1,1-.775,0v-.4a3.732,3.732,0,0,1-1.468-.522.512.512,0,0,1,.26-.954.546.546,0,0,1,.291.1,2.825,2.825,0,0,0,.954.417v-1.185c-1.073-.291-1.6-.7-1.6-1.588a1.529,1.529,0,0,1,1.565-1.469v-.089A.385.385,0,0,1,707.561,244.734Zm-.35,2.415v-1.006c-.358.053-.514.231-.514.47S706.8,247,707.21,247.149Zm.7,1.3v1.036c.351-.052.529-.216.529-.484C708.44,248.759,708.313,248.594,707.91,248.453Z" transform="translate(-705.451 -244.734)"/></g><g transform="translate(1024 430.27)"><g transform="translate(1.964)"><path class="b" d="M695.311,260.259h0a.585.585,0,0,1-.655-.569l.017-4.142c0-.362.3-.548.657-.548h0a.607.607,0,0,1,.655.6l-.017,4.127C695.967,260.088,695.674,260.259,695.311,260.259Z" transform="translate(-694.654 -255)"/></g><g transform="translate(0 3.411)"><path class="b" d="M694.282,263.507a.656.656,0,0,1-.465-.193l-1.958-1.958a.657.657,0,0,1,.93-.93l1.494,1.494,1.539-1.54a.658.658,0,1,1,.93.93l-2,2A.655.655,0,0,1,694.282,263.507Z" transform="translate(-691.666 -260.188)"/></g></g><g transform="translate(1040.435 417)"><g transform="translate(1.982 1.437)"><path class="b" d="M720.337,242.259h0a.594.594,0,0,1-.655-.582l.017-4.136c0-.362.3-.542.657-.542h0a.6.6,0,0,1,.655.586l-.017,4.134C720.993,242.082,720.7,242.259,720.337,242.259Z" transform="translate(-719.68 -237)"/></g><g transform="translate(0 0)"><path class="b" d="M717.323,238.134a.657.657,0,0,1-.465-1.122l2-2.005a.658.658,0,0,1,.93,0l1.958,1.958a.657.657,0,0,1-.93.93l-1.494-1.493-1.54,1.54A.655.655,0,0,1,717.323,238.134Z" transform="translate(-716.666 -234.814)"/></g></g></g></g></svg>