<svg xmlns="http://www.w3.org/2000/svg" width="40" height="40" viewBox="0 0 40 40"><defs><style>.a{fill:#fff;}.b{fill:#191e80;}</style></defs><g transform="translate(-261 -83)"><path class="a" d="M7,0H33a7,7,0,0,1,7,7V33a7,7,0,0,1-7,7H7a7,7,0,0,1-7-7V7A7,7,0,0,1,7,0Z" transform="translate(261 83)"/><g transform="translate(-110 -142.27)"><g transform="translate(388.107 240.841)"><g transform="translate(1.711)"><path class="b" d="M396.227,250.726h0a.51.51,0,0,1-.571-.495l.015-4.753c0-.316.257-.478.573-.478h0a.529.529,0,0,1,.571.521l-.015,4.74C396.8,250.577,396.542,250.726,396.227,250.726Z" transform="translate(-395.654 -245)"/></g><g transform="translate(0 4.116)"><path class="b" d="M394.944,255.079a.569.569,0,0,1-.4-.168l-1.706-1.706a.573.573,0,1,1,.81-.81l1.3,1.3,1.341-1.341a.573.573,0,0,1,.81.81l-1.746,1.745A.569.569,0,0,1,394.944,255.079Z" transform="translate(-392.666 -252.189)"/></g></g><g transform="translate(392.832 235.27)"><path class="b" d="M407.971,239.942a.509.509,0,0,0,.421-.5v-.628a.508.508,0,0,0-.421-.5l-.456-.077a2.55,2.55,0,0,0-.172-.421l.267-.378a.51.51,0,0,0-.052-.654l-.439-.439a.554.554,0,0,0-.361-.137.515.515,0,0,0-.293.094l-.378.267a3.381,3.381,0,0,0-.439-.181l-.078-.447a.5.5,0,0,0-.49-.421h-.628a.508.508,0,0,0-.5.421l-.077.464a2.974,2.974,0,0,0-.413.172l-.37-.267a.516.516,0,0,0-.293-.094.524.524,0,0,0-.361.146l-.447.447a.509.509,0,0,0-.052.654l.275.387a2.5,2.5,0,0,0-.172.421l-.447.077a.484.484,0,0,0-.43.482v.628a.508.508,0,0,0,.421.5l.464.077a2.973,2.973,0,0,0,.172.413l-.267.37a.51.51,0,0,0,.052.654l.439.439a.509.509,0,0,0,.361.146.516.516,0,0,0,.293-.094l.387-.275a2.393,2.393,0,0,0,.4.164l.077.456a.508.508,0,0,0,.5.421h.628a.508.508,0,0,0,.5-.421l.078-.456a2.628,2.628,0,0,0,.421-.172l.378.267a.515.515,0,0,0,.293.094h0a.521.521,0,0,0,.361-.146l.439-.439a.508.508,0,0,0,.052-.653l-.267-.379a2.573,2.573,0,0,0,.172-.421Zm-.714-.422a.269.269,0,0,0-.215.2,2.176,2.176,0,0,1-.249.6.273.273,0,0,0,.009.292l.353.5-.4.4-.49-.353a.26.26,0,0,0-.293-.009,2.289,2.289,0,0,1-.6.249.269.269,0,0,0-.2.215l-.1.6h-.576l-.1-.6a.268.268,0,0,0-.2-.215,2.534,2.534,0,0,1-.594-.24.232.232,0,0,0-.275.009l-.5.353-.4-.4.353-.491a.259.259,0,0,0,.009-.292,2.524,2.524,0,0,1-.258-.6.269.269,0,0,0-.215-.2l-.6-.1v-.576l.594-.1a.267.267,0,0,0,.215-.2,2.2,2.2,0,0,1,.25-.6.259.259,0,0,0-.017-.292l-.353-.5.4-.4.49.353a.26.26,0,0,0,.293.009,2.522,2.522,0,0,1,.6-.258.267.267,0,0,0,.2-.215l.1-.6h.576l.1.594a.268.268,0,0,0,.2.215,2.17,2.17,0,0,1,.619.258.276.276,0,0,0,.293-.009l.5-.353.4.4-.353.491a.258.258,0,0,0-.009.292,2.292,2.292,0,0,1,.249.6.268.268,0,0,0,.215.2l.6.1v.576Zm-2.478-1.987a1.6,1.6,0,1,0,1.6,1.6A1.6,1.6,0,0,0,404.78,237.533Zm0,2.667a1.066,1.066,0,1,1,1.067-1.067A1.066,1.066,0,0,1,404.78,240.2Z" transform="translate(-401.024 -235.377)"/><path class="b" d="M404.991,242.765h-.628a.652.652,0,0,1-.64-.539l-.063-.372a2.583,2.583,0,0,1-.265-.107l-.317.226a.664.664,0,0,1-.837-.068l-.439-.439a.653.653,0,0,1-.065-.84l.215-.3c-.043-.09-.079-.182-.112-.272l-.381-.064a.652.652,0,0,1-.541-.64v-.628a.623.623,0,0,1,.559-.624l.352-.061a2.761,2.761,0,0,1,.116-.282l-.227-.318a.65.65,0,0,1,.068-.838l.447-.448a.661.661,0,0,1,.837-.068l.3.217c.085-.04.173-.076.273-.112l.063-.381a.652.652,0,0,1,.64-.541h.628a.639.639,0,0,1,.632.544l.063.36c.1.037.2.078.3.123l.31-.218a.674.674,0,0,1,.827.05l.448.448a.654.654,0,0,1,.066.84l-.216.306a2.582,2.582,0,0,1,.117.282l.37.063a.651.651,0,0,1,.541.64v.628a.652.652,0,0,1-.539.64h-.006l-.357.048a2.721,2.721,0,0,1-.116.279l.218.309a.65.65,0,0,1-.067.837l-.439.439a.659.659,0,0,1-.837.068l-.31-.219a2.653,2.653,0,0,1-.281.117l-.064.37A.651.651,0,0,1,404.991,242.765Zm-1.619-1.352.078.041a2.163,2.163,0,0,0,.38.153l.084.026.093.542a.365.365,0,0,0,.358.3h.628a.364.364,0,0,0,.358-.3l.092-.543.086-.025a2.4,2.4,0,0,0,.4-.163l.076-.038.448.316a.371.371,0,0,0,.475-.04l.435-.435a.363.363,0,0,0,.035-.47l-.316-.448.038-.077a2.317,2.317,0,0,0,.163-.4l.026-.089.537-.072a.366.366,0,0,0,.3-.358v-.628a.365.365,0,0,0-.3-.358l-.542-.092-.026-.085a2.375,2.375,0,0,0-.163-.4l-.038-.077.316-.448a.368.368,0,0,0-.039-.472l-.436-.436a.39.39,0,0,0-.471-.027l-.448.316-.076-.038a3.283,3.283,0,0,0-.42-.173l-.081-.027-.092-.532a.358.358,0,0,0-.349-.3h-.628a.365.365,0,0,0-.358.3l-.09.546-.08.028a2.823,2.823,0,0,0-.393.163l-.078.042-.442-.32a.373.373,0,0,0-.473.041l-.443.443a.364.364,0,0,0-.036.47l.325.457-.038.077a2.356,2.356,0,0,0-.163.4l-.025.085-.535.092a.346.346,0,0,0-.311.341v.628a.364.364,0,0,0,.3.358l.546.092.028.079a2.987,2.987,0,0,0,.164.393l.042.079-.319.442a.367.367,0,0,0,.039.471l.436.436a.372.372,0,0,0,.47.036Zm1.706.845h-.818l-.124-.721a.126.126,0,0,0-.092-.1,2.646,2.646,0,0,1-.628-.254.1.1,0,0,0-.124,0l-.6.422-.575-.576.424-.589a.116.116,0,0,0,0-.132,2.64,2.64,0,0,1-.275-.64.127.127,0,0,0-.1-.1l-.721-.124v-.817l.712-.124a.126.126,0,0,0,.1-.092,2.269,2.269,0,0,1,.265-.64.119.119,0,0,0-.006-.131l-.428-.6.575-.575.59.424a.115.115,0,0,0,.131,0,2.639,2.639,0,0,1,.641-.275.128.128,0,0,0,.1-.1l.123-.721h.818l.124.712a.124.124,0,0,0,.092.1,2.3,2.3,0,0,1,.658.275.131.131,0,0,0,.136,0l.6-.422.575.576-.423.589a.116.116,0,0,0,0,.132,2.447,2.447,0,0,1,.267.645.126.126,0,0,0,.1.092l.722.124v.818l-.739.123a.127.127,0,0,0-.1.092,2.275,2.275,0,0,1-.265.639.131.131,0,0,0,0,.137l.421.6-.576.575-.589-.424a.115.115,0,0,0-.131,0,2.454,2.454,0,0,1-.645.268.126.126,0,0,0-.092.1Zm-.576-.286h.334l.083-.484a.41.41,0,0,1,.3-.329,2.187,2.187,0,0,0,.565-.234.4.4,0,0,1,.447.014l.393.283.233-.233-.283-.4a.42.42,0,0,1-.018-.443,2.041,2.041,0,0,0,.236-.567.411.411,0,0,1,.331-.306l.5-.084v-.334l-.483-.083a.408.408,0,0,1-.33-.3,2.175,2.175,0,0,0-.234-.565.4.4,0,0,1,.014-.447l.282-.393-.232-.233-.4.283a.42.42,0,0,1-.444.018,2.022,2.022,0,0,0-.584-.245.41.41,0,0,1-.306-.332l-.082-.473h-.336l-.082.483a.41.41,0,0,1-.3.33,2.372,2.372,0,0,0-.564.242.4.4,0,0,1-.447-.014l-.393-.283-.232.233.283.4a.4.4,0,0,1,.026.444,2.04,2.04,0,0,0-.236.567.41.41,0,0,1-.331.306l-.474.082v.336l.482.082a.408.408,0,0,1,.33.3,2.367,2.367,0,0,0,.242.565.4.4,0,0,1-.014.447l-.283.393.232.233.4-.283a.375.375,0,0,1,.446-.005,2.382,2.382,0,0,0,.54.215.41.41,0,0,1,.3.33Zm.172-1.2a1.743,1.743,0,1,1,1.743-1.743A1.745,1.745,0,0,1,404.673,240.769Zm0-3.2a1.457,1.457,0,1,0,1.457,1.457A1.459,1.459,0,0,0,404.673,237.569Zm0,2.667a1.21,1.21,0,1,1,1.209-1.209A1.211,1.211,0,0,1,404.673,240.236Zm0-2.133a.923.923,0,1,0,.923.924A.925.925,0,0,0,404.673,238.1Z" transform="translate(-400.917 -235.27)"/></g><g transform="translate(386.507 252.927)"><circle class="b" cx="1.172" cy="1.172" r="1.172" transform="translate(0)"/></g><g transform="translate(392.806 252.927)"><circle class="b" cx="1.172" cy="1.172" r="1.172"/></g><g transform="translate(382 244.85)"><path class="b" d="M394.6,258.871h-8.109a.572.572,0,0,1-.538-.376l-1.961-5.35h-1.417a.573.573,0,1,1,0-1.145h1.816a.572.572,0,0,1,.538.376l1.962,5.35h7.337l2.372-5.353a.572.572,0,1,1,1.047.464l-2.523,5.693A.572.572,0,0,1,394.6,258.871Z" transform="translate(-382 -252)"/></g></g></g></svg>