<svg xmlns="http://www.w3.org/2000/svg" width="40" height="40" viewBox="0 0 40 40"><defs><style>.a{fill:#fff;}.b{fill:#191e80;}</style></defs><g transform="translate(-261 -82)"><rect class="a" width="40" height="40" rx="7" transform="translate(261 82)"/><g transform="translate(-263 -150)"><g transform="translate(540.76 257.169)"><circle class="b" cx="0.869" cy="0.869" r="0.869" transform="translate(0)"/></g><g transform="translate(545.432 257.169)"><circle class="b" cx="0.869" cy="0.869" r="0.869" transform="translate(0)"/></g><g transform="translate(537.207 250.935)"><path class="b" d="M548.987,260.5h-4.836a1.574,1.574,0,0,1-1.472-1.019l-1.174-3.119h-.815a.69.69,0,1,1,0-1.379h.681A1.573,1.573,0,0,1,542.843,256l.959,2.548a.883.883,0,0,0,.826.572h3.915a.885.885,0,0,0,.8-.517l1.48-3.248a.69.69,0,1,1,1.256.572l-1.665,3.652A1.573,1.573,0,0,1,548.987,260.5Z" transform="translate(-540 -254.955)"/></g><g transform="translate(531 242)"><path class="b" d="M555.634,262H532.573A1.573,1.573,0,0,1,531,260.427V243.573A1.573,1.573,0,0,1,532.573,242h6.956a1.572,1.572,0,0,1,1.249.617l1.9,2.485a.884.884,0,0,0,.7.346h12.253a1.573,1.573,0,0,1,1.573,1.573v13.405A1.573,1.573,0,0,1,555.634,262Zm-22.371-1.379h21.681a.883.883,0,0,0,.883-.883V247.711a.883.883,0,0,0-.883-.883h-11.9a1.575,1.575,0,0,1-1.249-.617l-1.9-2.486a.884.884,0,0,0-.7-.346h-5.926a.883.883,0,0,0-.883.883v15.474A.883.883,0,0,0,533.263,260.621Z" transform="translate(-531 -242)"/></g><g transform="translate(540.655 243.379)"><path class="b" d="M557.414,247.448a.689.689,0,0,1-.69-.69v-.5a.883.883,0,0,0-.883-.883H545.69a.69.69,0,0,1,0-1.379H556.53a1.573,1.573,0,0,1,1.573,1.573v1.186A.689.689,0,0,1,557.414,247.448Z" transform="translate(-545 -244)"/></g></g></g></svg>