<svg xmlns="http://www.w3.org/2000/svg" width="40" height="40" viewBox="0 0 40 40"><defs><style>.a{fill:#fff;}.b{fill:none;stroke:#1a237e;}</style></defs><g transform="translate(-290 -173)"><rect class="a" width="40" height="40" rx="7" transform="translate(290 173)"/><path class="b" d="M10530.5-7061.892a2.392,2.392,0,0,1,2.391-2.393,2.393,2.393,0,0,1,2.395,2.393,2.393,2.393,0,0,1-2.395,2.393A2.392,2.392,0,0,1,10530.5-7061.892Zm14.354-2.872a2.391,2.391,0,0,1,2.39-2.392,2.387,2.387,0,0,1,1.605.618l4.181-8.357a2.394,2.394,0,0,1-1.479-2.212,2.391,2.391,0,0,1,2.393-2.392,2.392,2.392,0,0,1,2.393,2.392,2.392,2.392,0,0,1-2.393,2.393,2.4,2.4,0,0,1-.914-.18l-4.181,8.357a2.384,2.384,0,0,1,.789,1.774,2.394,2.394,0,0,1-2.395,2.393A2.391,2.391,0,0,1,10544.855-7064.764Zm-6.7-8.133-4.785,8.613Zm3.085-.658a2.386,2.386,0,0,1-1.649.658,2.391,2.391,0,0,1-2.392-2.392,2.391,2.391,0,0,1,2.392-2.392,2.391,2.391,0,0,1,2.393,2.392,2.387,2.387,0,0,1-.743,1.734l4.572,6.4Z" transform="translate(-10233 7263)"/></g></svg>