<svg xmlns="http://www.w3.org/2000/svg" width="40" height="40" viewBox="0 0 40 40"><defs><style>.a{fill:#fff;}.b{fill:none;stroke:#1a237e;stroke-linecap:round;stroke-linejoin:round;}</style></defs><g transform="translate(-261 -82)"><rect class="a" width="40" height="40" rx="7" transform="translate(261 82)"/><path class="b" d="M777.1,1149.4h3.3l.9,2h14.8a1.051,1.051,0,0,1,.9,1.5l-3.6,6.5a1.856,1.856,0,0,1-1.7,1h-7.5l-.9,1.6v.1c0,.2.1.2.2.2h11.6v2h-12a2.051,2.051,0,0,1-2-2,2.919,2.919,0,0,1,.2-.9l1.4-2.5-3.6-7.6h-2v-1.9Zm4.7,16.6a1.933,1.933,0,1,1-.6,1.4A1.974,1.974,0,0,1,781.8,1166Zm10,0a1.933,1.933,0,1,1-.6,1.4A1.974,1.974,0,0,1,791.8,1166Z" transform="translate(-506 -1057)"/></g></svg>