<svg xmlns="http://www.w3.org/2000/svg" width="40" height="40" viewBox="0 0 40 40"><defs><style>.a{fill:#fff;}.b{fill:#191e80;}</style></defs><g transform="translate(-290 -83)"><path class="a" d="M7,0H33a7,7,0,0,1,7,7V33a7,7,0,0,1-7,7H7a7,7,0,0,1-7-7V7A7,7,0,0,1,7,0Z" transform="translate(290 83)"/><g transform="translate(-493 -461)"><g transform="translate(805.643 560.09)"><path class="b" d="M773.568,305.015h-4.06a.508.508,0,0,1,0-1.015h4.06a.508.508,0,0,1,0,1.015Z" transform="translate(-769 -304)"/></g><g transform="translate(808.18 563.135)"><path class="b" d="M776.03,312.015h-1.523a.508.508,0,0,1,0-1.015h1.523a.508.508,0,0,1,0,1.015Z" transform="translate(-774 -311)"/></g><g transform="translate(808.18 566.18)"><path class="b" d="M776.03,318.015h-1.523a.508.508,0,0,1,0-1.015h1.523a.508.508,0,0,1,0,1.015Z" transform="translate(-774 -317)"/></g><g transform="translate(804.361 569.25)"><path class="b" d="M770.6,326.8a.445.445,0,0,1-.317-.131l-3.852-3.853a.449.449,0,0,1,.634-.634l3.853,3.853a.449.449,0,0,1-.317.766Z" transform="translate(-766.294 -322.049)"/></g><g transform="translate(796 557.045)"><path class="b" d="M764.21,299.015h-13.7a.508.508,0,0,1,0-1.015h13.7a.508.508,0,0,1,0,1.015Z" transform="translate(-750 -298)"/></g><g transform="translate(796 554)"><path class="b" d="M764.21,293.015h-13.7a.508.508,0,0,1,0-1.015h13.7a.508.508,0,0,1,0,1.015Z" transform="translate(-750 -292)"/></g><g transform="translate(796 560.615)"><path class="b" d="M755.069,315.533a5.251,5.251,0,1,1,3.714-8.964h0a5.25,5.25,0,0,1-3.714,8.964Zm0-9.485a4.234,4.234,0,1,0,3,1.239A4.225,4.225,0,0,0,755.069,306.048Z" transform="translate(-749.819 -305.034)"/></g></g></g></svg>