<svg xmlns="http://www.w3.org/2000/svg" width="40" height="40" viewBox="0 0 40 40"><defs><style>.a{fill:#fff;}.b{fill:none;stroke:#1a237e;}</style></defs><g transform="translate(-30 -263)"><g transform="translate(-231 180)"><path class="a" d="M7,0H33a7,7,0,0,1,7,7V33a7,7,0,0,1-7,7H7a7,7,0,0,1-7-7V7A7,7,0,0,1,7,0Z" transform="translate(261 83)"/></g><path class="b" d="M56.737,1160.4l2.141,1.6a.584.584,0,0,1,.1.7l-2.039,3.5a.457.457,0,0,1-.612.2l-2.549-1a8.357,8.357,0,0,1-1.733,1l-.408,2.6c-.1.3-.2.4-.51.4H47.052a.519.519,0,0,1-.51-.4l-.408-2.6a5.993,5.993,0,0,1-1.733-1l-2.549,1a.457.457,0,0,1-.612-.2l-2.039-3.5a.477.477,0,0,1,.1-.7l2.141-1.6v-2l-2.141-1.6a.584.584,0,0,1-.1-.7l2.039-3.5a.458.458,0,0,1,.612-.2l2.549,1a8.329,8.329,0,0,1,1.733-1l.408-2.6c.1-.3.2-.4.51-.4H51.13a.519.519,0,0,1,.51.4l.408,2.6a5.982,5.982,0,0,1,1.733,1l2.549-1a.458.458,0,0,1,.612.2l2.039,3.5a.477.477,0,0,1-.1.7l-2.141,1.6v2Zm-10.093,1.5a3.748,3.748,0,0,0,5.1,0,3.575,3.575,0,0,0,0-5,3.748,3.748,0,0,0-5.1,0,3.575,3.575,0,0,0,0,5Z" transform="translate(1.409 -875.9)"/></g></svg>