<svg xmlns="http://www.w3.org/2000/svg" width="40" height="40" viewBox="0 0 40 40"><defs><style>.a{fill:#fff;}.b{fill:#191e80;}</style></defs><g transform="translate(-30 -173)"><path class="a" d="M7,0H33a7,7,0,0,1,7,7V33a7,7,0,0,1-7,7H7a7,7,0,0,1-7-7V7A7,7,0,0,1,7,0Z" transform="translate(30 173)"/><g transform="translate(-1493 -392)"><g transform="translate(1536 575)"><g transform="translate(2.675 2.6)"><path class="b" d="M209.444,105.636h-8a.556.556,0,0,1-.556-.556V99.819a.556.556,0,0,1,.556-.556h8a.556.556,0,0,1,.556.556v5.261A.556.556,0,0,1,209.444,105.636ZM202,104.523h6.888v-4.148H202Z" transform="translate(-200.888 -99.263)"/></g><g transform="translate(0 0)"><path class="b" d="M208.5,114.064H197.037a1.5,1.5,0,0,1-1.5-1.5v-17a1.5,1.5,0,0,1,1.5-1.5H208.5a1.5,1.5,0,0,1,1.5,1.5v17A1.5,1.5,0,0,1,208.5,114.064Zm-11.467-19a.5.5,0,0,0-.5.5v17a.5.5,0,0,0,.5.5H208.5a.5.5,0,0,0,.5-.5v-17a.5.5,0,0,0-.5-.5Z" transform="translate(-195.539 -94.064)"/></g><g transform="translate(5.472 4.296)"><path class="b" d="M207.674,105.483a.5.5,0,0,1-.354-.146l-.692-.691a.5.5,0,0,1,.707-.707l.338.338,1.473-1.473a.5.5,0,0,1,.707.707l-1.827,1.827A.5.5,0,0,1,207.674,105.483Z" transform="translate(-206.482 -102.656)"/></g><g transform="translate(5.064 9.876)"><g transform="translate(1.507 1.093)"><path class="b" d="M209.18,123h0a.452.452,0,0,1-.5-.442l.013-6.146c0-.276.225-.413.5-.413h0a.455.455,0,0,1,.5.445l-.013,6.144C209.68,122.865,209.456,123,209.18,123Z" transform="translate(-208.68 -116)"/></g><path class="b" d="M206.166,116.339a.5.5,0,0,1-.354-.854l1.525-1.525a.5.5,0,0,1,.707,0l1.49,1.49a.5.5,0,1,1-.707.707l-1.136-1.136-1.171,1.171A.5.5,0,0,1,206.166,116.339Z" transform="translate(-205.666 -113.814)"/></g></g></g></g></svg>