<svg xmlns="http://www.w3.org/2000/svg" width="40" height="40" viewBox="0 0 40 40"><defs><style>.a{fill:#fff;}.b{fill:#191e80;}</style></defs><g transform="translate(-261 -82)"><rect class="a" width="40" height="40" rx="7" transform="translate(261 82)"/><g transform="translate(51.604 -143.064)"><g transform="translate(220.768 235.522)"><path class="b" d="M226.71,247.405a5.942,5.942,0,1,1,4.2-1.74A5.9,5.9,0,0,1,226.71,247.405Zm0-10.847a4.905,4.905,0,1,0,3.47,1.435A4.894,4.894,0,0,0,226.71,236.558Z" transform="translate(-220.768 -235.522)"/></g><g transform="translate(228.806 246.694)"><path class="b" d="M240.726,265.953a4.414,4.414,0,1,1,3.123-1.291A4.4,4.4,0,0,1,240.726,265.953Zm0-7.8a3.383,3.383,0,1,0,2.391.991A3.361,3.361,0,0,0,240.726,258.156Z" transform="translate(-236.311 -257.125)"/></g><g transform="translate(231.465 248.561)"><path class="b" d="M243.111,260.734a.3.3,0,0,1,.305.3v.082a2.471,2.471,0,0,1,.85.281.4.4,0,0,1,.211.352.391.391,0,0,1-.4.393.427.427,0,0,1-.205-.053,2.243,2.243,0,0,0-.487-.2v.891c.891.24,1.272.6,1.272,1.26s-.5,1.079-1.243,1.161v.311a.305.305,0,1,1-.61,0V265.2a2.935,2.935,0,0,1-1.155-.411.4.4,0,0,1,.205-.75.429.429,0,0,1,.229.076,2.223,2.223,0,0,0,.75.328v-.932c-.844-.229-1.261-.551-1.261-1.249a1.2,1.2,0,0,1,1.231-1.155v-.07A.3.3,0,0,1,243.111,260.734Zm-.276,1.9v-.792c-.281.041-.4.182-.4.37S242.513,262.516,242.835,262.634Zm.551,1.026v.815c.276-.041.416-.17.416-.381C243.8,263.9,243.7,263.771,243.387,263.66Z" transform="translate(-241.452 -260.734)"/></g><g transform="translate(224.362 238.181)"><path class="b" d="M228.235,246.559a.517.517,0,0,1-.417-.823l3.553-4.86a.517.517,0,1,1,.835.611l-3.553,4.86A.517.517,0,0,1,228.235,246.559Z" transform="translate(-227.718 -240.664)"/></g><g transform="translate(223.782 238.267)"><circle class="b" cx="1.058" cy="1.058" r="1.058"/></g><g transform="translate(227.544 242.03)"><circle class="b" cx="1.058" cy="1.058" r="1.058" transform="translate(0)"/></g></g></g></svg>