<svg xmlns="http://www.w3.org/2000/svg" width="40" height="40" viewBox="0 0 40 40"><defs><style>.a{fill:#fff;}.b{fill:#191e80;}</style></defs><g transform="translate(-30 -83)"><g transform="translate(-231)"><path class="a" d="M7,0H33a7,7,0,0,1,7,7V33a7,7,0,0,1-7,7H7a7,7,0,0,1-7-7V7A7,7,0,0,1,7,0Z" transform="translate(261 83)"/></g><g transform="translate(-292.396 -438.06)"><g transform="translate(335.396 531.06)"><path class="b" d="M348.36,551.06H336.893a1.5,1.5,0,0,1-1.5-1.5v-17a1.5,1.5,0,0,1,1.5-1.5H348.36a1.5,1.5,0,0,1,1.5,1.5v17a1.5,1.5,0,0,1-1.5,1.5Zm-11.466-19a.5.5,0,0,0-.5.5v17a.5.5,0,0,0,.5.5H348.36a.5.5,0,0,0,.5-.5v-17a.5.5,0,0,0-.5-.5Z" transform="translate(-335.396 -531.06)"/></g><g transform="translate(342.198 536.53)"><path class="b" d="M354,543h-4.5a.5.5,0,0,1,0-1H354a.5.5,0,0,1,0,1Z" transform="translate(-349 -542)"/></g><g transform="translate(342.198 538.53)"><path class="b" d="M354,547h-4.5a.5.5,0,0,1,0-1H354a.5.5,0,0,1,0,1Z" transform="translate(-349 -546)"/></g><g transform="translate(342.198 540.53)"><path class="b" d="M354,551h-4.5a.5.5,0,0,1,0-1H354a.5.5,0,0,1,0,1Z" transform="translate(-349 -550)"/></g><g transform="translate(337.698 538.53)"><path class="b" d="M343,547h-2.5a.5.5,0,0,1,0-1H343a.5.5,0,0,1,0,1Z" transform="translate(-340 -546)"/></g><g transform="translate(337.698 540.53)"><path class="b" d="M343,551h-2.5a.5.5,0,0,1,0-1H343a.5.5,0,0,1,0,1Z" transform="translate(-340 -550)"/></g><g transform="translate(337.851 532.813)"><path class="b" d="M341.91,534.567a.293.293,0,0,1,.3.294v.08a2.4,2.4,0,0,1,.822.272.382.382,0,0,1-.182.72.409.409,0,0,1-.2-.05,2.195,2.195,0,0,0-.47-.192v.862c.861.232,1.23.584,1.23,1.219s-.488,1.043-1.2,1.122v.3a.295.295,0,1,1-.59,0v-.306a2.838,2.838,0,0,1-1.116-.4.39.39,0,0,1,.2-.726.416.416,0,0,1,.221.073,2.147,2.147,0,0,0,.725.318v-.9c-.816-.221-1.219-.533-1.219-1.208a1.162,1.162,0,0,1,1.19-1.116v-.069a.293.293,0,0,1,.293-.3Zm-.266,1.836v-.765c-.272.04-.391.176-.391.357S341.331,536.29,341.643,536.4Zm.533.992v.787c.266-.039.4-.164.4-.368,0-.187-.094-.312-.4-.419Z" transform="translate(-340.306 -534.567)"/></g><g transform="translate(337.747 544.143)"><path class="b" d="M340.185,559.425l.714-.876-.672-.819a.356.356,0,0,1-.087-.215.28.28,0,0,1,.286-.287.306.306,0,0,1,.268.143l.578.771.574-.755a.331.331,0,0,1,.283-.159.265.265,0,0,1,.264.268.347.347,0,0,1-.087.223l-.672.823.71.872a.354.354,0,0,1,.087.215.28.28,0,0,1-.287.287.3.3,0,0,1-.268-.144l-.619-.812-.612.8a.333.333,0,0,1-.283.159.266.266,0,0,1-.264-.268A.346.346,0,0,1,340.185,559.425Z" transform="translate(-340.099 -557.227)"/><path class="b" d="M347.883,558.658a.262.262,0,0,1,.26-.261h1.39a.26.26,0,0,1,0,.521h-1.392A.26.26,0,0,1,347.883,558.658Zm0,.982a.262.262,0,0,1,.26-.261h1.39a.26.26,0,0,1,0,.521h-1.392A.26.26,0,0,1,347.883,559.64Z" transform="translate(-343.991 -557.812)"/><path class="b" d="M354.913,559.425l.714-.876-.672-.819a.353.353,0,0,1-.087-.215.28.28,0,0,1,.287-.287.305.305,0,0,1,.268.143l.577.77.574-.755a.332.332,0,0,1,.283-.158.266.266,0,0,1,.264.268.347.347,0,0,1-.087.223l-.672.823.71.872a.353.353,0,0,1,.087.215.28.28,0,0,1-.287.287.305.305,0,0,1-.268-.143l-.619-.812-.612.8a.331.331,0,0,1-.283.158.265.265,0,0,1-.264-.268A.343.343,0,0,1,354.913,559.425Z" transform="translate(-347.463 -557.227)"/></g></g></g></svg>