<svg xmlns="http://www.w3.org/2000/svg" width="40" height="40" viewBox="0 0 40 40"><defs><style>.a{fill:#fff;}.b{fill:#191e80;}</style></defs><g transform="translate(-261 -82)"><rect class="a" width="40" height="40" rx="7" transform="translate(261 82)"/><g transform="translate(-85.539 -533.085)"><g transform="translate(359.539 625.085)"><g transform="translate(4.73 2.636)"><path class="b" d="M64.333,226.333A1.333,1.333,0,1,1,63,227.666a1.333,1.333,0,0,1,1.333-1.333m0-1a2.333,2.333,0,1,0,2.333,2.333,2.333,2.333,0,0,0-2.333-2.333Z" transform="translate(-61.999 -225.333)"/></g><g transform="translate(2.73 8.055)"><path class="b" d="M66,241.419H59a1,1,0,0,1-1-1v-1.383a2.867,2.867,0,0,1,2.864-2.864h3.271A2.867,2.867,0,0,1,67,239.035v1.385A1,1,0,0,1,66,241.419Zm-5.135-4.25A1.866,1.866,0,0,0,59,239.035v1.385h7v-1.385a1.866,1.866,0,0,0-1.864-1.864Z" transform="translate(-58 -236.171)"/></g><g transform="translate(0 0)"><path class="b" d="M65.5,240.06H54.036a1.5,1.5,0,0,1-1.5-1.5v-17a1.5,1.5,0,0,1,1.5-1.5H65.5a1.5,1.5,0,0,1,1.5,1.5v17A1.5,1.5,0,0,1,65.5,240.06Zm-11.465-19a.5.5,0,0,0-.5.5v17a.5.5,0,0,0,.5.5H65.5a.5.5,0,0,0,.5-.5v-17a.5.5,0,0,0-.5-.5Z" transform="translate(-52.539 -220.06)"/></g><g transform="translate(2.23 14.469)"><path class="b" d="M66.5,250h-9a.5.5,0,1,1,0-1h9a.5.5,0,1,1,0,1Z" transform="translate(-57 -249)"/></g><g transform="translate(2.23 16.469)"><path class="b" d="M66.5,254h-9a.5.5,0,1,1,0-1h9a.5.5,0,1,1,0,1Z" transform="translate(-57 -253)"/></g></g></g></g></svg>