<svg xmlns="http://www.w3.org/2000/svg" width="17.867" height="20" viewBox="0 0 17.867 20"><defs><style>.a{fill:#191e80;}</style></defs><g transform="translate(-357 -574.025)"><g transform="translate(361.368 574.025)"><path class="a" d="M62.877,169.051a3.514,3.514,0,1,1-3.514,3.514,3.515,3.515,0,0,1,3.514-3.514m0-1.051a4.565,4.565,0,1,0,4.565,4.565A4.565,4.565,0,0,0,62.877,168Z" transform="translate(-58.312 -168)"/></g><g transform="translate(357 584.041)"><path class="a" d="M66.29,199.047H51.576A1.576,1.576,0,0,1,50,197.471v-2.912a5.5,5.5,0,0,1,5.5-5.5h6.874a5.5,5.5,0,0,1,5.5,5.5v2.912A1.576,1.576,0,0,1,66.29,199.047ZM55.5,190.114a4.45,4.45,0,0,0-4.445,4.445v2.912a.525.525,0,0,0,.525.525H66.29a.525.525,0,0,0,.525-.525v-2.912a4.45,4.45,0,0,0-4.445-4.445Z" transform="translate(-50 -189.063)"/></g></g></svg>