<svg xmlns="http://www.w3.org/2000/svg" width="40" height="40" viewBox="0 0 40 40"><defs><style>.a{fill:#fff;}.b{fill:#191e80;}</style></defs><g transform="translate(-261 -82)"><rect class="a" width="40" height="40" rx="7" transform="translate(261 82)"/><g transform="translate(221.604 -141.064)"><g transform="translate(52.396 233.064)"><path class="b" d="M65.361,253.064H53.894a1.5,1.5,0,0,1-1.5-1.5v-17a1.5,1.5,0,0,1,1.5-1.5H65.361a1.5,1.5,0,0,1,1.5,1.5v17A1.5,1.5,0,0,1,65.361,253.064Zm-11.467-19a.5.5,0,0,0-.5.5v17a.5.5,0,0,0,.5.5H65.361a.5.5,0,0,0,.5-.5v-17a.5.5,0,0,0-.5-.5Z" transform="translate(-52.396 -233.064)"/></g><g transform="translate(54.698 243.533)"><path class="b" d="M63,255H57.5a.5.5,0,1,1,0-1H63a.5.5,0,1,1,0,1Z" transform="translate(-57 -254)"/></g><g transform="translate(54.698 245.533)"><path class="b" d="M66,259H57.5a.5.5,0,0,1,0-1H66a.5.5,0,0,1,0,1Z" transform="translate(-57 -258)"/></g><g transform="translate(54.711 248.142)"><path class="b" d="M57.952,265.836l-.892-2.134a.377.377,0,0,1-.035-.146.3.3,0,0,1,.3-.3.315.315,0,0,1,.307.213l.688,1.78.7-1.8a.314.314,0,0,1,.291-.193.292.292,0,0,1,.3.291.356.356,0,0,1-.032.133l-.9,2.153a.355.355,0,0,1-.342.24h-.04A.355.355,0,0,1,57.952,265.836Z" transform="translate(-57.025 -263.238)"/><path class="b" d="M62.222,265.624l.959-2.165a.375.375,0,0,1,.354-.24h.035a.37.37,0,0,1,.35.24l.959,2.165a.3.3,0,0,1,.032.122.287.287,0,0,1-.287.291.308.308,0,0,1-.291-.208l-.185-.433h-1.21l-.193.452a.3.3,0,0,1-.279.189.279.279,0,0,1-.279-.283A.325.325,0,0,1,62.222,265.624Zm1.7-.762-.382-.908-.381.908Z" transform="translate(-59.605 -263.219)"/><path class="b" d="M68.412,263.863h-.582a.279.279,0,0,1,0-.558H69.6a.279.279,0,0,1,0,.558h-.582v1.914a.3.3,0,1,1-.606,0Z" transform="translate(-62.288 -263.262)"/></g><g transform="translate(55.448 236.657)"><path class="b" d="M59,245.125a.494.494,0,0,1-.295-.1.5.5,0,0,1-.109-.7l2.833-3.875a.5.5,0,0,1,.808.59L59.4,244.92A.5.5,0,0,1,59,245.125Z" transform="translate(-58.5 -240.25)"/></g><g transform="translate(55.073 236.813)"><circle class="b" cx="0.844" cy="0.844" r="0.844" transform="translate(0 0)"/></g><g transform="translate(58.073 239.814)"><circle class="b" cx="0.844" cy="0.844" r="0.844" transform="translate(0 0)"/></g></g></g></svg>