<svg xmlns="http://www.w3.org/2000/svg" width="40" height="40" viewBox="0 0 40 40"><defs><style>.a{fill:#fff;}.b{fill:#191e80;}</style></defs><g transform="translate(-30 -173)"><path class="a" d="M7,0H33a7,7,0,0,1,7,7V33a7,7,0,0,1-7,7H7a7,7,0,0,1-7-7V7A7,7,0,0,1,7,0Z" transform="translate(30 173)"/><g transform="translate(-597.346 -390.088)"><g transform="translate(638.346 573.088)"><g transform="translate(4.751 14.005)"><path class="b" d="M344.313,199.962h-3.04a.427.427,0,0,1-.427-.427V196.5a.427.427,0,0,1,.427-.427h3.039a.427.427,0,0,1,.427.427v3.039A.427.427,0,0,1,344.313,199.962Zm-2.612-.853h2.186v-2.186H341.7Z" transform="translate(-340.847 -196.07)"/></g><g transform="translate(9.213 14.005)"><path class="b" d="M353.236,199.962H350.2a.427.427,0,0,1-.427-.427V196.5a.427.427,0,0,1,.427-.427h3.038a.427.427,0,0,1,.427.427v3.039a.427.427,0,0,1-.427.427Zm-2.612-.853h2.185v-2.186h-2.185Z" transform="translate(-349.771 -196.07)"/></g><g transform="translate(9.213 9.055)"><path class="b" d="M353.236,190.063H350.2a.427.427,0,0,1-.427-.427V186.6a.427.427,0,0,1,.427-.427h3.038a.427.427,0,0,1,.427.427v3.038a.427.427,0,0,1-.427.427Zm-2.612-.853h2.185v-2.186h-2.185Z" transform="translate(-349.771 -186.171)"/></g><g transform="translate(0 0)"><path class="b" d="M348.233,188.063h-15.16a1.734,1.734,0,0,1-1.727-1.738V174.958a.5.5,0,0,1,.2-.4l8.542-6.395a.5.5,0,0,1,.6,0l8.46,6.395a.5.5,0,0,1,.2.4v11.987A1.117,1.117,0,0,1,348.233,188.063Zm-15.889-12.856v11.118a.738.738,0,0,0,.731.742h15.158a.119.119,0,0,0,.117-.122V175.206l-7.963-6.019Z" transform="translate(-331.346 -168.063)"/></g></g></g></g></svg>