<svg xmlns="http://www.w3.org/2000/svg" width="379.049" height="208.217" viewBox="0 0 379.049 208.217"><defs><style>.a{fill:#ebebeb;}.b{fill:#999;}.c{fill:#b3b3b3;}.d,.e{fill:none;stroke:#fff;stroke-miterlimit:10;stroke-width:2px;}.e{stroke-dasharray:6.131 6.131;}.f{fill:#fff;}.g{fill:#666;}.h{fill:gray;}.i{fill:#d1b178;}.j{fill:#919191;}.k{fill:#c78b5b;}.l{fill:#dca95c;}.m{fill:#e5be84;}.n{fill:#ead1b7;}.o{fill:#f7eee5;}.p{fill:#444248;}</style></defs><g transform="translate(-530 -200)"><g transform="translate(530 406.132)"><path d="M431.849,384.485H56.2c-.906,0-1.7-.487-1.7-1.043s.793-1.043,1.7-1.043h375.65c.906,0,1.7.487,1.7,1.043S432.755,384.485,431.849,384.485Z" transform="translate(-54.5 -382.4)"/></g><ellipse class="a" cx="10" cy="2.5" rx="10" ry="2.5" transform="translate(619 200)"/><g transform="translate(-3 3)"><rect class="b" width="3" height="202.053" transform="translate(791.373 384.892) rotate(90)"/><rect class="b" width="4" height="73.74" transform="translate(595.316 327.074)"/><rect class="b" width="4" height="73.74" transform="translate(781.378 327.074)"/><rect class="c" width="207.641" height="11.722" rx="5.861" transform="translate(586.526 315.8)"/><g transform="translate(502.342 174.142)"><line class="d" x2="3" transform="translate(96.929 147.519)"/><line class="e" x2="168.615" transform="translate(106.061 147.519)"/><line class="d" x2="3" transform="translate(277.742 147.519)"/></g><g transform="translate(502.342 174.142)"><path class="f" d="M285.69,150.774a3.343,3.343,0,1,1,3.344-3.343A3.347,3.347,0,0,1,285.69,150.774Zm0-5.687a2.343,2.343,0,1,0,2.344,2.344A2.347,2.347,0,0,0,285.69,145.087Z"/></g><g transform="translate(502.342 174.142)"><path class="f" d="M90.414,150.863a3.344,3.344,0,1,1,3.344-3.344A3.348,3.348,0,0,1,90.414,150.863Zm0-5.688a2.344,2.344,0,1,0,2.344,2.344A2.347,2.347,0,0,0,90.414,145.175Z"/></g><rect class="g" width="15.678" height="5.333" transform="translate(589.68 397.647)"/><rect class="g" width="15.678" height="5.333" transform="translate(775.742 397.647)"/><path class="c" d="M2,0H16.355a0,0,0,0,1,0,0V20.625a0,0,0,0,1,0,0H2a2,2,0,0,1-2-2V2A2,2,0,0,1,2,0Z" transform="translate(578.961 334.105)"/><g transform="translate(502.342 174.142)"><path class="f" d="M85.02,173.62a3.343,3.343,0,1,1,3.344-3.344A3.347,3.347,0,0,1,85.02,173.62Zm0-5.687a2.343,2.343,0,1,0,2.344,2.343A2.346,2.346,0,0,0,85.02,167.933Z"/></g><path class="h" d="M0,0H15.756a1,1,0,0,1,1,1V1a1.03,1.03,0,0,1-1.03,1.03H0a0,0,0,0,1,0,0V0A0,0,0,0,1,0,0Z" transform="translate(587.577 345.765) rotate(-158.383)"/><g transform="translate(502.342 174.142)"><rect class="i" width="1" height="1" transform="translate(327.538 223.82)"/></g><path class="j" d="M130.9,67.38h-2.169V61.121L130.9,60.4Z" transform="translate(502.342 174.142)"/><path class="j" d="M128.736,25.781H130.9v6.259l-2.169.725Z" transform="translate(502.342 174.142)"/><path class="j" d="M130.9,59.877l-2.169.725v-.323l2.169-.725Z" transform="translate(502.342 174.142)"/><path class="j" d="M130.9,59.065l-2.169.725v-.323l2.169-.725Z" transform="translate(502.342 174.142)"/><path class="j" d="M130.9,58.254l-2.169.725v-.323l2.169-.725Z" transform="translate(502.342 174.142)"/><path class="j" d="M130.9,57.442l-2.169.725v-.323l2.169-.725Z" transform="translate(502.342 174.142)"/><path class="j" d="M130.9,56.63l-2.169.725v-.323l2.169-.725Z" transform="translate(502.342 174.142)"/><path class="j" d="M130.9,55.818l-2.169.725v-.323L130.9,55.5Z" transform="translate(502.342 174.142)"/><path class="j" d="M130.9,55.007l-2.169.725v-.323l2.169-.725Z" transform="translate(502.342 174.142)"/><path class="j" d="M130.9,54.195l-2.169.725V54.6l2.169-.725Z" transform="translate(502.342 174.142)"/><path class="j" d="M130.9,53.383l-2.169.725v-.323l2.169-.725Z" transform="translate(502.342 174.142)"/><path class="j" d="M130.9,52.571l-2.169.725v-.323l2.169-.725Z" transform="translate(502.342 174.142)"/><path class="j" d="M130.9,51.759l-2.169.725v-.323l2.169-.725Z" transform="translate(502.342 174.142)"/><path class="j" d="M130.9,50.948l-2.169.725V51.35l2.169-.725Z" transform="translate(502.342 174.142)"/><path class="j" d="M130.9,50.136l-2.169.725v-.323l2.169-.725Z" transform="translate(502.342 174.142)"/><path class="j" d="M130.9,49.324l-2.169.725v-.323L130.9,49Z" transform="translate(502.342 174.142)"/><path class="j" d="M130.9,48.512l-2.169.725v-.323l2.169-.725Z" transform="translate(502.342 174.142)"/><path class="j" d="M130.9,47.7l-2.169.725V48.1l2.169-.725Z" transform="translate(502.342 174.142)"/><path class="j" d="M130.9,46.889l-2.169.725v-.323l2.169-.725Z" transform="translate(502.342 174.142)"/><path class="j" d="M130.9,46.077l-2.169.725v-.323l2.169-.725Z" transform="translate(502.342 174.142)"/><path class="j" d="M130.9,45.265l-2.169.725v-.323l2.169-.725Z" transform="translate(502.342 174.142)"/><path class="j" d="M130.9,44.454l-2.169.725v-.323l2.169-.725Z" transform="translate(502.342 174.142)"/><path class="j" d="M130.9,43.642l-2.169.725v-.323l2.169-.725Z" transform="translate(502.342 174.142)"/><path class="j" d="M130.9,42.83l-2.169.725v-.323l2.169-.725Z" transform="translate(502.342 174.142)"/><path class="j" d="M130.9,42.018l-2.169.725v-.323L130.9,41.7Z" transform="translate(502.342 174.142)"/><path class="j" d="M130.9,41.207l-2.169.725v-.323l2.169-.725Z" transform="translate(502.342 174.142)"/><path class="j" d="M130.9,40.395l-2.169.725V40.8l2.169-.725Z" transform="translate(502.342 174.142)"/><path class="j" d="M130.9,39.583l-2.169.725v-.323l2.169-.725Z" transform="translate(502.342 174.142)"/><path class="j" d="M130.9,38.771l-2.169.725v-.323l2.169-.725Z" transform="translate(502.342 174.142)"/><path class="j" d="M130.9,37.959l-2.169.725v-.323l2.169-.725Z" transform="translate(502.342 174.142)"/><path class="j" d="M130.9,37.148l-2.169.725V37.55l2.169-.725Z" transform="translate(502.342 174.142)"/><path class="j" d="M130.9,36.336l-2.169.725v-.323l2.169-.725Z" transform="translate(502.342 174.142)"/><path class="j" d="M130.9,35.524l-2.169.725v-.323L130.9,35.2Z" transform="translate(502.342 174.142)"/><path class="j" d="M130.9,34.712l-2.169.725v-.323l2.169-.725Z" transform="translate(502.342 174.142)"/><path class="j" d="M130.9,33.9l-2.169.725V34.3l2.169-.725Z" transform="translate(502.342 174.142)"/><path class="j" d="M130.9,33.089l-2.169.725v-.323l2.169-.725Z" transform="translate(502.342 174.142)"/><circle class="c" cx="2.604" cy="2.604" r="2.604" transform="translate(629.558 239.876)"/><path class="c" d="M129.384,69.358s-24.523.063-14.105,21v2.356s-15.707-21.75,14.105-25.063Z" transform="translate(502.342 174.142)"/><path class="c" d="M130.26,69.358s24.524.063,14.106,21v2.356s15.707-21.75-14.106-25.063Z" transform="translate(502.342 174.142)"/><rect class="j" width="1" height="3.781" transform="translate(616.621 263.074)"/><rect class="j" width="1" height="3.781" transform="translate(646.703 263.074)"/><circle class="j" cx="1.743" cy="1.743" r="1.743" transform="translate(630.419 240.737)"/><rect class="j" width="11" height="1" transform="translate(626.623 199)"/><g transform="translate(792.971 334.485)"><path class="k" d="M77.893,20.03h-11.8l13.525,7.919h11.8Z" transform="translate(-11.649)"/><rect class="k" width="41.303" height="40.359" transform="translate(27.029 27.949)"/><path class="l" d="M53.807,22.478h-11.8l-14.977,6.2h11.8Z" transform="translate(0 -0.73)"/><rect class="m" width="40.939" height="40.359" transform="translate(38.83 27.949)"/><rect class="n" width="10.985" height="10.385" transform="translate(53.807 27.949)"/><rect class="n" width="10.985" height="10.385" transform="translate(53.807 57.923)"/><g transform="translate(40.792 60.033)"><rect class="o" width="10.621" height="6.417" transform="translate(0)"/><g transform="translate(0.485 0.9)"><rect class="p" width="1.127" height="4.617"/><rect class="p" width="0.395" height="4.617" transform="translate(1.812)"/><rect class="p" width="0.924" height="4.617" transform="translate(3.826)"/><rect class="p" width="0.564" height="4.617" transform="translate(2.661)"/><rect class="p" width="0.382" height="4.617" transform="translate(5.441)"/><rect class="p" width="0.764" height="4.617" transform="translate(7.246)"/><rect class="p" width="0.379" height="4.617" transform="translate(8.272)"/><rect class="p" width="0.524" height="4.617" transform="translate(6.38)"/><rect class="p" width="0.564" height="4.617" transform="translate(9.058)"/></g></g></g><g transform="translate(576.107 131.653)"><rect class="k" width="25.249" height="24.672" transform="translate(80.434 159.404)"/><rect class="m" width="25.027" height="24.672" transform="translate(87.648 159.404)"/><rect class="n" width="6.715" height="6.348" transform="translate(96.804 159.404)"/><rect class="n" width="6.715" height="6.348" transform="translate(96.804 177.727)"/><g transform="translate(88.847 179.017)"><rect class="o" width="6.493" height="3.923"/><g transform="translate(0.297 0.55)"><rect class="p" width="0.689" height="2.822"/><rect class="p" width="0.242" height="2.822" transform="translate(1.107)"/><rect class="p" width="0.565" height="2.822" transform="translate(2.339)"/><rect class="p" width="0.345" height="2.822" transform="translate(1.627)"/><rect class="p" width="0.233" height="2.822" transform="translate(3.326)"/><rect class="p" width="0.467" height="2.822" transform="translate(4.43)"/><rect class="p" width="0.232" height="2.822" transform="translate(5.057)"/><rect class="p" width="0.32" height="2.822" transform="translate(3.9)"/><rect class="p" width="0.345" height="2.822" transform="translate(5.537)"/></g></g></g><g transform="translate(537.107 99.653)"><rect class="k" width="22.839" height="22.317" transform="translate(80.434 159.404)"/><rect class="m" width="22.637" height="22.317" transform="translate(86.959 159.404)"/><rect class="n" width="6.074" height="5.742" transform="translate(95.241 159.404)"/><rect class="n" width="6.074" height="5.742" transform="translate(95.241 175.978)"/><g transform="translate(88.044 177.145)"><rect class="o" width="5.873" height="3.548"/><g transform="translate(0.268 0.498)"><rect class="p" width="0.623" height="2.553"/><rect class="p" width="0.219" height="2.553" transform="translate(1.002)"/><rect class="p" width="0.511" height="2.553" transform="translate(2.116)"/><rect class="p" width="0.312" height="2.553" transform="translate(1.472)"/><rect class="p" width="0.211" height="2.553" transform="translate(3.009)"/><rect class="p" width="0.422" height="2.553" transform="translate(4.007)"/><rect class="p" width="0.21" height="2.553" transform="translate(4.574)"/><rect class="p" width="0.289" height="2.553" transform="translate(3.528)"/><rect class="p" width="0.312" height="2.553" transform="translate(5.008)"/></g></g></g><g transform="translate(614.107 131.653)"><rect class="k" width="25.249" height="24.672" transform="translate(80.434 159.404)"/><rect class="m" width="25.027" height="24.672" transform="translate(87.648 159.404)"/><rect class="n" width="6.715" height="6.348" transform="translate(96.804 159.404)"/><rect class="n" width="6.715" height="6.348" transform="translate(96.804 177.727)"/><g transform="translate(88.847 179.017)"><rect class="o" width="6.493" height="3.923"/><g transform="translate(0.297 0.55)"><rect class="p" width="0.689" height="2.822"/><rect class="p" width="0.242" height="2.822" transform="translate(1.107)"/><rect class="p" width="0.565" height="2.822" transform="translate(2.339)"/><rect class="p" width="0.345" height="2.822" transform="translate(1.627)"/><rect class="p" width="0.233" height="2.822" transform="translate(3.326)"/><rect class="p" width="0.467" height="2.822" transform="translate(4.43)"/><rect class="p" width="0.232" height="2.822" transform="translate(5.057)"/><rect class="p" width="0.32" height="2.822" transform="translate(3.9)"/><rect class="p" width="0.345" height="2.822" transform="translate(5.537)"/></g></g></g><g transform="translate(651.107 131.653)"><rect class="k" width="25.249" height="24.672" transform="translate(80.434 159.404)"/><rect class="m" width="25.027" height="24.672" transform="translate(87.648 159.404)"/><rect class="n" width="6.715" height="6.348" transform="translate(96.804 159.404)"/><rect class="n" width="6.715" height="6.348" transform="translate(96.804 177.727)"/><g transform="translate(88.847 179.017)"><rect class="o" width="6.493" height="3.923"/><g transform="translate(0.297 0.55)"><rect class="p" width="0.689" height="2.822"/><rect class="p" width="0.242" height="2.822" transform="translate(1.107)"/><rect class="p" width="0.565" height="2.822" transform="translate(2.339)"/><rect class="p" width="0.345" height="2.822" transform="translate(1.627)"/><rect class="p" width="0.233" height="2.822" transform="translate(3.326)"/><rect class="p" width="0.467" height="2.822" transform="translate(4.43)"/><rect class="p" width="0.232" height="2.822" transform="translate(5.057)"/><rect class="p" width="0.32" height="2.822" transform="translate(3.9)"/><rect class="p" width="0.345" height="2.822" transform="translate(5.537)"/></g></g></g><g transform="matrix(0.966, 0.259, -0.259, 0.966, 741.846, 112.515)"><rect class="k" width="25.249" height="24.672" transform="translate(80.434 159.404)"/><rect class="m" width="25.027" height="24.672" transform="translate(87.648 159.404)"/><rect class="n" width="6.715" height="6.348" transform="translate(96.804 159.404)"/><rect class="n" width="6.715" height="6.348" transform="translate(96.804 177.727)"/><g transform="translate(88.847 179.017)"><rect class="o" width="6.493" height="3.923"/><g transform="translate(0.297 0.55)"><rect class="p" width="0.689" height="2.822"/><rect class="p" width="0.242" height="2.822" transform="translate(1.107)"/><rect class="p" width="0.565" height="2.822" transform="translate(2.339)"/><rect class="p" width="0.345" height="2.822" transform="translate(1.627)"/><rect class="p" width="0.233" height="2.822" transform="translate(3.326)"/><rect class="p" width="0.467" height="2.822" transform="translate(4.43)"/><rect class="p" width="0.232" height="2.822" transform="translate(5.057)"/><rect class="p" width="0.32" height="2.822" transform="translate(3.9)"/><rect class="p" width="0.345" height="2.822" transform="translate(5.537)"/></g></g></g></g></g></svg>