                                <svg version="1.1" id="Layer_1" xmlns="http://www.w3.org/2000/svg" x="0" y="0" viewBox="0 0 512 512" xml:space="preserve" class="icon text-bottom"><path fill="#1D1D1B" d="M228.5 479.1l-179.5.1V33h319v175.3c11 .5 21 2.1 31 4.6V1H17v510l244.8-.1c-12.5-9-23.7-19.7-33.3-31.8z"></path><path fill="#1D1D1B" d="M359.6 239.9c-74.7 0-135.4 60.8-135.4 135.4 0 74.7 60.8 135.4 135.4 135.4S495 450.1 495 375.4c0-74.7-60.7-135.5-135.4-135.5zM256 375.4c0-57.1 46.5-103.6 103.6-103.6s103.6 46.5 103.6 103.6S416.7 479 359.6 479 256 432.5 256 375.4z"></path><path fill="#1D1D1B" d="M403.7 330.6L347.3 387 325 364.5c-6.2-6.2-16.3-6.2-22.5 0-6.2 6.2-6.2 16.3 0 22.5l33.6 33.6c3.1 3.1 7.2 4.7 11.3 4.7s8.2-1.6 11.3-4.7l67.6-67.6c6.2-6.2 6.2-16.3 0-22.5-6.3-6.2-16.4-6.2-22.6.1zM93 97h202v31H93zM93 192h144v32H93z"></path></svg>
