<svg xmlns="http://www.w3.org/2000/svg" width="27.492" height="14.784" viewBox="0 0 27.492 14.784"><g transform="translate(181.496 -183.655)"><path d="M-174.837,183.662a.382.382,0,0,0-.05.01l-2.871.96a.323.323,0,0,0-.2.41.323.323,0,0,0,.143.177s3.667,2.2,5.8,3.487l-3.71,1.324-2.426-1.223a.327.327,0,0,0-.212-.02l-2.881.637a.323.323,0,0,0-.243.387.321.321,0,0,0,.061.128l3.194,4.155.02.02a2.449,2.449,0,0,0,1.84.748,6.775,6.775,0,0,0,2.011-.334l6.126-1.9a.332.332,0,0,0,.061.1l5.327,5.61a.324.324,0,0,0,.344.081l2.375-.889a.324.324,0,0,0,.183-.419.274.274,0,0,0-.011-.026s-1.863-3.811-2.921-6.126l7.035-2.184.021-.01a2.433,2.433,0,0,0,1.445-.92,2.25,2.25,0,0,0,.374-1.3,1.633,1.633,0,0,0-.465-1.081,3.666,3.666,0,0,0-1.071-.788,6.716,6.716,0,0,0-2.942-.7,8.725,8.725,0,0,0-2.982.657l-3.739,1.254-9.5-2.224a.329.329,0,0,0-.132,0Zm.071.657,9.5,2.214a.325.325,0,0,0,.172-.01l3.841-1.274a8.1,8.1,0,0,1,2.77-.627,6.189,6.189,0,0,1,2.648.627,3.12,3.12,0,0,1,.889.637.99.99,0,0,1,.293.657,1.6,1.6,0,0,1-.262.93,1.758,1.758,0,0,1-1.092.677h-.01l-18.537,5.762a6.182,6.182,0,0,1-1.82.3,1.8,1.8,0,0,1-1.345-.516l-.01-.01-.01-.01-2.87-3.739,2.264-.5,2.456,1.223a.322.322,0,0,0,.262.02l4.468-1.607a.323.323,0,0,0,.19-.416.319.319,0,0,0-.129-.16c-1.77-1.069-5.086-3.055-5.791-3.478l2.122-.707Zm16.405.8-1.132.354.313,1,1.132-.354Zm-2.679.8-1.132.364.313,1,1.132-.364Zm-3.022,1.092-1.143.353.324,1,1.132-.354-.313-1Zm-2.75.93-1.132.353.313,1,1.132-.354Zm3.306,3.224c1.006,2.2,2.64,5.514,2.82,5.883l-1.849.7-5.034-5.326,4.063-1.254Z"/></g></svg>