<svg xmlns="http://www.w3.org/2000/svg" width="24.042" height="20" viewBox="0 0 24.042 20"><g transform="translate(198.007 -193.492)"><path d="M-193.075,204.215A1.924,1.924,0,0,0-195,206.137a1.924,1.924,0,0,0,1.922,1.922,1.924,1.924,0,0,0,1.922-1.922A1.924,1.924,0,0,0-193.075,204.215Zm0,3.251a1.331,1.331,0,0,1-1.33-1.329,1.331,1.331,0,0,1,1.33-1.33,1.331,1.331,0,0,1,1.33,1.33A1.331,1.331,0,0,1-193.075,207.466Z" transform="translate(-0.602 -2.145)"/><path d="M-195,211.489h3.843v-1.461H-195Zm.592-.869h2.659v.277H-194.4Z" transform="translate(-0.602 -3.307)"/><path d="M-177.543,200.831h0c0-3.047-3.758-4.434-7.25-4.434s-7.25,1.388-7.25,4.434v.3h14.5Zm-13.894-.3c.248-2.434,3.559-3.546,6.643-3.546s6.4,1.112,6.643,3.546Z" transform="translate(-1.193 -0.581)"/><path d="M-173.847,204.215a1.924,1.924,0,0,0-1.922,1.922,1.924,1.924,0,0,0,1.922,1.922,1.924,1.924,0,0,0,1.922-1.922A1.924,1.924,0,0,0-173.847,204.215Zm0,3.251a1.331,1.331,0,0,1-1.329-1.329,1.33,1.33,0,0,1,1.329-1.33,1.331,1.331,0,0,1,1.33,1.33A1.331,1.331,0,0,1-173.847,207.466Z" transform="translate(-4.448 -2.145)"/><path d="M-175.769,211.489h3.843v-1.461h-3.843Zm.593-.869h2.658v.277h-2.658Z" transform="translate(-4.448 -3.307)"/><rect width="5.669" height="0.592" transform="translate(-188.821 204.358)"/><rect width="5.669" height="0.592" transform="translate(-188.821 205.322)"/><rect width="5.669" height="0.592" transform="translate(-188.821 206.286)"/><rect width="5.669" height="0.592" transform="translate(-188.821 207.25)"/><path d="M-174.162,202.506a2.8,2.8,0,0,0-2.122-2.429l-2.251-5.277A2.755,2.755,0,0,0-181,193.493h-10a2.75,2.75,0,0,0-2.446,1.314l-2.249,5.271a2.8,2.8,0,0,0-2.122,2.434l-.2,7.182h2.2v2.142a1.659,1.659,0,0,0,1.657,1.657h.945a1.659,1.659,0,0,0,1.657-1.657v-2.142h11.124v2.142a1.659,1.659,0,0,0,1.657,1.657h.946a1.659,1.659,0,0,0,1.657-1.657v-2.142h2.2ZM-193.2,212.9h-.946a1.066,1.066,0,0,1-1.065-1.065v-2.142h3.074v2.142h0A1.066,1.066,0,0,1-193.2,212.9Zm15.382,0h-.946a1.066,1.066,0,0,1-1.065-1.065v-2.142h3.074v2.142h0A1.066,1.066,0,0,1-177.822,212.9Zm-19.576-3.8.18-6.57c.065-1.488,1.742-1.9,1.812-1.916l.146-.034,2.362-5.537c.42-.93,1.747-.96,1.921-.96h10c.151,0,1.483.027,1.9.954l2.366,5.542.146.034c.071.017,1.747.428,1.812,1.912l.18,6.574Z" transform="translate(0)"/></g></svg>