                                <svg version="1.1" id="Layer_1" xmlns="http://www.w3.org/2000/svg" x="0" y="0" viewBox="0 0 512 512" xml:space="preserve" class="icon text-bottom"><path d="M329 192H183.5c-3 0-6.5 1.4-6.5 4.4v16.2c0 3 3.7 5.5 6.5 5.5h35.8c18 0 34.6 7.8 43.1 20h-78.9c-3 0-6.5 1.6-6.5 4.5v16.2c0 2.9 3.7 5.3 6.5 5.3H267c-5.1 17.2-24.3 29-47.5 29h-34.2c-2 0-3.7.7-4.9 1.9-1.3 1.3-2 3-2 4.9v14.4c0 1.8.7 3.5 2 4.8l93.5 96.1c1.2 1.3 2.5 1.9 3.7 1.9h26.7c2.3 0 4.1-1.8 4.8-3.6.8-2 .3-4.4-1.1-5.9l-11.8-11.5-74.3-76.1c18.6-.5 36.2-6.9 50-18.1 12-9.8 20.1-23.5 22.4-37.8H329c2.7 0 4-2 4-5.3v-16.2c0-3.8-2-4.5-4-4.5h-37c-2.2-7-5.8-13.3-11.4-20H329c2.6 0 4-2.2 4-5.5v-16.2c0-2.9-1.1-4.4-4-4.4z"></path><path fill="#1D1D1B" d="M447.3 454.5l.5-263.8c0-56-20.1-110.3-56.6-152.9l-7.7-8.9-.3-.3c-2.4-4.2-5.3-8.1-8.8-11.6-10.4-10.8-25.1-17-40-17H63.3l.3 512h385.1l-1.4-57.5zM383.8 81.3c17 26.5 27.6 56.7 30.9 88-7.4-10.2-15.5-20-24.2-29.2-11.7-12.5-23.6-23.6-35.6-33.3 7-2.7 13.4-6.8 18.9-12.2 4-4 7.4-8.5 10-13.3zM95.6 480l-.3-448h239.1c6.4 0 12.8 2.7 17.3 7.3 4.4 4.5 6.7 10.1 6.6 16.1C358.1 68 347.7 78 335.1 78h-23.3c-7.7 0-14.5 5.4-16.4 12.9-2 7.5 1.4 15.4 8.1 19.2 20.8 11.7 42.8 29.7 63.6 51.9 20 21.3 36.3 45.5 48.6 72l-.4 220.7.6 25.4H95.6z"></path></svg>
