<svg xmlns="http://www.w3.org/2000/svg" width="12" height="12" viewBox="0 0 12 12"><defs><style>.a{fill:#a9a9a9;}</style></defs><g transform="translate(-1065.4 -495.7)"><path class="a" d="M558.14,420.44a5.7,5.7,0,0,1,4.26-1.74,5.939,5.939,0,0,1,4.26,1.74,5.614,5.614,0,0,1,1.74,4.26,5.938,5.938,0,0,1-1.74,4.26,5.614,5.614,0,0,1-4.26,1.74,5.938,5.938,0,0,1-4.26-1.74,5.613,5.613,0,0,1-1.74-4.26A5.839,5.839,0,0,1,558.14,420.44Zm.9,7.62a4.638,4.638,0,0,0,3.36,1.44,4.541,4.541,0,0,0,3.36-1.44,4.888,4.888,0,0,0,1.44-3.36,4.541,4.541,0,0,0-1.44-3.36,4.888,4.888,0,0,0-3.36-1.44,4.541,4.541,0,0,0-3.36,1.44,4.888,4.888,0,0,0-1.44,3.36A4.638,4.638,0,0,0,559.04,428.06Z" transform="translate(509 77)"/><path class="a" d="M4.742-6.016a1.278,1.278,0,0,1-.444,1,2.259,2.259,0,0,1-1.28.485v.908H2.462v-.883a4.32,4.32,0,0,1-1.7-.318v-.883a4.249,4.249,0,0,0,.841.295,3.8,3.8,0,0,0,.862.123V-6.853l-.351-.13a2.474,2.474,0,0,1-1-.63,1.338,1.338,0,0,1-.316-.906,1.179,1.179,0,0,1,.45-.95,2.228,2.228,0,0,1,1.22-.452v-.7h.556v.69a4.61,4.61,0,0,1,1.611.343l-.305.766a4.487,4.487,0,0,0-1.305-.31V-7.61l.318.121a2.905,2.905,0,0,1,1.1.644A1.193,1.193,0,0,1,4.742-6.016Zm-.987.063a.521.521,0,0,0-.169-.4,1.744,1.744,0,0,0-.567-.3v1.335Q3.755-5.435,3.755-5.954ZM1.776-8.527a.56.56,0,0,0,.149.4,1.526,1.526,0,0,0,.538.314v-1.3a.978.978,0,0,0-.51.205A.492.492,0,0,0,1.776-8.527Z" transform="translate(1069 509)"/></g></svg>