<svg xmlns="http://www.w3.org/2000/svg" width="12" height="13" viewBox="0 0 12 13"><defs><style>.a{fill:#a9a9a9;}</style></defs><path class="a" d="M272.367,906.1a1.333,1.333,0,0,1,.933.39,1.268,1.268,0,0,1,.4.91v9.1a1.268,1.268,0,0,1-.4.91,1.333,1.333,0,0,1-.933.39h-9.333a1.225,1.225,0,0,1-.933-.39,1.268,1.268,0,0,1-.4-.91v-9.1a1.268,1.268,0,0,1,.4-.91,1.333,1.333,0,0,1,.933-.39h.667v-1.3h1.333v1.3h5.333v-1.3H271.7v1.3Zm0,10.4v-7.15h-9.333v7.15Zm-1.333-5.85v1.3h-6.667v-1.3Zm-2,2.6v1.3h-4.667v-1.3Z" transform="translate(-261.7 -904.8)"/></svg>