<svg xmlns="http://www.w3.org/2000/svg" width="12.2" height="11.773" viewBox="0 0 12.2 11.773"><defs><style>.a,.b{fill:#a9a9a9;}.a{stroke:#a9a9a9;stroke-width:0.2px;}</style></defs><g transform="translate(-4.55 -5.48)"><path class="a" d="M38.42,8.4h0a.3.3,0,0,0-.02-.058l-.008-.013a.2.2,0,0,0-.036-.051L35.727,5.65a.332.332,0,0,0-.051-.038l-.013-.007a.233.233,0,0,0-.1-.026H30.635a.826.826,0,0,0-.825.826v9.922a.826.826,0,0,0,.825.825H37.6a.826.826,0,0,0,.825-.825V8.446A.248.248,0,0,0,38.42,8.4Zm-.807-.194H36.185a.389.389,0,0,1-.389-.388V6.394ZM37.6,16.672H30.635a.35.35,0,0,1-.35-.349V6.406a.351.351,0,0,1,.35-.35h4.685V7.821a.867.867,0,0,0,.865.864h1.764v7.644a.35.35,0,0,1-.35.343Z" transform="translate(-21.774)"/><path class="a" d="M40.7,42.376h5.182a.238.238,0,0,0,0-.476H40.7a.238.238,0,1,0,0,.476Z" transform="translate(-30.991 -31.432)"/><path class="a" d="M46.119,53.468a.238.238,0,0,0-.238-.238H40.7a.238.238,0,1,0,0,.476h5.182A.238.238,0,0,0,46.119,53.468Z" transform="translate(-30.991 -41.238)"/><path class="a" d="M17.342,17.716h.638a.238.238,0,0,0,0-.476h-.638a.743.743,0,0,0-.742.743V26.5a.743.743,0,0,0,.742.743h.638a.238.238,0,1,0,0-.476h-.638a.269.269,0,0,1-.269-.269V17.983A.269.269,0,0,1,17.342,17.716Z" transform="translate(-10.342 -10.091)"/><path class="a" d="M5.282,33.026h.5a.238.238,0,1,0,0-.476h-.5a.634.634,0,0,0-.632.632V39.86a.634.634,0,0,0,.633.634h.5a.238.238,0,0,0,0-.476h-.5a.159.159,0,0,1-.156-.157V33.182A.157.157,0,0,1,5.282,33.026Z" transform="translate(0 -23.341)"/><path class="b" d="M72.258,61.1c-.384-.092-.392-.248-.4-.322a.3.3,0,0,1,.087-.192.211.211,0,0,1,.184-.061c.378.032.416.236.429.3a.221.221,0,1,0,.433-.081.775.775,0,0,0-.577-.615v-.238a.221.221,0,0,0-.441,0V60.1a.623.623,0,0,0-.33.17.739.739,0,0,0-.221.538c.016.256.151.584.735.723.437.1.437.221.437.381a.175.175,0,0,1-.065.135.467.467,0,0,1-.289.12.417.417,0,0,1-.448-.4.221.221,0,0,0-.441,0,.807.807,0,0,0,.622.807v.226a.221.221,0,0,0,.441,0v-.211a.919.919,0,0,0,.42-.219.615.615,0,0,0,.2-.454C73.034,61.359,72.66,61.195,72.258,61.1Z" transform="translate(-57.722 -46.811)"/></g></svg>