<svg xmlns="http://www.w3.org/2000/svg" width="12" height="11.831" viewBox="0 0 12 11.831"><defs><style>.a{fill:#a9a9a9;}</style></defs><g transform="translate(0 5.193)"><path class="a" d="M598.333,566.773a3.616,3.616,0,0,1-3.636-3.7,3.886,3.886,0,0,1,1.136-2.673.879.879,0,1,1,1.249,1.236,2.139,2.139,0,0,0-.628,1.466,1.873,1.873,0,0,0,.552,1.38,1.933,1.933,0,0,0,1.387.536,2.133,2.133,0,0,0,1.459-.645.879.879,0,1,1,1.25,1.236,3.879,3.879,0,0,1-2.659,1.166Z" transform="translate(-594.696 -560.136)"/></g><g transform="translate(5.321 0)"><path class="a" d="M605.669,560.86a.879.879,0,0,1-.625-1.494,2.14,2.14,0,0,0,.628-1.466,1.878,1.878,0,0,0-.552-1.38,1.955,1.955,0,0,0-1.388-.536,2.135,2.135,0,0,0-1.46.645.879.879,0,1,1-1.249-1.235,3.882,3.882,0,0,1,2.659-1.166,3.618,3.618,0,0,1,3.747,3.7,3.886,3.886,0,0,1-1.136,2.673A.874.874,0,0,1,605.669,560.86Z" transform="translate(-600.751 -554.225)"/></g><g transform="translate(3.764 3.947)"><path class="a" d="M599.856,562.97a.879.879,0,0,1-.625-1.494l2.471-2.5a.879.879,0,1,1,1.25,1.236l-2.472,2.5a.874.874,0,0,1-.624.257Z" transform="translate(-598.98 -558.717)"/></g></svg>