<svg xmlns="http://www.w3.org/2000/svg" width="12" height="14.75" viewBox="0 0 12 14.75"><defs><style>.a{fill:#a9a9a9;}</style></defs><path class="a" d="M901.5,1084.05a1.538,1.538,0,0,1,1.5,1.5v7.5a1.538,1.538,0,0,1-1.5,1.5h-9a1.538,1.538,0,0,1-1.5-1.5v-7.5a1.538,1.538,0,0,1,1.5-1.5h.75v-1.5c0-1.05.375-.95,1.125-1.625A3.966,3.966,0,0,1,897,1079.8a3.518,3.518,0,0,1,2.625,1.125c.675.75,1.125.65,1.125,1.625v1.5Zm0,9v-7.5h-9v7.5Zm-2.85-11.15a2.354,2.354,0,0,0-3.3,0c-.45.45-.675-.025-.6.65v1.5h4.575v-1.5C899.325,1081.95,899.1,1082.35,898.65,1081.9Zm-.6,8.45a1.45,1.45,0,1,1,.45-1.05A1.23,1.23,0,0,1,898.05,1090.35Z" transform="translate(-891 -1079.8)"/></svg>