<svg xmlns="http://www.w3.org/2000/svg" width="12" height="14" viewBox="0 0 12 14"><defs><style>.a{fill:#a9a9a9;}</style></defs><path class="a" d="M825.934,629.716l-3.418,3.316v-2.874a4.553,4.553,0,0,0-2.734,1.474,3.994,3.994,0,0,0-1.063,2.874,4.349,4.349,0,0,0,1.063,2.874,4.168,4.168,0,0,0,2.734,1.474v1.474a5.886,5.886,0,0,1-3.8-1.916,5.415,5.415,0,0,1-1.519-3.905,5.894,5.894,0,0,1,5.317-5.821V626.4Zm-1.975,9.137a5.343,5.343,0,0,0,1.9-.737L827,639.221a5.834,5.834,0,0,1-2.962,1.179v-1.547Zm5.24-5.084h-1.519a5.01,5.01,0,0,0-.76-1.842l1.139-1.032A5.909,5.909,0,0,1,829.2,633.769Zm-2.278,3.316a3.689,3.689,0,0,0,.76-1.842H829.2a6.033,6.033,0,0,1-1.215,2.874Z" transform="translate(-817.2 -626.4)"/></svg>