<svg xmlns="http://www.w3.org/2000/svg" width="12" height="12" viewBox="0 0 12 12"><defs><style>.a{fill:#a9a9a9;}</style></defs><path class="a" d="M-3688.26,656.26A5.613,5.613,0,0,1-3690,652a5.838,5.838,0,0,1,1.74-4.26A5.7,5.7,0,0,1-3684,646a5.939,5.939,0,0,1,4.26,1.74A5.613,5.613,0,0,1-3678,652a5.94,5.94,0,0,1-1.74,4.26A5.614,5.614,0,0,1-3684,658,5.938,5.938,0,0,1-3688.26,656.26Zm.9-7.62a4.888,4.888,0,0,0-1.44,3.36,4.636,4.636,0,0,0,1.44,3.36,4.636,4.636,0,0,0,3.36,1.44,4.541,4.541,0,0,0,3.36-1.44,4.885,4.885,0,0,0,1.44-3.36,4.54,4.54,0,0,0-1.44-3.36,4.887,4.887,0,0,0-3.36-1.44A4.539,4.539,0,0,0-3687.36,648.64Zm4.349,5.549a2.257,2.257,0,0,1-.324-1.315q0-1.76,1.232-1.76a1.074,1.074,0,0,1,.923.454,2.206,2.206,0,0,1,.329,1.306,2.267,2.267,0,0,1-.32,1.328,1.077,1.077,0,0,1-.932.443A1.049,1.049,0,0,1-3683.01,654.188Zm.541-2.166a2.386,2.386,0,0,0-.114.851,2.452,2.452,0,0,0,.114.858.385.385,0,0,0,.368.285q.505,0,.5-1.143t-.5-1.129A.384.384,0,0,0-3682.47,652.023Zm-3.395,2.545,3.123-5.63h.747l-3.123,5.63Zm-.814-2.636a2.278,2.278,0,0,1-.322-1.315q0-1.759,1.229-1.76a1.073,1.073,0,0,1,.93.456,2.227,2.227,0,0,1,.326,1.3,2.291,2.291,0,0,1-.318,1.331,1.08,1.08,0,0,1-.938.445A1.043,1.043,0,0,1-3686.679,651.932Zm.541-2.163a2.459,2.459,0,0,0-.112.855,2.457,2.457,0,0,0,.112.855.381.381,0,0,0,.365.281q.509,0,.509-1.136t-.509-1.136A.38.38,0,0,0-3686.137,649.769Z" transform="translate(3690 -646)"/></svg>