<svg xmlns="http://www.w3.org/2000/svg" width="12" height="12" viewBox="0 0 12 12"><defs><style>.a{fill:#a9a9a9;}</style></defs><path class="a" d="M898.86,214.159H900v1.081h-1.14a4.914,4.914,0,0,1-4.344,4.324V220.7H893.43v-1.135a4.914,4.914,0,0,1-4.344-4.324H888v-1.081h1.14a4.914,4.914,0,0,1,4.344-4.324V208.7h1.086v1.135a4.7,4.7,0,0,1,2.932,1.405A4.592,4.592,0,0,1,898.86,214.159Zm-7.547,3.243a3.573,3.573,0,0,0,2.661,1.081,3.742,3.742,0,1,0-3.747-3.73A3.54,3.54,0,0,0,891.312,217.4Zm1.14-4.216a2.084,2.084,0,1,1-.652,1.514A2.268,2.268,0,0,1,892.453,213.186Z" transform="translate(-888 -208.7)"/></svg>