<svg xmlns="http://www.w3.org/2000/svg" width="12" height="12" viewBox="0 0 12 12"><defs><style>.a{fill:#a9a9a9;}</style></defs><path class="a" d="M525.05,984.45a10.36,10.36,0,0,1,4.95,0,9.118,9.118,0,0,1,2.475,1.05,2,2,0,0,1,1.125,1.65v2.25h-12v-2.25a2.1,2.1,0,0,1,1.125-1.65A6.536,6.536,0,0,1,525.05,984.45Zm5.475,1.725a8.627,8.627,0,0,0-3.075-.6,8.956,8.956,0,0,0-3.075.6c-1.05.375-1.5.75-1.5.975v.825h9.15v-.825C532.025,986.925,531.575,986.55,530.525,986.175ZM525.35,978.3a2.9,2.9,0,1,1-.9,2.1A2.838,2.838,0,0,1,525.35,978.3Zm3.225.975a1.631,1.631,0,1,0,.45,1.125A1.526,1.526,0,0,0,528.575,979.275Z" transform="translate(-521.6 -977.4)"/></svg>