<svg xmlns="http://www.w3.org/2000/svg" width="12.4" height="12.4" viewBox="0 0 12.4 12.4"><defs><style>.a{fill:#a9a9a9;stroke:#a9a9a9;stroke-width:0.4px;}</style></defs><g transform="translate(-12.8 -12.8)"><path class="a" d="M14.2,18.351h2.951a1.2,1.2,0,0,0,1.2-1.2V14.2a1.2,1.2,0,0,0-1.2-1.2H14.2A1.2,1.2,0,0,0,13,14.2v2.951A1.2,1.2,0,0,0,14.2,18.351ZM13.649,14.2a.547.547,0,0,1,.551-.551h2.951a.547.547,0,0,1,.551.551v2.951a.547.547,0,0,1-.551.551H14.2a.547.547,0,0,1-.551-.551Z"/><path class="a" d="M58.151,13H55.2A1.2,1.2,0,0,0,54,14.2v2.951a1.2,1.2,0,0,0,1.2,1.2h2.951a1.2,1.2,0,0,0,1.2-1.2V14.2A1.2,1.2,0,0,0,58.151,13Zm.551,4.151a.547.547,0,0,1-.551.551H55.2a.547.547,0,0,1-.551-.551V14.2a.547.547,0,0,1,.551-.551h2.951a.547.547,0,0,1,.551.551Z" transform="translate(-34.351)"/><path class="a" d="M14.2,59.351h2.951a1.2,1.2,0,0,0,1.2-1.2V55.2a1.2,1.2,0,0,0-1.2-1.2H14.2A1.2,1.2,0,0,0,13,55.2v2.951A1.2,1.2,0,0,0,14.2,59.351ZM13.649,55.2a.547.547,0,0,1,.551-.551h2.951a.547.547,0,0,1,.551.551v2.951a.547.547,0,0,1-.551.551H14.2a.547.547,0,0,1-.551-.551Z" transform="translate(0 -34.351)"/><path class="a" d="M56.676,54a2.676,2.676,0,1,0,2.676,2.676A2.678,2.678,0,0,0,56.676,54Zm0,4.7A2.027,2.027,0,1,1,58.7,56.676,2.028,2.028,0,0,1,56.676,58.7Z" transform="translate(-34.351 -34.351)"/></g></svg>