<svg xmlns="http://www.w3.org/2000/svg" width="12.508" height="15" viewBox="0 0 12.508 15"><g transform="translate(-31.2 -7.5)"><g transform="translate(31.2 7.5)"><path d="M41.61,9.582h0A2.08,2.08,0,0,0,39.528,7.5H33.282A2.08,2.08,0,0,0,31.2,9.582v8.754a2.1,2.1,0,0,0,2.082,2.082h0A2.1,2.1,0,0,0,35.364,22.5h4.795a2.066,2.066,0,0,0,1.467-.615l1.467-1.467a2.066,2.066,0,0,0,.615-1.467v-7.3A2.1,2.1,0,0,0,41.61,9.582Zm-8.328,2.066v8.06h0a1.347,1.347,0,0,1-.978-.41,1.373,1.373,0,0,1-.41-.978V9.582a1.39,1.39,0,0,1,1.388-1.388h6.246a1.38,1.38,0,0,1,1.388,1.388H35.364A2.077,2.077,0,0,0,33.282,11.648ZM35.364,21.79h0a1.321,1.321,0,0,1-.978-.41,1.373,1.373,0,0,1-.41-.978V11.648a1.39,1.39,0,0,1,1.388-1.388H41.61A1.39,1.39,0,0,1,43,11.648v7.066h-1.83a1.232,1.232,0,0,0-1.23,1.23v1.83Zm5.757-.41a1.3,1.3,0,0,1-.5.315V19.961a.532.532,0,0,1,.536-.536h1.735a1.3,1.3,0,0,1-.315.5Z" transform="translate(-31.2 -7.5)"/><path d="M118.547,137.794h4.748a.347.347,0,1,0,0-.694h-4.748a.347.347,0,1,0,0,.694Z" transform="translate(-113.626 -130.286)"/><path d="M123.295,180.094a.347.347,0,0,0,0-.694h-4.748a.347.347,0,1,0,0,.694Z" transform="translate(-113.626 -170.362)"/><path d="M118.547,95.794h4.748a.347.347,0,0,0,0-.694h-4.748a.347.347,0,1,0,0,.694Z" transform="translate(-113.626 -90.494)"/></g></g></svg>