<svg xmlns="http://www.w3.org/2000/svg" viewBox="0 0 523.3 737.3" class="text-middle empty-state-icon">
                <path fill="#FFC86B" d="M331.3 720.9h-29.5c.9-36.4.2-75.2-2.7-116.2-1.1-15-2.4-29.7-4-44 14.3-.3 28.7-.7 43-1-1.6 14.4-2.9 29.2-4 44.3-3.1 41.2-3.7 80.3-2.8 116.9z"></path>
                <path fill="#333" d="M332.8 722.4h-32.6v-1.5c1-38.6 0-77.7-2.7-116.1-1.1-14.6-2.4-29.4-4-43.9l-.2-1.6 46.3-1.1-.2 1.7c-1.6 14.7-2.9 29.6-4 44.3-2.8 38.7-3.7 77.9-2.7 116.7l.1 1.5zm-29.5-3h26.4c-.9-38.4 0-77.3 2.8-115.5 1-14.2 2.3-28.5 3.8-42.7l-39.7.9c1.5 14.1 2.8 28.3 3.8 42.4 2.8 38.1 3.8 76.7 2.9 114.9z"></path>
                <path fill="#9ED5E8" d="M279 545.9v23.2c0 2.4 1.7 4.5 4.1 4.9 11.5 2.2 45.2 7 67.5-6 1.5-.9 2.5-2.5 2.5-4.3v-26.8l-74.1 9z"></path>
                <path fill="#333" d="M310.9 578.3c-8.1 0-17.4-.8-28.1-2.8-3.1-.6-5.3-3.3-5.3-6.4v-24.5l77-9.5v28.5c0 2.3-1.2 4.5-3.2 5.6-5.4 3.3-18.5 9.1-40.4 9.1zm-30.4-31v21.9c0 1.7 1.2 3.1 2.8 3.4 10 1.9 44.3 7.1 66.5-5.9 1.1-.6 1.7-1.8 1.7-3v-25.1l-71 8.7z"></path>
                <path fill="#FF6261" d="M517.9 528c-92.1 10.8-184.3 22.1-276.4 32.8-1.3-3.8-19.7-59.6-39.4-119.2-1.3-3.9-20.1-60.7-40.1-121.4 87.8.7 175.7 1.3 263.5 2 50.2 0 90.8 40.1 90.8 90.3.6 38.6 1.1 76.8 1.6 115.5z"></path>
                <path fill="#333" d="M240.5 562.4l-.4-1.2c-1.3-3.8-19.7-59.6-39.4-119.2l-.6-1.9c-3.7-11.1-21-63.6-39.5-119.5l-.7-2 265.6 2c24.7 0 47.9 9.5 65.3 26.8s27 40.4 27 65l1.5 116.8-1.3.2c-46.1 5.4-93 11-138.3 16.4-45.3 5.4-92 11-138.1 16.4l-1.1.2zm-76.4-240.7c18.2 55.1 35.2 106.6 38.8 117.5l.6 1.9c18.6 56.2 36 109 39 118.1 45.6-5.3 92-10.9 136.8-16.3 44.9-5.4 91.3-10.9 137-16.3l-1.5-114.1c0-23.8-9.3-46.2-26.2-62.9-16.8-16.7-39.3-25.9-63.2-25.9l-261.3-2z"></path>
                <path fill="#414344" d="M240.7 560.7c-33.7-5.6-67.7-11.2-102-16.5-17.4-2.7-34.8-5.4-52-8l-2.1-124.7c0-50.2 35.2-90.8 78.6-90.8h.3c43.3 0 78.1 40.9 78.1 91.1-.4 49.7-.6 99.2-.9 148.9z"></path>
                <path fill="#333" d="M242.2 562.5l-1.7-.3c-33.8-5.7-68.1-11.2-102-16.5-17.1-2.7-34.6-5.4-52-8l-1.3-.2-2.1-126.2c0-51.1 35.9-92.6 80.1-92.6h.3c43.9 0 79.6 41.6 79.6 92.8l-.9 151zM88.1 534.9c17 2.6 34.1 5.2 50.8 7.8 33.3 5.2 67 10.7 100.3 16.2l.8-147.5c0-49.5-34.3-89.8-76.6-89.8h-.3c-42.5 0-77.1 40.2-77.1 89.6l2.1 123.7z"></path>
                <path fill="#4F5151" d="M237 554.2c-41-6.3-83.2-12.6-124.8-18.9 23-32.2 26.8-45.8 22.7-50.4-3.7-4.1-13.4-.4-15.3-4.4-2.5-5.2 13.6-11.9 15.3-24.1 2.4-17.8-28.2-29.9-24.3-42 2.2-6.7 13.9-9.6 21.7-9.4 18 .5 26 17.3 32.5 15.4 6.7-2 9.5-22.7-.9-93.7h7.9c7.5 2 28.4 7.7 45.1 27.3 21.3 24.9 20.1 53.6 20.1 60v140.2z"></path>
                <path fill="#414344" d="M85.6 535.9c-26 6.5-52 12.9-77.9 19.4V402.4c0-45.1 17.1-81.7 38.3-81.7s38.3 36.6 38.3 81.7c.3 44.5.8 89 1.3 133.5z"></path>
                <path fill="#333" d="M6.1 557.2V402.4c0-22 4-42.8 11.3-58.4 7.5-16 17.6-24.8 28.4-24.8S66.7 328 74.2 344c7.3 15.6 11.3 36.4 11.3 58.4L87.1 537l-81 20.2zm39.8-235c-20.3 0-36.8 36-36.8 80.2v151L84 534.8l-1.4-132.3c.1-44.4-16.4-80.3-36.7-80.3z"></path>
                <path fill="#4F5151" d="M75.2 535.8c-21.2 5-42.4 10-63.6 15.1V403.4c0-26 13.5-77.1 30.7-78.8 12.7-1.2 29.7 24.9 28 46.4-1.4 16.8-13.2 19.2-13.8 35.5-.8 22.6 21.5 34 17.5 47.7-3.2 11.1-18.8 8.5-24.9 18.8-5.4 9-3 26.6 26.1 62.8z"></path>
                <path fill="#FFC86B" d="M226.1 387.9h-.3c-.8-.1-1.7-.2-2.5-.3-1.4-.2-2.3-1.5-2.1-2.8.2-1.4 1.5-2.3 2.8-2.1l2.4.3c1.4.2 2.3 1.4 2.2 2.8-.2 1.2-1.3 2.1-2.5 2.1zm-12.4-2.1c-.2 0-.4 0-.5-.1-1.7-.4-3.3-.8-5-1.2-1.3-.3-2.1-1.7-1.8-3 .3-1.3 1.7-2.1 3-1.8 1.6.4 3.2.8 4.8 1.1 1.3.3 2.2 1.6 1.9 3-.2 1.2-1.3 2-2.4 2zm-14.5-4c-.3 0-.5 0-.8-.1-1.6-.6-3.2-1.1-4.8-1.7-1.3-.5-1.9-1.9-1.4-3.2.5-1.3 1.9-1.9 3.2-1.4 1.5.6 3.1 1.1 4.6 1.7 1.3.4 2 1.9 1.6 3.2-.4.9-1.4 1.5-2.4 1.5zm-14-5.7c-.4 0-.7-.1-1.1-.2-1.5-.7-3.1-1.5-4.6-2.3-1.2-.7-1.7-2.2-1-3.4.7-1.2 2.2-1.7 3.4-1 1.4.8 2.9 1.5 4.4 2.2 1.2.6 1.8 2.1 1.2 3.3-.4.9-1.3 1.4-2.3 1.4zm-13.1-7.4c-.5 0-.9-.1-1.4-.4-1.4-.9-2.9-1.9-4.2-2.9-1.1-.8-1.4-2.4-.6-3.5.8-1.1 2.4-1.4 3.5-.6 1.3 1 2.7 1.9 4.1 2.8 1.2.8 1.5 2.3.7 3.5-.5.7-1.3 1.1-2.1 1.1zm-12-9.1c-.6 0-1.2-.2-1.6-.6-1.3-1.1-2.6-2.3-3.8-3.5-1-1-1-2.5-.1-3.5 1-1 2.5-1 3.5-.1l3.6 3.3c1 .9 1.1 2.5.2 3.5-.4.7-1.1.9-1.8.9zm-10.5-10.7c-.7 0-1.4-.3-1.9-.9-1.1-1.3-2.2-2.7-3.2-4.1-.8-1.1-.6-2.7.5-3.5 1.1-.8 2.7-.6 3.5.5.9 1.3 2 2.6 3 3.8.9 1.1.7 2.6-.3 3.5-.5.5-1 .7-1.6.7zm-8.5-12.4c-.9 0-1.7-.5-2.2-1.3-.8-1.5-1.6-3.1-2.4-4.6-.6-1.3 0-2.7 1.2-3.3 1.3-.6 2.7 0 3.3 1.2.7 1.4 1.4 2.9 2.2 4.3.7 1.2.2 2.7-1 3.4-.3.2-.7.3-1.1.3zm-5.9-13.9c-1.1 0-2.1-.7-2.4-1.8-.5-1.7-.9-3.4-1.3-5.1-.3-1.4.6-2.7 1.9-3 1.4-.3 2.7.6 3 1.9.3 1.6.7 3.1 1.2 4.7.4 1.3-.4 2.7-1.7 3.1-.2.2-.4.2-.7.2zm-2.3-14.9c-1.4 0-2.5-1-2.5-2.4v-1.5c0-1.2 0-2.4.1-3.7.1-1.4 1.3-2.4 2.6-2.3 1.4.1 2.4 1.3 2.3 2.7-.1 1.1-.1 2.3-.1 3.4v1.4c.1 1.2-1 2.4-2.4 2.4zm1.5-14.8c-.2 0-.4 0-.6-.1-1.3-.3-2.2-1.7-1.9-3 .4-1.7.9-3.4 1.4-5 .4-1.3 1.8-2 3.1-1.6 1.3.4 2 1.8 1.6 3.1-.5 1.5-.9 3.1-1.3 4.7-.1 1.1-1.1 1.9-2.3 1.9zm5.1-14.2c-.4 0-.7-.1-1.1-.2-1.2-.6-1.8-2.1-1.2-3.3.7-1.5 1.5-3.1 2.4-4.6.7-1.2 2.2-1.6 3.4-1 1.2.7 1.6 2.2 1 3.4-.8 1.4-1.5 2.9-2.2 4.3-.5.9-1.4 1.4-2.3 1.4zm99.9 0c-1.7 0-3.3-.1-4.9-.3-1.4-.2-2.3-1.4-2.2-2.8.2-1.4 1.4-2.3 2.8-2.2 1.4.2 2.9.2 4.3.2h.4c1.4 0 2.5 1.1 2.5 2.5s-1.1 2.5-2.5 2.5l-.4.1zm10.3-1.2c-1.1 0-2.2-.8-2.4-1.9-.3-1.3.5-2.7 1.9-3 1.5-.4 3.1-.8 4.6-1.3 1.3-.5 2.7.2 3.2 1.5s-.2 2.7-1.5 3.2c-1.7.6-3.4 1.1-5.1 1.5-.3-.1-.5 0-.7 0zm-24.6-1.8c-.4 0-.7-.1-1.1-.2-1.6-.7-3.2-1.6-4.7-2.7-1.1-.8-1.5-2.3-.7-3.5.8-1.1 2.3-1.5 3.5-.7 1.3.9 2.7 1.6 4 2.3 1.3.6 1.8 2.1 1.2 3.3-.3 1-1.2 1.5-2.2 1.5zm38.5-4c-.8 0-1.6-.4-2.1-1.2-.7-1.2-.4-2.7.8-3.5 1.4-.9 2.6-1.8 3.7-2.8 1-.9 2.6-.8 3.5.3.9 1 .8 2.6-.3 3.5-1.3 1.1-2.8 2.2-4.3 3.2-.4.4-.9.5-1.3.5zm-50.3-5.1c-.7 0-1.4-.3-1.9-.8-1.1-1.3-2.2-2.7-3.3-4.1-.8-1.1-.6-2.7.6-3.5 1.1-.8 2.7-.6 3.5.6 1 1.3 2 2.6 3 3.7.9 1 .8 2.6-.2 3.5-.6.4-1.1.6-1.7.6zm-66.1-.8c-.5 0-1-.2-1.5-.5-1.1-.8-1.4-2.4-.6-3.5 1-1.4 2-2.8 3.1-4.1.9-1.1 2.4-1.3 3.5-.4s1.3 2.4.4 3.5l-3 3.9c-.4.7-1.2 1.1-1.9 1.1zm126.6-4.8c-.4 0-.7-.1-1.1-.3-1.2-.6-1.8-2.1-1.2-3.3.5-1.1.9-2.2 1.2-3.3.1-.3.1-.5.2-.8.2-1.4 1.5-2.3 2.9-2 1.4.2 2.3 1.5 2 2.9-.1.4-.1.7-.2 1.1-.3 1.5-.9 2.9-1.5 4.3-.5.8-1.4 1.4-2.3 1.4zm-117-6.8c-.6 0-1.3-.2-1.7-.7-1-1-1-2.5-.1-3.5l3.6-3.6c1-1 2.6-.9 3.5.1 1 1 .9 2.6-.1 3.5-1.2 1.1-2.4 2.3-3.5 3.5-.4.5-1 .7-1.7.7zm48.1-.1c-.9 0-1.8-.5-2.2-1.4-.8-1.5-1.5-3.1-2.2-4.7-.5-1.3 0-2.7 1.3-3.3 1.3-.5 2.7 0 3.3 1.3.7 1.5 1.4 3 2.1 4.4.6 1.2.1 2.7-1.1 3.4-.4.2-.8.3-1.2.3zm69.7-7.8c-1.1 0-2.1-.7-2.4-1.8-.4-1.4-1-2.9-1.7-4.3-.6-1.2-.1-2.7 1.2-3.3 1.2-.6 2.7-.1 3.3 1.2.8 1.7 1.5 3.4 2 5 .4 1.3-.4 2.7-1.7 3.1-.2.1-.4.1-.7.1zM168 244.1c-.7 0-1.5-.3-1.9-.9-.9-1.1-.7-2.6.4-3.5 1.3-1.1 2.7-2.1 4-3.1 1.1-.8 2.7-.6 3.5.5.8 1.1.6 2.7-.5 3.5l-3.9 3c-.5.3-1.1.5-1.6.5zm31.3-4c-1.1 0-2-.7-2.4-1.7-.5-1.6-1-3.3-1.4-4.9-.4-1.3.4-2.7 1.8-3.1 1.3-.4 2.7.4 3.1 1.8.4 1.6.9 3.2 1.4 4.7.4 1.3-.3 2.7-1.6 3.1-.4.1-.6.1-.9.1zm-19.1-4.8c-.8 0-1.6-.4-2.1-1.2-.7-1.2-.4-2.7.8-3.4 1.4-.9 2.9-1.8 4.4-2.7 1.2-.7 2.7-.3 3.4.9.7 1.2.3 2.7-.9 3.4-1.4.8-2.8 1.7-4.2 2.6-.5.3-.9.4-1.4.4zm87.1-2.1c-.7 0-1.4-.3-1.9-.9-1-1.2-2.1-2.4-3.2-3.5-1-1-1-2.5-.1-3.5 1-1 2.5-1 3.5-.1 1.3 1.2 2.5 2.5 3.6 3.9.9 1.1.7 2.6-.3 3.5-.5.4-1 .6-1.6.6zm-73.9-5.2c-.9 0-1.8-.5-2.3-1.4-.6-1.2-.1-2.7 1.2-3.3.3-.1.5-.3.8-.4-.3-1.5-.5-3-.7-4.5-.2-1.4.7-2.6 2.1-2.8 1.4-.2 2.6.7 2.8 2.1.2 1.1.3 2.1.5 3.2 1-.1 2 .5 2.4 1.5.5 1.3 0 2.7-1.3 3.3-1.5.6-3 1.3-4.5 2.1-.3.1-.7.2-1 .2zm62.6-4.6c-.4 0-.9-.1-1.3-.4-1.4-.8-2.8-1.6-4.2-2.2-1.3-.6-1.8-2-1.3-3.3.6-1.3 2-1.8 3.3-1.3 1.6.7 3.2 1.6 4.7 2.5 1.2.7 1.5 2.3.8 3.4-.4.9-1.2 1.3-2 1.3zm-48.7-1.1c-1 0-2-.7-2.4-1.7-.4-1.3.3-2.7 1.6-3.2 1.6-.5 3.3-1.1 4.9-1.5 1.3-.4 2.7.4 3.1 1.7.4 1.3-.4 2.7-1.7 3.1-1.5.4-3.1.9-4.7 1.4-.2.2-.5.2-.8.2zm14.6-3.7c-1.2 0-2.3-.9-2.5-2.1-.2-1.4.7-2.7 2.1-2.9 1.7-.3 3.5-.5 5.1-.7 1.4-.1 2.6.9 2.7 2.2.1 1.4-.9 2.6-2.2 2.7-1.6.2-3.2.4-4.8.7-.1.1-.2.1-.4.1zm20-.4h-.4c-1.5-.2-3.1-.4-4.7-.5-1.4-.1-2.4-1.3-2.3-2.6.1-1.4 1.3-2.4 2.6-2.3 1.8.1 3.6.3 5.2.6 1.4.2 2.3 1.5 2.1 2.9-.2 1-1.3 1.9-2.5 1.9zm-48.1-7.7c-1.3 0-2.4-1-2.5-2.4 0-.5 0-.9-.1-1.4 0-1-.1-2-.1-3.1v-.6c0-1.4 1.1-2.4 2.5-2.4s2.5 1.1 2.5 2.5v.6c0 1 0 1.9.1 2.9 0 .4 0 .9.1 1.3.1 1.4-1 2.6-2.4 2.6 0 .1-.1 0-.1 0zm.6-15h-.3c-1.4-.2-2.3-1.4-2.2-2.8.2-1.7.5-3.4.8-5.1.3-1.4 1.6-2.2 2.9-2 1.4.3 2.2 1.6 2 2.9-.3 1.6-.6 3.2-.8 4.8-.1 1.3-1.2 2.2-2.4 2.2zm3.3-14.6c-.2 0-.5 0-.7-.1-1.3-.4-2.1-1.8-1.6-3.1.5-1.6 1.1-3.3 1.7-4.9.5-1.3 1.9-2 3.2-1.5 1.3.5 2 1.9 1.5 3.2-.6 1.5-1.1 3.1-1.6 4.6-.5 1.1-1.5 1.8-2.5 1.8zm5.5-14c-.4 0-.7-.1-1.1-.2-1.2-.6-1.8-2.1-1.2-3.3.7-1.5 1.5-3.1 2.3-4.6.7-1.2 2.2-1.7 3.4-1 1.2.7 1.7 2.2 1 3.4-.8 1.5-1.5 2.9-2.2 4.4-.4.8-1.3 1.3-2.2 1.3zm7.4-13.1c-.5 0-.9-.1-1.3-.4-1.2-.7-1.5-2.3-.8-3.5.9-1.4 1.9-2.8 2.8-4.2.8-1.1 2.3-1.4 3.5-.6 1.1.8 1.4 2.3.6 3.5-.9 1.4-1.9 2.7-2.7 4.1-.5.7-1.3 1.1-2.1 1.1zm8.8-12.3c-.5 0-1.1-.2-1.6-.5-1.1-.9-1.3-2.4-.4-3.5 1-1.3 2.1-2.6 3.2-3.9.9-1.1 2.5-1.2 3.5-.3 1.1.9 1.2 2.5.3 3.5-1.1 1.3-2.1 2.6-3.1 3.8-.5.6-1.2.9-1.9.9zm9.8-11.4c-.6 0-1.2-.2-1.7-.7-1-.9-1.1-2.5-.1-3.5 1.2-1.2 2.3-2.5 3.5-3.7 1-1 2.5-1 3.5 0s1 2.5 0 3.5c-1.2 1.2-2.3 2.4-3.4 3.6-.5.6-1.1.8-1.8.8zm10.7-10.6c-.7 0-1.3-.3-1.8-.8-.9-1-.9-2.6.1-3.5 1.2-1.2 2.5-2.3 3.7-3.4 1-.9 2.6-.8 3.5.2.9 1 .8 2.6-.2 3.5-1.2 1.1-2.5 2.2-3.7 3.4-.4.4-1 .6-1.6.6zm11.3-10c-.7 0-1.4-.3-1.9-.9-.9-1.1-.7-2.6.3-3.5 1.3-1.1 2.6-2.2 3.9-3.2 1.1-.9 2.6-.7 3.5.4.9 1.1.7 2.7-.4 3.5-1.3 1-2.6 2.1-3.9 3.2-.4.3-.9.5-1.5.5zm11.8-9.3c-.8 0-1.5-.3-2-1-.8-1.1-.6-2.7.5-3.5 1.4-1 2.7-2 4.1-3 1.1-.8 2.7-.6 3.5.6s.6 2.7-.5 3.5c-1.3 1-2.7 2-4 3-.5.2-1 .4-1.6.4zm12.3-8.8c-.8 0-1.6-.4-2.1-1.1-.8-1.1-.5-2.7.6-3.5 1.4-1 2.8-1.9 4.2-2.8 1.1-.8 2.7-.5 3.5.7.8 1.1.5 2.7-.7 3.5-1.4.9-2.8 1.8-4.1 2.8-.4.2-.9.4-1.4.4zm12.6-8.3c-.8 0-1.6-.4-2.1-1.2-.7-1.2-.4-2.7.8-3.4 1.5-.9 2.9-1.8 4.3-2.7 1.2-.7 2.7-.4 3.4.8.7 1.2.3 2.7-.8 3.4-1.4.9-2.8 1.7-4.2 2.6-.5.4-.9.5-1.4.5zm12.9-7.8c-.9 0-1.7-.4-2.2-1.2-.7-1.2-.3-2.7.9-3.4 1.5-.9 3-1.7 4.4-2.5 1.2-.7 2.7-.2 3.4 1s.2 2.7-1 3.4c-1.4.8-2.9 1.6-4.3 2.5-.3.1-.7.2-1.2.2zM314 68c-.9 0-1.8-.5-2.2-1.3-.6-1.2-.2-2.7 1-3.4 1.6-.8 3.1-1.6 4.5-2.3 1.2-.6 2.7-.1 3.4 1.1.6 1.2.1 2.7-1.1 3.4-1.4.7-2.9 1.5-4.4 2.3-.4.1-.8.2-1.2.2zm13.5-6.8c-.9 0-1.8-.5-2.3-1.4-.6-1.2-.1-2.7 1.2-3.3 1-.5 1.8-.8 2.3-1.1 1.3-.6 2.7 0 3.3 1.2.6 1.3 0 2.7-1.2 3.3-.5.2-1.2.6-2.2 1-.4.2-.8.3-1.1.3z"></path>
                <path fill="#FFC86B" d="M352.4 44.7c-3.2-7.1 4.8-12.9.8-22.7-.4-1.1-2.7-6.7-8.5-8.8-4.6-1.7-10.1-.8-13.7 2-8.3 6.4-3.1 19.3-10.1 23.2-5.2 2.9-10.7-2.6-14.7.7-3.5 2.9-3.4 10.5 0 14.8 4.6 5.7 14 4.3 19.2 3.6 12.9-1.9 22-9.1 22.1-8.9.1.1-9.8 5.7-19.6 13.7-10.4 8.4-10.9 11.6-10.9 13.2-.1 7.1 8.8 14.2 13.7 12.7 4.2-1.3 2.7-8 8.5-11.2 5.3-2.9 12.2-.4 13.1-.1 5 1.8 5.1 4.3 9.1 5.1 4.6.9 9.7-1.3 12.8-4.8 4.4-5.1 4.5-13.2 1.5-18.4-5.6-9.9-19.4-5.5-23.3-14.1z"></path>
                <path fill="#333" d="M329.3 89.9c-2.2 0-4.7-1-7.2-2.8-3.3-2.4-6.7-6.8-6.6-11.7 0-2.5 1.4-6.2 11.5-14.5 1.4-1.2 2.8-2.3 4.2-3.3-1.7.5-3.6.9-5.5 1.1-5.4.8-15.5 2.3-20.6-4.1-4-4.9-3.8-13.5.2-16.9 2.6-2.2 5.6-1.4 8.3-.8 2.4.6 4.6 1.1 6.6 0 2.8-1.5 3.2-5 3.8-9.1.7-4.8 1.4-10.3 6.1-13.9 4.2-3.2 10.1-4.1 15.2-2.3 4.1 1.5 7.4 4.9 9.3 9.7 2.4 5.7 1 10.2-.3 14.1-1 3.2-1.8 5.8-.5 8.6 1.6 3.5 5.3 4.5 9.6 5.6 4.8 1.3 10.3 2.7 13.5 8.3 3.1 5.3 3.5 14.2-1.6 20.2-3.5 4.1-9.4 6.2-14.2 5.3-2.4-.5-3.7-1.5-4.9-2.5-1.1-.9-2.2-1.8-4.4-2.6-1.7-.6-7.5-2.4-11.9 0-2.6 1.4-3.5 3.7-4.4 5.9-.9 2.3-1.8 4.6-4.5 5.4-.5.2-1.1.3-1.7.3zm18.2-43h.4c.4.1.7.4 1 .7.8 1.3-.2 1.9-1.9 2.9-2.9 1.8-10.6 6.6-18.1 12.7-10.3 8.5-10.4 11.2-10.4 12.2 0 3.1 2.1 6.7 5.4 9.2 2.3 1.8 4.8 2.5 6.3 2.1 1.2-.4 1.7-1.6 2.6-3.6 1-2.5 2.2-5.5 5.7-7.4 5.3-2.9 11.8-1.1 14.4-.2 2.7 1 4.1 2.2 5.3 3.1 1.1.9 1.9 1.6 3.6 1.9 3.8.7 8.5-1 11.4-4.3 4.1-4.7 3.9-12.2 1.3-16.7-2.6-4.5-7-5.7-11.7-6.9-4.6-1.2-9.4-2.5-11.6-7.3-1.8-3.8-.7-7.3.4-10.7 1.1-3.6 2.3-7.3.4-12.1-1.6-4-4.3-6.8-7.6-8-4-1.5-9-.8-12.3 1.8-3.8 2.9-4.4 7.5-5 12-.6 4.5-1.2 9.1-5.3 11.3-3.1 1.7-6.1 1-8.8.3-2.6-.6-4.3-1-5.6.2-2.8 2.3-2.7 9.1.2 12.7 4 5 13 3.7 17.9 3 10.4-1.5 18.1-6.6 20.7-8.2.5-.4.8-.7 1.3-.7z"></path>
                <path fill="#333" d="M352.4 46.2c-.5 0-1-.3-1.3-.8-.4-.7-.2-1.6.6-2 .1-.1 11.4-6.7 11-16.8-.1-2.4-.9-4.9-2.3-7.1-.4-.7-.2-1.6.5-2.1.7-.4 1.6-.2 2.1.5 1.7 2.7 2.6 5.6 2.8 8.6.6 12-11.9 19.3-12.5 19.6-.4 0-.6.1-.9.1z"></path>
                <path fill="#333" d="M381.6 51.8c-.4 0-.7-.1-1-.4-1.8-1.6-3.8-2.8-5.9-3.7-9.1-3.9-18.4-.4-21.9 1.3-.7.4-1.6 0-2-.7-.4-.7 0-1.6.7-2 3.9-1.9 14.2-5.8 24.4-1.3 2.4 1 4.6 2.5 6.7 4.2.6.5.7 1.5.1 2.1-.3.3-.7.5-1.1.5z"></path>
                <path fill="#FF6261" d="M314.1 48.8c4-.4 9.2-1.6 13.9-5 10.8-8 11.2-22.8 14.4-22.6 1.4.1 3 3 4.5 14"></path>
                <path fill="#333" d="M314.1 50.3c-.8 0-1.4-.6-1.5-1.4-.1-.8.5-1.6 1.3-1.6 5.2-.5 9.6-2.1 13.1-4.7 6.2-4.6 8.8-11.8 10.6-16.6 1.5-3.9 2.4-6.5 4.8-6.4 2.3.1 4.2 2.8 5.9 15.3.1.8-.5 1.6-1.3 1.7-.8.1-1.6-.5-1.7-1.3-1.3-9.4-2.6-11.9-3.1-12.6-.5.7-1.2 2.7-1.8 4.3-1.9 5.1-4.7 12.8-11.6 17.9-4 3-8.9 4.8-14.6 5.3 0 .1-.1.1-.1.1z"></path>
                <path fill="#FF6261" d="M358.5 55.7c8 7.8 9.3 10.8 8.6 12-1.8 2.7-14.2-6.1-26.8-1.9-5.2 1.7-8.8 5.1-11.3 8"></path>
                <path fill="#333" d="M329 75.3c-.3 0-.7-.1-1-.4-.6-.5-.7-1.5-.2-2.1 3.5-4.1 7.5-7 12-8.5 8.2-2.7 16.1-.3 21.4 1.2 1.6.5 3.6 1.1 4.5 1.1-.2-.8-1.5-3.3-8.3-9.9-.6-.6-.6-1.5 0-2.1.6-.6 1.5-.6 2.1 0 9.1 8.8 10.1 11.9 8.8 13.9-1.3 2-3.9 1.2-7.9 0-4.9-1.5-12.4-3.7-19.6-1.3-3.9 1.3-7.5 3.8-10.6 7.5-.3.4-.7.6-1.2.6z"></path>
                <path fill="#666868" d="M89 427.3h-9.5c-2.8 0-5-2.2-5-5v-4.6c0-2.8 2.2-5 5-5H89c2.8 0 5 2.2 5 5v4.6c0 2.8-2.3 5-5 5zm1.3 74.3h-9.5c-2.8 0-5-2.2-5-5V492c0-2.8 2.2-5 5-5h9.5c2.8 0 5 2.2 5 5v4.6c0 2.8-2.2 5-5 5z"></path>
                <path fill="#FFF" d="M241.5 730.9c6-13.5 15.2-29.6 28.1-33.5 16.8-5.1 23.1 15.7 45.7 18.3 23.3 2.7 24.9-18.2 46.6-13.7 18.4 3.8 22.2 20 44 25.9 13.3 3.6 24.5 1 31.7-1.5"></path>
                <path fill="#333" d="M242.9 731.5l-2.7-1.2c8.6-19.6 18.4-31.1 29.1-34.4 9.6-2.9 16.1 2 23 7.2 6.1 4.6 13 9.8 23.3 11 11 1.3 16.7-2.8 22.7-7.2 6.1-4.4 12.5-9 24.1-6.5 9.4 2 15.1 7 21.1 12.3 6 5.3 12.2 10.8 22.9 13.7 10 2.7 20.4 2.2 30.8-1.5l1 2.8c-11 3.9-22 4.4-32.6 1.6-11.4-3.1-18.1-9-24.1-14.3-5.7-5-11.1-9.8-19.8-11.6-10.3-2.2-15.6 1.6-21.7 6-5.9 4.3-12.7 9.1-24.8 7.7-11.2-1.3-18.4-6.8-24.8-11.6-6.8-5.2-12.2-9.2-20.4-6.8-9.7 3.1-18.9 14.1-27.1 32.8z"></path>
                <path fill="#F9EED4" d="M320.5 684.2c-1.4 0-2.5-1.1-2.5-2.5v-72c0-1.4 1.1-2.5 2.5-2.5s2.5 1.1 2.5 2.5v72c0 1.3-1.1 2.5-2.5 2.5zm0-84c-1.4 0-2.5-1.1-2.5-2.5v-3c0-1.4 1.1-2.5 2.5-2.5s2.5 1.1 2.5 2.5v3c0 1.3-1.1 2.5-2.5 2.5z"></path>
                <path fill="#CBEDF7" d="M310.6 570.1c-5 0-10-.4-15-1.3-1.4-.2-2.3-1.5-2-2.9.2-1.4 1.5-2.3 2.9-2 7.8 1.4 15.8 1.6 23.7.7 8-.9 15.8-3 23.2-6.3 1.3-.5 2.7 0 3.3 1.3.5 1.3 0 2.7-1.3 3.3-7.9 3.4-16.2 5.6-24.7 6.6-3.3.4-6.7.6-10.1.6z"></path>
                <path fill="#F99B9B" d="M488.7 404.7c-2 0-3.7-1.5-4-3.6-1.2-10.4-4.5-20-9.8-28.6-3.4-5.4-7.6-10.4-12.4-14.7l-3.9-3.3c-1.7-1.4-1.9-4-.5-5.6 1.4-1.7 4-1.9 5.6-.5l4 3.4c5.5 4.9 10.2 10.4 14 16.5 6 9.6 9.7 20.3 11 31.9.2 2.2-1.3 4.2-3.5 4.4-.2.1-.3.1-.5.1zm.4 55.6c-2.2 0-4-1.8-4-4V420c0-2.2 1.8-4 4-4s4 1.8 4 4v36.3c0 2.2-1.8 4-4 4z"></path>
                </svg>