<svg xmlns="http://www.w3.org/2000/svg" viewBox="0 0 85.032 85.033">
  <defs>
    <style>
      .cls-1 {
        fill: #e5e5e5;
      }

      .cls-2 {
        fill: #666;
      }
    </style>
  </defs>
  <g id="Group_3168" data-name="Group 3168" transform="translate(-8893.808 -4408.422)">
    <circle id="Ellipse_69" data-name="Ellipse 69" class="cls-1" cx="42.516" cy="42.516" r="42.516" transform="translate(8893.808 4408.422)"/>
    <g id="Group_3166" data-name="Group 3166" transform="translate(8906.563 4428.83)">
      <path id="Path_9435" data-name="Path 9435" class="cls-2" d="M89.254,22.933H81.6a1.607,1.607,0,0,1-1.7-1.7V16.3a1.607,1.607,0,0,1,1.7-1.7h7.653a1.607,1.607,0,0,1,1.7,1.7v4.932A1.829,1.829,0,0,1,89.254,22.933Z" transform="translate(-55.581 -14.6)"/>
      <g id="Group_3159" data-name="Group 3159" transform="translate(7.993 17.857)">
        <g id="Group_3156" data-name="Group 3156">
          <path id="Path_9436" data-name="Path 9436" class="cls-2" d="M80.844,34.113H71.661A1.463,1.463,0,0,1,70.3,32.753V26.461A1.252,1.252,0,0,1,71.661,25.1h9.184A1.463,1.463,0,0,1,82.2,26.461v6.292C82.035,33.433,81.524,34.113,80.844,34.113ZM71.661,25.78c-.34,0-.51.34-.51.68v6.292a.759.759,0,0,0,.51.68h9.184c.34,0,.51-.34.51-.68V26.461a.759.759,0,0,0-.51-.68Z" transform="translate(-70.3 -25.1)"/>
        </g>
        <g id="Group_3157" data-name="Group 3157" transform="translate(15.816)">
          <path id="Path_9437" data-name="Path 9437" class="cls-2" d="M90.144,34.113H80.961A1.463,1.463,0,0,1,79.6,32.753V26.461A1.252,1.252,0,0,1,80.961,25.1h9.184A1.463,1.463,0,0,1,91.5,26.461v6.292A1.341,1.341,0,0,1,90.144,34.113ZM80.961,25.78c-.34,0-.51.34-.51.68v6.292a.759.759,0,0,0,.51.68h9.184c.34,0,.51-.34.51-.68V26.461a.759.759,0,0,0-.51-.68Z" transform="translate(-79.6 -25.1)"/>
        </g>
        <g id="Group_3158" data-name="Group 3158" transform="translate(31.802)">
          <path id="Path_9438" data-name="Path 9438" class="cls-2" d="M99.544,34.113H90.361A1.463,1.463,0,0,1,89,32.753V26.461A1.252,1.252,0,0,1,90.361,25.1h9.184a1.463,1.463,0,0,1,1.361,1.361v6.292A1.463,1.463,0,0,1,99.544,34.113ZM90.361,25.78c-.34,0-.51.34-.51.68v6.292a.759.759,0,0,0,.51.68h9.184c.34,0,.51-.34.51-.68V26.461a.759.759,0,0,0-.51-.68Z" transform="translate(-89 -25.1)"/>
        </g>
      </g>
      <g id="Group_3164" data-name="Group 3164" transform="translate(0 35.204)">
        <g id="Group_3160" data-name="Group 3160" transform="translate(15.986)">
          <path id="Path_9439" data-name="Path 9439" class="cls-2" d="M85.544,44.313H76.361A1.463,1.463,0,0,1,75,42.953V36.661A1.252,1.252,0,0,1,76.361,35.3h9.184A1.463,1.463,0,0,1,86.9,36.661v6.292C86.735,43.633,86.224,44.313,85.544,44.313ZM76.361,35.98c-.34,0-.51.34-.51.68v6.292a.759.759,0,0,0,.51.68h9.184c.34,0,.51-.34.51-.68V36.661a.759.759,0,0,0-.51-.68Z" transform="translate(-75 -35.3)"/>
        </g>
        <g id="Group_3161" data-name="Group 3161">
          <path id="Path_9440" data-name="Path 9440" class="cls-2" d="M76.144,44.313H66.961A1.463,1.463,0,0,1,65.6,42.953V36.661A1.252,1.252,0,0,1,66.961,35.3h9.184A1.463,1.463,0,0,1,77.5,36.661v6.292A1.463,1.463,0,0,1,76.144,44.313ZM66.961,35.98c-.34,0-.51.34-.51.68v6.292a.759.759,0,0,0,.51.68h9.184c.34,0,.51-.34.51-.68V36.661a.759.759,0,0,0-.51-.68Z" transform="translate(-65.6 -35.3)"/>
        </g>
        <g id="Group_3162" data-name="Group 3162" transform="translate(31.802)">
          <path id="Path_9441" data-name="Path 9441" class="cls-2" d="M94.844,44.313H85.661A1.463,1.463,0,0,1,84.3,42.953V36.661A1.252,1.252,0,0,1,85.661,35.3h9.184A1.463,1.463,0,0,1,96.2,36.661v6.292A1.463,1.463,0,0,1,94.844,44.313ZM85.661,35.98c-.34,0-.51.34-.51.68v6.292a.759.759,0,0,0,.51.68h9.184c.34,0,.51-.34.51-.68V36.661a.759.759,0,0,0-.51-.68Z" transform="translate(-84.3 -35.3)"/>
        </g>
        <g id="Group_3163" data-name="Group 3163" transform="translate(47.788)">
          <path id="Path_9442" data-name="Path 9442" class="cls-2" d="M104.244,44.313H95.061A1.463,1.463,0,0,1,93.7,42.953V36.661A1.252,1.252,0,0,1,95.061,35.3h9.184a1.463,1.463,0,0,1,1.361,1.361v6.292C105.435,43.633,104.924,44.313,104.244,44.313ZM95.061,35.98c-.34,0-.51.34-.51.68v6.292a.759.759,0,0,0,.51.68h9.184c.34,0,.51-.34.51-.68V36.661a.759.759,0,0,0-.51-.68Z" transform="translate(-93.7 -35.3)"/>
        </g>
      </g>
      <g id="Group_3165" data-name="Group 3165" transform="translate(4.762 8.333)">
        <path id="Path_9443" data-name="Path 9443" class="cls-2" d="M105.4,25.112v4.082h.68V24.262h-16.5V19.5h-.68v4.762H73.6v4.932h.68V25.112H88.906v4.082h.68V25.112Z" transform="translate(-64.757 -19.5)"/>
        <path id="Path_9444" data-name="Path 9444" class="cls-2" d="M77.073,30.17,76.9,30l-8.5,9.013.51.51,8.163-8.843L84.9,39.524l.51-.51L77.243,30Z" transform="translate(-68.4 -12.143)"/>
        <path id="Path_9445" data-name="Path 9445" class="cls-2" d="M104.817,39.013,96.484,30l-.51.51-.51-.51L87.3,39.184l.51.51,8.163-9.184,8.333,9.013Z" transform="translate(-55.158 -12.143)"/>
      </g>
    </g>
  </g>
</svg>
