<?xml version="1.0" encoding="utf-8"?>
<!-- Generator: Adobe Illustrator 19.0.0, SVG Export Plug-In . SVG Version: 6.00 Build 0)  -->
<svg version="1.1" id="Layer_1" xmlns="http://www.w3.org/2000/svg" xmlns:xlink="http://www.w3.org/1999/xlink" x="0px" y="0px"
	 viewBox="-176 390.5 243 61.4" style="enable-background:new -176 390.5 243 61.4;" xml:space="preserve">
<style type="text/css">
	.st0{enable-background:new    ;}
</style>
<g>
	<path id="XMLID_17_" d="M-163.9,396.4c2.5-0.8,5-1.3,7.6-1.7c1.2-0.2,4-1.4,5.1-0.3c1,1,0.2,2.8-0.1,3.8c-0.6,2.8-1.2,5.7-1.9,8.5
		c-0.1,0.3-0.5,0.4-0.8,0.3c-0.2-0.1-0.4-0.4-0.3-0.6c0.3-1.9,0.7-3.8,1-5.7c0.1-0.4,0.6-2.9,0.8-4.1c-7,9-14.2,20.6-11.9,32.8
		c2.5,13,20.3,20.2,31.2,14.1c0.5-0.3,1.1,0.6,0.6,0.9c-10.5,6.8-26.7,1-32.3-10.2c-3-6.1-1.9-13.2-0.2-19.4
		c1.9-6.6,5.1-13.9,10.4-18.6c-1.1,0.3-2.3,0.7-2.7,0.8c-1.9,0.5-3.9,0.9-5.9,1.1C-164.3,398.2-164.9,396.7-163.9,396.4z"/>
	<g class="st0">
		<path d="M-110.8,435.5c-0.1,0-0.2,0-0.3,0c-1-0.3-1.9-0.4-2.9-0.4c-0.5,0-1,0-1.6,0.1s-1.2,0.2-1.8,0.4c0.1,0.4,0.1,0.7,0.1,0.9
			c0,0.8,0,1.9-0.1,3.4l3.8-0.4c1.1-0.1,1.8-0.2,2.1-0.2s0.5,0.1,0.7,0.2s0.3,0.4,0.3,0.7c0,0.5-0.3,0.8-0.8,0.9l-2.1,0.2l-4.1,0.4
			c0,0.4,0,0.8-0.1,1.2c0,0.4,0,0.7,0,1c0,1.3,0.1,2.1,0.3,2.3c0.1,0.2,0.6,0.2,1.4,0.2c0.4,0,0.9,0,1.6,0s1.3,0,1.6,0
			c0.1,0,0.3,0,0.5-0.1s0.4-0.1,0.5-0.1c0.6,0,0.9,0.3,0.9,0.9c0,0.5-0.2,0.8-0.7,0.9c-0.6,0.1-1.7,0.2-3.6,0.2
			c-1.8,0-3-0.2-3.5-0.7c-0.6-0.5-0.8-1.7-0.8-3.6c0-0.4,0-0.8,0-1.2s0-0.9,0.1-1.4c-0.1-0.1-0.1-0.3-0.1-0.4c0-0.2,0.1-0.4,0.2-0.5
			c0.1-1.7,0.2-2.9,0.2-3.8c0-0.2,0-0.5-0.1-1s-0.1-0.7-0.1-1c0-0.7,0.3-1,0.9-1c0.2,0,0.5,0.1,0.6,0.3c0.7-0.2,1.4-0.3,2-0.4
			s1.2-0.1,1.8-0.1c1.4,0,2.6,0.2,3.4,0.5c0.4,0.2,0.6,0.4,0.6,0.8c0,0.2-0.1,0.4-0.2,0.6C-110.3,435.4-110.5,435.5-110.8,435.5z"/>
		<path d="M-101.4,447.9c-0.5,0-0.8-0.3-0.9-0.8l-0.2-1.9c-0.1-0.7-0.1-1.3-0.1-1.9c0-0.2,0-0.4,0-0.8s0-0.7,0-0.8
			c0-1.3-0.2-1.9-0.7-1.9c-0.7,0-1.3,0.4-1.9,1.2c-0.5,0.7-1,1.6-1.3,2.7c0,0.2,0,0.5-0.1,0.9c0,0.3-0.1,0.6-0.1,0.9
			c0,0.2,0,0.4,0.1,0.8s0.1,0.6,0.1,0.8c0,0.3-0.1,0.5-0.2,0.6s-0.4,0.2-0.6,0.2c-0.3,0-0.5-0.1-0.6-0.2s-0.2-0.4-0.2-0.6
			c0-0.2,0-0.4-0.1-0.8s-0.1-0.6-0.1-0.8c0-0.6,0-1.4,0.1-2.5s0.1-1.9,0.1-2.5c0-0.2,0-0.5,0-0.8s0-0.6,0-0.8c0-0.3,0.1-0.5,0.3-0.6
			s0.4-0.2,0.6-0.2c0.5,0,0.8,0.4,0.9,1.1l0,1c1-1.3,2-2,3-2c0.9,0,1.6,0.4,2,1.2c0.3,0.6,0.4,1.4,0.4,2.4v0.9l0,0.8
			c0,0.5,0.1,1.1,0.2,1.9c0.1,0.8,0.2,1.4,0.2,1.9c0,0.3-0.1,0.5-0.3,0.6C-100.9,447.9-101.1,447.9-101.4,447.9z"/>
		<path d="M-92.8,439.8c-0.1,0-0.3,0-0.4,0s-0.3,0-0.4,0c-0.1,0-0.5,0-1.2,0.1l0.2,5.2l0,0.4l0,0.4c0,1.3-0.3,1.9-0.9,1.9
			c-0.2,0-0.4-0.1-0.6-0.2s-0.3-0.3-0.3-0.6c0-0.2,0-0.6,0-1s0-0.8,0-1l-0.2-5.1c-0.4,0-1.1-0.1-2-0.1c-0.5-0.1-0.8-0.4-0.8-0.9
			c0-0.3,0.1-0.5,0.2-0.6s0.4-0.3,0.6-0.3l1.8,0.1c0-0.3,0-0.7,0-1.2c0-0.5,0-0.9,0-1.1c0-0.2,0.1-0.4,0.3-0.6
			c0.2-0.2,0.4-0.2,0.6-0.2c0.5,0,0.8,0.4,0.9,1.3c0,0.2,0,0.5,0,0.8l0,0.5l0,0.5c0.7-0.1,1.1-0.1,1.2-0.1c0.6,0,1,0,1.2,0.1
			c0.4,0.1,0.5,0.4,0.5,0.8c0,0.3-0.1,0.5-0.2,0.6C-92.4,439.7-92.6,439.8-92.8,439.8z"/>
		<path d="M-86.1,447.7c-1.3,0-2.4-0.3-3.2-1c-0.9-0.7-1.3-1.8-1.3-3.1c0-1.5,0.4-2.8,1.1-3.8c0.8-1.1,1.9-1.7,3.2-1.7
			c1,0,1.8,0.2,2.4,0.5c0.8,0.4,1.1,1,1.1,1.9c0,0.6-0.3,1.1-1,1.6c-0.3,0.2-0.9,0.5-1.9,1l-3.4,1.6c0.3,0.5,0.7,0.9,1.2,1.1
			s1.1,0.4,1.7,0.4c0.4,0,0.9-0.1,1.4-0.2c0.7-0.2,1.1-0.4,1.3-0.8c0.2-0.3,0.4-0.5,0.6-0.5c0.2,0,0.4,0.1,0.5,0.2s0.2,0.3,0.2,0.5
			c0,0.7-0.5,1.2-1.6,1.7C-84.4,447.5-85.3,447.7-86.1,447.7z M-86.3,439.7c-0.7,0-1.3,0.3-1.8,0.8c-0.5,0.6-0.8,1.4-1.1,2.5
			l2.7-1.3c1.1-0.5,1.8-1,2.3-1.3C-84.7,439.9-85.4,439.7-86.3,439.7z"/>
		<path d="M-73.5,440.8c0,0.7-0.3,1.1-0.9,1.1c-0.5,0-0.8-0.3-0.8-0.9c0-0.1,0-0.3,0-0.6l0-0.7c-0.9,0.1-1.7,0.4-2.2,0.8
			c-0.5,0.4-1,1-1.3,1.7l0,4.8c0,0.6-0.3,0.9-0.9,0.9c-0.5,0-0.8-0.3-0.8-0.9v-6.2c0-0.2,0-0.5,0-0.9s0-0.7,0-0.9
			c0-0.6,0.3-0.9,0.8-0.9c0.6,0,0.9,0.5,0.9,1.5c1.1-1.1,2.4-1.6,3.7-1.6c0.5,0,0.8,0.2,1.1,0.5s0.4,0.9,0.4,1.6
			C-73.5,440.5-73.5,440.7-73.5,440.8z"/>
		<path d="M-62.4,447.9c-1.2,0-2.2-0.4-3-1.1c-0.8-0.8-1.3-1.8-1.3-3c0-1.2,0.4-2.4,1.2-3.7c0.9-1.4,1.9-2.1,3-2.1
			c0.6,0,1.2,0.1,1.9,0.4c0.9,0.3,1.3,0.8,1.3,1.3c0,0.2-0.1,0.4-0.2,0.6c-0.1,0.2-0.3,0.3-0.5,0.3c-0.2,0-0.3-0.1-0.4-0.2
			c-0.1-0.1-0.2-0.2-0.4-0.3c-0.3-0.3-0.9-0.4-1.7-0.4c-0.6,0-1.2,0.5-1.8,1.6c-0.5,1-0.8,1.8-0.8,2.5c0,0.8,0.3,1.4,0.8,1.8
			c0.5,0.4,1.1,0.6,1.9,0.6c0.4,0,0.7-0.1,1.1-0.3l1-0.5c0.2-0.1,0.3-0.1,0.4-0.1c0.2,0,0.4,0.1,0.6,0.3c0.2,0.2,0.2,0.4,0.2,0.6
			c0,0.4-0.5,0.8-1.4,1.2C-61.2,447.7-61.8,447.9-62.4,447.9z"/>
		<path d="M-49.9,442.2c0,0.4,0,1.1,0,1.9s0,1.5,0,1.9c0,0.1,0,0.3,0,0.6s0,0.5,0,0.6c0,0.3-0.1,0.5-0.3,0.6s-0.4,0.2-0.6,0.2
			c-0.5,0-0.7-0.3-0.9-0.8c-0.7,0.4-1.6,0.6-2.5,0.6c-0.8,0-1.4-0.2-1.9-0.5c-0.6-0.4-0.9-0.9-1-1.6c-0.2-1.6-0.3-2.9-0.3-4.1
			c0-0.8,0.1-1.7,0.3-2.7c0.1-0.5,0.4-0.8,0.8-0.8c0.3,0,0.5,0.1,0.6,0.2s0.3,0.4,0.3,0.6c0,0.3,0,0.7-0.1,1.3s-0.1,1-0.1,1.4
			c0,1,0,1.8,0.1,2.5s0.2,1.3,0.3,1.7c0.2,0.1,0.4,0.2,0.6,0.2s0.4,0.1,0.6,0.1c0.8,0,1.6-0.1,2.5-0.4l0-1.8l0-1.7
			c0-1.3,0.1-2.4,0.2-3.3c0.1-0.5,0.3-0.8,0.9-0.8c0.3,0,0.5,0.1,0.6,0.2s0.2,0.4,0.2,0.6L-49.9,442.2z"/>
		<path d="M-41.8,440.6c-0.3,0-0.5-0.1-0.7-0.3c-0.1-0.2-0.2-0.5-0.2-0.9c-0.4,0.1-1.1,0.3-2,0.6c-0.9,0.4-1.4,0.8-1.4,1.4
			c0.2,0.1,0.3,0.1,0.5,0.1c1.3,0.2,2.3,0.6,3,1c1,0.6,1.4,1.5,1.4,2.7c0,1-0.4,1.7-1.2,2.2c-0.7,0.4-1.6,0.6-2.6,0.6
			c-0.8,0-1.5-0.1-2.2-0.4c-0.9-0.3-1.4-0.8-1.4-1.4c0-0.2,0.1-0.4,0.3-0.6s0.4-0.3,0.6-0.3c0.2,0,0.4,0.1,0.7,0.4
			c0.1,0.1,0.5,0.2,0.9,0.3c0.4,0.1,0.7,0.1,1,0.1c0.5,0,0.9-0.1,1.3-0.2c0.5-0.2,0.8-0.4,0.8-0.8c0-0.8-0.6-1.3-1.7-1.6l-0.9-0.2
			c-0.8-0.2-1.3-0.4-1.7-0.6c-0.5-0.3-0.7-0.8-0.7-1.5c0-1.2,0.6-2.1,1.7-2.6c0.4-0.2,0.9-0.3,1.7-0.6c0.8-0.2,1.3-0.4,1.7-0.6
			c0.2-0.1,0.5-0.2,0.8-0.2c0.3,0,0.5,0.1,0.6,0.2s0.2,0.4,0.2,0.6c0,0.2,0,0.4,0.1,0.7s0.1,0.6,0.1,0.7c0,0.3-0.1,0.5-0.2,0.6
			S-41.5,440.6-41.8,440.6z"/>
		<path d="M-33.1,439.8c-0.1,0-0.3,0-0.4,0s-0.3,0-0.4,0c-0.1,0-0.5,0-1.2,0.1l0.2,5.2l0,0.4l0,0.4c0,1.3-0.3,1.9-0.9,1.9
			c-0.2,0-0.4-0.1-0.6-0.2s-0.3-0.3-0.3-0.6c0-0.2,0-0.6,0-1s0-0.8,0-1l-0.2-5.1c-0.4,0-1.1-0.1-2-0.1c-0.5-0.1-0.8-0.4-0.8-0.9
			c0-0.3,0.1-0.5,0.2-0.6s0.4-0.3,0.6-0.3l1.8,0.1c0-0.3,0-0.7,0-1.2c0-0.5,0-0.9,0-1.1c0-0.2,0.1-0.4,0.3-0.6
			c0.2-0.2,0.4-0.2,0.6-0.2c0.5,0,0.8,0.4,0.9,1.3c0,0.2,0,0.5,0,0.8l0,0.5l0,0.5c0.7-0.1,1.1-0.1,1.2-0.1c0.6,0,1,0,1.2,0.1
			c0.4,0.1,0.5,0.4,0.5,0.8c0,0.3-0.1,0.5-0.2,0.6C-32.6,439.7-32.8,439.8-33.1,439.8z"/>
		<path d="M-27.2,447.8c-1,0-1.8-0.4-2.5-1.1c-0.8-0.8-1.2-1.9-1.2-3.3c0-1.3,0.3-2.5,1-3.5c0.8-1.2,2-1.8,3.4-1.8
			c1.2,0,2.1,0.5,2.7,1.6c0.5,0.9,0.7,1.9,0.7,3.1c0,1.3-0.4,2.4-1,3.3C-24.9,447.3-25.9,447.8-27.2,447.8z M-26.7,440
			c-0.9,0-1.5,0.4-2,1.2c-0.4,0.7-0.6,1.4-0.6,2.3s0.2,1.5,0.7,2c0.4,0.4,0.8,0.6,1.4,0.6c0.6,0,1.1-0.2,1.6-0.7
			c0.5-0.5,0.8-1.2,0.8-2C-24.7,441.1-25.3,440-26.7,440z"/>
		<path d="M-9.8,448c-0.5,0-0.8-0.3-0.8-0.8c-0.1-0.6-0.2-1.6-0.3-2.7l-0.3-2.7c-0.1-0.4-0.2-0.8-0.3-1.2c-0.2-0.5-0.4-0.8-0.7-0.8
			c-0.2,0-0.6,0.2-1.2,0.6c-0.6,0.3-0.9,0.6-1.1,0.8c0,0.6,0,1.1,0,1.7l0.3,2.3c0.1,0.9,0.2,1.7,0.2,2.3c0,0.3-0.1,0.5-0.2,0.6
			c-0.2,0.2-0.4,0.2-0.6,0.2s-0.5-0.1-0.6-0.2c-0.2-0.2-0.2-0.4-0.2-0.6c0-0.7-0.1-1.8-0.2-3.1s-0.2-2.4-0.2-3.1
			c0-0.6-0.1-1.1-0.3-1.5c-0.4,0.2-0.8,0.5-1.2,0.9l-1,1.2c-0.1,0.1-0.2,0.3-0.4,0.6c0,0.4,0,0.9-0.1,1.6s-0.1,1.2-0.1,1.5
			c0,0.2,0,0.4,0.1,0.7s0.1,0.5,0.1,0.7c0,0.2-0.1,0.4-0.3,0.6s-0.4,0.2-0.6,0.2c-0.7,0-1-0.8-1-2.3c0-0.4,0-0.9,0.1-1.6
			s0.1-1.2,0.1-1.6c0-0.3,0-0.8-0.1-1.4s-0.1-1.1-0.1-1.4c0-1.3,0.3-2,0.9-2c0.2,0,0.4,0.1,0.6,0.3s0.3,0.4,0.3,0.7
			c0,0.1,0,0.3,0,0.5s0,0.4,0,0.5l0,0.9c0.3-0.6,0.8-1.2,1.3-1.7s1.1-0.8,1.5-0.8c0.9,0,1.6,0.5,1.9,1.4c0.3-0.4,0.7-0.7,1.2-1
			s1-0.3,1.5-0.3c1,0,1.6,0.5,2,1.6c0.1,0.2,0.2,1,0.4,2.5c0.2,1,0.4,2.7,0.6,5c0,0.2-0.1,0.4-0.2,0.6S-9.6,448-9.8,448z"/>
		<path d="M-2.9,447.7c-1.3,0-2.4-0.3-3.2-1c-0.9-0.7-1.3-1.8-1.3-3.1c0-1.5,0.4-2.8,1.1-3.8c0.8-1.1,1.9-1.7,3.2-1.7
			c1,0,1.8,0.2,2.4,0.5c0.8,0.4,1.1,1,1.1,1.9c0,0.6-0.3,1.1-1,1.6c-0.3,0.2-0.9,0.5-1.9,1l-3.4,1.6c0.3,0.5,0.7,0.9,1.2,1.1
			s1.1,0.4,1.7,0.4c0.4,0,0.9-0.1,1.4-0.2c0.7-0.2,1.1-0.4,1.3-0.8c0.2-0.3,0.4-0.5,0.6-0.5c0.2,0,0.4,0.1,0.5,0.2s0.2,0.3,0.2,0.5
			c0,0.7-0.5,1.2-1.6,1.7C-1.2,447.5-2.1,447.7-2.9,447.7z M-3.2,439.7c-0.7,0-1.3,0.3-1.8,0.8c-0.5,0.6-0.8,1.4-1.1,2.5l2.7-1.3
			c1.1-0.5,1.8-1,2.3-1.3C-1.5,439.9-2.2,439.7-3.2,439.7z"/>
		<path d="M9.7,440.8c0,0.7-0.3,1.1-0.9,1.1c-0.5,0-0.8-0.3-0.8-0.9c0-0.1,0-0.3,0-0.6l0-0.7c-0.9,0.1-1.7,0.4-2.2,0.8
			c-0.5,0.4-1,1-1.3,1.7l0,4.8c0,0.6-0.3,0.9-0.9,0.9c-0.5,0-0.8-0.3-0.8-0.9v-6.2c0-0.2,0-0.5,0-0.9s0-0.7,0-0.9
			c0-0.6,0.3-0.9,0.8-0.9c0.6,0,0.9,0.5,0.9,1.5c1.1-1.1,2.4-1.6,3.7-1.6c0.5,0,0.8,0.2,1.1,0.5s0.4,0.9,0.4,1.6
			C9.7,440.5,9.7,440.7,9.7,440.8z"/>
		<path d="M23.6,447.9c-0.5,0-0.8-0.3-0.9-0.8l-0.2-1.9c-0.1-0.7-0.1-1.3-0.1-1.9c0-0.2,0-0.4,0-0.8s0-0.7,0-0.8
			c0-1.3-0.2-1.9-0.7-1.9c-0.7,0-1.3,0.4-1.9,1.2c-0.5,0.7-1,1.6-1.3,2.7c0,0.2,0,0.5-0.1,0.9c0,0.3-0.1,0.6-0.1,0.9
			c0,0.2,0,0.4,0.1,0.8s0.1,0.6,0.1,0.8c0,0.3-0.1,0.5-0.2,0.6s-0.4,0.2-0.6,0.2c-0.3,0-0.5-0.1-0.6-0.2s-0.2-0.4-0.2-0.6
			c0-0.2,0-0.4-0.1-0.8s-0.1-0.6-0.1-0.8c0-0.6,0-1.4,0.1-2.5s0.1-1.9,0.1-2.5c0-0.2,0-0.5,0-0.8s0-0.6,0-0.8c0-0.3,0.1-0.5,0.2-0.6
			s0.4-0.2,0.6-0.2c0.5,0,0.8,0.4,0.9,1.1l0,1c1-1.3,2-2,3-2c0.9,0,1.6,0.4,2,1.2c0.3,0.6,0.4,1.4,0.4,2.4v0.9l0,0.8
			c0,0.5,0.1,1.1,0.2,1.9c0.1,0.8,0.2,1.4,0.2,1.9c0,0.3-0.1,0.5-0.3,0.6C24.1,447.9,23.9,447.9,23.6,447.9z"/>
		<path d="M33.2,447.9c-0.1,0-0.3-0.1-0.6-0.4c-0.3-0.2-0.5-0.5-0.6-0.6c-0.6,0.3-1.1,0.5-1.5,0.7c-0.4,0.2-0.8,0.2-1.1,0.2
			c-1.4,0-2.4-0.4-3-1.2c-0.6-0.7-0.9-1.8-0.9-3.3c0-1.4,0.5-2.6,1.5-3.6s2.1-1.5,3.5-1.5c0.5,0,1.1,0.1,1.7,0.4
			c0.8,0.3,1.2,0.7,1.2,1.2c0,0.2-0.1,0.3-0.2,0.4c-0.1,0.2-0.1,0.6-0.1,1.1s-0.1,1.2-0.1,2c0,0.7,0,1.3,0.1,1.7
			c0.1,0.3,0.2,0.8,0.6,1.5c0,0.1,0.1,0.3,0.2,0.5l0.1,0.1c0,0.2-0.1,0.4-0.2,0.6S33.4,447.9,33.2,447.9z M31.3,441.8
			c0-0.3,0-0.5,0-0.8s0.1-0.6,0.1-0.9c-0.2-0.1-0.4-0.2-0.6-0.2s-0.3-0.1-0.4-0.1c-0.9,0-1.7,0.4-2.4,1.1s-1,1.6-1,2.6
			c0,1,0.2,1.7,0.5,2.2s0.8,0.7,1.5,0.7c0.6,0,1-0.1,1.4-0.3c0.2-0.1,0.5-0.3,0.9-0.7C31.4,443.7,31.3,442.6,31.3,441.8z"/>
		<path d="M46.7,448c-0.5,0-0.8-0.3-0.8-0.8c-0.1-0.6-0.2-1.6-0.3-2.7l-0.3-2.7c-0.1-0.4-0.2-0.8-0.3-1.2c-0.2-0.5-0.4-0.8-0.7-0.8
			c-0.2,0-0.6,0.2-1.2,0.6c-0.6,0.3-0.9,0.6-1.1,0.8c0,0.6,0,1.1,0,1.7l0.3,2.3c0.1,0.9,0.2,1.7,0.2,2.3c0,0.3-0.1,0.5-0.2,0.6
			c-0.2,0.2-0.4,0.2-0.6,0.2s-0.5-0.1-0.6-0.2c-0.2-0.2-0.2-0.4-0.2-0.6c0-0.7-0.1-1.8-0.2-3.1s-0.2-2.4-0.2-3.1
			c0-0.6-0.1-1.1-0.3-1.5c-0.4,0.2-0.8,0.5-1.2,0.9l-1,1.2c-0.1,0.1-0.2,0.3-0.4,0.6c0,0.4,0,0.9-0.1,1.6s-0.1,1.2-0.1,1.5
			c0,0.2,0,0.4,0.1,0.7s0.1,0.5,0.1,0.7c0,0.2-0.1,0.4-0.3,0.6s-0.4,0.2-0.6,0.2c-0.7,0-1-0.8-1-2.3c0-0.4,0-0.9,0.1-1.6
			s0.1-1.2,0.1-1.6c0-0.3,0-0.8-0.1-1.4s-0.1-1.1-0.1-1.4c0-1.3,0.3-2,0.9-2c0.2,0,0.4,0.1,0.6,0.3s0.3,0.4,0.3,0.7
			c0,0.1,0,0.3,0,0.5s0,0.4,0,0.5l0,0.9c0.3-0.6,0.8-1.2,1.3-1.7s1.1-0.8,1.5-0.8c0.9,0,1.6,0.5,1.9,1.4c0.3-0.4,0.7-0.7,1.2-1
			s1-0.3,1.5-0.3c1,0,1.6,0.5,2,1.6c0.1,0.2,0.2,1,0.4,2.5c0.2,1,0.4,2.7,0.6,5c0,0.2-0.1,0.4-0.2,0.6S46.9,448,46.7,448z"/>
		<path d="M53.6,447.7c-1.3,0-2.4-0.3-3.2-1c-0.9-0.7-1.3-1.8-1.3-3.1c0-1.5,0.4-2.8,1.1-3.8c0.8-1.1,1.9-1.7,3.2-1.7
			c1,0,1.8,0.2,2.4,0.5c0.8,0.4,1.1,1,1.1,1.9c0,0.6-0.3,1.1-1,1.6c-0.3,0.2-0.9,0.5-1.9,1l-3.4,1.6c0.3,0.5,0.7,0.9,1.2,1.1
			s1.1,0.4,1.7,0.4c0.4,0,0.9-0.1,1.4-0.2c0.7-0.2,1.1-0.4,1.3-0.8c0.2-0.3,0.4-0.5,0.6-0.5c0.2,0,0.4,0.1,0.5,0.2s0.2,0.3,0.2,0.5
			c0,0.7-0.5,1.2-1.6,1.7C55.3,447.5,54.4,447.7,53.6,447.7z M53.3,439.7c-0.7,0-1.3,0.3-1.8,0.8c-0.5,0.6-0.8,1.4-1.1,2.5l2.7-1.3
			c1.1-0.5,1.8-1,2.3-1.3C55,439.9,54.3,439.7,53.3,439.7z"/>
	</g>
</g>
<path id="XMLID_1_" d="M-166.1,522.9c2.5-0.8,5-1.3,7.6-1.7c1.2-0.2,4-1.4,5.1-0.3c1,1,0.2,2.8-0.1,3.8c-0.6,2.8-1.2,5.7-1.9,8.5
	c-0.1,0.3-0.5,0.4-0.8,0.3c-0.2-0.1-0.4-0.4-0.3-0.6c0.3-1.9,0.7-3.8,1-5.7c0.1-0.4,0.6-2.9,0.8-4.1c-7,9-14.2,20.6-11.9,32.8
	c2.5,13,20.3,20.2,31.2,14.1c0.5-0.3,1.1,0.6,0.6,0.9c-10.5,6.8-26.7,1-32.3-10.2c-3-6.1-1.9-13.2-0.2-19.4
	c1.9-6.6,5.1-13.9,10.4-18.6c-1.1,0.3-2.3,0.7-2.7,0.8c-1.9,0.5-3.9,0.9-5.9,1.1C-166.5,524.7-167.1,523.2-166.1,522.9z"/>
<text transform="matrix(1 0 0 1 -122.7807 573.8361)" style="font-family:'ComicSansMS'; font-size:18px;">Enter customer name</text>
</svg>
