<?xml version="1.0" encoding="utf-8"?>
<!-- Generator: Adobe Illustrator 19.1.0, SVG Export Plug-In . SVG Version: 6.00 Build 0)  -->
<svg version="1.1" id="Layer_1" xmlns="http://www.w3.org/2000/svg" xmlns:xlink="http://www.w3.org/1999/xlink" x="0px" y="0px"
	 viewBox="0 0 190 70" style="enable-background:new 0 0 190 70;" xml:space="preserve">
<style type="text/css">
	.st0{fill:#666666;}
	.st1{fill-rule:evenodd;clip-rule:evenodd;fill:#FFF7EC;}
	.st2{fill-rule:evenodd;clip-rule:evenodd;fill:#EC3B26;}
	.st3{fill-rule:evenodd;clip-rule:evenodd;fill:#010101;}
</style>
<g>
	<g>
		<path class="st0" d="M55.5,44.3v5.4c0,0.5-0.2,1-0.6,1.4c-0.4,0.4-0.9,0.6-1.6,0.6h-8.3v17.8h-8.6V51.7H4.9
			c-0.7,0-1.4-0.2-1.9-0.6c-0.5-0.4-0.8-0.9-1-1.5l-1-4.8L35.8,0.5h9.2v43.8H55.5z M36.5,44.3V17.4c0-0.9,0-1.9,0.1-3
			c0.1-1,0.2-2.1,0.3-3.2L11.7,44.3H36.5z"/>
	</g>
	<g>
		<path class="st0" d="M188.9,44.3v5.4c0,0.5-0.2,1-0.6,1.4c-0.4,0.4-0.9,0.6-1.6,0.6h-8.3v17.8h-8.6V51.7h-31.6
			c-0.7,0-1.4-0.2-1.9-0.6c-0.5-0.4-0.8-0.9-1-1.5l-1-4.8l34.8-44.3h9.2v43.8H188.9z M169.9,44.3V17.4c0-0.9,0-1.9,0.1-3
			c0.1-1,0.2-2.1,0.3-3.2l-25.2,33.1H169.9z"/>
	</g>
	<g>
		<path class="st1" d="M95,10.1c13.8,0,24.9,11.1,24.9,24.9c0,13.8-11.1,24.9-24.9,24.9c-13.8,0-24.9-11.1-24.9-24.9
			C70.1,21.2,81.2,10.1,95,10.1z"/>
		<path class="st2" d="M95,10.1c13.8,0,24.9,11.1,24.9,24.9c0,13.8-11.1,24.9-24.9,24.9c-13.8,0-24.9-11.1-24.9-24.9
			C70.1,21.2,81.2,10.1,95,10.1L95,10.1z M95,0.5C76,0.5,60.5,16,60.5,35C60.5,54,76,69.5,95,69.5c19,0,34.5-15.5,34.5-34.5
			C129.5,16,114,0.5,95,0.5z"/>
		<path class="st3" d="M106.5,34c4.5,0,8.1-3.6,8.1-8.1c0-4.5-3.6-8.1-8.1-8.1c-4.5,0-8.1,3.6-8.1,8.1C98.4,30.3,102,34,106.5,34z"
			/>
	</g>
</g>
</svg>
