<svg xmlns="http://www.w3.org/2000/svg" width="179.74" height="132.265" viewBox="0 0 179.74 132.265"><defs><style>.a{fill:none;stroke-miterlimit:10;stroke-width:2px;}.a,.b{stroke:#22be6f;}.b,.d{fill:#22be6f;}.c{fill:#7c7c7c;}.e{fill:#fff;}</style></defs><g transform="translate(-939 -190.283)"><path class="a" d="M1902.32,680.11c-14.2,0-28.41.023-42.614-.011-5.585-.013-10.766-1.378-14.915-5.346-5.469-5.23-6.887-11.934-6.384-19.138.543-7.758,4.886-12.849,11.964-15.631a32.244,32.244,0,0,1,7.5-1.964c1.7-.225,1.883-1.077,2.259-2.357a60.774,60.774,0,0,1,3.246-9.684,24.133,24.133,0,0,1,18.783-13.894c9.1-1.465,17.256.268,24.08,6.752a29.364,29.364,0,0,1,3.485,3.982,1.777,1.777,0,0,0,2.58.694,24.659,24.659,0,0,1,18.729-.649c9.122,3.371,14.1,10.732,14.3,20.982a1.749,1.749,0,0,0,1.584,2c9.905,2.6,14.255,10.19,13.084,20.067a20.576,20.576,0,0,1-1.842,6.312,12.927,12.927,0,0,1-12.4,7.877Q1924.042,680.144,1902.32,680.11Z" transform="translate(-861.276 -391.533)"/><rect class="b" width="4.263" height="4.263" transform="translate(992.229 276.34)"/><rect class="b" width="4.263" height="4.263" transform="translate(999.415 276.34)"/><rect class="c" width="6.141" height="4.263" transform="translate(1096.559 309.56)"/><rect class="c" width="6.141" height="4.263" transform="translate(1081.212 318.285)"/><rect class="c" width="4.263" height="4.263" transform="translate(1042.665 309.56)"/><rect class="d" width="7.87" height="4.263" transform="translate(1059.438 300.221)"/><rect class="d" width="7.87" height="4.263" transform="translate(1051.568 309.56)"/><rect class="d" width="29.11" height="4.263" transform="translate(1063.815 309.56)"/><rect class="d" width="29.11" height="4.263" transform="translate(1089.628 318.285)"/><rect class="d" width="6.141" height="4.263" transform="translate(992.894 199.622)"/><rect class="c" width="6.141" height="4.263" transform="translate(977.547 208.347)"/><rect class="d" width="4.263" height="4.263" transform="translate(939 199.622)"/><rect class="c" width="7.87" height="4.263" transform="translate(955.773 190.283)"/><rect class="c" width="7.87" height="4.263" transform="translate(947.903 199.622)"/><rect class="d" width="29.11" height="4.263" transform="translate(960.15 199.622)"/><rect class="d" width="29.11" height="4.263" transform="translate(985.964 208.347)"/><circle class="d" cx="18.5" cy="18.5" r="18.5" transform="translate(1022 260)"/><path class="e" d="M528.514,1063.2l14.6-14.6,1.929,1.929-16.53,16.53-7.714-7.714,1.929-1.928Z" transform="translate(507.2 -779.6)"/></g></svg>