<svg height='20px' width='20px'  fill="#ffffff" xmlns="http://www.w3.org/2000/svg" xmlns:xlink="http://www.w3.org/1999/xlink" version="1.1" x="0px" y="0px" viewBox="0 0 100 100" enable-background="new 0 0 100 100" xml:space="preserve"><path d="M95,71.65v-0.5c-0.1-1.5-0.4-5.1-1-6.7c-0.8-2.2-1.8-3.2-3-4c-0.6-0.4-2.7-1.2-6-2.4c-2.8-1-6.2-2.3-7.4-3  c-0.9-0.5-1.7-3.1-1.8-4c0-0.1,0.2-0.3,0.7-0.8c1.3-1.4,3-4.1,3.7-6.7c0.9-3.5,1.7-10.7-1.6-15.1c-1.9-2.5-4.8-3.9-8.7-4h-0.3h-0.1  c-3.9,0.1-6.8,1.5-8.7,4c-3.3,4.4-2.6,11.6-1.6,15.1c0.7,2.6,2.4,5.3,3.7,6.7c0.1,0.2,0.6,0.6,0.7,0.8c0.3,0.8-0.9,3.5-1.8,4  c-1.2,0.7-4.4,1.9-7.3,3h-0.1c-0.7,0.3-1.3,0.5-1.9,0.7c-1.9-0.7-3.5-1.4-4.3-1.9c-1.4-0.8-2.5-4.5-2.5-5.6c0-0.1,0.1-0.3,0.9-1.2  c1.7-1.8,3.8-5.3,4.7-8.7c1.2-4.6,2.2-13.9-2.1-19.6c-2.4-3.3-6.2-5-11.2-5.1h-0.4h-0.1c-5,0.2-8.8,1.9-11.2,5.2  c-4.3,5.7-3.3,15-2.1,19.6c0.9,3.4,3.1,6.8,4.7,8.6l0,0l0,0c0.2,0.3,0.8,0.9,0.9,1.2c0.4,1.2-1.2,4.8-2.5,5.6  c-1.6,0.9-5.9,2.5-9.8,4c-4.2,1.6-7,2.6-7.7,3.1c-1.5,1-2.8,2.3-3.8,5.1c-0.5,2.1-0.8,6.9-1,8.8v0.5l0.4,0.4  c1.1,1.1,6.8,4.6,32.5,4.6c25.5,0,31.3-3.6,32.5-4.7l0.4-0.4v-0.5c0-0.6-0.1-1.3-0.2-2.2c18.7-0.1,23.1-2.8,24-3.6L95,71.65z   M37.9,81.05c-22.6,0-29-2.8-30.6-3.7c0.2-2.8,0.6-6.1,1.1-7.6c0.8-2.2,1.7-3.1,2.9-4c0.6-0.4,4.6-1.9,7.3-2.9  c4.1-1.5,8.4-3.1,10.1-4.1c2.1-1.2,4.4-5.9,3.5-8.3c-0.2-0.7-0.7-1.3-1.4-2l0,0l0,0c-1.5-1.6-3.4-4.7-4.2-7.7  c-1.1-4.2-2-12.6,1.7-17.7c2-2.7,5.1-4.1,9.4-4.2h0.1h0.3c4.3,0.1,7.4,1.6,9.4,4.2c3.7,5,2.8,13.5,1.7,17.7c-0.8,3-2.8,6.1-4.2,7.7  c-1.1,1.2-1.5,1.8-1.6,2.7c0,1.6,1.2,6.3,3.6,7.7c0.5,0.3,1.3,0.7,2.3,1.1c0.9,0.4,1.9,0.8,3,1.2c1.5,0.6,3.2,1.2,4.8,1.8  c2.7,1,6.7,2.5,7.3,2.9c1.2,0.8,2.1,1.7,2.9,4c0.3,0.8,0.5,2.1,0.7,3.6c0.1,0.7,0.2,1.5,0.3,2.2c0.1,0.6,0.1,1.2,0.2,1.8  C66.9,78.25,60.5,81.05,37.9,81.05z M70.4,73.35c-0.2-1.6-0.5-3.3-0.9-4.3c-1-2.8-2.2-4.1-3.8-5.1c-0.8-0.5-3.6-1.6-7.8-3.1  c-0.8-0.3-1.6-0.6-2.3-0.9c3-1.1,6-2.3,7.3-3c1.7-1,3.5-4.6,2.8-6.6c-0.2-0.5-0.6-1-1.1-1.6c-1.1-1.2-2.5-3.5-3.1-5.7  c-0.8-3.1-1.5-9.5,1.3-13.2c1.5-2,3.8-3,7-3.1l0,0H70c3.2,0.1,5.5,1.1,7,3.1c2.8,3.7,2.1,10.1,1.3,13.2c-0.6,2.2-2.1,4.5-3.2,5.7  c-0.8,0.9-1.2,1.5-1.2,2.2c0,1.3,0.9,4.9,2.9,6c1.3,0.8,4.6,2,7.7,3.1c1.9,0.7,5.1,1.9,5.5,2.2c0.9,0.6,1.5,1.3,2.1,2.9  c0.3,0.9,0.6,3,0.8,5.5C91.5,71.35,86.5,73.25,70.4,73.35z"></path></svg>