<svg xmlns="http://www.w3.org/2000/svg" viewBox="0 0 85.032 85.033">
  <defs>
    <style>
      .cls-1 {
        fill: #e5e5e5;
      }

      .cls-2 {
        fill: #666;
      }
    </style>
  </defs>
  <g id="Group_3167" data-name="Group 3167" transform="translate(-8795 -4408.422)">
    <circle id="Ellipse_68" data-name="Ellipse 68" class="cls-1" cx="42.516" cy="42.516" r="42.516" transform="translate(8795 4408.422)"/>
    <g id="Group_3155" data-name="Group 3155" transform="translate(8812.007 4428.83)">
      <g id="Group_3154" data-name="Group 3154" transform="translate(20.238)">
        <path id="Path_9430" data-name="Path 9430" class="cls-2" d="M41.8,14.6H25.982A4.138,4.138,0,0,0,21.9,18.682V51.164a4.138,4.138,0,0,0,4.082,4.082H48.6a4.138,4.138,0,0,0,4.082-4.082V25.654c0-.17,0-.17-.17-.34L41.968,14.6Zm.34,1.531,9.354,9.524H43.838a1.887,1.887,0,0,1-1.871-1.871ZM48.6,54.4H25.982a3.229,3.229,0,0,1-3.231-3.231V18.682a3.229,3.229,0,0,1,3.231-3.231H41.287v8.333A2.686,2.686,0,0,0,44.008,26.5h7.823V50.994A3.381,3.381,0,0,1,48.6,54.4Z" transform="translate(-21.9 -14.6)"/>
        <path id="Path_9431" data-name="Path 9431" class="cls-2" d="M44.2,26.3H24.98c-.34,0-.68.17-.68.51s.34.51.68.51H44.2c.34,0,.68-.17.68-.51S44.708,26.3,44.2,26.3Z" transform="translate(-20.218 -6.402)"/>
        <path id="Path_9432" data-name="Path 9432" class="cls-2" d="M44.2,29.8H24.98c-.34,0-.68.17-.68.51a.759.759,0,0,0,.68.51H44.2c.34,0,.68-.17.68-.51S44.708,29.8,44.2,29.8Z" transform="translate(-20.218 -3.95)"/>
        <path id="Path_9433" data-name="Path 9433" class="cls-2" d="M44.2,33.3H24.98c-.34,0-.68.17-.68.51s.34.51.68.51H44.2c.34,0,.68-.17.68-.51S44.708,33.3,44.2,33.3Z" transform="translate(-20.218 -1.498)"/>
      </g>
      <path id="Path_9434" data-name="Path 9434" class="cls-2" d="M10,54.287a23.048,23.048,0,0,1,.34-3.4c0-.34.34-.68.51-1.02A17.814,17.814,0,0,1,12.721,48.5,56.733,56.733,0,0,1,20.2,45.614l1.531-.51c.51-.17.68-.51.85-1.19V41.192a2.417,2.417,0,0,0-.34-1.02,9.171,9.171,0,0,1-1.531-3.741c-.17-.51-.34-1.19-.51-1.7a15.923,15.923,0,0,1-.68-2.721v-.34a6.218,6.218,0,0,0,0-3.061,6.29,6.29,0,0,1,3.231-6.462,6.132,6.132,0,0,1,3.4-1.02,8.265,8.265,0,0,1,4.932.85,5.855,5.855,0,0,1,3.4,5.1,5.661,5.661,0,0,1-.17,2.381,4.187,4.187,0,0,0,.17,2.041c.17.34,0,.85,0,1.19a14.966,14.966,0,0,1-.85,2.551,5.4,5.4,0,0,0-.51,1.531,6.845,6.845,0,0,1-1.531,3.4,2.417,2.417,0,0,0-.34,1.02v2.551c0,.68.34,1.02,1.02,1.361.85.34,1.7.51,2.381.85,2.041.85,4.082,1.531,5.952,2.381.68.34,1.19.68,1.871,1.02a2.255,2.255,0,0,1,1.02,1.7c0,1.02.17,2.041.17,3.061C32.279,54.287,21.224,54.287,10,54.287Z" transform="translate(-10 -10.07)"/>
    </g>
  </g>
</svg>
