<?xml version="1.0" encoding="utf-8"?>
<!-- Generator: Adobe Illustrator 23.0.1, SVG Export Plug-In . SVG Version: 6.00 Build 0)  -->
<svg version="1.1" xmlns="http://www.w3.org/2000/svg" xmlns:xlink="http://www.w3.org/1999/xlink" x="0px" y="0px"
	 viewBox="0 0 640 224.39" style="enable-background:new 0 0 640 224.39;" xml:space="preserve">
<style type="text/css">
	.st0{fill-rule:evenodd;clip-rule:evenodd;}
	.st1{fill-rule:evenodd;clip-rule:evenodd;fill:#FFF8EC;}
	.st2{fill-rule:evenodd;clip-rule:evenodd;fill:#EF3825;}
	.st3{fill-rule:evenodd;clip-rule:evenodd;stroke:#020202;stroke-width:3;stroke-miterlimit:10;}
	.st4{fill-rule:evenodd;clip-rule:evenodd;fill:#FFFFFF;}
	.st5{fill-rule:evenodd;clip-rule:evenodd;fill:#FFF7EC;}
	.st6{fill-rule:evenodd;clip-rule:evenodd;fill:#EC3B26;}
	.st7{fill-rule:evenodd;clip-rule:evenodd;fill:#010101;}
</style>
<g id="Guides_For_Artboard">
</g>
<g id="Layer_1">
	<path class="st4" d="M259.86,112.72c0,6.93,2,12.59,5.99,16.97c3.99,4.38,9.08,6.59,15.28,6.59c6.07,0,11.28-2.21,15.68-6.61
		c4.38-4.41,6.56-10.09,6.56-17.02c0-7.02-2.18-12.67-6.56-16.93c-4.4-4.27-9.47-6.4-15.26-6.4c-5.78,0-10.83,2.11-15.18,6.32
		C262.03,99.86,259.86,105.56,259.86,112.72L259.86,112.72z M328.63,77.78v11.96h-12.18v50.99c0,6.88-0.36,11.99-1.05,15.31
		c-0.69,3.33-2.39,6.72-5.07,10.18c-2.67,3.47-6.69,6.37-12.07,8.73c-5.36,2.36-11.36,3.54-17.97,3.54c-9.99,0-18.9-3.04-26.73-9.12
		l8.67-9.76c5.89,4.61,12.27,6.92,19.18,6.92c3.81,0,7.37-0.73,10.63-2.23c3.25-1.48,5.7-3.28,7.3-5.41
		c1.6-2.11,2.64-4.12,3.11-6.04c0.47-1.92,0.71-5.14,0.71-9.66v-6.22c-2.11,2.69-5.39,5.23-9.87,7.63
		c-4.47,2.4-9.38,3.61-14.69,3.61c-9.71,0-17.61-3.39-23.72-10.19c-6.11-6.79-9.16-15.13-9.16-25.04c0-10.83,3.36-19.59,10.1-26.27
		c6.74-6.68,14.55-10.01,23.41-10.01c8.95,0,16.94,3.62,23.93,10.82v-9.77H328.63z"/>
	<path class="st4" d="M344.39,54.52c0-2.17,0.76-4.05,2.28-5.66c1.51-1.61,3.44-2.41,5.78-2.41c2.18,0,4.07,0.79,5.65,2.34
		c1.59,1.54,2.38,3.47,2.38,5.73c0,2.26-0.79,4.18-2.38,5.76c-1.58,1.58-3.47,2.37-5.65,2.37c-2.24,0-4.15-0.8-5.72-2.41
		C345.18,58.65,344.39,56.74,344.39,54.52L344.39,54.52z M346.29,134.3V89.75H335.8V77.79h23.78v56.51h10.49v11.95H335.8V134.3
		H346.29z"/>
	<path class="st4" d="M389.43,111.95c0,7.54,2.12,13.34,6.33,17.39c4.22,4.06,9.27,6.09,15.15,6.09c5.69,0,10.75-2.14,15.15-6.4
		c4.42-4.26,6.61-10.18,6.61-17.72c0-7.59-2.24-13.31-6.74-17.18c-4.5-3.87-9.55-5.8-15.16-5.8c-6.02,0-11.08,2.27-15.17,6.83
		C391.49,99.71,389.43,105.3,389.43,111.95L389.43,111.95z M458.12,134.3v11.95h-25.46v-10.04c-6.61,7.44-14.69,11.17-24.21,11.17
		c-8.81,0-16.55-3.04-23.22-9.12c-6.68-6.08-10-14.74-10-25.95c0-11.27,3.42-20.16,10.29-26.67c6.84-6.5,14.59-9.75,23.21-9.75
		c9.14,0,17.12,3.69,23.93,11.03V59.83h-13V47.87h26.31v86.43H458.12z"/>
	<path class="st4" d="M479.85,111.95c0,7.54,2.11,13.34,6.31,17.39c4.23,4.06,9.27,6.09,15.15,6.09c5.7,0,10.74-2.14,15.16-6.4
		c4.4-4.26,6.61-10.18,6.61-17.72c0-7.59-2.26-13.31-6.75-17.18c-4.5-3.87-9.55-5.8-15.15-5.8c-6.02,0-11.07,2.27-15.18,6.83
		C481.89,99.71,479.85,105.3,479.85,111.95L479.85,111.95z M548.55,134.3v11.95h-25.46v-10.04c-6.63,7.44-14.7,11.17-24.21,11.17
		c-8.82,0-16.55-3.04-23.23-9.12c-6.67-6.08-10.02-14.74-10.02-25.95c0-11.27,3.44-20.16,10.3-26.67c6.84-6.5,14.59-9.75,23.21-9.75
		c9.14,0,17.12,3.69,23.94,11.03V59.83h-13.02V47.87h26.31v86.43H548.55z"/>
	<path class="st4" d="M570.02,134.3V59.82h-12.25V47.87h25.54v37.77c7.97-6.51,15.56-9.76,22.73-9.76c4.48,0,8.18,0.95,11.06,2.83
		c2.89,1.89,4.86,4.38,5.91,7.46c1.05,3.08,1.57,7.6,1.57,13.54v34.59h11.55v11.94h-24.84v-41.86c0-5.18-0.16-8.65-0.49-10.4
		c-0.33-1.75-1.22-3.18-2.69-4.31c-1.47-1.13-3.22-1.7-5.21-1.7c-5.14,0-11.66,2.94-19.59,8.84v37.49h11.75v11.94h-37.29V134.3
		H570.02z"/>
	<path class="st1" d="M108.29,17.17c51.93,0,93.84,42.35,93.84,94.86c0,52.52-41.91,94.87-93.84,94.87
		c-51.97,0-93.85-42.35-93.85-94.87C14.45,59.52,56.33,17.17,108.29,17.17z"/>
	<path class="st2" d="M108.29,34.39c42.44,0,76.8,34.72,76.8,77.64c0,42.92-34.36,77.66-76.8,77.66
		c-42.46,0-76.82-34.74-76.82-77.66C31.48,69.12,65.83,34.39,108.29,34.39L108.29,34.39z M108.29,4.47
		C49.64,4.47,1.87,52.74,1.87,112.03c0,59.29,47.77,107.58,106.42,107.58c58.64,0,106.41-48.28,106.41-107.58
		C214.7,52.74,166.93,4.47,108.29,4.47z"/>
	<path class="st0" d="M114.72,167.94c17.6,0,31.83-14.4,31.83-32.19c0-17.79-14.23-32.19-31.83-32.19
		c-17.61,0-31.86,14.41-31.86,32.19C82.86,153.55,97.11,167.94,114.72,167.94z"/>
</g>
</svg>
