<svg xmlns="http://www.w3.org/2000/svg" width="292.45" height="162.299" viewBox="0 0 292.45 162.299"><defs><style>.a{fill:#454b5e;}.b{fill:none;}.b,.g{stroke:#454c5e;stroke-linecap:round;stroke-linejoin:round;stroke-width:2px;}.c{fill:#a8cbe5;}.d{fill:#61a3d1;}.e{fill:#53a1d9;}.f{fill:#cbd4e7;}.g{fill:#fff;}</style></defs><g transform="translate(-88.5 -132.494)"><path class="a" d="M173,141.656c1.837-.922,3.668-1.91,6.123-.147-4.949.291-6.43,4.019-8.335,7.395-.657,1.163-1.875.944-2.937.335-2.931-1.682-5.919-2.124-9.01-.429.069-3.505,2.808-4.8,6.6-3.13l-.025-.011c2.281.455,4.113,0,5.18-2.334C171.036,142.376,172.07,142.037,173,141.656Z" transform="translate(-22.933 -2.659)"/><path class="a" d="M141.662,133.237c1.216-.61,2.429-1.264,4.054-.1-3.276.193-4.257,2.661-5.518,4.9-.435.77-1.242.625-1.944.222a5.732,5.732,0,0,0-5.966-.284c.046-2.32,1.859-3.18,4.372-2.071l-.017-.007c1.511.3,2.724,0,3.429-1.545C140.362,133.713,141.046,133.489,141.662,133.237Z" transform="translate(-14.151)"/><path class="b" d="M163.667,204.2v-4.906a3.794,3.794,0,0,1,3.794-3.794H272.534a3.794,3.794,0,0,1,3.794,3.794V204.2" transform="translate(-24.529 -20.838)"/><path class="b" d="M125,258.25h22.084a3.8,3.8,0,0,1,3.795,3.794V289.76a3.794,3.794,0,0,0,3.794,3.794h84.94" transform="translate(-11.741 -41.591)"/><path class="b" d="M302.167,282.227h16.172a3.794,3.794,0,0,0,3.794-3.794V224" transform="translate(-70.334 -30.263)"/><line class="b" x1="9.928" transform="translate(89.5 193.737)"/><line class="b" x2="16.955" transform="translate(97.754 204.222)"/><line class="b" x2="73.062" transform="translate(122.406 203.553)"/><line class="b" x2="45.957" transform="translate(150.404 216.659)"/><g transform="translate(220.058 199.619)"><g transform="translate(0 0)"><path class="c" d="M290.5,248.622l-5.929-14.676a15.828,15.828,0,0,1,20.6,8.747,15.281,15.281,0,0,1,1.153,5.929Z" transform="translate(-284.574 -232.79)"/></g></g><g transform="translate(207.469 204.199)"><path class="d" d="M281.592,254.308h15.829a15.829,15.829,0,0,1-31.657,0,15.485,15.485,0,0,1,9.9-14.676Z" transform="translate(-265.764 -239.632)"/></g><circle class="b" cx="3.292" cy="3.292" r="3.292" transform="translate(150.988 232.271)"/><circle class="b" cx="3.292" cy="3.292" r="3.292" transform="translate(163.077 232.271)"/><circle class="b" cx="3.292" cy="3.292" r="3.292" transform="translate(175.166 232.271)"/><path class="e" d="M282.5,263" transform="translate(-63.83 -43.162)"/><path class="b" d="M373.833,365.98l12.047.558s0-8.812,8.366-3.9c0,0,6.358-19.074,18.851-5.02h24.54" transform="translate(-94.036 -72.744)"/><line class="b" y1="17.325" x2="27.44" transform="translate(256.484 218.238)"/><path class="f" d="M476.065,264.48S456.6,288.492,395.25,262C395.25,262,456.544,279.953,476.065,264.48Z" transform="translate(-101.119 -42.831)"/><path class="b" d="M111.667,219.045h8.923s1.339-6.246,6.023-2.677c0,0,4.016-13.608,13.385-3.793l117.932.442a3.8,3.8,0,0,1,2.177.7L295.717,238.9h4.908" transform="translate(-7.331 -25.308)"/><ellipse class="b" cx="3.563" cy="3.622" rx="3.563" ry="3.622" transform="translate(336.921 198.65)"/><path class="b" d="M470.561,253.657v.007c-2.684,2.135-6.5,3.413-10.595-.743,0,0-.428-6.485,4.926-7.543S470.561,253.657,470.561,253.657Z" transform="translate(-122.52 -37.306)"/><path class="b" d="M447.2,251.75a18.265,18.265,0,0,0,3.929-4.551c16.5,1.559,23.866,10.039,23.866,10.039-24.984,24.984-82.542-2.4-82.542-2.4a19.469,19.469,0,0,0-3.126-15.253s11.692-1.613,13.834,9.4" transform="translate(-99.161 -35.392)"/><path class="b" d="M417.67,252.787C419.678,251.89,443.1,251,443.1,251a20.608,20.608,0,0,0,2.878,3.808" transform="translate(-108.534 -39.193)"/><path class="g" d="M466.317,273.125c-8.952,17.819-30.787,15.477-27.942,14.64s8.2-14.64,8.2-14.64" transform="translate(-115.298 -46.51)"/><path class="b" d="M473.283,243.9s3.868-1.325,2.571-8.771" transform="translate(-126.927 -33.943)"/><path class="b" d="M512.5,248.68s1.446-6.367,3.233-4.271,8.252,17.489,0,29.536c0,0-1.392.665-2.563-2.846" transform="translate(-139.897 -36.873)"/></g></svg>