<svg xmlns="http://www.w3.org/2000/svg" viewBox="476 354 415.22 61.396">
  <defs>
    <style>
      .cls-1 {
        font-size: 18px;
        font-family: ComicSansMS, Comic Sans MS;
      }
    </style>
  </defs>
  <g id="XMLID_15_" transform="translate(475.978 353.958)">
    <path id="XMLID_17_" d="M2.9,2.5A51.86,51.86,0,0,1,10.5.8c1.2-.2,4-1.4,5.1-.3,1,1,.2,2.8-.1,3.8-.6,2.8-1.2,5.7-1.9,8.5a.575.575,0,0,1-1.1-.3c.3-1.9.7-3.8,1-5.7.1-.4.6-2.9.8-4.1C7.3,11.7.1,23.3,2.4,35.5c2.5,13,20.3,20.2,31.2,14.1.5-.3,1.1.6.6.9-10.5,6.8-26.7,1-32.3-10.2-3-6.1-1.9-13.2-.2-19.4C3.6,14.3,6.8,7,12.1,2.3c-1.1.3-2.3.7-2.7.8A38.387,38.387,0,0,1,3.5,4.2C2.5,4.3,1.9,2.8,2.9,2.5Z"/>
    <text id="Search_customer_by_name_mobile_and_email" data-name="Search customer by name, mobile and email" class="cls-1" transform="translate(51.241 55.437)"><tspan x="0" y="0">Search customer by name, mobile and email</tspan></text>
  </g>
</svg>
