<svg xmlns="http://www.w3.org/2000/svg" width="20.975" height="20" viewBox="0 0 20.975 20"><defs><style>.a{fill:none;stroke:#000;stroke-width:2px;opacity:0.5;}</style></defs><g transform="translate(-462.325 -144.125)"><path d="M472.812,144.125a.216.216,0,0,0-.106.023l-6.829,3.415a.249.249,0,0,0-.138.221v5.754l-1.814.854a.251.251,0,0,0-.129.289l2.439,8.293a.246.246,0,0,0,.068.114,2.46,2.46,0,0,1-1.539.549,2.355,2.355,0,0,1-2.02-1.151.247.247,0,0,0-.175-.068.244.244,0,0,0-.244.244.249.249,0,0,0,.038.129,3.037,3.037,0,0,0,2.4,1.334,3.122,3.122,0,0,0,2.683-1.7,3.119,3.119,0,0,0,2.683,1.7,3.065,3.065,0,0,0,2.553-1.494.24.24,0,0,0,.259,0,3.065,3.065,0,0,0,2.553,1.494,3.119,3.119,0,0,0,2.683-1.7,3.122,3.122,0,0,0,2.683,1.7,3.037,3.037,0,0,0,2.4-1.334.249.249,0,0,0,.038-.129.244.244,0,0,0-.244-.244.247.247,0,0,0-.175.068,2.355,2.355,0,0,1-2.02,1.151,2.46,2.46,0,0,1-1.539-.549.246.246,0,0,0,.068-.114l2.439-8.293a.251.251,0,0,0-.129-.289l-1.814-.854v-5.754a.249.249,0,0,0-.138-.221l-6.829-3.415A.218.218,0,0,0,472.812,144.125Zm0,.511,6.586,3.292V153.3l-6.479-3.057a.31.31,0,0,0-.046-.015.222.222,0,0,0-.045-.007.043.043,0,0,0-.016,0,.038.038,0,0,0-.015,0,.222.222,0,0,0-.045.007.31.31,0,0,0-.046.015l-6.479,3.057v-5.374Zm-1.349,2.134a.244.244,0,0,0-.1.03l-3.414,1.7a.247.247,0,0,0-.046.023.473.473,0,0,0-.183.35v2.2a.148.148,0,0,0,.229.137l3.414-1.7a.486.486,0,0,0,.229-.373v-2.195C471.593,146.842,471.548,146.768,471.463,146.77Zm2.7,0c-.085,0-.13.072-.13.168v2.195a.486.486,0,0,0,.229.373l3.414,1.7a.148.148,0,0,0,.229-.137v-2.2a.473.473,0,0,0-.183-.35.247.247,0,0,0-.046-.023l-3.414-1.7A.244.244,0,0,0,474.162,146.77Zm-3.026.648V149.1l-2.958,1.479V148.9Zm3.353,0,2.958,1.478v1.685l-2.958-1.479Zm-1.677,3.323,6.769,3.193,1.715.808-.519,1.776-7.843-2.614-.045-.015a.191.191,0,0,0-.153,0l-.045.015-7.843,2.614-.519-1.776,1.715-.808Zm-.243,3.719v7.417a2.572,2.572,0,0,1-4.894-.039.258.258,0,0,0-.457,0,3.142,3.142,0,0,1-.541.892l-1.685-5.747Zm.487,0,7.577,2.523-1.685,5.747a3.142,3.142,0,0,1-.541-.892.258.258,0,0,0-.457,0,2.572,2.572,0,0,1-4.894.039Z"/><path class="a" d="M462.971,163.315"/></g></svg>