<svg xmlns="http://www.w3.org/2000/svg" width="16.73" height="20" viewBox="0 0 16.73 20"><g transform="translate(448.4 -148.1)"><path d="M-444.6,162.473a1.363,1.363,0,0,0,1.369-1.369,1.363,1.363,0,0,0-1.369-1.369,1.363,1.363,0,0,0-1.369,1.369A1.364,1.364,0,0,0-444.6,162.473Zm0-2.231a.855.855,0,0,1,.862.862.855.855,0,0,1-.862.862.856.856,0,0,1-.862-.862A.855.855,0,0,1-444.6,160.242Z"/><path d="M-435.472,162.473A1.364,1.364,0,0,0-434.1,161.1a1.363,1.363,0,0,0-1.369-1.369,1.363,1.363,0,0,0-1.369,1.369A1.363,1.363,0,0,0-435.472,162.473Zm0-2.231a.855.855,0,0,1,.862.862.856.856,0,0,1-.862.862.855.855,0,0,1-.862-.862A.855.855,0,0,1-435.472,160.242Z"/><path d="M-441.885,151.623h3.7a.935.935,0,0,0,.938-.937.953.953,0,0,0-.938-.938h-3.7a.935.935,0,0,0-.938.938A.935.935,0,0,0-441.885,151.623Zm0-1.368h3.7a.427.427,0,0,1,.431.431.443.443,0,0,1-.431.43h-3.7a.426.426,0,0,1-.431-.43A.427.427,0,0,1-441.885,150.255Z"/><path d="M-431.923,163.537h-.355V152.029a2.7,2.7,0,0,0-.812-1.926c-1.216-1.319-3.574-2-6.97-2-3.422,0-5.754.659-6.971,2a2.791,2.791,0,0,0-.811,1.9v11.533h-.3a.24.24,0,0,0-.253.254v1.292a.325.325,0,0,0,.253.254l3.27.2-1.7,2.154a.248.248,0,0,0,.051.355.347.347,0,0,0,.152.051.231.231,0,0,0,.2-.1l.228-.3h11.787l.228.3a.317.317,0,0,0,.2.1.356.356,0,0,0,.152-.051.273.273,0,0,0,.051-.355l-1.7-2.154,3.321-.2a.25.25,0,0,0,.228-.254v-1.292A.24.24,0,0,0-431.923,163.537Zm-14.7-13.1c.761-.836,2.535-1.825,6.591-1.825,4.03,0,5.8.989,6.591,1.825A2.214,2.214,0,0,1-432.76,152v.938h-14.55V152A2.214,2.214,0,0,1-446.626,150.432Zm13.866,8.264v4.841h-14.55V158.7Zm-14.55-.507v-4.766h7.123v4.766Zm7.63,0v-4.766h6.92v4.766Zm4.715,8.441.431.532h-10.982l.411-.532h10.14Zm-.406-.482h-9.353l.456-.583,4.208.254h.05l4.208-.229Zm3.219-1.293-7.883.482-7.833-.482v-.811h15.716Z"/></g></svg>