<svg xmlns="http://www.w3.org/2000/svg" width="73.813" height="21.527" viewBox="0 0 73.813 21.527"><defs><style>.a{fill:#adadad;}</style></defs><g transform="translate(-796 -267)"><path class="a" d="M65.429,137.371c.193-.023.385-.047.575-.082.121-.022.24-.05.36-.075.19-.041.38-.085.567-.136.124-.034.246-.071.368-.11q.271-.085.537-.184c.12-.045.24-.09.358-.139.178-.074.352-.154.526-.237.111-.053.223-.105.332-.163.184-.1.364-.2.543-.309.092-.056.186-.107.277-.165q.36-.231.7-.493c.025-.019.052-.036.077-.055l.006,0c.245.19.5.368.756.535.069.044.14.082.21.125.2.124.4.244.613.354.1.054.207.1.311.152.182.089.365.174.552.252.115.048.231.092.348.136.183.069.366.132.552.191.12.038.241.074.363.108.191.053.384.1.578.14.118.025.236.053.356.074.195.035.391.061.589.084h22.31A10.775,10.775,0,0,0,96.8,115.913H95.037c-.01-.023-.021-.045-.031-.069H92.4l.035.069H77.215a1.191,1.191,0,1,0,0,2.381H96.8a8.394,8.394,0,0,1,0,16.788H77.215a8.51,8.51,0,0,1-.861-.046,8.251,8.251,0,0,1-3.951-1.5A10.786,10.786,0,0,0,64.1,115.913H48.882l.035-.069h-2.61c-.01.023-.021.045-.031.069H44.512a10.774,10.774,0,0,0-1.384,21.458Zm-29.3-10.683a8.386,8.386,0,0,1,8.381-8.394H64.1a8.506,8.506,0,0,1,.861.046,8.273,8.273,0,0,1,4.885,2.255,8.368,8.368,0,0,1,.824,11.3,8.377,8.377,0,0,1-1.833-5.206,1.191,1.191,0,0,0-2.381,0,10.77,10.77,0,0,0,2.472,6.841,8.267,8.267,0,0,1-4.827,1.553H44.512A8.4,8.4,0,0,1,36.131,126.688Z" transform="translate(762.25 151.156)"/></g></svg>