<?xml version="1.0" encoding="utf-8"?>
<!-- Generator: Adobe Illustrator 19.0.0, SVG Export Plug-In . SVG Version: 6.00 Build 0)  -->
<svg version="1.1" id="Layer_1" xmlns="http://www.w3.org/2000/svg" xmlns:xlink="http://www.w3.org/1999/xlink" x="0px" y="0px"
	 viewBox="0 0 43.2 216.6" style="enable-background:new 0 0 43.2 216.6;" xml:space="preserve">
<style type="text/css">
	.st0{fill:#FFFFFF;}
	.st1{fill:#666666;}
	.st2{fill:#35BEEF;}
	.st3{fill:#3BB54A;}
	.st4{fill:#E24097;}
</style>
<rect id="XMLID_112_" x="0" y="0.3" class="st0" width="43.2" height="43.2"/>
<g id="XMLID_3_">
	<path id="XMLID_57_" class="st1" d="M15.2,18.3v8.1c0,0.2,0.2,0.3,0.3,0.3h13.3c0.2,0,0.3-0.1,0.3-0.3v-8.1c0-0.2-0.1-0.3-0.3-0.3
		H15.6C15.4,18,15.2,18.1,15.2,18.3z M28.6,26.1h-4.3v-7.6h4.3V26.1z M15.9,18.6h7.9v7.6h-7.9V18.6z"/>
	<path id="XMLID_32_" class="st1" d="M28.8,27.6h-4.3c-0.2,0-0.3,0.1-0.3,0.3c0,0.1,0.2,0.3,0.3,0.3h4.4c0.2,0,0.3-0.1,0.3-0.3
		C29.1,27.7,29,27.6,28.8,27.6z"/>
	<path id="XMLID_11_" class="st1" d="M26.4,15.5c-0.1-0.1-0.2-0.1-0.2-0.1c-0.1,0-0.2,0.1-0.2,0.2c0,0.2,0.4,0.4,1,0.4v0.2
		c0,0.1,0,0.1,0.1,0.1c0.1,0,0.1,0,0.1-0.1V16c0.3-0.1,0.5-0.1,0.7-0.3c0.1-0.1,0.3-0.5,0.3-0.7c0-0.3-0.1-0.5-0.4-0.7
		c-0.1-0.1-0.3-0.1-0.6-0.3v-1c0.2,0,0.2,0.1,0.4,0.1c0.1,0.1,0.2,0.1,0.2,0.1c0.1,0,0.2-0.1,0.2-0.2c0-0.2-0.3-0.3-0.8-0.4v-0.2
		c0-0.1,0-0.1-0.1-0.1c-0.1,0-0.1,0-0.1,0.1v0.2c-0.3,0.1-0.5,0.1-0.7,0.3c-0.2,0.2-0.2,0.3-0.2,0.5c0,0.3,0.1,0.5,0.4,0.6
		c0.1,0.1,0.3,0.1,0.6,0.2v1.3C26.8,15.6,26.6,15.6,26.4,15.5z M27.2,14.4c0.4,0.1,0.5,0.3,0.5,0.5c0,0.3-0.2,0.5-0.5,0.6V14.4z
		 M26.5,13.4c0-0.3,0.2-0.4,0.5-0.5v1C26.6,13.8,26.5,13.7,26.5,13.4z"/>
	<g id="XMLID_4_">
		<path id="XMLID_258_" class="st1" d="M13,10.8c-0.5,0-1,0.4-1,1v18.2c0,0.5,0.5,1,1,1h17.2c0.6,0,1-0.5,1-1V11.8c0-0.6-0.4-1-1-1
			H13z M30.6,29.4c0,0.6-0.5,1-1,1H13.7c-0.5,0-1-0.4-1-1v-17c0-0.6,0.5-1,1-1h15.9c0.5,0,1,0.4,1,1V29.4z"/>
	</g>
</g>
<rect id="XMLID_33_" x="0" y="43.6" class="st0" width="43.2" height="43.2"/>
<g id="XMLID_2_">
	<path id="XMLID_8_" class="st1" d="M28.9,56c-0.1,0-0.2,0-0.3,0.1l-0.5,0.5l-0.8,0.8L27,57.7l0.3,0.3l1.5,1.5l0.3,0.3l0.3-0.3
		l0.8-0.8l0.5-0.5c0.2-0.2,0.2-0.5,0-0.6l-1.5-1.5C29.2,56,29.1,56,28.9,56z"/>
	<polygon id="XMLID_7_" class="st1" points="26.5,58.3 19.7,65.1 19.1,65.7 19.4,66 21,67.6 21.3,67.8 21.8,67.3 28.6,60.5 	"/>
	<path id="XMLID_6_" class="st1" d="M18.6,66.2L18.6,66.2l-0.1,0.4L18,68.3l-0.1,0.5c-0.1,0.2,0.1,0.3,0.3,0.3l0.5-0.1l1.7-0.5
		l0.4-0.1l0,0l-0.1-0.1L18.6,66.2L18.6,66.2L18.6,66.2z"/>
	<path id="XMLID_5_" class="st1" d="M19.5,58v-2.1h-6.1c-0.6,0-1,0.5-1,1v16.5c0,0.6,0.5,1,1,1h16.5c0.6,0,1-0.5,1-1v-6.1h-2.1v5.1
		H14.4V58H19.5z"/>
</g>
<rect id="XMLID_44_" x="0" y="86.8" class="st0" width="43.2" height="43.2"/>
<g id="XMLID_38_">
	<circle id="XMLID_43_" class="st2" cx="29" cy="101.1" r="3.7"/>
	<g id="XMLID_41_">
		<circle id="XMLID_42_" class="st3" cx="21.6" cy="108.4" r="3.7"/>
	</g>
	<g id="XMLID_39_">
		<circle id="XMLID_40_" class="st4" cx="14.2" cy="115.8" r="3.7"/>
	</g>
</g>
<rect id="XMLID_47_" x="0" y="130.1" class="st0" width="43.2" height="43.2"/>
<g id="XMLID_45_">
	<path id="XMLID_46_" class="st1" d="M13.1,142.2h17l0.1,6.2h-1.7l-0.1-1.8c-0.1-1-0.4-1.7-0.9-2.1c-0.5-0.4-1.3-0.6-2.5-0.6
		c-0.8,0-1.4,0.1-1.7,0.4c-0.3,0.3-0.4,0.9-0.4,1.8l0,11.3c0,0.9,0.1,1.5,0.4,1.8c0.3,0.3,0.9,0.4,1.7,0.4h1.2v1.6h-9.5v-1.6h1.4
		c0.7,0,1.3-0.2,1.6-0.5c0.3-0.3,0.4-0.9,0.4-1.8V146c0-0.9-0.1-1.5-0.5-1.8c-0.3-0.3-0.9-0.4-1.7-0.4c-1.1,0-1.9,0.2-2.5,0.6
		c-0.5,0.4-0.8,1.1-0.9,2.1l-0.1,1.8H13L13.1,142.2z"/>
</g>
<rect id="XMLID_70_" x="0" y="173.3" class="st0" width="43.2" height="43.2"/>
<g id="XMLID_48_" transform="translate(-140.26838,-350.00652)">
	<path id="XMLID_54_" class="st1" d="M158.6,534.9c-1.3,0-2.4,1.1-2.4,2.4v1.6h-2.6c-1.4,0-2.6,1.2-2.6,2.6v7.1
		c0,1.4,1.2,2.6,2.6,2.6h1.8v3.3c0,0.2,0.2,0.4,0.4,0.4H168c0.2,0,0.4-0.2,0.4-0.4v-3.3h1.9c1.4,0,2.6-1.2,2.6-2.6v-7.1
		c0-1.4-1.2-2.6-2.6-2.6h-2.6v-1.6c0-1.3-1.1-2.4-2.4-2.4H158.6z M158.6,535.7h6.6c0.9,0,1.7,0.7,1.7,1.7v1.6h-9.9v-1.6
		C156.9,536.4,157.7,535.7,158.6,535.7z M153.5,539.7h3h10.7h3c1,0,1.8,0.8,1.8,1.8v7.1c0,1-0.8,1.8-1.8,1.8h-1.9v-3.3
		c0-0.2-0.2-0.4-0.4-0.4h-12.3c-0.2,0-0.4,0.2-0.4,0.4v3.3h-1.8c-1,0-1.8-0.8-1.8-1.8v-7.1C151.7,540.5,152.5,539.7,153.5,539.7
		L153.5,539.7z M166.1,541.1c-0.2,0-0.4,0.2-0.4,0.4v2.3c0,0.2,0.2,0.4,0.4,0.4h2.3c0.2,0,0.4-0.2,0.4-0.4v-2.3
		c0-0.2-0.2-0.4-0.4-0.4H166.1z M166.5,541.9h1.5v1.5h-1.5V541.9z M156.2,547.6h11.5v3.3v3.3h-11.5v-3.3v0V547.6L156.2,547.6z
		 M157.7,548.9c-0.2,0-0.4,0.2-0.4,0.4c0,0.2,0.2,0.4,0.4,0.4h8.4c0.2,0,0.4-0.2,0.4-0.4c0-0.2-0.2-0.4-0.4-0.4H157.7z M157.7,550.5
		c-0.2,0-0.4,0.2-0.4,0.4c0,0.2,0.2,0.4,0.4,0.4h8.4c0.2,0,0.4-0.2,0.4-0.4c0-0.2-0.2-0.4-0.4-0.4H157.7z M157.7,552.2
		c-0.2,0-0.4,0.2-0.4,0.4c0,0.2,0.2,0.4,0.4,0.4h8.4c0.2,0,0.4-0.2,0.4-0.4c0-0.2-0.2-0.4-0.4-0.4H157.7z"/>
</g>
</svg>
