<?xml version="1.0" encoding="utf-8"?>
<!-- Generator: Adobe Illustrator 19.0.0, SVG Export Plug-In . SVG Version: 6.00 Build 0)  -->
<svg version="1.1" id="Layer_1" xmlns="http://www.w3.org/2000/svg" xmlns:xlink="http://www.w3.org/1999/xlink" x="0px" y="0px"
	 viewBox="0 0 133.1 40.5" style="enable-background:new 0 0 133.1 40.5;" xml:space="preserve">
<style type="text/css">
	.st0{opacity:0.5;fill-rule:evenodd;clip-rule:evenodd;}
</style>
<path id="XMLID_96_" class="st0" d="M37.4,35.3c1.5,0.3,3,0.6,4.6,0.7c1.5,0.1,2.8,0.6,4.3,0.8c1.9,0.3,3.8,0.5,5.7,0.7
	c13.7,1.4,27.8,1.8,41.5,0c11.1-1.5,21.9-4.6,30.5-9.5c2.3-1.3,4.5-2.7,5.9-4.5c1.4-1.8,1.9-3.9,0.8-5.8c-0.8-1.5-2.6-2.6-4.4-3.6
	c-4.5-2.3-9.9-3.8-15.3-5c-27.7-6-58.5-5.3-85.5,1.8c8.4-3.4,18-5.2,27.8-6s19.6-0.6,29.4-0.1c14.2,0.7,28.9,2.1,41,7.2
	c5,2.1,9.8,5.3,9.4,9.2c-0.3,2.3-2.3,4.3-4.7,6c-7,5.1-16.7,8.4-26.8,10.5c-19.4,4-40.4,3.5-60,0.1c-10.2-1.8-20.8-4.1-29.4-8.1
	c-3.7-1.7-6.4-3.7-9.2-6c-1.3-1.1-2.3-2.2-2.7-3.6c-0.1-0.3-0.2-0.6-0.3-0.9c0-0.8,0-1.6,0-2.4c0.2-0.4,0.5-0.7,0.6-1.1
	C1,14.5,2,13.5,3,12.5c1.6-1.7,3.8-2.9,6.2-4.1c7.6-3.7,16.8-5.6,26-6.8c4.9-0.6,9.9-1.1,14.9-1.4C52.7,0.1,55.3,0,57.9,0
	c1.3,0,2.7,0,4,0c1,0,2.3-0.1,3.1,0.2c-0.5,0.4-2,0.5-2.7,0.6c-1.5,0.2-3,0.3-4.5,0.4c-3.2,0.2-6.3,0.2-9.5,0.4
	c-0.8,0.1-1.7,0.1-2.5,0.2c-3.3,0.3-6.6,0.6-9.9,1c-2.9,0.4-5.8,0.9-8.6,1.4C26.1,4.5,25,4.7,24,4.9c-6.8,1.5-14,3.6-18.6,7.4
	c-1.6,1.3-2.8,2.8-3.2,4.4c-0.6,2.5,1,5.1,3.4,7.1c2.7,2.3,6.3,3.8,9.9,5.3c1.1,0.5,2.1,1,3.2,1.5c0.9,0.3,1.8,0.5,2.7,0.8"/>
<path id="XMLID_1_" class="st0" d="M16,62.8"/>
<path id="XMLID_93_" class="st0" d="M10.2,60.5"/>
</svg>
