<?xml version="1.0" encoding="utf-8"?>
<!-- Generator: Adobe Illustrator 19.0.0, SVG Export Plug-In . SVG Version: 6.00 Build 0)  -->
<svg version="1.1" id="Layer_1" xmlns="http://www.w3.org/2000/svg" xmlns:xlink="http://www.w3.org/1999/xlink" x="0px" y="0px"
	 viewBox="-3 4 13 13" style="enable-background:new -3 4 13 13;" xml:space="preserve">
<style type="text/css">
	.st0{fill:none;}
	.st1{fill:#231F20;}
</style>
<g id="Group_478" transform="translate(-1297.681 -13.499)">
	<g id="Group_10" transform="translate(1297.681 13.499)">
		<g id="Path_6">
			<path d="M45.3,13.2c-2.3,1.6-5.4,1.1-7.1-1.1c-1.6-2.1-1.2-5,0.7-6.7c1.9-1.7,4.8-1.7,6.7-0.1c2.1,1.7,2.4,4.8,0.7,6.9
				c0,0-0.1,0.1-0.1,0.1l3.4,3.4c0.2,0.2,0.3,0.5,0.1,0.8c0,0,0,0.1-0.1,0.1l0,0c-0.2,0.2-0.6,0.3-0.8,0.1c0,0,0,0-0.1-0.1
				C47.6,15.5,46.4,14.4,45.3,13.2z M42.3,4.8c-2.4,0-4.4,2.1-4.3,4.5c0,2.4,2.1,4.4,4.5,4.3c2.4,0,4.3-2,4.3-4.4
				c0-2.4-1.9-4.4-4.3-4.4C42.4,4.8,42.3,4.8,42.3,4.8z"/>
			<path d="M49.2,17.1c-0.2,0-0.4-0.1-0.5-0.2c0,0-0.1,0-0.1-0.1c-0.4-0.4-0.8-0.7-1.2-1.1c-0.7-0.7-1.5-1.4-2.2-2.2
				c-2.4,1.5-5.5,1-7.3-1.2c-1.6-2.2-1.3-5.2,0.8-6.9c2-1.8,5-1.8,7-0.1c1.1,0.9,1.7,2.1,1.9,3.4c0.1,1.4-0.3,2.7-1.1,3.7l3.3,3.2
				c0.1,0.1,0.2,0.3,0.3,0.5c0,0.2,0,0.4-0.2,0.6c0,0-0.1,0.1-0.1,0.1C49.7,17,49.5,17.1,49.2,17.1C49.3,17.1,49.3,17.1,49.2,17.1z
				 M45.3,13l0.1,0.1c0.7,0.8,1.5,1.5,2.3,2.3c0.4,0.4,0.8,0.8,1.2,1.1l0,0c0.1,0.1,0.2,0.1,0.3,0.1c0.1,0,0.2,0,0.2-0.1
				c0,0,0.1-0.1,0.1-0.1c0.1-0.1,0.1-0.2,0.1-0.2c0-0.1-0.1-0.2-0.1-0.2L46,12.5l0.1-0.2c0,0,0.1-0.1,0.1-0.1c0.8-1,1.2-2.2,1-3.4
				c-0.1-1.2-0.7-2.4-1.7-3.2C43.7,4,40.9,4,39.1,5.7c-1.9,1.6-2.2,4.4-0.7,6.4c1.6,2.1,4.6,2.6,6.8,1.1L45.3,13z M42.4,13.8
				c-2.5,0-4.6-2-4.6-4.5c0-2.5,2-4.6,4.5-4.7c0.1,0,0.1,0,0.2,0C45,4.6,47,6.7,47,9.2C47,11.7,45,13.7,42.4,13.8
				C42.4,13.8,42.4,13.8,42.4,13.8z M42.4,5c0,0-0.1,0-0.1,0l0,0c-2.3,0-4.1,2-4.1,4.3c0,2.3,1.9,4.2,4.3,4.1c2.3,0,4.1-1.9,4.1-4.2
				C46.6,6.9,44.7,5,42.4,5C42.4,5,42.4,5,42.4,5z"/>
		</g>
	</g>
</g>
<g>
	<g>
		<rect x="-3" y="44" width="13" height="1.9"/>
		<rect x="-3" y="49.5" width="13" height="1.9"/>
		<rect x="-3" y="55.1" width="13" height="1.9"/>
	</g>
</g>
<g>
	<polygon class="st0" points="1.1,9.8 -1.8,9.8 -1.8,15.8 4.2,15.8 4.2,13 1.1,13 	"/>
	<polygon class="st0" points="2.4,11.6 4.2,11.6 4.2,11.2 4.2,9.8 2.4,9.8 	"/>
	<polygon class="st0" points="2.8,8.5 2.8,8.5 5.5,8.5 5.5,11.2 8.8,11.2 8.8,5.2 2.8,5.2 	"/>
	<path class="st1" d="M1.5,4v4.5H-3V17h8.5v-4.5H10V4H1.5z M4.2,15.8h-6v-6h2.9V13h3.1V15.8z M4.2,11.2v0.3v0.2H2.4v-2h0h1.8V11.2z
		 M8.8,11.2H5.5V8.5H2.8v0V5.2h6V11.2z"/>
	<polygon class="st1" points="2.4,9.8 2.4,9.8 2.4,11.8 4.2,11.8 4.2,11.6 2.4,11.6 	"/>
</g>
</svg>
