<svg xmlns="http://www.w3.org/2000/svg" width="53.218" height="60" viewBox="0 0 53.218 60"><defs><style>.a{fill:#d8f0c8;}.b{fill:#c2e9f9;}.c{fill:#545e65;}</style></defs><g transform="translate(-63.215 -30.251)"><path class="a" d="M184.578,34.425a4.437,4.437,0,0,1,1.662-.144,4.436,4.436,0,0,1-.147-1.662,4.441,4.441,0,0,1-1.661.144,4.438,4.438,0,0,1,.147,1.661m4.033.861-.97,1.156a2.888,2.888,0,0,0-4.064.352l-1.158-.971a2.888,2.888,0,0,0-.359-4.063l.97-1.156a2.888,2.888,0,0,0,4.064-.352l1.158.971a2.888,2.888,0,0,0,.359,4.064" transform="translate(-94.939)"/><path class="a" d="M193.594,300.179a4.438,4.438,0,0,1,1.661-.144,4.442,4.442,0,0,1-.147-1.661,4.436,4.436,0,0,1-1.661.144,4.442,4.442,0,0,1,.147,1.661m4.032.861-.97,1.156a2.888,2.888,0,0,0-4.064.352l-1.158-.971a2.888,2.888,0,0,0-.358-4.064l.97-1.156a2.888,2.888,0,0,0,4.064-.352l1.158.971a2.888,2.888,0,0,0,.358,4.064" transform="translate(-102.142 -212.297)"/><path class="b" d="M139.259,130.6a9.357,9.357,0,1,0,13.173-1.141,9.36,9.36,0,0,0-13.173,1.141m15.493,13a10.868,10.868,0,1,1-1.351-15.3,10.871,10.871,0,0,1,1.351,15.3" transform="translate(-57.801 -76.298)"/><path class="b" d="M169.308,139.842l-.97,1.156a6.92,6.92,0,0,0-9.738.844l-1.158-.971a8.431,8.431,0,0,1,11.866-1.028" transform="translate(-75.273 -85.972)"/><path class="b" d="M223.383,169.667l-1.472-.339a6.921,6.921,0,0,0-.286-4.028l1.41-.538a8.419,8.419,0,0,1,.348,4.905" transform="translate(-126.546 -107.454)"/><path class="c" d="M162.419,143.266A2.726,2.726,0,0,0,161.3,141.4l-13.154-9.348-.415.5-1.06-.889a13.818,13.818,0,1,0-3.218,3.835l1.06.889-.415.5,11.49,11.33a2.714,2.714,0,0,0,3.986-.184l2.237-2.666A2.718,2.718,0,0,0,162.419,143.266Zm-35.7-9.012a12.309,12.309,0,1,1,17.358-1.5A12.334,12.334,0,0,1,126.721,134.254Zm17.846.2c.23-.237.454-.48.67-.736s.415-.52.608-.787l.913.766-.132.157-1.146,1.366Zm16.083,9.926-2.237,2.666a1.2,1.2,0,0,1-1.769.081l-10.5-10.351,2.259-2.692,12.017,8.54a1.206,1.206,0,0,1,.227,1.756Z" transform="translate(-46.008 -64.508)"/><path class="c" d="M257.7,95.182l-4.883,4.27-1-1.137,4.882-4.27Z" transform="translate(-150.665 -50.962)"/><path class="c" d="M119.86,75.526l-1.291.781L115.2,70.752l1.291-.781Z" transform="translate(-41.531 -31.73)"/><path class="c" d="M69.362,139.006l-6.147-2.1.486-1.428,6.147,2.1Z" transform="translate(0 -84.062)"/><path class="c" d="M71.514,211.483l-6.051,2.34-.547-1.408,6.051-2.34Z" transform="translate(-1.359 -143.652)"/><path class="c" d="M121.139,266.473l-1.324-.729,3.124-5.684,1.324.729Z" transform="translate(-45.215 -183.583)"/><path class="c" d="M283.964,175.027l-6.49.129-.032-1.509,6.49-.129Z" transform="translate(-171.135 -114.449)"/></g></svg>