<svg xmlns="http://www.w3.org/2000/svg" width="373" height="222.31" viewBox="0 0 373 222.31"><defs><style>.a{fill:#bcdfc1;}.b{fill:#010101;}.c{fill:#0c8fe6;opacity:0.065;}.d{fill:#c7cbd3;}.e{fill:#aab0ba;}.e,.j{opacity:0.55;}.f{fill:#454349;}.g{fill:#cdcfd6;}.h{fill:#e7e8eb;}.i,.j{fill:#65739a;}.k{fill:#77848b;opacity:0.5;}.l{fill:#9ba0ae;}.m,.q{fill:#c78b5b;}.n{fill:#e5be84;}.o{fill:#ead2b8;}.p{fill:#f7efe6;}.q,.r{opacity:0.32;}.r{fill:#b05f2e;}.s{fill:#afaaad;}.t{fill:#fff;}</style></defs><g transform="translate(-535 -171.908)"><g transform="translate(541.695 392.934)"><path d="M23.438,384.216H12.558a.558.558,0,1,1,0-1.116H23.494a.527.527,0,0,1,.558.558A.573.573,0,0,1,23.438,384.216Z" transform="translate(-12 -383.1)"/></g><g transform="translate(535 340.319)"><path class="a" d="M24.773,306.878c0,9.987-5.524,18.078-12.387,18.078S0,316.865,0,306.878,5.524,288.8,12.387,288.8,24.773,296.89,24.773,306.878Z" transform="translate(0 -288.8)"/><g transform="translate(11.829 14.339)"><rect class="b" width="1.116" height="39.224"/></g><g transform="translate(12.006 22.556)"><rect class="b" width="1.116" height="8.76" transform="translate(0.789 6.983) rotate(-135)"/></g><g transform="translate(6.885 19.663)"><rect class="b" width="7.198" height="1.116" transform="matrix(-0.707, -0.707, 0.707, -0.707, 5.09, 5.878)"/></g></g><path class="c" d="M213.691,40.148h6.137a6.065,6.065,0,0,1-.056-1A10.835,10.835,0,0,1,230.6,28.319a10.339,10.339,0,0,1,3.738.67,13.777,13.777,0,0,1,24.55,8.592,19.093,19.093,0,0,1-.223,2.567h1.562a5.635,5.635,0,1,1,0,11.271H213.635A5.62,5.62,0,0,1,208,45.783,5.778,5.778,0,0,1,213.691,40.148Z" transform="translate(619.054 156.661)"/><g transform="translate(547.984 240.296)"><path class="b" d="M70.4,192.514a.858.858,0,0,1-.837-.837,3.382,3.382,0,0,0-3.4-3.4H63.537a.837.837,0,0,1,0-1.674h2.622a5.1,5.1,0,0,1,5.077,5.077A.858.858,0,0,1,70.4,192.514Z" transform="translate(-62.7 -186.6)"/><g transform="translate(6.863)"><path class="b" d="M75.837,192.514a.858.858,0,0,1-.837-.837,5.1,5.1,0,0,1,5.077-5.077h3.069a.837.837,0,0,1,0,1.674H80.077a3.382,3.382,0,0,0-3.4,3.4A.858.858,0,0,1,75.837,192.514Z" transform="translate(-75 -186.6)"/></g></g><g transform="translate(642.731 217.852)"><path class="b" d="M127.3,53.714a.858.858,0,0,1-.837-.837,3.382,3.382,0,0,0-3.4-3.4h-2.622a.837.837,0,0,1,0-1.674h2.622a5.1,5.1,0,0,1,5.077,5.077A.822.822,0,0,1,127.3,53.714Z" transform="translate(-119.6 -47.8)"/><g transform="translate(6.863)"><path class="b" d="M132.737,53.714a.858.858,0,0,1-.837-.837,5.1,5.1,0,0,1,5.077-5.077h3.069a.837.837,0,0,1,0,1.674h-3.069a3.382,3.382,0,0,0-3.4,3.4A.822.822,0,0,1,132.737,53.714Z" transform="translate(-131.9 -47.8)"/></g></g><g transform="translate(703.733 171.908)"><path class="b" d="M220.5,53.814a.858.858,0,0,1-.837-.837,3.382,3.382,0,0,0-3.4-3.4h-2.622a.837.837,0,0,1,0-1.674h2.622a5.1,5.1,0,0,1,5.077,5.077A.858.858,0,0,1,220.5,53.814Z" transform="translate(-212.8 -47.9)"/><g transform="translate(6.863)"><path class="b" d="M225.937,53.814a.858.858,0,0,1-.837-.837,5.1,5.1,0,0,1,5.077-5.077h3.069a.837.837,0,0,1,0,1.674h-3.069a3.382,3.382,0,0,0-3.4,3.4A.858.858,0,0,1,225.937,53.814Z" transform="translate(-225.1 -47.9)"/></g></g><g transform="translate(738.253 247.926)"><path class="b" d="M298.5,107.614a.858.858,0,0,1-.837-.837,3.382,3.382,0,0,0-3.4-3.4h-2.622a.837.837,0,0,1,0-1.674h2.622a5.1,5.1,0,0,1,5.077,5.077A.858.858,0,0,1,298.5,107.614Z" transform="translate(-290.8 -101.7)"/><g transform="translate(6.863)"><path class="b" d="M303.937,107.614a.858.858,0,0,1-.837-.837,5.1,5.1,0,0,1,5.077-5.077h3.069a.837.837,0,0,1,0,1.674h-3.069a3.382,3.382,0,0,0-3.4,3.4A.858.858,0,0,1,303.937,107.614Z" transform="translate(-303.1 -101.7)"/></g></g><g transform="translate(761.464 191.182)"><g transform="translate(0 0)"><path class="b" d="M340.1,5.914a.858.858,0,0,1-.837-.837,3.382,3.382,0,0,0-3.4-3.4h-2.622A.858.858,0,0,1,332.4.837.858.858,0,0,1,333.237,0h2.622a5.1,5.1,0,0,1,5.077,5.077A.858.858,0,0,1,340.1,5.914Z" transform="translate(-332.4 0)"/></g><g transform="translate(6.863)"><path class="b" d="M345.537,5.914a.858.858,0,0,1-.837-.837A5.1,5.1,0,0,1,349.777,0h3.069a.858.858,0,0,1,.837.837.858.858,0,0,1-.837.837h-3.069a3.382,3.382,0,0,0-3.4,3.4A.858.858,0,0,1,345.537,5.914Z" transform="translate(-344.7)"/></g></g><g transform="translate(558 392.544)"><path d="M402.931,384.074H56.069c-.837,0-1.569-.391-1.569-.837s.732-.837,1.569-.837H402.931c.837,0,1.569.391,1.569.837S403.768,384.074,402.931,384.074Z" transform="translate(-54.5 -382.4)"/></g><g transform="translate(549.893 181.3)"><g transform="translate(25.107 73.169)"><rect class="d" width="295.409" height="137.999" transform="translate(10.825)"/><rect class="e" width="295.409" height="39.851" transform="translate(10.825)"/><path class="f" d="M342.167,102.257H25.107L33.627,75.4H333.646Z" transform="translate(-25.107 -75.397)"/><g transform="translate(26.402 53.412)"><rect class="g" width="50.157" height="21.651"/><rect class="g" width="50.157" height="21.65" transform="translate(0 39.332)"/><rect class="g" width="50.157" height="21.651" transform="translate(63.045)"/></g><g transform="translate(27.304 52.119)"><rect class="h" width="50.157" height="21.651"/><rect class="i" width="45.286" height="16.238" transform="translate(2.436 2.706)"/><path class="j" d="M101.993,149.892H56.707V133.654Z" transform="translate(-54.272 -130.948)"/><rect class="g" width="1.985" height="16.238" transform="translate(24.086 2.706)"/><rect class="g" width="45.286" height="1.985" transform="translate(2.435 9.833)"/></g><g transform="translate(27.304 91.451)"><rect class="h" width="50.157" height="21.65"/><rect class="i" width="45.286" height="16.238" transform="translate(2.436 2.706)"/><path class="j" d="M101.993,191.685H56.707V175.447Z" transform="translate(-54.272 -172.741)"/><rect class="g" width="1.985" height="16.238" transform="translate(24.086 2.706)"/><rect class="g" width="45.286" height="1.985" transform="translate(2.435 9.832)"/></g><g transform="translate(90.349 52.119)"><rect class="h" width="50.157" height="21.651"/><rect class="i" width="45.286" height="16.238" transform="translate(2.436 2.706)"/><path class="j" d="M168.984,149.892H123.7V133.654Z" transform="translate(-121.263 -130.948)"/><rect class="g" width="1.985" height="16.238" transform="translate(24.086 2.706)"/><rect class="g" width="45.286" height="1.985" transform="translate(2.435 9.833)"/></g><g transform="translate(95.783 88.083)"><rect class="g" width="37.304" height="49.916"/><rect class="f" width="30.424" height="46.548" transform="translate(3.44 3.368)"/></g><g transform="translate(173.125 49.473)"><rect class="h" width="107.971" height="85.88" transform="translate(0.842 2.646)"/><rect class="i" width="101.799" height="85.88" transform="translate(3.928 2.646)"/><path class="k" d="M301.611,210.774v-18.2h-4.039V184.4h-6.137v-6.188h-20.51v6H255.841v26.558Z" transform="translate(-211.822 -130.926)"/><path class="k" d="M234.716,186.788v-8.169h-6.137v-6.188H213.241v32.558h25.514v-18.2Z" transform="translate(-209.313 -130.586)"/><path class="k" d="M320.6,181.047h-2.81v4.328h-6.137v5.714h-4.039V203.82H320.6Z" transform="translate(-214.871 -131.093)"/><rect class="f" width="109.655" height="4.571" transform="translate(0)"/><rect class="f" width="101.799" height="12.909" transform="translate(3.928 75.618)"/><rect class="g" width="101.799" height="34.039" transform="translate(3.928 4.571)"/><rect class="l" width="101.799" height="1.924" transform="translate(3.928 8.42)"/><rect class="l" width="101.799" height="1.924" transform="translate(3.928 13.501)"/><rect class="l" width="101.799" height="1.924" transform="translate(3.928 18.583)"/><rect class="l" width="101.799" height="1.924" transform="translate(3.928 23.665)"/><rect class="l" width="101.799" height="1.924" transform="translate(3.928 28.746)"/><rect class="l" width="101.799" height="1.924" transform="translate(3.928 33.828)"/><g transform="translate(3.917 46.399)"><g transform="translate(15.085)"><rect class="m" width="15.422" height="22.407"/><rect class="n" width="15.26" height="22.407" transform="translate(5.249)"/><rect class="o" width="3.58" height="4.619" transform="translate(11.911)"/><rect class="o" width="3.58" height="4.619" transform="translate(11.911 17.788)"/><g transform="translate(6.122 18.726)"><rect class="p" width="4.724" height="2.854"/><g transform="translate(0.216 0.4)"><rect class="f" width="0.501" height="2.054"/><rect class="f" width="0.176" height="2.054" transform="translate(0.806)"/><rect class="f" width="0.411" height="2.054" transform="translate(1.702)"/><rect class="f" width="0.251" height="2.054" transform="translate(1.184)"/><rect class="f" width="0.17" height="2.054" transform="translate(2.42)"/><rect class="f" width="0.34" height="2.054" transform="translate(3.223)"/><rect class="f" width="0.168" height="2.054" transform="translate(3.68)"/><rect class="f" width="0.233" height="2.054" transform="translate(2.838)"/><rect class="f" width="0.251" height="2.054" transform="translate(4.029)"/></g></g></g><rect class="q" width="13.461" height="14.434" transform="translate(22.133 7.973)"/><g transform="translate(0 8.834)"><rect class="m" width="14.718" height="14.419"/><rect class="n" width="14.627" height="14.42" transform="translate(4.178)"/><rect class="o" width="3.925" height="3.71" transform="translate(9.529)"/><rect class="o" width="3.925" height="3.71" transform="translate(9.529 10.709)"/><g transform="translate(4.879 11.463)"><rect class="p" width="3.795" height="2.293"/><g transform="translate(0.173 0.321)"><rect class="f" width="0.403" height="1.65"/><rect class="f" width="0.141" height="1.65" transform="translate(0.647)"/><rect class="f" width="0.33" height="1.65" transform="translate(1.367)"/><rect class="f" width="0.201" height="1.65" transform="translate(0.951)"/><rect class="f" width="0.136" height="1.65" transform="translate(1.944)"/><rect class="f" width="0.273" height="1.65" transform="translate(2.589)"/><rect class="f" width="0.136" height="1.65" transform="translate(2.955)"/><rect class="f" width="0.187" height="1.65" transform="translate(2.28)"/><rect class="f" width="0.201" height="1.65" transform="translate(3.236)"/></g></g></g><rect class="q" width="13.612" height="10.883" transform="translate(5.192 12.371)"/><g transform="translate(25.826 9.112)"><rect class="m" width="12.456" height="12.172"/><rect class="n" width="12.347" height="12.172" transform="translate(3.559)"/><rect class="o" width="1.966" height="3.132" transform="translate(8.749)"/><rect class="o" width="1.966" height="3.132" transform="translate(8.749 9.04)"/><g transform="translate(11.829 9.676)"><rect class="p" width="3.203" height="1.935"/><g transform="translate(0.146 0.271)"><rect class="f" width="0.34" height="1.392"/><rect class="f" width="0.119" height="1.392" transform="translate(0.546)"/><rect class="f" width="0.279" height="1.392" transform="translate(1.154)"/><rect class="f" width="0.17" height="1.392" transform="translate(0.803)"/><rect class="f" width="0.115" height="1.392" transform="translate(1.641)"/><rect class="f" width="0.23" height="1.392" transform="translate(2.185)"/><rect class="f" width="0.114" height="1.392" transform="translate(2.495)"/><rect class="f" width="0.158" height="1.392" transform="translate(1.924)"/><rect class="f" width="0.17" height="1.392" transform="translate(2.732)"/></g></g></g><g transform="translate(29.864 21.14)"><rect class="m" width="12.457" height="12.172"/><rect class="n" width="12.347" height="12.172" transform="translate(3.559)"/><rect class="o" width="3.313" height="3.132" transform="translate(8.076)"/><rect class="o" width="3.313" height="3.132" transform="translate(8.076 9.04)"/><g transform="translate(4.151 9.676)"><rect class="p" width="3.203" height="1.935"/><g transform="translate(0.146 0.271)"><rect class="f" width="0.34" height="1.393"/><rect class="f" width="0.119" height="1.393" transform="translate(0.546)"/><rect class="f" width="0.279" height="1.393" transform="translate(1.154)"/><rect class="f" width="0.17" height="1.393" transform="translate(0.802)"/><rect class="f" width="0.115" height="1.393" transform="translate(1.641)"/><rect class="f" width="0.23" height="1.393" transform="translate(2.185)"/><rect class="f" width="0.114" height="1.393" transform="translate(2.495)"/><rect class="f" width="0.158" height="1.393" transform="translate(1.924)"/><rect class="f" width="0.17" height="1.393" transform="translate(2.732)"/></g></g></g><g transform="translate(7.533 14.375)"><rect class="m" width="19.381" height="18.937"/><rect class="n" width="19.21" height="18.937" transform="translate(5.537)"/><rect class="o" width="5.154" height="4.873" transform="translate(12.565)"/><rect class="o" width="5.154" height="4.873" transform="translate(12.565 14.065)"/><g transform="translate(6.458 15.055)"><rect class="p" width="4.984" height="3.011"/><g transform="translate(0.228 0.422)"><rect class="f" width="0.529" height="2.167"/><rect class="f" width="0.186" height="2.167" transform="translate(0.85)"/><rect class="f" width="0.433" height="2.167" transform="translate(1.795)"/><rect class="f" width="0.264" height="2.167" transform="translate(1.249)"/><rect class="f" width="0.179" height="2.167" transform="translate(2.553)"/><rect class="f" width="0.358" height="2.167" transform="translate(3.4)"/><rect class="f" width="0.178" height="2.167" transform="translate(3.881)"/><rect class="f" width="0.246" height="2.167" transform="translate(2.994)"/><rect class="f" width="0.264" height="2.167" transform="translate(4.25)"/></g></g></g><g transform="translate(0 21.14)"><rect class="m" width="6.48" height="12.172"/><rect class="n" width="9.929" height="12.172"/><rect class="o" width="3.313" height="3.132" transform="translate(2.099)"/><rect class="o" width="3.313" height="3.132" transform="translate(2.099 9.04)"/><g transform="translate(0 9.676)"><rect class="p" width="1.377" height="1.935"/><g transform="translate(0.245 0.271)"><rect class="f" width="0.23" height="1.393" transform="translate(0.261)"/><rect class="f" width="0.114" height="1.393" transform="translate(0.571)"/><rect class="f" width="0.158" height="1.393"/><rect class="f" width="0.17" height="1.393" transform="translate(0.808)"/></g></g></g><rect class="q" width="3.391" height="12.172" transform="translate(6.538 21.14)"/></g><path class="q" d="M250.133,186.381h-1.31v-9.112H228.314V186.1H213.229v24.273C225.364,202.13,237.955,194.562,250.133,186.381Z" transform="translate(-209.312 -130.87)"/><g transform="translate(77.088 58.32)"><g transform="translate(16.168)"><rect class="m" width="11.01" height="10.759"/><rect class="n" width="9.325" height="10.759" transform="translate(3.146)"/><rect class="o" width="1.738" height="2.769" transform="translate(7.734)"/><rect class="o" width="1.738" height="2.768" transform="translate(7.734 7.99)"/><g transform="translate(10.586 8.792)"><rect class="f" width="0.3" height="1.231"/><rect class="f" width="0.106" height="1.231" transform="translate(0.483)"/><rect class="f" width="0.246" height="1.231" transform="translate(1.02)"/><rect class="f" width="0.15" height="1.231" transform="translate(0.709)"/><rect class="f" width="0.102" height="1.231" transform="translate(1.451)"/><rect class="f" width="0.139" height="1.231" transform="translate(1.701)"/></g></g><g transform="translate(19.739 10.632)"><rect class="m" width="8.9" height="10.759"/><rect class="n" width="5.755" height="10.759" transform="translate(3.146)"/><rect class="o" width="1.762" height="2.769" transform="translate(7.138)"/><rect class="o" width="1.762" height="2.768" transform="translate(7.138 7.99)"/><g transform="translate(3.669 8.553)"><rect class="p" width="2.831" height="1.71"/><g transform="translate(0.129 0.24)"><rect class="f" width="0.301" height="1.231"/><rect class="f" width="0.105" height="1.231" transform="translate(0.483)"/><rect class="f" width="0.246" height="1.231" transform="translate(1.02)"/><rect class="f" width="0.15" height="1.231" transform="translate(0.709)"/><rect class="f" width="0.102" height="1.231" transform="translate(1.451)"/><rect class="f" width="0.204" height="1.231" transform="translate(1.932)"/><rect class="f" width="0.101" height="1.231" transform="translate(2.205)"/><rect class="f" width="0.139" height="1.231" transform="translate(1.701)"/><rect class="f" width="0.15" height="1.231" transform="translate(2.415)"/></g></g></g><g transform="translate(0 4.652)"><rect class="m" width="17.13" height="16.739"/><rect class="n" width="16.979" height="16.739" transform="translate(4.894)"/><rect class="o" width="4.556" height="4.307" transform="translate(11.106)"/><rect class="o" width="4.556" height="4.307" transform="translate(11.106 12.432)"/><g transform="translate(5.708 13.307)"><rect class="p" width="4.405" height="2.661"/><g transform="translate(0.201 0.373)"><rect class="f" width="0.468" height="1.915"/><rect class="f" width="0.164" height="1.915" transform="translate(0.751)"/><rect class="f" width="0.383" height="1.915" transform="translate(1.587)"/><rect class="f" width="0.234" height="1.915" transform="translate(1.104)"/><rect class="f" width="0.158" height="1.915" transform="translate(2.257)"/><rect class="f" width="0.317" height="1.915" transform="translate(3.005)"/><rect class="f" width="0.157" height="1.915" transform="translate(3.431)"/><rect class="f" width="0.217" height="1.915" transform="translate(2.647)"/><rect class="f" width="0.234" height="1.915" transform="translate(3.757)"/></g></g></g></g><path class="r" d="M313.221,189.936v9.519h-3.548v11.872H320.72V189.936Z" transform="translate(-214.993 -131.617)"/></g></g><rect class="s" width="159.252" height="35.603" transform="translate(136.383 37.566)"/><g transform="translate(146.341 49.015)"><path class="t" d="M169.859,63.2h-4.67l-1.71-8.051H163.4l-1.71,8.051h-4.67l-3.093-13.221h4.419l1.518,7.495h.077l1.5-7.495h4.189l1.6,7.495h.076l1.422-7.495h4.227Z" transform="translate(-153.929 -49.746)"/><path class="t" d="M189.04,63.2h-4.5l-.557-1.864h-4.631L178.8,63.2h-4.342l4.822-13.221h4.939Zm-7.4-9.531-1.4,4.707H183.1l-1.383-4.707Z" transform="translate(-155.138 -49.746)"/><path class="t" d="M201.645,57.664l2.939,5.534h-4.765l-2.345-4.823H195.9V63.2h-4.246V49.977h8.09c2.94,0,4.458,1.9,4.458,4.054A3.783,3.783,0,0,1,201.645,57.664Zm-2.96-4.67H195.9v2.44h2.787a1.194,1.194,0,0,0,1.191-1.229A1.178,1.178,0,0,0,198.685,52.994Z" transform="translate(-156.151 -49.746)"/><path class="t" d="M207.542,63.2V49.977h11.433v3.171h-7.187v1.826h6.149v3.036h-6.149v2.018h7.322V63.2Z" transform="translate(-157.087 -49.746)"/><path class="t" d="M235.45,63.2H231.2V58.182h-4.67V63.2h-4.246V49.977h4.246V54.8h4.67V49.977h4.247Z" transform="translate(-157.955 -49.746)"/><path class="t" d="M252.985,56.574c0,4.515-2.632,6.84-7.149,6.84s-7.129-2.325-7.129-6.84,2.613-6.842,7.129-6.842S252.985,52.057,252.985,56.574Zm-9.934-.615v1.23c0,1.806.922,3.055,2.786,3.055s2.805-1.249,2.805-3.055v-1.23c0-1.807-.942-3.056-2.805-3.056S243.051,54.151,243.051,55.958Z" transform="translate(-158.923 -49.732)"/><path class="t" d="M269.476,57.875c0,3.651-2.421,5.553-6.572,5.553s-6.591-1.9-6.591-5.553v-7.9h4.246v7.84a2.337,2.337,0,1,0,4.67,0v-7.84h4.247Z" transform="translate(-159.959 -49.746)"/><path class="t" d="M284.684,53.806v.232h-3.977v-.078c0-.692-.48-1.345-1.71-1.345-1.173,0-1.75.4-1.75.865,0,1.979,7.706.423,7.8,5.323,0,3.285-2.5,4.611-5.822,4.611-3.71,0-6.534-.941-6.534-4.707h4.017c0,1.422.825,1.671,2.133,1.671.769,0,1.864-.057,1.864-.884,0-1.9-7.8-.384-7.8-5.535,0-3.075,2.806-4.227,5.938-4.227C282.032,49.732,284.626,50.981,284.684,53.806Z" transform="translate(-160.924 -49.732)"/><path class="t" d="M288.072,63.2V49.977h11.433v3.171h-7.187v1.826h6.149v3.036h-6.149v2.018h7.322V63.2Z" transform="translate(-161.83 -49.746)"/></g></g></g></svg>