<?xml version="1.0" encoding="utf-8"?>
<!-- Generator: Adobe Illustrator 19.1.0, SVG Export Plug-In . SVG Version: 6.00 Build 0)  -->
<svg version="1.1" id="Layer_1" xmlns="http://www.w3.org/2000/svg" xmlns:xlink="http://www.w3.org/1999/xlink" x="0px" y="0px"
	 viewBox="0 0 90 90" style="enable-background:new 0 0 90 90;" xml:space="preserve">
<style type="text/css">
	.st0{fill:#363A41;}
	.st1{fill:none;stroke:#333333;stroke-miterlimit:10;}
	.st2{fill:#F3F3F7;}
	.st3{fill-rule:evenodd;clip-rule:evenodd;fill:none;stroke:#F3F3F7;stroke-width:0.25;stroke-miterlimit:10;}
	.st4{fill-rule:evenodd;clip-rule:evenodd;fill:#F3F3F7;}
	.st5{fill:#FFFFFF;}
	.st6{fill:#393D42;}
	.st7{fill:#474B52;}
	.st8{fill-rule:evenodd;clip-rule:evenodd;fill:#A3A3A3;}
	.st9{fill:#44484F;}
	.st10{fill-rule:evenodd;clip-rule:evenodd;fill:none;stroke:#929292;stroke-miterlimit:10;}
	.st11{fill-rule:evenodd;clip-rule:evenodd;fill:none;stroke:#949494;stroke-width:0.25;stroke-miterlimit:10;}
	.st12{fill:#949494;}
	.st13{fill:none;stroke:#FFFFFF;stroke-linecap:round;stroke-miterlimit:10;}
	.st14{display:none;fill:none;stroke:#DA1960;stroke-miterlimit:10;}
	.st15{fill:none;stroke:#BFBFBF;stroke-miterlimit:10;}
	.st16{fill:#FFFFFF;stroke:#CCCCCC;stroke-miterlimit:10;}
	.st17{fill:#E5E5E5;}
	.st18{fill:#666666;}
	.st19{fill:#FFF8EA;}
	.st20{fill:#E04D26;}
	.st21{fill:#D0D0D0;}
	.st22{fill:none;stroke:#D0D0D0;stroke-miterlimit:10;}
	.st23{fill:#FFFFFF;stroke:#CCCCCC;stroke-linecap:round;stroke-miterlimit:10;stroke-dasharray:7;}
	.st24{fill:#E6E6E6;}
	.st25{fill:#2DAA4A;}
	.st26{fill:none;stroke:#999999;stroke-width:0.75;stroke-linecap:round;stroke-linejoin:round;stroke-miterlimit:10;}
	.st27{fill:none;stroke:#999999;stroke-miterlimit:10;}
	.st28{fill:#F2F2F2;}
	.st29{fill:#FFFFFF;stroke:#E6E6E6;stroke-linecap:round;stroke-miterlimit:10;}
	.st30{fill:#FFFFFF;stroke:#999999;stroke-linecap:round;stroke-miterlimit:10;}
	.st31{fill:#FFFFFF;stroke:#CCCCCC;stroke-linecap:round;stroke-miterlimit:10;}
	.st32{fill:#B3B3B3;}
	.st33{opacity:0.8;fill:#404040;}
	.st34{fill:#FDECEC;}
	.st35{fill:#E2626F;}
	.st36{opacity:0.3;}
	.st37{fill-rule:evenodd;clip-rule:evenodd;fill:#E2626F;}
	.st38{fill:none;stroke:#666666;stroke-miterlimit:10;}
	.st39{fill:none;stroke:#666666;stroke-linecap:round;stroke-miterlimit:10;}
	.st40{fill:none;stroke:#666666;stroke-width:0.75;stroke-linecap:round;stroke-miterlimit:10;}
	.st41{fill-rule:evenodd;clip-rule:evenodd;fill:#E6E6E6;stroke:#E5E5E4;stroke-width:6;stroke-miterlimit:10;}
</style>
<circle class="st17" cx="45" cy="45" r="45"/>
<g>
	<g>
		<path class="st18" d="M18.6,58.3h37.7L65,23.1h6.4c0.3,0,0.6-0.3,0.6-0.6s-0.2-0.6-0.6-0.6h-7.2L55.4,57H18.6
			c-0.3,0-0.6,0.3-0.6,0.6S18.2,58.3,18.6,58.3z"/>
	</g>
	<g>
		<path class="st18" d="M46.2,64c0-2.3,1.9-4.2,4.2-4.2c2.3,0,4.2,1.9,4.2,4.2c0,2.3-1.9,4.2-4.2,4.2C48.1,68.1,46.2,66.3,46.2,64z
			 M47.3,64c0,1.7,1.4,3,3,3c1.7,0,3-1.4,3-3s-1.4-3-3-3C48.7,60.9,47.3,62.3,47.3,64z"/>
	</g>
	<g>
		<path class="st18" d="M20.3,64c0-2.3,1.9-4.2,4.2-4.2c2.3,0,4.2,1.9,4.2,4.2c0,2.3-1.9,4.2-4.2,4.2C22.2,68.1,20.3,66.3,20.3,64z
			 M21.4,64c0,1.7,1.4,3,3,3s3-1.4,3-3s-1.4-3-3-3S21.4,62.3,21.4,64z"/>
	</g>
	<g>
		<path class="st18" d="M36,55.9H20.5V40H36V55.9z M21.5,54.7H35V41.2H21.5V54.7z"/>
	</g>
	<g>
		<path class="st18" d="M53.6,55.9H38V40h15.6V55.9z M39.1,54.7h13.5V41.2H39.1V54.7z"/>
	</g>
	<g>
		<path class="st18" d="M53.6,38.7H38V22.9h15.6V38.7z"/>
	</g>
</g>
</svg>
