<?xml version="1.0" ?><!DOCTYPE svg  PUBLIC '-//W3C//DTD SVG 1.1//EN'  'http://www.w3.org/Graphics/SVG/1.1/DTD/svg11.dtd'><svg height="256px" style="shape-rendering:geometricPrecision; text-rendering:geometricPrecision; image-rendering:optimizeQuality; fill-rule:evenodd; clip-rule:evenodd" version="1.1" viewBox="0 0 256002 256300" width="256px" xml:space="preserve" xmlns="http://www.w3.org/2000/svg" xmlns:xlink="http://www.w3.org/1999/xlink"><defs><style type="text/css">
   <![CDATA[
    .fil1 {fill:none}
    .fil0 {fill:#CECCCD;fill-rule:nonzero}
   ]]>
  </style></defs><g id="Layer_x0020_1"><path class="fil0" d="M179759 24214c-2454,7533 -6427,14516 -11214,20324l0 10c-4829,5841 -11280,11005 -18458,14429 -6587,3141 -13809,4834 -20994,4273l-2199 -171 -290 -2190c-933,-7061 145,-14210 2415,-20824 2642,-7699 6922,-14723 11514,-20045l-1 -1c4752,-5567 11125,-10411 17949,-13920 6848,-3521 14203,-5722 20896,-5995l2530 -104 278 2529c811,7392 -175,14778 -2426,21685z"/><path class="fil0" d="M226282 90629c-2425,1500 -25871,16009 -25581,45251 307,35254 30199,47475 31849,48150l11 0 71 29 2345 971 -803 2400c-47,143 6,-8 -64,215 -761,2444 -5932,19008 -17612,36076 -5300,7742 -10700,15473 -17076,21435 -6601,6174 -14140,10341 -23454,10514 -8779,165 -14526,-2322 -20500,-4906 -5696,-2465 -11621,-5029 -20892,-5029 -9739,0 -15965,2652 -21960,5207 -5645,2404 -11104,4730 -18969,5044l-10 0c-9082,338 -16957,-4089 -23955,-10647 -6695,-6273 -12562,-14487 -17908,-22219 -12067,-17424 -22561,-42776 -25804,-68555 -2667,-21205 -438,-42745 9814,-60535 5723,-9953 13721,-18077 23073,-23744 9310,-5642 19960,-8854 31046,-9019l0 -1c9706,-176 18858,3456 26866,6634 5667,2249 10716,4253 14502,4253 3343,0 8273,-1944 14019,-4209 9706,-3827 21579,-8508 34133,-7259 5274,229 16256,1493 27482,7576 7151,3876 14406,9695 20368,18421l1572 2302 -2348 1517c-126,81 -4,-3 -215,128z"/></g><rect class="fil1" height="256002" width="256002" y="298"/></svg>