<?xml version="1.0" encoding="utf-8"?>
<!-- Generator: Adobe Illustrator 19.1.0, SVG Export Plug-In . SVG Version: 6.00 Build 0)  -->
<svg version="1.1" id="Layer_1" xmlns="http://www.w3.org/2000/svg" xmlns:xlink="http://www.w3.org/1999/xlink" x="0px" y="0px"
	 viewBox="0 0 91 91" style="enable-background:new 0 0 91 91;" xml:space="preserve">
<style type="text/css">
	.st0{fill:#373B42;}
	.st1{fill:none;stroke:#333333;stroke-miterlimit:10;}
	.st2{fill:#F4F4F8;}
	.st3{fill-rule:evenodd;clip-rule:evenodd;fill:none;stroke:#F4F4F8;stroke-width:0.25;stroke-miterlimit:10;}
	.st4{fill-rule:evenodd;clip-rule:evenodd;fill:#F4F4F8;}
	.st5{fill:#FFFFFF;}
	.st6{fill:#3A3E42;}
	.st7{fill:#484C52;}
	.st8{fill-rule:evenodd;clip-rule:evenodd;fill:#A3A3A3;}
	.st9{fill:#454950;}
	.st10{fill-rule:evenodd;clip-rule:evenodd;fill:none;stroke:#929292;stroke-miterlimit:10;}
	.st11{fill-rule:evenodd;clip-rule:evenodd;fill:none;stroke:#949494;stroke-width:0.25;stroke-miterlimit:10;}
	.st12{fill:#949494;}
	.st13{fill:none;stroke:#FFFFFF;stroke-linecap:round;stroke-miterlimit:10;}
	.st14{display:none;fill:none;stroke:#DB1960;stroke-miterlimit:10;}
	.st15{fill:none;stroke:#BFBFBF;stroke-miterlimit:10;}
	.st16{fill:#FFFFFF;stroke:#CCCCCC;stroke-miterlimit:10;}
	.st17{fill:#E5E5E5;}
	.st18{fill:#666666;}
	.st19{fill:#FFF8EB;}
	.st20{fill:#E14D26;}
	.st21{fill:#D0D0D0;}
	.st22{fill:none;stroke:#D0D0D0;stroke-miterlimit:10;}
	.st23{fill:#FFFFFF;stroke:#CCCCCC;stroke-linecap:round;stroke-miterlimit:10;stroke-dasharray:7;}
	.st24{fill:#E6E6E6;}
	.st25{fill:#2FAB4A;}
	.st26{fill:none;stroke:#999999;stroke-width:0.75;stroke-linecap:round;stroke-linejoin:round;stroke-miterlimit:10;}
	.st27{fill:none;stroke:#999999;stroke-miterlimit:10;}
	.st28{fill:#F2F2F2;}
	.st29{fill:#FFFFFF;stroke:#E6E6E6;stroke-linecap:round;stroke-miterlimit:10;}
	.st30{fill:#FFFFFF;stroke:#999999;stroke-linecap:round;stroke-miterlimit:10;}
	.st31{fill:#FFFFFF;stroke:#CCCCCC;stroke-linecap:round;stroke-miterlimit:10;}
	.st32{fill:#B3B3B3;}
	.st33{opacity:0.8;fill:#404040;}
	.st34{fill:#FEEDED;}
	.st35{fill:#E3626F;}
	.st36{opacity:0.3;}
	.st37{fill-rule:evenodd;clip-rule:evenodd;fill:#E3626F;}
	.st38{fill:none;stroke:#666666;stroke-miterlimit:10;}
	.st39{fill:none;stroke:#666666;stroke-linecap:round;stroke-miterlimit:10;}
	.st40{fill:none;stroke:#666666;stroke-width:0.75;stroke-linecap:round;stroke-miterlimit:10;}
	.st41{fill-rule:evenodd;clip-rule:evenodd;fill:#E6E6E6;stroke:#E5E5E5;stroke-width:6;stroke-miterlimit:10;}
</style>
<g>
	<circle class="st17" cx="45.5" cy="45.5" r="45"/>
	<g>
		<g transform="translate(0,-952.36218)">
			<path class="st18" d="M34.4,972.9c-0.3,0-0.5,0.3-0.5,0.6v7.3c0,0.3,0.3,0.6,0.6,0.6c0.3,0,0.6-0.3,0.6-0.6v-7.3
				C35.1,973.1,34.8,972.8,34.4,972.9z M43,972.9c-0.3,0-0.5,0.3-0.5,0.6v7.3c0,0.3,0.3,0.6,0.6,0.6c0.3,0,0.6-0.3,0.6-0.6v-7.3
				C43.7,973.1,43.3,972.8,43,972.9z M51.5,972.9c-0.3,0-0.5,0.3-0.5,0.6v7.3c0,0.3,0.3,0.6,0.6,0.6c0.3,0,0.6-0.3,0.6-0.6v-7.3
				C52.2,973.1,51.9,972.8,51.5,972.9z M29,976.5c-2,0-3.7,1.6-3.7,3.7v34.1c0,3.1,1.8,3.7,4.9,3.7c0,3.1,1.8,4.9,3.7,4.9
				c9.4,0,18.7,0,28,0c1.8,0,3.7-1.8,3.7-3.7v-34.1c0-2.4-1.2-3.7-4.9-3.7v-1.2c0-2-1.6-3.7-3.7-3.7h-4.3v1.2h4.3
				c1.4,0,2.4,1.1,2.4,2.4c0,11.4,0,22.8,0,34.1c0,1.4-1.1,2.4-2.4,2.4H30.3c-2.4,0-3.7-0.6-3.7-2.4v-34.1c0-1.4,1.1-2.4,2.4-2.4
				h4.3v-1.2L29,976.5z M35.7,976.5v1.2h6.1v-1.2H35.7z M44.3,976.5v1.2h6.1v-1.2H44.3z M60.7,982.6c2.4,0,3.7,0.6,3.7,2.4v34.1
				c0,1.3-1.2,2.4-2.4,2.4c-9.4,0-18.6,0-28,0c-1.2,0-2.4-1.2-2.4-3.7c8.7-0.1,17.1,0,25.6,0c2.4,0,3.7-1.2,3.7-3.7V982.6z"/>
		</g>
		<g>
			<path class="st18" d="M56.6,39.9H38.1c-0.3,0-0.5-0.2-0.5-0.5s0.2-0.5,0.5-0.5h18.5c0.3,0,0.5,0.2,0.5,0.5S56.9,39.9,56.6,39.9z"
				/>
		</g>
		<rect x="30.3" y="36.8" class="st18" width="5" height="5"/>
		<g>
			<path class="st18" d="M56.6,53.5H38.1c-0.3,0-0.5-0.2-0.5-0.5s0.2-0.5,0.5-0.5h18.5c0.3,0,0.5,0.2,0.5,0.5S56.9,53.5,56.6,53.5z"
				/>
		</g>
		<g>
			<path class="st18" d="M35.3,55.6h-5c-0.1,0-0.2-0.1-0.2-0.2v-5c0-0.1,0.1-0.2,0.2-0.2h5c0.1,0,0.2,0.1,0.2,0.2v5
				C35.5,55.6,35.4,55.6,35.3,55.6z M30.5,55.3h4.7v-4.7h-4.7V55.3z"/>
		</g>
	</g>
</g>
</svg>
