<svg xmlns="http://www.w3.org/2000/svg" viewBox="0 0 137.2 98.232">
  <defs>
    <style>
      .cls-1 {
        fill: #f2f2f2;
      }
    </style>
  </defs>
  <g id="Group_3578" data-name="Group 3578" transform="translate(0 0.032)">
    <path id="Path_9700" data-name="Path 9700" class="cls-1" d="M0,56.8C1.1,52,2.6,47.4,5.9,43.7a14.057,14.057,0,0,1,3.7-3.6c2.7-1.5,3.4-3.8,3.8-6.7C15.3,18,26.7,5,41.1,1.3c16.2-4.1,32,1.4,41.5,14.6,1.3,1.8,2.4,2.2,4.4,1.8,12.6-2.4,24.5,3.6,30.3,15.2a5.73,5.73,0,0,0,2.5,2.6c9.4,3.8,15.3,10.4,16.9,20.6a7.839,7.839,0,0,0,.5,1.4V63c-1.8,4.1-2.9,8.7-5.4,12.4-4.7,6.9-11.7,10.2-20,10.2-8.5.1-17,0-25.7,0V77.1h8.7c5.7,0,11.4.1,17.1,0,8.8-.2,16.3-7.2,16.8-15.7a17.621,17.621,0,0,0-15-18.5c-.9-.1-2.4-1-2.5-1.7C108.7,27.9,92.7,21,80.9,29.3c-.1.1-.4.1-.6.1C73.4,11.6,58.3,6.5,45.7,9,29.6,12.3,21.1,24.4,21.4,42.3c-3.1,2.3-6.3,4-8.6,6.5C8,53.9,7.1,60.2,9.9,66.6c2.8,6.3,7.7,10.2,14.8,10.3,8.7.2,17.4,0,26.4,0v8.6H25.4C12.9,85.4,2.8,76.8.5,64.3A7.838,7.838,0,0,0,0,62.9Z"/>
    <path id="Path_9701" data-name="Path 9701" class="cls-1" d="M60.2,98.2v-34H47.3C54.7,55.3,61.6,47,68.6,38.5c7,8.5,14,16.8,21.2,25.5H77.1V98.1C71.4,98.2,66,98.2,60.2,98.2Z"/>
  </g>
</svg>
