<?xml version="1.0" encoding="utf-8"?>
<!-- Generator: Adobe Illustrator 19.1.0, SVG Export Plug-In . SVG Version: 6.00 Build 0)  -->
<svg version="1.1" id="Layer_1" xmlns="http://www.w3.org/2000/svg" xmlns:xlink="http://www.w3.org/1999/xlink" x="0px" y="0px"
	 viewBox="0 0 413 251.3" style="enable-background:new 0 0 413 251.3;" xml:space="preserve">
<style type="text/css">
	.st0{opacity:0.7;}
	.st1{fill:#F1F1F1;}
	.st2{fill:#BABABA;}
	.st3{fill:none;stroke:#D9D9D9;stroke-miterlimit:10;}
	.st4{fill:#F5F5F5;}
	.st5{fill:#BFBFBF;}
	.st6{fill:#EBEBEB;}
	.st7{fill:#FFFFFF;}
	.st8{fill:#F2EFE6;}
	.st9{fill:#B3B3B3;}
	.st10{fill:#808080;}
	.st11{fill:#FEFEFE;stroke:#B3B3B3;stroke-width:4;stroke-miterlimit:10;}
	.st12{fill:#FE6634;}
	.st13{fill:#34CCCC;}
	.st14{fill:#34CBCB;}
	.st15{fill:#FBFBFB;}
	.st16{fill:none;stroke:#808080;stroke-miterlimit:10;}
	.st17{fill:#E2D6BA;}
	.st18{fill:#D6C4A1;}
	.st19{fill:#50DAFF;}
	.st20{fill:#2B2B2B;}
	.st21{fill:#FFC043;}
	.st22{fill:#FFB600;}
	.st23{fill:#333333;}
	.st24{fill:#444444;}
	.st25{fill:#565656;}
	.st26{fill:#963D00;}
	.st27{fill:#9B9B9B;}
	.st28{fill:#303030;}
	.st29{fill:#CECECE;}
	.st30{fill:#FFB769;}
	.st31{fill:#FF8812;}
	.st32{fill:#8C8C8C;}
	.st33{fill:#B7B7B7;}
	.st34{fill:#E81F1F;}
	.st35{fill:#FEFEFE;}
	.st36{fill:#DBC9A5;}
	.st37{fill:#D1B178;}
	.st38{opacity:0.54;}
	.st39{fill:#E6E6E6;}
	.st40{opacity:0.54;fill:#D9D9D9;}
	.st41{fill:#999999;}
	.st42{fill:none;stroke:#FFFFFF;stroke-width:2;stroke-miterlimit:10;}
	.st43{fill:none;stroke:#FFFFFF;stroke-width:2;stroke-miterlimit:10;stroke-dasharray:6.1315,6.1315;}
	.st44{fill:#666666;}
	.st45{fill:#919191;}
	.st46{fill:none;stroke:#AAF0F7;stroke-miterlimit:10;}
	.st47{fill:none;stroke:#CCCCCC;stroke-linecap:round;stroke-miterlimit:10;}
	.st48{fill:none;stroke:#CCCCCC;stroke-linecap:round;stroke-miterlimit:10;stroke-dasharray:4.05,4.05;}
	.st49{fill:none;stroke:#CCCCCC;stroke-linecap:round;stroke-miterlimit:10;stroke-dasharray:4.0039,4.0039;}
	.st50{fill:none;stroke:#CCCCCC;stroke-linecap:round;stroke-miterlimit:10;stroke-dasharray:4.0175,4.0175;}
	.st51{fill:none;stroke:#CCCCCC;stroke-linecap:round;stroke-miterlimit:10;stroke-dasharray:4;}
</style>
<g>
	<g>
		<path class="st28" d="M133.5,224.4c0,3.3-2.7,5.9-5.9,5.9c-3.3,0-5.9-2.7-5.9-5.9c0-3.3,2.7-5.9,5.9-5.9
			C130.9,218.4,133.5,221.1,133.5,224.4z"/>
		<path class="st27" d="M130.8,224.4c0,1.8-1.5,3.2-3.2,3.2c-1.8,0-3.2-1.5-3.2-3.2c0-1.8,1.4-3.2,3.2-3.2
			C129.4,221.2,130.8,222.6,130.8,224.4z"/>
		<path class="st29" d="M129.9,224.4c0,1.3-1.1,2.3-2.3,2.3c-1.3,0-2.4-1-2.4-2.3c0-1.3,1.1-2.3,2.4-2.3
			C128.9,222,129.9,223.1,129.9,224.4z"/>
	</g>
	<g>
		<path class="st28" d="M257.4,224c0,3.3-2.6,5.9-5.9,5.9s-5.9-2.7-5.9-5.9s2.7-5.9,5.9-5.9S257.4,220.8,257.4,224z"/>
		<path class="st27" d="M254.7,224c0,1.8-1.5,3.2-3.2,3.2c-1.8,0-3.2-1.4-3.2-3.2c0-1.8,1.4-3.2,3.2-3.2
			C253.3,220.8,254.7,222.3,254.7,224z"/>
		<path class="st29" d="M253.9,224c0,1.3-1.1,2.4-2.3,2.4c-1.3,0-2.4-1.1-2.4-2.4c0-1.3,1.1-2.3,2.4-2.3
			C252.8,221.7,253.9,222.7,253.9,224z"/>
	</g>
	<path class="st9" d="M254.3,218.1H115.8c-1.7,0-3.1-1.3-3.1-2.9v0c0-1.6,1.4-2.9,3.1-2.9h138.5c1.7,0,3.1,1.3,3.1,2.9v0
		C257.4,216.8,256,218.1,254.3,218.1z"/>
	<polygon class="st9" points="299.4,118.9 257.1,216 254.7,215 297,117.8 	"/>
	<path class="st9" d="M309.7,120h-11.6c-0.8,0-1.4-0.6-1.4-1.4l0,0c0-0.8,0.6-1.4,1.4-1.4h11.6c0.8,0,1.4,0.6,1.4,1.4l0,0
		C311,119.3,310.4,120,309.7,120z"/>
	<g>
		<path class="st10" d="M283.3,144.2l-3.5,1.3c0,0-1.4-3-4.3-1.7c-2.9,1.3-1.5,4.1-1.5,4.1l-3.2,1.3c-3.2,1.2-2.3,4.5-2.3,4.5
			l1.2,3.1l19-7.6l-1.2-3.1C286.2,143.2,283.3,144.2,283.3,144.2z M276.7,146.8c-0.5,0.2-1,0-1.2-0.5s0-1,0.5-1.2
			c0.5-0.2,1,0,1.2,0.5S277.2,146.6,276.7,146.8z"/>
		<g>
			<path class="st35" d="M269.7,156.8c6.4-2.6,12.7-5.1,19.1-7.7c3.1-1.2,6.2-2.5,9.3-3.7c1.7-0.7,2.8-0.2,3.5,1.5
				c6.4,16,12.9,32.1,19.3,48.1c0.7,1.8,0.3,2.9-1.5,3.6c-12.6,5.1-25.2,10.1-37.9,15.2c-1.6,0.6-2.7,0.1-3.3-1.4
				c-6.5-16.1-12.9-32.2-19.4-48.4c-0.7-1.7-0.2-2.7,1.4-3.4C263.5,159.4,266.6,158.1,269.7,156.8z"/>
			<path class="st9" d="M301,207.3c-6.3,2.5-12.6,5.1-18.9,7.6c-2.2,0.9-4,0.1-4.8-2.1c-6.5-16.1-12.9-32.2-19.4-48.4
				c-0.9-2.3-0.2-4,2.1-4.9c2.3-1,4.7-1.9,7-2.8l2.3-0.9l21-8.4l7.5-3c2.3-0.9,4.1-0.2,5,2.2c6.4,16,12.9,32.1,19.3,48.1
				c1,2.4,0.2,4.1-2.1,5.1C313.6,202.3,307.3,204.8,301,207.3z M270.1,157.9l-2.3,0.9c-2.3,0.9-4.7,1.9-7,2.8
				c-1,0.4-1.2,0.8-0.8,1.9c6.5,16.1,12.9,32.2,19.4,48.4c0.4,1,0.8,1.2,1.8,0.8c12.6-5.1,25.2-10.1,37.9-15.2
				c1.1-0.5,1.3-0.9,0.8-2c-6.4-16-12.9-32.1-19.3-48.1c-0.5-1.2-0.9-1.3-2-0.9l-9.3,3.7L270.1,157.9z"/>
		</g>
		<path class="st10" d="M291.6,167.7c-4.1,1.6-8.1,3.2-12.2,4.9c-0.9,0.4-1,0-1.3-0.7c-0.3-0.7-0.3-1,0.5-1.4
			c8.1-3.2,16.1-6.4,24.1-9.7c0.9-0.4,1,0,1.3,0.7c0.3,0.7,0.3,1.1-0.5,1.4C299.6,164.5,295.6,166.1,291.6,167.7z"/>
		<path class="st10" d="M297.8,183.5c-4,1.6-8.1,3.2-12.1,4.9c-0.9,0.4-1,0-1.3-0.7c-0.3-0.7-0.3-1.1,0.5-1.4
			c8.1-3.2,16.1-6.4,24.1-9.7c0.9-0.4,1,0.1,1.3,0.7c0.3,0.7,0.3,1-0.5,1.4C305.8,180.2,301.8,181.9,297.8,183.5z"/>
		<path class="st10" d="M304.1,199.2c-4,1.6-8,3.2-12,4.8c-0.8,0.3-1.1,0.1-1.4-0.6c-0.4-0.8-0.1-1.1,0.7-1.4c8-3.2,16-6.4,23.9-9.6
			c0.3-0.1,0.7-0.5,1-0.2c0.3,0.5,0.5,1.1,0.6,1.6c0.1,0.3-0.4,0.3-0.7,0.4C312.2,195.9,308.2,197.5,304.1,199.2z"/>
		<path class="st10" d="M288.3,159.9c-4,1.6-8,3.2-12,4.8c-0.8,0.3-1.1,0.2-1.3-0.6c-0.2-0.7-0.4-1.1,0.5-1.4
			c8-3.2,16.1-6.4,24.1-9.7c0.9-0.4,1.1,0.1,1.4,0.7c0.3,0.7,0.2,1-0.5,1.3C296.4,156.7,292.4,158.3,288.3,159.9z"/>
		<path class="st10" d="M301,191.3c-4,1.6-8,3.2-12,4.9c-0.9,0.4-1.1,0-1.3-0.7c-0.2-0.6-0.4-1,0.5-1.3c8.1-3.2,16.2-6.5,24.3-9.7
			c0.9-0.4,1,0.2,1.2,0.7c0.3,0.6,0.4,1-0.4,1.3C309.1,188.1,305,189.7,301,191.3z"/>
		<path class="st10" d="M294.7,175.6c-4,1.6-8,3.2-12,4.9c-0.9,0.4-1,0-1.3-0.7c-0.3-0.7-0.2-1,0.5-1.3c8-3.2,16.1-6.4,24.1-9.7
			c0.8-0.3,1-0.1,1.3,0.6c0.3,0.7,0.2,1.1-0.6,1.4C302.7,172.4,298.7,174,294.7,175.6z"/>
		<path class="st12" d="M282.5,204.3c-0.2-0.1-0.4-0.2-0.6-0.3c-0.5-0.2-1.1-0.5-1.6-0.7c-0.3-0.2-0.5-0.5-0.4-0.8
			c0.1-0.4,0.5-0.6,0.9-0.4c0.2,0.1,0.4,0.2,0.6,0.2c1.7,0.7,1.7,0.7,2.4-1c0.1-0.1,0.1-0.2,0.2-0.4c0.2-0.4,0.5-0.7,1-0.5
			c0.5,0.2,0.4,0.6,0.3,1c-0.2,0.5-0.4,1-0.6,1.4c-0.2,0.4-0.2,0.7,0.3,0.9c0.5,0.2,1,0.4,1.6,0.6c0.4,0.2,0.6,0.4,0.5,0.9
			c-0.2,0.4-0.5,0.5-1,0.4c-0.7-0.2-1.5-1-2.2-0.7c-0.5,0.3-0.7,1.3-1,2c-0.2,0.4-0.5,0.6-1,0.4c-0.4-0.2-0.4-0.6-0.3-0.9
			c0.2-0.5,0.5-1,0.7-1.5C282.4,204.7,282.5,204.6,282.5,204.3z"/>
		<path class="st12" d="M275.9,177.3c0.1,0.3,0,0.5-0.1,0.8c-0.2,0.5-0.4,1-0.6,1.4c-0.2,0.4-0.1,0.6,0.3,0.8
			c0.6,0.2,1.1,0.4,1.6,0.7c0.4,0.2,0.6,0.5,0.4,0.9c-0.2,0.4-0.5,0.5-0.9,0.4c-0.5-0.2-1.1-0.4-1.5-0.7c-0.6-0.3-0.8-0.1-1,0.4
			c-0.2,0.5-0.4,1-0.7,1.5c-0.2,0.4-0.5,0.5-0.9,0.3c-0.4-0.2-0.5-0.5-0.3-0.9c0.2-0.7,1-1.5,0.7-2.1c-0.3-0.5-1.3-0.6-2-1
			c-0.4-0.2-0.6-0.5-0.4-0.9c0.2-0.4,0.6-0.5,1-0.4c0.6,0.2,1.1,0.4,1.6,0.7c0.4,0.2,0.6,0.1,0.7-0.3c0.2-0.6,0.5-1.2,0.8-1.7
			c0.1-0.3,0.4-0.4,0.7-0.4C275.7,176.9,275.8,177,275.9,177.3z"/>
		<path class="st12" d="M283.5,198c-0.4,0.1-0.7-0.1-1-0.3c-1.7-0.7-1.7-0.7-2.4,0.9c-0.1,0.2-0.2,0.4-0.2,0.5
			c-0.2,0.4-0.5,0.6-1,0.4c-0.4-0.2-0.5-0.5-0.3-0.9c0.3-0.7,0.9-1.5,0.8-2.1c-0.2-0.6-1.3-0.6-2-1c-0.4-0.2-0.6-0.5-0.4-1
			c0.2-0.4,0.6-0.5,1-0.3c0.7,0.3,1.5,1,2.1,0.7c0.5-0.2,0.6-1.2,1-1.9c0.2-0.4,0.5-0.7,1-0.5c0.5,0.2,0.4,0.6,0.3,1
			c-0.2,0.7-1,1.5-0.7,2c0.3,0.5,1.3,0.6,1.9,0.9c0.3,0.1,0.6,0.3,0.5,0.7C283.9,197.6,283.7,197.8,283.5,198z"/>
		<path class="st13" d="M273.3,170.6c0.1,0.3,0,0.5-0.1,0.8c-0.5,1.3-1,2.6-1.5,3.9c-0.2,0.5-0.4,0.6-0.8,0.4
			c-0.9-0.4-1.8-0.8-2.7-1.2c-0.5-0.2-0.9-0.6-0.6-1.1c0.3-0.6,0.8-0.5,1.3-0.3c0.6,0.2,1.4,0.8,1.7,0.6c0.5-0.3,0.6-1.1,0.8-1.7
			c0.2-0.4,0.3-0.9,0.5-1.3c0.2-0.3,0.5-0.5,0.8-0.4C272.9,170.2,273.2,170.3,273.3,170.6z"/>
		<path class="st14" d="M264.9,165c0.5-0.2,1,0.3,1.6,0.5c0.7,0.3,1,0.3,1.3-0.5c0.2-0.7,0.5-1.4,0.8-2.1c0.2-0.5,0.5-0.8,1.1-0.6
			c0.5,0.2,0.6,0.7,0.4,1.1c-0.5,1.3-1.1,2.7-1.6,4.1c-0.1,0.4-0.3,0.4-0.6,0.3c-1-0.4-2-0.9-3-1.3c-0.4-0.2-0.6-0.5-0.5-0.9
			C264.3,165.3,264.5,165.2,264.9,165z"/>
		<path class="st14" d="M279.6,186.4c0.1,0.3,0,0.6-0.1,0.9c-0.5,1.3-1,2.5-1.5,3.8c-0.1,0.4-0.3,0.6-0.7,0.4
			c-0.9-0.4-1.9-0.8-2.8-1.2c-0.5-0.2-0.9-0.6-0.6-1.2c0.3-0.6,0.8-0.5,1.3-0.3c0.6,0.2,1.2,0.9,1.8,0.5c0.4-0.3,0.5-1.1,0.7-1.7
			c0.2-0.4,0.3-0.9,0.5-1.3c0.2-0.3,0.5-0.4,0.8-0.4C279.3,186,279.5,186.1,279.6,186.4z"/>
	</g>
	<g>
		<g>
			<rect x="123.5" y="164.3" class="st17" width="46.8" height="46.7"/>
			<path class="st18" d="M169.7,164.8v45.7H124v-45.7H169.7 M170.7,163.8H123v47.7h47.8V163.8L170.7,163.8z"/>
		</g>
		<rect x="141.6" y="170.3" class="st18" width="10.6" height="10.6"/>
	</g>
	<g>
		<g>
			<rect x="177.5" y="177.4" class="st17" width="33.7" height="33.7"/>
			<path class="st18" d="M210.7,177.9v32.7H178v-32.7H210.7 M211.7,176.9H177v34.7h34.7V176.9L211.7,176.9z"/>
		</g>
		<rect x="190.5" y="182.4" class="st18" width="7.7" height="7.7"/>
	</g>
	<g>
		<g>
			<rect x="213" y="177.4" class="st17" width="33.7" height="33.7"/>
			<path class="st18" d="M246.2,177.9v32.7h-32.7v-32.7H246.2 M247.2,176.9h-34.7v34.7h34.7V176.9L247.2,176.9z"/>
		</g>
		<rect x="226.1" y="182.4" class="st18" width="7.7" height="7.7"/>
	</g>
	<g>
		<g>
			<rect x="177.5" y="142.7" class="st17" width="33.7" height="33.7"/>
			<path class="st18" d="M210.7,143.2v32.7H178v-32.7H210.7 M211.7,142.2H177v34.7h34.7V142.2L211.7,142.2z"/>
		</g>
		<rect x="190.5" y="147.7" class="st18" width="7.7" height="7.7"/>
	</g>
	<g>
		<g>
			<rect x="195.7" y="108.1" class="st17" width="33.7" height="33.7"/>
			<path class="st18" d="M228.9,108.6v32.7h-32.7v-32.7H228.9 M229.9,107.6h-34.7v34.7h34.7V107.6L229.9,107.6z"/>
		</g>
		<rect x="208.7" y="113.1" class="st18" width="7.7" height="7.7"/>
	</g>
	<g>
		<g>
			<rect x="213" y="142.7" class="st17" width="33.7" height="33.7"/>
			<path class="st18" d="M246.2,143.2v32.7h-32.7v-32.7H246.2 M247.2,142.2h-34.7v34.7h34.7V142.2L247.2,142.2z"/>
		</g>
		<rect x="226.1" y="147.7" class="st18" width="7.7" height="7.7"/>
	</g>
</g>
<g class="st0">
	<g>
		<g>
			<g>
				<path class="st1" d="M174.7,105.8h-33c-1.1,0-2-0.9-2-2s0.9-2,2-2h33c1.1,0,2,0.9,2,2S175.8,105.8,174.7,105.8z"/>
			</g>
			<g>
				<path class="st1" d="M149.1,59.9h-33c-1.1,0-2-0.9-2-2s0.9-2,2-2h33c1.1,0,2,0.9,2,2S150.2,59.9,149.1,59.9z"/>
			</g>
			<g>
				<path class="st1" d="M363.8,156.1h-48.7c-1.1,0-2-0.9-2-2s0.9-2,2-2h48.7c1.1,0,2,0.9,2,2S365,156.1,363.8,156.1z"/>
			</g>
			<g>
				<path class="st1" d="M378.4,82.1h-48.7c-1.1,0-2-0.9-2-2s0.9-2,2-2h48.7c1.1,0,2,0.9,2,2S379.5,82.1,378.4,82.1z"/>
			</g>
			<g>
				<path class="st1" d="M242.6,25.8h-48.7c-1.1,0-2-0.9-2-2s0.9-2,2-2h48.7c1.1,0,2,0.9,2,2S243.7,25.8,242.6,25.8z"/>
			</g>
			<g>
				<path class="st1" d="M92.1,85.7H43.4c-1.1,0-2-0.9-2-2s0.9-2,2-2h48.7c1.1,0,2,0.9,2,2S93.2,85.7,92.1,85.7z"/>
			</g>
			<g>
				<path class="st1" d="M67.8,151.3H19.1c-1.1,0-2-0.9-2-2s0.9-2,2-2h48.7c1.1,0,2,0.9,2,2S68.9,151.3,67.8,151.3z"/>
			</g>
		</g>
	</g>
	<g>
		<g>
			<path class="st2" d="M166.2,42l-8-8l8-8l8,8L166.2,42z M159.6,34l6.6,6.6l6.6-6.6l-6.6-6.6L159.6,34z"/>
		</g>
	</g>
	<rect x="254.5" y="35.8" transform="matrix(0.7071 0.7071 -0.7071 0.7071 102.888 -170.7204)" class="st1" width="6" height="6"/>
	<rect x="158.1" y="107.8" transform="matrix(0.7071 0.7071 -0.7071 0.7071 125.5143 -81.4599)" class="st1" width="6" height="6"/>
	
		<rect x="390.8" y="137.7" transform="matrix(0.7071 0.7071 -0.7071 0.7071 214.8308 -237.2139)" class="st1" width="6" height="6"/>
	<rect x="265.4" y="84.9" transform="matrix(0.7071 0.7071 -0.7071 0.7071 140.7663 -164.0681)" class="st3" width="6" height="6"/>
	<g>
		<path class="st2" d="M79.1,133.8l-8-8l8-8l8,8L79.1,133.8z M72.5,125.8l6.6,6.6l6.6-6.6l-6.6-6.6L72.5,125.8z"/>
	</g>
	<g>
		<g>
			<path class="st2" d="M360.3,122.7l-9.5-9.5l9.5-9.5l9.5,9.5L360.3,122.7z M352.3,113.3l8,8l8-8l-8-8L352.3,113.3z"/>
		</g>
	</g>
</g>
<g>
	<path class="st41" d="M398,232.6H64.8c-0.6,0-1-0.4-1-1s0.4-1,1-1H398c0.6,0,1,0.4,1,1S398.5,232.6,398,232.6z"/>
</g>
<g>
	<path class="st41" d="M55.5,232.6H10.3c-0.5,0-0.9-0.4-0.9-1s0.4-1,0.9-1h45.3c0.5,0,0.9,0.4,0.9,1S56,232.6,55.5,232.6z"/>
</g>
</svg>
