<?xml version="1.0" encoding="utf-8"?>
<!-- Generator: Adobe Illustrator 19.0.0, SVG Export Plug-In . SVG Version: 6.00 Build 0)  -->
<svg version="1.1" id="Layer_1" xmlns="http://www.w3.org/2000/svg" xmlns:xlink="http://www.w3.org/1999/xlink" x="0px" y="0px"
	 viewBox="38 -37.7 95.7 95.7" style="enable-background:new 38 -37.7 95.7 95.7;" xml:space="preserve">
<style type="text/css">
	.st0{fill:#2C2D43;}
</style>
<g>
	<path class="st0" d="M70,10.5C70,8.2,70.4,6,71.4,4c1.3-2.5,3.3-4.1,6-4.8c2.6-0.7,5.2-0.5,7.7,0.7c2.1,1,3.6,2.7,4.4,4.9
		c1.4,3.8,1.5,7.6,0,11.3c-1.3,3.4-3.9,5.3-7.4,5.8c-2,0.3-3.9,0.2-5.7-0.5c-2.2-0.8-3.8-2.3-4.8-4.3C70.4,15.1,70,12.8,70,10.5z
		 M73.5,10.5L73.5,10.5c0.1,1.1,0.2,2.3,0.5,3.4c0.8,2.7,2.4,4.5,5.2,4.9c3.2,0.5,6.1-1.2,7.2-4.3c0.8-2.1,0.8-4.3,0.4-6.6
		c-0.2-1.4-0.8-2.6-1.7-3.7C83.8,2.7,82.2,2,80.3,2c-2.4,0-4.3,1-5.6,3.1C73.8,6.8,73.5,8.6,73.5,10.5z"/>
	<path class="st0" d="M110.5,5c-1.1,0-2.2,0-3.2,0c-0.2-0.5-0.4-1-0.7-1.5c-0.7-1.1-1.8-1.6-3.1-1.7c-1.1-0.2-2.3-0.1-3.3,0.4
		c-0.7,0.3-1.4,0.8-1.8,1.5c-0.7,1.4-0.2,2.9,1.3,3.7c1.2,0.6,2.4,0.8,3.7,1.1c1.3,0.4,2.6,0.7,3.8,1.2c2.9,1.2,4.1,3.4,3.5,6.6
		c-0.4,2.4-1.9,4-4.1,4.9c-2.9,1.1-5.9,1.1-8.8-0.2c-2.1-0.9-3.3-2.6-3.7-4.9c0-0.1,0-0.3,0-0.4c0-0.1,0-0.1,0-0.2
		c1.1,0,2.2,0,3.3,0c0.1,0.2,0.1,0.5,0.2,0.8c0.4,1.1,1.2,1.8,2.2,2.1c1.8,0.7,3.5,0.7,5.3,0c1-0.4,1.8-1.1,2.1-2.2
		c0.4-1.3-0.3-2.6-1.6-3.3c-1.2-0.6-2.4-0.8-3.7-1.2c-1.4-0.4-2.7-0.7-4-1.3c-1.8-0.8-3-2.2-3.2-4.2c-0.4-3.1,1-5.7,3.9-6.9
		c2.7-1.1,5.5-1.1,8.2,0.2c1.9,0.9,3.2,2.5,3.6,4.7C110.4,4.6,110.5,4.8,110.5,5z"/>
	<path class="st0" d="M61.1,6.5c1.3,0,2.5,0,3.8,0c0,5.2,0,10.3,0,15.5c-1.3,0-2.5,0-3.8,0C61.1,16.8,61.1,11.7,61.1,6.5z"/>
	<path class="st0" d="M62.9,2.2c-1.2,0-2.1-0.9-2.1-2c0-1.2,0.9-2,2.1-2c1.2,0,2.1,0.9,2.1,2C65.1,1.3,64.1,2.2,62.9,2.2z"/>
</g>
</svg>
