<svg xmlns="http://www.w3.org/2000/svg" width="394.97" height="61.914" viewBox="0 0 394.97 61.914">
  <g id="Group_94" data-name="Group 94" transform="translate(-10.724 -0.193)">
    <path id="Path_42" data-name="Path 42" d="M13.644,2.687A52.463,52.463,0,0,1,21.356.962c1.218-.2,4.059-1.421,5.175-.3,1.015,1.015.2,2.841-.1,3.856C25.82,7.355,25.211,10.3,24.5,13.138a.583.583,0,0,1-1.116-.3c.3-1.928.71-3.856,1.015-5.784.1-.406.609-2.943.812-4.16-7.1,9.132-14.408,20.9-12.075,33.281,2.537,13.191,20.6,20.5,31.658,14.307.507-.3,1.116.609.609.913-10.654,6.9-27.092,1.015-32.774-10.35-3.044-6.189-1.928-13.394-.2-19.684,1.928-6.7,5.175-14.1,10.553-18.873-1.116.3-2.334.71-2.74.812a38.953,38.953,0,0,1-5.987,1.116C13.238,4.513,12.63,2.991,13.644,2.687Z" transform="translate(0 0)"/>
    <g id="Search_customer_by_name_mobile_and_email" data-name="Search customer by name mobile and email" transform="translate(62.694 36.107)" style="isolation: isolate">
      <text id="Search_vendor_by_name_mobile_and_email" data-name="Search vendor by name, mobile and email" transform="translate(0 20)" font-size="18" font-family="ComicSansMS, Comic Sans MS" style="isolation: isolate"><tspan x="0" y="0">Search vendor by name, mobile and email</tspan></text>
    </g>
  </g>
</svg>
