<svg xmlns="http://www.w3.org/2000/svg" viewBox="0 0 512 512" class="icon gstr-icon text-middle">
          <path fill="none" d="M309.8 99.7c0-29.7-24.1-53.8-53.8-53.8-29.7 0-53.8 24.1-53.8 53.8v27.4h107.7V99.7zm-116.7 45.6h-71.5v320.8h268.8V145.3H193.1zm10.1 60.5c-8.2 0-14.9-6.7-14.9-14.9S195 176 203.2 176s14.9 6.7 14.9 14.9-6.6 14.9-14.9 14.9zm130.9-14.9c0 8.2-6.7 14.9-14.9 14.9s-14.9-6.7-14.9-14.9S311 176 319.2 176c8.3 0 14.9 6.6 14.9 14.9z"></path>
          <path fill="#010101" d="M396.7 127.1H328v-26.5c0-39.6-31.6-72.5-71.2-72.9-40-.4-72.7 32-72.7 72v27.4h-68.7c-6.5 0-11.8 5.3-11.8 11.8v333.4c0 6.5 5.3 11.8 11.8 11.8h281.4c6.5 0 11.8-5.3 11.8-11.8V139c-.1-6.6-5.4-11.9-11.9-11.9zM202.2 99.7c0-29.7 24.1-53.8 53.8-53.8 29.7 0 53.8 24.1 53.8 53.8v27.4H202.2V99.7zm188.2 366.4H121.6V145.3h268.8v320.8z"></path>
          <circle fill="#010101" cx="203.2" cy="190.9" r="14.9"></circle>
          <circle fill="#010101" cx="319.2" cy="190.9" r="14.9"></circle>
          </svg>