                                <svg version="1.1" id="Layer_1" xmlns="http://www.w3.org/2000/svg" x="0" y="0" viewBox="0 0 512 512" xml:space="preserve" class="icon text-bottom"><path d="M496.6 160H391.2l-99-111c-9-10.7-22.2-16.9-36.2-17-14-.2-27.3 5.8-36.5 16.3L120 160H15.7C7 160 0 167.3 0 176s7 16 15.7 16h15.7L93 468.5c1.9 6.8 8.1 11.5 15.1 11.5h296.2c7 0 13.2-4.7 15.1-11.5L481 192h15.6c8.7 0 15.7-7.8 15.7-16.5s-7-15.5-15.7-15.5zM243.5 69.4c3.1-3.5 7.3-5.4 12-5.4h.2c4.7 0 9 2.1 12.1 5.7l81.6 90.3H162.6l80.9-90.6zm151 378.6H119.7l-53-256h382.8l-55 256z"></path><path d="M191.1 335.3h129.8c8.3 0 15.1-6.7 15.1-15.1 0-8.3-6.7-15.4-15.1-15.4H191.1c-8.3 0-15.1 7.1-15.1 15.4s6.7 15.1 15.1 15.1z"></path></svg>
