                                <svg version="1.1" id="Layer_1" xmlns="http://www.w3.org/2000/svg" x="0" y="0" viewBox="0 0 512 512" xml:space="preserve" class="icon text-bottom"><path fill="#1D1D1B" d="M500 192h-32v19.6c0 1.7-.8 3.2-2.2 4.2l-39 26.1c-3.3 2.2-7.8-.2-7.8-4.2V152h-32v84.9c0 4-4.5 6.4-7.8 4.2l-37-24.8c-1.4-.9-2.2-2.5-2.2-4.2V192h-32v197.7c0 1.7.8 3.2 2.2 4.1l72.4 48.8c2.8 1.9 4.4 5 4.4 8.3V512h32v-59.7c0-3.3 1.7-6.4 4.4-8.3l74.4-50.1c1.4-.9 2.2-2.5 2.2-4.1V192zm-32 70.2v29.4c0 1.7-.8 3.2-2.2 4.2l-39 26.1c-3.3 2.2-7.8-.2-7.8-4.2v-29.4c0-1.7.8-3.2 2.2-4.2l39-26.1c3.3-2.2 7.8.2 7.8 4.2zm-81 25.3v29.4c0 4-4.5 6.4-7.8 4.2l-37-24.8c-1.4-.9-2.2-2.5-2.2-4.2v-29.4c0-4 4.5-6.4 7.8-4.2l37 24.8c1.4.9 2.2 2.5 2.2 4.2zm-47 85.2v-30.1c0-4 4.5-6.4 7.8-4.2l37 24.8c1.4.9 2.2 2.5 2.2 4.2v30.2c0 4-4.5 6.4-7.8 4.1l-37-24.9c-1.4-.9-2.2-2.4-2.2-4.1zm79 26.3v-30.7c0-1.7.8-3.2 2.2-4.2l39-26.1c3.3-2.2 7.8.2 7.8 4.2v30.5c0 1.7-.8 3.2-2.2 4.1l-39 26.3c-3.3 2.3-7.8-.1-7.8-4.1zM199.6 80.4l-54.9 36.8c-2 1.3-4.7-.1-4.7-2.5V0h-32v114.7c0 2.4-2.7 3.8-4.7 2.5L48.4 80.4c-2.8-1.9-4.4-5-4.4-8.3V48H12v234.2c0 3.3 1.7 6.5 4.4 8.3l87.1 58.4c2.8 1.9 4.4 5 4.4 8.3V512h32V357.2c0-3.3 1.7-6.5 4.4-8.3l87.1-58.4c2.8-1.9 4.4-5 4.4-8.3V48h-32v24.1c.2 3.4-1.5 6.5-4.2 8.3zm4.4 54.3v33.4c0 3.3-1.7 6.5-4.4 8.3l-54.9 36.8c-2 1.3-4.7-.1-4.7-2.5v-50.3c0-1 .5-1.9 1.3-2.5l47.1-31.6c6.7-4.3 15.6.4 15.6 8.4zm-96 25.8v50.3c0 2.4-2.7 3.8-4.7 2.5l-54.9-36.8c-2.8-1.9-4.4-5-4.4-8.3v-33.4c0-8 8.9-12.8 15.6-8.3l47.1 31.6c.8.4 1.3 1.4 1.3 2.4zM44 265.1v-34.4c0-8 8.9-12.8 15.6-8.3l47.1 31.6c.8.6 1.3 1.5 1.3 2.5v51.3c0 2.4-2.7 3.8-4.7 2.5l-54.9-36.8c-2.7-1.9-4.4-5-4.4-8.4zm96 42.6v-51.3c0-1 .5-1.9 1.3-2.5l47.1-31.6c6.6-4.5 15.6.3 15.6 8.3V265c0 3.3-1.7 6.5-4.4 8.3l-54.9 36.8c-2 1.5-4.7 0-4.7-2.4z"></path></svg>
