<svg xmlns="http://www.w3.org/2000/svg" viewBox="0 0 512 512" class="icon icon-xxlg-md text-middle">
          <path d="M423.6 11.9H88.4c-15.7 0-28.5 12.8-28.5 28.5v431.2c0 15.7 12.8 28.5 28.5 28.5h335.2c15.7 0 28.5-12.8 28.5-28.5V40.4c0-15.7-12.8-28.5-28.5-28.5zm8.5 459.7c0 4.7-3.8 8.5-8.5 8.5H88.4c-4.7 0-8.5-3.8-8.5-8.5V40.4c0-4.7 3.8-8.5 8.5-8.5h335.2c4.7 0 8.5 3.8 8.5 8.5v431.2z"></path>
          <path d="M349 115H158c-5.5 0-10 4.5-10 10s4.5 10 10 10h191c5.5 0 10-4.5 10-10s-4.5-10-10-10zm0 96H158c-5.5 0-10 4.5-10 10s4.5 10 10 10h191c5.5 0 10-4.5 10-10s-4.5-10-10-10zm-103 96h-88c-5.5 0-10 4.5-10 10s4.5 10 10 10h88c5.5 0 10-4.5 10-10s-4.5-10-10-10z"></path>
          </svg>