                                <svg version="1.1" id="Layer_1" xmlns="http://www.w3.org/2000/svg" x="0" y="0" viewBox="0 0 512 512" xml:space="preserve" class="icon text-bottom"><path d="M437 75C388.7 26.6 324.4 0 256 0S123.3 26.6 75 75 0 187.6 0 256s26.6 132.7 75 181 112.6 75 181 75 132.7-26.6 181-75 75-112.6 75-181-26.6-132.7-75-181zm-22.6 339.4C372.1 456.7 315.8 480 256 480c-59.8 0-116.1-23.3-158.4-65.6C55.3 372.1 32 315.8 32 256c0-59.8 23.3-116.1 65.6-158.4C139.9 55.3 196.2 32 256 32c59.8 0 116.1 23.3 158.4 65.6C456.7 139.9 480 196.2 480 256c0 59.8-23.3 116.1-65.6 158.4z"></path><path d="M319.4 128c-7.1-3.5-15.7-.6-19.2 6.5L186.1 364.8c-1.7 3.4-2 7.3-.7 10.9 1.2 3.6 3.8 6.6 7.2 8.3 2 1 4.1 1.5 6.4 1.5 5.5 0 10.4-3.1 12.8-8l114.1-230.3c3.5-7.1.6-15.7-6.5-19.2zM229 204.3c0-23.4-19-42.4-42.4-42.4s-42.4 19-42.4 42.4 19 42.4 42.4 42.4 42.4-19 42.4-42.4zm-23.8 0c0 10.2-8.3 18.5-18.5 18.5s-18.5-8.3-18.5-18.5 8.3-18.5 18.5-18.5c10.2-.1 18.5 8.3 18.5 18.5zM325.4 264.5c-23.4 0-42.4 19-42.4 42.4s19 42.4 42.4 42.4 42.4-19 42.4-42.4-19.1-42.4-42.4-42.4zm18.5 42.4c0 10.2-8.3 18.5-18.5 18.5s-18.5-8.3-18.5-18.5 8.3-18.5 18.5-18.5 18.5 8.3 18.5 18.5z"></path></svg>
