<?xml version="1.0" encoding="utf-8"?>
<!-- Generator: Adobe Illustrator 19.0.0, SVG Export Plug-In . SVG Version: 6.00 Build 0)  -->
<svg version="1.1" id="Layer_1" xmlns="http://www.w3.org/2000/svg" xmlns:xlink="http://www.w3.org/1999/xlink" x="0px" y="0px"
	 viewBox="-3 5.5 11.5 11.5" style="enable-background:new -3 5.5 11.5 11.5;" xml:space="preserve">
<style type="text/css">
	.st0{fill:#CCCCCC;}
	.st1{fill:none;}
</style>
<g>
	<g>
		<polygon class="st0" points="61.4,14.2 53.9,14.2 53.9,6.7 58.6,6.7 58.6,7.8 55,7.8 55,13.1 60.2,13.1 60.2,9.4 61.4,9.4 		"/>
	</g>
	<g>
		<polygon class="st1" points="58.2,7.4 54.6,7.4 54.6,13.4 60.6,13.4 60.6,9.8 58.2,9.8 		"/>
	</g>
	<g>
		<polygon class="st0" points="65.4,10.2 60.6,10.2 60.6,9.1 64.2,9.1 64.2,3.8 59,3.8 59,7.4 57.9,7.4 57.9,2.7 65.4,2.7 		"/>
	</g>
	<g>
		<rect x="57.9" y="6.7" class="st0" width="1.1" height="1.1"/>
	</g>
	<g>
		<rect x="60.2" y="9.1" class="st0" width="1.1" height="1.1"/>
	</g>
	<g>
		<polygon class="st1" points="58.6,7.4 58.2,7.4 58.2,9.8 60.6,9.8 60.6,9.4 58.6,9.4 		"/>
	</g>
	<g>
		<polygon class="st1" points="61,9.4 64.6,9.4 64.6,3.4 58.6,3.4 58.6,7.1 61,7.1 		"/>
	</g>
	<g>
		<polygon class="st0" points="61.4,9.8 60.2,9.8 60.2,7.8 58.2,7.8 58.2,6.7 61.4,6.7 		"/>
	</g>
	<g>
		<rect x="58.6" y="7.4" class="st1" width="2" height="2"/>
	</g>
</g>
<g>
	<path d="M-1.5,11.9l-0.6,1.8h-0.7l1.9-5.6h0.9l1.9,5.6H1.1l-0.6-1.8H-1.5z M0.3,11.4l-0.5-1.6c-0.1-0.4-0.2-0.7-0.3-1h0
		c-0.1,0.3-0.2,0.7-0.3,1l-0.5,1.6H0.3z"/>
	<path d="M2,14l2.3-6h0.6l-2.3,6H2z"/>
	<path d="M8.3,13.5c-0.2,0.1-0.6,0.2-1.1,0.2c-1.2,0-2-0.8-2-2c0-1.2,0.8-2.1,2.1-2.1c0.4,0,0.8,0.1,1,0.2l-0.2,0.6
		c-0.2-0.1-0.4-0.2-0.8-0.2c-0.9,0-1.4,0.7-1.4,1.5c0,0.9,0.6,1.5,1.4,1.5c0.4,0,0.7-0.1,0.9-0.2L8.3,13.5z"/>
</g>
</svg>
