<svg width="16" height="16" viewBox="0 0 16 16" fill="none" xmlns="http://www.w3.org/2000/svg">
<path fill-rule="evenodd" clip-rule="evenodd" d="M7.33332 12.6667C10.2788 12.6667 12.6666 10.2789 12.6666 7.33342C12.6666 4.3879 10.2788 2.00008 7.33332 2.00008C4.3878 2.00008 1.99998 4.3879 1.99998 7.33342C1.99998 10.2789 4.3878 12.6667 7.33332 12.6667ZM14 7.33342C14 11.0153 11.0152 14.0001 7.33332 14.0001C3.65142 14.0001 0.666649 11.0153 0.666649 7.33342C0.666649 3.65152 3.65142 0.666748 7.33332 0.666748C11.0152 0.666748 14 3.65152 14 7.33342Z" fill="#1A237E"/>
<path fill-rule="evenodd" clip-rule="evenodd" d="M11.1952 11.1953C11.4556 10.935 11.8777 10.935 12.1381 11.1953L15.1381 14.1953C15.3984 14.4557 15.3984 14.8778 15.1381 15.1382C14.8777 15.3985 14.4556 15.3985 14.1952 15.1382L11.1952 12.1382C10.9349 11.8778 10.9349 11.4557 11.1952 11.1953Z" fill="#1A237E"/>
</svg>
