<svg xmlns="http://www.w3.org/2000/svg" width="23.082" height="23" viewBox="0 0 23.082 23"><defs><style>.a{fill:#707070;}.b{fill:#535353;}.c{fill:#fff;}</style></defs><g transform="translate(-379.755 -274.34)"><g transform="translate(379.756 274.34)"><g transform="translate(0 0)"><path class="a" d="M23.1,146.48H14.917a1.9,1.9,0,0,1-2.107-2.107,32.385,32.385,0,0,1,0-3.47,5.039,5.039,0,0,1,2.355-3.966,27.852,27.852,0,0,1,2.6-1.487l.744-.372a6.154,6.154,0,0,1-1.735-4.337,6.364,6.364,0,0,1,1.859-4.585,6.49,6.49,0,0,1,8.8-.248c2.6,2.355,2.6,5.824.248,9.046.124,0,.248.124.372.124a12.508,12.508,0,0,1,1.859.867h0a6.283,6.283,0,0,1,3.842,6.32v1.983A2.181,2.181,0,0,1,31.4,146.48Zm-.124-21.315a5.153,5.153,0,0,0-3.842,1.611,5.732,5.732,0,0,0-1.611,3.966,6.109,6.109,0,0,0,1.983,4.213l.372.372-.5.248a11.512,11.512,0,0,1-1.239.62,16.408,16.408,0,0,0-2.478,1.487,4.193,4.193,0,0,0-1.983,3.346,32.385,32.385,0,0,0,0,3.47c0,.867.372,1.239,1.239,1.239H31.151a1.4,1.4,0,0,0,1.487-1.363v-1.983a5.618,5.618,0,0,0-3.346-5.577h0l-1.859-.744c-.248-.124-.62-.248-.867-.372l-.5-.248.372-.5c2.478-2.974,2.6-6.2.248-8.427A5.722,5.722,0,0,0,22.972,125.165Z" transform="translate(-12.756 -124.31)"/></g></g><g transform="translate(392.461 286.964)"><ellipse class="b" cx="5.188" cy="5.188" rx="5.188" ry="5.188" transform="translate(0 0)"/><path class="c" d="M7.344-11.561h-2.5v2.636h-1.1v-2.636H1.261V-12.58H3.746v-2.63h1.1v2.63h2.5Z" transform="translate(0.814 17.285)"/></g></g></svg>
