<svg width="10" height="10" viewBox="0 0 10 10" fill="none" xmlns="http://www.w3.org/2000/svg">
<path d="M5.66663 0.99998C5.66663 0.63179 5.36815 0.333313 4.99996 0.333313C4.63177 0.333313 4.33329 0.63179 4.33329 0.999979L4.33329 4.33331L0.99996 4.33331C0.63177 4.33331 0.333293 4.63179 0.333293 4.99998C0.333293 5.36817 0.63177 5.66665 0.99996 5.66665L4.33329 5.66665L4.33329 8.99998C4.33329 9.36817 4.63177 9.66665 4.99996 9.66665C5.36815 9.66665 5.66663 9.36817 5.66663 8.99998L5.66663 5.66665L8.99996 5.66665C9.36815 5.66665 9.66663 5.36817 9.66663 4.99998C9.66663 4.63179 9.36815 4.33331 8.99996 4.33331L5.66663 4.33331L5.66663 0.99998Z" fill="#668CFF"/>
</svg>