<svg xmlns="http://www.w3.org/2000/svg" width="17.875" height="17.875" viewBox="0 0 17.875 17.875"><defs><style>.a{fill:none;stroke:gray;}.b{fill:gray;}</style></defs><g transform="translate(0.5 0.5)"><path class="a" d="M7.594,16.875a1.074,1.074,0,0,1-.412-.1.99.99,0,0,1-.563-.9V9.332L.281,2.848A1,1,0,0,1,0,2.136V1A.981.981,0,0,1,.975,0H15.9a.981.981,0,0,1,.975,1V2.136a1,1,0,0,1-.281.712L10.256,9.332v5.022a1.034,1.034,0,0,1-.338.75l-1.687,1.5A.949.949,0,0,1,7.594,16.875Z" transform="translate(0 0)"/><path class="b" d="M.976,6.415a1.08,1.08,0,0,1-.412-.1A1,1,0,0,1,0,5.415V1.6a.986.986,0,0,0,.563.83,1.078,1.078,0,0,0,.412.1.949.949,0,0,0,.638-.27L3.3.751A1.036,1.036,0,0,0,3.638,0V3.895a1.036,1.036,0,0,1-.338.75l-1.687,1.5A.954.954,0,0,1,.976,6.415Z" transform="translate(6.618 10.46)"/></g></svg>