<svg xmlns="http://www.w3.org/2000/svg" width="44.128" height="55.2" viewBox="0 0 44.128 55.2">
  <path id="path366" d="M602.81,6881.95c-.048.01-.1.022-.138.035a1.108,1.108,0,0,0-.793.685,1.093,1.093,0,0,0,.138,1.039l2.344,3.517a13.807,13.807,0,0,0-7.481,9.963v.242a1.231,1.231,0,0,0,0,.172v1.551a4.331,4.331,0,0,0-2.206-.621,4.427,4.427,0,0,0-4.413,4.413v13.238a4.427,4.427,0,0,0,4.413,4.413,4.331,4.331,0,0,0,2.206-.621v2.827a3.328,3.328,0,0,0,3.31,3.31h1.1v6.619a4.413,4.413,0,0,0,8.825,0v-6.619h4.413v6.619a4.413,4.413,0,0,0,8.825,0v-6.619h1.1a3.328,3.328,0,0,0,3.31-3.31v-2.827a4.331,4.331,0,0,0,2.206.621,4.427,4.427,0,0,0,4.413-4.413v-13.238a4.427,4.427,0,0,0-4.413-4.413,4.331,4.331,0,0,0-2.206.621v-1.517a1.237,1.237,0,0,0,0-.31v-.07a13.775,13.775,0,0,0-7.481-10.032l2.344-3.517a1.1,1.1,0,1,0-1.827-1.241l-2.586,3.826a17.886,17.886,0,0,0-11.791,0l-2.586-3.826a1.109,1.109,0,0,0-1.034-.518Zm9.515,5.551a14.506,14.506,0,0,1,5.723,1.138c.035.013.069.026.1.035a12.215,12.215,0,0,1,6.93,7.653H599.569a12.2,12.2,0,0,1,6.791-7.584.951.951,0,0,0,.207-.1,14.509,14.509,0,0,1,5.757-1.138Zm-6.068,3.31a1.655,1.655,0,1,0,1.655,1.655A1.653,1.653,0,0,0,606.257,6890.811Zm12.135,0a1.655,1.655,0,1,0,1.655,1.655A1.655,1.655,0,0,0,618.392,6890.811Zm-19.306,7.723h26.477V6922.8a1.089,1.089,0,0,1-1.1,1.1h-8.619a1.135,1.135,0,0,0-.448,0H602.6a1.136,1.136,0,0,0-.448,0H600.19a1.089,1.089,0,0,1-1.1-1.1v-24.271Zm-4.413,2.206a2.189,2.189,0,0,1,2.206,2.207v13.238a2.206,2.206,0,1,1-4.413,0v-13.238A2.189,2.189,0,0,1,594.674,6900.739Zm35.3,0a2.189,2.189,0,0,1,2.206,2.207v13.238a2.206,2.206,0,1,1-4.413,0v-13.238A2.189,2.189,0,0,1,629.976,6900.739ZM603.5,6926.113h4.413v6.619a2.207,2.207,0,0,1-4.413,0Zm13.238,0h4.413v6.619a2.207,2.207,0,0,1-4.413,0Z" transform="translate(-590.261 -6881.946)" fill="#21276a" fill-rule="evenodd"/>
</svg>
