<svg xmlns="http://www.w3.org/2000/svg" width="20" height="20" viewBox="0 0 20 20"><defs><style>.a{fill:#1a237e;}</style></defs><g transform="translate(-163.7 -383.5)"><path class="a" d="M337.6,630.4a9.506,9.506,0,0,1,7.1-2.9,9.9,9.9,0,0,1,7.1,2.9,9.356,9.356,0,0,1,2.9,7.1,9.9,9.9,0,0,1-2.9,7.1,9.356,9.356,0,0,1-7.1,2.9,9.9,9.9,0,0,1-7.1-2.9,10.141,10.141,0,0,1,0-14.2Zm1.4,12.7a7.73,7.73,0,0,0,5.6,2.4,7.568,7.568,0,0,0,5.6-2.4,8.146,8.146,0,0,0,2.4-5.6,7.568,7.568,0,0,0-2.4-5.6,8.146,8.146,0,0,0-5.6-2.4,7.568,7.568,0,0,0-5.6,2.4,8.146,8.146,0,0,0-2.4,5.6A7.729,7.729,0,0,0,339,643.1Z" transform="translate(-171 -244)"/><path class="a" d="M267.3,396.433l3.833-3.833-3.833-3.833,1.167-1.167,5,5-5,5Z" transform="translate(-96 1)"/></g></svg>