<svg width="244" height="72" viewBox="0 0 244 72" fill="none" xmlns="http://www.w3.org/2000/svg">
<path d="M235.319 72H8.54723C3.83532 72 0 68.1696 0 63.4806V8.5068C0 3.816 3.83532 0 8.54723 0H235.319C240.029 0 244 3.816 244 8.5068V63.4806C244 68.1696 240.029 72 235.319 72Z" fill="#A6A6A6"/>
<path d="M242.25 63.7434C242.25 67.5679 239.153 70.6658 235.321 70.6658H8.54723C4.71733 70.6658 1.60859 67.5679 1.60859 63.7434V8.53981C1.60859 4.71714 4.71733 1.6084 8.54723 1.6084H235.319C239.153 1.6084 242.249 4.71714 242.249 8.53981L242.25 63.7434Z" fill="black"/>
<path d="M54.4536 35.7579C54.4012 29.9326 59.2233 27.0986 59.4438 26.9666C56.7128 22.9849 52.4799 22.4409 50.9924 22.3975C47.4372 22.0234 43.9887 24.5248 42.1777 24.5248C40.3305 24.5248 37.5417 22.4337 34.5359 22.4951C30.6681 22.5548 27.0497 24.7941 25.0651 28.2716C20.9695 35.362 24.0241 45.7818 27.9479 51.513C29.9108 54.3199 32.2044 57.454 35.2065 57.3437C38.1435 57.2226 39.2406 55.4713 42.7849 55.4713C46.2967 55.4713 47.327 57.3437 50.3887 57.2732C53.5408 57.2226 55.5254 54.4537 57.4195 51.6215C59.6878 48.4043 60.5988 45.2359 60.6349 45.0732C60.5608 45.0479 54.5132 42.7399 54.4536 35.7579Z" fill="white"/>
<path d="M48.6699 18.6273C50.2495 16.6518 51.3304 13.9642 51.0303 11.2368C48.744 11.338 45.8847 12.8183 44.2381 14.7504C42.7813 16.453 41.48 19.2436 41.8162 21.868C44.3845 22.0596 47.0215 20.5721 48.6699 18.6273Z" fill="white"/>
<path d="M96.9584 56.9407H92.8538L90.6053 49.8755H82.7901L80.6483 56.9407H76.6521L84.3951 32.8877H89.1775L96.9584 56.9407ZM89.9276 46.9114L87.8942 40.6306C87.6791 39.989 87.2761 38.478 86.6815 36.0995H86.6092C86.3724 37.1225 85.991 38.6334 85.4669 40.6306L83.4697 46.9114H89.9276V46.9114Z" fill="white"/>
<path d="M116.871 48.0554C116.871 51.0051 116.074 53.3367 114.479 55.0483C113.052 56.572 111.278 57.3329 109.162 57.3329C106.877 57.3329 105.236 56.5123 104.237 54.8712H104.165V64.0076H100.311V45.3064C100.311 43.452 100.262 41.5488 100.168 39.5968H103.557L103.772 42.3458H103.845C105.13 40.2746 107.08 39.2407 109.697 39.2407C111.743 39.2407 113.451 40.0486 114.817 41.6663C116.187 43.2857 116.871 45.4148 116.871 48.0554ZM112.945 48.1964C112.945 46.5083 112.565 45.1166 111.803 44.0213C110.969 42.879 109.851 42.3079 108.448 42.3079C107.497 42.3079 106.633 42.626 105.862 43.2532C105.088 43.8858 104.582 44.7117 104.345 45.7347C104.226 46.2119 104.166 46.6023 104.166 46.9096V49.8014C104.166 51.063 104.553 52.1275 105.327 52.9969C106.1 53.8663 107.105 54.3 108.341 54.3C109.793 54.3 110.922 53.7397 111.73 52.6228C112.54 51.504 112.945 50.0291 112.945 48.1964Z" fill="white"/>
<path d="M136.819 48.0554C136.819 51.0051 136.022 53.3367 134.426 55.0483C133 56.572 131.227 57.3329 129.11 57.3329C126.826 57.3329 125.185 56.5123 124.187 54.8712H124.115V64.0076H120.261V45.3064C120.261 43.452 120.212 41.5488 120.118 39.5968H123.507L123.722 42.3458H123.795C125.078 40.2746 127.028 39.2407 129.647 39.2407C131.691 39.2407 133.399 40.0486 134.769 41.6663C136.134 43.2857 136.819 45.4148 136.819 48.0554ZM132.893 48.1964C132.893 46.5083 132.512 45.1166 131.749 44.0213C130.916 42.879 129.801 42.3079 128.396 42.3079C127.444 42.3079 126.582 42.626 125.808 43.2532C125.035 43.8858 124.53 44.7117 124.294 45.7347C124.176 46.2119 124.115 46.6023 124.115 46.9096V49.8014C124.115 51.063 124.501 52.1275 125.271 52.9969C126.045 53.8645 127.05 54.3 128.29 54.3C129.741 54.3 130.871 53.7397 131.679 52.6228C132.488 51.504 132.893 50.0291 132.893 48.1964Z" fill="white"/>
<path d="M159.122 50.1953C159.122 52.2413 158.412 53.9059 156.986 55.191C155.419 56.5954 153.237 57.2966 150.434 57.2966C147.846 57.2966 145.771 56.7978 144.2 55.7983L145.093 52.5865C146.785 53.6095 148.641 54.1228 150.664 54.1228C152.115 54.1228 153.245 53.7939 154.056 53.1396C154.864 52.4853 155.267 51.6069 155.267 50.5116C155.267 49.5356 154.935 48.7133 154.268 48.0463C153.604 47.3794 152.496 46.7595 150.949 46.1865C146.738 44.6159 144.634 42.315 144.634 39.2894C144.634 37.3121 145.372 35.6909 146.848 34.4293C148.319 33.1659 150.282 32.5352 152.737 32.5352C154.926 32.5352 156.744 32.9165 158.195 33.6774L157.232 36.8187C155.876 36.0813 154.344 35.7126 152.628 35.7126C151.273 35.7126 150.214 36.047 149.455 36.7121C148.813 37.3067 148.491 38.0315 148.491 38.89C148.491 39.8407 148.858 40.6269 149.595 41.2451C150.237 41.8162 151.403 42.4343 153.095 43.1013C155.164 43.9345 156.684 44.9087 157.662 46.0256C158.636 47.139 159.122 48.5325 159.122 50.1953Z" fill="white"/>
<path d="M171.863 42.4888H167.615V50.9095C167.615 53.0512 168.364 54.1212 169.864 54.1212C170.552 54.1212 171.124 54.0616 171.575 53.9423L171.682 56.8685C170.923 57.1523 169.923 57.295 168.685 57.295C167.163 57.295 165.974 56.8305 165.116 55.9033C164.261 54.9743 163.831 53.4163 163.831 51.2276V42.4851H161.3V39.5933H163.831V36.4177L167.615 35.2754V39.5933H171.863V42.4888Z" fill="white"/>
<path d="M191.027 48.1261C191.027 50.792 190.264 52.9808 188.742 54.6924C187.146 56.4546 185.028 57.333 182.387 57.333C179.842 57.333 177.816 56.489 176.305 54.8008C174.794 53.1127 174.039 50.9818 174.039 48.4135C174.039 45.7258 174.816 43.5244 176.376 41.8128C177.932 40.0994 180.032 39.2427 182.673 39.2427C185.218 39.2427 187.265 40.0867 188.811 41.7767C190.289 43.416 191.027 45.5325 191.027 48.1261ZM187.029 48.2508C187.029 46.6512 186.687 45.2794 185.995 44.1353C185.187 42.7509 184.032 42.0604 182.535 42.0604C180.987 42.0604 179.81 42.7527 179.002 44.1353C178.31 45.2812 177.968 46.6747 177.968 48.3231C177.968 49.9226 178.31 51.2945 179.002 52.4367C179.835 53.8212 180.999 54.5117 182.501 54.5117C183.972 54.5117 185.127 53.8068 185.961 52.4006C186.671 51.2348 187.029 49.8485 187.029 48.2508Z" fill="white"/>
<path d="M203.552 42.9857C203.171 42.9152 202.764 42.879 202.337 42.879C200.982 42.879 199.934 43.3905 199.196 44.4153C198.555 45.319 198.233 46.4613 198.233 47.8404V56.9407H194.381L194.417 45.0588C194.417 43.0598 194.369 41.2397 194.273 39.5986H197.629L197.77 42.917H197.877C198.283 41.7765 198.925 40.8584 199.803 40.1697C200.662 39.5498 201.589 39.2407 202.589 39.2407C202.945 39.2407 203.266 39.266 203.552 39.3112V42.9857Z" fill="white"/>
<path d="M220.786 47.448C220.786 48.1384 220.74 48.7204 220.645 49.1957H209.085C209.13 50.9092 209.688 52.2195 210.762 53.1232C211.736 53.9311 212.996 54.336 214.543 54.336C216.254 54.336 217.816 54.0631 219.22 53.5154L219.824 56.1904C218.183 56.9061 216.245 57.2622 214.01 57.2622C211.32 57.2622 209.209 56.4706 207.673 54.8891C206.14 53.3076 205.372 51.1839 205.372 48.5198C205.372 45.9044 206.086 43.7265 207.516 41.9896C209.012 40.1352 211.035 39.208 213.58 39.208C216.079 39.208 217.972 40.1352 219.257 41.9896C220.274 43.4626 220.786 45.2845 220.786 47.448ZM217.111 46.4485C217.137 45.3062 216.885 44.3194 216.363 43.4861C215.696 42.4143 214.671 41.8794 213.292 41.8794C212.032 41.8794 211.008 42.4017 210.225 43.45C209.583 44.2832 209.202 45.2827 209.085 46.4467H217.111V46.4485Z" fill="white"/>
<path d="M88.6533 18.0899C88.6533 20.2172 88.0153 21.8186 86.7411 22.894C85.5609 23.8862 83.8836 24.3833 81.7111 24.3833C80.6339 24.3833 79.7121 24.3363 78.9403 24.2423V12.6189C79.947 12.4562 81.0315 12.373 82.2027 12.373C84.2722 12.373 85.832 12.8231 86.8839 13.7232C88.0623 14.7408 88.6533 16.1957 88.6533 18.0899ZM86.6561 18.1423C86.6561 16.7632 86.2911 15.7059 85.5609 14.9685C84.8307 14.2329 83.7643 13.8642 82.3599 13.8642C81.7635 13.8642 81.2556 13.9039 80.8345 13.9871V22.8235C81.0676 22.8596 81.4942 22.8759 82.1141 22.8759C83.5637 22.8759 84.6825 22.4728 85.4705 21.6667C86.2585 20.8606 86.6561 19.6858 86.6561 18.1423Z" fill="white"/>
<path d="M99.2429 19.948C99.2429 21.2584 98.8688 22.332 98.1205 23.1743C97.3361 24.04 96.2969 24.472 94.9991 24.472C93.7484 24.472 92.7525 24.0581 92.0097 23.2267C91.2687 22.3971 90.8981 21.3506 90.8981 20.089C90.8981 18.7696 91.2795 17.687 92.0458 16.8465C92.8122 16.0061 93.8424 15.585 95.1401 15.585C96.3908 15.585 97.3958 15.9989 98.1567 16.8285C98.8796 17.6346 99.2429 18.6756 99.2429 19.948ZM97.2783 20.0095C97.2783 19.2233 97.1084 18.5491 96.7704 17.987C96.3728 17.3074 95.8071 16.9676 95.0714 16.9676C94.3105 16.9676 93.7321 17.3074 93.3345 17.987C92.9947 18.5491 92.8266 19.2341 92.8266 20.0438C92.8266 20.8301 92.9965 21.5042 93.3345 22.0663C93.7448 22.7459 94.3159 23.0857 95.0534 23.0857C95.7763 23.0857 96.3438 22.7405 96.7523 22.0483C97.103 21.4753 97.2783 20.7957 97.2783 20.0095Z" fill="white"/>
<path d="M113.442 15.7583L110.776 24.2784H109.041L107.937 20.5787C107.656 19.6551 107.429 18.7369 107.252 17.826H107.217C107.053 18.7622 106.825 19.6786 106.532 20.5787L105.359 24.2784H103.604L101.097 15.7583H103.044L104.007 19.8087C104.24 20.7666 104.432 21.6794 104.586 22.5433H104.62C104.761 21.8312 104.994 20.9239 105.323 19.8268L106.532 15.7601H108.076L109.234 19.74C109.514 20.7106 109.742 21.645 109.917 22.5451H109.97C110.098 21.6685 110.292 20.7341 110.548 19.74L111.582 15.7601H113.442V15.7583Z" fill="white"/>
<path d="M123.262 24.2786H121.367V19.3986C121.367 17.8949 120.796 17.143 119.65 17.143C119.088 17.143 118.635 17.349 118.282 17.7629C117.933 18.1768 117.756 18.6648 117.756 19.2233V24.2768H115.862V18.1931C115.862 17.4448 115.839 16.6333 115.793 15.7549H117.458L117.547 17.087H117.599C117.819 16.6731 118.148 16.3315 118.58 16.0586C119.094 15.7404 119.668 15.5796 120.297 15.5796C121.093 15.5796 121.754 15.8362 122.28 16.3514C122.934 16.9821 123.262 17.9238 123.262 19.1745V24.2786V24.2786Z" fill="white"/>
<path d="M128.485 24.2787H126.593V11.8491H128.485V24.2787Z" fill="white"/>
<path d="M139.637 19.948C139.637 21.2584 139.263 22.332 138.514 23.1743C137.73 24.04 136.689 24.472 135.393 24.472C134.14 24.472 133.144 24.0581 132.403 23.2267C131.662 22.3971 131.292 21.3506 131.292 20.089C131.292 18.7696 131.673 17.687 132.44 16.8465C133.206 16.0061 134.236 15.585 135.532 15.585C136.785 15.585 137.788 15.9989 138.55 16.8285C139.273 17.6346 139.637 18.6756 139.637 19.948ZM137.67 20.0095C137.67 19.2233 137.5 18.5491 137.162 17.987C136.767 17.3074 136.199 16.9676 135.465 16.9676C134.702 16.9676 134.124 17.3074 133.728 17.987C133.388 18.5491 133.22 19.2341 133.22 20.0438C133.22 20.8301 133.39 21.5042 133.728 22.0663C134.139 22.7459 134.71 23.0857 135.447 23.0857C136.17 23.0857 136.736 22.7405 137.144 22.0483C137.497 21.4753 137.67 20.7957 137.67 20.0095Z" fill="white"/>
<path d="M148.804 24.2786H147.103L146.962 23.2972H146.91C146.328 24.0798 145.498 24.472 144.421 24.472C143.617 24.472 142.966 24.2135 142.476 23.7002C142.032 23.2339 141.809 22.6537 141.809 21.9651C141.809 20.924 142.243 20.1306 143.116 19.5811C143.987 19.0317 145.213 18.7624 146.79 18.775V18.616C146.79 17.4936 146.201 16.9333 145.021 16.9333C144.181 16.9333 143.439 17.1448 142.8 17.5641L142.415 16.3206C143.206 15.8308 144.184 15.585 145.337 15.585C147.564 15.585 148.681 16.7598 148.681 19.1094V22.2471C148.681 23.0984 148.723 23.7761 148.804 24.2786ZM146.837 21.3506V20.0366C144.748 20.0005 143.703 20.5734 143.703 21.7536C143.703 22.1983 143.823 22.5308 144.067 22.7531C144.311 22.9754 144.622 23.0857 144.992 23.0857C145.408 23.0857 145.796 22.9538 146.151 22.6917C146.507 22.4278 146.725 22.0934 146.807 21.6832C146.827 21.591 146.837 21.4789 146.837 21.3506Z" fill="white"/>
<path d="M159.567 24.2787H157.886L157.798 22.9105H157.745C157.208 23.9515 156.294 24.4721 155.009 24.4721C153.982 24.4721 153.127 24.069 152.449 23.2629C151.772 22.4568 151.434 21.4103 151.434 20.1252C151.434 18.7462 151.801 17.6292 152.538 16.7761C153.252 15.9809 154.127 15.5832 155.168 15.5832C156.312 15.5832 157.113 15.9682 157.568 16.74H157.604V11.8491H159.5V21.9833C159.5 22.8129 159.522 23.5774 159.567 24.2787ZM157.604 20.6855V19.2649C157.604 19.0191 157.586 18.8203 157.552 18.6685C157.445 18.213 157.216 17.8298 156.867 17.5208C156.514 17.2117 156.09 17.0563 155.6 17.0563C154.893 17.0563 154.34 17.3364 153.933 17.8985C153.53 18.4606 153.326 19.1782 153.326 20.0547C153.326 20.897 153.519 21.5802 153.908 22.1062C154.318 22.6665 154.871 22.9466 155.564 22.9466C156.185 22.9466 156.682 22.7134 157.06 22.2453C157.425 21.8134 157.604 21.2928 157.604 20.6855Z" fill="white"/>
<path d="M175.767 19.948C175.767 21.2584 175.393 22.332 174.644 23.1743C173.86 24.04 172.822 24.472 171.523 24.472C170.274 24.472 169.278 24.0581 168.534 23.2267C167.792 22.3971 167.422 21.3506 167.422 20.089C167.422 18.7696 167.803 17.687 168.57 16.8465C169.336 16.0061 170.366 15.585 171.666 15.585C172.915 15.585 173.921 15.9989 174.681 16.8285C175.403 17.6346 175.767 18.6756 175.767 19.948ZM173.804 20.0095C173.804 19.2233 173.634 18.5491 173.296 17.987C172.897 17.3074 172.333 16.9676 171.595 16.9676C170.836 16.9676 170.258 17.3074 169.858 17.987C169.519 18.5491 169.35 19.2341 169.35 20.0438C169.35 20.8301 169.52 21.5042 169.858 22.0663C170.269 22.7459 170.84 23.0857 171.577 23.0857C172.3 23.0857 172.869 22.7405 173.278 22.0483C173.627 21.4753 173.804 20.7957 173.804 20.0095Z" fill="white"/>
<path d="M185.951 24.2786H184.059V19.3986C184.059 17.8949 183.488 17.143 182.34 17.143C181.778 17.143 181.325 17.349 180.974 17.7629C180.623 18.1768 180.448 18.6648 180.448 19.2233V24.2768H178.552V18.1931C178.552 17.4448 178.53 16.6333 178.485 15.7549H180.148L180.236 17.087H180.289C180.511 16.6731 180.84 16.3315 181.27 16.0586C181.785 15.7404 182.358 15.5796 182.989 15.5796C183.783 15.5796 184.444 15.8362 184.97 16.3514C185.626 16.9821 185.951 17.9238 185.951 19.1745V24.2786V24.2786Z" fill="white"/>
<path d="M198.699 17.1774H196.613V21.3164C196.613 22.3683 196.984 22.8943 197.718 22.8943C198.057 22.8943 198.339 22.8653 198.562 22.8057L198.611 24.2426C198.236 24.3836 197.745 24.4541 197.139 24.4541C196.391 24.4541 195.809 24.2263 195.388 23.7709C194.965 23.3154 194.755 22.549 194.755 21.4736V17.1774H193.51V15.7586H194.755V14.197L196.612 13.6367V15.7568H198.697V17.1774H198.699Z" fill="white"/>
<path d="M208.727 24.2787H206.831V19.4348C206.831 17.9076 206.26 17.143 205.115 17.143C204.237 17.143 203.637 17.5858 203.308 18.4715C203.252 18.6576 203.219 18.8854 203.219 19.1529V24.2769H201.327V11.8491H203.219V16.984H203.256C203.852 16.0495 204.707 15.5832 205.815 15.5832C206.599 15.5832 207.248 15.8399 207.763 16.355C208.405 16.9966 208.727 17.9509 208.727 19.2125V24.2787V24.2787Z" fill="white"/>
<path d="M219.07 19.6156C219.07 19.9554 219.045 20.241 219 20.4742H213.319C213.345 21.3164 213.616 21.958 214.142 22.4027C214.622 22.8003 215.242 22.9991 216.001 22.9991C216.842 22.9991 217.608 22.8654 218.299 22.596L218.595 23.9118C217.787 24.2625 216.836 24.4378 215.736 24.4378C214.416 24.4378 213.377 24.0492 212.625 23.272C211.87 22.4948 211.496 21.452 211.496 20.1434C211.496 18.8583 211.844 17.7883 212.547 16.9352C213.281 16.0243 214.274 15.5688 215.526 15.5688C216.752 15.5688 217.682 16.0243 218.311 16.9352C218.819 17.6582 219.07 18.5529 219.07 19.6156ZM217.263 19.1258C217.277 18.5637 217.153 18.0793 216.896 17.6709C216.567 17.1449 216.067 16.881 215.389 16.881C214.771 16.881 214.266 17.1377 213.881 17.6528C213.567 18.0631 213.381 18.5529 213.319 19.1258H217.263Z" fill="white"/>
</svg>
