<svg xmlns="http://www.w3.org/2000/svg" width="12" height="12" viewBox="0 0 12 12"><defs><style>.a{fill:#0c8fe6;}</style></defs><g transform="translate(-87 -87)"><g transform="translate(87 87)"><path class="a" d="M88.143,87h8.384a1.143,1.143,0,0,1,.808.335l1.33,1.33h0a1.143,1.143,0,0,1,.335.808v8.384A1.143,1.143,0,0,1,97.857,99H88.143A1.143,1.143,0,0,1,87,97.857V88.143h0A1.143,1.143,0,0,1,88.143,87Zm1.429,1.143H88.429a.286.286,0,0,0-.286.286v9.143h0a.286.286,0,0,0,.286.286h9.143a.286.286,0,0,0,.286-.286v-7.98h0a.286.286,0,0,0-.084-.2L96.61,88.227h0a.286.286,0,0,0-.2-.084h-.074a.192.192,0,0,0-.192.192v1.522A1.143,1.143,0,0,1,95,91H91a1.143,1.143,0,0,1-1.143-1.143V88.429A.286.286,0,0,0,89.571,88.143Zm4,0a.286.286,0,0,0-.286.286v1.429a.286.286,0,0,0,.286.286h.857a.286.286,0,0,0,.286-.286V88.429a.286.286,0,0,0-.286-.286ZM93,92.429a2,2,0,1,1-2,2A2,2,0,0,1,93,92.429Z" transform="translate(-87 -87)"/></g></g></svg>
