<svg width="20" height="23" viewBox="0 0 20 23" fill="none" xmlns="http://www.w3.org/2000/svg">
<path d="M11.2929 18.7071C10.9024 18.3166 10.9024 17.6834 11.2929 17.2929L12.5858 16H5C4.44772 16 4 15.5523 4 15C4 14.4477 4.44772 14 5 14H12.5858L11.2929 12.7071C10.9024 12.3166 10.9024 11.6834 11.2929 11.2929C11.6834 10.9024 12.3166 10.9024 12.7071 11.2929L15.6364 14.2222C16.066 14.6518 16.066 15.3482 15.6364 15.7778L12.7071 18.7071C12.3166 19.0976 11.6834 19.0976 11.2929 18.7071Z" fill="#505159"/>
<path fill-rule="evenodd" clip-rule="evenodd" d="M11 3.51936L7.5 0.71936L4 3.51936V7C1.79086 7 0 8.79086 0 11V23H20V11C20 8.79086 18.2091 7 16 7H11V3.51936ZM9 7V4.48061L7.5 3.28061L6 4.48061V7H9ZM16 9H4C2.89543 9 2 9.89543 2 11V21H18V11C18 9.89543 17.1046 9 16 9Z" fill="#505159"/>
</svg>
