<svg xmlns="http://www.w3.org/2000/svg" xmlns:xlink="http://www.w3.org/1999/xlink" width="240.387" height="150.5" viewBox="0 0 240.387 150.5"><defs><style>.a{fill:none;stroke:#444053;stroke-miterlimit:10;}.b{fill:url(#a);}.c{fill:#444053;}.d,.l,.m{opacity:0.1;}.e{fill:#3f3d56;}.f{fill:#a1616a;}.g,.m{fill:#6c63ff;}.h{opacity:0.05;}.i{fill:#d0d2d5;}.j{fill:url(#b);}.k{fill:#fabdbd;}.n{fill:#ccc;}.o{fill:#f2f2f2;}</style><linearGradient id="a" x1="1.168" y1="1" x2="1.168" gradientUnits="objectBoundingBox"><stop offset="0" stop-color="gray" stop-opacity="0.251"/><stop offset="0.54" stop-color="gray" stop-opacity="0.122"/><stop offset="1" stop-color="gray" stop-opacity="0.102"/></linearGradient><linearGradient id="b" x1="-0.934" y1="0.5" x2="0.066" y2="0.5" xlink:href="#a"/></defs><g transform="translate(-1056.319 -560.742)"><g transform="translate(1056.819 560.742)"><ellipse class="a" cx="27.013" cy="5.425" rx="27.013" ry="5.425" transform="translate(156.314 122.987)"/><path class="b" d="M430.173,431.878a6.19,6.19,0,0,0,.269.59v.025a45.682,45.682,0,0,0,1.878,5.719c.174.287.371.6.565.9a2.008,2.008,0,0,0,0,.678,12.855,12.855,0,0,1,.3,2.821c-.1.319.12,1.112-.226,1.388s-.7.755.359,1.39c0,0,.2.536.02.656-.02.014,0,.043.05.081-.292.864-.719,2.261-.452,2.36.147.057.545-.151.981-.432.011.057.02.118.032.179a8.627,8.627,0,0,0,.321,1.372,2.68,2.68,0,0,1,.285,1.4c-.1.24.285.773.194.983s.3.893.3.893a9.849,9.849,0,0,1,.373,1.772c-.016.448.42,3.334.42,3.334s-.452,1.49-.226,1.921a3.51,3.51,0,0,1,0,2.473,3.815,3.815,0,0,0-.689,2.1c.151.328-.21,4.379.7,6.047a18.6,18.6,0,0,1,.255,1.876,5.859,5.859,0,0,0,.719,1.652s-.434,1.808.631,2.114a1,1,0,0,0,.226.043,1.015,1.015,0,0,1-.077.583,2.307,2.307,0,0,0-.38.841h0a.226.226,0,0,0,.02.17,15.04,15.04,0,0,1,.452,1.921s.479,2.01,3.117,1.519c0,0,1.784-.1,1.634-.73a4.115,4.115,0,0,0-.194-.606,3.91,3.91,0,0,1-.167-.391c-.029-.149-.4-.567-.434-.85a7.442,7.442,0,0,1-.226-1.013c.043-.179-.4-1.458-.436-1.743a2.948,2.948,0,0,0-.17-.579l.095-.045a5,5,0,0,0,.032-1.831,4.173,4.173,0,0,0-1.035-1.13,31.762,31.762,0,0,0-.029-3.739,9.115,9.115,0,0,1,.075-2.143,25.061,25.061,0,0,0,.479-2.939,2.486,2.486,0,0,1,.149-.983,36.052,36.052,0,0,1,.524-3.976,47.143,47.143,0,0,0,.452-4.824l.14.4a15.447,15.447,0,0,0,.7,1.77c.115.181.452.76.742,1.243l.427.723a2.53,2.53,0,0,1,.059,1.13c-.136.43,1.395,2.753,1.395,2.753a1.376,1.376,0,0,0-.149.626c.043.226-.466.938-.466.938s-.194.64-.075.864a5.505,5.505,0,0,1-.194,1.548s-.511,2.918-.631,3.262a18.835,18.835,0,0,0,.061,2.694s-.94,2.408-.5,3.208a2.041,2.041,0,0,1-.095.931,3.826,3.826,0,0,0-.095,1.395v.065s-.511.678.133.954a16.137,16.137,0,0,0,2.835.475s2.082.6,3.086.76,3.1.1,3.253-.506a1.63,1.63,0,0,0,.054-.583.726.726,0,0,0-.414-.579,17.008,17.008,0,0,0-1.89-.626s-.99-.226-1.081-.656-1.5-1.623-1.5-1.623-.016-.084-.045-.2h.045l-.068-.068c-.07-.226-.183-.524-.321-.468h0a.339.339,0,0,1,.154-.466,2.239,2.239,0,0,0,.719-2.247c-.151-1.013-.179-.834.136-1.415a2.78,2.78,0,0,0,.226-1.4l.83-3.092a4.681,4.681,0,0,0,.24-1.176,2.2,2.2,0,0,1,.24-.9A12.656,12.656,0,0,1,450,460.83c.33-.491-.226-2.22-.226-2.22a27.4,27.4,0,0,1-.479-3.9,32.585,32.585,0,0,0-1.32-5.464,1.42,1.42,0,0,1-.208-.925,2.362,2.362,0,0,0-.31-1.033l-.056-.115a1,1,0,0,1,.246-.226,1.552,1.552,0,0,0,.547-1.239l-5.111-12.046c0-.036,2.367-4.871,2.36-4.908a14.541,14.541,0,0,0-1.478-2.9h0a.169.169,0,0,0-.057-.066c-.3-.138-1.318-.714-1.318-.714a2.618,2.618,0,0,0-2.034-1.182,1.383,1.383,0,0,0-.452.07.992.992,0,0,0-.151.061l-.023.2a4.034,4.034,0,0,1,.106-1.356c.011-.038.023-.079.032-.118h.226a3.644,3.644,0,0,0,3.655-3.633,3.693,3.693,0,0,0-.14-1.006l-.018-.052.113-.05c.452-.167,1.02.118,1.386-.185a1.051,1.051,0,0,0,.276-.477,2.863,2.863,0,0,0,.2-.757v-.136a.251.251,0,0,0,0-.041.4.4,0,0,0,0-.05V416.3h0a.879.879,0,0,0-.194-.452c-.24-.28-.64-.348-.943-.554a2.282,2.282,0,0,1-.6-.708,2.63,2.63,0,0,0-.585-.721.861.861,0,0,0-.879-.138.992.992,0,0,1-.289.136.6.6,0,0,1-.319-.086,6.181,6.181,0,0,0-3.391-.255,4.411,4.411,0,0,0-1.336.321,1.582,1.582,0,0,0-.9.979c-.093.35-.023.73-.133,1.076-.077.226-.226.434-.321.662a1.358,1.358,0,0,0-.086.373h0v.036a6.553,6.553,0,0,0,.26,1.582,9.147,9.147,0,0,0,.375,2.188,1.31,1.31,0,0,0,.117.24c-.108.226-.226.466-.339.689-.167-.047-.678-.161-.7.287a2.437,2.437,0,0,1-.249,1.049.748.748,0,0,1-.075.052.145.145,0,0,0-.084.147h0l-.059.045a.145.145,0,0,0-.072.025c-.032-.054-.136-.059-.466.335a6.351,6.351,0,0,1-1.5,1.153s-2.22,1.548-2.34,2.26S429.793,430.845,430.173,431.878Zm9.747-7.555V424.3l.027.014Zm6.031,50.635a.485.485,0,0,1-.19.038Z" transform="translate(-348.786 -346.682)"/><path class="c" d="M465.536,692.367c-2.606.488-3.081-1.51-3.081-1.51a13.854,13.854,0,0,0-.452-1.91.226.226,0,0,1-.02-.17h0a2.316,2.316,0,0,1,.375-.836c.163-.192.029-.992.029-.992l3.02-.769a4.531,4.531,0,0,1,.3.888c.032.28.475,1.555.43,1.732a6.837,6.837,0,0,0,.226,1.008c.032.283.4.7.43.843a3.171,3.171,0,0,0,.163.391,3.811,3.811,0,0,1,.192.6C467.3,692.263,465.536,692.367,465.536,692.367Z" transform="translate(-373.482 -557.793)"/><path class="d" d="M465.536,701.26c-2.606.488-3.081-1.51-3.081-1.51a13.859,13.859,0,0,0-.452-1.91.226.226,0,0,1-.02-.17l.626,1.808s.52,1.083,2.444.918a4.486,4.486,0,0,0,1.9-.452,3.809,3.809,0,0,1,.192.6C467.3,701.156,465.536,701.26,465.536,701.26Z" transform="translate(-373.482 -566.685)"/><path class="d" d="M468.75,699.328s.653.016.7-.518Z" transform="translate(-378.726 -567.568)"/><path class="e" d="M463.935,562.783a12.682,12.682,0,0,0-.7,2.62,2.243,2.243,0,0,0-.226.9,4.582,4.582,0,0,1-.226,1.171l-.857,3.065a2.774,2.774,0,0,1-.226,1.39c-.31.579-.28.4-.133,1.408a2.243,2.243,0,0,1-.71,2.236c-.534.3.237.992.237.992s-3.407.918-4.119.355.371-3.345.371-3.345a19.023,19.023,0,0,1-.059-2.681c.118-.341.622-3.244.622-3.244a5.456,5.456,0,0,0,.192-1.539c-.12-.221.075-.859.075-.859s.5-.712.452-.934a1.394,1.394,0,0,1,.149-.622s-1.51-2.31-1.379-2.74a2.6,2.6,0,0,0-.059-1.13s-.19-.328-.42-.719c-.28-.481-.619-1.056-.735-1.236a15.791,15.791,0,0,1-.689-1.759l-.14-.4a41.981,41.981,0,0,1-.452,4.8,31.627,31.627,0,0,0-.518,3.956,2.461,2.461,0,0,0-.149.977,24.965,24.965,0,0,1-.475,2.939,8.827,8.827,0,0,0-.072,2.134,30.422,30.422,0,0,1,.029,3.716,4.158,4.158,0,0,1,1.022,1.13,4.962,4.962,0,0,1-.029,1.822s-2.369,1.184-3.422.873-.622-2.1-.622-2.1a5.724,5.724,0,0,1-.71-1.643,18.593,18.593,0,0,0-.253-1.867c-.9-1.659-.547-5.685-.694-6.013a3.82,3.82,0,0,1,.678-2.086,3.5,3.5,0,0,0,0-2.459c-.226-.425.226-1.91.226-1.91s-.429-2.873-.414-3.316a9.842,9.842,0,0,0-.371-1.763s-.384-.678-.3-.888-.3-.741-.192-.977a2.677,2.677,0,0,0-.283-1.392,8.919,8.919,0,0,1-.316-1.356c-.09-.511-.156-.961-.156-.961l2.444-1.969,6.1-1.6,2.315-.753,2.236,3.524s.226.368.436.793a2.356,2.356,0,0,1,.305,1.029,1.417,1.417,0,0,0,.208.918,32.742,32.742,0,0,1,1.3,5.425,27.561,27.561,0,0,0,.475,3.881S464.26,562.3,463.935,562.783Z" transform="translate(-362.581 -448.526)"/><path class="d" d="M458.21,631.355s2.606-1.11,3.375-.326S458.21,631.355,458.21,631.355Z" transform="translate(-370.568 -514.892)"/><path class="d" d="M458.093,635.39s-2.642,1.494-1.738,1.734S458.093,635.39,458.093,635.39Z" transform="translate(-368.986 -518.484)"/><path class="d" d="M496.817,629.7s-1.13.072-.7.3S496.817,629.7,496.817,629.7Z" transform="translate(-399.832 -514.08)"/><path class="d" d="M496.463,631.2c-.016.075-3.273,1.13-2.636,1.6S496.463,631.2,496.463,631.2Z" transform="translate(-398.07 -515.241)"/><path class="d" d="M459.91,668.713c.488-.072,3.214-1.331,2.147-.427A2.125,2.125,0,0,1,459.91,668.713Z" transform="translate(-371.884 -543.691)"/><path class="d" d="M465.87,675.68a1.059,1.059,0,0,0,1.142.8C467.916,676.36,465.87,675.68,465.87,675.68Z" transform="translate(-376.497 -549.666)"/><path class="d" d="M462.53,681.789c.163-.045,2.1-.934,2.147-.518s-1.851,1.13-2,.918A.8.8,0,0,1,462.53,681.789Z" transform="translate(-373.912 -553.908)"/><path class="d" d="M490.31,678.012c.226-.014,2.457-.726,2.9-.088Z" transform="translate(-395.412 -551.198)"/><path class="d" d="M499.22,680.326a.782.782,0,0,1,.769-.163C500.373,680.342,499.22,680.326,499.22,680.326Z" transform="translate(-402.308 -553.096)"/><path class="d" d="M477.47,697.3a.66.66,0,0,0,.5.52Z" transform="translate(-385.474 -566.399)"/><path class="c" d="M495.318,687.059c-.147.608-2.222.667-3.212.5s-3.052-.755-3.052-.755a16.663,16.663,0,0,1-2.8-.475c-.638-.267-.133-.947-.133-.947v-.063a3.885,3.885,0,0,1,.093-1.388,2.932,2.932,0,0,0,.075-1.2s3.065.592,3.124.312a1.614,1.614,0,0,1,.755-.771c.222-.093.387.741.387.741s1.393,1.185,1.481,1.614,1.065.651,1.065.651a16.558,16.558,0,0,1,1.867.622.719.719,0,0,1,.409.574A1.613,1.613,0,0,1,495.318,687.059Z" transform="translate(-392.024 -554.765)"/><path class="d" d="M495.318,697.516c-.147.608-2.222.667-3.212.5s-3.052-.755-3.052-.755a16.67,16.67,0,0,1-2.8-.475c-.638-.267-.133-.947-.133-.947v-.063l3.1.678a8.436,8.436,0,0,0,2.5.651c.854,0,2.765.35,3.653-.181A1.613,1.613,0,0,1,495.318,697.516Z" transform="translate(-392.024 -565.223)"/><path class="d" d="M506.379,693.11a2.02,2.02,0,0,1-.739,1.3Z" transform="translate(-407.277 -563.156)"/><path class="f" d="M534.283,526.123a14.714,14.714,0,0,1-3.82.371h-.452l-.581-1.185.581-.988s.534-.147,1.243-.276c1.047-.188,2.487-.335,3.165.088C535.558,524.841,535.436,525.7,534.283,526.123Z" transform="translate(-425.689 -432.165)"/><path class="g" d="M488.118,470.146l.258-.3a14.471,14.471,0,0,1,1.46,2.882c.138.789.316,1.7.316,1.7s.335,1.026.554,1.481A5.007,5.007,0,0,1,491.14,477a.944.944,0,0,0,.335.9,1.686,1.686,0,0,1,.513,1.026s1.5,1.46,2.292,1.5,3.058.434,2.982.827.947.633,1.356.732-2.663,1.286-.854,2.814c0,0-1.146.226-1.264.513s-1.322-.158-1.322-.158a1.251,1.251,0,0,0-1.146-.651,1.791,1.791,0,0,1-1.343-.493,5.053,5.053,0,0,0-1.381-.692c-.493-.138-1.146-.2-1.166-.337s-2.961-12.833-2.961-12.833Z" transform="translate(-392.99 -390.364)"/><path class="h" d="M488.118,470.366l.258-.3a14.441,14.441,0,0,1,1.46,2.884c.138.791.316,1.7.316,1.7s.335,1.026.554,1.481a5.047,5.047,0,0,1,.434,1.085.941.941,0,0,0,.335.9,1.681,1.681,0,0,1,.513,1.026s1.5,1.462,2.292,1.5,3.058.434,2.982.83.947.633,1.356.73-2.663,1.289-.854,2.81c0,0-1.146.226-1.264.513s-1.322-.158-1.322-.158a1.251,1.251,0,0,0-1.146-.651,1.777,1.777,0,0,1-1.343-.5,5,5,0,0,0-1.381-.689c-.493-.138-1.146-.2-1.166-.337s-2.961-12.835-2.961-12.835Z" transform="translate(-392.99 -390.534)"/><path class="a" d="M532.513,708.78c14.919,0,27.013,2.43,27.013,5.425s-12.094,5.425-27.013,5.425S505.5,717.2,505.5,714.205" transform="translate(-407.168 -575.284)"/><rect class="c" width="3.863" height="28.724" transform="translate(115.985 21.044) rotate(9.63)"/><path class="i" d="M550.34,597.93l.845,6.036.723-6.275Z" transform="translate(-426.049 -462.582)"/><path class="e" d="M430.2,581.323v3.743l.845,3.257h.6l.726-3.5.362-4.225Z" transform="translate(-333.066 -449.355)"/><path class="i" d="M488.244,637.42l1.808.362s-2.05,5.672-.6,6.879h-2.29S486.314,640.316,488.244,637.42Z" transform="translate(-392.831 -520.055)"/><path class="d" d="M488.244,637.42l1.808.362s-2.05,5.672-.6,6.879h-2.29S486.314,640.316,488.244,637.42Z" transform="translate(-392.831 -520.055)"/><path class="i" d="M505.574,335.75l-5.794,36.69s-8.567,39.107-5.31,46.831h4.105L510.886,344.2Z" transform="translate(-398.06 -286.577)"/><path class="i" d="M591.887,315.59l4.442,36.878s3.235,46.98-.307,54.577h-3.5l-6.253-83.207Z" transform="translate(-469.68 -270.975)"/><path class="c" d="M540.265,264.834a4.747,4.747,0,0,1,4.681-3.391c3.574.09,9.1.741,11.981,3.694,4.467,4.587-3.018,20.035-3.018,20.035s-7.008,12.914-13.4-3.5C540.505,281.686,537.856,272.9,540.265,264.834Z" transform="translate(-433.292 -229.067)"/><path class="d" d="M540.265,264.834a4.747,4.747,0,0,1,4.681-3.391c3.574.09,9.1.741,11.981,3.694,4.467,4.587-3.018,20.035-3.018,20.035s-7.008,12.914-13.4-3.5C540.505,281.686,537.856,272.9,540.265,264.834Z" transform="translate(-433.292 -229.067)"/><path class="c" d="M552.128,282.076a3.391,3.391,0,0,1,3.334-2.41c2.543.066,6.476.529,8.522,2.631,3.18,3.264-2.148,14.264-2.148,14.264s-4.973,9.193-9.539-2.487C552.3,294.068,550.41,287.817,552.128,282.076Z" transform="translate(-442.697 -243.17)"/><path class="j" d="M609.247,594.7a2.882,2.882,0,0,0,.5,1.652c.61.755,1.72.814,2.67,1.051a11.753,11.753,0,0,1,2.111.832l2.055.972a5.356,5.356,0,0,0-1.542.321c-.264.1-.554.258-.592.534a.57.57,0,0,0,.341.547,1.609,1.609,0,0,0,.678.12,22.791,22.791,0,0,0,3.662-.192l.145-.02q.936.463,1.863.947a.727.727,0,0,0,.784-.19,4.156,4.156,0,0,0,.7-.8c.036.063.072.124.1.185.2.382.387.882.1,1.207-.226.253-.653.3-.782.6a.545.545,0,0,0,.21.613,1.392,1.392,0,0,0,.658.226,5.836,5.836,0,0,0,1.684-.014,1.357,1.357,0,0,0,.814-.346,1.493,1.493,0,0,0,.289-.9l.386-4.392a1.317,1.317,0,0,0-.045-.624,1.227,1.227,0,0,0-1-.594h-.043c.334,0,.678-.016,1.04-.016a2.487,2.487,0,0,0,.931-.118,2.39,2.39,0,0,0,1.13-1.386,6.738,6.738,0,0,0,.9-3.12l-.176-.079a23.791,23.791,0,0,0-.678-3.361,1.87,1.87,0,0,0,.3-1.017,3.762,3.762,0,0,0-.255-1.157,58.325,58.325,0,0,0-2.392-6.3,21.8,21.8,0,0,0-2.26-3.843q-.346-.452-.719-.9c-.181-.208-.585-.5-.66-.766s.084-.522,0-.793a1.329,1.329,0,0,0-.081-.206,3.224,3.224,0,0,0,.194-2.586l-.226-1.087a2.938,2.938,0,0,0-.28-.861,2.516,2.516,0,0,0-.54-.613,30.762,30.762,0,0,0-3.737-2.5,33.762,33.762,0,0,1-3.689-3c-.362-.321-.816-.667-1.284-.531a1.11,1.11,0,0,0-.678,1.1,2.274,2.274,0,0,0,.735,1.7c.818.748,2.055.809,3.029,1.338a7.1,7.1,0,0,1,.952.662l2.83,2.222a.983.983,0,0,1,.441.574.923.923,0,0,1-.068.425c-.106.326-.287.735-.42,1.148l-.226-.163a8.87,8.87,0,0,0-1.5-.9,7.442,7.442,0,0,0-2.195-.527c-1.67-.188-3.165.07-4.186,1.465a3.094,3.094,0,0,1-.793.816,2.943,2.943,0,0,0-.644.409,1.566,1.566,0,0,0,.267,2.034,3.164,3.164,0,0,0,1.487.775,3.056,3.056,0,0,0,3.712,1.664,4.538,4.538,0,0,1,.02.877,1.011,1.011,0,0,0,.319.812,1.331,1.331,0,0,0,.389.181,5.965,5.965,0,0,1,1.408.735,7.233,7.233,0,0,0-1.248,1.865,3.034,3.034,0,0,0,.226,2.821l.014.018a.936.936,0,0,1-.206.38.678.678,0,0,1-.934-.095,3.553,3.553,0,0,1-.488-.753,3.151,3.151,0,0,0-2.034-1.438,1.634,1.634,0,0,0-.938.038.827.827,0,0,0-.545.705,1.314,1.314,0,0,0,.493.866A14.371,14.371,0,0,0,614.216,586a8,8,0,0,0,.762.416q-.678-.142-1.338-.278a6.051,6.051,0,0,0-1.888-.165,2.107,2.107,0,0,0-1.582.922,2.035,2.035,0,0,0-.147,1.537,5.168,5.168,0,0,0,.694,1.424,10.138,10.138,0,0,0,1.734,2.17c-.565.17-1.13.355-1.682.558a2.33,2.33,0,0,0-1.383.958A2.2,2.2,0,0,0,609.247,594.7Zm8.321-7.686h.02a.707.707,0,0,0,.3-.251,4.1,4.1,0,0,0,.714-1.546,1.743,1.743,0,0,0,.384-.1.859.859,0,0,0-.267.624l1.275.624a.475.475,0,0,1,.226.179.452.452,0,0,1,.025.267c-.036.292-.093.583-.129.873-.382-.113-.757-.2-1.094-.294-.479-.131-.965-.253-1.451-.375Z" transform="translate(-487.445 -461.804)"/><path class="k" d="M636.739,614.963a2.444,2.444,0,0,0,1.9-.305,1.166,1.166,0,0,1,.368-.172.751.751,0,0,1,.628.251,2.023,2.023,0,0,1,.326,2.143,4.553,4.553,0,0,1-1.433,1.759,13.014,13.014,0,0,1-1.508,1.072,2.794,2.794,0,0,0-1.546-1.5,3.391,3.391,0,0,1-1.426-1.442c-.265-.416-.5-.4-.262-.827a6.263,6.263,0,0,1,.94-1.13,3.665,3.665,0,0,0,.506-.678c.158-.285.122-.47.366-.244.161.149.226.472.411.646A1.808,1.808,0,0,0,636.739,614.963Z" transform="translate(-506.378 -501.762)"/><path class="k" d="M629.3,572.271a.96.96,0,0,0,.066-.418.981.981,0,0,0-.432-.567l-2.764-2.193a6.8,6.8,0,0,0-.927-.653c-.954-.522-2.159-.583-2.959-1.32a2.272,2.272,0,0,1-.719-1.684,1.107,1.107,0,0,1,.653-1.09c.427-.127.9.208,1.257.527a33.15,33.15,0,0,0,3.6,2.964,30.184,30.184,0,0,1,3.653,2.471,2.461,2.461,0,0,1,.5.59,3.03,3.03,0,0,1,.274.852l.226,1.071a3.049,3.049,0,0,1-.264,2.649.965.965,0,0,1-.737.364,1.451,1.451,0,0,1-.567-.194c-.452-.226-1.27-.452-1.408-1.017A5.02,5.02,0,0,1,629.3,572.271Z" transform="translate(-496.992 -463.478)"/><path class="k" d="M622.927,654.435a3.621,3.621,0,0,1-.477-.741,3.076,3.076,0,0,0-1.985-1.42,1.6,1.6,0,0,0-.9.036.816.816,0,0,0-.531.7,1.3,1.3,0,0,0,.479.852,14.016,14.016,0,0,0,2.432,2.034,6.415,6.415,0,0,0,2.959,1.026.745.745,0,0,0,.317-.029.707.707,0,0,0,.289-.246,5.534,5.534,0,0,0,.9-2.55c-.054.323-1.874-.432-2.08-.335-.3.142-.274.567-.493.771A.653.653,0,0,1,622.927,654.435Z" transform="translate(-495.035 -531.513)"/><path class="k" d="M669.791,678.069a.6.6,0,0,1-.063.328c-.124.194-.4.2-.633.163a11.573,11.573,0,0,1-1.558-.375l-4.641-1.34a.423.423,0,0,1-.2-.1.412.412,0,0,1-.093-.2,5.457,5.457,0,0,1-.1-2.034.41.41,0,0,1,.477-.418,19.682,19.682,0,0,1,2.188-.1,11.054,11.054,0,0,0,1.422-.031,10.281,10.281,0,0,1,1.926-.368c.531.045.509.452.563.9A31.127,31.127,0,0,1,669.791,678.069Z" transform="translate(-528.641 -548.045)"/><path class="e" d="M616.977,668.434a5.792,5.792,0,0,0-1.845-.165,2.052,2.052,0,0,0-1.544.9,2.009,2.009,0,0,0-.145,1.519,5.255,5.255,0,0,0,.678,1.4,9.23,9.23,0,0,0,1.982,2.387c.4.314.832.574,1.212.9a8.358,8.358,0,0,1,1.793,2.656,11.24,11.24,0,0,1,1.1,2.821.282.282,0,0,0,.1.2.268.268,0,0,0,.2.014l2.227-.411a.348.348,0,0,0,.312-.529,15.579,15.579,0,0,0-2.656-5.744,5.1,5.1,0,0,0,4.48,1.3,1.75,1.75,0,0,0,.85-.369,2.04,2.04,0,0,0,.364-1.881,13.8,13.8,0,0,0-.411-1.734c-.418-1.356-2.222-1.722-3.445-2.053Q619.622,668.968,616.977,668.434Z" transform="translate(-490.644 -543.919)"/><path class="d" d="M625.384,685.829a2.448,2.448,0,0,1,.845.561,6.147,6.147,0,0,0-2.1-.888,7.459,7.459,0,0,1-2.034-.981A24.384,24.384,0,0,1,625.384,685.829Z" transform="translate(-497.403 -556.508)"/><path class="g" d="M666.2,717.9c.192.38.375.87.1,1.194-.212.249-.637.292-.764.595a.54.54,0,0,0,.206.606,1.33,1.33,0,0,0,.642.226,5.738,5.738,0,0,0,1.646-.014,1.32,1.32,0,0,0,.793-.341,1.488,1.488,0,0,0,.283-.9l.378-4.336a1.356,1.356,0,0,0-.043-.617,1.2,1.2,0,0,0-.979-.585,5.253,5.253,0,0,0-1.331-.054,1.406,1.406,0,0,0-.83.285,1.6,1.6,0,0,0-.391.9,6.592,6.592,0,0,0-.326,1.752A4.319,4.319,0,0,0,666.2,717.9Z" transform="translate(-531.007 -579.056)"/><path class="g" d="M635.9,722.587a5.278,5.278,0,0,0-2.511.282c-.258.095-.54.255-.579.527a.563.563,0,0,0,.335.54,1.581,1.581,0,0,0,.665.12,22.539,22.539,0,0,0,3.576-.19,1.924,1.924,0,0,0,.87-.274.678.678,0,0,0,.274-.8c-.142-.3-.531-.391-.719-.66-.136-.194-.169-.482-.382-.583a.654.654,0,0,0-.486.036c-.226.079-.769.158-.924.346A2.6,2.6,0,0,0,635.9,722.587Z" transform="translate(-505.698 -585.14)"/><circle class="k" cx="2.968" cy="2.968" r="2.968" transform="translate(124.031 109.637)"/><path class="g" d="M644.574,608.464a3.967,3.967,0,0,0-1.659-.579.868.868,0,0,0-.6.029.882.882,0,0,0-.287.353,3.284,3.284,0,0,0-.393.938,1.09,1.09,0,0,0,.226.956c.176.181.43.271.61.452a1.13,1.13,0,0,1,.267.977,2.922,2.922,0,0,1-.4.965,16.347,16.347,0,0,1-1.487,2.188A9.246,9.246,0,0,0,639.3,617a3.024,3.024,0,0,0,.226,2.785,2.248,2.248,0,0,0,2.55.884.842.842,0,0,0-.258.615l1.243.617a.47.47,0,0,1,.226.176.452.452,0,0,1,.023.262,8.249,8.249,0,0,0-.152,1.521,1.48,1.48,0,0,0,.728,1.266,2.2,2.2,0,0,0,1.386,0,17.289,17.289,0,0,1,3.271-.343,4.132,4.132,0,0,0,1.616-.2,1.922,1.922,0,0,0,1.146-1.738,3.71,3.71,0,0,0-.251-1.144,57.766,57.766,0,0,0-2.335-6.219,21.843,21.843,0,0,0-2.218-3.8c-.226-.3-.452-.6-.7-.884-.176-.206-.572-.5-.644-.757s.081-.515,0-.782a1.582,1.582,0,0,0-.576-.8Z" transform="translate(-510.536 -497.166)"/><path class="e" d="M629.575,686.546c-1.3-.6-2.6-1.2-3.958-1.67a4.53,4.53,0,0,0-3.088-.226c-.294.117-.561.287-.843.425a9.5,9.5,0,0,1-3.081.644,28.937,28.937,0,0,0-6.815,1.621,2.373,2.373,0,0,0-1.356.945,2.163,2.163,0,0,0-.145,1.13,2.876,2.876,0,0,0,.486,1.632c.6.746,1.68.8,2.606,1.038a11.426,11.426,0,0,1,2.064.823c2.165,1.033,4.333,2.066,6.458,3.185a.7.7,0,0,0,.764-.188,4.7,4.7,0,0,0,1.334-2.2,9.481,9.481,0,0,0,.339-2.572c.832,0,1.508-.036,2.34-.036a1.814,1.814,0,0,0,2.016-1.483A6.568,6.568,0,0,0,629.575,686.546Z" transform="translate(-488.253 -556.461)"/><path class="d" d="M628.8,706.373a4.283,4.283,0,0,1,1.917-.287,6.334,6.334,0,0,1,1.189.09,9.394,9.394,0,0,1,1.738.653,11.036,11.036,0,0,0,4.381.859" transform="translate(-502.596 -573.198)"/><path class="e" d="M612.051,602.05a3.237,3.237,0,0,0,1.6.8c.588.136,1.194.188,1.786.319.728.16,1.523.545,1.689,1.273a4.227,4.227,0,0,1,.023.879,1,1,0,0,0,.305.793,1.356,1.356,0,0,0,.38.179,6.329,6.329,0,0,1,4.069,5.841,2.878,2.878,0,0,0,1.4-2.062c0,.787.678,1.582.294,2.285a3.617,3.617,0,0,0,.87-5.256c-.3-.38-.678-.7-.99-1.06a4.914,4.914,0,0,1-1.171-3.752,5.36,5.36,0,0,0,.106-1.713,3.312,3.312,0,0,0-1.51-1.786,8.682,8.682,0,0,0-1.465-.891,7.2,7.2,0,0,0-2.145-.522,4.054,4.054,0,0,0-4.089,1.447,2.978,2.978,0,0,1-.773.8,2.918,2.918,0,0,0-.631.4A1.562,1.562,0,0,0,612.051,602.05Z" transform="translate(-489.224 -489.025)"/><path class="f" d="M459.366,446.646c-.093-.038-6.535-2.7-5.651-3.228a7.272,7.272,0,0,0,1.619-2.685c.31-.726.52-1.313.52-1.313s5.172-.918,3.321,2.26a5.9,5.9,0,0,0-.653,1.562A3.457,3.457,0,0,0,459.366,446.646Z" transform="translate(-367.025 -366.717)"/><path class="d" d="M464.971,441.669a5.9,5.9,0,0,0-.653,1.562,3.617,3.617,0,0,1-3.052-2.147,3.16,3.16,0,0,1-.136-.353c.31-.726.52-1.313.52-1.313S466.822,438.5,464.971,441.669Z" transform="translate(-372.828 -366.715)"/><path class="f" d="M467.6,427.92a3.617,3.617,0,0,1-6.919,1.458,3.571,3.571,0,0,1-.307-1.458,3.617,3.617,0,0,1,7.087-1A3.661,3.661,0,0,1,467.6,427.92Z" transform="translate(-372.24 -355.128)"/><path class="d" d="M461.5,549.315a2.2,2.2,0,0,0-.524,1s-1.777,1.214-1.659.452a18.026,18.026,0,0,0-.927-3.888l.118,4.236s-5.685-.267-6.1-.678a14.665,14.665,0,0,0-2.83-1.218s-.744.6-1.429,1.049c-.09-.511-.156-.961-.156-.961l2.444-1.969,6.1-1.6,2.292-.737,2.236,3.524S461.3,548.89,461.5,549.315Z" transform="translate(-362.658 -448.526)"/><path class="c" d="M458.5,476.438a2,2,0,0,0-.651,1.1s-1.777,1.214-1.659.452a18,18,0,0,0-.918-3.879l.12,4.236s-5.687-.267-6.1-.678a14.6,14.6,0,0,0-2.844-1.214s-2.1,1.689-2.487,1.539.678-3.02.678-3.02l1.094-16.823s-.3-5,.149-5.183a.587.587,0,0,0,.185-.118,1.877,1.877,0,0,0,.407-1.246c.029-.531.739-.267.739-.267l-.414.534,3.671,2.231.032.02a4.4,4.4,0,0,1,.452-.2,1.6,1.6,0,0,1,1.04-.124,1.019,1.019,0,0,1,.389.35,4.332,4.332,0,0,1,.5,1.013l1.334,2.249s.678,2.993.678,3.11a15.518,15.518,0,0,0,.452,3.14,4.866,4.866,0,0,1,.387,2.222,12.164,12.164,0,0,0,.147,2.1c.979.8,1.481,3.524,1.481,3.524s1.542,3.052,1.659,3.407A1.6,1.6,0,0,1,458.5,476.438Z" transform="translate(-359.477 -375.983)"/><path class="d" d="M457.993,454.566a7.577,7.577,0,0,1-1.4,1.282l-3-2.534a1.881,1.881,0,0,0,.407-1.246c.029-.533.739-.267.739-.267l-.086.111a.479.479,0,0,0,.129.7Z" transform="translate(-366.993 -376.344)"/><path class="c" d="M457.993,454.039a7.616,7.616,0,0,1-1.4,1.284l-3-2.536a1.877,1.877,0,0,0,.407-1.246c.029-.531.739-.267.739-.267l-.086.111a.479.479,0,0,0,.129.7Z" transform="translate(-366.993 -375.937)"/><path class="d" d="M474.226,463.939c-.389.463-.938.99-.9.726a2.222,2.222,0,0,0-.552-1.105,1.649,1.649,0,0,1,1.076.029A1.019,1.019,0,0,1,474.226,463.939Z" transform="translate(-381.837 -385.436)"/><path class="c" d="M474.6,463.352c-.389.466-.938.99-.9.728s-.292-.692-.518-.952a1.6,1.6,0,0,1,1.04-.124,1,1,0,0,1,.382.348Z" transform="translate(-382.154 -385.028)"/><path class="d" d="M437.111,458.49s.038-.355-.475.258a6.258,6.258,0,0,1-1.469,1.135s-2.19,1.542-2.31,2.26-.83,3.791-.452,4.817,3.239,5.945,3.239,5.945a2.656,2.656,0,0,0-.574,1.935,12.907,12.907,0,0,1,.3,2.8c-.1.316.12,1.105-.226,1.381s-.689.75.357,1.383c0,0,.2.534.018.651s2.627,1.343,3.732.692,3.1-5.864,3.14-7.03a28,28,0,0,0-.968-5.922c-.355-.909-1.422-4.444-1.876-5.233S437.111,458.49,437.111,458.49Z" transform="translate(-350.512 -381.493)"/><path class="g" d="M436.551,458.49s.041-.355-.472.258a6.258,6.258,0,0,1-1.481,1.144s-2.193,1.542-2.31,2.261-.83,3.791-.452,4.817,3.237,5.945,3.237,5.945a2.648,2.648,0,0,0-.572,1.935,12.76,12.76,0,0,1,.3,2.8c-.1.317.118,1.105-.226,1.381s-.692.751.355,1.383c0,0,.2.534.02.651s2.627,1.343,3.732.692,3.1-5.864,3.14-7.03a27.86,27.86,0,0,0-.967-5.922c-.355-.909-1.422-4.444-1.876-5.233S436.551,458.49,436.551,458.49Z" transform="translate(-350.071 -381.493)"/><path class="d" d="M449.58,473.69s1.7,1.876,1.639,3.119A3.967,3.967,0,0,0,449.58,473.69Z" transform="translate(-363.889 -393.336)"/><path class="d" d="M474.814,461.36s1.1-.678,2.486,1.047c0,0,1.006.572,1.3.712s.633,3.809.633,3.809a5.878,5.878,0,0,1,.472,2.487,18.4,18.4,0,0,0,.515,4.028s1.144,5.608,1.105,5.764a5.654,5.654,0,0,1-1.146-2.713,16.682,16.682,0,0,0-1.085-4.087c-.138-.176-1.087-5.253-1.087-5.253a18.848,18.848,0,0,0-1.264-2.862c-.5-.71-1.105-2.055-1.356-2.292a2.609,2.609,0,0,0-.61-.393Z" transform="translate(-383.393 -383.692)"/><path class="g" d="M474.793,461.36s1.234-.678,2.615,1.047c0,0,1.008.572,1.3.712s.631,3.809.631,3.809a5.905,5.905,0,0,1,.475,2.487,18.57,18.57,0,0,0,.513,4.028s1.146,5.608,1.105,5.764a5.653,5.653,0,0,1-1.146-2.713,16.779,16.779,0,0,0-1.085-4.087c-.138-.176-1.085-5.253-1.085-5.253a19.417,19.417,0,0,0-1.264-2.851c-.493-.717-1.108-2.055-1.356-2.292a2.472,2.472,0,0,0-.73-.393Z" transform="translate(-383.385 -383.692)"/><path class="f" d="M498.85,513.009s2.349-1.539,3.483-.78,2.993,1.838,1.166,2.618a11.416,11.416,0,0,1-4.354.631Z" transform="translate(-402.022 -423)"/><path class="d" d="M483.881,576.96c-.35.753-.64,4.521-.836,5.724-.28-.481-.619-1.056-.735-1.236a15.785,15.785,0,0,1-.689-1.759,11.682,11.682,0,0,0,.839-2.667c0-.7,1.13-1.571,1.13-1.571A1.307,1.307,0,0,1,483.881,576.96Z" transform="translate(-388.686 -472.093)"/><path class="d" d="M467.457,426.927a1.069,1.069,0,0,1-.176.072,1.092,1.092,0,0,1-.8-.262c-.246-.149-.588-.26-.8-.066-.278.253-.077.793-.364,1.038-.181.156-.468.1-.678.226s-.262.407-.314.646-.151.515-.389.586-.452-.084-.678-.077a.22.22,0,0,1-.136-.027.145.145,0,0,1-.023-.106,2.315,2.315,0,0,0-.077-.857.821.821,0,0,0-.6-.565c-.416-.063-.766.3-1.01.644a10.5,10.5,0,0,0-.7,1.13c-.011.02-.023.047-.036.079a3.571,3.571,0,0,1-.307-1.458,3.617,3.617,0,0,1,7.087-1Z" transform="translate(-372.24 -355.135)"/><path class="e" d="M458.515,421.007c.244-.344.595-.708,1.01-.644a.823.823,0,0,1,.6.563,2.276,2.276,0,0,1,.075.857.158.158,0,0,0,.025.109c.032.036.088.029.136.027.226,0,.463.142.678.077s.339-.346.389-.585a.942.942,0,0,1,.314-.647c.208-.131.491-.075.678-.226.287-.244.086-.787.364-1.038.215-.194.556-.084.8.066a1.092,1.092,0,0,0,.8.262,2.354,2.354,0,0,0,.269-.115c.441-.167,1.01.118,1.37-.183a1.064,1.064,0,0,0,.274-.475,2.915,2.915,0,0,0,.2-.753,1.012,1.012,0,0,0-.2-.737c-.226-.276-.633-.346-.934-.549a2.291,2.291,0,0,1-.595-.7,2.6,2.6,0,0,0-.579-.719.85.85,0,0,0-.87-.136.9.9,0,0,1-.285.133.57.57,0,0,1-.314-.086,6.043,6.043,0,0,0-3.348-.253,4.309,4.309,0,0,0-1.32.319,1.583,1.583,0,0,0-.891.974c-.09.348-.02.726-.131,1.069-.075.226-.226.432-.316.66a3.706,3.706,0,0,0,.17,1.969,9.278,9.278,0,0,0,.371,2.177c.061.133.127.366.278.278.111-.066.226-.452.283-.563A10.886,10.886,0,0,1,458.515,421.007Z" transform="translate(-369.338 -348.02)"/><path class="d" d="M434.393,480.656l-.533,1.515a45.623,45.623,0,0,0,1.856,5.687c.592.988,1.46,2.261,1.46,2.261a5.426,5.426,0,0,0,3.165.393c1.7-.335,6.653-1.223,6.653-1.223a.66.66,0,0,0,.633-.237c.226-.316,1.343-.475,1.343-.475s1.3-1.894-.3-2.685c0,0-.2.436-1.047.138s-1.105.237-1.105.237a8.929,8.929,0,0,1-2.152.179,23.543,23.543,0,0,1-2.884-.3.251.251,0,0,0-.355.02,2.152,2.152,0,0,1-.631-.357c-.158-.176-.375.2-.375.2s-.278-.158-.2-.355-.255-.949-.255-.949a1.913,1.913,0,0,1-.059-.888,5.831,5.831,0,0,0-.5-1.808,2.562,2.562,0,0,1,.079-.712c.1-.355-.75-1.067-.75-1.067s-.83-4.026-2.586-2.713A3.453,3.453,0,0,0,434.393,480.656Z" transform="translate(-351.722 -396.095)"/><path class="g" d="M433.863,480.656l-.533,1.515a45.623,45.623,0,0,0,1.856,5.687c.592.988,1.463,2.261,1.463,2.261a5.413,5.413,0,0,0,3.165.393c1.7-.335,6.655-1.223,6.655-1.223a.66.66,0,0,0,.633-.237c.226-.316,1.343-.475,1.343-.475s1.3-1.894-.3-2.685c0,0-.2.436-1.047.138s-1.108.237-1.108.237a8.916,8.916,0,0,1-2.152.179,23.4,23.4,0,0,1-2.882-.3.251.251,0,0,0-.355.02,2.158,2.158,0,0,1-.633-.357c-.158-.176-.375.2-.375.2s-.276-.158-.2-.355-.258-.949-.258-.949a1.947,1.947,0,0,1-.059-.888,5.778,5.778,0,0,0-.493-1.808,2.466,2.466,0,0,1,.079-.712c.1-.355-.751-1.067-.751-1.067s-.83-4.026-2.586-2.713A3.463,3.463,0,0,0,433.863,480.656Z" transform="translate(-351.312 -396.095)"/><path class="d" d="M452.416,512.56s-1.935.4-1.284.73S452.416,512.56,452.416,512.56Z" transform="translate(-364.986 -423.419)"/><g class="l" transform="translate(87.278 70.001)"><path d="M460.107,432.573a.814.814,0,0,0-.6-.563c-.416-.063-.766.3-1.01.642a10.913,10.913,0,0,0-.7,1.13c-.063.117-.172.5-.283.563-.152.088-.226-.147-.278-.28a9.879,9.879,0,0,1-.371-2.177,12.574,12.574,0,0,1-.255-1.268,6.178,6.178,0,0,0,.255,1.582,9.277,9.277,0,0,0,.371,2.177c.061.133.127.366.278.278.111-.066.226-.452.283-.561a10.676,10.676,0,0,1,.7-1.13c.244-.344.594-.708,1.01-.642a.814.814,0,0,1,.6.563,1.546,1.546,0,0,1,.079.452A2.034,2.034,0,0,0,460.107,432.573Z" transform="translate(-456.601 -430.003)"/><path d="M478.561,428.593a1.044,1.044,0,0,1-.273.472c-.359.3-.929.018-1.37.185-.09.034-.174.088-.269.115a1.1,1.1,0,0,1-.8-.262c-.246-.149-.588-.262-.8-.068-.278.253-.077.793-.364,1.038-.181.156-.468.1-.678.226s-.262.4-.314.644-.152.515-.389.585-.452-.084-.678-.075a.219.219,0,0,1-.136-.027.063.063,0,0,1-.016-.029v.237a.156.156,0,0,0,.025.106c.032.036.088.029.136.029.226,0,.463.14.678.075s.339-.344.389-.585a.933.933,0,0,1,.314-.644c.208-.131.491-.075.678-.226.287-.244.086-.784.364-1.038.215-.194.556-.084.8.066a1.092,1.092,0,0,0,.8.262,2.817,2.817,0,0,0,.269-.113c.441-.167,1.01.115,1.37-.185a1.055,1.055,0,0,0,.274-.472,2.956,2.956,0,0,0,.2-.755,1.151,1.151,0,0,0,0-.264A3.349,3.349,0,0,1,478.561,428.593Z" transform="translate(-468.886 -427.89)"/></g><circle class="m" cx="3.452" cy="3.452" r="3.452" transform="translate(87.857 17.727)"/><circle class="m" cx="5.787" cy="5.787" r="5.787" transform="translate(97.871 0)"/><circle class="m" cx="5.787" cy="5.787" r="5.787" transform="translate(90.212 28.08)"/><circle class="m" cx="3.452" cy="3.452" r="3.452" transform="translate(214.332 59.32)"/><circle class="m" cx="5.787" cy="5.787" r="5.787" transform="translate(199.645 41.593)"/><circle class="m" cx="5.787" cy="5.787" r="5.787" transform="translate(207.306 69.673)"/><circle class="m" cx="1.955" cy="1.955" r="1.955" transform="translate(20.711 67.069)"/><circle class="m" cx="3.278" cy="3.278" r="3.278" transform="translate(27.77 58.346)"/><circle class="m" cx="3.278" cy="3.278" r="3.278" transform="translate(12.082 63.43)"/><circle class="m" cx="1.955" cy="1.955" r="1.955" transform="translate(165.609 55.314)"/><circle class="m" cx="3.278" cy="3.278" r="3.278" transform="translate(172.668 46.591)"/><circle class="m" cx="3.278" cy="3.278" r="3.278" transform="translate(156.98 51.675)"/><circle class="m" cx="8.194" cy="8.194" r="8.194" transform="translate(40.651 23.977)"/><circle class="m" cx="4.729" cy="4.729" r="4.729" transform="translate(90.908 54.568)"/><circle class="m" cx="4.729" cy="4.729" r="4.729" transform="translate(137.701 85.311)"/><ellipse class="a" cx="27.013" cy="5.425" rx="27.013" ry="5.425" transform="translate(30.517 123.1)"/><ellipse class="a" cx="27.013" cy="5.425" rx="27.013" ry="5.425" transform="translate(185.361 139.15)"/><ellipse class="a" cx="27.013" cy="5.425" rx="27.013" ry="5.425" transform="translate(0 139.15)"/><g transform="translate(9.124 106.043)"><path class="e" d="M173.861,393.6l-.048-.049c.532-10.783,1.868-20.574,3.763-27.571,2.912-10.737,6.832-13.871,10.372-8.291s6.2,19.085,7.034,35.731l-.048.049c-1.126-22.535-5.457-38.274-10.533-38.274C179.391,355.195,174.958,371.347,173.861,393.6Z" transform="translate(-170.64 -354.972)"/><rect class="e" width="0.223" height="8.804" transform="translate(9.696 30.431)"/><path class="g" d="M894.235,593.732a9.552,9.552,0,0,1-2.152,5.584,8.224,8.224,0,0,1-.051-11.149A9.552,9.552,0,0,1,894.235,593.732Z" transform="translate(-882.26 -562.179)"/><path class="d" d="M894.235,593.732a9.552,9.552,0,0,1-2.152,5.584,8.224,8.224,0,0,1-.051-11.149A9.552,9.552,0,0,1,894.235,593.732Z" transform="translate(-882.26 -562.179)"/><path class="e" d="M898.388,308.824l-.768-.615,4.3-3.842h10.912v3.381l-7.07,4.765Z" transform="translate(-885.626 -288.724)"/><path class="n" d="M979.825,306.522v-2.079h-1.449v.509l-.541-.586-3.535,3.842-1.383.922-2.145,15.67,3.234,3.234h7.517V308.363Z" transform="translate(-950.627 -288.724)"/><rect class="o" width="11.681" height="19.826" transform="translate(11.994 19.486)"/><rect class="n" width="2.152" height="4.841" transform="translate(16.528 34.471)"/><path class="e" d="M910.264,479.589v-.768h-.922v.768h.922Z" transform="translate(-896.042 -443.735)"/><path class="e" d="M910.187,491.232h-.845V492h.922v-.769Z" transform="translate(-896.042 -454.763)"/><rect class="e" width="0.922" height="0.768" transform="translate(14.837 35.085)"/><rect class="e" width="0.922" height="0.768" transform="translate(14.837 36.469)"/><path class="e" d="M966.806,479.589v-.768h-.922v.768h.922Z" transform="translate(-946.282 -443.735)"/><path class="e" d="M966.729,491.232h-.845V492h.922v-.769Z" transform="translate(-946.282 -454.763)"/><rect class="e" width="0.922" height="0.768" transform="translate(21.139 35.085)"/><rect class="e" width="0.922" height="0.768" transform="translate(21.139 36.469)"/><path class="e" d="M1024.727,341.681v-.768h-.922v.768h.922Z" transform="translate(-997.748 -321.197)"/><path class="e" d="M1024.65,353.325h-.845v.768h.922v-.768Z" transform="translate(-997.748 -332.226)"/><rect class="e" width="0.922" height="0.768" transform="translate(27.594 19.716)"/><rect class="e" width="0.922" height="0.768" transform="translate(27.594 21.099)"/><path class="e" d="M1024.727,380.3v-.769h-.922v.769h.922Z" transform="translate(-997.748 -355.507)"/><path class="e" d="M1024.65,391.939h-.845v.768h.922v-.768Z" transform="translate(-997.748 -366.536)"/><rect class="e" width="0.922" height="0.768" transform="translate(27.594 24.02)"/><rect class="e" width="0.922" height="0.768" transform="translate(27.594 25.403)"/><path class="e" d="M1024.727,418.909v-.768h-.922v.768h.922Z" transform="translate(-997.748 -389.818)"/><path class="e" d="M1024.65,430.553h-.845v.768h.922v-.768Z" transform="translate(-997.748 -400.847)"/><rect class="e" width="0.922" height="0.768" transform="translate(27.594 28.323)"/><rect class="e" width="0.922" height="0.768" transform="translate(27.594 29.706)"/><path class="e" d="M1024.727,457.524v-.769h-.922v.769h.922Z" transform="translate(-997.748 -424.129)"/><path class="e" d="M1024.65,469.167h-.845v.768h.922v-.768Z" transform="translate(-997.748 -435.157)"/><rect class="e" width="0.922" height="0.768" transform="translate(27.594 32.626)"/><rect class="e" width="0.922" height="0.768" transform="translate(27.594 34.01)"/><rect class="e" width="8.914" height="1.844" transform="translate(13.3 20.485)"/><rect class="e" width="8.914" height="1.844" transform="translate(13.3 24.173)"/><rect class="e" width="8.914" height="1.844" transform="translate(13.3 27.862)"/><rect class="e" width="8.914" height="1.844" transform="translate(13.3 31.551)"/><rect class="e" width="35.217" height="0.223" transform="translate(0 39.235)"/><rect class="e" width="0.223" height="8.804" transform="translate(6.798 30.431)"/><path class="g" d="M868.235,593.732a9.552,9.552,0,0,1-2.152,5.584,8.224,8.224,0,0,1-.051-11.149A9.552,9.552,0,0,1,868.235,593.732Z" transform="translate(-859.157 -562.179)"/></g><g transform="translate(202.128 115.572)"><path class="e" d="M173.85,385.07l-.037-.038a107.265,107.265,0,0,1,2.932-21.482c2.269-8.366,5.324-10.808,8.081-6.46s4.829,14.87,5.481,27.84l-.037.039c-.877-17.559-4.252-29.822-8.207-29.822C178.159,355.146,174.705,367.731,173.85,385.07Z" transform="translate(-171.34 -354.972)"/><rect class="e" width="0.174" height="6.86" transform="translate(7.555 23.711)"/><path class="g" d="M893.274,592.5a7.442,7.442,0,0,1-1.677,4.351,6.408,6.408,0,0,1-.04-8.687A7.443,7.443,0,0,1,893.274,592.5Z" transform="translate(-883.943 -567.918)"/><path class="d" d="M893.274,592.5a7.442,7.442,0,0,1-1.677,4.351,6.408,6.408,0,0,1-.04-8.687A7.443,7.443,0,0,1,893.274,592.5Z" transform="translate(-883.943 -567.918)"/><path class="e" d="M898.219,307.84l-.6-.479,3.353-2.994h8.5V307l-5.509,3.712Z" transform="translate(-888.275 -292.178)"/><path class="n" d="M977.826,306.046v-1.62H976.7v.4l-.421-.456-2.754,2.994-1.078.719-1.671,12.209,2.52,2.52h5.857V307.481Z" transform="translate(-955.076 -292.178)"/><rect class="o" width="9.101" height="15.448" transform="translate(9.345 15.183)"/><rect class="n" width="1.677" height="3.772" transform="translate(12.878 26.858)"/><path class="e" d="M910.06,479.42v-.6h-.718v.6h.718Z" transform="translate(-898.979 -451.483)"/><path class="e" d="M910,491.232h-.659v.6h.718v-.6Z" transform="translate(-898.979 -462.817)"/><rect class="e" width="0.719" height="0.599" transform="translate(11.561 27.338)"/><rect class="e" width="0.719" height="0.599" transform="translate(11.561 28.415)"/><path class="e" d="M966.6,479.42v-.6h-.719v.6h.719Z" transform="translate(-950.611 -451.483)"/><path class="e" d="M966.543,491.232h-.659v.6h.719v-.6Z" transform="translate(-950.611 -462.817)"/><rect class="e" width="0.719" height="0.599" transform="translate(16.471 27.338)"/><rect class="e" width="0.719" height="0.599" transform="translate(16.471 28.415)"/><path class="e" d="M1024.523,341.512v-.6h-.718v.6h.718Z" transform="translate(-1003.503 -325.551)"/><path class="e" d="M1024.464,353.325h-.659v.6h.718v-.6Z" transform="translate(-1003.503 -336.885)"/><rect class="e" width="0.719" height="0.599" transform="translate(21.5 15.362)"/><rect class="e" width="0.719" height="0.599" transform="translate(21.5 16.44)"/><path class="e" d="M1024.523,380.126v-.6h-.718v.6h.718Z" transform="translate(-1003.503 -360.812)"/><path class="e" d="M1024.464,391.939h-.659v.6h.718v-.6Z" transform="translate(-1003.503 -372.146)"/><rect class="e" width="0.719" height="0.599" transform="translate(21.5 18.715)"/><rect class="e" width="0.719" height="0.599" transform="translate(21.5 19.793)"/><path class="e" d="M1024.523,418.74v-.6h-.718v.6h.718Z" transform="translate(-1003.503 -396.073)"/><path class="e" d="M1024.464,430.553h-.659v.6h.718v-.6Z" transform="translate(-1003.503 -407.407)"/><rect class="e" width="0.719" height="0.599" transform="translate(21.5 22.069)"/><rect class="e" width="0.719" height="0.599" transform="translate(21.5 23.146)"/><path class="e" d="M1024.523,457.354v-.6h-.718v.6h.718Z" transform="translate(-1003.503 -431.333)"/><path class="e" d="M1024.464,469.167h-.659v.6h.718v-.6Z" transform="translate(-1003.503 -442.668)"/><rect class="e" width="0.719" height="0.599" transform="translate(21.5 25.422)"/><rect class="e" width="0.719" height="0.599" transform="translate(21.5 26.499)"/><rect class="e" width="6.946" height="1.437" transform="translate(10.363 15.961)"/><rect class="e" width="6.946" height="1.437" transform="translate(10.363 18.835)"/><rect class="e" width="6.946" height="1.437" transform="translate(10.363 21.709)"/><rect class="e" width="6.946" height="1.437" transform="translate(10.363 24.583)"/><rect class="e" width="27.44" height="0.174" transform="translate(0 30.571)"/><rect class="e" width="0.174" height="6.86" transform="translate(5.297 23.711)"/><path class="g" d="M867.274,592.5a7.442,7.442,0,0,1-1.677,4.351,6.408,6.408,0,0,1-.04-8.687A7.443,7.443,0,0,1,867.274,592.5Z" transform="translate(-860.2 -567.918)"/></g></g><g transform="translate(1102.662 662.585)"><path class="e" d="M173.846,381.736l-.033-.034a95.382,95.382,0,0,1,2.607-19.1c2.018-7.439,4.734-9.611,7.186-5.745s4.294,13.223,4.874,24.756l-.033.034c-.78-15.614-3.781-26.519-7.3-26.519C177.678,355.126,174.606,366.317,173.846,381.736Z" transform="translate(-171.614 -354.972)"/><rect class="e" width="0.154" height="6.1" transform="translate(6.718 21.084)"/><path class="g" d="M892.9,592.023a6.618,6.618,0,0,1-1.491,3.869,5.7,5.7,0,0,1-.036-7.724A6.619,6.619,0,0,1,892.9,592.023Z" transform="translate(-884.6 -570.161)"/><path class="d" d="M892.9,592.023a6.618,6.618,0,0,1-1.491,3.869,5.7,5.7,0,0,1-.036-7.724A6.619,6.619,0,0,1,892.9,592.023Z" transform="translate(-884.6 -570.161)"/><path class="e" d="M898.152,307.455l-.532-.426,2.982-2.662h7.561v2.343l-4.9,3.3Z" transform="translate(-889.31 -293.528)"/><path class="n" d="M977.045,305.86v-1.44h-1v.353l-.375-.406-2.449,2.662-.958.639-1.486,10.857,2.241,2.241h5.208v-13.63Z" transform="translate(-956.814 -293.528)"/><rect class="o" width="8.093" height="13.737" transform="translate(8.31 13.501)"/><rect class="n" width="1.491" height="3.354" transform="translate(11.451 23.883)"/><path class="e" d="M909.981,479.353v-.532h-.639v.532h.639Z" transform="translate(-900.127 -454.512)"/><path class="e" d="M909.928,491.232h-.586v.533h.639v-.533Z" transform="translate(-900.127 -465.964)"/><rect class="e" width="0.639" height="0.532" transform="translate(10.28 24.309)"/><rect class="e" width="0.639" height="0.532" transform="translate(10.28 25.268)"/><path class="e" d="M966.523,479.353v-.532h-.639v.532h.639Z" transform="translate(-952.303 -454.512)"/><path class="e" d="M966.47,491.232h-.586v.533h.639v-.533Z" transform="translate(-952.303 -465.964)"/><rect class="e" width="0.639" height="0.532" transform="translate(14.646 24.309)"/><rect class="e" width="0.639" height="0.532" transform="translate(14.646 25.268)"/><path class="e" d="M1024.444,341.445v-.532h-.639v.532h.639Z" transform="translate(-1005.751 -327.252)"/><path class="e" d="M1024.391,353.325h-.586v.532h.639v-.532Z" transform="translate(-1005.751 -338.706)"/><rect class="e" width="0.639" height="0.532" transform="translate(19.118 13.661)"/><rect class="e" width="0.639" height="0.532" transform="translate(19.118 14.619)"/><path class="e" d="M1024.444,380.06v-.533h-.639v.533h.639Z" transform="translate(-1005.751 -362.885)"/><path class="e" d="M1024.391,391.939h-.586v.532h.639v-.532Z" transform="translate(-1005.751 -374.338)"/><rect class="e" width="0.639" height="0.532" transform="translate(19.118 16.642)"/><rect class="e" width="0.639" height="0.532" transform="translate(19.118 17.601)"/><path class="e" d="M1024.444,418.673v-.533h-.639v.533h.639Z" transform="translate(-1005.751 -398.517)"/><path class="e" d="M1024.391,430.553h-.586v.532h.639v-.532Z" transform="translate(-1005.751 -409.971)"/><rect class="e" width="0.639" height="0.532" transform="translate(19.118 19.624)"/><rect class="e" width="0.639" height="0.532" transform="translate(19.118 20.582)"/><path class="e" d="M1024.444,457.287v-.532h-.639v.532h.639Z" transform="translate(-1005.751 -434.15)"/><path class="e" d="M1024.391,469.167h-.586v.532h.639v-.532Z" transform="translate(-1005.751 -445.603)"/><rect class="e" width="0.639" height="0.532" transform="translate(19.118 22.605)"/><rect class="e" width="0.639" height="0.532" transform="translate(19.118 23.564)"/><rect class="e" width="6.176" height="1.278" transform="translate(9.215 14.193)"/><rect class="e" width="6.176" height="1.278" transform="translate(9.215 16.749)"/><rect class="e" width="6.176" height="1.278" transform="translate(9.215 19.304)"/><rect class="e" width="6.176" height="1.278" transform="translate(9.215 21.86)"/><rect class="e" width="24.4" height="0.154" transform="translate(0 27.185)"/><rect class="e" width="0.154" height="6.1" transform="translate(4.71 21.084)"/><path class="g" d="M866.9,592.023a6.618,6.618,0,0,1-1.491,3.869,5.7,5.7,0,0,1-.036-7.724A6.618,6.618,0,0,1,866.9,592.023Z" transform="translate(-860.608 -570.161)"/></g><g transform="translate(1230.848 668.157)"><path class="e" d="M173.839,376.281l-.026-.027a75.945,75.945,0,0,1,2.076-15.21c1.606-5.923,3.769-7.652,5.722-4.574s3.419,10.528,3.88,19.711l-.026.027c-.621-12.432-3.01-21.114-5.811-21.114C176.89,355.095,174.445,364.005,173.839,376.281Z" transform="translate(-172.062 -354.972)"/><rect class="e" width="0.123" height="4.857" transform="translate(5.349 16.787)"/><path class="g" d="M892.283,591.237a1.772,1.772,0,1,1-1.215-3.07A5.269,5.269,0,0,1,892.283,591.237Z" transform="translate(-885.676 -573.831)"/><path class="d" d="M892.283,591.237a1.772,1.772,0,1,1-1.215-3.07A5.269,5.269,0,0,1,892.283,591.237Z" transform="translate(-885.676 -573.831)"/><path class="e" d="M898.044,306.826l-.424-.339,2.374-2.12h6.02v1.865l-3.9,2.628Z" transform="translate(-891.004 -295.737)"/><path class="n" d="M975.767,305.556v-1.147h-.8v.281l-.3-.323-1.95,2.12-.763.509-1.183,8.644,1.784,1.784H976.7V306.571Z" transform="translate(-959.659 -295.737)"/><rect class="o" width="6.444" height="10.937" transform="translate(6.616 10.749)"/><rect class="n" width="1.187" height="2.671" transform="translate(9.118 19.016)"/><path class="e" d="M909.851,479.245v-.424h-.509v.424h.509Z" transform="translate(-902.005 -459.466)"/><path class="e" d="M909.808,491.232h-.466v.424h.509v-.424Z" transform="translate(-902.005 -471.114)"/><rect class="e" width="0.509" height="0.424" transform="translate(8.185 19.355)"/><rect class="e" width="0.509" height="0.424" transform="translate(8.185 20.118)"/><path class="e" d="M966.393,479.245v-.424h-.509v.424h.509Z" transform="translate(-955.071 -459.466)"/><path class="e" d="M966.35,491.232h-.466v.424h.509v-.424Z" transform="translate(-955.071 -471.114)"/><rect class="e" width="0.509" height="0.424" transform="translate(11.661 19.355)"/><rect class="e" width="0.509" height="0.424" transform="translate(11.661 20.118)"/><path class="e" d="M1024.314,341.337v-.424h-.509v.424h.509Z" transform="translate(-1009.431 -330.037)"/><path class="e" d="M1024.271,353.325h-.466v.424h.509v-.424Z" transform="translate(-1009.431 -341.685)"/><rect class="e" width="0.509" height="0.424" transform="translate(15.222 10.876)"/><rect class="e" width="0.509" height="0.424" transform="translate(15.222 11.639)"/><path class="e" d="M1024.314,379.951v-.424h-.509v.424h.509Z" transform="translate(-1009.431 -366.277)"/><path class="e" d="M1024.271,391.939h-.466v.424h.509v-.424Z" transform="translate(-1009.431 -377.925)"/><rect class="e" width="0.509" height="0.424" transform="translate(15.222 13.251)"/><rect class="e" width="0.509" height="0.424" transform="translate(15.222 14.014)"/><path class="e" d="M1024.314,418.565v-.424h-.509v.424h.509Z" transform="translate(-1009.431 -402.517)"/><path class="e" d="M1024.271,430.553h-.466v.424h.509v-.424Z" transform="translate(-1009.431 -414.166)"/><rect class="e" width="0.509" height="0.424" transform="translate(15.222 15.625)"/><rect class="e" width="0.509" height="0.424" transform="translate(15.222 16.388)"/><path class="e" d="M1024.314,457.179v-.424h-.509v.424h.509Z" transform="translate(-1009.431 -438.757)"/><path class="e" d="M1024.271,469.167h-.466v.424h.509v-.424Z" transform="translate(-1009.431 -450.405)"/><rect class="e" width="0.509" height="0.424" transform="translate(15.222 17.998)"/><rect class="e" width="0.509" height="0.424" transform="translate(15.222 18.762)"/><rect class="e" width="4.918" height="1.017" transform="translate(7.337 11.3)"/><rect class="e" width="4.918" height="1.017" transform="translate(7.337 13.335)"/><rect class="e" width="4.918" height="1.017" transform="translate(7.337 15.37)"/><rect class="e" width="4.918" height="1.017" transform="translate(7.337 17.405)"/><rect class="e" width="19.427" height="0.123" transform="translate(0 21.644)"/><rect class="e" width="0.123" height="4.857" transform="translate(3.75 16.787)"/><path class="g" d="M866.283,591.237a1.772,1.772,0,1,1-1.215-3.07A5.269,5.269,0,0,1,866.283,591.237Z" transform="translate(-861.275 -573.831)"/></g></g></svg>