<svg xmlns="http://www.w3.org/2000/svg" width="101.885" height="100" viewBox="0 0 101.885 100"><defs><style>.a{fill:#3f3d56;}.b{fill:#6c63ff;}.c{opacity:0.1;}.d{fill:#ccc;}.e{fill:#f2f2f2;}</style></defs><g transform="translate(0 0)"><g transform="translate(0 0)"><path class="a" d="M173.934,452.869l-.121-.124c1.348-27.326,4.734-52.141,9.536-69.874,7.38-27.211,17.315-35.154,26.286-21.013s15.708,48.367,17.827,90.553l-.121.125c-2.853-57.112-13.83-97-26.7-97C187.949,355.537,176.715,396.471,173.934,452.869Z" transform="translate(-165.771 -354.972)"/><rect class="a" width="0.565" height="22.313" transform="translate(28.073 77.122)"/><path class="b" d="M900.917,602.27c.036,7.8-5.453,14.153-5.453,14.153s-5.547-6.3-5.583-14.1,5.453-14.153,5.453-14.153S900.881,594.467,900.917,602.27Z" transform="translate(-867.447 -522.304)"/><path class="c" d="M900.917,602.27c.036,7.8-5.453,14.153-5.453,14.153s-5.547-6.3-5.583-14.1,5.453-14.153,5.453-14.153S900.881,594.467,900.917,602.27Z" transform="translate(-867.447 -522.304)"/><path class="a" d="M899.568,315.663,897.62,314.1l10.906-9.738h27.655v8.569l-17.917,12.075Z" transform="translate(-859.648 -264.721)"/><path class="d" d="M993.715,309.829v-5.268h-3.672v1.29l-1.37-1.485-8.959,9.738-3.505,2.337-5.436,39.712,8.2,8.2h19.051V314.494Z" transform="translate(-907.082 -264.721)"/><rect class="e" width="29.603" height="50.246" transform="translate(36.834 49.384)"/><rect class="d" width="5.453" height="12.269" transform="translate(48.202 87.36)"/><path class="a" d="M911.679,480.768v-1.947h-2.337v1.947h2.337Z" transform="translate(-870.735 -389.903)"/><path class="a" d="M911.484,491.232h-2.142v1.948h2.337v-1.948Z" transform="translate(-870.735 -398.809)"/><rect class="a" width="2.337" height="1.948" transform="translate(43.068 88.918)"/><rect class="a" width="2.337" height="1.948" transform="translate(43.068 92.424)"/><path class="a" d="M968.221,480.768v-1.947h-2.337v1.947h2.337Z" transform="translate(-908.986 -389.903)"/><path class="a" d="M968.026,491.232h-2.142v1.948h2.337v-1.948Z" transform="translate(-908.986 -398.809)"/><rect class="a" width="2.337" height="1.948" transform="translate(61.359 88.918)"/><rect class="a" width="2.337" height="1.948" transform="translate(61.359 92.424)"/><path class="a" d="M1026.142,342.86v-1.947h-2.337v1.947h2.337Z" transform="translate(-948.17 -290.946)"/><path class="a" d="M1025.948,353.325h-2.142v1.947h2.337v-1.947Z" transform="translate(-948.17 -299.852)"/><rect class="a" width="2.337" height="1.948" transform="translate(80.096 49.967)"/><rect class="a" width="2.337" height="1.948" transform="translate(80.096 53.473)"/><path class="a" d="M1026.142,381.475v-1.948h-2.337v1.948h2.337Z" transform="translate(-948.17 -318.653)"/><path class="a" d="M1025.948,391.939h-2.142v1.947h2.337v-1.947Z" transform="translate(-948.17 -327.56)"/><rect class="a" width="2.337" height="1.948" transform="translate(80.096 60.874)"/><rect class="a" width="2.337" height="1.948" transform="translate(80.096 64.379)"/><path class="a" d="M1026.142,420.089v-1.948h-2.337v1.948h2.337Z" transform="translate(-948.17 -346.361)"/><path class="a" d="M1025.948,430.553h-2.142V432.5h2.337v-1.947Z" transform="translate(-948.17 -355.267)"/><rect class="a" width="2.337" height="1.948" transform="translate(80.096 71.78)"/><rect class="a" width="2.337" height="1.948" transform="translate(80.096 75.286)"/><path class="a" d="M1026.142,458.7v-1.948h-2.337V458.7h2.337Z" transform="translate(-948.17 -374.069)"/><path class="a" d="M1025.948,469.167h-2.142v1.947h2.337v-1.947Z" transform="translate(-948.17 -382.975)"/><rect class="a" width="2.337" height="1.948" transform="translate(80.096 82.686)"/><rect class="a" width="2.337" height="1.948" transform="translate(80.096 86.192)"/><rect class="a" width="22.591" height="4.674" transform="translate(40.095 51.915)"/><rect class="a" width="22.591" height="4.674" transform="translate(40.095 61.263)"/><rect class="a" width="22.591" height="4.674" transform="translate(40.095 70.611)"/><rect class="a" width="22.591" height="4.674" transform="translate(40.095 79.959)"/><rect class="a" width="101.885" height="0.565" transform="translate(0 99.435)"/><rect class="a" width="0.565" height="22.313" transform="translate(17.229 77.122)"/><path class="b" d="M874.917,602.27c.036,7.8-5.453,14.153-5.453,14.153s-5.548-6.3-5.584-14.1,5.453-14.153,5.453-14.153S874.881,594.467,874.917,602.27Z" transform="translate(-851.911 -522.304)"/></g><path class="a" d="M893.742,318.679l3.485-2.787a3.692,3.692,0,0,0-4.274,2.346,5.935,5.935,0,0,0-4.417.273l6.972,2.531A5.275,5.275,0,0,0,893.742,318.679Z" transform="translate(-818.166 -294.988)"/><path class="a" d="M893.742,318.679l3.485-2.787a3.692,3.692,0,0,0-4.274,2.346,5.935,5.935,0,0,0-4.417.273l6.972,2.531A5.275,5.275,0,0,0,893.742,318.679Z" transform="translate(-807.492 -311.412)"/></g></svg>