<svg xmlns="http://www.w3.org/2000/svg" width="13.502" height="13.502" viewBox="0 0 13.502 13.502"><defs><style>.a{fill:#0cb1af;}</style></defs><path class="a" d="M188.758,1047.058a6.418,6.418,0,0,1,4.793-1.958,6.682,6.682,0,0,1,4.793,1.958,6.317,6.317,0,0,1,1.958,4.793,6.682,6.682,0,0,1-1.958,4.793,6.316,6.316,0,0,1-4.793,1.958,6.682,6.682,0,0,1-4.793-1.958,6.316,6.316,0,0,1-1.958-4.793A6.571,6.571,0,0,1,188.758,1047.058Zm3.443,8.1,6.076-6.076-.945-1.013L192.2,1053.2l-2.43-2.43-.945.945Z" transform="translate(-186.8 -1045.1)"/></svg>