<svg xmlns="http://www.w3.org/2000/svg" width="13.5" height="13.5" viewBox="0 0 13.5 13.5"><defs><style>.a{fill:#d9d9d9;}</style></defs><path class="a" d="M225.758,873.057a6.417,6.417,0,0,1,4.792-1.958,6.8,6.8,0,0,1,4.793,1.958,6.417,6.417,0,0,1,1.957,4.792,6.681,6.681,0,0,1-1.957,4.792,6.417,6.417,0,0,1-4.793,1.958,6.681,6.681,0,0,1-4.792-1.958,6.417,6.417,0,0,1-1.958-4.792A6.569,6.569,0,0,1,225.758,873.057Zm8.167,7.155-2.43-2.43,2.43-2.43-.945-.945-2.43,2.43-2.43-2.43-.945.945,2.43,2.43-2.43,2.43.945.945,2.43-2.43,2.43,2.43Z" transform="translate(-223.8 -871.1)"/></svg>