<svg xmlns="http://www.w3.org/2000/svg" width="23" height="23" viewBox="0 0 23 23"><defs><style>.a{fill:#535353;}</style></defs><path class="a" d="M16.531,41.738h22.08a.465.465,0,0,0,.46-.469V39.146a.465.465,0,0,0-.46-.469H36.955V37.022a.465.465,0,0,0-.46-.469H34.647V26.7h2.476a.465.465,0,0,0,.46-.469V23.616a.47.47,0,0,0-.27-.428L27.761,18.78a.453.453,0,0,0-.379,0l-9.552,4.408a.47.47,0,0,0-.27.428v2.617a.465.465,0,0,0,.46.469H20.5v9.85H18.647a.465.465,0,0,0-.46.469v1.654H16.531a.465.465,0,0,0-.46.469v2.123A.465.465,0,0,0,16.531,41.738Zm17.2-5.185H31.271V26.7h2.455ZM18.479,23.919l9.092-4.2,9.092,4.2v1.845H18.479ZM21.415,26.7h2.455v9.85H21.415ZM19.107,37.492H36.035v1.185H19.107Zm-2.116,2.123h21.16V40.8H16.991Z" transform="translate(-16.071 -18.738)"/></svg>
