<svg width="16" height="20" viewBox="0 0 16 20" fill="none" xmlns="http://www.w3.org/2000/svg">
<path fill-rule="evenodd" clip-rule="evenodd" d="M0.5 3.33325C0.5 1.95254 1.61929 0.833252 3 0.833252H9.66667C11.0474 0.833252 12.1667 1.95254 12.1667 3.33325V13.3333C12.1667 14.714 11.0474 15.8333 9.66667 15.8333H3C1.61929 15.8333 0.5 14.714 0.5 13.3333V3.33325ZM3 2.49992H9.66667C10.1269 2.49992 10.5 2.87302 10.5 3.33325V13.3333C10.5 13.7935 10.1269 14.1666 9.66667 14.1666H3C2.53976 14.1666 2.16667 13.7935 2.16667 13.3333V3.33325C2.16667 2.87302 2.53976 2.49992 3 2.49992Z" fill="#999DA0"/>
<path d="M15.5 3.33325C15.5 2.87302 15.1269 2.49992 14.6667 2.49992C14.2064 2.49992 13.8333 2.87302 13.8333 3.33325V14.1666C13.8333 16.0075 12.341 17.4999 10.5 17.4999H3C2.53976 17.4999 2.16667 17.873 2.16667 18.3333C2.16667 18.7935 2.53976 19.1666 3 19.1666H10.5C13.2614 19.1666 15.5 16.928 15.5 14.1666V3.33325Z" fill="#999DA0"/>
</svg>
