<svg xmlns="http://www.w3.org/2000/svg" width="181.272" height="100" viewBox="0 0 181.272 100"><defs><style>.a{fill:gray;}.b{fill:#e6e6e6;}.c{fill:#fff;}.d{fill:#6c63ff;}.e{fill:#a0616a;}.f{fill:#2f2e41;}</style></defs><g transform="translate(0 0)"><rect class="a" width="117.012" height="0.386" transform="translate(64.26 99.168)"/><path class="a" d="M921.051,543.28c2.558,3.616,3.234,24.2,3.384,30.793,0,.149.008.29.01.423h6.475c.079-.141.152-.28.222-.423,3.838-7.576,1.709-16.659,1.6-17.118.292,1.444-1.027,5.63-2.517,9.684C929.312,554.173,921.537,543.91,921.051,543.28Z" transform="translate(-768.433 -475.272)"/><path class="b" d="M139.891,209.741a9.366,9.366,0,0,1,0-18.731h85.241a9.366,9.366,0,1,1,0,18.731Z" transform="translate(-130.525 -191.01)"/><rect class="c" width="16.673" height="16.288" transform="translate(18.279 1.222)"/><path class="c" d="M584.539,197.338H575.92v16.288h8.619a8.144,8.144,0,1,0,0-16.288Z" transform="translate(-489.933 -196.116)"/><rect class="c" width="16.56" height="16.288" transform="translate(52.19 1.222)"/><rect class="d" width="16.695" height="16.288" transform="translate(35.223 1.222)"/><rect class="b" width="16.695" height="16.288" transform="translate(69.021 1.222)"/><path class="d" d="M153.639,197.338H145a8.144,8.144,0,1,0,0,16.288h8.642Z" transform="translate(-135.631 -196.116)"/><path class="c" d="M35.93,38.033l-2.267-2.915,1.319-1.026,1.073,1.38,3.627-3.828,1.213,1.149Z" transform="translate(-27.164 -25.535)"/><path class="c" d="M208.886,38.033l-2.267-2.915,1.319-1.026,1.073,1.38,3.627-3.828,1.213,1.149Z" transform="translate(-166.729 -25.535)"/><rect class="c" width="1.064" height="7.146" transform="translate(74.333 7.215) rotate(-45)"/><rect class="c" width="7.146" height="1.064" transform="translate(74.599 11.516) rotate(-45)"/><path class="b" d="M247.792,223.967a4.886,4.886,0,1,1,4.886-4.886A4.886,4.886,0,0,1,247.792,223.967Zm0-8.687a3.8,3.8,0,1,0,3.8,3.8A3.8,3.8,0,0,0,247.792,215.281Z" transform="translate(-221.21 -209.719)"/><path class="b" d="M423.56,223.967a4.886,4.886,0,1,1,4.886-4.886A4.886,4.886,0,0,1,423.56,223.967Zm0-8.687a3.8,3.8,0,1,0,3.8,3.8,3.8,3.8,0,0,0-3.8-3.8Z" transform="translate(-363.044 -209.719)"/><path class="b" d="M598.624,223.967a4.886,4.886,0,1,1,4.886-4.886A4.887,4.887,0,0,1,598.624,223.967Zm0-8.687a3.8,3.8,0,1,0,3.8,3.8A3.8,3.8,0,0,0,598.624,215.281Z" transform="translate(-504.31 -209.719)"/><path class="e" d="M842.319,391.177l-2.051,5.722a2,2,0,0,0,.845,2.383h0a2,2,0,0,0,3.021-1.485l.651-5.8,4.931-16.3-4.246-2.054Z" transform="translate(-703.151 -338.387)"/><path class="e" d="M695.962,374.186h3.013V344.876l-6.848-.137Z" transform="translate(-558.506 -278.184)"/><path class="e" d="M626.438,374.186h3.013V344.876l-6.848-.137Z" transform="translate(-502.404 -278.184)"/><path class="f" d="M769.585,470.1l-7.807-.822-1.643-8.629-3.013,8.766-9.313-.959,3.835-14.518c7.01-4.763,13.668-4.659,20,0Z" transform="translate(-628.636 -400.327)"/><path class="f" d="M750.615,675.767a2.447,2.447,0,0,1-2.757,2.728l-5.551-.753a1.9,1.9,0,0,1-1.582-2.163h0a1.9,1.9,0,0,1,1.875-1.609h.915l3.011-2.743c.03,1.869,1.406,1.454,3.68,1.271Z" transform="translate(-622.902 -578.517)"/><path class="f" d="M820.138,675.767a2.447,2.447,0,0,1-2.757,2.728l-5.551-.753a1.9,1.9,0,0,1-1.582-2.163h0a1.9,1.9,0,0,1,1.875-1.609h.915l3.011-2.743c.03,1.869,1.406,1.454,3.68,1.271Z" transform="translate(-679.004 -578.517)"/><circle class="e" cx="4.828" cy="4.828" r="4.828" transform="translate(125.609 10.264)"/><path class="e" d="M682.191,92.156l-6.026.548V87.362l3.15-1.917Z" transform="translate(-545.626 -68.949)"/><path class="d" d="M785.49,332.8c-6.063-4.439-13.342-3.988-21.366-.548,3.635-10.291,5.184-19.882,2.328-28A6.455,6.455,0,0,1,771.308,298l1.034-.264,5.068.274,4.759,2.789a6.478,6.478,0,0,1,3.2,5.559Z" transform="translate(-641.803 -277.133)"/><path class="e" d="M744.418,385.5l-2.052,5.722a2,2,0,0,0,.845,2.383h0a2,2,0,0,0,3.021-1.485l.651-5.8,4.931-16.3-4.246-2.054Z" transform="translate(-624.151 -333.807)"/><path class="d" d="M867.317,331.909h-6.711V315.474h0a9.259,9.259,0,0,1,4.565,6.195Z" transform="translate(-719.658 -291.445)"/><path class="f" d="M776.5,238.2a1.966,1.966,0,0,1-1.866-.1,1.487,1.487,0,0,1-.593-1.705,2.349,2.349,0,0,1,1.219-1.107,12.3,12.3,0,0,1,3.5-1.171,3.28,3.28,0,0,1,1.748.059c.272.106.516.275.786.386a8.846,8.846,0,0,0,1.577.317,3.847,3.847,0,0,1,2.555,1.914,4.628,4.628,0,0,1,.4,1.038,5.971,5.971,0,0,1-.01,3.007c-.413,1.561-1.465,2.994-1.371,4.606-.778-.453-1.142-1.375-1.792-2a2.948,2.948,0,0,0-1.772-.8.937.937,0,0,1-.517-.132.808.808,0,0,1-.225-.407l-.732-2.292a2.054,2.054,0,0,0-.75-1.224,1.888,1.888,0,0,0-.837-.2,12.743,12.743,0,0,0-2.09.02" transform="translate(-649.746 -225.724)"/><path class="d" d="M762.709,315.729l-7.807-3.013,3.545-9.553a6.167,6.167,0,0,1,5.357-4.006h0Z" transform="translate(-634.361 -278.278)"/></g></svg>