<svg xmlns="http://www.w3.org/2000/svg" width="105.231" height="80" viewBox="0 0 105.231 80"><defs><style>.a{fill:#2e3552;}.b{fill:#f2f2f2;}.c,.k{fill:#2f2e41;}.c,.h{stroke:#707070;}.d{fill:#3f3d56;}.e,.h{fill:#707070;}.f{fill:#b0b3db;}.g{fill:#8c88ce;}.i{fill:#a0616a;}.j{fill:#b47a82;}.l{fill:#c18890;}.m{fill:#6c63ff;}.n{fill:#82b378;}.o,.r{fill:#1c1c1c;}.o{opacity:0.1;}.p{fill:#ffd037;}.q{fill:#a8a8a8;}.r{opacity:0.2;}</style></defs><g transform="translate(-2981.968 -4487.46)"><path class="a" d="M.268,0H104.941a.268.268,0,0,1,.268.268v0a.268.268,0,0,1-.268.268H.268A.268.268,0,0,1,0,.268v0A.268.268,0,0,1,.268,0Z" transform="translate(2981.99 4566.924)"/><g transform="translate(2996.666 4487.46)"><rect class="b" width="0.214" height="1.976" transform="translate(53.827 32.244)"/><path class="c" d="M150.563,606.56H125.274v-.182h25.107v-8.824H127.4l-1.291-2.723.164-.079,1.241,2.62h23.048Z" transform="translate(-113.203 -531.567)"/><circle class="d" cx="1.91" cy="1.91" r="1.91" transform="translate(13.527 75.63)"/><circle class="d" cx="1.91" cy="1.91" r="1.91" transform="translate(32.357 75.63)"/><circle class="e" cx="1.183" cy="1.183" r="1.183" transform="translate(54.612 35.786)"/><path class="c" d="M250.224,497.635H221.8l-6.15-20.1h40.909l-.037.118Zm-28.29-.182H250.09l6.219-19.74H215.894Z" transform="translate(-210.159 -434.649)"/><path class="f" d="M112.629,430.845H87.662l-5.4-17.83h35.932l-.033.1Z" transform="translate(-74.783 -368.905)"/><rect class="c" width="36.877" height="0.182" transform="translate(7.477 48.977)"/><rect class="c" width="32.715" height="0.182" transform="translate(9.528 55.679)"/><rect class="c" width="0.182" height="19.922" transform="translate(25.852 42.973)"/><rect class="c" width="19.964" height="0.182" transform="matrix(0.065, -0.998, 0.998, 0.065, 32.874, 62.888)"/><rect class="c" width="0.182" height="19.964" transform="translate(17.529 42.979) rotate(-3.729)"/><rect class="b" width="14.952" height="0.214" transform="translate(5.126 37.69)"/><rect class="b" width="0.214" height="1.976" transform="translate(4.165 27.171)"/><g transform="translate(0 3.835)"><rect class="g" width="14.952" height="0.214" transform="translate(42.827)"/><rect class="g" width="0.214" height="1.976" transform="translate(53.507 0.16)"/><rect class="g" width="0.214" height="1.976" transform="translate(46.992 0.16)"/><rect class="g" width="14.952" height="0.214" transform="translate(50.409 10.253)"/><rect class="g" width="0.214" height="1.976" transform="translate(54.468 8.33)"/><rect class="g" width="14.952" height="0.214" transform="translate(70.274 15.059)"/><rect class="g" width="0.214" height="1.976" transform="translate(80.848 13.136)"/><rect class="g" width="14.952" height="0.214" transform="translate(68.779 64.614)"/><rect class="g" width="0.214" height="1.976" transform="translate(79.352 62.691)"/><rect class="g" width="14.952" height="0.214" transform="translate(43.254 30.331)"/><rect class="g" width="0.214" height="1.976" transform="translate(47.312 28.409)"/><rect class="g" width="14.952" height="0.214" transform="translate(47.953 56.07)"/><rect class="g" width="0.214" height="1.976" transform="translate(52.011 54.147)"/><rect class="g" width="0.214" height="1.976" transform="translate(58.526 54.147)"/><rect class="g" width="14.952" height="0.214" transform="translate(71.876 48.273)"/><rect class="g" width="0.214" height="1.976" transform="translate(82.449 46.351)"/><path class="h" d="M449.994,346.466l-.176-.047,1.2-4.525H458v.182h-6.844Z" transform="translate(-403.086 -308.546)"/><rect class="g" width="0.214" height="1.976" transform="translate(9.185 31.933)"/><rect class="g" width="0.214" height="1.976" transform="translate(15.699 31.933)"/><rect class="g" width="14.952" height="0.214" transform="translate(10.36 2.243)"/><rect class="g" width="0.214" height="1.976" transform="translate(21.04 2.403)"/><rect class="g" width="0.214" height="1.976" transform="translate(14.525 2.403)"/><rect class="g" width="14.952" height="0.214" transform="translate(25.418 23.282)"/><rect class="g" width="0.214" height="1.976" transform="translate(36.098 23.443)"/><rect class="g" width="0.214" height="1.976" transform="translate(29.584 23.443)"/><rect class="g" width="14.952" height="0.214" transform="translate(0 23.176)"/><rect class="g" width="0.214" height="1.976" transform="translate(10.68 23.336)"/><rect class="g" width="14.952" height="0.214" transform="translate(17.942 12.496)"/><rect class="g" width="0.214" height="1.976" transform="translate(22.001 10.573)"/><rect class="g" width="0.214" height="1.976" transform="translate(28.516 10.573)"/></g><g transform="translate(53.761 0)"><rect class="b" width="0.214" height="1.976" transform="translate(7.222 12.165)"/><rect class="b" width="0.214" height="1.976" transform="translate(20.572 16.971)"/><rect class="b" width="0.214" height="1.976" transform="translate(19.077 66.526)"/><rect class="b" width="0.214" height="1.976" transform="translate(22.174 50.186)"/><path class="i" d="M747.411,135.349s1.561,4.444.6,5.127,3.243,6.267,3.243,6.267l5.044-1.367-2.762-4.671s-.36-4.671-.36-5.355S747.411,135.349,747.411,135.349Z" transform="translate(-738.89 -128.741)"/><path class="j" d="M747.411,135.349s1.561,4.444.6,5.127,3.243,6.267,3.243,6.267l5.044-1.367-2.762-4.671s-.36-4.671-.36-5.355S747.411,135.349,747.411,135.349Z" transform="translate(-738.89 -128.741)"/><path class="k" d="M721.18,406.361a51.322,51.322,0,0,0,0,8.659c.456,2.962,1.139,11.166,1.139,11.166s0,15.5,2.507,15.723,4.33.456,4.557-.456-1.139-1.367-.456-1.823.911-2.051,0-3.874,0-20.281,0-20.281l4.33,11.622s.456,9.571.911,10.938-.456,3.874,1.139,4.1,3.418-1.139,4.33-1.6-1.367-.456-.911-.684,1.823-.911,1.367-1.139-.911-11.166-.911-11.166-1.253-23.357-2.849-24.269a1.956,1.956,0,0,0-2.62.658Z" transform="translate(-715.279 -368.078)"/><path class="k" d="M753.656,758.784v1.823s-2.051,4.955,0,4.955,3.646.514,3.646-.17V759.24Z" transform="translate(-743.654 -685.864)"/><path class="k" d="M856.673,758.754v1.823s2.051,4.956,0,4.956-3.646.513-3.646-.17v-6.153Z" transform="translate(-833.226 -685.837)"/><circle class="l" cx="4.102" cy="4.102" r="4.102" transform="translate(7.609 1.709)"/><path class="m" d="M761.735,201.9s1.139,3.418,2.962,2.734l1.823-.684,3.19,21.876s-2.507,3.646-6.153,1.367S761.735,201.9,761.735,201.9Z" transform="translate(-751.277 -188.455)"/><path class="d" d="M795.418,177.394l1.025-2.165s6.039,2.848,6.95,3.76a3.559,3.559,0,0,1,.911,2.279l-1.6,5.7s.456,12.533.456,12.989,1.6,2.962.456,2.051-1.367-1.823-2.279-.456a16.71,16.71,0,0,1-2.962,2.962Z" transform="translate(-781.77 -164.633)"/><path class="j" d="M836.592,349.122l-.684,6.38s-4.1,3.646-3.19,3.874a1.261,1.261,0,0,0,1.367-.684s1.6,1.6,2.507.684,3.19-9.571,3.19-9.571Z" transform="translate(-814.969 -319.954)"/><path class="k" d="M738.3,76.028a4.561,4.561,0,0,0-2.649.441,3.874,3.874,0,0,0-.916.9,4.077,4.077,0,0,0-1.115,3.3l.322-.126a2.11,2.11,0,0,1-.2.9c.045-.132.2.081.156.215l-.355,1.164a1.1,1.1,0,0,1,1.4.834c.041-1.352.181-2.9,1.278-3.695a4.42,4.42,0,0,1,1.927-.629,3.876,3.876,0,0,1,1.868.009,1.344,1.344,0,0,1,.967,1.428.636.636,0,0,1,.717.353,1.855,1.855,0,0,1,.147.85c.293.207.625-.2.745-.542a4.89,4.89,0,0,0,.378-2.464A1.879,1.879,0,0,0,741.3,77.35a.583.583,0,0,0,.152-.411l-.693-.059a.766.766,0,0,0,.458-.241C740.94,76.945,738.752,76.044,738.3,76.028Z" transform="translate(-726.503 -76.014)"/><path class="d" d="M698.02,174.785s-1.855-1.818-2.523-1.706-1.579,1.706-1.579,1.706-5.469,1.823-5.241,3.646,2.734,10.71,2.734,10.71,2.051,10.71.228,11.849,8.659,4.1,8.887,2.734.684-15.04,0-17.091S698.02,174.785,698.02,174.785Z" transform="translate(-686.423 -162.708)"/><path class="d" d="M850.893,223.236h2.818s1.968,8.659,2.2,9.571.684,5.241.456,5.241-4.786-.911-4.786-.228Z" transform="translate(-831.32 -207.513)"/><path class="b" d="M752.906,307.005H742.119a30.148,30.148,0,0,1,0-13.991h10.787A18.831,18.831,0,0,0,752.906,307.005Z" transform="translate(-733.428 -269.839)"/><path class="j" d="M707.938,351.406l3.19,1.367s6.153.911,6.153-1.6-6.153-1.139-6.153-1.139l-2.051-.656Z" transform="translate(-703.633 -320.187)"/><path class="d" d="M672.617,210.435l-2.734.684L667.831,223.2s-.684,3.19.456,3.418a26.354,26.354,0,0,1,4.33,2.051s.456-3.418,1.367-3.418l-2.279-1.823,1.367-7.976Z" transform="translate(-667.628 -196.079)"/></g></g><g transform="translate(2981.968 4551.96)"><path class="n" d="M184.65,768.36s1.271,1.662-.588,4.167-3.392,4.63-2.778,6.2c0,0,2.8-4.663,5.093-4.727S187.162,771.164,184.65,768.36Z" transform="translate(-174.444 -768.36)"/><path class="o" d="M184.906,768.36a2,2,0,0,1,.259.521c2.227,2.616,3.415,5.059,1.273,5.121-1.993.056-4.4,3.623-4.959,4.524a2.087,2.087,0,0,0,.067.2s2.8-4.663,5.093-4.727S187.418,771.164,184.906,768.36Z" transform="translate(-174.701 -768.36)"/><path class="p" d="M205.514,776.269c0,.586-.065,1.06-.146,1.06s-.148-.475-.148-1.06.083-.308.164-.308S205.514,775.688,205.514,776.269Z" transform="translate(-192.944 -774.151)"/><path class="p" d="M206.663,779.2c-.514.28-.963.449-1,.38s.347-.357.861-.637.31-.076.35,0S207.177,778.921,206.663,779.2Z" transform="translate(-193.281 -776.384)"/><path class="n" d="M157.78,768.36s-1.271,1.662.588,4.167,3.392,4.63,2.778,6.2c0,0-2.8-4.663-5.093-4.727S155.271,771.164,157.78,768.36Z" transform="translate(-154.293 -768.36)"/><path class="o" d="M157.763,768.36a2.087,2.087,0,0,0-.259.521c-2.227,2.616-3.415,5.059-1.273,5.121,2,.056,4.4,3.623,4.959,4.524a1.618,1.618,0,0,1-.067.2s-2.8-4.663-5.093-4.727S155.254,771.164,157.763,768.36Z" transform="translate(-154.276 -768.36)"/><path class="p" d="M157.05,776.269c0,.586.065,1.06.146,1.06s.148-.475.148-1.06-.083-.308-.164-.308S157.05,775.688,157.05,776.269Z" transform="translate(-155.926 -774.151)"/><path class="p" d="M152.51,779.2c.514.28.961.449,1,.38s-.347-.357-.861-.637-.31-.076-.35,0S152,778.921,152.51,779.2Z" transform="translate(-152.197 -776.384)"/><path class="q" d="M158.8,805.833s3.556-.109,4.63-.873,5.468-1.674,5.735-.449,5.343,6.086,1.329,6.119-9.328-.625-10.4-1.278S158.8,805.833,158.8,805.833Z" transform="translate(-157.271 -795.681)"/><path class="r" d="M170.563,816.566c-4.014.032-9.328-.625-10.4-1.278-.815-.5-1.139-2.276-1.248-3.1H158.8s.232,2.868,1.294,3.519,6.383,1.31,10.4,1.278c1.158,0,1.56-.421,1.537-1.033C171.869,816.327,171.427,816.559,170.563,816.566Z" transform="translate(-157.271 -802.043)"/></g></g></svg>