<svg width="22" height="22" viewBox="0 0 22 22" fill="none" xmlns="http://www.w3.org/2000/svg">
<path d="M10 15C10 15.5523 10.4477 16 11 16C11.5523 16 12 15.5523 12 15V12H15C15.5523 12 16 11.5523 16 11C16 10.4477 15.5523 10 15 10H12V7C12 6.44771 11.5523 6 11 6C10.4477 6 10 6.44771 10 7V10H7C6.44772 10 6 10.4477 6 11C6 11.5523 6.44772 12 7 12H10V15Z" fill="#505159"/>
<path fill-rule="evenodd" clip-rule="evenodd" d="M11 22C17.0751 22 22 17.0751 22 11C22 4.92487 17.0751 0 11 0C4.92487 0 0 4.92487 0 11C0 17.0751 4.92487 22 11 22ZM20 11C20 15.9706 15.9706 20 11 20C6.02944 20 2 15.9706 2 11C2 6.02944 6.02944 2 11 2C15.9706 2 20 6.02944 20 11Z" fill="#505159"/>
</svg>
