<svg width="20" height="20" viewBox="0 0 20 20" fill="none" xmlns="http://www.w3.org/2000/svg">
<rect opacity="0.14" y="20" width="20" height="20" rx="10" transform="rotate(-90 0 20)" fill="white"/>
<path d="M5.87543 12.9462C5.54999 13.2717 5.54999 13.7993 5.87543 14.1248C6.20086 14.4502 6.7285 14.4502 7.05394 14.1248L10.0002 11.1785L12.9465 14.1248C13.272 14.4503 13.7996 14.4503 14.125 14.1248C14.4505 13.7994 14.4505 13.2718 14.125 12.9463L11.1787 9.99999L14.125 7.05369C14.4504 6.72826 14.4504 6.20062 14.125 5.87518C13.7996 5.54974 13.2719 5.54974 12.9465 5.87518L10.0002 8.82148L7.05396 5.87525C6.72852 5.54981 6.20089 5.54981 5.87545 5.87525C5.55001 6.20069 5.55001 6.72832 5.87545 7.05376L8.82168 9.99999L5.87543 12.9462Z" fill="white"/>
</svg>
