<svg width="24" height="24" viewBox="0 0 24 24" fill="none" xmlns="http://www.w3.org/2000/svg">
<path fill-rule="evenodd" clip-rule="evenodd" d="M6.00001 5C6.00001 2.79086 7.79087 1 10 1H16C19.866 1 23 4.13401 23 8V11C23 11.5523 22.5523 12 22 12C21.4477 12 21 11.5523 21 11V8C21 5.23858 18.7614 3 16 3H10C8.89544 3 8.00001 3.89543 8.00001 5V11C8.00001 11.5523 7.5523 12 7.00001 12C6.44773 12 6.00001 11.5523 6.00001 11V5Z" fill="#AA58C1"/>
<path fill-rule="evenodd" clip-rule="evenodd" d="M22.9291 7C22.9758 7.3266 23 7.66048 23 8L23 9H18C16.3431 9 15 7.65685 15 6V1H16C16.3395 1 16.6734 1.02417 17 1.07089C20.0657 1.5094 22.4906 3.93431 22.9291 7ZM17 3.10002C18.9591 3.4977 20.5023 5.04087 20.9 7H18C17.4477 7 17 6.55228 17 6V3.10002Z" fill="#AA58C1"/>
<path fill-rule="evenodd" clip-rule="evenodd" d="M11.9379 15C11.3874 15 10.9412 15.4462 10.9412 15.9967C10.9412 16.5472 11.3874 16.9935 11.9379 16.9935H12.479C14.138 16.9935 15.479 18.342 15.479 19.9967C15.479 21.6515 14.138 23 12.479 23H11.9412C10.2843 23 8.94118 21.6569 8.94118 20L8.94118 19.8537L10.9412 19.8537L10.9412 20C10.9412 20.5523 11.3889 21 11.9412 21H12.479C13.0291 21 13.479 20.5511 13.479 19.9967C13.479 19.4423 13.0291 18.9935 12.479 18.9935H11.9379C10.2829 18.9935 8.94118 17.6518 8.94118 15.9967C8.94118 14.3417 10.2829 13 11.9379 13H12.5278C14.1577 13 15.479 14.3213 15.479 15.9512H13.479C13.479 15.4259 13.0531 15 12.5278 15H11.9379Z" fill="#AA58C1"/>
<path fill-rule="evenodd" clip-rule="evenodd" d="M4 15C3.44772 15 3 15.4477 3 16V20C3 20.5523 3.44772 21 4 21H4.53781C5.0901 21 5.53782 20.5523 5.53782 20V19.9048H7.53781V20C7.53781 21.6569 6.19467 23 4.53781 23H4C2.34315 23 1 21.6569 1 20V16C1 14.3431 2.34315 13 4 13H4.53781C6.19467 13 7.53781 14.3431 7.53781 16V16.0952H5.53782V16C5.53782 15.4477 5.0901 15 4.53781 15H4Z" fill="#AA58C1"/>
<path fill-rule="evenodd" clip-rule="evenodd" d="M18.2941 13.3646V13H16.2941V13.5353L17.922 23.0001H21.3721L23 13.5354V13H21V13.3646L19.6867 21H19.6074L18.2941 13.3646Z" fill="#AA58C1"/>
</svg>
