<svg xmlns="http://www.w3.org/2000/svg" width="13.5" height="15" viewBox="0 0 13.5 15"><defs><style>.a{fill:gray;}</style></defs><g transform="translate(-1008 -22.999)"><rect class="a" width="1.5" height="1.5" transform="translate(1011 28)"/><rect class="a" width="1.5" height="1.5" transform="translate(1011 31)"/><rect class="a" width="1.5" height="1.5" transform="translate(1011 34)"/><g transform="translate(14)"><path class="a" d="M273.7,906.3a1.538,1.538,0,0,1,1.5,1.5v10.5a1.538,1.538,0,0,1-1.5,1.5H263.2a1.362,1.362,0,0,1-1.05-.45,1.481,1.481,0,0,1-.45-1.05V907.8a1.538,1.538,0,0,1,1.5-1.5h.75v-1.5h1.5v1.5h6v-1.5h1.5v1.5Zm0,12V908.05H263.2V918.3Z" transform="translate(732.3 -881.801)"/><rect class="a" width="1.5" height="1.5" transform="translate(1000 28)"/><rect class="a" width="1.5" height="1.5" transform="translate(1003 28)"/><rect class="a" width="1.5" height="1.5" transform="translate(1000 31)"/><rect class="a" width="1.5" height="1.5" transform="translate(1000 34)"/><rect class="a" width="1.5" height="1.5" transform="translate(1003 31)"/><rect class="a" width="1.5" height="1.5" transform="translate(1003 34)"/></g></g></svg>