<svg xmlns="http://www.w3.org/2000/svg" width="15" height="10" viewBox="0 0 15 10"><defs><style>.a{fill:#3597ec;}</style></defs><g transform="translate(-440 -375)"><path class="a" d="M3.8,94.636a2.519,2.519,0,0,1,0-5.036,2.519,2.519,0,0,1,0,5.036Zm0-3.735a1.221,1.221,0,1,0,1.189,1.22A1.207,1.207,0,0,0,3.8,90.9Z" transform="translate(440 285.4)"/><path class="a" d="M11.571,99.6H8.933a.6.6,0,0,1,0-1.2h2.638a.6.6,0,0,1,0,1.2Zm2.843-3.362H8.933a.6.6,0,0,1,0-1.2h5.481a.6.6,0,0,1,0,1.2Zm0-3.362H8.933a.6.6,0,0,1,0-1.2h5.481a.6.6,0,0,1,0,1.2ZM6.659,99.6a.6.6,0,0,1-.586-.6V97.876a1.355,1.355,0,0,0-1.46-1.212H2.632a1.356,1.356,0,0,0-1.46,1.212V99a.6.6,0,0,1-.586.6A.6.6,0,0,1,0,99V97.876A2.534,2.534,0,0,1,2.632,95.46H4.613a2.534,2.534,0,0,1,2.632,2.416V99A.594.594,0,0,1,6.659,99.6Z" transform="translate(440 285.4)"/></g></svg>