<?xml version="1.0" standalone="no"?>
<!DOCTYPE svg PUBLIC "-//W3C//DTD SVG 20010904//EN"
 "http://www.w3.org/TR/2001/REC-SVG-20010904/DTD/svg10.dtd">
<svg version="1.0" xmlns="http://www.w3.org/2000/svg"
 width="294.000000pt" height="346.000000pt" viewBox="0 0 294.000000 346.000000"
 preserveAspectRatio="xMidYMid meet">

<g transform="translate(0.000000,346.000000) scale(0.100000,-0.100000)"
fill="#000000" stroke="none">
<path d="M1335 3429 c-308 -48 -561 -276 -642 -579 -26 -95 -26 -447 0 -540
41 -151 120 -277 237 -378 312 -270 718 -270 1030 0 117 101 196 227 237 378
26 93 26 445 0 540 -72 268 -295 494 -552 560 -92 23 -229 32 -310 19z m245
-311 c152 -46 289 -189 325 -339 9 -40 15 -114 15 -199 0 -209 -30 -297 -140
-408 -98 -98 -201 -142 -335 -142 -134 0 -237 43 -335 142 -69 69 -113 150
-130 237 -15 78 -12 285 5 364 36 173 210 335 384 357 65 9 160 3 211 -12z"/>
<path d="M630 1530 c-85 -22 -212 -83 -282 -135 -76 -56 -175 -180 -224 -280
-64 -133 -87 -235 -81 -365 15 -339 246 -629 574 -723 77 -22 83 -22 828 -22
745 0 751 0 828 22 328 94 559 384 574 723 6 130 -17 232 -81 365 -49 100
-148 224 -224 280 -71 53 -198 113 -286 135 -76 19 -112 20 -815 19 -694 0
-740 -1 -811 -19z m500 -288 c0 -4 -13 -29 -29 -54 -141 -222 -160 -493 -51
-723 21 -44 50 -99 65 -123 l26 -42 -176 0 c-279 0 -377 31 -492 153 -73 79
-109 151 -124 248 -24 156 22 296 133 408 119 119 185 140 451 140 108 1 197
-3 197 -7z m1071 -8 c87 -26 140 -58 207 -125 112 -113 158 -251 133 -408 -15
-99 -49 -168 -123 -246 -118 -127 -210 -155 -505 -155 -284 0 -373 27 -489
145 -102 104 -138 191 -137 337 1 141 42 235 146 335 68 66 104 87 187 114 78
25 498 27 581 3z"/>
</g>
</svg>
