<svg width="18" height="20" viewBox="0 0 18 20" fill="none" xmlns="http://www.w3.org/2000/svg">
<path d="M10.6666 9.16683C11.1269 9.16683 11.5 9.53993 11.5 10.0002V13.3335C11.5 13.7937 11.1269 14.1668 10.6666 14.1668C10.2064 14.1668 9.8333 13.7937 9.8333 13.3335V10.0002C9.8333 9.53993 10.2064 9.16683 10.6666 9.16683Z" fill="#999DA0"/>
<path d="M8.16663 10.0002C8.16663 9.53993 7.79353 9.16683 7.3333 9.16683C6.87306 9.16683 6.49996 9.53993 6.49996 10.0002V13.3335C6.49996 13.7937 6.87306 14.1668 7.3333 14.1668C7.79353 14.1668 8.16663 13.7937 8.16663 13.3335V10.0002Z" fill="#999DA0"/>
<path fill-rule="evenodd" clip-rule="evenodd" d="M5.66663 4.16683V3.75016C5.66663 2.13933 6.97247 0.833496 8.5833 0.833496H9.41663C11.0275 0.833496 12.3333 2.13933 12.3333 3.75016V4.16683L16.5 4.16683C16.9602 4.16683 17.3333 4.53993 17.3333 5.00016C17.3333 5.4604 16.9602 5.8335 16.5 5.8335H15.6666V16.6668C15.6666 18.0476 14.5473 19.1668 13.1666 19.1668H4.8333C3.45258 19.1668 2.33329 18.0476 2.33329 16.6668V5.8335H1.49996C1.03972 5.8335 0.666626 5.4604 0.666626 5.00017C0.666626 4.53993 1.03972 4.16683 1.49996 4.16683H5.66663ZM7.3333 4.16683H10.6666V3.75016C10.6666 3.05981 10.107 2.50016 9.41663 2.50016L8.5833 2.50016C7.89294 2.50016 7.3333 3.05981 7.3333 3.75016V4.16683ZM3.99996 5.8335V16.6668C3.99996 17.1271 4.37306 17.5002 4.8333 17.5002H13.1666C13.6269 17.5002 14 17.1271 14 16.6668V5.8335H3.99996Z" fill="#999DA0"/>
</svg>
