<svg xmlns="http://www.w3.org/2000/svg" width="158.504" height="105.936" viewBox="0 0 158.504 105.936">
  <g id="Group_5481" data-name="Group 5481" transform="translate(0.142 0.195)" opacity="0.997">
    <path id="Path_200" data-name="Path 200" d="M33.927,83.93c-1.9-.758-3.876-.337-5.814-.295-1.6.042-2.612-.337-2.528-2.107.042-1.685-.843-2.191-2.4-1.98-1.475.211-2.191-.169-2.444-1.938-2.149-17.4-2.823-34.8.59-52.115.295-1.432.8-1.9,2.317-1.9,14.746.084,29.449.084,44.195,0,1.685,0,2.149.463,1.475,1.98-.885,2.107.126,2.486,1.98,2.275a28.437,28.437,0,0,1,3.286,0c-.379,1.812-.632,3.455-1.011,5.1-.379,1.6-.169,2.612,1.812,2.233a6.336,6.336,0,0,1,1.264,0h70.526c1.6,0,3.244-.169,4.719.758,0,.548-.379.674-.758.843a14.25,14.25,0,0,1-3.792.211H77.026c-1.727,0-3.5-.126-3.75,2.275a1.244,1.244,0,0,0,1.348,1.475c.716.042,1.39.042,2.107.042h68.63c2.907.042,3.286.379,3.286,3.286v60.836c0,2.781-.379,3.2-3.16,3.2H42.1a7.225,7.225,0,0,1-1.9-.169,1.5,1.5,0,0,1-.674-.506,3.123,3.123,0,0,1-.337-1.643c0-6.109-.042-12.218,0-18.327a2.711,2.711,0,0,1,.211-1.011,1,1,0,0,1,.59-.506,1.151,1.151,0,0,1,.59.59c.59,2.444.253,4.887.295,7.331.042,3.37,0,6.741.042,10.111.042,2.191.253,2.444,2.444,2.444,6.825.084,13.608.084,20.433.084q39.876.063,79.795.042c3.455,0,3.455,0,3.455-3.539V63.834c-.126-6.109-.042-12.218-.084-18.285,0-2.907-.084-2.991-2.907-2.991H76.1c-2.991,0-2.907.042-3.244,2.991-.716,6.151-.253,12.3-.126,18.5.169,2.57.506,5.1.843,7.668.253,1.306-.084,2.612.337,3.876.169,1.432.506,2.823.632,4.255.042,1.138.59,2.233.169,3.37a1.67,1.67,0,0,1-1.727.969c-4.676.084-9.353.042-13.987.084a2.351,2.351,0,0,1-1.39-.421.843.843,0,0,1-.169-1.1,4.171,4.171,0,0,1,2.823-.59c3.244-.042,6.446,0,9.69,0,2.738,0,2.781-.126,2.444-2.7A173.606,173.606,0,0,1,70.37,51.827a132.96,132.96,0,0,1,1.9-19.633c.421-2.4.295-2.612-2.107-2.612-13.524,0-27.09,0-40.613-.042-1.938,0-2.781.716-3.076,2.57-.8,4.971-1.264,9.985-1.685,15.04-.843,10.7.463,21.276,1.812,31.85.421,3.2.506,3.118,3.665,3.2,4.466.084,8.974-.295,13.44.253a1.272,1.272,0,0,1,.927,1.432c-1.264,1.011-2.738.084-4.087.506a6.313,6.313,0,0,1-.927-.084,3.188,3.188,0,0,1-.632-.042c-1.222-.042-2.444,0-3.665-.042h-.59A1.259,1.259,0,0,0,33.927,83.93Z" transform="translate(-10.677 -13.368)" fill="#757575"/>
    <path id="Path_201" data-name="Path 201" d="M165.537,242.518c1.517,1.222,3.623,1.306,5.561,2.781H22.8c2.107-1.6,4.676-1.769,6.614-3.16,1.306-.927,2.738-.253,4.044-.126a104.524,104.524,0,0,0,10.87.674q54.158.126,108.359,0a82.3,82.3,0,0,0,10.659-.674A2.29,2.29,0,0,1,165.537,242.518Z" transform="translate(-12.905 -139.557)" fill="#bfbfbf"/>
    <path id="Path_202" data-name="Path 202" d="M40.785,102.575c.211.042.379.042.59.084.632.843.421,1.769.463,2.7.126,6.825.042,13.608.084,20.433,0,2.949.126,3.076,3.076,3.076H88.392a10.705,10.705,0,0,1,5.9,1.264,6.018,6.018,0,0,0,2.823.758q5.688.253,11.375,0a4.914,4.914,0,0,0,2.444-.632c2.064-1.348,4.339-1.39,6.7-1.39,12.765.042,25.531,0,38.338,0,3.286,0,3.5-.169,3.5-3.413V61.246c0-1.264-.295-2.528-.169-3.792.126-.421.253-.8.8-.758a5.634,5.634,0,0,1,.8,3.413v66.861c0,2.738-.042,2.738,2.738,2.738,3.16,0,6.32-.042,9.479.042.758,0,1.98-.548,2.106.632.169,1.222.632,2.7-.758,3.665a1.949,1.949,0,0,1-1.348.548c-.379-.211-1.18-.084-.758-.927.295-.548,1.18-.843.885-1.559-.337-.8-1.18-.59-1.854-.59-18.748,0-37.5-.042-56.244,0a6.01,6.01,0,0,0-2.275.379,30.358,30.358,0,0,1-20.6-.084,7.044,7.044,0,0,0-2.275-.295H34.381c-2.359,0-2.486.211-1.559,2.106.337.843-.337.758-.8.927A3.506,3.506,0,0,1,30.21,130.3c.337-.758,1.053-.59,1.643-.59,2.317-.042,4.634-.084,6.951,0,1.306.042,1.6-.421,1.559-1.685-.042-7.626,0-15.251.042-22.877C40.912,104.345,40.237,103.376,40.785,102.575Z" transform="translate(-17.071 -32.518)" fill="#757575"/>
    <path id="Path_203" data-name="Path 203" d="M34.7,240.241a9.015,9.015,0,0,0,.927-.421,2.657,2.657,0,0,1,2.317-.295,68.323,68.323,0,0,0,12.765.969q54.538.19,109.075,0a66.213,66.213,0,0,0,13.187-.969,2.024,2.024,0,0,1,1.938.379,8.435,8.435,0,0,1,.885.421c-1.138.295-2.233.59-3.37.927-38.423,1.769-76.888.421-115.352.8a131.823,131.823,0,0,1-20.77-1.18C35.8,240.621,35.248,240.452,34.7,240.241Z" transform="translate(-19.791 -138.25)" fill="#757575"/>
    <path id="Path_204" data-name="Path 204" d="M335.433,54.443c-.168.169-.295.379-.463.548a1.9,1.9,0,0,1-1.769-1.727c.168-.169.379-.295.548-.463A2.822,2.822,0,0,1,335.433,54.443Z" transform="translate(-192.533 -30.266)" fill="#757575"/>
    <path id="Path_205" data-name="Path 205" d="M54.963,165.6c-.126.843.337,1.812-.421,2.528,0-.674-.042-1.348-.042-2.022A5.048,5.048,0,0,1,54.963,165.6Z" transform="translate(-31.25 -95.543)" fill="#6859b4"/>
    <path id="Path_207" data-name="Path 207" d="M50.922,89.8c-5.266,0-10.533-.042-15.8,0-1.222,0-1.812-.253-2.064-1.643a159.65,159.65,0,0,1-1.98-37.5,97.625,97.625,0,0,1,1.9-13.524c.253-1.138.716-1.432,1.812-1.432q21.992.063,43.984,0c1.18,0,1.517.126,1.264,1.517-3.076,15.083-2.823,30.207-.716,45.416.253,1.854.463,3.75.843,5.6.253,1.264-.126,1.6-1.348,1.6-4.845-.042-9.69,0-14.535,0-.969-.506-1.053-1.6-1.559-2.4a6.5,6.5,0,0,0-7.92-2.949A4.769,4.769,0,0,0,51.891,87.6,3.565,3.565,0,0,1,50.922,89.8Z" transform="translate(-17.476 -20.37)" fill="#fefefe"/>
    <path id="Path_209" data-name="Path 209" d="M172.955,53.337c.59.59,1.18,1.138,1.769,1.727a14.273,14.273,0,0,1,.421,3.539v65.47c0,3.413,0,3.413-3.5,3.413H130.362a11.048,11.048,0,0,0-3.328.843,30.237,30.237,0,0,1-18.327,0,11.408,11.408,0,0,0-3.581-.843c-15.462,0-30.881-.042-46.343.042-1.98,0-2.528-.632-2.486-2.486.084-7.373.084-14.746.126-22.118a4.436,4.436,0,0,1,4.719-.042c.295,6.4.042,12.85.126,19.253a4.04,4.04,0,0,0,.211,2.233h0a4.189,4.189,0,0,0,2.275.211H167.563c2.4,0,2.4,0,2.4-2.359V60.331c0-2.317,0-2.317-2.444-2.317H96.152c-1.348,0-2.486-.042-1.9-1.9C94.72,53,94.72,53,97.8,53h71.621C170.6,53.126,171.776,53.295,172.955,53.337Z" transform="translate(-32.288 -30.382)" fill="#fefefe"/>
    <path id="Path_211" data-name="Path 211" d="M46.734,25.575c7.036,0,14.029-.042,21.065.042.674,0,2.064-.674,1.9,1.011-.126,1.222-.169,2.359-2.107,2.359-12.639-.084-25.278,0-37.875-.084-1.938,0-2.781.421-3.16,2.486A128.3,128.3,0,0,0,24.489,60.88c.295,5.73.885,11.459,1.517,17.189.084.632.885,1.685-.59,1.727-1.053.042-2.486.632-2.654-1.348-.253-2.991-.8-5.982-.969-8.974-.59-8.805-1.18-17.653-.506-26.5.421-5.393,1.18-10.7,2.107-16.052.253-1.475,1.18-1.306,2.149-1.306C32.536,25.575,39.656,25.575,46.734,25.575Z" transform="translate(-11.856 -14.458)" fill="#fefefe"/>
    <path id="Path_212" data-name="Path 212" d="M91.76,158.437a7.012,7.012,0,0,1-3.834,3.455c-3.834,1.812-9.227-1.643-8.974-5.688-.084-.295-.169-.632-.253-.927.674-4.213,2.4-6.151,5.688-6.4,3.118-.253,6.235,2.022,7.373,5.435.126.337.253.674.337.969,0,.253.042.548.042.8C92.856,157,92.434,157.763,91.76,158.437Z" transform="translate(-45.254 -85.853)" fill="#75d835"/>
    <path id="Path_213" data-name="Path 213" d="M101.435,60.7c-.295,1.854.927,1.727,2.191,1.727,23.719,0,47.439.042,71.158-.084,2.233,0,2.612.632,2.612,2.7q-.126,30.966,0,61.889c0,1.812-.379,2.359-2.275,2.359q-52.2-.063-104.441-.042c-.674,0-1.432.295-1.98-.337H174.194c2.738,0,2.738,0,2.738-2.7V65.545c0-2.781,0-2.781-2.907-2.781H103.289C101.856,62.764,100.34,62.891,101.435,60.7Z" transform="translate(-39.656 -34.838)" fill="#757575"/>
    <path id="Path_216" data-name="Path 216" d="M73.079,165.995c1.6,4.466,4.55,6.362,8.974,5.688-2.949,2.7-7.078,2.064-9.774-1.812-.885-1.264-1.727-1.854-3.16-1.643l-.169.042a1.528,1.528,0,0,1,.084-2.149A7.318,7.318,0,0,1,73.079,165.995Z" transform="translate(-39.38 -95.643)" fill="#bfbfbf"/>
    <path id="Path_217" data-name="Path 217" d="M126.915,163.6c.126,0,.211.042.337.042.126.885-.253,1.306-1.18,1.264-.716-.042-1.39.042-2.107.042-1.98,1.1-4.087.421-6.151.506-1.348.042-2.486.295-3.2,1.517H109.6c.126-.8.295-1.6.421-2.4,5.014-.042,10.069-.042,15.083-.084C125.862,164.485,126.789,164.78,126.915,163.6Z" transform="translate(-63.136 -94.386)" fill="#bfbfbf"/>
    <path id="Path_218" data-name="Path 218" d="M61.167,168.244H56.491a5.311,5.311,0,0,1,.126-2.444h4.339A1.778,1.778,0,0,1,61.167,168.244Z" transform="translate(-32.356 -95.659)" fill="#bfbfbf"/>
    <path id="Path_219" data-name="Path 219" d="M67.469,168.186a4.8,4.8,0,0,0-.169-2.444c.211,0,.379-.042.59-.042a3.865,3.865,0,0,1,.042,2.486c0,7.162-.042,14.324-.042,21.486-.59-.674-.295-1.475-.295-2.191C67.511,181.035,67.469,174.589,67.469,168.186Z" transform="translate(-38.657 -95.601)" fill="#7c6ec2"/>
    <path id="Path_220" data-name="Path 220" d="M68.642,168.086c0-.843-.042-1.643-.042-2.486a3.972,3.972,0,0,0,.421.421c-.042.716-.042,1.432-.084,2.149C68.853,168.128,68.726,168.128,68.642,168.086Z" transform="translate(-39.409 -95.543)" fill="#6859b4"/>
    <path id="Path_221" data-name="Path 221" d="M173.578,235.493c-.506,0-1.053.042-1.559.042a113.074,113.074,0,0,1-13.608.548q-54.474.126-108.991,0a115.045,115.045,0,0,1-13.187-.548l-1.9-.126c-.379-.211-.716-.379-1.1-.59-1.011-.463-.885-1.348-.758-2.191.126-.927.969-.674,1.517-.674,2.823-.042,5.6,0,8.426,0h49.04a7.918,7.918,0,0,1,3.2.758c3.665,1.685,7.668,1.517,11.586,1.348,2.823-.126,5.772-.126,8.3-1.854a4.371,4.371,0,0,1,2.275-.253c18.748,0,37.454-.042,56.2.042.927,0,2.359-.885,2.781.885C176.148,234.693,174.589,234.9,173.578,235.493Z" transform="translate(-18.46 -133.838)" fill="#fefefe"/>
    <path id="Path_222" data-name="Path 222" d="M41.4,240.642c1.18,0,2.4-.042,3.581-.042H176.174c.337,0,.716.042,1.053.042-4.339,1.1-8.763,1.053-13.145,1.1q-54.854.19-109.707,0C50.037,241.737,45.655,241.78,41.4,240.642Z" transform="translate(-23.669 -138.945)" fill="#bfbfbf"/>
    <path id="Path_229" data-name="Path 229" d="M121.526,168.685c-.253-1.6.379-2.233,2.064-2.107,2.444.168,4.845.084,7.289.084.716,1.559.169,2.106-1.475,2.064C126.75,168.643,124.138,168.685,121.526,168.685Z" transform="translate(-70.007 -96.1)" fill="#bfbfbf"/>
    <path id="Path_230" data-name="Path 230" d="M60.425,95.516h16.22c.758,0,2.022-.379,2.064.758.042,1.222-1.222.885-1.98.885H43.868c-.716-.084-1.812.211-1.769-.885.042-1.053,1.138-.716,1.9-.8.421-.042.843,0,1.264,0C50.314,95.516,55.369,95.516,60.425,95.516Z" transform="translate(-24.072 -54.951)" fill="#bfbfbf"/>
    <path id="Path_231" data-name="Path 231" d="M60.272,87.285H44.263c-.758,0-2.022.379-2.064-.758-.042-1.222,1.222-.885,1.98-.885H77.251c.674.042,1.643-.126,1.559.885-.042.927-1.011.758-1.685.8-.421.042-.843,0-1.264,0C70.636,87.285,65.454,87.285,60.272,87.285Z" transform="translate(-24.13 -49.247)" fill="#bfbfbf"/>
    <g id="Group_6735" data-name="Group 6735" transform="translate(7.163 4.054)">
      <path id="Path_13385" data-name="Path 13385" d="M58.635,88.273H44.076c-.69,0-1.839.345-1.877-.69V79.77h3.462a39.735,39.735,0,0,1,0,4.454H71.874c.115,0-.115-3.687,0-3.687.613.038,3.92-.508,3.843.411-.038.843.389,7.325-.224,7.363-.383.038-2.3,0-2.682,0C68.06,88.273,63.348,88.273,58.635,88.273Z" transform="translate(19.281 -13.624)" fill="#5b64c9"/>
      <path id="Path_13386" data-name="Path 13386" d="M60.813,93.567c.007.012-7.456-5.728-7.422-5.889-.143-.1.053-4.435,0-4.39.036.017,7.528,5.994,7.422,6.025.055.143,7.587-6.041,7.515-6.025.115,0,.383,4.39,0,4.39C68.349,87.611,60.884,93.613,60.813,93.567Z" transform="translate(16.952 -28.376)" fill="#5b64c9"/>
      <path id="Path_13387" data-name="Path 13387" d="M0,4.254A31.131,31.131,0,0,0,0,0C.094.144,18.036-.014,17.912,0c.2,0,.659,4.39,0,4.39C17.948,4.324.121,4.3,0,4.254Z" transform="translate(75.642 61.697) rotate(-90)" fill="#5b64c9"/>
    </g>
    <path id="Path_232" data-name="Path 232" d="M60.327,107.5h16.81c.548,0,1.517-.295,1.559.548.042,1.053-1.011.674-1.6.674-11.122.042-22.287.042-33.409,0-.632,0-1.685.379-1.685-.632.042-.969,1.1-.59,1.727-.59Z" transform="translate(-24.016 -61.878)" fill="#bfbfbf"/>
    <path id="Path_233" data-name="Path 233" d="M58.711,117.527c3.2,0,6.446-.042,9.648.042.632,0,1.727-.421,1.727.506,0,1.011-1.138.716-1.854.716-4,.042-7.963,0-11.965,0-2.528,0-5.056.042-7.541,0-.632,0-1.685.379-1.727-.59-.042-1.053,1.053-.632,1.643-.632C52.012,117.527,55.382,117.527,58.711,117.527Z" transform="translate(-26.908 -67.692)" fill="#bfbfbf"/>
    <path id="Path_234" data-name="Path 234" d="M54.16,49.343h-5.9c-.59,0-1.222-.084-1.264-.8-.042-.758.632-.843,1.18-.843H59.931c.59,0,1.18.126,1.1.927s-.716.758-1.264.758C57.951,49.343,56.055,49.343,54.16,49.343Z" transform="translate(-26.907 -27.315)" fill="#bfbfbf"/>
    <path id="Path_235" data-name="Path 235" d="M48.615,60.922h-3.75c-.421,0-.885,0-.969-.548-.042-.59.421-.674.843-.674h7.752c.421,0,.885.084.843.674-.042.548-.506.59-.927.59C51.143,60.922,49.879,60.922,48.615,60.922Z" transform="translate(-25.112 -34.259)" fill="#bfbfbf"/>
    <path id="Path_237" data-name="Path 237" d="M94.8,163.269a3.238,3.238,0,0,1,1.475-1.769,3.721,3.721,0,0,1-1.053,2.275C94.884,163.733,94.884,163.48,94.8,163.269Z" transform="translate(-54.571 -93.17)" fill="#e4f7d8"/>
    <path id="Path_238" data-name="Path 238" d="M93.173,165.7a4.465,4.465,0,0,0,.421.506c-.169.674-.59.843-1.222.674-.169-.042-1.223-.976-1.18-1.1C91.277,165.1,92.963,166.248,93.173,165.7Z" transform="translate(-52.944 -95.601)" fill="#e9f8e0"/>
    <line id="Line_21" data-name="Line 21" x2="5.94" y2="2.191" transform="translate(0.5 10.232)" fill="none" stroke="#bfbfbf" stroke-linecap="round" stroke-miterlimit="10" stroke-width="1"/>
    <line id="Line_22" data-name="Line 22" x2="4.676" y2="6.867" transform="translate(4.418 0.5)" fill="none" stroke="#bfbfbf" stroke-linecap="round" stroke-miterlimit="10" stroke-width="1"/>
    <line id="Line_23" data-name="Line 23" x1="2.191" y2="5.182" transform="translate(15.077 1.048)" fill="none" stroke="#bfbfbf" stroke-linecap="round" stroke-miterlimit="10" stroke-width="1"/>
  </g>
</svg>
