<svg xmlns="http://www.w3.org/2000/svg" width="15" height="15" viewBox="0 0 15 15"><path d="M-3654.825,683.761a7.077,7.077,0,0,1-2.175-5.3,7.369,7.369,0,0,1,2.175-5.3A7.149,7.149,0,0,1-3649.5,671a7.446,7.446,0,0,1,5.325,2.164,7.076,7.076,0,0,1,2.175,5.3,7.622,7.622,0,0,1-2.25,5.3,7.218,7.218,0,0,1-5.325,2.239A6.938,6.938,0,0,1-3654.825,683.761Zm1.125-9.478a5.757,5.757,0,0,0-1.8,4.179,5.521,5.521,0,0,0,1.8,4.179,5.344,5.344,0,0,0,4.125,1.866,5.689,5.689,0,0,0,4.2-1.791,5.753,5.753,0,0,0,1.8-4.179,5.456,5.456,0,0,0-1.725-4.254,5.811,5.811,0,0,0-4.2-1.791A5.691,5.691,0,0,0-3653.7,674.283Zm1.2,5.2h2.25v-4.749h1.5v4.749h2.25l-3,2.714Z" transform="translate(3657 -671)"/></svg>