<svg width="16" height="16" viewBox="0 0 16 16" fill="none" xmlns="http://www.w3.org/2000/svg">
<path fill-rule="evenodd" clip-rule="evenodd" d="M7.99984 14C11.3136 14 13.9998 11.3137 13.9998 8C13.9998 4.68628 11.3136 1.99999 7.99984 1.99999C4.68613 1.99999 1.99984 4.68628 1.99984 8C1.99984 11.3137 4.68613 14 7.99984 14ZM15.3332 8C15.3332 12.0501 12.0499 15.3333 7.99984 15.3333C3.94975 15.3333 0.666504 12.0501 0.666504 8C0.666504 3.9499 3.94975 0.666656 7.99984 0.666656C12.0499 0.666656 15.3332 3.9499 15.3332 8Z" fill="#668CFF"/>
<path fill-rule="evenodd" clip-rule="evenodd" d="M5.52844 6.19526C5.78879 5.93491 6.2109 5.93491 6.47125 6.19526L7.99984 7.72385L9.52844 6.19526C9.78879 5.93491 10.2109 5.93491 10.4712 6.19526C10.7316 6.45561 10.7316 6.87772 10.4712 7.13807L8.51839 9.09093C8.23201 9.37731 7.76768 9.37731 7.4813 9.09093L5.52844 7.13807C5.26809 6.87772 5.26809 6.45561 5.52844 6.19526Z" fill="#668CFF"/>
<path fill-rule="evenodd" clip-rule="evenodd" d="M4.66651 10.6667C4.66651 10.2985 4.96498 10 5.33317 10H10.6665C11.0347 10 11.3332 10.2985 11.3332 10.6667C11.3332 11.0349 11.0347 11.3333 10.6665 11.3333H5.33317C4.96498 11.3333 4.66651 11.0349 4.66651 10.6667Z" fill="#668CFF"/>
<path fill-rule="evenodd" clip-rule="evenodd" d="M7.99984 3.33333C8.36803 3.33333 8.66651 3.6318 8.66651 3.99999V8C8.66651 8.36819 8.36803 8.66666 7.99984 8.66666C7.63165 8.66666 7.33318 8.36819 7.33318 8V3.99999C7.33318 3.6318 7.63165 3.33333 7.99984 3.33333Z" fill="#668CFF"/>
</svg>