<svg width="18" height="18" viewBox="0 0 18 18" fill="none" xmlns="http://www.w3.org/2000/svg">
<path fill-rule="evenodd" clip-rule="evenodd" d="M3.37844 12.2174L2.79122 15.1534L5.7273 14.5662L13.0155 7.27801L10.6666 4.92914L3.37844 12.2174ZM0.666626 17.278L1.8431 11.3957L10.6666 2.57212L15.3725 7.27801L6.54899 16.1016L0.666626 17.278Z" fill="#999DA0"/>
<path fill-rule="evenodd" clip-rule="evenodd" d="M11.8472 3.74862L14.196 6.09749L15.3674 4.92612C15.6928 4.60068 15.6928 4.07304 15.3674 3.74761L14.1971 2.57725C13.8716 2.25181 13.344 2.25181 13.0185 2.57725L11.8472 3.74862ZM14.196 8.45452L16.5459 6.10463C17.5222 5.12832 17.5222 3.5454 16.5459 2.56909L15.3756 1.39874C14.3993 0.422426 12.8163 0.422426 11.84 1.39874L9.49014 3.74862L14.196 8.45452Z" fill="#999DA0"/>
</svg>
