<svg xmlns="http://www.w3.org/2000/svg" width="89.3" height="64" viewBox="0 0 89.3 64"><defs><style>.a{fill:gray;}</style></defs><g transform="translate(-5.2 -17.7)"><circle class="a" cx="2.2" cy="2.2" r="2.2" transform="translate(12.2 23.7)"/><circle class="a" cx="2.2" cy="2.2" r="2.2" transform="translate(19.3 23.7)"/><circle class="a" cx="2.2" cy="2.2" r="2.2" transform="translate(26.4 23.7)"/><path class="a" d="M75.4,60.9H24.3a1.5,1.5,0,0,0,0,3H75.4a1.5,1.5,0,0,0,0-3Z"/><path class="a" d="M66.9,67.9h-34a1.5,1.5,0,0,0,0,3h34a1.5,1.5,0,0,0,0-3Z"/><path class="a" d="M86.3,17.7H13.4a8.237,8.237,0,0,0-8.2,8.2V73.5a8.237,8.237,0,0,0,8.2,8.2H86.3a8.237,8.237,0,0,0,8.2-8.2V25.9A8.237,8.237,0,0,0,86.3,17.7Zm5.2,55.8a5.228,5.228,0,0,1-5.2,5.2H13.4a5.228,5.228,0,0,1-5.2-5.2V25.9a5.228,5.228,0,0,1,5.2-5.2H86.3a5.228,5.228,0,0,1,5.2,5.2Z"/><path class="a" d="M63.8,52a3.408,3.408,0,0,0-.7-2.2h0L53.3,34.5a4.174,4.174,0,0,0-7,0L36.5,49.8a3.978,3.978,0,0,0-.1,4.2A4.08,4.08,0,0,0,40,56.1H59.6A4.08,4.08,0,0,0,63.2,54,3.606,3.606,0,0,0,63.8,52Zm-2.8.8a1.6,1.6,0,0,1-1.4.8H40.1a1.6,1.6,0,0,1-1.4-.8,1.542,1.542,0,0,1,.1-1.6l9.8-15.3a1.557,1.557,0,0,1,2.6,0L61,51.2a1.077,1.077,0,0,1,.2.8A2.354,2.354,0,0,1,61,52.8Z"/><rect class="a" width="2.5" height="2.3" transform="translate(48.6 48.8)"/><rect class="a" width="2.5" height="7" transform="translate(48.6 40.1)"/></g></svg>