<svg width="18" height="18" viewBox="0 0 18 18" fill="none" xmlns="http://www.w3.org/2000/svg">
<path fill-rule="evenodd" clip-rule="evenodd" d="M8.88108 4.4102C8.52459 5.61831 7.4069 6.5 6.08328 6.5C4.75966 6.5 3.64197 5.61831 3.28548 4.4102H1.49995C1.04329 4.4102 0.673096 4.04001 0.673096 3.58335C0.673096 3.12669 1.04329 2.7565 1.49995 2.7565H3.28547C3.64194 1.54837 4.75964 0.666656 6.08328 0.666656C7.40692 0.666656 8.52462 1.54837 8.8811 2.7565H16.5C16.9566 2.7565 17.3268 3.12669 17.3268 3.58335C17.3268 4.04001 16.9566 4.4102 16.5 4.4102H8.88108ZM7.34625 3.58333C7.34625 4.28084 6.7808 4.84629 6.08328 4.84629C5.38576 4.84629 4.82031 4.28084 4.82031 3.58333C4.82031 2.88581 5.38576 2.32036 6.08328 2.32036C6.7808 2.32036 7.34625 2.88581 7.34625 3.58333Z" fill="#505159"/>
<path fill-rule="evenodd" clip-rule="evenodd" d="M1.49995 7.96484C1.04329 7.96484 0.673096 8.33503 0.673096 8.79169C0.673096 9.24834 1.04329 9.61854 1.49995 9.61854H9.95215C10.3086 10.8266 11.4263 11.7083 12.75 11.7083C14.0736 11.7083 15.1913 10.8266 15.5478 9.61854H16.5C16.9566 9.61854 17.3268 9.24834 17.3268 8.79169C17.3268 8.33503 16.9566 7.96484 16.5 7.96484H15.5478C15.1913 6.75671 14.0736 5.87499 12.75 5.87499C11.4263 5.87499 10.3086 6.75671 9.95214 7.96484H1.49995ZM12.75 10.0546C13.4475 10.0546 14.0129 9.48918 14.0129 8.79166C14.0129 8.09415 13.4475 7.5287 12.75 7.5287C12.0524 7.5287 11.487 8.09415 11.487 8.79166C11.487 9.48918 12.0524 10.0546 12.75 10.0546Z" fill="#505159"/>
<path fill-rule="evenodd" clip-rule="evenodd" d="M1.49995 13.5898C1.04329 13.5898 0.673096 13.96 0.673096 14.4167C0.673096 14.8733 1.04329 15.2435 1.49995 15.2435H2.86923C3.22629 16.4517 4.34431 17.3333 5.66824 17.3333C6.99217 17.3333 8.1102 16.4517 8.46726 15.2435H16.5C16.9566 15.2435 17.3268 14.8734 17.3268 14.4167C17.3268 13.96 16.9566 13.5898 16.5 13.5898H8.46823C8.11223 12.38 6.99338 11.4967 5.66824 11.4967C4.3431 11.4967 3.22425 12.38 2.86825 13.5898H1.49995ZM6.93284 14.415C6.93284 15.1135 6.36666 15.6796 5.66824 15.6796C4.96983 15.6796 4.40365 15.1135 4.40365 14.415C4.40365 13.7166 4.96983 13.1504 5.66824 13.1504C6.36666 13.1504 6.93284 13.7166 6.93284 14.415Z" fill="#505159"/>
</svg>