<svg width="20" height="20" viewBox="0 0 20 20" fill="none" xmlns="http://www.w3.org/2000/svg">
<path d="M4.25 8H6.75V10.5H4.25V8Z" fill="#505159"/>
<path d="M6.75 12.75H4.25V15.25H6.75V12.75Z" fill="#505159"/>
<path fill-rule="evenodd" clip-rule="evenodd" d="M0 3C0 1.34315 1.34315 0 3 0H8C9.65685 0 11 1.34315 11 3V9H13.0387C13.9501 9 14.812 9.41427 15.3814 10.1259L16.5418 11.5765L18.3288 11.8743C19.2932 12.0351 20 12.8694 20 13.8471V17C20 17.5523 19.5523 18 19 18H17.8293C17.4175 19.1652 16.3062 20 15 20C13.6938 20 12.5825 19.1652 12.1707 18H11V20H0V3ZM12.1707 16C12.5825 14.8348 13.6938 14 15 14C16.3062 14 17.4175 14.8348 17.8293 16H18V13.8471L15.8356 13.4864C15.5926 13.4459 15.373 13.3171 15.2191 13.1247L13.8196 11.3753C13.6298 11.1381 13.3425 11 13.0387 11H11V16H12.1707ZM9 18H2V3C2 2.44772 2.44772 2 3 2H8C8.55228 2 9 2.44772 9 3V18ZM14 17C14 16.4477 14.4477 16 15 16C15.5523 16 16 16.4477 16 17C16 17.5523 15.5523 18 15 18C14.4477 18 14 17.5523 14 17Z" fill="#505159"/>
</svg>
