<svg xmlns="http://www.w3.org/2000/svg" width="20" height="20" viewBox="0 0 20 20"><defs><style>.a{fill:#c5c5c5;}</style></defs><g transform="translate(-265 -197.179)"><path class="a" d="M12.5,63.905a.978.978,0,0,1,.28-.7,1.092,1.092,0,0,1,.785-.32q2.687,0,5.371,0A1.016,1.016,0,0,1,20,63.857c.006.446,0,.894,0,1.34V75.333c0,.585,0,1.173,0,1.759a1.209,1.209,0,0,1-1.316,1.2H1.31A1.207,1.207,0,0,1,0,77.1v-12A1.2,1.2,0,0,1,1.316,63.9H12.31C12.372,63.905,12.434,63.905,12.5,63.905Z" transform="translate(265 138.888)"/><path class="a" d="M.035,7.519c0-.643-.035-1.388.006-2.1.094-1.6.614-2.637,1.266-2.637h11.2c.024-.336.035-.636.068-.92C12.709.777,13.1.032,13.585.024,15.376.01,17.164,0,18.955.024c.6.007,1.041,1.154,1.053,2.637,0,.584,0,1.161,0,1.775-.018-.073-.032-.117-.041-.168-.2-1.351-.531-1.936-1.106-1.936H13.934a1.448,1.448,0,0,0-.531.037c-.484.19-.841,1.191-.876,2.411,0,.08,0,.168-.006.3h-.207c-3.593,0-7.189.015-10.783-.015C.867,5.058.28,5.525.035,7.519Z" transform="translate(264.98 197.168)"/></g></svg>
