<svg xmlns="http://www.w3.org/2000/svg" width="200" height="41.237" viewBox="0 0 200 41.237"><defs><style>.a,.b{fill:#1a237e;}.b{fill-rule:evenodd;}</style></defs><g transform="translate(-318.746 -1919.404)"><rect class="a" width="8.619" height="39.242" transform="translate(367.352 1920.402)"/><path class="b" d="M1169.863,1968.637h-14.089c-11.657,0-21.989-6.818-21.989-19.511,0-14.355,10.553-19.732,23.149-19.732h12.929v18.339h-8.619v-10.358h-5.083c-7.293,0-13.426,3.6-13.426,11.307,0,8.923,6.023,11.972,14.034,11.972h13.094Z" transform="translate(-746.336 -8.994)"/><path class="b" d="M2174.323,1968.644h8.618v-16.96h16.74v16.96h8.619V1929.4h-8.619v14.633h-16.74V1929.4h-8.618Z" transform="translate(-1689.555 -9.001)"/><path class="b" d="M1698.978,1929.4h14.089c11.657,0,21.989,6.817,21.989,19.51,0,14.357-10.553,19.732-23.15,19.732h-12.928V1950.3h8.619v10.357h5.083c7.293,0,13.426-3.6,13.426-11.307,0-8.924-6.022-11.972-14.033-11.972h-13.094Z" transform="translate(-1261.493 -8.994)"/><path class="b" d="M356.259,1936.364h-15.3v7.981h7.016v6.375a16.836,16.836,0,0,1-8.122,1.939c-7.348,0-12.154-5.321-12.154-12.637s4.806-12.637,12.154-12.637c4.365,0,7.182,1.274,9.5,3.713l6.077-6.651c-3.923-3.658-9.392-5.044-15.58-5.044-12.21,0-21.1,8.037-21.1,20.619s8.895,20.619,21.1,20.619a34.98,34.98,0,0,0,16.409-3.769Z" transform="translate(0 0)"/></g></svg>
