<svg xmlns="http://www.w3.org/2000/svg" width="72.75" height="15" viewBox="0 0 72.75 15"><defs><style>.a{opacity:0.244;}.b,.c{fill:#fff;}.c{fill-rule:evenodd;}</style></defs><g class="a" transform="translate(-318.746 -1919.404)"><rect class="b" width="3.135" height="14.274" transform="translate(336.426 1919.767)"/><path class="c" d="M1146.908,1943.669h-5.125c-4.24,0-8-2.48-8-7.1,0-5.222,3.839-7.177,8.421-7.177h4.7v6.671h-3.135V1932.3h-1.849c-2.653,0-4.884,1.31-4.884,4.113,0,3.246,2.191,4.355,5.1,4.355h4.763Z" transform="translate(-790.048 -9.628)"/><path class="c" d="M2174.323,1943.677h3.135v-6.169h6.089v6.169h3.135V1929.4h-3.135v5.323h-6.089V1929.4h-3.135Z" transform="translate(-1795.187 -9.635)"/><path class="c" d="M1698.978,1929.4h5.125c4.24,0,8,2.48,8,7.1,0,5.222-3.839,7.177-8.421,7.177h-4.7V1937h3.135v3.768h1.849c2.653,0,4.884-1.31,4.884-4.113,0-3.246-2.191-4.355-5.1-4.355h-4.763Z" transform="translate(-1337.041 -9.628)"/><path class="c" d="M332.391,1925.573h-5.567v2.9h2.552v2.319a6.122,6.122,0,0,1-2.954.706,4.6,4.6,0,0,1,0-9.193,4.37,4.37,0,0,1,3.457,1.351l2.211-2.419a8.052,8.052,0,0,0-5.667-1.835c-4.441,0-7.677,2.924-7.677,7.5s3.235,7.5,7.677,7.5a12.723,12.723,0,0,0,5.969-1.371Z"/></g></svg>
