<svg width="244" height="72" viewBox="0 0 244 72" fill="none" xmlns="http://www.w3.org/2000/svg">
<g clip-path="url(#clip0_11333_87518)">
<path fill-rule="evenodd" clip-rule="evenodd" d="M234.96 71.9997H9.04036C4.05784 71.9997 0 67.9419 0 62.9998V8.99997C0 4.03989 4.05784 0 9.04036 0H234.96C239.938 0 244 4.03989 244 8.99997V62.9998C244 67.9419 239.938 71.9997 234.96 71.9997Z" fill="black"/>
<path fill-rule="evenodd" clip-rule="evenodd" d="M234.96 1.44089C239.139 1.44089 242.559 4.83889 242.559 8.99997V62.9998C242.559 67.1609 239.161 70.5588 234.96 70.5588H9.04036C4.86133 70.5588 1.44089 67.1609 1.44089 62.9998V8.99997C1.44089 4.83889 4.83888 1.44089 9.04036 1.44089C9.04036 1.44089 234.96 1.44089 234.96 1.44089ZM234.96 0H9.04036C4.05784 0 0 4.05784 0 8.99997V62.9998C0 67.9599 4.05784 71.9997 9.04036 71.9997H234.96C239.938 71.9997 244 67.9599 244 62.9998V8.99997C244 4.05784 239.938 0 234.96 0Z" fill="#A6A6A6"/>
<path d="M128.54 23.8176C126.911 23.8176 125.537 23.2475 124.451 22.1253C123.374 21.0346 122.772 19.5308 122.799 17.9957C122.799 16.3573 123.356 14.9702 124.451 13.8705C125.533 12.7483 126.906 12.1782 128.536 12.1782C130.147 12.1782 131.521 12.7483 132.625 13.8705C133.72 15.0061 134.277 16.3932 134.277 17.9957C134.259 19.6385 133.702 21.0256 132.625 22.1208C131.543 23.252 130.17 23.8176 128.54 23.8176ZM80.0571 23.8176C78.4636 23.8176 77.081 23.2565 75.9499 22.1478C74.8277 21.0435 74.2576 19.6475 74.2576 18.0002C74.2576 16.3528 74.8277 14.9568 75.9499 13.8525C77.0586 12.7438 78.4411 12.1827 80.0571 12.1827C80.8471 12.1827 81.6147 12.3398 82.3508 12.6585C83.0735 12.9682 83.6616 13.3902 84.097 13.9064L84.2047 14.0366L82.9883 15.2306L82.8626 15.0825C82.1758 14.2655 81.2556 13.866 80.0391 13.866C78.9528 13.866 78.0057 14.252 77.2247 15.0151C76.4391 15.7827 76.0396 16.7882 76.0396 18.0046C76.0396 19.2211 76.4391 20.2266 77.2247 20.9942C78.0057 21.7572 78.9528 22.1433 80.0391 22.1433C81.1972 22.1433 82.1713 21.7572 82.9299 20.9942C83.3788 20.5453 83.6571 19.9169 83.7558 19.1223H79.8551V17.4435H85.4301L85.4526 17.5962C85.493 17.879 85.5334 18.1707 85.5334 18.44C85.5334 19.9887 85.0665 21.241 84.1419 22.1657C83.0915 23.261 81.7179 23.8176 80.0571 23.8176ZM144.52 23.5797H142.801L137.536 15.1543L137.581 16.6715V23.5752H135.861V12.4206H137.823L137.877 12.5059L142.828 20.442L142.783 18.9293V12.4206H144.52V23.5797V23.5797ZM115.622 23.5797H113.88V14.0994H110.859V12.4206H118.638V14.0994H115.617V23.5797H115.622ZM109.441 23.5797H107.703V12.4206H109.441V23.5797ZM99.6775 23.5797H97.9403V14.0994H94.9194V12.4206H102.698V14.0994H99.6775V23.5797ZM93.8196 23.5617H87.1583V12.4206H93.8196V14.0994H88.8999V17.1608H93.3393V18.8216H88.8999V21.8829H93.8196V23.5617ZM125.726 20.9717C126.502 21.7483 127.445 22.1388 128.54 22.1388C129.667 22.1388 130.587 21.7572 131.355 20.9717C132.118 20.2086 132.504 19.2076 132.504 18.0002C132.504 16.7927 132.118 15.7872 131.359 15.0286C130.583 14.252 129.635 13.8615 128.545 13.8615C127.418 13.8615 126.498 14.2431 125.735 15.0286C124.972 15.7917 124.586 16.7927 124.586 18.0002C124.586 19.2076 124.967 20.2131 125.726 20.9717Z" fill="white"/>
<path fill-rule="evenodd" clip-rule="evenodd" d="M122.637 39.1599C118.395 39.1599 114.957 42.3784 114.957 46.8177C114.957 51.2167 118.418 54.4756 122.637 54.4756C126.879 54.4756 130.318 51.2347 130.318 46.8177C130.318 42.3784 126.879 39.1599 122.637 39.1599ZM122.637 51.4412C120.317 51.4412 118.319 49.52 118.319 46.7998C118.319 44.0392 120.321 42.1584 122.637 42.1584C124.958 42.1584 126.956 44.0392 126.956 46.7998C126.96 49.5379 124.958 51.4412 122.637 51.4412ZM105.881 39.1599C101.639 39.1599 98.2005 42.3784 98.2005 46.8177C98.2005 51.2167 101.661 54.4756 105.881 54.4756C110.123 54.4756 113.561 51.2347 113.561 46.8177C113.561 42.3784 110.118 39.1599 105.881 39.1599ZM105.881 51.4412C103.56 51.4412 101.563 49.52 101.563 46.7998C101.563 44.0392 103.565 42.1584 105.881 42.1584C108.201 42.1584 110.199 44.0392 110.199 46.7998C110.199 49.5379 108.201 51.4412 105.881 51.4412ZM85.9417 41.4986V44.7395H93.7207C93.4828 46.5574 92.8813 47.8995 91.9611 48.8197C90.821 49.9599 89.0614 51.1988 85.9597 51.1988C81.1791 51.1988 77.44 47.3384 77.44 42.5579C77.44 37.7774 81.1791 33.917 85.9597 33.917C88.5407 33.917 90.4215 34.936 91.8175 36.2377L94.1157 33.9395C92.1766 32.0811 89.5956 30.6582 85.9776 30.6582C79.4195 30.6582 73.9163 35.9998 73.9163 42.54C73.9163 49.098 79.4151 54.4217 85.9776 54.4217C89.5193 54.4217 92.1766 53.2636 94.2773 51.0821C96.4185 48.9409 97.0963 45.92 97.0963 43.4826C97.0963 42.724 97.0379 42.0417 96.9167 41.4627H85.9372C85.9417 41.4582 85.9417 41.4986 85.9417 41.4986ZM167.498 44.0212C166.856 42.3021 164.917 39.142 160.94 39.142C156.999 39.142 153.722 42.2437 153.722 46.7998C153.722 51.1 156.963 54.4576 161.321 54.4576C164.823 54.4576 166.861 52.3165 167.7 51.0596L165.101 49.318C164.239 50.5973 163.041 51.4367 161.339 51.4367C159.62 51.4367 158.417 50.6556 157.618 49.116L167.857 44.8741C167.857 44.8786 167.498 44.0212 167.498 44.0212ZM157.057 46.5798C156.976 43.6217 159.355 42.118 161.057 42.118C162.399 42.118 163.516 42.7779 163.898 43.7385L157.057 46.5798ZM148.739 53.9998H152.102V31.5021H148.739V53.9998ZM143.218 40.8612H143.097C142.338 39.9589 140.898 39.142 139.057 39.142C135.237 39.142 131.718 42.504 131.718 46.8222C131.718 51.1225 135.219 54.4442 139.057 54.4442C140.875 54.4442 142.338 53.6227 143.097 52.7025H143.218V53.8023C143.218 56.7244 141.656 58.3 139.138 58.3C137.078 58.3 135.798 56.8187 135.278 55.5798L132.355 56.8008C133.195 58.8207 135.435 61.3209 139.134 61.3209C143.075 61.3209 146.414 59.0003 146.414 53.3399V39.5998H143.236V40.8612C143.241 40.8612 143.218 40.8612 143.218 40.8612ZM139.358 51.4412C137.037 51.4412 135.098 49.502 135.098 46.8222C135.098 44.12 137.037 42.1629 139.358 42.1629C141.656 42.1629 143.438 44.1424 143.438 46.8222C143.461 49.502 141.661 51.4412 139.358 51.4412ZM183.24 31.5021H175.201V53.9998H178.563V45.4801H183.245C186.966 45.4801 190.624 42.7824 190.624 38.5001C190.624 34.2178 186.979 31.5021 183.24 31.5021ZM183.339 42.338H178.558V34.6173H183.339C185.857 34.6173 187.28 36.6956 187.28 38.4776C187.28 40.2417 185.839 42.338 183.339 42.338ZM204.099 39.1195C201.657 39.1195 199.139 40.2013 198.098 42.5579L201.078 43.7968C201.72 42.5579 202.896 42.136 204.14 42.136C205.881 42.136 207.641 43.1774 207.681 45.0357V45.2736C207.08 44.9325 205.76 44.4118 204.18 44.4118C200.962 44.4118 197.698 46.1714 197.698 49.4706C197.698 52.4915 200.338 54.4307 203.278 54.4307C205.536 54.4307 206.779 53.4117 207.556 52.2312H207.677V53.9728H210.918V45.3544C210.918 41.3415 207.937 39.1195 204.099 39.1195ZM203.677 51.4412C202.578 51.4412 201.038 50.9025 201.038 49.52C201.038 47.7783 202.959 47.1185 204.598 47.1185C206.079 47.1185 206.779 47.4372 207.659 47.8771C207.417 49.897 205.711 51.4232 203.677 51.4412ZM222.741 39.5998L218.881 49.3584H218.76L214.76 39.5998H211.142L217.144 53.2412L213.723 60.8227H217.224L226.458 39.5998H222.741ZM192.478 53.9998H195.84V31.5021H192.478V53.9998Z" fill="white"/>
<path fill-rule="evenodd" clip-rule="evenodd" d="M18.781 13.5607C18.2603 14.1217 17.9595 14.9791 17.9595 16.1013V55.9031C17.9595 57.0253 18.2603 57.8827 18.7989 58.4213L18.9381 58.5425L41.2382 36.2424V35.7441L18.9201 13.4395L18.781 13.5607Z" fill="url(#paint0_linear_11333_87518)"/>
<path fill-rule="evenodd" clip-rule="evenodd" d="M48.6581 43.6982L41.2202 36.2603V35.7396L48.6581 28.3018L48.8197 28.4005L57.6177 33.401C60.1359 34.8194 60.1359 37.1626 57.6177 38.599L48.8197 43.5995L48.6581 43.6982Z" fill="url(#paint1_linear_11333_87518)"/>
<path fill-rule="evenodd" clip-rule="evenodd" d="M48.8197 43.5995L41.2203 36L18.781 58.4393C19.6024 59.3191 20.9805 59.4179 22.5201 58.5605L48.8197 43.5995Z" fill="url(#paint2_linear_11333_87518)"/>
<path fill-rule="evenodd" clip-rule="evenodd" d="M48.8197 28.4004L22.5201 13.4617C20.9805 12.5819 19.5979 12.7031 18.781 13.5829L41.2203 35.9998L48.8197 28.4004Z" fill="url(#paint3_linear_11333_87518)"/>
<path opacity="0.2" fill-rule="evenodd" clip-rule="evenodd" d="M48.6582 43.438L22.5381 58.2778C21.0792 59.1172 19.7775 59.0589 18.9381 58.2958L18.7989 58.4349L18.9381 58.5561C19.7775 59.3147 21.0792 59.3776 22.5381 58.5382L48.8377 43.5996L48.6582 43.438Z" fill="black"/>
<path opacity="0.12" fill-rule="evenodd" clip-rule="evenodd" d="M57.6177 38.3386L48.6357 43.4379L48.7973 43.5995L57.5953 38.599C58.8566 37.8808 59.476 36.9382 59.476 36C59.3997 36.8618 58.7578 37.6788 57.6177 38.3386Z" fill="black"/>
<path opacity="0.25" fill-rule="evenodd" clip-rule="evenodd" d="M22.5201 13.7221L57.6177 33.6612C58.7579 34.3031 59.3998 35.1425 59.4985 35.9998C59.4985 35.0617 58.8791 34.119 57.6177 33.4008L22.5201 13.4618C20.0019 12.0209 17.9595 13.2239 17.9595 16.1012V16.3615C17.9595 13.4797 20.0019 12.2992 22.5201 13.7221Z" fill="white"/>
</g>
<defs>
<linearGradient id="paint0_linear_11333_87518" x1="39.2379" y1="15.6719" x2="3.51695" y2="25.1898" gradientUnits="userSpaceOnUse">
<stop stop-color="#00A0FF"/>
<stop offset="0.00657" stop-color="#00A1FF"/>
<stop offset="0.2601" stop-color="#00BEFF"/>
<stop offset="0.5122" stop-color="#00D2FF"/>
<stop offset="0.7604" stop-color="#00DFFF"/>
<stop offset="1" stop-color="#00E3FF"/>
</linearGradient>
<linearGradient id="paint1_linear_11333_87518" x1="60.9016" y1="36.0001" x2="17.3474" y2="36.0001" gradientUnits="userSpaceOnUse">
<stop stop-color="#FFE000"/>
<stop offset="0.4087" stop-color="#FFBD00"/>
<stop offset="0.7754" stop-color="#FFA500"/>
<stop offset="1" stop-color="#FF9C00"/>
</linearGradient>
<linearGradient id="paint2_linear_11333_87518" x1="44.6875" y1="40.1352" x2="16.0108" y2="88.4004" gradientUnits="userSpaceOnUse">
<stop stop-color="#FF3A44"/>
<stop offset="1" stop-color="#C31162"/>
</linearGradient>
<linearGradient id="paint3_linear_11333_87518" x1="13.1305" y1="0.321761" x2="25.9243" y2="21.8777" gradientUnits="userSpaceOnUse">
<stop stop-color="#32A071"/>
<stop offset="0.0685" stop-color="#2DA771"/>
<stop offset="0.4762" stop-color="#15CF74"/>
<stop offset="0.8009" stop-color="#06E775"/>
<stop offset="1" stop-color="#00F076"/>
</linearGradient>
<clipPath id="clip0_11333_87518">
<rect width="244" height="71.9997" fill="white"/>
</clipPath>
</defs>
</svg>
