<svg width="22" height="22" viewBox="0 0 22 22" fill="none" xmlns="http://www.w3.org/2000/svg">
<path fill-rule="evenodd" clip-rule="evenodd" d="M0 3C0 1.34315 1.34315 0 3 0H11C12.6569 0 14 1.34315 14 3V3.07089C14.3266 3.02417 14.6605 3 15 3C18.866 3 22 6.13401 22 10C22 13.4955 19.4379 16.3925 16.0893 16.9158L16.6785 17.9364C17.7213 19.7424 16.4179 22 14.3324 22H4.71164C2.62618 22 1.32277 19.7424 2.3655 17.9364L4.63816 14H3C1.34315 14 0 12.6569 0 11V3ZM13.7659 16.8916C11.0741 16.4128 8.91441 14.3954 8.22862 11.7811L4.09755 18.9364C3.82462 19.4091 4.16578 20 4.71164 20H14.3324C14.8783 20 15.2194 19.4091 14.9465 18.9364L13.7659 16.8916ZM8.13409 8.62958C8.56984 6.43418 10.0323 4.6084 12 3.67363V3C12 2.44772 11.5523 2 11 2H3C2.44772 2 2 2.44772 2 3V11C2 11.5523 2.44772 12 3 12H5.79286L7.17588 9.60455C7.41948 9.18261 7.7532 8.8561 8.13409 8.62958ZM10 10C10 7.23858 12.2386 5 15 5C17.7614 5 20 7.23858 20 10C20 12.7614 17.7614 15 15 15C12.2386 15 10 12.7614 10 10Z" fill="#505159"/>
</svg>
