<svg xmlns="http://www.w3.org/2000/svg" viewBox="0 0 27.601 26.815">
  <defs>
    <style>
      .cls-1 {
        fill: #535353;
      }
    </style>
  </defs>
  <g id="Group_3325" data-name="Group 3325" transform="translate(0 0.1)">
    <path id="Path_9461" data-name="Path 9461" class="cls-1" d="M120.987,79.49a3.062,3.062,0,0,1-.872,2.122.658.658,0,0,1-.474.189.684.684,0,0,1-.493-1.156,1.647,1.647,0,0,0,0-2.331.683.683,0,1,1,.966-.967A3.025,3.025,0,0,1,120.987,79.49Z" transform="translate(-96.408 -62.61)"/>
    <path id="Path_9462" data-name="Path 9462" class="cls-1" d="M50.65,47.95h0L48.3,45.6l.038.038Z" transform="translate(-39.147 -37.039)"/>
    <path id="Path_9463" data-name="Path 9463" class="cls-1" d="M42.065,19.661c-.133-.152-.265-.284-.4-.417l-4.226-4.226a2.444,2.444,0,0,0-2.918-.417l-3.184-3.184a2.677,2.677,0,0,0-3.752,0,2.539,2.539,0,0,0-.682,1.175,2.652,2.652,0,0,0-3.582,3.9l.152.152a2.651,2.651,0,0,0-1.819,3.278,2.721,2.721,0,0,0,.663,1.156l.455.455a2.575,2.575,0,0,0-1.156.682,2.654,2.654,0,0,0,0,3.733l6.671,6.671a9.544,9.544,0,0,0,6.728,2.8h.057a9.436,9.436,0,0,0,6.993-15.767ZM40.777,31.714a7.943,7.943,0,0,1-5.742,2.35,8.194,8.194,0,0,1-5.78-2.407L22.6,24.967a1.276,1.276,0,0,1-.379-.91,1.245,1.245,0,0,1,.379-.91,1.366,1.366,0,0,1,1.838,0l4.681,4.662a.664.664,0,0,0,.948-.057.692.692,0,0,0,0-.91L25.389,22.2,23.3,20.116a1.293,1.293,0,0,1,0-1.838,1.328,1.328,0,0,1,1.838,0l5.742,5.742a.663.663,0,0,0,.948,0,.681.681,0,0,0,0-.948h0L24.309,15.53a1.3,1.3,0,1,1,1.838-1.838l1.478,1.478,1.706,1.706,3.335,3.335a.683.683,0,0,0,.966-.966h0l-3.354-3.316L28.554,14.2a1.293,1.293,0,0,1,0-1.838,1.328,1.328,0,0,1,1.838,0l3.184,3.2a2.444,2.444,0,0,0,.417,2.918l1.743,1.743a3.792,3.792,0,0,0,.076,4.757c.019.019.019.038.038.038a.672.672,0,0,0,.91.038.685.685,0,0,0,.095-.948h0a2.428,2.428,0,0,1,.152-3.3l.076-.076a.67.67,0,0,0,.133-.948c-.019-.019-.038-.057-.057-.076l-2.217-2.2a1.117,1.117,0,0,1,1.554-1.554L40.7,20.192a3.418,3.418,0,0,1,.341.379A8.13,8.13,0,0,1,40.777,31.714Z" transform="translate(-16.899 -8.713)"/>
    <path id="Path_9464" data-name="Path 9464" class="cls-1" d="M120.987,79.49a3.062,3.062,0,0,1-.872,2.122.658.658,0,0,1-.474.189.684.684,0,0,1-.493-1.156,1.647,1.647,0,0,0,0-2.331.683.683,0,1,1,.966-.967A3.025,3.025,0,0,1,120.987,79.49Z" transform="translate(-96.408 -62.61)"/>
    <path id="Path_9465" data-name="Path 9465" class="cls-1" d="M102.313,15.8a.679.679,0,0,1-.682-.682,1.65,1.65,0,0,0-1.649-1.649.682.682,0,1,1,0-1.364h0A3.009,3.009,0,0,1,103,15.113a.668.668,0,0,1-.682.682Z" transform="translate(-80.482 -9.888)"/>
    <path id="Path_9466" data-name="Path 9466" class="cls-1" d="M105.193,5.775a.679.679,0,0,1-.682-.682,3.83,3.83,0,0,0-3.828-3.828.682.682,0,1,1,0-1.364,5.217,5.217,0,0,1,5.193,5.211h0a.664.664,0,0,1-.682.663Z" transform="translate(-81.049)"/>
    <path id="Path_9467" data-name="Path 9467" class="cls-1" d="M15.313,102.9A3.009,3.009,0,0,1,12.3,99.882a.682.682,0,0,1,1.364,0,1.65,1.65,0,0,0,1.649,1.649.679.679,0,0,1,.682.682A.7.7,0,0,1,15.313,102.9Z" transform="translate(-9.969 -80.482)"/>
    <path id="Path_9468" data-name="Path 9468" class="cls-1" d="M5.193,105.775A5.2,5.2,0,0,1,0,100.582a.682.682,0,0,1,1.364,0h0a3.846,3.846,0,0,0,3.828,3.847h.019a.679.679,0,0,1,.682.682A.705.705,0,0,1,5.193,105.775Z" transform="translate(0 -81.049)"/>
  </g>
</svg>
