<svg xmlns="http://www.w3.org/2000/svg" width="21.001" height="21.001" viewBox="0 0 21.001 21.001"><defs><style>.a{fill:#fff;stroke:rgba(0,0,0,0);stroke-miterlimit:10;}</style></defs><g transform="translate(-1329.791 -19.499)"><path class="a" d="M10368-12584v-10.268a10,10,0,0,1,10-9.733,9.989,9.989,0,0,1,10,10,10,10,0,0,1-9.914,10Zm3.8-16.356a8.814,8.814,0,0,0-2.688,6.111v9.157h8.955a8.963,8.963,0,0,0,8.821-8.911,8.884,8.884,0,0,0-8.888-8.889A8.768,8.768,0,0,0,10371.8-12600.356Zm4.526,12.061a1.088,1.088,0,0,1-.31-.825c0-.73.4-1.1,1.2-1.1a1.258,1.258,0,0,1,.9.288,1.052,1.052,0,0,1,.31.81,1.086,1.086,0,0,1-.313.819,1.227,1.227,0,0,1-.892.3A1.237,1.237,0,0,1,10376.326-12588.3Zm.025-3.147v-.465a2.5,2.5,0,0,1,.326-1.331,4.006,4.006,0,0,1,1.135-1.1,6.073,6.073,0,0,0,1.25-1.06,1.492,1.492,0,0,0,.281-.905,1.082,1.082,0,0,0-.455-.937,2.206,2.206,0,0,0-1.31-.328,5.035,5.035,0,0,0-1.43.2,10.69,10.69,0,0,0-1.284.475l-.684-1.281a7.835,7.835,0,0,1,3.536-.822,4.12,4.12,0,0,1,2.527.7,2.272,2.272,0,0,1,.937,1.927,2.455,2.455,0,0,1-.181.971,2.786,2.786,0,0,1-.54.813,8.5,8.5,0,0,1-1.247,1,4.581,4.581,0,0,0-1.012.88,1.557,1.557,0,0,0-.256.939v.325Z" transform="translate(-9037.71 12624)"/></g></svg>