<svg xmlns="http://www.w3.org/2000/svg" width="13.933" height="12" viewBox="0 0 13.933 12"><defs><style>.a{fill:#1a237e;}</style></defs><path class="a" d="M854.867,1117.333a5.733,5.733,0,0,1,4.267-1.733,6,6,0,0,1,4.267,1.733,5.632,5.632,0,0,1,1.733,4.267,6,6,0,0,1-1.733,4.267,5.632,5.632,0,0,1-4.267,1.733,5.735,5.735,0,0,1-4.2-1.733l.933-1a4.441,4.441,0,0,0,3.267,1.4,4.8,4.8,0,0,0,3.333-1.333,4.511,4.511,0,0,0,0-6.533,4.685,4.685,0,0,0-3.333-1.333,4.421,4.421,0,0,0-3.267,1.333,4.53,4.53,0,0,0-1.333,3.267h2l-2.667,2.667-.067-.067-2.6-2.6h2A5.488,5.488,0,0,1,854.867,1117.333Zm3.6,1.6h1v2.8l2.333,1.4-.533.8L858.4,1122.2v-3.267Z" transform="translate(-851.2 -1115.6)"/></svg>