<svg xmlns="http://www.w3.org/2000/svg" width="17.177" height="15" viewBox="0 0 17.177 15"><defs><style>.a{fill:#fff;}</style></defs><g transform="translate(-0.819 -4.83)"><path class="a" d="M17.891,11.455a.549.549,0,0,1-.769.124L9.409,6.031,1.7,11.579a.552.552,0,1,1-.645-.9L9.086,4.9h.019a.275.275,0,0,1,.047-.028l.05-.025h.047l.058-.017h.256l.055.019.041.019.055.03h.017l8.036,5.785a.551.551,0,0,1,.124.771Zm-2.27.033a.551.551,0,0,0-.551.551v6.689H11.951V15.37a2.543,2.543,0,1,0-5.085,0v3.358H3.747V12.039a.551.551,0,1,0-1.1,0v7.24a.551.551,0,0,0,.551.551h4.22a.551.551,0,0,0,.551-.551V15.37a1.441,1.441,0,0,1,2.882,0v3.909a.551.551,0,0,0,.551.551h4.22a.551.551,0,0,0,.551-.551v-7.24A.551.551,0,0,0,15.621,11.488Z"/></g></svg>