<svg xmlns="http://www.w3.org/2000/svg" width="48.541" height="48.541" viewBox="0 0 48.541 48.541">
  <path id="path364" d="M686.583,6885.28a13.255,13.255,0,0,0-13.239,13.238v22.064a13.255,13.255,0,0,0,13.239,13.238h22.064a13.255,13.255,0,0,0,13.239-13.238v-22.064a13.255,13.255,0,0,0-13.239-13.238Zm0,2.206h22.064a11.016,11.016,0,0,1,11.032,11.032v22.064a11.016,11.016,0,0,1-11.032,11.032H686.583a11.016,11.016,0,0,1-11.032-11.032v-22.064A11.016,11.016,0,0,1,686.583,6887.486Zm-3.734,14.415a1.276,1.276,0,1,0,1.349,1.28A1.283,1.283,0,0,0,682.849,6901.9Zm11.5.629c-4.015,0-6.535,2.812-6.535,7.33s2.472,7.339,6.535,7.339,6.516-2.84,6.516-7.339S698.38,6902.531,694.346,6902.53Zm14.264,0c-3.054,0-5.092,1.658-5.092,4.15,0,2.055,1.154,3.278,3.685,3.87l1.8.438c1.852.436,2.668,1.075,2.668,2.142,0,1.241-1.28,2.142-3.025,2.142-1.87,0-3.17-.843-3.355-2.17H703.14c.156,2.5,2.239,4.1,5.341,4.1,3.317,0,5.391-1.676,5.391-4.352,0-2.1-1.182-3.268-4.053-3.937l-1.541-.379c-1.823-.427-2.56-1-2.56-2,0-1.261,1.145-2.083,2.861-2.083,1.63,0,2.752.8,2.956,2.092h2.114c-.126-2.356-2.2-4.014-5.04-4.014Zm-14.264,2.025c2.657,0,4.3,2.057,4.3,5.305,0,3.228-1.64,5.314-4.3,5.314-2.685,0-4.314-2.085-4.314-5.314C690.032,6906.613,691.708,6904.557,694.346,6904.556Zm-12.534,1.748v10.558h2.075V6906.3Z" transform="translate(-673.344 -6885.28)" fill="#21276a" fill-rule="evenodd"/>
</svg>
