<svg width="20" height="22" viewBox="0 0 20 22" fill="none" xmlns="http://www.w3.org/2000/svg">
<path d="M15.8944 8.44722C16.1414 7.95324 15.9412 7.35257 15.4472 7.10558C14.9532 6.85859 14.3526 7.05881 14.1056 7.55279L12.3045 11.1549L10.0452 8.33069C9.54368 7.70382 8.56135 7.8079 8.20234 8.52592L6.79081 11.349L4.68377 12.0513C4.15983 12.226 3.87667 12.7923 4.05131 13.3162C4.22596 13.8402 4.79228 14.1233 5.31622 13.9487L7.77693 13.1285C8.05369 13.0362 8.28248 12.8378 8.41295 12.5768L9.36214 10.6785L11.6215 13.5027C12.123 14.1295 13.1053 14.0254 13.4643 13.3074L15.8944 8.44722Z" fill="#505159"/>
<path fill-rule="evenodd" clip-rule="evenodd" d="M8.00043 1.16085C9.23782 0.446646 10.7622 0.446647 11.9996 1.16085L17.5259 4.35056C18.7637 5.06503 19.5263 6.38567 19.5263 7.8149V14.1924C19.5263 15.6216 18.7637 16.9422 17.5259 17.6567L11.9996 20.8464C10.7622 21.5606 9.23781 21.5606 8.00042 20.8464L2.47414 17.6567C1.2363 16.9422 0.473724 15.6216 0.473724 14.1924V7.8149C0.473724 6.38567 1.2363 5.06503 2.47414 4.35056L8.00043 1.16085ZM10.9998 2.89303L16.5261 6.08273C17.145 6.43997 17.5263 7.10028 17.5263 7.8149V14.1924C17.5263 14.907 17.145 15.5673 16.5261 15.9245L10.9998 19.1142C10.3811 19.4714 9.61891 19.4714 9.00021 19.1142L3.47393 15.9245C2.85501 15.5673 2.47372 14.907 2.47372 14.1924V7.8149C2.47372 7.10029 2.85501 6.43996 3.47393 6.08273L9.00022 2.89303C9.61891 2.53592 10.3811 2.53592 10.9998 2.89303Z" fill="#505159"/>
</svg>
