<svg width="20" height="20" viewBox="0 0 20 20" fill="none" xmlns="http://www.w3.org/2000/svg">
<path fill-rule="evenodd" clip-rule="evenodd" d="M17.3066 2.57719C17.1835 2.24365 16.973 1.94934 16.6971 1.72509C16.4212 1.50084 16.0901 1.3549 15.7384 1.30256L7.15784 0.020481C6.80849 -0.0318724 6.45146 0.0166404 6.12876 0.160309C5.80606 0.303978 5.53112 0.536823 5.33631 0.831439L0.24983 8.50901C0.0884598 8.75385 0.00167722 9.04027 2.40666e-05 9.33348C-0.00162909 9.62669 0.0819183 9.91408 0.240517 10.1607L4.37154 16.546C4.70506 17.0621 5.21576 17.4386 5.80752 17.6046L14.1236 19.9499C14.4192 20.0334 14.7347 20.012 15.0163 19.8893C15.298 19.7666 15.5284 19.5501 15.6685 19.2768L19.7483 11.319C19.8927 11.037 19.977 10.7282 19.9959 10.412C20.0148 10.0958 19.9679 9.77912 19.8582 9.48197L17.3066 2.57719Z" fill="#E64556"/>
<path fill-rule="evenodd" clip-rule="evenodd" d="M13.2097 4.27168C13.7005 4.35548 13.8113 4.89643 13.4491 5.48207C13.3089 5.71281 13.1219 5.91169 12.9003 6.06594C12.6787 6.22019 12.4272 6.3264 12.1621 6.37775L9.8647 8.59369C9.80696 9.32178 8.84591 10.2203 8.12419 10.0638C7.30656 9.88694 7.84482 8.81994 8.26109 8.43075L8.10277 7.16636C8.01184 7.18488 7.91797 7.18348 7.82762 7.16227C7.73728 7.14105 7.6526 7.10052 7.57941 7.04346L5.75975 8.06298C5.5437 8.62814 4.77915 9.33389 4.15056 9.19795C3.70449 9.10484 3.63185 8.57041 3.98666 8.00898C4.14107 7.76729 4.34364 7.56001 4.58172 7.40006L4.95422 5.8936L4.90021 5.88522C4.45601 5.79956 4.38151 5.28282 4.73165 4.73163C4.91129 4.45165 5.15522 4.21863 5.44313 4.05195L5.85288 2.66932C5.52042 2.52966 5.47293 2.10043 5.80073 1.58369C5.94792 1.33232 6.1558 1.12186 6.40536 0.971567C6.65492 0.821274 6.9382 0.735946 7.22926 0.723389C7.67533 0.792288 7.76194 1.29413 7.41551 1.84067C7.2482 2.10045 7.02561 2.32012 6.76364 2.48403L6.33992 3.93557C6.63885 4.1013 6.65841 4.55193 6.35482 5.03143C6.23164 5.22449 6.07747 5.39594 5.89851 5.53886L5.49062 7.17288C5.52513 7.18274 5.55853 7.19616 5.59027 7.21292L7.55799 6.10867C7.58097 6.06398 7.60673 6.01867 7.63529 5.97274C7.78365 5.70836 8.00004 5.48848 8.26204 5.3359C8.52403 5.18332 8.82209 5.10359 9.12529 5.10498C9.59091 5.19064 9.68869 5.72228 9.33016 6.29302C9.21065 6.48163 9.06162 6.64981 8.88875 6.79114C8.94028 7.18778 8.9915 7.58472 9.04241 7.98198C9.14174 7.95619 9.24444 7.94583 9.34692 7.95125L11.472 5.90291C11.4584 5.63985 11.5328 5.37976 11.6834 5.16364C11.8361 4.89319 12.0578 4.66811 12.326 4.5114C12.5942 4.35469 12.8991 4.27196 13.2097 4.27168ZM17.1024 5.51186C17.3249 5.04633 17.6546 5.13943 17.8371 5.71576C18.0139 6.31787 17.9927 6.96082 17.7766 7.54996C17.5633 8.01084 17.2393 7.94753 17.0502 7.39727C16.8579 6.78042 16.8762 6.11713 17.1024 5.51186ZM17.7719 10.4465C17.9787 9.98936 18.2804 10.0275 18.4462 10.5173C18.6049 11.0643 18.582 11.6481 18.381 12.1811C18.1826 12.6289 17.8855 12.6224 17.7142 12.1532C17.5422 11.5937 17.5629 10.9928 17.7729 10.4465H17.7719ZM16.0845 10.0741C16.3108 9.589 16.6507 9.63462 16.8435 10.1588C17.0298 10.7367 17.0131 11.3608 16.796 11.9278C16.5799 12.4027 16.2456 12.3934 16.0463 11.8915C15.8433 11.3003 15.8569 10.6563 16.0845 10.0741ZM15.9346 14.5041C16.1544 14.019 16.4859 14.0134 16.6796 14.4752C16.8612 15.0168 16.8453 15.6052 16.6349 16.1363C16.4253 16.6092 16.0994 16.6474 15.9038 16.2079C15.709 15.6571 15.7226 15.054 15.942 14.5125L15.9346 14.5041ZM14.1326 13.1308C14.3747 12.615 14.7528 12.6261 14.9707 13.1373C15.1856 13.7189 15.177 14.3596 14.9465 14.9352C14.7156 15.438 14.3459 15.4631 14.1168 14.9789C13.8868 14.3859 13.8938 13.7271 14.1363 13.1392L14.1326 13.1308ZM12.2496 11.142C12.5178 10.5955 12.9462 10.6327 13.2069 11.2063C13.4594 11.8336 13.4594 12.5342 13.2069 13.1615C12.9527 13.6931 12.5327 13.6969 12.2645 13.155C12.1276 12.8373 12.0558 12.4954 12.0532 12.1495C12.0507 11.8036 12.1174 11.4607 12.2496 11.1411V11.142ZM10.4803 14.4734C11.0755 14.6715 11.5808 15.0748 11.906 15.6111C12.1574 16.085 11.9321 16.3402 11.4162 16.1921C10.8415 15.9934 10.352 15.6045 10.0286 15.0897C9.76412 14.614 9.95782 14.3328 10.4812 14.4724L10.4803 14.4734ZM10.8528 17.2051C11.3928 17.3963 11.8542 17.761 12.1649 18.2423C12.3949 18.6548 12.1854 18.8578 11.7086 18.7079C11.1865 18.5168 10.7387 18.1646 10.43 17.7023C10.1869 17.288 10.3676 17.0617 10.8528 17.2088V17.2051ZM7.82247 14.7173C8.37434 14.9139 8.84621 15.2866 9.16533 15.7778C9.42422 16.2173 9.25007 16.4547 8.78538 16.315C8.25349 16.1175 7.79733 15.7575 7.48163 15.2862C7.20878 14.8439 7.35405 14.5851 7.82433 14.7173H7.82247ZM6.91264 16.0003C7.42282 16.1925 7.86166 16.5367 8.16983 16.9863C8.42033 17.3867 8.26947 17.5934 7.84203 17.4518C7.34877 17.2621 6.92247 16.9311 6.6165 16.5003C6.35482 16.0971 6.48054 15.869 6.91264 16.0012V16.0003ZM4.23157 13.3002C4.76171 13.4985 5.21724 13.8563 5.53532 14.3244C5.8147 14.7601 5.69363 15.0059 5.26805 14.883C4.75397 14.6851 4.31093 14.3378 3.99597 13.8859C3.70263 13.4473 3.80041 13.1801 4.22971 13.2993L4.23157 13.3002ZM1.69671 10.4903C2.25433 10.6965 2.7316 11.0752 3.05913 11.5712C3.37203 12.0479 3.27425 12.3366 2.85053 12.223C2.31267 12.0179 1.85009 11.6538 1.52443 11.1793C1.1985 10.7007 1.26741 10.3888 1.69392 10.4931L1.69671 10.4903Z" fill="white"/>
</svg>
