<svg width="22" height="22" viewBox="0 0 22 22" fill="none" xmlns="http://www.w3.org/2000/svg">
<path fill-rule="evenodd" clip-rule="evenodd" d="M7.19654 9.99621C7.27835 9.99305 7.35965 9.98792 7.44041 9.98087L10.0788 14.5666C9.39888 15.5393 9 16.7231 9 18V20H1C0.447715 20 0 20.4477 0 21C0 21.5523 0.447715 22 1 22H21C21.5523 22 22 21.5523 22 21C22 20.4477 21.5523 20 21 20V18C21 15.2968 19.2124 13.0112 16.7548 12.2607L11.8891 6.05205C11.9618 5.71285 12 5.36089 12 5C12 2.23858 9.76142 0 7 0C4.23858 0 2 2.23858 2 5C2 5.55543 2.09057 6.0897 2.25773 6.58887L1.14597 8.17663C0.411005 9.22627 0.441727 10.583 1.1212 11.5836L0.212077 12.882C-0.1047 13.3344 0.00524759 13.9579 0.457653 14.2747C0.910058 14.5915 1.5336 14.4815 1.85038 14.0291L2.73267 12.7691C3.94051 13.1355 5.29756 12.7082 6.06088 11.6181L7.19654 9.99621ZM10 5C10 6.65685 8.65685 8 7 8C5.34315 8 4 6.65685 4 5C4 3.34315 5.34315 2 7 2C8.65685 2 10 3.34315 10 5ZM5.0335 9.59845C4.41017 9.33154 3.85206 8.94159 3.38969 8.45916L2.78427 9.32379C2.4675 9.77619 2.57744 10.3997 3.02985 10.7165C3.48225 11.0333 4.1058 10.9233 4.42258 10.4709L5.0335 9.59845ZM9.40484 9.38475L11.5407 13.097C12.2773 12.5764 13.1363 12.2176 14.0661 12.0722L10.9382 8.08102C10.5219 8.61245 10.0003 9.05748 9.40484 9.38475ZM19 18V20H11V18C11 15.7909 12.7909 14 15 14C17.2091 14 19 15.7909 19 18Z" fill="#505159"/>
</svg>
