<?xml version="1.0" encoding="UTF-8"?>
<!DOCTYPE svg PUBLIC "-//W3C//DTD SVG 1.1//EN" "http://www.w3.org/Graphics/SVG/1.1/DTD/svg11.dtd">
<!-- Creator: CorelDRAW -->
<svg xmlns="http://www.w3.org/2000/svg" xml:space="preserve" width="9.4419mm" height="8.4668mm" style="shape-rendering:geometricPrecision; text-rendering:geometricPrecision; image-rendering:optimizeQuality; fill-rule:evenodd; clip-rule:evenodd"
viewBox="0 0 2.41986 2.16995"
 xmlns:xlink="http://www.w3.org/1999/xlink">
 <defs>
  <style type="text/css">
   <![CDATA[
    .fil0 {fill:#156BB3}
   ]]>
  </style>
 </defs>
 <g id="Layer_x0020_1">
  <metadata id="CorelCorpID_0Corel-Layer"/>
  <path class="fil0" d="M0.0175302 0.826661l2.37047 -0.825277c0.0158899,-0.00551022 0.0318568,0.00633034 0.0318568,0.022861l0 2.12192c0,0.0147879 -0.0120712,0.0244756 -0.0263978,0.0237324l-2.3707 -0.114997c-0.0137627,-0.000691981 -0.0227585,-0.0117124 -0.0227585,-0.0250395l0 -1.18021c0,-0.0109435 0.00740676,-0.02017 0.0175302,-0.0229891zm0.263465 0.236145l0.81582 0.235274 0.841269 -0.691827c0.0217077,-0.017684 0.0531031,-0.0153005 0.0714534,0.00592028 0.0182222,0.0216821 0.0161718,0.0532825 -0.00543333,0.0717866l-0.86026 0.707486c-0.00643286,0.00607405 -0.0144035,0.0104053 -0.0230148,0.0125325 -0.00845754,0.00210157 -0.0176327,0.00207594 -0.0265259,-0.000461321l-0.841731 -0.242911c-0.0270641,-0.00779119 -0.0427234,-0.0361368 -0.034881,-0.0630728 0.00781682,-0.026936 0.0362649,-0.0424928 0.0633034,-0.0347272z"/>
 </g>
</svg>
