<svg xmlns="http://www.w3.org/2000/svg" width="106.001" height="106.001" viewBox="0 0 106.001 106.001"><defs><style>.a{fill:#ebebeb;stroke:rgba(0,0,0,0);stroke-miterlimit:10;}</style></defs><path class="a" d="M60.415-14281.589l0,0A52.363,52.363,0,0,1,42-14321.5a52.494,52.494,0,0,1,51.954-52.487c.184,0,.364-.015.545-.015a52.5,52.5,0,0,1,52.5,52.5,52.5,52.5,0,0,1-52.5,52.5A52.272,52.272,0,0,1,60.415-14281.589Zm34.085-4.2a35.717,35.717,0,0,0,35.717-35.714,35.718,35.718,0,0,0-35.717-35.717c-.18,0-.361.011-.545.011v0a35.709,35.709,0,0,0-35.172,35.7,35.622,35.622,0,0,0,12.427,27.063A35.552,35.552,0,0,0,94.5-14285.785Z" transform="translate(-41.501 14374.501)"/></svg>
