<svg xmlns="http://www.w3.org/2000/svg" width="18.642" height="20" viewBox="0 0 18.642 20"><defs><style>.a{fill:#fff;}.b{fill:#f4594e;}</style></defs><g transform="translate(-5.223 -2)"><path class="a" d="M19.329,11.49v5.057a.616.616,0,0,0,.042.208l1.124,2.373a.02.02,0,0,0,.021.021.275.275,0,0,1,0,.291.3.3,0,0,1-.271.146h-5.12a.531.531,0,0,0-.5.4,1.272,1.272,0,0,1-1.249,1,1.289,1.289,0,0,1-1.249-1,.513.513,0,0,0-.5-.4H6.53a.332.332,0,0,1-.271-.146.281.281,0,0,1,0-.291l.021-.021L7.4,16.776a.375.375,0,0,0,.042-.208v-5.6c0-3.122,1.707-5.494,4.329-6.015a.505.505,0,0,0,.354-.291l.708-1.644V3h1.124V3.02l.708,1.665a.505.505,0,0,0,.354.291c.062.021.146.042.208.062a4.747,4.747,0,0,1,.416-.937.49.49,0,0,0-.166-.042l-.52-1.394A.894.894,0,0,0,14.084,2h-1.27a.894.894,0,0,0-.874.666L11.358,4.04c-2.976.728-4.891,3.413-4.891,6.951v5.473L5.385,18.691a1.3,1.3,0,0,0,.021,1.29,1.311,1.311,0,0,0,1.124.645H11.3a2.3,2.3,0,0,0,4.2,0h4.766a1.309,1.309,0,0,0,1.145-1.935l-1.061-2.248V11.511c-.125,0-.25.021-.375.021A6.3,6.3,0,0,1,19.329,11.49Z"/><path class="b" d="M61.113,5.3a3.913,3.913,0,1,0,3.913,3.913A3.908,3.908,0,0,0,61.113,5.3Z" transform="translate(-41.159 -2.613)"/></g></svg>