<svg xmlns="http://www.w3.org/2000/svg" width="16.14" height="20" viewBox="0 0 16.14 20"><defs><style>.a{fill:#fff;}</style></defs><g transform="translate(-23.67 -15)"><path class="a" d="M39.652,31.309A7.4,7.4,0,0,1,38.408,27.2V24.11a6.941,6.941,0,0,0-3.888-6.255v-.078a2.777,2.777,0,1,0-5.555,0v.049a6.666,6.666,0,0,0-3.888,6.061V27.2a7.4,7.4,0,0,1-1.244,4.111.929.929,0,0,0-.162.522.949.949,0,0,0,.962.944h4.4a2.777,2.777,0,0,0,5.444,0h4.4a.944.944,0,0,0,.778-1.466Zm-7.91-15.2a1.669,1.669,0,0,1,1.633,1.333,6.444,6.444,0,0,0-1.511-.222,6.739,6.739,0,0,0-1.749.2,1.662,1.662,0,0,1,1.626-1.311Zm0,17.775a1.666,1.666,0,0,1-1.555-1.111H33.32A1.666,1.666,0,0,1,31.742,33.886Zm2.722-2.222H24.928a8.545,8.545,0,0,0,1.26-4.466V23.888a5.555,5.555,0,0,1,5.555-5.555h.107a5.268,5.268,0,0,1,2.666.782A5.835,5.835,0,0,1,37.3,24.11V27.2a8.546,8.546,0,0,0,1.262,4.466Z"/></g></svg>