<svg xmlns="http://www.w3.org/2000/svg" width="115.049" height="110" viewBox="0 0 115.049 110"><defs><style>.a{fill:#039493;}</style></defs><g transform="translate(-48 -45)"><path class="a" d="M184.277,66.052a3.068,3.068,0,0,0-4.443,0L120.487,125.4,97.8,102.549a3.142,3.142,0,1,0-4.443,4.443l24.913,24.913a3.068,3.068,0,0,0,4.443,0l61.41-61.41A3.21,3.21,0,0,0,184.277,66.052Z" transform="translate(-22.042 -9.468)"/><path class="a" d="M102.975,155a55.048,55.048,0,0,0,54.975-55,52.706,52.706,0,0,0-2.042-14.929,3.183,3.183,0,1,0-6.126,1.729,47.325,47.325,0,0,1,1.885,13.357,48.66,48.66,0,1,1-17.278-37.4,3.119,3.119,0,0,0,4.084-4.714A54.977,54.977,0,1,0,102.975,155Z" transform="translate(0)"/></g></svg>