<svg width="24" height="24" viewBox="0 0 24 24" fill="none" xmlns="http://www.w3.org/2000/svg">
<path fill-rule="evenodd" clip-rule="evenodd" d="M6 5C6 2.79086 7.79086 1 10 1H15H16C16.3322 1 16.6591 1.02315 16.979 1.06791L17 1.07089C19.9274 1.48963 22.2706 3.71963 22.8578 6.58926C22.8855 6.72479 22.9093 6.86174 22.9291 7C22.9758 7.3266 23 7.66048 23 8V9V11C23 11.5523 22.5523 12 22 12C21.4477 12 21 11.5523 21 11V9H18C16.3431 9 15 7.65685 15 6V3H10C8.89543 3 8 3.89543 8 5V11C8 11.5523 7.55228 12 7 12C6.44772 12 6 11.5523 6 11V5ZM17.0077 3.10158C18.9632 3.50173 20.5028 5.04343 20.9 7H18C17.4477 7 17 6.55228 17 6V3.10002L17.0077 3.10158ZM4.34483 13H1V23H3V20.25H4.34483C6.00168 20.25 7.34483 18.9069 7.34483 17.25V16C7.34483 14.3431 6.00168 13 4.34483 13ZM4.34483 18.25H3V15H4.34483C4.89711 15 5.34483 15.4477 5.34483 16V17.25C5.34483 17.8023 4.89711 18.25 4.34483 18.25ZM8.96552 13H12.3103C13.9672 13 15.3103 14.3431 15.3103 16V20C15.3103 21.6569 13.9672 23 12.3103 23H8.96552V13ZM10.9655 15V21H12.3103C12.8626 21 13.3103 20.5523 13.3103 20V16C13.3103 15.4477 12.8626 15 12.3103 15H10.9655ZM22.9999 13H16.931V23H18.931V19.25H22.2758V17.25H18.931V15H22.9999V13Z" fill="#E64556"/>
</svg>
