<svg xmlns="http://www.w3.org/2000/svg" width="20" height="20" viewBox="0 0 20 20"><defs><style>.a{fill:#1a237e;}</style></defs><path class="a" d="M448.5,526a9.506,9.506,0,0,1,7.1-2.9,9.9,9.9,0,0,1,7.1,2.9,9.356,9.356,0,0,1,2.9,7.1,9.9,9.9,0,0,1-2.9,7.1,9.356,9.356,0,0,1-7.1,2.9,9.9,9.9,0,0,1-7.1-2.9,10.141,10.141,0,0,1,0-14.2Zm1.4,12.7a7.73,7.73,0,0,0,5.6,2.4,7.568,7.568,0,0,0,5.6-2.4,8.146,8.146,0,0,0,2.4-5.6,7.568,7.568,0,0,0-2.4-5.6,8.146,8.146,0,0,0-5.6-2.4,7.568,7.568,0,0,0-5.6,2.4,8.146,8.146,0,0,0-2.4,5.6A7.73,7.73,0,0,0,449.9,538.7Zm6.6-10.7v4h4v2h-4v4h-2v-4h-4v-2h4v-4Z" transform="translate(-445.6 -523.1)"/></svg>