<svg xmlns="http://www.w3.org/2000/svg" width="54.278" height="51.192" viewBox="0 0 54.278 51.192"><defs><style>.a{fill:#1a237e;}.b{fill:#5b64c9;}.c{fill:#efefef;}.d{fill:#fff;font-size:10px;font-family:OpenSans, Open Sans;}</style></defs><g transform="translate(-339.536 -230.338)"><g transform="translate(339.536 232.398)"><path class="a" d="M466.117,336.929v7.441l2.153-1.8a2.019,2.019,0,0,0,.585-.792,4.029,4.029,0,0,0,.262-1.515Z" transform="translate(-415.633 -295.239)"/><path class="a" d="M346.977,235.4h-7.441l2-2.389a3.05,3.05,0,0,1,2.109-.611Z" transform="translate(-339.536 -232.398)"/><g transform="translate(3.197)"><path class="b" d="M351.924,234.279c.914.831,1.608,1.447,1.61,1.449Z" transform="translate(-350.18 -233.529)"/><path class="b" d="M351.922,234.277h0Z" transform="translate(-350.179 -233.528)"/><path class="b" d="M473.429,347.473c0,.012,0,.027-.006.039C473.424,347.5,473.427,347.489,473.429,347.473Z" transform="translate(-423.222 -301.578)"/><path class="b" d="M396.436,250.619l-21.255-17.331a3.873,3.873,0,0,0-2.471-.891H348.462a4.619,4.619,0,0,0-.91.086,2.192,2.192,0,0,1,1.743.663h0L396.927,276.6a1.937,1.937,0,0,1,.832,1.689,4.628,4.628,0,0,0,.08-.869h0V253.6A3.873,3.873,0,0,0,396.436,250.619Z" transform="translate(-347.552 -232.398)"/></g><g transform="translate(6.251 0)"><rect class="c" width="0.299" height="1.197" transform="translate(0 0.696) rotate(-48.021)"/><path class="c" d="M471.175,338.156l.889.8.093-.1v-.215l-.782-.7Z" transform="translate(-424.924 -295.843)"/><rect class="c" width="0.299" height="1.196" transform="translate(1.779 2.297) rotate(-48.023)"/><rect class="c" width="0.299" height="1.196" transform="translate(35.577 32.709) rotate(-48.029)"/><rect class="c" width="0.299" height="1.196" transform="translate(37.356 34.31) rotate(-48.009)"/><rect class="c" width="0.299" height="1.196" transform="translate(21.346 19.904) rotate(-48.009)"/><rect class="c" width="0.299" height="1.197" transform="translate(33.798 31.108) rotate(-48.028)"/><rect class="c" width="0.299" height="1.196" transform="matrix(0.669, -0.743, 0.743, 0.669, 19.567, 18.303)"/><rect class="c" width="0.299" height="1.196" transform="translate(39.135 35.91) rotate(-48.009)"/><rect class="c" width="0.299" height="1.197" transform="matrix(0.669, -0.743, 0.743, 0.669, 26.683, 24.706)"/><rect class="c" width="0.299" height="1.197" transform="matrix(0.669, -0.743, 0.743, 0.669, 32.019, 29.508)"/><rect class="c" width="0.299" height="1.196" transform="translate(28.462 26.306) rotate(-48.015)"/><rect class="c" width="0.299" height="1.196" transform="translate(30.241 27.907) rotate(-48.008)"/><rect class="c" width="0.299" height="1.196" transform="matrix(0.669, -0.743, 0.743, 0.669, 17.789, 16.703)"/><rect class="c" width="0.299" height="1.197" transform="translate(23.125 21.505) rotate(-48.028)"/><rect class="c" width="0.299" height="1.196" transform="translate(10.673 10.3) rotate(-48.016)"/><rect class="c" width="0.299" height="1.197" transform="matrix(0.669, -0.743, 0.743, 0.669, 16.01, 15.102)"/><rect class="c" width="0.299" height="1.197" transform="translate(8.894 8.699) rotate(-48.016)"/><rect class="c" width="0.299" height="1.196" transform="matrix(0.669, -0.743, 0.743, 0.669, 7.115, 7.099)"/><rect class="c" width="0.299" height="1.197" transform="matrix(0.669, -0.743, 0.743, 0.669, 44.471, 40.712)"/><rect class="c" width="0.299" height="1.197" transform="matrix(0.669, -0.743, 0.743, 0.669, 42.692, 39.112)"/><rect class="c" width="0.299" height="1.197" transform="matrix(0.669, -0.743, 0.743, 0.669, 5.337, 5.498)"/><rect class="c" width="0.299" height="1.197" transform="matrix(0.669, -0.743, 0.743, 0.669, 14.231, 13.501)"/><rect class="c" width="0.299" height="1.197" transform="translate(40.914 37.511) rotate(-48.026)"/><rect class="c" width="0.299" height="1.197" transform="translate(3.558 3.897) rotate(-48.016)"/><rect class="c" width="0.299" height="1.197" transform="translate(12.452 11.901) rotate(-48.026)"/><rect class="c" width="0.299" height="1.197" transform="translate(24.904 23.105) rotate(-48.021)"/><rect class="c" width="0.299" height="1.197" transform="translate(26.148 4.049) rotate(-50.369)"/><rect class="c" width="0.299" height="1.197" transform="matrix(0.638, -0.77, 0.77, 0.638, 27.991, 5.575)"/><rect class="c" width="0.299" height="1.197" transform="translate(40.892 16.259) rotate(-50.37)"/><rect class="c" width="0.299" height="1.197" transform="translate(44.578 19.312) rotate(-50.371)"/><path class="c" d="M471.565,284.325a4.276,4.276,0,0,1,.72.9l.107-.064v-.3a4.586,4.586,0,0,0-.62-.748Z" transform="translate(-425.159 -263.485)"/><path class="c" d="M408.986,232.4l0,0h-.469l.281.233Z" transform="translate(-387.254 -232.398)"/><rect class="c" width="0.299" height="1.197" transform="translate(42.735 17.786) rotate(-50.369)"/><rect class="c" width="0.299" height="1.196" transform="matrix(0.638, -0.77, 0.77, 0.638, 33.52, 10.154)"/><rect class="c" width="0.299" height="1.196" transform="matrix(0.638, -0.77, 0.77, 0.638, 29.834, 7.101)"/><rect class="c" width="0.299" height="1.196" transform="matrix(0.638, -0.77, 0.77, 0.638, 22.462, 0.996)"/><rect class="c" width="0.299" height="1.196" transform="matrix(0.638, -0.77, 0.77, 0.638, 31.677, 8.628)"/><rect class="c" width="0.299" height="1.197" transform="translate(24.305 2.522) rotate(-50.37)"/><rect class="c" width="0.299" height="1.196" transform="matrix(0.638, -0.77, 0.77, 0.638, 39.049, 14.733)"/><rect class="c" width="0.299" height="1.196" transform="matrix(0.638, -0.77, 0.77, 0.638, 37.206, 13.207)"/><rect class="c" width="0.299" height="1.196" transform="matrix(0.638, -0.77, 0.77, 0.638, 35.363, 11.681)"/></g></g><text class="d" transform="translate(372.25 251.091) rotate(40.89)"><tspan x="-18.25" y="0">Popular</tspan></text></g></svg>