<svg xmlns="http://www.w3.org/2000/svg" width="158.504" height="105.936" viewBox="0 0 158.504 105.936"><defs><style>.a{opacity:0.4;}.b{fill:#757575;}.c{fill:#bfbfbf;}.d{fill:#6859b4;}.e{fill:#fefefe;}.f{fill:#5b64c9;}.g{fill:#75d835;}.h{fill:#7c6ec2;}.i{fill:#7fdb43;}.j{fill:#79d93b;}.k{fill:#78d939;}.l{fill:#e4f7d8;}.m{fill:#e9f8e0;}.n{fill:none;stroke:#bfbfbf;stroke-linecap:round;stroke-miterlimit:10;}</style></defs><g class="a" transform="translate(0.142 0.195)"><path class="b" d="M33.927,83.93c-1.9-.758-3.876-.337-5.814-.295-1.6.042-2.612-.337-2.528-2.107.042-1.685-.843-2.191-2.4-1.98-1.475.211-2.191-.169-2.444-1.938-2.149-17.4-2.823-34.8.59-52.115.295-1.432.8-1.9,2.317-1.9,14.746.084,29.449.084,44.195,0,1.685,0,2.149.463,1.475,1.98-.885,2.107.126,2.486,1.98,2.275a28.437,28.437,0,0,1,3.286,0c-.379,1.812-.632,3.455-1.011,5.1-.379,1.6-.169,2.612,1.812,2.233a6.336,6.336,0,0,1,1.264,0h70.526c1.6,0,3.244-.169,4.719.758,0,.548-.379.674-.758.843a14.25,14.25,0,0,1-3.792.211H77.026c-1.727,0-3.5-.126-3.75,2.275a1.244,1.244,0,0,0,1.348,1.475c.716.042,1.39.042,2.107.042h68.63c2.907.042,3.286.379,3.286,3.286v60.836c0,2.781-.379,3.2-3.16,3.2H42.1a7.225,7.225,0,0,1-1.9-.169,1.5,1.5,0,0,1-.674-.506,3.123,3.123,0,0,1-.337-1.643c0-6.109-.042-12.218,0-18.327a2.711,2.711,0,0,1,.211-1.011,1,1,0,0,1,.59-.506,1.151,1.151,0,0,1,.59.59c.59,2.444.253,4.887.295,7.331.042,3.37,0,6.741.042,10.111.042,2.191.253,2.444,2.444,2.444,6.825.084,13.608.084,20.433.084q39.876.063,79.795.042c3.455,0,3.455,0,3.455-3.539V63.834c-.126-6.109-.042-12.218-.084-18.285,0-2.907-.084-2.991-2.907-2.991H76.1c-2.991,0-2.907.042-3.244,2.991-.716,6.151-.253,12.3-.126,18.5.169,2.57.506,5.1.843,7.668.253,1.306-.084,2.612.337,3.876.169,1.432.506,2.823.632,4.255.042,1.138.59,2.233.169,3.37a1.67,1.67,0,0,1-1.727.969c-4.676.084-9.353.042-13.987.084a2.351,2.351,0,0,1-1.39-.421.843.843,0,0,1-.169-1.1,4.171,4.171,0,0,1,2.823-.59c3.244-.042,6.446,0,9.69,0,2.738,0,2.781-.126,2.444-2.7A173.606,173.606,0,0,1,70.37,51.827a132.96,132.96,0,0,1,1.9-19.633c.421-2.4.295-2.612-2.107-2.612-13.524,0-27.09,0-40.613-.042-1.938,0-2.781.716-3.076,2.57-.8,4.971-1.264,9.985-1.685,15.04-.843,10.7.463,21.276,1.812,31.85.421,3.2.506,3.118,3.665,3.2,4.466.084,8.974-.295,13.44.253a1.272,1.272,0,0,1,.927,1.432c-1.264,1.011-2.738.084-4.087.506a6.313,6.313,0,0,1-.927-.084,3.188,3.188,0,0,1-.632-.042c-1.222-.042-2.444,0-3.665-.042h-.59A1.259,1.259,0,0,0,33.927,83.93Z" transform="translate(-10.677 -13.368)"/><path class="c" d="M165.537,242.518c1.517,1.222,3.623,1.306,5.561,2.781H22.8c2.107-1.6,4.676-1.769,6.614-3.16,1.306-.927,2.738-.253,4.044-.126a104.524,104.524,0,0,0,10.87.674q54.158.126,108.359,0a82.3,82.3,0,0,0,10.659-.674A2.29,2.29,0,0,1,165.537,242.518Z" transform="translate(-12.905 -139.557)"/><path class="b" d="M40.785,102.575c.211.042.379.042.59.084.632.843.421,1.769.463,2.7.126,6.825.042,13.608.084,20.433,0,2.949.126,3.076,3.076,3.076H88.392a10.705,10.705,0,0,1,5.9,1.264,6.018,6.018,0,0,0,2.823.758q5.688.253,11.375,0a4.914,4.914,0,0,0,2.444-.632c2.064-1.348,4.339-1.39,6.7-1.39,12.765.042,25.531,0,38.338,0,3.286,0,3.5-.169,3.5-3.413V61.246c0-1.264-.295-2.528-.169-3.792.126-.421.253-.8.8-.758a5.634,5.634,0,0,1,.8,3.413v66.861c0,2.738-.042,2.738,2.738,2.738,3.16,0,6.32-.042,9.479.042.758,0,1.98-.548,2.106.632.169,1.222.632,2.7-.758,3.665a1.949,1.949,0,0,1-1.348.548c-.379-.211-1.18-.084-.758-.927.295-.548,1.18-.843.885-1.559-.337-.8-1.18-.59-1.854-.59-18.748,0-37.5-.042-56.244,0a6.01,6.01,0,0,0-2.275.379,30.358,30.358,0,0,1-20.6-.084,7.044,7.044,0,0,0-2.275-.295H34.381c-2.359,0-2.486.211-1.559,2.106.337.843-.337.758-.8.927A3.506,3.506,0,0,1,30.21,130.3c.337-.758,1.053-.59,1.643-.59,2.317-.042,4.634-.084,6.951,0,1.306.042,1.6-.421,1.559-1.685-.042-7.626,0-15.251.042-22.877C40.912,104.345,40.237,103.376,40.785,102.575Z" transform="translate(-17.071 -32.518)"/><path class="b" d="M34.7,240.241a9.015,9.015,0,0,0,.927-.421,2.657,2.657,0,0,1,2.317-.295,68.323,68.323,0,0,0,12.765.969q54.538.19,109.075,0a66.213,66.213,0,0,0,13.187-.969,2.024,2.024,0,0,1,1.938.379,8.435,8.435,0,0,1,.885.421c-1.138.295-2.233.59-3.37.927-38.423,1.769-76.888.421-115.352.8a131.823,131.823,0,0,1-20.77-1.18C35.8,240.621,35.248,240.452,34.7,240.241Z" transform="translate(-19.791 -138.25)"/><path class="b" d="M335.433,54.443c-.168.169-.295.379-.463.548a1.9,1.9,0,0,1-1.769-1.727c.168-.169.379-.295.548-.463A2.822,2.822,0,0,1,335.433,54.443Z" transform="translate(-192.533 -30.266)"/><path class="d" d="M54.963,165.6c-.126.843.337,1.812-.421,2.528,0-.674-.042-1.348-.042-2.022A5.048,5.048,0,0,1,54.963,165.6Z" transform="translate(-31.25 -95.543)"/><path class="e" d="M131.53,125.572c-.674-2.486-.59-5.056-.885-7.583.169-.927.969-.927,1.6-1.053a16.9,16.9,0,0,1,2.528-.084h67.071c1.306,0,2.7-.253,3.876.59a3.466,3.466,0,0,1,.169,1.854c0,13.1-.042,26.247.042,39.35,0,1.643-.379,2.106-2.064,2.106q-40.7-.063-81.4,0c-1.475,0-2.486-.253-2.486-1.938,0-6.109-.253-12.176.126-18.285a2.027,2.027,0,0,1,.337-.674c2.233-1.1,4.592-.421,6.909-.548,1.222-.084,2.191-.253,2.486-1.6a3.926,3.926,0,0,1,1.854-.084c1.138.126,1.39-.548,1.475-1.432.885-.927,2.064-.716,3.16-.716,6.951-.042,13.9,0,20.812-.042.8,0,1.685.253,2.444-.421a4.629,4.629,0,0,0-2.7-.337c-7.078,0-14.156,0-21.234-.042-1.137,0-2.444.253-3.2-1.053-.168-1.39-.337-2.781-.506-4.129-.211-2.064,0-2.359,2.233-2.4,4.971-.084,9.943,0,14.914-.042a6,6,0,0,0,2.654-.337,3.951,3.951,0,0,0-2.528-.421h-14.7A4.227,4.227,0,0,1,131.53,125.572Z" transform="translate(-69.099 -67.312)"/><path class="e" d="M50.922,89.8c-5.266,0-10.533-.042-15.8,0-1.222,0-1.812-.253-2.064-1.643a159.65,159.65,0,0,1-1.98-37.5,97.625,97.625,0,0,1,1.9-13.524c.253-1.138.716-1.432,1.812-1.432q21.992.063,43.984,0c1.18,0,1.517.126,1.264,1.517-3.076,15.083-2.823,30.207-.716,45.416.253,1.854.463,3.75.843,5.6.253,1.264-.126,1.6-1.348,1.6-4.845-.042-9.69,0-14.535,0-.969-.506-1.053-1.6-1.559-2.4a6.5,6.5,0,0,0-7.92-2.949A4.769,4.769,0,0,0,51.891,87.6,3.565,3.565,0,0,1,50.922,89.8Z" transform="translate(-17.476 -20.37)"/><path class="f" d="M220.011,88.5c-11.628,0-23.256-.042-34.884-.042H147.294c-.8,0-1.685-.379-2.359.463-.463-4.761-.253-9.564-.337-14.324-.042-2.233.674-4.424.463-6.7-.126-1.011.463-1.348,1.432-1.306.421.042.843,0,1.264,0H217.82c2.7,0,2.7,0,2.7,2.781V88.5C220.263,88.714,220.137,88.714,220.011,88.5Z" transform="translate(-83.388 -38.247)"/><path class="e" d="M172.955,53.337c.59.59,1.18,1.138,1.769,1.727a14.273,14.273,0,0,1,.421,3.539v65.47c0,3.413,0,3.413-3.5,3.413H130.362a11.048,11.048,0,0,0-3.328.843,30.237,30.237,0,0,1-18.327,0,11.408,11.408,0,0,0-3.581-.843c-15.462,0-30.881-.042-46.343.042-1.98,0-2.528-.632-2.486-2.486.084-7.373.084-14.746.126-22.118a4.436,4.436,0,0,1,4.719-.042c.295,6.4.042,12.85.126,19.253a4.04,4.04,0,0,0,.211,2.233h0a4.189,4.189,0,0,0,2.275.211H167.563c2.4,0,2.4,0,2.4-2.359V60.331c0-2.317,0-2.317-2.444-2.317H96.152c-1.348,0-2.486-.042-1.9-1.9C94.72,53,94.72,53,97.8,53h71.621C170.6,53.126,171.776,53.295,172.955,53.337Z" transform="translate(-32.288 -30.382)"/><path class="f" d="M176.608,118.562a.5.5,0,0,1,.421.042c0,13.734-.042,27.511.042,41.245,0,1.685-.463,2.107-2.107,2.107-15.42-.042-30.881-.042-46.3-.042q-28.438,0-56.834.084c-1.685,0-2.275-.379-2.233-2.191.126-6.32.084-12.639.126-18.916,1.306-.885,2.359-.463,3.16.758a11.968,11.968,0,0,0,2.064,2.317c2.233,1.9,4.676,1.9,7.457.042,1.812-.758,2.907-2.486,4.55-3.539,1.559-.126,3.16-.59,4.592.421,0,6.235.042,12.471-.042,18.706,0,1.432.379,1.938,1.9,1.938q40.7-.063,81.438,0c1.812,0,1.854-.843,1.854-2.191C176.608,145.778,176.608,132.17,176.608,118.562Z" transform="translate(-39.985 -68.306)"/><path class="e" d="M46.734,25.575c7.036,0,14.029-.042,21.065.042.674,0,2.064-.674,1.9,1.011-.126,1.222-.169,2.359-2.107,2.359-12.639-.084-25.278,0-37.875-.084-1.938,0-2.781.421-3.16,2.486A128.3,128.3,0,0,0,24.489,60.88c.295,5.73.885,11.459,1.517,17.189.084.632.885,1.685-.59,1.727-1.053.042-2.486.632-2.654-1.348-.253-2.991-.8-5.982-.969-8.974-.59-8.805-1.18-17.653-.506-26.5.421-5.393,1.18-10.7,2.107-16.052.253-1.475,1.18-1.306,2.149-1.306C32.536,25.575,39.656,25.575,46.734,25.575Z" transform="translate(-11.856 -14.458)"/><path class="g" d="M91.76,158.437a7.012,7.012,0,0,1-3.834,3.455c-3.834,1.812-9.227-1.643-8.974-5.688-.084-.295-.169-.632-.253-.927.674-4.213,2.4-6.151,5.688-6.4,3.118-.253,6.235,2.022,7.373,5.435.126.337.253.674.337.969,0,.253.042.548.042.8C92.856,157,92.434,157.763,91.76,158.437Z" transform="translate(-45.254 -85.853)"/><path class="b" d="M101.435,60.7c-.295,1.854.927,1.727,2.191,1.727,23.719,0,47.439.042,71.158-.084,2.233,0,2.612.632,2.612,2.7q-.126,30.966,0,61.889c0,1.812-.379,2.359-2.275,2.359q-52.2-.063-104.441-.042c-.674,0-1.432.295-1.98-.337H174.194c2.738,0,2.738,0,2.738-2.7V65.545c0-2.781,0-2.781-2.907-2.781H103.289C101.856,62.764,100.34,62.891,101.435,60.7Z" transform="translate(-39.467 -34.838)"/><path class="c" d="M149.7,156.6a4.109,4.109,0,0,0,2.654.421c7.92,0,15.841,0,23.719.042.843,0,2.233-.59,2.149,1.1-.042,1.517-1.306.969-2.107.969-7.752.042-15.546,0-23.3.042-.8,0-1.685-.295-2.4.421-.126.168-.253.168-.337-.042C149.995,158.58,149.868,157.569,149.7,156.6Z" transform="translate(-86.342 -90.335)"/><path class="c" d="M147.5,137.518h19.591c.758,0,1.854-.421,1.9.969.042,1.517-1.18,1.1-1.98,1.1-5.772.042-11.5.042-17.273,0-1.348,0-1.98.421-1.854,1.769C147.287,140.172,147.582,138.824,147.5,137.518Z" transform="translate(-85.067 -79.257)"/><path class="c" d="M73.079,165.995c1.6,4.466,4.55,6.362,8.974,5.688-2.949,2.7-7.078,2.064-9.774-1.812-.885-1.264-1.727-1.854-3.16-1.643l-.169.042a1.528,1.528,0,0,1,.084-2.149A7.318,7.318,0,0,1,73.079,165.995Z" transform="translate(-39.38 -95.643)"/><path class="c" d="M126.915,163.6c.126,0,.211.042.337.042.126.885-.253,1.306-1.18,1.264-.716-.042-1.39.042-2.107.042-1.98,1.1-4.087.421-6.151.506-1.348.042-2.486.295-3.2,1.517H109.6c.126-.8.295-1.6.421-2.4,5.014-.042,10.069-.042,15.083-.084C125.862,164.485,126.789,164.78,126.915,163.6Z" transform="translate(-63.136 -94.386)"/><path class="c" d="M61.167,168.244H56.491a5.311,5.311,0,0,1,.126-2.444h4.339A1.778,1.778,0,0,1,61.167,168.244Z" transform="translate(-32.356 -95.659)"/><path class="h" d="M67.469,168.186a4.8,4.8,0,0,0-.169-2.444c.211,0,.379-.042.59-.042a3.865,3.865,0,0,1,.042,2.486c0,7.162-.042,14.324-.042,21.486-.59-.674-.295-1.475-.295-2.191C67.511,181.035,67.469,174.589,67.469,168.186Z" transform="translate(-38.657 -95.601)"/><path class="d" d="M68.642,168.086c0-.843-.042-1.643-.042-2.486a3.972,3.972,0,0,0,.421.421c-.042.716-.042,1.432-.084,2.149C68.853,168.128,68.726,168.128,68.642,168.086Z" transform="translate(-39.409 -95.543)"/><path class="e" d="M173.578,235.493c-.506,0-1.053.042-1.559.042a113.074,113.074,0,0,1-13.608.548q-54.474.126-108.991,0a115.045,115.045,0,0,1-13.187-.548l-1.9-.126c-.379-.211-.716-.379-1.1-.59-1.011-.463-.885-1.348-.758-2.191.126-.927.969-.674,1.517-.674,2.823-.042,5.6,0,8.426,0h49.04a7.918,7.918,0,0,1,3.2.758c3.665,1.685,7.668,1.517,11.586,1.348,2.823-.126,5.772-.126,8.3-1.854a4.371,4.371,0,0,1,2.275-.253c18.748,0,37.454-.042,56.2.042.927,0,2.359-.885,2.781.885C176.148,234.693,174.589,234.9,173.578,235.493Z" transform="translate(-18.46 -133.838)"/><path class="c" d="M41.4,240.642c1.18,0,2.4-.042,3.581-.042H176.174c.337,0,.716.042,1.053.042-4.339,1.1-8.763,1.053-13.145,1.1q-54.854.19-109.707,0C50.037,241.737,45.655,241.78,41.4,240.642Z" transform="translate(-23.669 -138.945)"/><path class="c" d="M150.261,201.639H137.622c-.8,0-2.022.463-2.022-1.1,0-1.39,1.137-1.011,1.9-1.011q12.829-.063,25.657,0c.758,0,1.854-.379,1.9.969.042,1.517-1.18,1.1-1.98,1.1C158.814,201.681,154.516,201.639,150.261,201.639Z" transform="translate(-78.182 -115.151)"/><path class="c" d="M145.978,180.7h-8.595c-.716,0-1.643.211-1.685-1.011-.042-1.18.8-1.1,1.559-1.1H155.12c.758,0,1.643-.084,1.6,1.1-.042,1.222-.969,1.011-1.685,1.011Z" transform="translate(-78.238 -103.064)"/><path class="i" d="M290.952,199h4.592c.758,0,1.138.211,1.18,1.053,0,.885-.253,1.264-1.18,1.264q-4.613-.063-9.227,0c-.758,0-1.18-.211-1.222-1.053-.042-.885.337-1.264,1.222-1.264Z" transform="translate(-164.693 -114.872)"/><path class="j" d="M291.052,139.491H286.46c-.843,0-1.306-.253-1.264-1.18.042-.885.548-1.011,1.222-1.011H295.6c.758,0,1.138.253,1.138,1.1,0,.8-.295,1.138-1.1,1.1C294.128,139.449,292.611,139.491,291.052,139.491Z" transform="translate(-164.752 -79.166)"/><path class="k" d="M291.1,157.693c1.475,0,2.907.042,4.382,0,.843-.042,1.306.169,1.264,1.138,0,.885-.421,1.053-1.18,1.053H286.38c-.716,0-1.18-.169-1.18-1.011,0-.969.463-1.18,1.306-1.137C288.065,157.735,289.582,157.693,291.1,157.693Z" transform="translate(-164.755 -90.964)"/><path class="g" d="M291.11,180.649h-4.592c-.674,0-1.222-.042-1.222-.969-.042-.927.379-1.18,1.264-1.18q4.613.063,9.227,0c.8,0,1.1.253,1.1,1.1s-.337,1.1-1.138,1.053Z" transform="translate(-164.809 -103.008)"/><path class="c" d="M121.526,168.685c-.253-1.6.379-2.233,2.064-2.107,2.444.168,4.845.084,7.289.084.716,1.559.169,2.106-1.475,2.064C126.75,168.643,124.138,168.685,121.526,168.685Z" transform="translate(-70.007 -96.1)"/><path class="c" d="M60.425,95.516h16.22c.758,0,2.022-.379,2.064.758.042,1.222-1.222.885-1.98.885H43.868c-.716-.084-1.812.211-1.769-.885.042-1.053,1.138-.716,1.9-.8.421-.042.843,0,1.264,0C50.314,95.516,55.369,95.516,60.425,95.516Z" transform="translate(-24.072 -54.951)"/><path class="c" d="M60.272,87.285H44.263c-.758,0-2.022.379-2.064-.758-.042-1.222,1.222-.885,1.98-.885H77.251c.674.042,1.643-.126,1.559.885-.042.927-1.011.758-1.685.8-.421.042-.843,0-1.264,0C70.636,87.285,65.454,87.285,60.272,87.285Z" transform="translate(-24.13 -49.247)"/><path class="c" d="M60.327,107.5h16.81c.548,0,1.517-.295,1.559.548.042,1.053-1.011.674-1.6.674-11.122.042-22.287.042-33.409,0-.632,0-1.685.379-1.685-.632.042-.969,1.1-.59,1.727-.59Z" transform="translate(-24.016 -61.878)"/><path class="c" d="M58.711,117.527c3.2,0,6.446-.042,9.648.042.632,0,1.727-.421,1.727.506,0,1.011-1.138.716-1.854.716-4,.042-7.963,0-11.965,0-2.528,0-5.056.042-7.541,0-.632,0-1.685.379-1.727-.59-.042-1.053,1.053-.632,1.643-.632C52.012,117.527,55.382,117.527,58.711,117.527Z" transform="translate(-26.908 -67.692)"/><path class="c" d="M54.16,49.343h-5.9c-.59,0-1.222-.084-1.264-.8-.042-.758.632-.843,1.18-.843H59.931c.59,0,1.18.126,1.1.927s-.716.758-1.264.758C57.951,49.343,56.055,49.343,54.16,49.343Z" transform="translate(-26.907 -27.315)"/><path class="c" d="M48.615,60.922h-3.75c-.421,0-.885,0-.969-.548-.042-.59.421-.674.843-.674h7.752c.421,0,.885.084.843.674-.042.548-.506.59-.927.59C51.143,60.922,49.879,60.922,48.615,60.922Z" transform="translate(-25.112 -34.259)"/><path class="e" d="M213.371,92a5.657,5.657,0,0,1-5.772-5.688,5.791,5.791,0,0,1,5.9-5.814,5.886,5.886,0,0,1,5.814,5.688A5.776,5.776,0,0,1,213.371,92Z" transform="translate(-119.848 -46.296)"/><path class="l" d="M94.8,163.269a3.238,3.238,0,0,1,1.475-1.769,3.721,3.721,0,0,1-1.053,2.275C94.884,163.733,94.884,163.48,94.8,163.269Z" transform="translate(-54.571 -93.17)"/><path class="m" d="M93.173,165.7a4.465,4.465,0,0,0,.421.506c-.169.674-.59.843-1.222.674-.169-.042-.421-.295-.379-.421C92.078,165.784,92.963,166.248,93.173,165.7Z" transform="translate(-52.944 -95.601)"/><path class="c" d="M217.4,98.6h3.5C219.549,99.822,218.453,99.316,217.4,98.6Z" transform="translate(-125.52 -56.77)"/><path class="c" d="M228.664,94.968c-.716.716-1.264.463-2.064.295C227.274,94.463,227.864,94.547,228.664,94.968Z" transform="translate(-130.844 -54.487)"/><path class="c" d="M213.738,95.177a1.4,1.4,0,0,1-1.938-.169C212.516,94.587,213.064,94.418,213.738,95.177Z" transform="translate(-122.279 -54.484)"/><line class="n" x2="5.94" y2="2.191" transform="translate(0.5 10.232)"/><line class="n" x2="4.676" y2="6.867" transform="translate(4.418 0.5)"/><line class="n" x1="2.191" y2="5.182" transform="translate(15.077 1.048)"/></g></svg>