<svg width="36" height="36" viewBox="0 0 36 36" fill="none" xmlns="http://www.w3.org/2000/svg">
<path d="M0 5C0 2.23858 2.23858 0 5 0H31C33.7614 0 36 2.23858 36 5V31C36 33.7614 33.7614 36 31 36H5C2.23858 36 0 33.7614 0 31V5Z" fill="#CBCFD2"/>
<path fill-rule="evenodd" clip-rule="evenodd" d="M21.0893 12.4107C21.4148 12.7362 21.4148 13.2638 21.0893 13.5893L16.6786 18L21.0893 22.4108C21.4148 22.7362 21.4148 23.2638 21.0893 23.5893C20.7639 23.9147 20.2363 23.9147 19.9108 23.5893L14.9108 18.5893C14.5854 18.2638 14.5854 17.7362 14.9108 17.4108L19.9108 12.4107C20.2363 12.0853 20.7639 12.0853 21.0893 12.4107Z" fill="#6A6C85"/>
</svg>
