<svg xmlns="http://www.w3.org/2000/svg" width="179.74" height="132.265" viewBox="0 0 179.74 132.265"><defs><style>.a{fill:none;stroke:#999;stroke-miterlimit:10;stroke-width:2px;}.b,.d{fill:#d0d0d2;}.c{fill:#7c7c7c;}.d{opacity:0.996;}.e{fill:#0c8fe6;}.f{fill:#f7f8fa;}</style></defs><g transform="translate(-978 -362.283)"><path class="a" d="M1902.32,680.11c-14.2,0-28.41.023-42.614-.011-5.585-.013-10.766-1.378-14.915-5.346-5.469-5.23-6.887-11.934-6.384-19.138.543-7.758,4.886-12.849,11.964-15.631a32.244,32.244,0,0,1,7.5-1.964c1.7-.225,1.883-1.077,2.259-2.357a60.774,60.774,0,0,1,3.246-9.684,24.133,24.133,0,0,1,18.783-13.894c9.1-1.465,17.256.268,24.08,6.752a29.364,29.364,0,0,1,3.485,3.982,1.777,1.777,0,0,0,2.58.694,24.659,24.659,0,0,1,18.729-.649c9.122,3.371,14.1,10.732,14.3,20.982a1.749,1.749,0,0,0,1.584,2c9.905,2.6,14.255,10.19,13.084,20.067a20.576,20.576,0,0,1-1.842,6.312,12.927,12.927,0,0,1-12.4,7.877Q1924.042,680.144,1902.32,680.11Z" transform="translate(-822.275 -219.533)"/><rect class="b" width="4.263" height="4.263" transform="translate(1031.229 448.34)"/><rect class="b" width="4.263" height="4.263" transform="translate(1038.416 448.34)"/><rect class="c" width="6.141" height="4.263" transform="translate(1135.559 481.56)"/><rect class="c" width="6.141" height="4.263" transform="translate(1120.213 490.285)"/><rect class="c" width="4.263" height="4.263" transform="translate(1081.664 481.56)"/><rect class="b" width="7.87" height="4.263" transform="translate(1098.438 472.221)"/><rect class="b" width="7.87" height="4.263" transform="translate(1090.568 481.56)"/><rect class="b" width="29.11" height="4.263" transform="translate(1102.814 481.56)"/><rect class="b" width="29.11" height="4.263" transform="translate(1128.629 490.285)"/><rect class="d" width="6.141" height="4.263" transform="translate(1031.895 371.622)"/><rect class="c" width="6.141" height="4.263" transform="translate(1016.547 380.347)"/><rect class="d" width="4.263" height="4.263" transform="translate(978 371.622)"/><rect class="c" width="7.87" height="4.263" transform="translate(994.773 362.283)"/><rect class="c" width="7.87" height="4.263" transform="translate(986.902 371.622)"/><rect class="d" width="29.11" height="4.263" transform="translate(999.15 371.622)"/><rect class="d" width="29.11" height="4.263" transform="translate(1024.963 380.347)"/><path class="e" d="M-562.936,176.4a.624.624,0,0,0-.052-.233.676.676,0,0,0-.055-.1.578.578,0,0,0-.068-.083l-9.131-9.131a.616.616,0,0,0-.083-.068l-.031-.019a.621.621,0,0,0-.061-.033l-.035-.015a.622.622,0,0,0-.072-.022.463.463,0,0,0-.054-.01.819.819,0,0,0-.089-.008h-20.959a2.845,2.845,0,0,0-2.842,2.842V205.3a2.845,2.845,0,0,0,2.842,2.842h27.847a2.845,2.845,0,0,0,2.842-2.842Zm-7.487-.589a1.645,1.645,0,0,1-1.643-1.642v-5.441l7.083,7.083Zm0,1.2h6.289V205.3a1.644,1.644,0,0,1-1.643,1.642h-27.847a1.644,1.644,0,0,1-1.642-1.642v-35.78a1.645,1.645,0,0,1,1.642-1.642h20.359v6.289A2.845,2.845,0,0,0-570.424,177.007Z" transform="translate(1661.281 261.823)"/><rect class="f" width="31" height="13" transform="translate(1066 453)"/><path class="e" d="M.775-6.856A3.734,3.734,0,0,1,.539-5.488,3.071,3.071,0,0,1-.093-4.47a2.682,2.682,0,0,1-.923.632,2.85,2.85,0,0,1-1.1.218,2.933,2.933,0,0,1-1.141-.218,2.647,2.647,0,0,1-.914-.632A2.887,2.887,0,0,1-4.78-5.488,4.013,4.013,0,0,1-5-6.856,4.111,4.111,0,0,1-4.78-8.247a2.928,2.928,0,0,1,.609-1.027,2.619,2.619,0,0,1,.914-.636,2.933,2.933,0,0,1,1.141-.218,2.976,2.976,0,0,1,1.141.218,2.555,2.555,0,0,1,.918.636A3.021,3.021,0,0,1,.552-8.247,4.035,4.035,0,0,1,.775-6.856Zm-1.264,0A3.533,3.533,0,0,0-.616-7.874a1.95,1.95,0,0,0-.35-.686,1.3,1.3,0,0,0-.518-.386,1.685,1.685,0,0,0-.632-.118,1.685,1.685,0,0,0-.632.118,1.262,1.262,0,0,0-.514.386,1.942,1.942,0,0,0-.341.686,3.656,3.656,0,0,0-.123,1.018,3.569,3.569,0,0,0,.123,1,1.847,1.847,0,0,0,.341.673,1.255,1.255,0,0,0,.514.373,1.745,1.745,0,0,0,.632.114,1.745,1.745,0,0,0,.632-.114,1.289,1.289,0,0,0,.518-.373,1.856,1.856,0,0,0,.35-.673A3.449,3.449,0,0,0-.489-6.856ZM5.33-9.674a1.034,1.034,0,0,1,.25-.241A.63.63,0,0,1,5.93-10H7.093L-2.425,2.763a.73.73,0,0,1-.218.191.6.6,0,0,1-.3.073h-1.2ZM7.975-.047a3.7,3.7,0,0,1-.236,1.364,3.08,3.08,0,0,1-.632,1.014,2.693,2.693,0,0,1-.918.632,2.816,2.816,0,0,1-1.1.218,2.933,2.933,0,0,1-1.141-.218,2.647,2.647,0,0,1-.914-.632A2.893,2.893,0,0,1,2.43,1.317,3.974,3.974,0,0,1,2.211-.047a4.151,4.151,0,0,1,.218-1.4,2.921,2.921,0,0,1,.609-1.032,2.619,2.619,0,0,1,.914-.636,2.933,2.933,0,0,1,1.141-.218A2.943,2.943,0,0,1,6.23-3.11a2.608,2.608,0,0,1,.918.636,2.921,2.921,0,0,1,.609,1.032A4.151,4.151,0,0,1,7.975-.047Zm-1.255,0a3.581,3.581,0,0,0-.127-1.023,1.9,1.9,0,0,0-.35-.686,1.312,1.312,0,0,0-.518-.382,1.685,1.685,0,0,0-.632-.118,1.685,1.685,0,0,0-.632.118,1.278,1.278,0,0,0-.514.382,1.891,1.891,0,0,0-.341.686A3.706,3.706,0,0,0,3.484-.047a3.52,3.52,0,0,0,.123,1,1.849,1.849,0,0,0,.341.668,1.255,1.255,0,0,0,.514.373,1.813,1.813,0,0,0,1.264,0,1.289,1.289,0,0,0,.518-.373,1.859,1.859,0,0,0,.35-.668A3.4,3.4,0,0,0,6.721-.047Z" transform="translate(1080.508 459.469)"/></g></svg>