<svg xmlns="http://www.w3.org/2000/svg" width="12" height="12" viewBox="0 0 12 12"><defs><style>.a{fill:#a9a9a9;}</style></defs><path class="a" d="M676.871,1227.468l3.429,3.409-1.029,1.023-3.429-3.409v-.546l-.206-.2a4.377,4.377,0,0,1-2.88,1.023,4.153,4.153,0,0,1-3.154-1.3,4.484,4.484,0,0,1-1.3-3.136,4.106,4.106,0,0,1,1.3-3.136,4.536,4.536,0,0,1,3.154-1.3,4.258,4.258,0,0,1,3.154,1.3,4.209,4.209,0,0,1,1.3,3.136,4.322,4.322,0,0,1-1.029,2.864l.206.2h.48Zm-6.309-.886a3.16,3.16,0,0,0,4.389,0,3.116,3.116,0,0,0,0-4.364,3.159,3.159,0,0,0-4.389,0,3.116,3.116,0,0,0,0,4.364Z" transform="translate(-668.3 -1219.9)"/></svg>
