<svg width="197" height="55" viewBox="0 0 197 55" fill="none" xmlns="http://www.w3.org/2000/svg">
<path d="M2.95067 2.86156C5.41981 2.06677 7.88894 1.57005 10.4568 1.17265C11.642 0.973955 14.4075 -0.218246 15.4939 0.874588C16.4815 1.86807 15.6914 3.65637 15.3951 4.64985C14.8025 7.43161 14.2099 10.3127 13.5186 13.0945C13.4198 13.3925 13.0247 13.4919 12.7284 13.3925C12.5309 13.2932 12.3334 12.9951 12.4321 12.7964C12.7284 10.9088 13.1235 9.02119 13.4198 7.13356C13.5186 6.73617 14.0124 4.25245 14.2099 3.06027C7.29635 12.0016 0.185241 23.5261 2.45685 35.6466C4.92598 48.5619 22.5062 55.715 33.2717 49.6547C33.7655 49.3567 34.3581 50.2508 33.8642 50.5489C23.4939 57.3046 7.49388 51.5424 1.96302 40.4153C-0.999944 34.3551 0.0864633 27.3013 1.76548 21.1417C3.64202 14.5847 6.80252 7.33226 12.0371 2.66288C10.9507 2.96093 9.76549 3.35831 9.37043 3.45766C7.49388 3.9544 5.51857 4.3518 3.54326 4.5505C2.5556 4.64985 1.96302 3.1596 2.95067 2.86156Z" fill="black"/>
<path d="M47.5186 46.2104C47.3133 46.0784 47.2106 45.8878 47.2106 45.6384C47.2106 45.3891 47.2913 45.1618 47.4526 44.9564C47.3939 43.4898 47.3646 41.9424 47.3646 40.3144C47.4526 39.9624 47.5846 39.7058 47.7606 39.5444C47.9513 39.3831 48.2226 39.2804 48.5746 39.2364C50.5106 39.3244 52.6079 39.3684 54.8666 39.3684C55.4239 39.4858 55.7026 39.7278 55.7026 40.0944C55.7026 40.7104 55.1013 41.0698 53.8986 41.1724C53.5759 41.1871 53.2239 41.1944 52.8426 41.1944H51.4126C51.1339 41.1944 50.3639 41.1358 49.1026 41.0184C49.1026 42.8518 49.1319 44.1131 49.1906 44.8024C49.9679 44.8171 51.4639 44.8244 53.6786 44.8244C54.2066 44.9271 54.4706 45.1691 54.4706 45.5504C54.4706 45.9171 54.2579 46.2031 53.8326 46.4084C53.7886 46.4378 53.7079 46.4671 53.5906 46.4964L49.7846 46.4304C49.5499 46.4304 49.3593 46.4451 49.2126 46.4744L49.3006 50.2584C49.3006 51.1091 49.2786 51.7178 49.2346 52.0844L54.3386 52.0184C54.8079 52.0918 55.0426 52.2898 55.0426 52.6124C55.0426 52.8324 54.9399 53.0524 54.7346 53.2724C54.5439 53.4924 54.3166 53.6318 54.0526 53.6904L48.4206 53.7784C48.0833 53.7784 47.8486 53.7198 47.7166 53.6024C47.5846 53.4704 47.5186 53.2578 47.5186 52.9644C47.5773 52.5538 47.6066 51.8938 47.6066 50.9844V49.4444L47.5186 46.2104Z" fill="black" fill-opacity="0.9"/>
<path d="M57.713 53.0964L57.471 44.1644C57.471 43.8858 57.5663 43.6584 57.757 43.4824C57.9477 43.3064 58.1383 43.2184 58.329 43.2184C58.7983 43.2184 59.0697 43.4164 59.143 43.8124C59.2017 44.2084 59.231 44.6191 59.231 45.0444C60.023 44.0031 61.013 43.4824 62.201 43.4824C64.0197 43.4824 64.929 45.5578 64.929 49.7084C64.929 50.0898 64.929 50.6691 64.929 51.4464C64.929 52.2091 64.885 52.7664 64.797 53.1184C64.6944 53.5584 64.379 53.7784 63.851 53.7784C63.499 53.7784 63.323 53.5438 63.323 53.0744L63.345 51.8424C63.345 50.1411 63.2863 48.9824 63.169 48.3664C63.0663 47.7358 62.9637 47.2371 62.861 46.8704C62.6117 46.0784 62.2083 45.6824 61.651 45.6824C60.9177 45.6824 60.4043 45.9464 60.111 46.4744C59.7883 47.0464 59.5977 47.7211 59.539 48.4984C59.4364 49.8624 59.385 51.3071 59.385 52.8324C59.385 53.1258 59.275 53.3604 59.055 53.5364C58.835 53.7124 58.571 53.8004 58.263 53.8004C57.8963 53.8004 57.713 53.5658 57.713 53.0964Z" fill="black" fill-opacity="0.9"/>
<path d="M67.3743 43.5044L68.4743 43.5264C68.7236 43.5264 68.8629 43.5191 68.8923 43.5044V38.9944C68.9069 38.7451 69.0316 38.5324 69.2663 38.3564C69.5009 38.1804 69.721 38.0924 69.9263 38.0924C70.1316 38.0924 70.2929 38.1584 70.4103 38.2904C70.5423 38.4224 70.6009 38.6278 70.5863 38.9064C70.5716 39.1851 70.5643 40.7104 70.5643 43.4824L73.1383 43.3944C73.5783 43.3944 73.7983 43.6511 73.7983 44.1644C73.7983 44.5458 73.6809 44.8318 73.4463 45.0224C73.2263 45.2131 72.9843 45.3158 72.7203 45.3304C72.4709 45.3451 72.2216 45.3524 71.9723 45.3524L70.6303 45.3304C70.6303 45.9318 70.6889 47.1198 70.8063 48.8944C70.9383 50.6691 71.0409 51.8204 71.1143 52.3484C71.1876 52.8618 71.2023 53.1991 71.1583 53.3604C71.1143 53.5071 71.0336 53.6098 70.9163 53.6684C70.7256 53.7564 70.4689 53.8004 70.1463 53.8004C69.8236 53.8004 69.6329 53.6244 69.5743 53.2724C69.2809 51.3511 69.0829 48.7111 68.9803 45.3524C68.8483 45.3671 68.3423 45.3744 67.4623 45.3744C66.5823 45.3744 66.1423 45.1178 66.1423 44.6044C66.1423 43.8711 66.5529 43.5044 67.3743 43.5044Z" fill="black" fill-opacity="0.9"/>
<path d="M77.5548 43.5924C78.3321 43.5924 79.0728 43.8198 79.7768 44.2744C80.4808 44.7291 80.8328 45.2938 80.8328 45.9684C80.8328 46.6284 80.5468 47.2738 79.9748 47.9044C79.4028 48.5204 78.6401 48.8944 77.6868 49.0264C77.2761 49.0851 76.6601 49.1144 75.8388 49.1144C76.0001 50.3611 76.3154 51.1824 76.7848 51.5784C76.9314 51.7398 77.1295 51.8204 77.3788 51.8204C78.2881 51.8204 79.0508 51.5344 79.6668 50.9624C80.2828 50.3758 80.7228 50.0824 80.9868 50.0824C81.1041 50.0824 81.2801 50.1924 81.5148 50.4124C81.7494 50.6324 81.8668 50.8378 81.8668 51.0284C81.8668 51.4098 81.4048 51.9598 80.4808 52.6784C80.0701 53.0158 79.5714 53.3018 78.9848 53.5364C78.4128 53.7564 77.8775 53.8664 77.3788 53.8664C76.1028 53.8664 75.1641 53.0451 74.5628 51.4024C74.1814 50.3904 73.9908 49.2758 73.9908 48.0584C73.9908 46.8411 74.2768 45.7924 74.8488 44.9124C75.4208 44.0324 76.3228 43.5924 77.5548 43.5924ZM77.6648 45.1104C77.1074 45.1104 76.6308 45.4258 76.2348 46.0564C76.0881 46.2764 75.9488 46.7751 75.8168 47.5524C77.8701 47.5524 78.8968 47.0464 78.8968 46.0344C78.8968 45.4184 78.4861 45.1104 77.6648 45.1104Z" fill="black" fill-opacity="0.9"/>
<path d="M85.9904 50.5664L86.0124 52.8324C86.0124 53.0964 85.8877 53.3384 85.6384 53.5584C85.4037 53.7784 85.1691 53.8884 84.9344 53.8884C84.5971 53.8884 84.3844 53.6244 84.2964 53.0964C84.2817 52.9791 84.2231 51.9084 84.1204 49.8844C84.0177 47.8458 83.8197 46.2471 83.5264 45.0884C83.3944 44.5311 83.3284 44.2011 83.3284 44.0984C83.3284 43.6144 83.6217 43.3724 84.2084 43.3724C84.4577 43.3724 84.6557 43.4678 84.8024 43.6584C84.9491 43.8491 85.0371 44.0471 85.0664 44.2524C85.1104 44.4431 85.1471 44.7071 85.1764 45.0444C85.2057 45.3818 85.2277 45.5944 85.2424 45.6824C85.5504 44.9491 86.0124 44.3991 86.6284 44.0324C87.2444 43.6658 87.9191 43.4824 88.6524 43.4824C89.8551 43.4824 90.4564 43.7904 90.4564 44.4064C90.4564 44.7144 90.3464 44.9638 90.1264 45.1544C89.9211 45.3304 89.6791 45.4184 89.4004 45.4184C88.1537 45.4184 87.2737 45.8144 86.7604 46.6064C86.2471 47.3984 85.9904 48.7184 85.9904 50.5664Z" fill="black" fill-opacity="0.9"/>
<path d="M103.794 43.3944C103.999 43.3944 104.153 43.4678 104.256 43.6144C104.358 43.7464 104.41 43.8931 104.41 44.0544L104.388 44.2744C103.772 45.8438 103.317 47.1198 103.024 48.1024C102.833 48.7918 102.686 49.3051 102.584 49.6424C102.496 49.9798 102.342 50.5738 102.122 51.4244C101.902 52.2751 101.755 52.8251 101.682 53.0744C101.476 53.5731 101.117 53.8224 100.604 53.8224C100.354 53.8224 100.178 53.6611 100.076 53.3384C99.6062 51.8718 98.9169 50.2144 98.0076 48.3664C97.0982 46.5184 96.5776 45.4624 96.4456 45.1984C96.3282 44.9198 96.2696 44.6704 96.2696 44.4504C96.2696 44.2304 96.3649 44.0178 96.5556 43.8124C96.7609 43.6071 96.9882 43.5044 97.2376 43.5044C97.4869 43.5044 97.6996 43.6364 97.8756 43.9004C98.0369 44.2231 98.4916 45.1251 99.2396 46.6064C100.002 48.0878 100.538 49.2538 100.846 50.1044C100.86 50.0164 100.912 49.8331 101 49.5544C101.748 46.9584 102.356 45.1031 102.826 43.9884C103.075 43.5924 103.398 43.3944 103.794 43.3944Z" fill="black" fill-opacity="0.9"/>
<path d="M108.664 43.5924C109.441 43.5924 110.182 43.8198 110.886 44.2744C111.59 44.7291 111.942 45.2938 111.942 45.9684C111.942 46.6284 111.656 47.2738 111.084 47.9044C110.512 48.5204 109.749 48.8944 108.796 49.0264C108.385 49.0851 107.769 49.1144 106.948 49.1144C107.109 50.3611 107.425 51.1824 107.894 51.5784C108.041 51.7398 108.239 51.8204 108.488 51.8204C109.397 51.8204 110.16 51.5344 110.776 50.9624C111.392 50.3758 111.832 50.0824 112.096 50.0824C112.213 50.0824 112.389 50.1924 112.624 50.4124C112.859 50.6324 112.976 50.8378 112.976 51.0284C112.976 51.4098 112.514 51.9598 111.59 52.6784C111.179 53.0158 110.681 53.3018 110.094 53.5364C109.522 53.7564 108.987 53.8664 108.488 53.8664C107.212 53.8664 106.273 53.0451 105.672 51.4024C105.291 50.3904 105.1 49.2758 105.1 48.0584C105.1 46.8411 105.386 45.7924 105.958 44.9124C106.53 44.0324 107.432 43.5924 108.664 43.5924ZM108.774 45.1104C108.217 45.1104 107.74 45.4258 107.344 46.0564C107.197 46.2764 107.058 46.7751 106.926 47.5524C108.979 47.5524 110.006 47.0464 110.006 46.0344C110.006 45.4184 109.595 45.1104 108.774 45.1104Z" fill="black" fill-opacity="0.9"/>
<path d="M115.098 53.0964L114.856 44.1644C114.856 43.8858 114.951 43.6584 115.142 43.4824C115.332 43.3064 115.523 43.2184 115.714 43.2184C116.183 43.2184 116.454 43.4164 116.528 43.8124C116.586 44.2084 116.616 44.6191 116.616 45.0444C117.408 44.0031 118.398 43.4824 119.586 43.4824C121.404 43.4824 122.314 45.5578 122.314 49.7084C122.314 50.0898 122.314 50.6691 122.314 51.4464C122.314 52.2091 122.27 52.7664 122.182 53.1184C122.079 53.5584 121.764 53.7784 121.236 53.7784C120.884 53.7784 120.708 53.5438 120.708 53.0744L120.73 51.8424C120.73 50.1411 120.671 48.9824 120.554 48.3664C120.451 47.7358 120.348 47.2371 120.246 46.8704C119.996 46.0784 119.593 45.6824 119.036 45.6824C118.302 45.6824 117.789 45.9464 117.496 46.4744C117.173 47.0464 116.982 47.7211 116.924 48.4984C116.821 49.8624 116.77 51.3071 116.77 52.8324C116.77 53.1258 116.66 53.3604 116.44 53.5364C116.22 53.7124 115.956 53.8004 115.648 53.8004C115.281 53.8004 115.098 53.5658 115.098 53.0964Z" fill="black" fill-opacity="0.9"/>
<path d="M129.467 43.4824L129.445 39.2364C129.445 38.4444 129.694 38.0484 130.193 38.0484C130.706 38.0484 130.992 38.2684 131.051 38.7084C131.08 38.8991 131.117 40.0504 131.161 42.1624C131.205 44.2744 131.271 46.2544 131.359 48.1024C131.462 49.9504 131.513 51.6738 131.513 53.2724C131.513 53.7124 131.183 53.9324 130.523 53.9324C130.083 53.9324 129.863 53.6244 129.863 53.0084C129.232 53.5071 128.484 53.7564 127.619 53.7564C126.519 53.7564 125.624 53.3458 124.935 52.5244C124.26 51.7031 123.923 50.6911 123.923 49.4884C123.923 48.2858 124.165 47.1638 124.649 46.1224C125.148 45.0664 125.918 44.3111 126.959 43.8564C127.604 43.5778 128.228 43.4384 128.829 43.4384C129.049 43.4384 129.262 43.4531 129.467 43.4824ZM129.577 46.4964C129.474 46.1738 129.35 45.9318 129.203 45.7704C129.056 45.5944 128.895 45.4918 128.719 45.4624C128.558 45.4184 128.36 45.3964 128.125 45.3964C127.89 45.3964 127.604 45.4844 127.267 45.6604C126.93 45.8364 126.644 46.1224 126.409 46.5184C125.94 47.3104 125.705 48.1464 125.705 49.0264C125.705 49.8918 125.874 50.6031 126.211 51.1604C126.563 51.7031 127.054 51.9744 127.685 51.9744C128.33 51.9744 128.836 51.6591 129.203 51.0284C129.57 50.3978 129.753 49.5911 129.753 48.6084C129.753 47.5084 129.694 46.8044 129.577 46.4964Z" fill="black" fill-opacity="0.9"/>
<path d="M136.675 43.5264C137.731 43.5264 138.597 44.0324 139.271 45.0444C139.961 46.0564 140.305 47.2738 140.305 48.6964C140.305 50.1044 139.953 51.3071 139.249 52.3044C138.56 53.3018 137.636 53.8004 136.477 53.8004C135.333 53.8004 134.409 53.2944 133.705 52.2824C133.001 51.2558 132.649 50.1191 132.649 48.8724C132.649 47.2738 132.972 45.9978 133.617 45.0444C134.307 44.0324 135.326 43.5264 136.675 43.5264ZM136.411 45.3304C135.795 45.3304 135.289 45.6531 134.893 46.2984C134.497 46.9438 134.299 47.6258 134.299 48.3444C134.299 49.4591 134.519 50.3098 134.959 50.8964C135.399 51.4831 135.898 51.7764 136.455 51.7764C137.453 51.7764 138.091 51.3438 138.369 50.4784C138.487 50.0678 138.545 49.5544 138.545 48.9384C138.545 46.5331 137.834 45.3304 136.411 45.3304Z" fill="black" fill-opacity="0.9"/>
<path d="M144.492 50.5664L144.514 52.8324C144.514 53.0964 144.39 53.3384 144.14 53.5584C143.906 53.7784 143.671 53.8884 143.436 53.8884C143.099 53.8884 142.886 53.6244 142.798 53.0964C142.784 52.9791 142.725 51.9084 142.622 49.8844C142.52 47.8458 142.322 46.2471 142.028 45.0884C141.896 44.5311 141.83 44.2011 141.83 44.0984C141.83 43.6144 142.124 43.3724 142.71 43.3724C142.96 43.3724 143.158 43.4678 143.304 43.6584C143.451 43.8491 143.539 44.0471 143.568 44.2524C143.612 44.4431 143.649 44.7071 143.678 45.0444C143.708 45.3818 143.73 45.5944 143.744 45.6824C144.052 44.9491 144.514 44.3991 145.13 44.0324C145.746 43.6658 146.421 43.4824 147.154 43.4824C148.357 43.4824 148.958 43.7904 148.958 44.4064C148.958 44.7144 148.848 44.9638 148.628 45.1544C148.423 45.3304 148.181 45.4184 147.902 45.4184C146.656 45.4184 145.776 45.8144 145.262 46.6064C144.749 47.3984 144.492 48.7184 144.492 50.5664Z" fill="black" fill-opacity="0.9"/>
<path d="M156.026 53.0964L155.784 44.1644C155.784 43.8858 155.879 43.6584 156.07 43.4824C156.26 43.3064 156.451 43.2184 156.642 43.2184C157.111 43.2184 157.382 43.4164 157.456 43.8124C157.514 44.2084 157.544 44.6191 157.544 45.0444C158.336 44.0031 159.326 43.4824 160.514 43.4824C162.332 43.4824 163.242 45.5578 163.242 49.7084C163.242 50.0898 163.242 50.6691 163.242 51.4464C163.242 52.2091 163.198 52.7664 163.11 53.1184C163.007 53.5584 162.692 53.7784 162.164 53.7784C161.812 53.7784 161.636 53.5438 161.636 53.0744L161.658 51.8424C161.658 50.1411 161.599 48.9824 161.482 48.3664C161.379 47.7358 161.276 47.2371 161.174 46.8704C160.924 46.0784 160.521 45.6824 159.964 45.6824C159.23 45.6824 158.717 45.9464 158.424 46.4744C158.101 47.0464 157.91 47.7211 157.852 48.4984C157.749 49.8624 157.698 51.3071 157.698 52.8324C157.698 53.1258 157.588 53.3604 157.368 53.5364C157.148 53.7124 156.884 53.8004 156.576 53.8004C156.209 53.8004 156.026 53.5658 156.026 53.0964Z" fill="black" fill-opacity="0.9"/>
<path d="M171.275 43.5044C171.92 43.5044 172.243 44.0544 172.243 45.1544C172.243 45.2718 172.243 45.3964 172.243 45.5284L172.199 47.0684C172.184 47.5524 172.177 48.0291 172.177 48.4984L172.507 53.4704C172.507 53.8371 172.133 54.0204 171.385 54.0204C171.341 54.0204 171.231 54.0204 171.055 54.0204C170.893 54.0204 170.776 53.9544 170.703 53.8224C170.644 53.6904 170.637 53.5291 170.681 53.3384C170.739 53.1478 170.725 52.9351 170.637 52.7004C169.962 53.4191 169.067 53.7784 167.953 53.7784C165.885 53.7784 164.851 52.1798 164.851 48.9824C164.851 47.2078 165.181 45.8658 165.841 44.9564C166.515 44.0471 167.476 43.5924 168.723 43.5924C169.309 43.5924 169.896 43.6951 170.483 43.9004C170.673 43.6364 170.937 43.5044 171.275 43.5044ZM168.987 45.5064C168.151 45.5064 167.527 45.7484 167.117 46.2324C166.706 46.7164 166.501 47.6038 166.501 48.8944C166.501 51.0651 167.087 52.1504 168.261 52.1504C168.569 52.1504 168.906 52.0111 169.273 51.7324C169.654 51.4538 169.918 51.1384 170.065 50.7864C170.343 49.9944 170.483 49.1291 170.483 48.1904C170.483 47.2518 170.365 46.5698 170.131 46.1444C169.911 45.7191 169.529 45.5064 168.987 45.5064Z" fill="black" fill-opacity="0.9"/>
<path d="M175.006 53.8004C174.625 53.8004 174.397 53.5878 174.324 53.1624C174.324 50.1998 174.148 47.5598 173.796 45.2424C173.796 44.9491 173.899 44.6851 174.104 44.4504C174.324 44.2158 174.566 44.0984 174.83 44.0984C175.109 44.0984 175.314 44.2524 175.446 44.5604C175.989 43.8418 176.715 43.4824 177.624 43.4824C178.783 43.4824 179.677 44.0398 180.308 45.1544C181.041 44.0984 182.009 43.5704 183.212 43.5704C184.429 43.5704 185.339 44.0544 185.94 45.0224C186.336 45.6238 186.615 46.4158 186.776 47.3984C186.937 48.3811 187.018 49.7744 187.018 51.5784C187.018 52.2824 186.945 52.8324 186.798 53.2284C186.651 53.6098 186.343 53.8004 185.874 53.8004C185.493 53.8004 185.302 53.5584 185.302 53.0744L185.368 50.3244C185.368 47.0244 184.51 45.3744 182.794 45.3744C182.251 45.3744 181.87 45.5651 181.65 45.9464C181.401 46.4011 181.254 46.8778 181.21 47.3764C181.151 48.2564 181.122 49.0558 181.122 49.7744V52.9644C181.122 53.1991 181.005 53.3971 180.77 53.5584C180.535 53.7198 180.293 53.8004 180.044 53.8004C179.721 53.8004 179.516 53.5878 179.428 53.1624L179.494 48.6084C179.494 46.9951 179.223 45.9904 178.68 45.5944C178.416 45.4038 178.013 45.3084 177.47 45.3084C176.942 45.3084 176.546 45.5064 176.282 45.9024C176.033 46.2984 175.908 46.9364 175.908 47.8164L176.04 51.9084C176.04 53.1698 175.695 53.8004 175.006 53.8004Z" fill="black" fill-opacity="0.9"/>
<path d="M191.873 43.5924C192.65 43.5924 193.391 43.8198 194.095 44.2744C194.799 44.7291 195.151 45.2938 195.151 45.9684C195.151 46.6284 194.865 47.2738 194.293 47.9044C193.721 48.5204 192.958 48.8944 192.005 49.0264C191.594 49.0851 190.978 49.1144 190.157 49.1144C190.318 50.3611 190.634 51.1824 191.103 51.5784C191.25 51.7398 191.448 51.8204 191.697 51.8204C192.606 51.8204 193.369 51.5344 193.985 50.9624C194.601 50.3758 195.041 50.0824 195.305 50.0824C195.422 50.0824 195.598 50.1924 195.833 50.4124C196.068 50.6324 196.185 50.8378 196.185 51.0284C196.185 51.4098 195.723 51.9598 194.799 52.6784C194.388 53.0158 193.89 53.3018 193.303 53.5364C192.731 53.7564 192.196 53.8664 191.697 53.8664C190.421 53.8664 189.482 53.0451 188.881 51.4024C188.5 50.3904 188.309 49.2758 188.309 48.0584C188.309 46.8411 188.595 45.7924 189.167 44.9124C189.739 44.0324 190.641 43.5924 191.873 43.5924ZM191.983 45.1104C191.426 45.1104 190.949 45.4258 190.553 46.0564C190.406 46.2764 190.267 46.7751 190.135 47.5524C192.188 47.5524 193.215 47.0464 193.215 46.0344C193.215 45.4184 192.804 45.1104 191.983 45.1104Z" fill="black" fill-opacity="0.9"/>
</svg>
