<svg width="16" height="16" viewBox="0 0 16 16" fill="none" xmlns="http://www.w3.org/2000/svg">
<path fill-rule="evenodd" clip-rule="evenodd" d="M7.33341 12.6667C10.2789 12.6667 12.6667 10.2788 12.6667 7.33332C12.6667 4.3878 10.2789 1.99999 7.33341 1.99999C4.3879 1.99999 2.00008 4.3878 2.00008 7.33332C2.00008 10.2788 4.3879 12.6667 7.33341 12.6667ZM14.0001 7.33332C14.0001 11.0152 11.0153 14 7.33341 14C3.65152 14 0.666748 11.0152 0.666748 7.33332C0.666748 3.65142 3.65152 0.666656 7.33341 0.666656C11.0153 0.666656 14.0001 3.65142 14.0001 7.33332Z" fill="#505159"/>
<path fill-rule="evenodd" clip-rule="evenodd" d="M11.1953 11.1953C11.4557 10.9349 11.8778 10.9349 12.1382 11.1953L15.1382 14.1953C15.3985 14.4556 15.3985 14.8777 15.1382 15.1381C14.8778 15.3984 14.4557 15.3984 14.1953 15.1381L11.1953 12.1381C10.935 11.8777 10.935 11.4556 11.1953 11.1953Z" fill="#505159"/>
</svg>