<svg width="22" height="21" viewBox="0 0 22 21" fill="none" xmlns="http://www.w3.org/2000/svg">
<path d="M8.75 2.5C9.44036 2.5 10 1.94036 10 1.25C10 0.559644 9.44036 0 8.75 0C8.05965 0 7.5 0.559644 7.5 1.25C7.5 1.94036 8.05965 2.5 8.75 2.5Z" fill="#505159"/>
<path fill-rule="evenodd" clip-rule="evenodd" d="M17.3929 7.39274C18.2929 6.67274 19.5458 6.58847 20.5341 7.18146C21.8841 7.99145 22.283 9.76546 21.4097 11.0754L17.3118 17.2222C16.3845 18.6132 14.8233 19.4487 13.1516 19.4487H6.02333L3.57393 20.4285C3.31822 20.5308 3.03164 20.5231 2.7818 20.4072C2.53195 20.2913 2.34095 20.0775 2.25386 19.8162L0.158643 13.5306C0.11899 13.4204 0.0996678 13.3053 0.0999169 13.1909C0.100018 13.1267 0.106321 13.0629 0.118555 13.0004C0.164331 12.7659 0.293798 12.547 0.49998 12.3923L3.37177 10.2385C4.41035 9.45953 5.67355 9.03847 6.97177 9.03847H11.7154C12.634 9.03847 13.4563 9.45141 14.0066 10.1018L17.3929 7.39274ZM3.81585 18.1777L2.27659 13.5599L3.80254 12.4154L3.80535 12.4133L4.57177 11.8385C5.26415 11.3192 6.10629 11.0385 6.97177 11.0385H11.7154C12.2676 11.0385 12.7154 11.4862 12.7154 12.0385V12.2436C12.7154 12.7959 12.2676 13.2436 11.7154 13.2436H8.45895C7.90667 13.2436 7.45895 13.6913 7.45895 14.2436C7.45895 14.7959 7.90667 15.2436 8.45895 15.2436H11.7154C13.3722 15.2436 14.7154 13.9005 14.7154 12.2436V12.096L18.6423 8.95448C18.8895 8.75671 19.2336 8.73357 19.5051 8.89644C19.8759 9.11893 19.9855 9.60619 19.7456 9.96599L15.6477 16.1128C15.0913 16.9474 14.1546 17.4487 13.1516 17.4487H5.83075C5.70353 17.4487 5.57748 17.473 5.45936 17.5203L3.81585 18.1777Z" fill="#505159"/>
<path d="M14.5 1.25C14.5 1.94036 13.9404 2.5 13.25 2.5C12.5596 2.5 12 1.94036 12 1.25C12 0.559644 12.5596 0 13.25 0C13.9404 0 14.5 0.559644 14.5 1.25Z" fill="#505159"/>
<path d="M8.40075 3.49927C8.1242 3.02121 7.51248 2.85785 7.03441 3.13439C6.55635 3.41094 6.39299 4.02266 6.66953 4.50072C7.53255 5.99262 9.14805 7 11 7C12.852 7 14.4675 5.99262 15.3305 4.50072C15.607 4.02266 15.4437 3.41094 14.9656 3.13439C14.4875 2.85785 13.8758 3.02121 13.5993 3.49927C13.0791 4.39858 12.1092 5 11 5C9.89085 5 8.92097 4.39858 8.40075 3.49927Z" fill="#505159"/>
</svg>
