<svg xmlns="http://www.w3.org/2000/svg" width="21.014" height="21" viewBox="0 0 21.014 21"><defs><style>.a{fill:none;stroke:#f7f8fa;}</style></defs><path class="a" d="M56.737,1160.4l2.141,1.6a.584.584,0,0,1,.1.7l-2.039,3.5a.458.458,0,0,1-.612.2l-2.549-1a8.351,8.351,0,0,1-1.733,1l-.408,2.6c-.1.3-.2.4-.51.4H47.052a.519.519,0,0,1-.51-.4l-.408-2.6a5.993,5.993,0,0,1-1.733-1l-2.549,1a.458.458,0,0,1-.612-.2l-2.039-3.5a.477.477,0,0,1,.1-.7l2.141-1.6v-2l-2.141-1.6a.584.584,0,0,1-.1-.7l2.039-3.5a.458.458,0,0,1,.612-.2l2.549,1a8.351,8.351,0,0,1,1.733-1l.408-2.6c.1-.3.2-.4.51-.4H51.13a.519.519,0,0,1,.51.4l.408,2.6a5.993,5.993,0,0,1,1.733,1l2.549-1a.458.458,0,0,1,.612.2l2.039,3.5a.477.477,0,0,1-.1.7l-2.141,1.6v2Zm-10.093,1.5a3.748,3.748,0,0,0,5.1,0,3.575,3.575,0,0,0,0-5,3.748,3.748,0,0,0-5.1,0,3.575,3.575,0,0,0,0,5Z" transform="translate(-38.584 -1148.9)"/></svg>