<svg xmlns="http://www.w3.org/2000/svg" width="30" height="30" viewBox="0 0 30 30">
  <g id="Group_7040" data-name="Group 7040" transform="translate(-1222 -835)">
    <rect id="Rectangle_5288" data-name="Rectangle 5288" width="30" height="30" transform="translate(1222 835)" fill="#fff"/>
    <g id="Group_6860" data-name="Group 6860" transform="translate(14324.068 6463.732)">
      <g id="Group_6859" data-name="Group 6859" transform="translate(-13100.068 -5628.732)">
        <g id="Group_5866" data-name="Group 5866" transform="translate(0 0)">
          <path id="Path_12285" data-name="Path 12285" d="M7.213,23.544a.753.753,0,0,0,.132.011.781.781,0,0,0,.768-.65,11.774,11.774,0,0,1,.879-2.877.78.78,0,0,0-1.422-.643,13.335,13.335,0,0,0-.995,3.259A.779.779,0,0,0,7.213,23.544Z" transform="translate(-6.43 -11.594)" fill="#1a237e"/>
          <path id="Path_12286" data-name="Path 12286" d="M34.43,4.836a.78.78,0,1,0-.194,1.549,11.82,11.82,0,0,1,2.914.752.78.78,0,1,0,.581-1.449A13.352,13.352,0,0,0,34.43,4.836Z" transform="translate(-19.379 -4.83)" fill="#1a237e"/>
          <path id="Path_12287" data-name="Path 12287" d="M7.763,35.679A.78.78,0,0,0,8.5,34.638,11.741,11.741,0,0,1,7.865,31.7a.789.789,0,0,0-.844-.712.781.781,0,0,0-.712.844,13.334,13.334,0,0,0,.718,3.33A.781.781,0,0,0,7.763,35.679Z" transform="translate(-6.307 -17.379)" fill="#1a237e"/>
          <path id="Path_12288" data-name="Path 12288" d="M25.207,4.845a13.368,13.368,0,0,0-3.3.859.78.78,0,0,0,.584,1.448,11.768,11.768,0,0,1,2.911-.759.78.78,0,1,0-.2-1.548Z" transform="translate(-13.559 -4.835)" fill="#1a237e"/>
          <path id="Path_12289" data-name="Path 12289" d="M45.061,9.692a.78.78,0,0,0,.164,1.091A11.909,11.909,0,0,1,47.4,12.863a.78.78,0,1,0,1.212-.983,13.516,13.516,0,0,0-2.462-2.352A.781.781,0,0,0,45.061,9.692Z" transform="translate(-24.827 -7.011)" fill="#1a237e"/>
          <path id="Path_12290" data-name="Path 12290" d="M11.772,11.916a.78.78,0,1,0,1.214.98,11.909,11.909,0,0,1,2.172-2.084.781.781,0,0,0-.93-1.254A13.539,13.539,0,0,0,11.772,11.916Z" transform="translate(-8.845 -7.025)" fill="#1a237e"/>
          <path id="Path_12291" data-name="Path 12291" d="M53.934,35.579a.78.78,0,0,0,.995-.478,13.363,13.363,0,0,0,.71-3.332.78.78,0,0,0-1.555-.128,11.8,11.8,0,0,1-.627,2.943A.781.781,0,0,0,53.934,35.579Z" transform="translate(-28.907 -17.351)" fill="#1a237e"/>
          <path id="Path_12292" data-name="Path 12292" d="M53.07,18.943a.78.78,0,0,0-.387,1.033,11.748,11.748,0,0,1,.885,2.874.781.781,0,0,0,.768.648.838.838,0,0,0,.134-.011.781.781,0,0,0,.637-.9,13.314,13.314,0,0,0-1-3.255A.781.781,0,0,0,53.07,18.943Z" transform="translate(-28.524 -11.568)" fill="#1a237e"/>
          <path id="Union_22" data-name="Union 22" d="M22.141.134a.781.781,0,0,0-1.084.209,11.885,11.885,0,0,1-.757.993,1.687,1.687,0,0,0-.563-.1c-2.924.1-14.1.073-16.99,0a1.685,1.685,0,0,0-.563.1A11.856,11.856,0,0,1,1.427.343a.78.78,0,1,0-1.292.875,13.437,13.437,0,0,0,.887,1.161A5.05,5.05,0,0,0,.375,4.94V9.617a.781.781,0,0,0,.78.78H21.329a.781.781,0,0,0,.78-.78V4.94a5.037,5.037,0,0,0-.646-2.562,13.449,13.449,0,0,0,.887-1.16A.781.781,0,0,0,22.141.134Zm-1.592,8.7H1.935V4.94a3.454,3.454,0,0,1,.456-1.824c.14-.221.279-.319.356-.319h16.99c.076,0,.215.1.363.331a3.452,3.452,0,0,1,.448,1.812v3.9Z" transform="translate(2.124 19.603)" fill="#1a237e"/>
          <path id="Path_12294" data-name="Path 12294" d="M20.78,51.061H31.7a.78.78,0,1,0,0-1.561H20.78a.78.78,0,1,0,0,1.561Z" transform="translate(-12.876 -26.262)" fill="#1a237e"/>
          <path id="Path_12295" data-name="Path 12295" d="M31.846,54.25H17.28a.78.78,0,0,0,0,1.561H31.846a.78.78,0,1,0,0-1.561Z" transform="translate(-11.197 -28.542)" fill="#1a237e"/>
        </g>
      </g>
      <path id="path" d="M56.716,1016.714l-4.81,4.187,1.425,6.236-5.523-3.385-5.523,3.385,1.425-6.236-4.81-4.187,6.414-.535,2.494-5.879,2.494,5.879Zm-8.819,5.434,3.385,1.96-.891-3.83,2.94-2.583-3.92-.356-1.514-3.563-1.514,3.563-3.92.356,2.94,2.583-.891,3.83Z" transform="translate(-13134.487 -6634.91)" fill="#6c63ff"/>
    </g>
  </g>
</svg>
