<svg width="20" height="22" viewBox="0 0 20 22" fill="none" xmlns="http://www.w3.org/2000/svg">
<path fill-rule="evenodd" clip-rule="evenodd" d="M8.00043 1.16084C9.23782 0.446631 10.7622 0.446632 11.9996 1.16084L17.5259 4.35054C18.7637 5.06501 19.5263 6.38565 19.5263 7.81489V14.1924C19.5263 15.6216 18.7637 16.9422 17.5259 17.6567L11.9996 20.8464C10.7622 21.5606 9.23781 21.5606 8.00042 20.8464L2.47414 17.6567C1.2363 16.9422 0.473724 15.6216 0.473724 14.1924V7.81489C0.473724 6.38565 1.2363 5.06501 2.47414 4.35054L8.00043 1.16084ZM10.9998 2.89301L16.5157 6.07673L10.492 9.56318C10.1867 9.73564 9.81316 9.73561 9.50786 9.56308L3.4843 6.07673L9.00022 2.89301C9.61891 2.53591 10.3811 2.53591 10.9998 2.89301ZM2.47376 7.80351L2.47372 7.81489V14.1924C2.47372 14.907 2.85501 15.5673 3.47393 15.9245L9 19.1141V12.1561C9 11.8023 8.81281 11.4749 8.50803 11.2953L8.49725 11.2891L2.47376 7.80351ZM11.4918 11.2954C11.1871 11.4751 11 11.8024 11 12.1561V19.1141L16.5261 15.9245C17.145 15.5673 17.5263 14.907 17.5263 14.1924V7.81489L17.5262 7.80351L11.5028 11.2891L11.4918 11.2954Z" fill="#505159"/>
</svg>
