<svg height='300px' width='300px'  fill="#000000" xmlns:dc="http://purl.org/dc/elements/1.1/" xmlns:cc="http://creativecommons.org/ns#" xmlns:rdf="http://www.w3.org/1999/02/22-rdf-syntax-ns#" xmlns:svg="http://www.w3.org/2000/svg" xmlns="http://www.w3.org/2000/svg" xmlns:sodipodi="http://sodipodi.sourceforge.net/DTD/sodipodi-0.dtd" xmlns:inkscape="http://www.inkscape.org/namespaces/inkscape" version="1.1" x="0px" y="0px" viewBox="0 0 100 100"><g transform="translate(0,-952.36218)"><path d="m 50,955.36216 c -16.56811,0 -30,13.43189 -30,30 l 0,10.00005 -1,0 c -7.15011,0 -13.0000001,5.84979 -13.0000001,12.99999 l 0,8 c 0,7.1501 5.8498901,13 13.0000001,13 l 10,0 c 1.57075,-2e-4 2.99984,-1.4293 3,-3 l 0,-27.99999 c -1.6e-4,-1.5708 -1.42925,-2.9999 -3,-3 l -3,0 0,-10.00005 c 0,-13.34789 10.65211,-24 24,-24 13.34789,0 24,10.65211 24,24 l 0,10.00005 -3,0 c -1.91401,0.1 -2.96711,1.7357 -3,3 l 0,27.99999 c 1.6e-4,1.5707 1.42925,2.9998 3,3 l 2.5,0 c -0.60247,1.8248 -1.77735,3.513 -3.71875,5 -2.62009,2.0068 -6.67863,3.5943 -12.40625,3.9375 -1.21636,-2.8805 -4.07767,-4.9375 -7.375,-4.9375 -4.38275,0 -8,3.6172 -8,8 0,4.3827 3.61725,8 8,8 3.35554,0 6.25925,-2.1016 7.4375,-5.0625 6.79291,-0.3569 12.15777,-2.2134 16,-5.1563 3.3913,-2.5975 5.50563,-6.0725 6.25,-9.7812 l 1.3125,0 c 7.15011,0 13,-5.8499 13,-13 l 0,-8 c 0,-7.1502 -5.84989,-12.99999 -13,-12.99999 l -1,0 0,-10.00005 c 0,-16.56811 -13.43189,-30 -30,-30 z" style="text-indent:0;text-transform:none;direction:ltr;block-progression:tb;baseline-shift:baseline;color:#000000;enable-background:accumulate;" fill="#000000" fill-opacity="1" stroke="none" marker="none" visibility="visible" display="inline" overflow="visible"></path></g></svg>