<svg width="23" height="22" viewBox="0 0 23 22" fill="none" xmlns="http://www.w3.org/2000/svg">
<path fill-rule="evenodd" clip-rule="evenodd" d="M18.7097 1.04332C19.1308 0.915181 19.5861 1.07741 19.8313 1.44293L22.0804 4.79587C22.3881 5.25452 22.2657 5.87574 21.8071 6.1834C21.3484 6.49107 20.7272 6.36867 20.4195 5.91001L20.0007 5.28564L20.0002 16.0003C20.0001 19.3139 17.3138 22 14.0002 22H9.99998C9.4477 22 8.99998 21.5523 8.99998 21C8.99998 20.4477 9.4477 20 9.99998 20H14.0002C16.2093 20 18.0001 18.2092 18.0002 16.0002L18.0008 1.99995C18.0009 1.55982 18.2886 1.17145 18.7097 1.04332Z" fill="#505159"/>
<path fill-rule="evenodd" clip-rule="evenodd" d="M2.24976 5.99973C2.24991 2.68613 4.93615 -1.78814e-07 8.24976 0L12.25 2.38419e-07C12.8023 2.38419e-07 13.25 0.447716 13.25 1C13.25 1.55228 12.8023 2 12.25 2L8.24976 2C6.04069 2 4.24986 3.79075 4.24976 5.99982L4.24912 20C4.2491 20.4402 3.96132 20.8285 3.54025 20.9567C3.11919 21.0848 2.66385 20.9226 2.41866 20.5571L0.169518 17.2041C-0.138145 16.7455 -0.0157436 16.1243 0.442909 15.8166C0.901561 15.5089 1.52278 15.6313 1.83045 16.09L2.24927 16.7144L2.24976 5.99973Z" fill="#505159"/>
<path fill-rule="evenodd" clip-rule="evenodd" d="M11.25 5.15C11.7194 5.15 12.1 5.53056 12.1 6V6.8374C13.0474 6.97517 13.7875 7.78339 13.7875 8.77778C13.7875 9.24722 13.4069 9.62778 12.9375 9.62778C12.468 9.62778 12.0875 9.24722 12.0875 8.77778C12.0875 8.64349 11.9743 8.51667 11.8125 8.51667H10.6875C10.215 8.51667 9.84998 8.89222 9.84998 9.33333C9.84998 9.77444 10.215 10.15 10.6875 10.15H11.8125C13.2039 10.15 14.35 11.2668 14.35 12.6667C14.35 13.9688 13.3583 15.026 12.1 15.1673V16C12.1 16.4694 11.7194 16.85 11.25 16.85C10.7805 16.85 10.4 16.4694 10.4 16V15.1833H10.125C9.0442 15.1833 8.14998 14.3152 8.14998 13.2222C8.14998 12.7528 8.53054 12.3722 8.99998 12.3722C9.46942 12.3722 9.84998 12.7528 9.84998 13.2222C9.84998 13.3565 9.96312 13.4833 10.125 13.4833H11.8125C12.285 13.4833 12.65 13.1078 12.65 12.6667C12.65 12.2256 12.285 11.85 11.8125 11.85H10.6875C9.29604 11.85 8.14998 10.7332 8.14998 9.33333C8.14998 8.03121 9.14162 6.97397 10.4 6.83271V6C10.4 5.53056 10.7805 5.15 11.25 5.15Z" fill="#505159"/>
</svg>
