<svg width="24" height="24" viewBox="0 0 24 24" fill="none" xmlns="http://www.w3.org/2000/svg">
<path fill-rule="evenodd" clip-rule="evenodd" d="M13 21C13 21.5523 13.4477 22 14 22H21C21.5523 22 22 21.5523 22 21V3C22 2.44772 21.5523 2 21 2H14C13.4477 2 13 2.44772 13 3V21ZM15 4V5H17C17.5523 5 18 5.44772 18 6C18 6.55228 17.5523 7 17 7H15V9H16C16.5523 9 17 9.44772 17 10C17 10.5523 16.5523 11 16 11H15V13H17C17.5523 13 18 13.4477 18 14C18 14.5523 17.5523 15 17 15H15V17H16C16.5523 17 17 17.4477 17 18C17 18.5523 16.5523 19 16 19H15V20H20V4H15Z" fill="#505159"/>
<path d="M12 12C12 12 8.18247 14.6015 7 15.1632C6.54537 15.3792 6.0368 15.5 5.5 15.5C3.567 15.5 2 13.933 2 12C2 10.067 3.567 8.5 5.5 8.5C6.0368 8.5 6.54537 8.62085 7 8.83682C8.18247 9.39855 12 12 12 12Z" fill="white"/>
<path fill-rule="evenodd" clip-rule="evenodd" d="M6.5 3C6.5 2.44772 6.05228 2 5.5 2C4.94772 2 4.5 2.44772 4.5 3V8.64494C3.05426 9.07522 2 10.4145 2 12C2 13.5855 3.05426 14.9248 4.5 15.3551V21C4.5 21.5523 4.94772 22 5.5 22C6.05228 22 6.5 21.5523 6.5 21V15.3551C6.67262 15.3037 6.83967 15.2394 7 15.1632C7.63831 14.86 9.04447 13.9624 10.2035 13.2005C11.1915 12.5509 12 12 12 12C12 12 11.1915 11.4491 10.2035 10.7996C9.04447 10.0376 7.63831 9.14005 7 8.83682C6.83967 8.76065 6.67262 8.69632 6.5 8.64494V3ZM5.5 13.5C5.73371 13.5 5.94967 13.4479 6.14182 13.3567C6.52231 13.1759 7.41011 12.6282 8.38272 12C7.41011 11.3718 6.52231 10.8241 6.14182 10.6433C5.94967 10.5521 5.73371 10.5 5.5 10.5C4.67157 10.5 4 11.1716 4 12C4 12.8284 4.67157 13.5 5.5 13.5Z" fill="#505159"/>
</svg>
