<svg xmlns="http://www.w3.org/2000/svg" width="23" height="23" viewBox="0 0 23 23"><defs><style>.a{fill:#535353;}</style></defs><g transform="translate(-0.787 -0.787)"><path class="a" d="M16.47,7.281c-.178,0-.356.013-.531.028.008-1.5.008-.912,0-2.091a3.853,3.853,0,0,0-2.287-3.187A10.928,10.928,0,0,0,8.368.787,10.929,10.929,0,0,0,3.084,2.031,3.853,3.853,0,0,0,.8,5.218C.781,9.761.79,14.727.79,19.366a3.846,3.846,0,0,0,2.287,3.178,10.956,10.956,0,0,0,5.292,1.244,11.374,11.374,0,0,0,4.688-.949,6.627,6.627,0,0,0,3.414.949c4.038,0,7.317-3.7,7.317-8.253S20.508,7.281,16.47,7.281ZM3.3,2.565A10.548,10.548,0,0,1,8.368,1.386a10.514,10.514,0,0,1,5.055,1.179,3.315,3.315,0,0,1,2,2.653,3.315,3.315,0,0,1-2,2.653A10.515,10.515,0,0,1,8.368,9.04,10.55,10.55,0,0,1,3.3,7.87,3.3,3.3,0,0,1,1.312,5.218,3.3,3.3,0,0,1,3.3,2.565ZM15.416,6.857v.507c-.176.029-.35.068-.523.111A4.058,4.058,0,0,0,15.416,6.857Zm-14.1-.009A5.15,5.15,0,0,0,3.084,8.4,10.928,10.928,0,0,0,8.368,9.639a12.056,12.056,0,0,0,3.471-.5,8.3,8.3,0,0,0-2.181,3.371,12.382,12.382,0,0,1-1.29.074,10.521,10.521,0,0,1-5.055-1.179,3.307,3.307,0,0,1-2-2.653Zm0,3.537h0a5.106,5.106,0,0,0,1.764,1.547,10.952,10.952,0,0,0,5.292,1.244c.375,0,.742-.025,1.1-.055a9.193,9.193,0,0,0-.319,2.413c0,.189.005.376.016.562-.262.017-.529.028-.8.028a10.52,10.52,0,0,1-5.055-1.179,3.307,3.307,0,0,1-2-2.653Zm0,3.537h0A5.107,5.107,0,0,0,3.076,15.47a10.951,10.951,0,0,0,5.292,1.244c.291,0,.575-.01.857-.028a8.932,8.932,0,0,0,.849,2.855,12.075,12.075,0,0,1-1.707.12,10.52,10.52,0,0,1-5.055-1.179,3.306,3.306,0,0,1-2-2.653ZM8.368,23.2a10.527,10.527,0,0,1-5.055-1.179,3.305,3.305,0,0,1-2-2.653V17.459a5.106,5.106,0,0,0,1.764,1.548A10.951,10.951,0,0,0,8.368,20.25a12.573,12.573,0,0,0,2-.166,7.891,7.891,0,0,0,2.123,2.377A11.3,11.3,0,0,1,8.368,23.2Zm4.124-9.322c0-1.538.84-2.4,1.857-2.4,1.076,0,1.786.828,1.786,2.295,0,1.621-.852,2.425-1.845,2.425C13.332,16.194,12.5,15.425,12.493,13.875Zm2.389,5.547h-.662l4.518-7.948H19.4Zm4.424-.047c-.958,0-1.786-.769-1.8-2.307s.84-2.413,1.857-2.413c1.076,0,1.774.828,1.774,2.295C21.139,18.571,20.287,19.375,19.306,19.375Z"/><path class="a" d="M110.893,100.11c0-.934-.272-1.715-.993-1.715-.651,0-.994.769-.994,1.739-.024.982.343,1.727.994,1.727C110.585,101.861,110.893,101.127,110.893,100.11Z" transform="translate(-95.585 -86.294)"/><path class="a" d="M153.081,125.844c-.65,0-1.005.769-1.005,1.739s.367,1.727,1.005,1.727c.686,0,.994-.733.994-1.751C154.075,126.625,153.8,125.844,153.081,125.844Z" transform="translate(-133.752 -110.561)"/></g></svg>
