<svg width="20" height="20" viewBox="0 0 20 20" fill="none" xmlns="http://www.w3.org/2000/svg">
<path fill-rule="evenodd" clip-rule="evenodd" d="M8.78158 0.447225C9.55728 0.102472 10.4427 0.102471 11.2184 0.447225L19.4061 4.08622C19.7673 4.24672 20 4.60484 20 5.00003C20 5.39522 19.7673 5.75334 19.4061 5.91384L15.8372 7.50003L19.4061 9.08622C19.7673 9.24672 20 9.60484 20 10C20 10.3952 19.7673 10.7533 19.4061 10.9138L15.8372 12.5L19.4061 14.0862C19.7673 14.2467 20 14.6048 20 15C20 15.3952 19.7673 15.7533 19.4061 15.9138L11.2184 19.5528C10.4427 19.8976 9.55728 19.8976 8.78158 19.5528L0.593861 15.9138C0.232733 15.7533 -1.19209e-07 15.3952 0 15C1.1921e-07 14.6048 0.232734 14.2467 0.593862 14.0862L4.16278 12.5L0.593861 10.9138C0.232733 10.7533 -1.19209e-07 10.3952 0 10C5.96049e-08 9.60484 0.232734 9.24671 0.593862 9.08621L4.16278 7.50003L0.593861 5.91384C0.232733 5.75333 -1.19209e-07 5.39521 0 5.00002C5.96049e-08 4.60484 0.232734 4.24671 0.593862 4.08621L8.78158 0.447225ZM6.625 8.59434L3.46221 10L9.59386 12.7252C9.85243 12.8401 10.1476 12.8401 10.4061 12.7252L16.5378 10L13.375 8.59435L11.2184 9.55283C10.4427 9.89758 9.55728 9.89758 8.78158 9.55283L6.625 8.59434ZM6.625 13.5943L3.46221 15L9.59386 17.7252C9.85243 17.8401 10.1476 17.8401 10.4061 17.7252L16.5378 15L13.375 13.5943L11.2184 14.5528C10.4427 14.8976 9.55728 14.8976 8.78158 14.5528L6.625 13.5943ZM10.4061 2.27485C10.1476 2.15993 9.85243 2.15993 9.59386 2.27485L3.46221 5.00003L9.59386 7.7252C9.85243 7.84012 10.1476 7.84012 10.4061 7.7252L16.5378 5.00003L10.4061 2.27485Z" fill="#505159"/>
</svg>
