<?xml version="1.0" standalone="no"?>
<!DOCTYPE svg PUBLIC "-//W3C//DTD SVG 20010904//EN"
 "http://www.w3.org/TR/2001/REC-SVG-20010904/DTD/svg10.dtd">
<svg version="1.0" xmlns="http://www.w3.org/2000/svg"
 width="295.000000pt" height="353.000000pt" viewBox="0 0 295.000000 353.000000"
 preserveAspectRatio="xMidYMid meet">

<g transform="translate(0.000000,353.000000) scale(0.100000,-0.100000)"
fill="#000000" stroke="none">
<path d="M1325 3469 c-308 -48 -561 -276 -642 -579 -26 -95 -26 -447 0 -540
41 -151 120 -277 237 -378 312 -270 718 -270 1030 0 117 101 196 227 237 378
26 93 26 445 0 540 -72 268 -295 494 -552 560 -92 23 -229 32 -310 19z m245
-311 c152 -46 289 -189 325 -339 9 -40 15 -114 15 -199 0 -209 -30 -297 -140
-408 -98 -98 -201 -142 -335 -142 -134 0 -237 43 -335 142 -69 69 -113 150
-130 237 -15 78 -12 285 5 364 36 173 210 335 384 357 65 9 160 3 211 -12z"/>
<path d="M635 1574 c-98 -24 -251 -104 -337 -178 -94 -80 -155 -164 -201 -277
-54 -129 -70 -214 -65 -333 14 -280 180 -536 430 -661 163 -81 145 -80 973
-80 828 0 810 -1 973 80 250 125 416 381 430 661 5 119 -11 204 -65 333 -71
173 -197 304 -378 391 -169 83 -138 80 -968 79 -596 -1 -743 -4 -792 -15z
m315 -744 c126 -253 230 -467 230 -475 0 -23 -406 -22 -499 1 -114 29 -189 80
-263 182 -156 212 -102 535 113 672 50 33 154 79 176 80 7 0 116 -207 243
-460z m860 455 c0 -10 -370 -745 -375 -745 -5 0 -375 735 -375 745 0 3 169 5
375 5 206 0 375 -2 375 -5z m466 -40 c171 -83 264 -233 264 -425 0 -115 -25
-198 -88 -282 -74 -102 -149 -153 -263 -182 -93 -23 -499 -24 -499 -1 0 8 104
222 231 476 263 528 221 479 355 414z"/>
</g>
</svg>
