<svg xmlns="http://www.w3.org/2000/svg" xmlns:xlink="http://www.w3.org/1999/xlink" width="213.504" height="150" viewBox="0 0 213.504 150"><defs><style>.a,.e{fill:#6c63ff;}.a,.b,.g{opacity:0.1;}.c{fill:#f7f7fd;}.d,.j{opacity:0.2;}.f{fill:#fff;}.h{fill:#ffd037;}.i{fill:#a8a8a8;}.k{fill:#d38884;}.l{fill:#4c4981;}.m{opacity:0.05;}.n{fill:#ceddf9;}.o{fill:#cc8294;}.p{fill:#1e1637;}.q{fill:#ffd2c6;}.r{fill:#626696;}.s{fill:#ffcde5;}.t{fill:#985c7e;}.u{fill:url(#a);}.v{fill:#db8b8b;}.w{fill:#2e3037;}.x{fill:#474463;}.y{fill:#fc6681;}.z{fill:#472727;}.aa{fill:none;stroke:#565987;stroke-miterlimit:10;}</style><linearGradient id="a" x1="31.936" y1="1" x2="31.936" gradientUnits="objectBoundingBox"><stop offset="0" stop-color="gray" stop-opacity="0.251"/><stop offset="0.54" stop-color="gray" stop-opacity="0.122"/><stop offset="1" stop-color="gray" stop-opacity="0.102"/></linearGradient></defs><g transform="translate(-0.006 0.002)"><path class="a" d="M192.556,89.56c-9.161,6.414-21.044,6-31.457,2.662s-19.978-9.28-30.124-13.5a97.893,97.893,0,0,0-26.467-6.9c-12.931-1.48-27.371.323-36.379,10.7C58.1,94.063,58.866,114.893,69.713,125.5c5.52,5.392,12.748,8.038,19.051,12.247s12.142,11.2,11.605,19.317c-.5,7.527-6.275,13.3-12.255,16.918-4.621,2.8-10.312,5.855-10.869,11.653-.539,5.61,4.247,10,8.817,12.5a50.078,50.078,0,0,0,48.133-.2c5.3-2.961,10.161-6.891,15.718-9.185,14.589-6.045,30.665.042,46.113,2.266a92.182,92.182,0,0,0,39.22-2.854c7.65-2.26,15.329-5.715,20.7-12.15,3.876-4.641,6.291-10.512,8.557-16.314q3.625-9.276,6.97-18.685a47.1,47.1,0,0,0,3-11.631c.626-7.3-2.012-14.515-5.606-20.676-8.531-14.638-22.9-24.922-38.461-27.535s-32.024,2.49-44.092,13.656" transform="translate(-61.06 -71.37)"/><g class="b" transform="translate(106.341 20.237)"><path d="M598.655,173.785l-.755,43.776s27.319,0,50.564,7.547l.452-44.223S611.635,171.973,598.655,173.785Z" transform="translate(-597.9 -173.542)"/></g><path class="c" d="M595.655,169.785l-.755,43.776s27.319,0,50.564,7.547l.452-44.223S608.635,167.973,595.655,169.785Z" transform="translate(-489.153 -150.098)"/><g class="b" transform="translate(43.12 21.493)"><path d="M328.991,180.124l.755,43.776s-27.319,0-50.562,7.547l-.454-44.223S316.01,178.322,328.991,180.124Z" transform="translate(-278.73 -179.883)"/></g><path class="c" d="M331.991,175.124l.755,43.776s-27.319,0-50.562,7.547l-.454-44.223S319.01,173.322,331.991,175.124Z" transform="translate(-238.015 -154.381)"/><g class="d" transform="translate(54.75 25.721)"><path class="e" d="M364.395,201.357l.406,23.474s-14.658,0-27.117,4.047l-.244-23.716S357.434,200.39,364.395,201.357Z" transform="translate(-337.44 -201.227)"/></g><g class="b" transform="translate(173.459 36.582)"><path d="M936.74,256.06v43.318s8.914-1.058,27.622,22.036l1.66-43.318S946.551,257.116,936.74,256.06Z" transform="translate(-936.74 -256.06)"/></g><path class="c" d="M934.74,253.06v43.318s8.914-1.058,27.622,22.036l1.66-43.318S944.551,254.116,934.74,253.06Z" transform="translate(-761.677 -217.072)"/><g class="b" transform="translate(0.106 36.78)"><path d="M90.85,257.06v43.318s-8.906-1.058-27.61,22.036L61.57,279.1S81.039,258.116,90.85,257.06Z" transform="translate(-61.57 -257.06)"/></g><path class="c" d="M93.85,253.06v43.318s-8.906-1.058-27.61,22.036L64.57,275.1S84.039,254.116,93.85,253.06Z" transform="translate(-63.87 -217.072)"/><g class="d" transform="translate(113.801 28.793)"><path class="e" d="M574.5,145.37l18.507,3.31v2.7L574.5,147.822Z" transform="translate(-574.5 -145.37)"/></g><path class="f" d="M319.585,276.87l-18.5,3.31v2.7l18.5-3.554Z" transform="translate(-241.438 -222.029)"/><path class="f" d="M575.74,170.74l33.824,6.986v2.7l-33.824-7.23Z" transform="translate(-461.693 -136.921)"/><path class="f" d="M575.74,196.11l33.824,6.984v2.7L575.74,198.56Z" transform="translate(-461.693 -157.266)"/><g class="d" transform="translate(180.95 49.976)"><path class="e" d="M913.5,252.31v2.379l7.256,5.895.341-2.04Z" transform="translate(-913.5 -252.31)"/></g><path class="f" d="M913.5,368.31v2.379l7.256,5.895.341-2.04Z" transform="translate(-732.55 -295.357)"/><path class="f" d="M913.615,272.91l-.115,2.381,13.717,12.921-.226-2.72Z" transform="translate(-732.55 -218.854)"/><path class="f" d="M913.5,295.23V297.5l13.717,13.151V307.7Z" transform="translate(-732.55 -236.752)"/><g class="d" transform="translate(8.375 50.491)"><path class="e" d="M55.862,254.91l.113,2.381L42.26,270.212l.226-2.72Z" transform="translate(-42.26 -254.91)"/></g><g class="d" transform="translate(8.375 54.912)"><path class="e" d="M55.975,277.23V279.5L42.26,292.647V289.7Z" transform="translate(-42.26 -277.23)"/></g><ellipse class="a" cx="11.291" cy="2.032" rx="11.291" ry="2.032" transform="translate(29.243 121.148)"/><path class="e" d="M118.354,636.84s1.087,1.422-.5,3.565-2.9,3.962-2.377,5.3c0,0,2.4-3.989,4.358-4.045S120.5,639.249,118.354,636.84Z" transform="translate(-104.597 -524.833)"/><path class="g" d="M118.622,636.84a1.71,1.71,0,0,1,.222.446c1.906,2.238,2.922,4.328,1.089,4.382-1.705.048-3.764,3.1-4.243,3.87.016.057.036.117.057.174,0,0,2.4-3.989,4.358-4.045S120.771,639.249,118.622,636.84Z" transform="translate(-104.864 -524.833)"/><path class="h" d="M139.682,644.7c0,.5-.055.907-.125.907s-.127-.406-.127-.907.071-.265.141-.265S139.682,644.2,139.682,644.7Z" transform="translate(-123.902 -530.877)"/><path class="h" d="M140.728,647.614c-.44.24-.824.384-.858.325s.3-.3.737-.545.265-.065.3,0S141.168,647.376,140.728,647.614Z" transform="translate(-124.253 -533.198)"/><path class="e" d="M91.572,636.84s-1.083,1.418.5,3.571,2.9,3.962,2.377,5.3c0,0-2.4-3.989-4.358-4.045S89.425,639.249,91.572,636.84Z" transform="translate(-83.563 -524.833)"/><path class="g" d="M91.56,636.84a1.783,1.783,0,0,0-.222.446c-1.906,2.238-2.922,4.328-1.089,4.382,1.707.048,3.764,3.1,4.243,3.87a1.5,1.5,0,0,1-.057.174s-2.4-3.989-4.358-4.045S89.413,639.249,91.56,636.84Z" transform="translate(-83.551 -524.833)"/><path class="h" d="M91.26,644.7c0,.5.055.907.125.907s.127-.406.127-.907-.071-.265-.141-.265S91.26,644.2,91.26,644.7Z" transform="translate(-85.274 -530.877)"/><path class="h" d="M86.675,647.614c.44.24.822.384.856.325s-.3-.3-.737-.545-.265-.065-.3,0S86.235,647.376,86.675,647.614Z" transform="translate(-81.382 -533.198)"/><path class="i" d="M93,674.035s3.042-.093,3.962-.747,4.679-1.432,4.906-.384,4.572,5.207,1.137,5.235-7.981-.535-8.9-1.093S93,674.035,93,674.035Z" transform="translate(-86.669 -553.343)"/><path class="j" d="M103.074,684.414c-3.435.028-7.981-.535-8.9-1.093-.7-.424-.975-1.947-1.068-2.65h-.1s.2,2.454,1.107,3.011,5.461,1.121,8.9,1.093c.99,0,1.335-.36,1.315-.883C104.192,684.21,103.813,684.408,103.074,684.414Z" transform="translate(-86.677 -559.982)"/><ellipse class="a" cx="18.619" cy="3.189" rx="18.619" ry="3.189" transform="translate(100.332 90.048)"/><path class="k" d="M625.833,322.456a2.594,2.594,0,0,0-.2.608q-.018.079-.036.166c-.119.606-.2,1.369-.24,1.812-.02.222-.03.364-.03.364s-4.3-.287-3.552-1.008a1.585,1.585,0,0,0,.4-.713c.022-.077.04-.155.055-.234a4.008,4.008,0,0,0,.069-.545v-.139a5.611,5.611,0,0,0-.042-.889s1.4,0,2.45.113C625.417,322.074,625.97,322.215,625.833,322.456Z" transform="translate(-510.638 -272.261)"/><path class="k" d="M600.37,373.5c-1.464-.048-.384-3.1-.216-3.506s-.25-1.414-.25-1.414-.5-2.9-.5-3.094a7.756,7.756,0,0,0-.166-1.177,1.981,1.981,0,0,1,.2-1.153,4.141,4.141,0,0,0,.143-1.319v-1.367l.327-.432.834.792.232.218.408,1.529-.145,2.191-.077,2.133.505,2.951S601.844,373.551,600.37,373.5Z" transform="translate(-492.622 -302.862)"/><path class="g" d="M541.228,289.833l-1.248-.519v-.2l.325-.432.836.788Z" transform="translate(-433.017 -231.5)"/><path class="l" d="M601.713,350.11a5.757,5.757,0,0,0-.347,1.224,5.426,5.426,0,0,1-.327,1.175l1.387.576Z" transform="translate(-494.077 -294.899)"/><path class="m" d="M601.713,350.11a5.757,5.757,0,0,0-.347,1.224,5.426,5.426,0,0,1-.327,1.175l1.387.576Z" transform="translate(-494.077 -294.899)"/><path class="k" d="M640.938,462.924l-.115.246s-.125.814-.125.834-.36.563-.36.563l-.905.2-.384-.048a5.409,5.409,0,0,0-.1-.666c-.014-.061-.028-.125-.046-.188a5.087,5.087,0,0,0-.632-1.434,11.824,11.824,0,0,0-.911-1.872,7.712,7.712,0,0,1-1.056-2.928,15.366,15.366,0,0,0-.038-2.068c-.04-.66-.083-1.214-.083-1.214L638.46,453l.265.418.158.248a1.136,1.136,0,0,1-.01.127v.03a4.228,4.228,0,0,1-.2.99s-.17,1.224,0,1.44a25.775,25.775,0,0,1,.834,4.437v.121a2.678,2.678,0,0,0,.81,1.561h0c.024.028.049.053.075.079A5.227,5.227,0,0,0,640.938,462.924Z" transform="translate(-522.256 -377.408)"/><path class="g" d="M650.075,502.425l.384.048.905-.2s.361-.545.361-.563.125-.834.125-.834l.115-.246.014-.03a4.809,4.809,0,0,1-.622-.513h0c-.022-.02-.044-.04-.063-.061a1.179,1.179,0,0,1-.561,1.147c-.335.172-.61.305-.8.4Z" transform="translate(-533.282 -415.121)"/><path class="n" d="M652.291,501.362l-.129.275s-.125.814-.125.834-.361.563-.361.563l-.905.2-.521-.061a3.442,3.442,0,0,0-.044-.434c-.016-.109-.038-.23-.067-.361.2-.089.505-.236.9-.44a1.123,1.123,0,0,0,.561-1.147,5.464,5.464,0,0,0,.473.42Z" transform="translate(-533.451 -415.732)"/><path class="g" d="M652.564,503.063l-.129.275s-.125.814-.125.834-.361.563-.361.563l-.905.2-.521-.061a3.442,3.442,0,0,0-.044-.434,1.8,1.8,0,0,1,.329.046s1.236.263,1.3-.715c.036-.555.151-.773.242-.858Z" transform="translate(-533.724 -417.432)"/><path class="o" d="M651.326,500.565s-.307-.067-.368.909-1.3.715-1.3.715-.606-.151-.612.1a2.354,2.354,0,0,0,.162.677,2.109,2.109,0,0,0,.151.721c.115.139.042.654.042.654s.048.384,1,0a2.779,2.779,0,0,0,1.559-1.236c.024-.036-.083-.145.535-.366s2.377-1.644,2.25-2.339a.594.594,0,0,0-.42-.5.723.723,0,0,0-.553.075,4.377,4.377,0,0,1-.517.238,2.538,2.538,0,0,1-.737.176,2.833,2.833,0,0,0-.572.109A1.189,1.189,0,0,1,651.326,500.565Z" transform="translate(-532.577 -415)"/><path class="k" d="M599.286,465.513a1.681,1.681,0,0,0-.349.4c-.349.533-.559,1.278-.792,1.6a3.162,3.162,0,0,0-.4,1.224,26.361,26.361,0,0,1-1.511,3.87,12.633,12.633,0,0,0-.729,1.872,1.477,1.477,0,0,0-.218,1.038.208.208,0,0,0,.012.093.036.036,0,0,1,0,.038v.014l-.416.707-1.323-.184-.683-.464a2.327,2.327,0,0,0,.149-.283,12.52,12.52,0,0,0,.626-2.274,15.577,15.577,0,0,0,.341-2.052,15.577,15.577,0,0,1,.109-1.585,38.673,38.673,0,0,1,1.375-3.694,1.482,1.482,0,0,0,.25-.683.571.571,0,0,0,0-.149l.448-.446S599.86,465.055,599.286,465.513Z" transform="translate(-487.533 -386.671)"/><path class="g" d="M595.372,519.495v.156l-.416.707-1.323-.184-.683-.464a2.329,2.329,0,0,0,.149-.283,2.7,2.7,0,0,1,1.093.174s.822.156,1.169-.1A.021.021,0,0,1,595.372,519.495Z" transform="translate(-487.589 -430.662)"/><path class="n" d="M593.125,521.975l-1.343.321-1.232-.911.063-.513a.885.885,0,0,0,.226-.2.811.811,0,0,0,.178-.368c.071-.378,1.242.036,1.242.036s.856.162,1.188-.109a2.088,2.088,0,0,0,.063.741.553.553,0,0,0,.2.3C594.052,521.5,593.125,521.975,593.125,521.975Z" transform="translate(-485.664 -431.254)"/><path class="g" d="M593.125,524.111l-1.343.321-1.232-.911.063-.513a.884.884,0,0,0,.226-.2h.269c.2.02.693.9.693.9,1.216.081,1.585-.317,1.709-.61a.553.553,0,0,0,.2.3C594.052,523.64,593.125,524.111,593.125,524.111Z" transform="translate(-485.664 -433.39)"/><path class="o" d="M586.99,524.413s-.487-.881-.693-.9a4.671,4.671,0,0,0-.523,0,6.609,6.609,0,0,1-.737,1.387c-.2.109-.487.721-.487.721s1.426,1.387,2.8,1.115a2.859,2.859,0,0,1,1.264.315c.638.333,3.3.081,3.627-.5.242-.44.339-.759.125-.99a.579.579,0,0,0-.5-.17,1.886,1.886,0,0,1-1.747-.773,15.846,15.846,0,0,0-1.315-1.115C588.708,523.5,588.888,524.54,586.99,524.413Z" transform="translate(-480.853 -433.944)"/><path class="g" d="M638.886,453.81l-.01.012a4.535,4.535,0,0,1-.848.78,8.467,8.467,0,0,0-.864.382s-.361.481-.648.505a1.133,1.133,0,0,0-.254.067c-.04-.66-.083-1.214-.083-1.214L638.46,453l.265.418c.059.168.127.325.149.374Z" transform="translate(-522.256 -377.408)"/><path class="n" d="M606.4,408.456a2.459,2.459,0,0,0,0,2.692,8.967,8.967,0,0,0,1.824,2.3l3.023,6.263a4.94,4.94,0,0,1,1.082-.456c.289-.024.648-.5.648-.5a8.392,8.392,0,0,1,.864-.384c.2-.048.858-.792.858-.792s-.331-.719-.258-.911-.216-.673-.216-.673a3.962,3.962,0,0,1-.2-.743,1.951,1.951,0,0,0-.313-.648,2.051,2.051,0,0,1-.311-.745,7.093,7.093,0,0,0-.465-1.3L612.819,408Z" transform="translate(-498.061 -341.322)"/><path class="m" d="M614.643,417.579a4.792,4.792,0,0,1-.858.792,8.392,8.392,0,0,0-.864.384s-.36.479-.648.5a2.3,2.3,0,0,0-.594.212c-.258.117-.489.244-.489.244l-3.025-6.263a6.552,6.552,0,0,1-.735-.753,10.4,10.4,0,0,1-1.089-1.551A2.6,2.6,0,0,1,606,409.28a2.149,2.149,0,0,1,.345-.822l2.151-.152,4.284-.305.036,1.349.079,3.207s.069.16.156.372a4.073,4.073,0,0,1,.3.923,2.034,2.034,0,0,0,.311.745,2.013,2.013,0,0,1,.313.648,4.017,4.017,0,0,0,.2.745s.289.479.218.67S614.643,417.579,614.643,417.579Z" transform="translate(-498.013 -341.322)"/><path class="g" d="M610.785,465.465a1.681,1.681,0,0,0-.349.4,7.387,7.387,0,0,1-3.217-.776.571.571,0,0,0,0-.149l.448-.446S611.36,465.007,610.785,465.465Z" transform="translate(-499.032 -386.622)"/><path class="n" d="M614.251,408.055s-.2.672-.263.959-.216,1.705-.216,1.705l-.083.4-1.371,6.537-.3,1.42c-.527.289-1.846-.481-1.846-.481a7.325,7.325,0,0,1-3.433-.814,4.966,4.966,0,0,0,.24-1.511,1.159,1.159,0,0,1,.432-.913,11.412,11.412,0,0,1,.311-2.448s.1-.743.458-.935-.047-.479-.145-.65a.735.735,0,0,1,.034-.44,3.278,3.278,0,0,1,.111-.327,4.546,4.546,0,0,1-1.058-3.14,5.077,5.077,0,0,1,.026-.58l1.981-.347,4.328-.757.442,1.359h0l.111.341Z" transform="translate(-498.647 -339.502)"/><path class="g" d="M628.125,322.448a2.594,2.594,0,0,0-.2.608q-.018.079-.036.166a1.819,1.819,0,0,1-1.21.273c-.184,0-.287-.353-.461-.4,0,0-.261-.943-.335-.149-.5-.1-.937.289-1.293-.053h0v-.139a5.611,5.611,0,0,0-.042-.889s1.4,0,2.45.113C627.709,322.066,628.262,322.207,628.125,322.448Z" transform="translate(-512.93 -272.253)"/><path class="k" d="M625.96,305.809a2.678,2.678,0,0,1-3.211,2.621h0a2.674,2.674,0,1,1,2.868-3.934A2.627,2.627,0,0,1,625.96,305.809Z" transform="translate(-509.774 -257.23)"/><path class="g" d="M625.36,332.357c-.02.222-.03.364-.03.364s-4.3-.287-3.552-1.008a1.585,1.585,0,0,0,.4-.713l1.864.305s.527.408.935.792A1.694,1.694,0,0,0,625.36,332.357Z" transform="translate(-510.638 -279.574)"/><path class="g" d="M613.586,407.526a1.387,1.387,0,0,1-.565-.042,1.144,1.144,0,0,1-.228-.1c-.361-.216-1.559.05-1.559.05a17.963,17.963,0,0,1-3.409,0c-.081-.125-.658-.107-1.129-.069-.2.016-.366.036-.487.048a2.149,2.149,0,0,1,.345-.822l2.151-.152,4.328-.757.442,1.359h0A4.876,4.876,0,0,0,613.586,407.526Z" transform="translate(-498.222 -339.461)"/><path class="l" d="M608.792,331.714l-2.341-.384a.7.7,0,0,1-.442.384,5.747,5.747,0,0,0-2.327,1.656l-.624.866s-.505.624-.337,1.127a19.02,19.02,0,0,1,.361,2.209l.24,1.9a5.425,5.425,0,0,1,.313,1.969,20.377,20.377,0,0,0,.071,3.12l-.479,3.12s1.63-.216,1.783,0a17.961,17.961,0,0,0,3.409,0s1.188-.265,1.559-.05a1.3,1.3,0,0,0,.792.145,3.581,3.581,0,0,1-.121-1.535,6.155,6.155,0,0,0,.121-1.561,7.146,7.146,0,0,0,.119-1.727c-.121-.263.265-1.224.265-1.224l1.272-6.7s-.154-1.2-.834-1.608a14.622,14.622,0,0,1-1.854-.911C609.329,332.126,608.792,331.714,608.792,331.714Z" transform="translate(-495.397 -279.839)"/><path class="k" d="M639,364.393v.792l.739,1.993.267,1.848a9.121,9.121,0,0,1,.481,1.783,14.968,14.968,0,0,0,1.175,2.664s.321.745.16.887-1.551,3.312.2,3.217,1.2-3.407,1.2-3.407l-.24-1.44s-.337-3.6-.337-3.865c0,0-.432-1.535-.479-1.872s-.361-2.04-.361-2.04l-.263-1.1Z" transform="translate(-524.517 -305.917)"/><path class="g" d="M559.849,307.82l-2.609,1.494-.81,1.224,1.08-1.1Z" transform="translate(-446.208 -246.849)"/><path class="g" d="M616.181,393.63a5.208,5.208,0,0,1-1.747.774c-.559,0-1.854,1.331-1.854,1.331a16.632,16.632,0,0,1,1.981-1.151A11.141,11.141,0,0,0,616.181,393.63Z" transform="translate(-503.331 -329.798)"/><path class="g" d="M611.857,395.72s-1.115,1.008-.828,1.117,1.783-1.117,1.783-1.117Z" transform="translate(-502.049 -331.474)"/><path class="g" d="M637.587,377.55s-.864,1.171-.63,1.153.9-.685.9-.685Z" transform="translate(-522.847 -316.903)"/><path class="g" d="M637.285,383.37s-.935,1.062-.9,1.331S637.285,383.37,637.285,383.37Z" transform="translate(-522.42 -321.571)"/><path class="g" d="M640.389,386.05s-.63,1.125-.361,1.359S640.389,386.05,640.389,386.05Z" transform="translate(-525.289 -323.72)"/><path class="g" d="M636.98,371.46s-.469.792-.127.846.376,0,.376,0Z" transform="translate(-522.695 -312.02)"/><path class="g" d="M635.966,356.83a8.275,8.275,0,0,1-.479,1.412,6.543,6.543,0,0,1-.186-.707A4.829,4.829,0,0,1,635.966,356.83Z" transform="translate(-521.55 -300.288)"/><path class="g" d="M625.624,304.51a1.164,1.164,0,0,1-.18.279,2.066,2.066,0,0,0-.325.372,2,2,0,0,0-.117.636c-.036.214-.17.452-.4.458a.8.8,0,0,1-.317-.1.323.323,0,0,0-.315.01.352.352,0,0,0-.1.238,3.148,3.148,0,0,0-.032.563,1.412,1.412,0,0,0,.012.224,1.258,1.258,0,0,1-.042.713.864.864,0,0,1-.444.357,2.745,2.745,0,0,1-.622.174h0a6.839,6.839,0,0,1-1.226.04.3.3,0,0,1-.111-.018.157.157,0,0,1-.048-.03,3.742,3.742,0,0,0,.073-.683,2.674,2.674,0,1,1,4.189-3.237Z" transform="translate(-509.781 -257.243)"/><path class="p" d="M619.838,298.557a2.324,2.324,0,0,0-.719.158,7.327,7.327,0,0,1-1.517-.115,2.816,2.816,0,0,0-1.248.372,3.012,3.012,0,0,0-.832.582,1.357,1.357,0,0,0-.4.915,1.5,1.5,0,0,1-.018.594,1.675,1.675,0,0,1-.182.277.824.824,0,0,0-.085.687,2.282,2.282,0,0,0,.41.614c.329.422.535.927.83,1.375a4.285,4.285,0,0,0,.432.549.3.3,0,0,0,.093.073.285.285,0,0,0,.109.016,4.374,4.374,0,0,0,1.85-.214.846.846,0,0,0,.444-.357,1.258,1.258,0,0,0,.044-.713,3.269,3.269,0,0,1,.018-.792.349.349,0,0,1,.1-.236.317.317,0,0,1,.317-.01.864.864,0,0,0,.315.1c.216,0,.353-.246.4-.46a1.078,1.078,0,0,1,.442-1.008,1.513,1.513,0,0,0-.8-2.4Z" transform="translate(-505.112 -253.554)"/><path class="g" d="M637.914,345.151a3.116,3.116,0,0,0,0,.99c-.024.265,0,1.729,0,1.729a8.286,8.286,0,0,0-2.807.24l-.24-.719a1.783,1.783,0,0,1-.3-.594,6.594,6.594,0,0,1-.186-.709,14.7,14.7,0,0,1-.236-1.507c-.1-.763,1.034-1.585,1.894-2.04s1.612,1.488,1.612,1.488A2.4,2.4,0,0,1,637.914,345.151Z" transform="translate(-520.619 -288.773)"/><path class="l" d="M637.914,344.451a3.127,3.127,0,0,0,0,.99c-.024.263,0,1.727,0,1.727a8.339,8.339,0,0,0-2.807.24l-.24-.719a1.762,1.762,0,0,1-.3-.594,6.541,6.541,0,0,1-.186-.707,14.8,14.8,0,0,1-.236-1.507c-.1-.765,1.034-1.585,1.894-2.042s1.612,1.488,1.612,1.488A2.378,2.378,0,0,1,637.914,344.451Z" transform="translate(-520.619 -288.209)"/><path class="j" d="M620.915,302.316a1.584,1.584,0,0,0-.176-.386c.012.034.024.065.034.1a1.525,1.525,0,0,1-.271,1.353,1.078,1.078,0,0,0-.442,1.008c-.034.214-.17.45-.4.458a.8.8,0,0,1-.317-.1.323.323,0,0,0-.315.01.353.353,0,0,0-.1.238,3.247,3.247,0,0,0-.018.792,1.282,1.282,0,0,1-.044.715.881.881,0,0,1-.444.357,4.374,4.374,0,0,1-1.85.214.287.287,0,0,1-.109-.018.255.255,0,0,1-.093-.073,3.836,3.836,0,0,1-.432-.549c-.3-.448-.5-.951-.83-1.375a4.02,4.02,0,0,1-.271-.349v.024a2.193,2.193,0,0,0,.41.614c.327.422.535.927.828,1.375a4.127,4.127,0,0,0,.434.549.3.3,0,0,0,.091.073.291.291,0,0,0,.109.016,4.371,4.371,0,0,0,1.85-.214.846.846,0,0,0,.444-.357,1.257,1.257,0,0,0,.044-.713,3.482,3.482,0,0,1,.018-.792.367.367,0,0,1,.1-.236.317.317,0,0,1,.317-.01.864.864,0,0,0,.315.1c.218,0,.353-.246.4-.46a1.946,1.946,0,0,1,.117-.636,1.993,1.993,0,0,1,.325-.372A1.529,1.529,0,0,0,620.915,302.316Z" transform="translate(-505.143 -256.262)"/><path class="q" d="M717.932,298.432l-1.711,3.637a3.115,3.115,0,0,1-.414.81,18.842,18.842,0,0,0-.881,2.286l-1.836,2.829h0l-.125.2-.719-.2-.505-1.886.03-.547v-.069a11.065,11.065,0,0,1,1.387-1.278s.2.024.574-.9.721-1.119.721-1.119l.2-.666,2.125-3.385s1.783-2.553,2.268-1.42S717.932,298.432,717.932,298.432Z" transform="translate(-582.849 -251.857)"/><path class="q" d="M687.385,432.68a.41.41,0,0,1-.057.174c-.2.289-1.313,6.174-1.313,6.174a3.341,3.341,0,0,1-.325,1.549,22.693,22.693,0,0,0-.523,2.23,38.351,38.351,0,0,1-.321,4.663,4.909,4.909,0,0,0,.073,1.981,3.031,3.031,0,0,0,.572,1.61l.044.063c.071.1.119.162.119.162a.96.96,0,0,0,.252.311l.052.04a2.908,2.908,0,0,0,1.008.426H687c.143.032.238.046.238.046l.089.487-.953.2-1.818.125s-2.143.164-1.656-.792a1.521,1.521,0,0,0,.087-.2h0a1.509,1.509,0,0,0,.049-.143,4.93,4.93,0,0,0,.1-2.032l-.414-3.256a13.14,13.14,0,0,1,.537-6.39,1.576,1.576,0,0,1,.129-.953,6.444,6.444,0,0,0,0-2.179s-.125-1.925-.287-2.878a5.838,5.838,0,0,1-.065-1.214,6.052,6.052,0,0,1,.065-.709l4.1-.545A3.086,3.086,0,0,1,687.385,432.68Z" transform="translate(-559.409 -360.271)"/><path class="g" d="M688.615,530.948l-.953.2-1.818.125s-2.143.164-1.656-.792a1.514,1.514,0,0,0,.087-.2h0a1.486,1.486,0,0,0,.05-.143,3.368,3.368,0,0,1,1.085.218,1,1,0,0,0,1.07-.378l.3-.567.044-.081c.071.1.119.162.119.162a.99.99,0,0,0,.3.351l-.052.1-.287.606s.368.038.872.119a.4.4,0,0,0,.475-.26h.036c.143.032.238.046.238.046Z" transform="translate(-560.697 -438.619)"/><path class="r" d="M688.865,531.965c-.071.325-2.078.424-2.078.424s-1.117-.107-1.43.153-1.234.2-1.27.2-.521-.018-.711-.889.248-.99.267-1h0a3.286,3.286,0,0,1,1.135.22,1,1,0,0,0,1.07-.378l.341-.648c.071.1.119.162.119.162a.99.99,0,0,0,.3.351l-.339.711s.368.038.872.117a.418.418,0,0,0,.511-.4.475.475,0,0,0,0-.054s.313.091.7.2a.723.723,0,0,1,.509.836Z" transform="translate(-560.066 -439.188)"/><path class="q" d="M712.181,435.04c-.048.287-.1,1.032-.1,1.032a5.913,5.913,0,0,1-.263,2.106l-.216.846a17.179,17.179,0,0,1-.594,3.72s-.462,2.448-.7,3.5a2.9,2.9,0,0,0,.125,1.765l.018.044a.322.322,0,0,0,.014.059.622.622,0,0,0,.028.085,1.266,1.266,0,0,0,.236.4,1.17,1.17,0,0,0,.129.133h0a2.617,2.617,0,0,0,.765.471h0l.121.048a3.747,3.747,0,0,0,.382.119h.044l-.1.566-1.272-.327-1.7-.553-.826-.463a.528.528,0,0,1,.026-.133.043.043,0,0,0,0-.016.857.857,0,0,1,.026-.133,18.131,18.131,0,0,0,.293-4.358,15.438,15.438,0,0,1,.778-5.134,3.1,3.1,0,0,0,.145-1.105,7.494,7.494,0,0,1-.384-2.28s-.576-1.177-1.052-2.424a6.2,6.2,0,0,1-.343-1.262,4.275,4.275,0,0,1-.069-.921s3.865-3.528,4.288-.113c.014.117.028.226.042.335C712.4,434.186,712.227,434.761,712.181,435.04Z" transform="translate(-579.6 -358.341)"/><path class="g" d="M714.54,525.611l-.1.567-1.272-.327-1.7-.553-.838-.479a.528.528,0,0,1,.026-.133.043.043,0,0,0,0-.016.857.857,0,0,1,.026-.133h.119a1.564,1.564,0,0,1,.713.1,1.713,1.713,0,0,0,.715.172.9.9,0,0,1,.408-.071l.176-.4.028-.059a1.244,1.244,0,0,0,.236.4,1.517,1.517,0,0,0,.137.141v.137l-.01.2a2.482,2.482,0,0,0,.612.281.353.353,0,0,0,.17,0h0l.121.048a3.747,3.747,0,0,0,.382.119h0Z" transform="translate(-581.959 -434.569)"/><path class="r" d="M713.345,527.459c-.355-.1-1.21-.265-1.349-.139a4.613,4.613,0,0,1-1.325,0,.721.721,0,0,1-.612-.359,3.66,3.66,0,0,1-.048-1.626h.087l.147-.016h0a1.585,1.585,0,0,1,.713.1,1.694,1.694,0,0,0,.715.174.885.885,0,0,1,.408-.073l.2-.446a1.265,1.265,0,0,0,.236.4,1.291,1.291,0,0,0,.137.139l-.018.331a2.533,2.533,0,0,0,.612.283.248.248,0,0,0,.293-.093.234.234,0,0,0,.022-.05h0a2.188,2.188,0,0,0,.5.166h0a.919.919,0,0,1,.99.705C715.242,527.5,713.7,527.56,713.345,527.459Z" transform="translate(-581.401 -435.203)"/><path class="g" d="M689.5,432.68l-.22.067a3.074,3.074,0,0,1-.529.111,22.035,22.035,0,0,1-3.6.026,6.039,6.039,0,0,1,.065-.709l4.1-.545A3.1,3.1,0,0,1,689.5,432.68Z" transform="translate(-561.526 -360.271)"/><path class="r" d="M691.629,409.029s-1.505.234-2.732.5c-.408.089-.792.184-1.068.273a3.253,3.253,0,0,1-.529.113,23.021,23.021,0,0,1-3.789.014c-.666-2.159.808-4.879.808-4.879a2.763,2.763,0,0,1,.307-.879v-.022l.21-.771h5.6l.069.331.143.673.88,4.174Z" transform="translate(-560.073 -337.617)"/><path class="g" d="M712.055,431.135l-.034.014-.656.291a13.154,13.154,0,0,1-3.565.4,4.275,4.275,0,0,1-.069-.921s3.865-3.528,4.288-.113C712.027,430.917,712.041,431.034,712.055,431.135Z" transform="translate(-579.632 -358.413)"/><path class="r" d="M698.006,410l-.137.061-.656.291a13.459,13.459,0,0,1-3.613.4h-.184a.834.834,0,0,1-.648-.4c0-.044-.034-.257-.061-.44-.026-.147-.046-.273-.046-.273a17.323,17.323,0,0,1-2.179-1.127c-.549-.374-.41-3.035-.305-4.372.038-.462.071-.765.071-.765l5.665.331.792.046.454.1.121.026a18.892,18.892,0,0,0,.487,2.575c.16.2.055.864.036,1.244a2.261,2.261,0,0,1-.054.485,3,3,0,0,1,.18,1.038A2.074,2.074,0,0,0,698.006,410Z" transform="translate(-565.481 -337.617)"/><circle class="q" cx="2.321" cy="2.321" r="2.321" transform="translate(124.139 48.017)"/><path class="q" d="M686.02,330.364s.16,2.2-.289,2.7a20.468,20.468,0,0,1-1.62,1.458l.361,1.493,2.034.234,2.377-2.537-.541-.656a3.888,3.888,0,0,1-.073-2.106C688.608,330.253,686.02,330.364,686.02,330.364Z" transform="translate(-560.692 -279.059)"/><path class="g" d="M713.089,344.066h0l-.125.2-.719-.2-.505-1.886.03-.547.149-.214s.792.018.759.739A6.312,6.312,0,0,0,713.089,344.066Z" transform="translate(-582.849 -287.93)"/><path class="g" d="M697.1,404.148s-.572.127-1.228.212a3.547,3.547,0,0,1-1.723-.051c-.521-.309-3.344-.22-4.16-.188h-.139l.21-.771h5.6l.069.331.792.046.454.1C697.054,404.021,697.1,404.148,697.1,404.148Z" transform="translate(-565.295 -337.593)"/><path class="s" d="M682.8,342.13s.792.018.757.739a6.64,6.64,0,0,0,.432,1.961l-.18.414s-.252,1.008-.053,1.26.917.252.5,2.322a7.4,7.4,0,0,0,.127,2.052,16.768,16.768,0,0,0,.539,2.215,11.944,11.944,0,0,1,.757,1.674s-2.339.521-2.951.162-4.374-.18-4.374-.18.018-.63,0-.7a.582.582,0,0,1,.089-.458c.127-.172.325-.46.216-.711s.269-.624.071-1.014-.438-.467-.4-.681a.917.917,0,0,0-.222-.681c-.143-.18-1.115-2.082-1.115-2.082l-.162-.887s-1.252-.917-1.228-1.349a2.554,2.554,0,0,1,.473-1.032l1.2-1.188s.668.719,1.315.467a11.734,11.734,0,0,0,2.04-1.458s.5-.269.533-.467.343-.018.343-.018.45-.248.539-.16a1.585,1.585,0,0,0,.487.16Z" transform="translate(-553.874 -288.499)"/><path class="q" d="M654.152,361.06l-.382.3a5.06,5.06,0,0,0-.481,1.961,25.877,25.877,0,0,1-.485,3.039l-.757,1.353a34.481,34.481,0,0,0-1.4,3.3,8.66,8.66,0,0,1-.9,1.864s-2.5,2.248-.757,2.654,1.8-1.783,1.8-1.783a2.574,2.574,0,0,0,.473-.757c.077-.307,2.28-4.221,2.28-4.221s.774-1.054.612-1.612a16.911,16.911,0,0,0,1.008-2.971,10.447,10.447,0,0,0-.162-1.482l.162-1.242Z" transform="translate(-532.029 -303.68)"/><path class="g" d="M695.043,386.11a17.974,17.974,0,0,1-2.106.973c-.343.05,1.493-.2,1.493-.2Z" transform="translate(-567.737 -323.768)"/><path class="g" d="M697.367,389.74a11.239,11.239,0,0,1-3.367.65S696.559,390.875,697.367,389.74Z" transform="translate(-568.623 -326.679)"/><path class="g" d="M698.188,391.05s-2.108,1.325-3.348,1.109c0,0,2.9.576,3.348.269l-1.3-.359S698.33,391.307,698.188,391.05Z" transform="translate(-569.297 -327.729)"/><path class="g" d="M673.032,304.623a2.191,2.191,0,0,0-1.783.335c-.361.283-.594.717-1.006.929a5.39,5.39,0,0,1-.658.232,1.9,1.9,0,0,0-1.159,2.044c.063.357.23.685.313,1.038a4.081,4.081,0,0,1-.143,1.911,20.15,20.15,0,0,1-2,4.962.527.527,0,0,0-.1.333.489.489,0,0,0,.123.212,4.693,4.693,0,0,0,3.457,1.335,2.67,2.67,0,0,0,1.371-.228,2.076,2.076,0,0,0,.668-.612,3.252,3.252,0,0,0,.622-2.092,5.874,5.874,0,0,1-.083-1.8.459.459,0,0,1,.107-.22c.137-.141.364-.1.559-.127a1.232,1.232,0,0,0,.933-1.147,12.429,12.429,0,0,0-.073-1.585,3.34,3.34,0,0,1,.628-1.959,2.161,2.161,0,0,0,.46-.782,1.291,1.291,0,0,0-.335-.959,4.711,4.711,0,0,0-.889-1.369A2.4,2.4,0,0,0,673.032,304.623Z" transform="translate(-546.568 -258.371)"/><path class="t" d="M672.349,303.9a2.179,2.179,0,0,0-1.771.335c-.361.285-.594.719-1.008.931a5.75,5.75,0,0,1-.658.23,1.9,1.9,0,0,0-1.159,2.04c.063.357.23.685.313,1.038a4.055,4.055,0,0,1-.143,1.911,20.109,20.109,0,0,1-2,4.952.507.507,0,0,0-.1.333.457.457,0,0,0,.121.212,4.685,4.685,0,0,0,3.456,1.335,2.684,2.684,0,0,0,1.371-.226,2.1,2.1,0,0,0,.668-.614,3.255,3.255,0,0,0,.62-2.092,5.8,5.8,0,0,1-.085-1.8.5.5,0,0,1,.107-.22c.139-.141.365-.1.561-.125a1.235,1.235,0,0,0,.931-1.147,12.838,12.838,0,0,0-.071-1.585,3.32,3.32,0,0,1,.628-1.957,2.179,2.179,0,0,0,.46-.792,1.3,1.3,0,0,0-.337-.959,4.738,4.738,0,0,0-.889-1.369A2.4,2.4,0,0,0,672.349,303.9Z" transform="translate(-546.029 -257.791)"/><path class="g" d="M694.84,417.76s.462,2.161,1.23,2.747Z" transform="translate(-569.297 -349.149)"/><g class="b" transform="translate(119.793 48.257)"><path d="M675.921,323.442c-.024-.083-.051-.168-.081-.252C675.872,323.275,675.891,323.35,675.921,323.442Z" transform="translate(-673.853 -321.568)"/><path d="M674.444,315a.791.791,0,0,1,0,.2,2.106,2.106,0,0,1-.46.782,3.346,3.346,0,0,0-.628,1.959,13.363,13.363,0,0,1,.071,1.585,1.227,1.227,0,0,1-.931,1.145c-.2.024-.422-.014-.559.127a.5.5,0,0,0-.109.22,5.883,5.883,0,0,0,.085,1.8,3.254,3.254,0,0,1-.63,2.09,2.054,2.054,0,0,1-.668.612,2.66,2.66,0,0,1-1.369.228,4.754,4.754,0,0,1-3.415-1.289.33.33,0,0,0-.02.174.458.458,0,0,0,.121.212,4.685,4.685,0,0,0,3.456,1.335,2.684,2.684,0,0,0,1.371-.226,2.1,2.1,0,0,0,.668-.614,3.254,3.254,0,0,0,.62-2.092,5.8,5.8,0,0,1-.085-1.8.5.5,0,0,1,.107-.22c.139-.141.365-.1.561-.125a1.235,1.235,0,0,0,.931-1.147,12.838,12.838,0,0,0-.071-1.585,3.32,3.32,0,0,1,.628-1.957,2.179,2.179,0,0,0,.46-.792A.89.89,0,0,0,674.444,315Z" transform="translate(-665.81 -315)"/></g><ellipse class="a" cx="4.191" cy="0.424" rx="4.191" ry="0.424" transform="translate(21.401 98.634)"/><path class="e" d="M183.662,536.09s-5.467,2.825-2.642,6.14a1.05,1.05,0,0,0,1.034.672s-.154-.279.434-.5a2.859,2.859,0,0,0,.594-.313,1.386,1.386,0,0,0,.529-.707h0s1.119-1.5.252-4.263c0,0,.113-.792.014-.909l-.664.909a1.862,1.862,0,0,1,.767,1.139s-.715-1.137-.872-1.006c-.032.026-.329.5-.329.5a3.066,3.066,0,0,1,1.278,1.856s-.67-1.468-1.387-1.678l-.408.739a3.223,3.223,0,0,1,1.446,1.981s-.755-1.509-1.525-1.812l-.3.78s1.252.792,1.367,1.783c0,0-1.048-1.656-1.424-1.6a3.783,3.783,0,0,0-.2.959s.887.594.9,1.175c0,0-.818-1.034-.945-.965a4.423,4.423,0,0,0,.2,1.585,3.149,3.149,0,0,1-.362-1.585,1.721,1.721,0,0,0-.523.844s-.236-.572.539-1.1a4.007,4.007,0,0,1,.162-.907,3.717,3.717,0,0,0-1.188.911s.131-.749,1.268-1.121l.289-.792a5.406,5.406,0,0,0-1.49.905s.254-.743,1.585-1.1l.4-.729a6.441,6.441,0,0,0-1.5.729,2.55,2.55,0,0,1,1.624-.933l.321-.458s-.735.263-.939.357-.246.047-.246.047a2.631,2.631,0,0,1,1.315-.594A6.2,6.2,0,0,0,183.662,536.09Z" transform="translate(-156.604 -444.04)"/><path class="u" d="M223.507,442.882a2.327,2.327,0,0,0,2.595-.168l-.012,1.606a41.641,41.641,0,0,0,1.442,5.116l.961,3.3a25.835,25.835,0,0,1,1.058,7.184,6.866,6.866,0,0,0,.307,2.262,5.547,5.547,0,0,1-.511,3.829,15.988,15.988,0,0,1-1.585.446,1.087,1.087,0,0,0-.143.044v-.01a6.536,6.536,0,0,1-2.084.493.559.559,0,0,0-.4.975,2.907,2.907,0,0,1-.961.127c-.642-.079-.961,1.024.24,1.339s8.014,0,8.014,0a.967.967,0,0,0,.513-1.068c.523-.02.85-.036.85-.036s1.2-.551,0-2.046l-.063.05-.257-.757v-1.024s1.523-7.329,1.042-8.185-.721-5.273-.721-5.273l.16-4.8a11.394,11.394,0,0,0,.771-3.4,7.247,7.247,0,0,0,.307-1.614c.018-.257.034-.529.044-.81a5.438,5.438,0,0,0-.291-1.812,17.92,17.92,0,0,1,1.814-2.28,2.335,2.335,0,0,0,.721-2.046l-.4-2.676-.963-4.556a3.487,3.487,0,0,0-.436-2.409c.069-.408.135-.818.184-1.228a15.718,15.718,0,0,0-.281-5.348,3.628,3.628,0,0,0-.757-1.7c-.487-.525-1.276-.846-1.456-1.533a4.992,4.992,0,0,0-.111-.517c-.176-.452-.733-.614-1.22-.673a6.617,6.617,0,0,0-2.955.155,3.584,3.584,0,0,0-1.7,1.6,1.369,1.369,0,0,0-.2.99,1.3,1.3,0,0,0,.139.335,3.014,3.014,0,0,0-.2,1.056,3.072,3.072,0,0,0,1.961,2.848c.018.059.036.119.052.178a2.97,2.97,0,0,1,.077.428c-.014.279-.032.559-.046.836a.94.94,0,0,1-.03.113,20.554,20.554,0,0,0-2.014,1.028c.481.707-.079,3.7-.079,3.7a3.049,3.049,0,0,0-1.123,4.407,4.666,4.666,0,0,1,.561,3.912l-.2,3.078h0l-.04.614h.016l-.016.234h.034v.252a3.692,3.692,0,0,0-1.876,1.387,4.969,4.969,0,0,1-.84,1.03.618.618,0,0,0,.1,1.026Zm9.676-8.177a2.922,2.922,0,0,1,.285-1.547h.567c.02.133.042.259.069.374.162.7-.487,1.032-.921,1.173Z" transform="translate(-191.063 -345.805)"/><path class="v" d="M248.586,671.7l.309.925-1,1-3.316.771-2.391-.232.155-.848h0a1.02,1.02,0,0,1,.759-.747c.99-.232,2.856-.757,3.25-1.49Z" transform="translate(-206.307 -552.291)"/><path class="g" d="M248.586,671.7l.309.925-1,1-3.316.771-2.391-.232.155-.848h0a1.02,1.02,0,0,1,.759-.747c.99-.232,2.856-.757,3.25-1.49Z" transform="translate(-206.307 -552.291)"/><path class="w" d="M235.718,679.243l.464-.618-.464-.713a6.211,6.211,0,0,1-2,.481c-.618-.077-.925,1,.232,1.311s7.711,0,7.711,0,1.157-.539,0-2l-1,.771a5.786,5.786,0,0,1-2.545.772Z" transform="translate(-199.069 -557.6)"/><path class="v" d="M235.55,679.616l2.391.23,3.316-.771,1-1-.081-.246-.115-.345-.111-.335-2.236-.618a1.386,1.386,0,0,1-.454.456,9.665,9.665,0,0,1-2.8,1.034l-.1.028a1.024,1.024,0,0,0-.4.24,1.014,1.014,0,0,0-.275.479Z" transform="translate(-200.983 -556.662)"/><path class="g" d="M235.55,684.869l2.391.23,3.316-.771,1-1-.081-.246-.921.707a5.777,5.777,0,0,1-2.545.772h-2.389l.462-.618-.416-.642a1.016,1.016,0,0,0-.671.719Z" transform="translate(-200.983 -561.914)"/><path class="w" d="M229.1,684.693l.462-.618-.462-.713a6.213,6.213,0,0,1-2.007.481c-.62-.077-.925,1,.232,1.311s7.711,0,7.711,0,1.157-.539,0-2l-1,.763a5.777,5.777,0,0,1-2.545.773Z" transform="translate(-193.757 -561.97)"/><path class="v" d="M249.18,448.588s3.7.384,3.169-1.157a2.8,2.8,0,0,1-.115-1.363,3.785,3.785,0,0,1,.656-1.569l-3.47.541a4.378,4.378,0,0,1,.469,1.113A2.284,2.284,0,0,1,249.18,448.588Z" transform="translate(-211.913 -370.592)"/><path class="x" d="M262.928,553.9a16.186,16.186,0,0,1-.848,4.936l-.162,4.7s.232,4.318.693,5.168-1,8.02-1,8.02v1.232s-2.466.927-3.169-.152l.705-9.177-.3-12.729Z" transform="translate(-219.339 -458.322)"/><path class="g" d="M262.928,553.9a16.186,16.186,0,0,1-.848,4.936l-.162,4.7s.232,4.318.693,5.168-1,8.02-1,8.02v1.232s-2.466.927-3.169-.152l.705-9.177-.3-12.729Z" transform="translate(-219.339 -458.322)"/><path class="y" d="M274.84,500.17l.462,1.234.386,2.623a2.317,2.317,0,0,1-.693,2,22.048,22.048,0,0,0-2.159,2.854l-1.466-4.391s1.466-.232,1.234-1.234a14.319,14.319,0,0,1-.155-2.854Z" transform="translate(-229.707 -415.235)"/><path class="m" d="M274.84,500.17l.462,1.234.386,2.623a2.317,2.317,0,0,1-.693,2,22.048,22.048,0,0,0-2.159,2.854l-1.466-4.391s1.466-.232,1.234-1.234a14.319,14.319,0,0,1-.155-2.854Z" transform="translate(-229.707 -415.235)"/><path class="g" d="M254.29,676.986a1.919,1.919,0,0,0,2.8.5l-.111-.335-2.236-.618a1.386,1.386,0,0,1-.454.456Z" transform="translate(-216.011 -556.662)"/><path class="x" d="M238.67,534.421a41.333,41.333,0,0,0,1.387,5.013l.925,3.237a25.665,25.665,0,0,1,1.016,7.04,6.933,6.933,0,0,0,.3,2.217c.618,1.7-.616,4.009-.616,4.009a1.948,1.948,0,0,0,2.93.618V555.32s1.466-6.709,1.08-8.02a31.909,31.909,0,0,1-.539-4.859v-6.4a7.273,7.273,0,0,0,2.108-4.607c.02-.252.034-.517.044-.792a9.224,9.224,0,0,0-1.585-4.508c-.111-.174-.18-.273-.18-.273l-6.818,2.7h-.016v.848Z" transform="translate(-203.485 -435.836)"/><path class="g" d="M250.35,445.041a4.378,4.378,0,0,1,.469,1.113,3,3,0,0,0,2.345-.085,3.786,3.786,0,0,1,.656-1.569Z" transform="translate(-212.851 -370.592)"/><circle class="v" cx="3.007" cy="3.007" r="3.007" transform="translate(36.033 69.592)"/><path class="g" d="M238.67,529.394h.032c3.235.664,7.293-2.706,7.293-2.706a4.134,4.134,0,0,1-.281-.574c-.111-.174-.18-.273-.18-.273l-6.81,2.706-.018.269Z" transform="translate(-203.485 -435.82)"/><path class="y" d="M236.116,457.448s4.318-2.623,5.707-1.543l1.927,2.468s1.234.384,1,2.852l.925,4.473-2.773.7a3.023,3.023,0,0,0-.321,3.781s-4.086,3.393-7.329,2.7l.23-3.625a4.69,4.69,0,0,0-.539-3.855,3.016,3.016,0,0,1,1.08-4.32C236.029,461.063,236.57,458.141,236.116,457.448Z" transform="translate(-200.073 -379.529)"/><path class="v" d="M228.026,544.17a3.979,3.979,0,0,0-2.391,1.541,4.765,4.765,0,0,1-.806,1.008.612.612,0,0,0,.1.977,2.341,2.341,0,0,0,2.87-.442C229.954,545.479,228.026,544.17,228.026,544.17Z" transform="translate(-192.225 -450.519)"/><path class="g" d="M243.233,471.906s1.543-.155,1.927,3.857,1,4.936,1,4.936a4.931,4.931,0,0,1-.539,3.316c-.925,1.234-2.7,3.855-2.7,3.855a1.785,1.785,0,0,1-2.314-1.387L243,482.01a3.207,3.207,0,0,0-.539-2.621C241.537,478.31,240.842,471.136,243.233,471.906Z" transform="translate(-205.04 -392.523)"/><path class="y" d="M242.453,470.763s1.543-.155,1.927,3.855,1,4.936,1,4.936a4.937,4.937,0,0,1-.541,3.316c-.925,1.234-2.7,3.855-2.7,3.855a1.785,1.785,0,0,1-2.314-1.387l2.391-4.473a3.211,3.211,0,0,0-.539-2.623C240.757,477.163,240.062,469.986,242.453,470.763Z" transform="translate(-204.415 -391.606)"/><path class="g" d="M246.591,485.57a8.755,8.755,0,0,0,.539,3.7,3.958,3.958,0,0,1,0,3.934" transform="translate(-209.824 -403.527)"/><path class="g" d="M244.7,465.471a3.73,3.73,0,0,1,2.391-.693,5.114,5.114,0,0,0,2.545-.618" transform="translate(-208.32 -386.358)"/><path class="g" d="M247.774,417.912c.467.057,1,.218,1.173.66a4.909,4.909,0,0,1,.107.507c.174.673.933.99,1.4,1.5a3.578,3.578,0,0,1,.729,1.668,15.686,15.686,0,0,1,.271,5.239c-.151,1.28-.458,2.539-.545,3.823a6.043,6.043,0,0,0,.775,3.716,9.106,9.106,0,0,1,.913,1.387,2.669,2.669,0,0,1-1.62.43q-.99.032-1.981,0a2.119,2.119,0,0,1-1.012-.21,1.547,1.547,0,0,1-.531-.57,4.084,4.084,0,0,1-.46-2.165c.016-.749.135-1.49.149-2.236a2.011,2.011,0,0,0-.258-1.173,3.8,3.8,0,0,0-.648-.594,4.1,4.1,0,0,1-1.135-3.007c-.028-1.1.153-2.207.059-3.306-.036-.43-.2-.947-.62-1.03a2.684,2.684,0,0,1-.4-.051c-.341-.131-.307-.61-.4-.961-.109-.4-.444-.7-.539-1.1-.222-.933.965-2.046,1.743-2.377A6.179,6.179,0,0,1,247.774,417.912Z" transform="translate(-207.104 -349.201)"/><path class="z" d="M248.124,417.145c.467.059,1,.22,1.173.66a4.834,4.834,0,0,1,.107.509c.174.673.933.99,1.4,1.5a3.578,3.578,0,0,1,.729,1.668,15.686,15.686,0,0,1,.271,5.239c-.151,1.28-.458,2.539-.545,3.823a6.043,6.043,0,0,0,.774,3.716,9.1,9.1,0,0,1,.913,1.387,2.669,2.669,0,0,1-1.62.43q-.99.032-1.991,0a2.119,2.119,0,0,1-1.012-.21,1.557,1.557,0,0,1-.531-.568,4.077,4.077,0,0,1-.46-2.167c.016-.749.135-1.49.149-2.236a2.014,2.014,0,0,0-.258-1.173,3.881,3.881,0,0,0-.648-.594,4.093,4.093,0,0,1-1.137-3.007c-.028-1.1.155-2.207.061-3.306-.036-.43-.2-.947-.62-1.03a2.688,2.688,0,0,1-.4-.051c-.341-.131-.307-.61-.4-.961-.109-.4-.444-.7-.539-1.1-.222-.931.965-2.046,1.743-2.377A6.333,6.333,0,0,1,248.124,417.145Z" transform="translate(-207.376 -348.589)"/><ellipse class="a" cx="4.754" cy="0.654" rx="4.754" ry="0.654" transform="translate(185.633 136.549)"/><ellipse class="a" cx="4.754" cy="0.654" rx="4.754" ry="0.654" transform="translate(167.421 138.397)"/><ellipse class="a" cx="4.754" cy="0.654" rx="4.754" ry="0.654" transform="translate(145.971 135.897)"/><ellipse class="a" cx="3.379" cy="0.464" rx="3.379" ry="0.464" transform="translate(176.085 143.844)"/><ellipse class="a" cx="3.379" cy="0.464" rx="3.379" ry="0.464" transform="translate(157.185 143.378)"/><path class="e" d="M847.788,626.484s6.667-21.856-1.044-30.611c-5.768-6.549-12.315-5.766-15.252-4.952a5.422,5.422,0,0,0-3.5,2.908c-1.024,2.211-.84,5.8,6.4,9.991,12.117,7.014,12.875,16.639,12.875,16.639Z" transform="translate(-675.714 -487.582)"/><path class="aa" d="M852.77,608.71s19.655,6.14,15.252,32.467" transform="translate(-695.944 -502.275)"/><path class="aa" d="M902.571,619.84s-2.708,1.822-1.846,4.556" transform="translate(-734.264 -511.201)"/><path class="aa" d="M862.72,623.813a3.413,3.413,0,0,1,3.668-.755" transform="translate(-703.923 -513.557)"/><path class="aa" d="M902,668.5s2.9-1.474,3.655.372" transform="translate(-735.423 -549.779)"/><path class="aa" d="M929.25,686.236s-2.179-.174-2.22.87" transform="translate(-755.495 -564.436)"/><path class="e" d="M883.412,710.574s-7.808-15.886-9.953-15.537c-1.018.164-1.488,1.167-1.7,2.179a6.392,6.392,0,0,0,.426,3.867A17.115,17.115,0,0,0,883.412,710.574Z" transform="translate(-711.068 -571.498)"/><path class="aa" d="M881.15,710.28s8.2,11.885,9.781,12.408" transform="translate(-718.703 -583.727)"/><line class="aa" x2="1.913" transform="translate(161.693 128.41)"/><line class="aa" x2="2.999" y2="0.129" transform="translate(163.985 132.757)"/><line class="aa" x1="0.325" y2="1.563" transform="translate(165.484 129.279)"/><line class="aa" x1="0.057" y2="1.42" transform="translate(168.941 134.033)"/><path class="e" d="M929.94,710.574s7.808-15.886,9.953-15.537c1.02.164,1.49,1.167,1.7,2.179a6.392,6.392,0,0,1-.426,3.867A17.167,17.167,0,0,1,929.94,710.574Z" transform="translate(-757.828 -571.498)"/><path class="aa" d="M940.309,710.28s-8.2,11.885-9.779,12.408" transform="translate(-758.301 -583.727)"/><line class="aa" x1="1.913" transform="translate(180.847 128.41)"/><line class="aa" x1="2.999" y2="0.129" transform="translate(177.47 132.757)"/><line class="aa" x2="0.325" y2="1.563" transform="translate(178.644 129.279)"/><line class="aa" x2="0.057" y2="1.42" transform="translate(175.455 134.033)"/><path class="e" d="M860.375,783.536a1.349,1.349,0,0,1-.444-.672.594.594,0,0,1,.311-.683.867.867,0,0,1,.82.289,1.087,1.087,0,0,0,.792.386,1.222,1.222,0,0,1-.376-1.139.479.479,0,0,1,.1-.23c.158-.17.446-.1.636.036a2.4,2.4,0,0,1,.774,1.981,3.746,3.746,0,0,0,0-.816.838.838,0,0,1,.307-.721.92.92,0,0,1,.467-.111.971.971,0,0,1,.759.216.754.754,0,0,1-.03.931,2.9,2.9,0,0,1-.792.628,1.763,1.763,0,0,0-.561.535.685.685,0,0,0-.042.1h-1.7A4.689,4.689,0,0,1,860.375,783.536Z" transform="translate(-701.671 -640.75)"/><path class="e" d="M1010.6,751.276a1.349,1.349,0,0,1-.444-.672.594.594,0,0,1,.309-.681.866.866,0,0,1,.822.287,1.141,1.141,0,0,0,.792.4,1.222,1.222,0,0,1-.376-1.139.479.479,0,0,1,.1-.23c.158-.17.446-.1.636.036a2.4,2.4,0,0,1,.774,1.981,3.746,3.746,0,0,0,0-.816.838.838,0,0,1,.307-.721.921.921,0,0,1,.467-.111.963.963,0,0,1,.757.216.752.752,0,0,1-.03.931,2.89,2.89,0,0,1-.792.628,1.763,1.763,0,0,0-.561.535.692.692,0,0,0-.042.1h-1.7A4.69,4.69,0,0,1,1010.6,751.276Z" transform="translate(-822.136 -614.888)"/><path class="e" d="M960.527,783.536a1.353,1.353,0,0,1-.446-.672.594.594,0,0,1,.311-.683.872.872,0,0,1,.822.289,1.091,1.091,0,0,0,.792.386,1.214,1.214,0,0,1-.376-1.139.462.462,0,0,1,.105-.23c.158-.17.444-.1.634.036a2.389,2.389,0,0,1,.774,1.981,3.738,3.738,0,0,0,.012-.816.836.836,0,0,1,.305-.721.927.927,0,0,1,.467-.111.969.969,0,0,1,.759.216.754.754,0,0,1-.03.931,2.921,2.921,0,0,1-.792.628,1.724,1.724,0,0,0-.561.535.51.51,0,0,0-.042.1h-1.7A4.679,4.679,0,0,1,960.527,783.536Z" transform="translate(-781.983 -640.75)"/><path class="e" d="M814.628,726.94s-.638.832.293,2.09,1.7,2.319,1.387,3.1c0,0-1.4-2.335-2.547-2.377S813.37,728.338,814.628,726.94Z" transform="translate(-664.21 -597.086)"/><path class="g" d="M814.634,726.94a.991.991,0,0,0-.131.261c-1.115,1.309-1.709,2.533-.638,2.563,1,.03,2.2,1.816,2.484,2.266a.624.624,0,0,1-.034.1s-1.4-2.335-2.547-2.377S813.376,728.338,814.634,726.94Z" transform="translate(-664.215 -597.086)"/><path class="h" d="M814.44,731.542c0,.293.034.531.073.531s.073-.238.073-.531-.04-.154-.081-.154S814.44,731.249,814.44,731.542Z" transform="translate(-665.206 -600.627)"/><path class="h" d="M811.755,733.25c.258.139.481.224.5.188s-.172-.178-.43-.319-.156-.038-.176,0S811.5,733.11,811.755,733.25Z" transform="translate(-662.928 -601.985)"/><path class="e" d="M830.317,726.94s.636.832-.3,2.09-1.7,2.319-1.387,3.1c0,0,1.4-2.335,2.549-2.377S831.575,728.338,830.317,726.94Z" transform="translate(-676.533 -597.086)"/><path class="g" d="M830.457,726.94a1.021,1.021,0,0,1,.129.261c1.117,1.309,1.711,2.533.638,2.563-.99.03-2.2,1.816-2.484,2.266a.331.331,0,0,0,.034.1s1.4-2.335,2.549-2.377S831.715,728.338,830.457,726.94Z" transform="translate(-676.674 -597.086)"/><path class="h" d="M842.787,731.542c0,.293-.032.531-.073.531s-.073-.238-.073-.531.042-.154.081-.154S842.787,731.249,842.787,731.542Z" transform="translate(-687.821 -600.627)"/><path class="h" d="M843.406,733.25c-.257.139-.483.224-.5.188s.172-.178.43-.319.156-.038.176,0S843.664,733.11,843.406,733.25Z" transform="translate(-688.032 -601.985)"/><path class="i" d="M815.532,748.714a6.524,6.524,0,0,1-2.318-.438c-.535-.382-2.739-.838-2.872-.224s-2.678,3.048-.666,3.064a17.02,17.02,0,0,0,5.208-.64C815.421,750.15,815.532,748.714,815.532,748.714Z" transform="translate(-660.768 -613.776)"/><path class="j" d="M809.641,754.791a17.036,17.036,0,0,0,5.209-.64c.406-.248.57-1.139.624-1.551h.059s-.113,1.436-.648,1.763a17.018,17.018,0,0,1-5.208.64c-.58,0-.782-.212-.771-.517C808.989,754.672,809.209,754.787,809.641,754.791Z" transform="translate(-660.77 -617.664)"/><ellipse class="a" cx="6.877" cy="1.016" rx="6.877" ry="1.016" transform="translate(26.264 138.844)"/><ellipse class="a" cx="6.877" cy="1.016" rx="6.877" ry="1.016" transform="translate(42.916 147.966)"/><ellipse class="a" cx="4.554" cy="0.509" rx="4.554" ry="0.509" transform="translate(118.708 124.705)"/><ellipse class="a" cx="4.554" cy="0.509" rx="4.554" ry="0.509" transform="translate(97.42 139.351)"/><ellipse class="a" cx="4.554" cy="0.509" rx="4.554" ry="0.509" transform="translate(87.823 148.473)"/></g></svg>