<svg width="20" height="22" viewBox="0 0 20 22" fill="none" xmlns="http://www.w3.org/2000/svg">
<path d="M8.10002 7.99999C8.10002 7.53055 7.71947 7.14999 7.25002 7.14999C6.78058 7.14999 6.40002 7.53055 6.40002 7.99999V8.8327C5.14167 8.97396 4.15002 10.0312 4.15002 11.3333C4.15002 12.7332 5.29609 13.85 6.68752 13.85H7.81252C8.28505 13.85 8.65002 14.2256 8.65002 14.6667C8.65002 15.1078 8.28505 15.4833 7.81252 15.4833H6.12502C5.96316 15.4833 5.85002 15.3565 5.85002 15.2222C5.85002 14.7528 5.46947 14.3722 5.00002 14.3722C4.53058 14.3722 4.15002 14.7528 4.15002 15.2222C4.15002 16.3152 5.04425 17.1833 6.12502 17.1833H6.40002V18C6.40002 18.4694 6.78058 18.85 7.25002 18.85C7.71947 18.85 8.10002 18.4694 8.10002 18V17.1673C9.35838 17.026 10.35 15.9688 10.35 14.6667C10.35 13.2668 9.20396 12.15 7.81252 12.15H6.68752C6.215 12.15 5.85002 11.7744 5.85002 11.3333C5.85002 10.8922 6.215 10.5167 6.68752 10.5167H7.81252C7.97439 10.5167 8.08752 10.6435 8.08752 10.7778C8.08752 11.2472 8.46808 11.6278 8.93752 11.6278C9.40697 11.6278 9.78752 11.2472 9.78752 10.7778C9.78752 9.78339 9.0474 8.97516 8.10002 8.83739V7.99999Z" fill="#505159"/>
<path fill-rule="evenodd" clip-rule="evenodd" d="M0 8.48064C0 8.17686 0.13809 7.88954 0.375305 7.69977L9.3753 0.499771C9.74052 0.207596 10.2595 0.207596 10.6247 0.499771L19.6247 7.69977C19.8619 7.88954 20 8.17686 20 8.48064V22H0V8.48064ZM10 2.56126L18 8.96126V20H2V8.96126L10 2.56126Z" fill="#505159"/>
</svg>
