<svg xmlns="http://www.w3.org/2000/svg" width="167.784" height="100" viewBox="0 0 167.784 100"><defs><style>.a,.j{fill:#6c63fc;}.b{fill:#010101;}.c{fill:#0c8fe6;opacity:0.065;}.d{fill:#c7cbd3;}.e{fill:#aab0ba;}.e,.j,.k{opacity:0.55;}.f{fill:#3f3d56;}.g{fill:#cdcfd6;}.h{fill:#e7e8eb;}.i,.k{fill:#686acf;}.l{fill:#65739a;}.m{fill:#77848b;opacity:0.5;}.n{fill:#454349;}.o{fill:#9ba0ae;}.p,.t{fill:#c78b5b;}.q{fill:#e5be84;}.r{fill:#ead2b8;}.s{fill:#f7efe6;}.t,.u{opacity:0.32;}.u{fill:#b05f2e;}.v{fill:#fff;}.w{fill:#ffe8b5;}</style></defs><g transform="translate(-535 -171.908)"><g transform="translate(538.012 271.331)"><path d="M17.145,383.6H12.251a.251.251,0,1,1,0-.5H17.17a.237.237,0,0,1,.251.251A.258.258,0,0,1,17.145,383.6Z" transform="translate(-12 -383.1)"/></g><g transform="translate(535 247.663)"><path class="a" d="M11.144,296.932c0,4.493-2.485,8.132-5.572,8.132S0,301.424,0,296.932,2.485,288.8,5.572,288.8,11.144,292.439,11.144,296.932Z" transform="translate(0 -288.8)"/><g transform="translate(5.321 6.45)"><rect class="b" width="0.502" height="17.644"/></g><g transform="translate(5.401 10.146)"><rect class="b" width="0.502" height="3.94" transform="translate(0.355 3.141) rotate(-135)"/></g><g transform="translate(3.097 8.845)"><rect class="b" width="3.238" height="0.502" transform="matrix(-0.707, -0.707, 0.707, -0.707, 2.29, 2.644)"/></g></g><path class="c" d="M210.56,31.154h2.761a2.729,2.729,0,0,1-.025-.452,4.874,4.874,0,0,1,4.869-4.869,4.65,4.65,0,0,1,1.682.3A6.2,6.2,0,0,1,230.889,30a8.589,8.589,0,0,1-.1,1.155h.7a2.535,2.535,0,0,1,0,5.07H210.535A2.528,2.528,0,0,1,208,33.689,2.6,2.6,0,0,1,210.56,31.154Z" transform="translate(458.373 151.956)"/><g transform="translate(540.84 202.671)"><path class="b" d="M66.164,189.26a.386.386,0,0,1-.376-.376,1.521,1.521,0,0,0-1.531-1.531h-1.18a.376.376,0,1,1,0-.753h1.18a2.292,2.292,0,0,1,2.284,2.284A.386.386,0,0,1,66.164,189.26Z" transform="translate(-62.7 -186.6)"/><g transform="translate(3.087)"><path class="b" d="M75.376,189.26a.386.386,0,0,1-.376-.376,2.292,2.292,0,0,1,2.284-2.284h1.38a.376.376,0,1,1,0,.753h-1.38a1.521,1.521,0,0,0-1.531,1.531A.386.386,0,0,1,75.376,189.26Z" transform="translate(-75 -186.6)"/></g></g><g transform="translate(583.46 192.575)"><path class="b" d="M123.064,50.46a.386.386,0,0,1-.376-.376,1.521,1.521,0,0,0-1.531-1.531h-1.18a.376.376,0,0,1,0-.753h1.18a2.292,2.292,0,0,1,2.284,2.284A.37.37,0,0,1,123.064,50.46Z" transform="translate(-119.6 -47.8)"/><g transform="translate(3.087)"><path class="b" d="M132.276,50.46a.386.386,0,0,1-.376-.376,2.292,2.292,0,0,1,2.284-2.284h1.38a.376.376,0,1,1,0,.753h-1.38a1.521,1.521,0,0,0-1.531,1.531A.37.37,0,0,1,132.276,50.46Z" transform="translate(-131.9 -47.8)"/></g></g><g transform="translate(561.869 182.788)"><path class="b" d="M121.164,49a.174.174,0,0,1-.17-.17.687.687,0,0,0-.691-.691h-.533a.17.17,0,0,1,0-.34h.533a1.035,1.035,0,0,1,1.032,1.032A.167.167,0,0,1,121.164,49Z" transform="translate(-119.6 -47.8)"/><g transform="translate(1.394)"><path class="b" d="M132.07,49a.174.174,0,0,1-.17-.17,1.035,1.035,0,0,1,1.032-1.032h.623a.17.17,0,0,1,0,.34h-.623a.687.687,0,0,0-.691.691A.167.167,0,0,1,132.07,49Z" transform="translate(-131.9 -47.8)"/></g></g><g transform="translate(610.9 171.908)"><path class="b" d="M216.264,50.56a.386.386,0,0,1-.376-.376,1.521,1.521,0,0,0-1.531-1.531h-1.18a.376.376,0,1,1,0-.753h1.18a2.292,2.292,0,0,1,2.284,2.284A.386.386,0,0,1,216.264,50.56Z" transform="translate(-212.8 -47.9)"/><g transform="translate(3.087)"><path class="b" d="M225.476,50.56a.386.386,0,0,1-.376-.376,2.292,2.292,0,0,1,2.284-2.284h1.38a.376.376,0,1,1,0,.753h-1.38a1.521,1.521,0,0,0-1.531,1.531A.386.386,0,0,1,225.476,50.56Z" transform="translate(-225.1 -47.9)"/></g></g><g transform="translate(626.428 206.103)"><path class="b" d="M294.264,104.36a.386.386,0,0,1-.376-.376,1.521,1.521,0,0,0-1.531-1.531h-1.18a.376.376,0,0,1,0-.753h1.18a2.292,2.292,0,0,1,2.284,2.284A.386.386,0,0,1,294.264,104.36Z" transform="translate(-290.8 -101.7)"/><g transform="translate(3.087)"><path class="b" d="M303.477,104.36a.386.386,0,0,1-.376-.376,2.292,2.292,0,0,1,2.284-2.284h1.38a.376.376,0,0,1,0,.753h-1.38a1.521,1.521,0,0,0-1.531,1.531A.386.386,0,0,1,303.477,104.36Z" transform="translate(-303.1 -101.7)"/></g></g><g transform="translate(636.869 180.578)"><g transform="translate(0 0)"><path class="b" d="M335.864,2.66a.386.386,0,0,1-.376-.376A1.521,1.521,0,0,0,333.956.753h-1.18A.386.386,0,0,1,332.4.376.386.386,0,0,1,332.776,0h1.18a2.292,2.292,0,0,1,2.284,2.284A.386.386,0,0,1,335.864,2.66Z" transform="translate(-332.4 0)"/></g><g transform="translate(3.087)"><path class="b" d="M345.076,2.66a.386.386,0,0,1-.376-.376A2.292,2.292,0,0,1,346.984,0h1.38a.386.386,0,0,1,.376.376.386.386,0,0,1-.376.376h-1.38a1.521,1.521,0,0,0-1.531,1.531A.386.386,0,0,1,345.076,2.66Z" transform="translate(-344.7)"/></g></g><g transform="translate(545.346 271.155)"><path d="M211.232,383.153H55.206c-.376,0-.706-.176-.706-.376s.329-.376.706-.376H211.232c.376,0,.706.176.706.376S211.609,383.153,211.232,383.153Z" transform="translate(-54.5 -382.4)"/></g><g transform="translate(552.993 193.031)"><g transform="translate(0 16.015)"><rect class="d" width="132.882" height="62.075" transform="translate(4.869)"/><rect class="e" width="132.882" height="17.926" transform="translate(4.869)"/><path class="f" d="M167.728,87.48H25.107L28.939,75.4H163.895Z" transform="translate(-25.107 -75.397)"/><g transform="translate(11.876 24.026)"><rect class="g" width="22.562" height="9.739"/><rect class="g" width="22.562" height="9.739" transform="translate(0 17.692)"/><rect class="g" width="22.562" height="9.739" transform="translate(28.359)"/></g><g transform="translate(12.282 23.444)"><rect class="h" width="22.562" height="9.739"/><path class="i" d="M0,0H20.371V7.3H0Z" transform="translate(1.096 1.217)"/><path class="j" d="M77.078,140.958H56.707v-7.3Z" transform="translate(-55.612 -132.437)"/><rect class="g" width="0.893" height="7.304" transform="translate(10.835 1.217)"/><rect class="g" width="20.371" height="0.893" transform="translate(1.095 4.423)"/></g><g transform="translate(12.282 41.137)"><rect class="h" width="22.562" height="9.739"/><path class="i" d="M0,0H20.371V7.3H0Z" transform="translate(1.096 1.217)"/><path class="k" d="M77.078,182.752H56.707v-7.3Z" transform="translate(-55.612 -174.23)"/><rect class="g" width="0.893" height="7.304" transform="translate(10.835 1.217)"/><rect class="g" width="20.371" height="0.893" transform="translate(1.095 4.423)"/></g><g transform="translate(40.641 23.444)"><rect class="h" width="22.562" height="9.739"/><path class="i" d="M0,0H20.37V7.3H0Z" transform="translate(1.096 1.217)"/><path class="k" d="M144.069,140.958H123.7v-7.3Z" transform="translate(-122.603 -132.437)"/><rect class="g" width="0.893" height="7.304" transform="translate(10.835 1.217)"/><rect class="g" width="20.371" height="0.893" transform="translate(1.095 4.423)"/></g><g transform="translate(43.085 39.622)"><rect class="g" width="16.78" height="22.454"/><rect class="f" width="13.685" height="20.939" transform="translate(1.547 1.515)"/></g><g transform="translate(77.876 22.254)"><rect class="h" width="48.568" height="38.631" transform="translate(0.379 1.19)"/><rect class="l" width="45.791" height="38.631" transform="translate(1.767 1.19)"/><path class="m" d="M276.43,192.861v-8.187h-1.817V181h-2.761v-2.783h-9.226v2.7h-6.785v11.946Z" transform="translate(-236.04 -156.944)"/><path class="m" d="M222.9,178.889v-3.675h-2.761v-2.783h-6.9v14.645h11.477v-8.187Z" transform="translate(-211.474 -153.608)"/><path class="m" d="M313.453,181.047h-1.264v1.947h-2.761v2.57h-1.817v5.727h5.842Z" transform="translate(-265.895 -158.577)"/><rect class="f" width="49.325" height="2.056" transform="translate(0)"/><rect class="n" width="45.791" height="5.807" transform="translate(1.767 34.015)"/><rect class="g" width="45.791" height="15.312" transform="translate(1.767 2.056)"/><rect class="o" width="45.791" height="0.866" transform="translate(1.767 3.787)"/><rect class="o" width="45.791" height="0.866" transform="translate(1.767 6.073)"/><rect class="o" width="45.791" height="0.866" transform="translate(1.767 8.359)"/><rect class="o" width="45.791" height="0.866" transform="translate(1.767 10.645)"/><rect class="o" width="45.791" height="0.866" transform="translate(1.767 12.931)"/><rect class="o" width="45.791" height="0.866" transform="translate(1.767 15.217)"/><g transform="translate(1.762 20.871)"><g transform="translate(6.786)"><rect class="p" width="6.937" height="10.079"/><rect class="q" width="6.864" height="10.079" transform="translate(2.361)"/><rect class="r" width="1.61" height="2.078" transform="translate(5.358)"/><rect class="r" width="1.61" height="2.078" transform="translate(5.358 8.001)"/><g transform="translate(2.754 8.423)"><rect class="s" width="2.125" height="1.284"/><g transform="translate(0.097 0.18)"><rect class="n" width="0.226" height="0.924"/><rect class="n" width="0.079" height="0.924" transform="translate(0.362)"/><rect class="n" width="0.185" height="0.924" transform="translate(0.765)"/><rect class="n" width="0.113" height="0.924" transform="translate(0.532)"/><rect class="n" width="0.076" height="0.924" transform="translate(1.089)"/><rect class="n" width="0.153" height="0.924" transform="translate(1.45)"/><rect class="n" width="0.076" height="0.924" transform="translate(1.655)"/><rect class="n" width="0.105" height="0.924" transform="translate(1.277)"/><rect class="n" width="0.113" height="0.924" transform="translate(1.812)"/></g></g></g><rect class="t" width="6.055" height="6.493" transform="translate(9.956 3.586)"/><g transform="translate(0 3.974)"><rect class="p" width="6.621" height="6.486"/><rect class="q" width="6.579" height="6.486" transform="translate(1.879)"/><rect class="r" width="1.765" height="1.669" transform="translate(4.286)"/><rect class="r" width="1.765" height="1.669" transform="translate(4.286 4.817)"/><g transform="translate(2.195 5.156)"><rect class="s" width="1.707" height="1.031"/><g transform="translate(0.078 0.145)"><rect class="n" width="0.181" height="0.742"/><rect class="n" width="0.064" height="0.742" transform="translate(0.291)"/><rect class="n" width="0.149" height="0.742" transform="translate(0.615)"/><rect class="n" width="0.091" height="0.742" transform="translate(0.428)"/><rect class="n" width="0.061" height="0.742" transform="translate(0.874)"/><rect class="n" width="0.123" height="0.742" transform="translate(1.165)"/><rect class="n" width="0.061" height="0.742" transform="translate(1.329)"/><rect class="n" width="0.084" height="0.742" transform="translate(1.026)"/><rect class="n" width="0.091" height="0.742" transform="translate(1.456)"/></g></g></g><rect class="t" width="6.123" height="4.896" transform="translate(2.336 5.565)"/><g transform="translate(11.617 4.099)"><rect class="p" width="5.603" height="5.475"/><rect class="q" width="5.554" height="5.475" transform="translate(1.601)"/><rect class="r" width="0.885" height="1.409" transform="translate(3.936)"/><rect class="r" width="0.885" height="1.409" transform="translate(3.936 4.066)"/><g transform="translate(5.321 4.353)"><rect class="s" width="1.441" height="0.87"/><g transform="translate(0.066 0.122)"><rect class="n" width="0.153" height="0.626"/><rect class="n" width="0.054" height="0.626" transform="translate(0.246)"/><rect class="n" width="0.125" height="0.626" transform="translate(0.519)"/><rect class="n" width="0.076" height="0.626" transform="translate(0.361)"/><rect class="n" width="0.052" height="0.626" transform="translate(0.738)"/><rect class="n" width="0.104" height="0.626" transform="translate(0.983)"/><rect class="n" width="0.051" height="0.626" transform="translate(1.122)"/><rect class="n" width="0.071" height="0.626" transform="translate(0.866)"/><rect class="n" width="0.076" height="0.626" transform="translate(1.229)"/></g></g></g><g transform="translate(13.434 9.509)"><rect class="p" width="5.603" height="5.475"/><rect class="q" width="5.554" height="5.475" transform="translate(1.601)"/><rect class="r" width="1.49" height="1.409" transform="translate(3.633)"/><rect class="r" width="1.49" height="1.409" transform="translate(3.633 4.066)"/><g transform="translate(1.867 4.353)"><rect class="s" width="1.441" height="0.871"/><g transform="translate(0.066 0.122)"><rect class="n" width="0.153" height="0.626"/><rect class="n" width="0.054" height="0.626" transform="translate(0.246)"/><rect class="n" width="0.125" height="0.626" transform="translate(0.519)"/><rect class="n" width="0.076" height="0.626" transform="translate(0.361)"/><rect class="n" width="0.052" height="0.626" transform="translate(0.738)"/><rect class="n" width="0.104" height="0.626" transform="translate(0.983)"/><rect class="n" width="0.051" height="0.626" transform="translate(1.122)"/><rect class="n" width="0.071" height="0.626" transform="translate(0.866)"/><rect class="n" width="0.076" height="0.626" transform="translate(1.229)"/></g></g></g><g transform="translate(3.389 6.466)"><rect class="p" width="8.718" height="8.518"/><rect class="q" width="8.641" height="8.518" transform="translate(2.491)"/><rect class="r" width="2.319" height="2.192" transform="translate(5.652)"/><rect class="r" width="2.319" height="2.192" transform="translate(5.652 6.327)"/><g transform="translate(2.905 6.772)"><rect class="s" width="2.242" height="1.354"/><g transform="translate(0.103 0.19)"><rect class="n" width="0.238" height="0.975"/><rect class="n" width="0.084" height="0.975" transform="translate(0.382)"/><rect class="n" width="0.195" height="0.975" transform="translate(0.808)"/><rect class="n" width="0.119" height="0.975" transform="translate(0.562)"/><rect class="n" width="0.081" height="0.975" transform="translate(1.148)"/><rect class="n" width="0.161" height="0.975" transform="translate(1.529)"/><rect class="n" width="0.08" height="0.975" transform="translate(1.746)"/><rect class="n" width="0.111" height="0.975" transform="translate(1.347)"/><rect class="n" width="0.119" height="0.975" transform="translate(1.912)"/></g></g></g><g transform="translate(0 9.509)"><rect class="p" width="2.915" height="5.475"/><rect class="q" width="4.466" height="5.475"/><rect class="r" width="1.49" height="1.409" transform="translate(0.944)"/><rect class="r" width="1.49" height="1.409" transform="translate(0.944 4.066)"/><g transform="translate(0 4.353)"><rect class="s" width="0.619" height="0.871"/><g transform="translate(0.11 0.122)"><rect class="n" width="0.104" height="0.626" transform="translate(0.117)"/><rect class="n" width="0.051" height="0.626" transform="translate(0.257)"/><rect class="n" width="0.071" height="0.626"/><rect class="n" width="0.076" height="0.626" transform="translate(0.363)"/></g></g></g><rect class="t" width="1.525" height="5.475" transform="translate(2.941 9.509)"/></g><path class="t" d="M229.829,181.368h-.589v-4.1h-9.226v3.974h-6.786v10.918C218.687,188.452,224.352,185.048,229.829,181.368Z" transform="translate(-211.467 -156.398)"/><g transform="translate(34.676 26.234)"><g transform="translate(7.273)"><rect class="p" width="4.953" height="4.839"/><rect class="q" width="4.194" height="4.839" transform="translate(1.415)"/><rect class="r" width="0.782" height="1.245" transform="translate(3.479)"/><rect class="r" width="0.782" height="1.245" transform="translate(3.479 3.594)"/><g transform="translate(4.762 3.955)"><rect class="n" width="0.135" height="0.554"/><rect class="n" width="0.048" height="0.554" transform="translate(0.217)"/><rect class="n" width="0.111" height="0.554" transform="translate(0.459)"/><rect class="n" width="0.068" height="0.554" transform="translate(0.319)"/><rect class="n" width="0.046" height="0.554" transform="translate(0.652)"/><rect class="n" width="0.063" height="0.554" transform="translate(0.765)"/></g></g><g transform="translate(8.879 4.783)"><rect class="p" width="4.004" height="4.839"/><rect class="q" width="2.589" height="4.839" transform="translate(1.415)"/><rect class="r" width="0.793" height="1.245" transform="translate(3.211)"/><rect class="r" width="0.793" height="1.245" transform="translate(3.211 3.594)"/><g transform="translate(1.65 3.847)"><rect class="s" width="1.273" height="0.769"/><g transform="translate(0.058 0.108)"><rect class="n" width="0.135" height="0.554"/><rect class="n" width="0.047" height="0.554" transform="translate(0.217)"/><rect class="n" width="0.111" height="0.554" transform="translate(0.459)"/><rect class="n" width="0.068" height="0.554" transform="translate(0.319)"/><rect class="n" width="0.046" height="0.554" transform="translate(0.652)"/><rect class="n" width="0.092" height="0.554" transform="translate(0.869)"/><rect class="n" width="0.045" height="0.554" transform="translate(0.992)"/><rect class="n" width="0.063" height="0.554" transform="translate(0.765)"/><rect class="n" width="0.068" height="0.554" transform="translate(1.086)"/></g></g></g><g transform="translate(0 2.093)"><rect class="p" width="7.706" height="7.53"/><rect class="q" width="7.638" height="7.53" transform="translate(2.202)"/><rect class="r" width="2.049" height="1.937" transform="translate(4.996)"/><rect class="r" width="2.049" height="1.937" transform="translate(4.996 5.592)"/><g transform="translate(2.568 5.986)"><rect class="s" width="1.981" height="1.197"/><g transform="translate(0.091 0.168)"><rect class="n" width="0.21" height="0.861"/><rect class="n" width="0.074" height="0.861" transform="translate(0.338)"/><rect class="n" width="0.172" height="0.861" transform="translate(0.714)"/><rect class="n" width="0.105" height="0.861" transform="translate(0.497)"/><rect class="n" width="0.071" height="0.861" transform="translate(1.015)"/><rect class="n" width="0.142" height="0.861" transform="translate(1.352)"/><rect class="n" width="0.071" height="0.861" transform="translate(1.543)"/><rect class="n" width="0.098" height="0.861" transform="translate(1.191)"/><rect class="n" width="0.105" height="0.861" transform="translate(1.69)"/></g></g></g></g><path class="u" d="M311.269,189.936v4.282h-1.6v5.34h4.969v-9.622Z" transform="translate(-267.084 -163.703)"/></g></g><rect class="a" width="71.635" height="16.015" transform="translate(50.055 0)"/><g transform="translate(54.534 5.15)"><path class="v" d="M161.095,55.924h-2.1l-.769-3.622h-.035l-.769,3.622h-2.1l-1.391-5.947h1.988l.683,3.371h.035l.674-3.371h1.884l.718,3.371h.034l.64-3.371h1.9Z" transform="translate(-153.929 -49.873)"/><path class="v" d="M181.016,55.924h-2.023l-.251-.839H176.66l-.251.839h-1.953l2.169-5.947h2.222Zm-3.328-4.287-.631,2.117h1.288l-.622-2.117Z" transform="translate(-165.766 -49.873)"/><path class="v" d="M196.147,53.435l1.322,2.489h-2.143l-1.055-2.17h-.709v2.17h-1.91V49.977h3.639A1.818,1.818,0,0,1,197.3,51.8,1.7,1.7,0,0,1,196.147,53.435Zm-1.331-2.1h-1.253v1.1h1.253a.537.537,0,0,0,.536-.553A.53.53,0,0,0,194.816,51.334Z" transform="translate(-175.683 -49.873)"/><path class="v" d="M207.542,55.924V49.977h5.143V51.4h-3.233v.821h2.766V53.59h-2.766V54.5h3.294v1.426Z" transform="translate(-184.846 -49.873)"/><path class="v" d="M228.208,55.924H226.3V53.668h-2.1v2.256h-1.91V49.977h1.91v2.17h2.1v-2.17h1.91Z" transform="translate(-193.349 -49.873)"/><path class="v" d="M245.13,52.81c0,2.031-1.184,3.077-3.216,3.077s-3.207-1.046-3.207-3.077,1.176-3.078,3.207-3.078S245.13,50.778,245.13,52.81Zm-4.469-.277v.553a1.262,1.262,0,1,0,2.515,0v-.553a1.262,1.262,0,1,0-2.515,0Z" transform="translate(-202.819 -49.732)"/><path class="v" d="M262.234,53.53c0,1.643-1.089,2.5-2.956,2.5s-2.965-.856-2.965-2.5V49.977h1.91V53.5a1.051,1.051,0,1,0,2.1,0V49.977h1.91Z" transform="translate(-212.971 -49.873)"/><path class="v" d="M278.087,51.565v.1H276.3v-.035c0-.311-.216-.6-.769-.6-.527,0-.787.182-.787.389,0,.89,3.466.19,3.509,2.394,0,1.478-1.123,2.074-2.619,2.074-1.669,0-2.939-.423-2.939-2.117H274.5c0,.64.371.752.959.752.346,0,.839-.026.839-.4,0-.856-3.51-.173-3.51-2.49,0-1.383,1.262-1.9,2.671-1.9C276.894,49.732,278.061,50.294,278.087,51.565Z" transform="translate(-222.417 -49.732)"/><path class="v" d="M288.072,55.924V49.977h5.143V51.4h-3.233v.821h2.766V53.59h-2.766V54.5h3.293v1.426Z" transform="translate(-231.285 -49.873)"/></g></g><ellipse class="w" cx="5.173" cy="5.398" rx="5.173" ry="5.398" transform="translate(551.908 171.908)"/></g></svg>