<svg xmlns="http://www.w3.org/2000/svg" width="415.979" height="123.458" viewBox="0 0 415.979 123.458"><defs><style>.a{opacity:0.4;}.b{fill:#8f6ba7;}.c{fill:#ffca0e;}.d{fill:#10aae0;}.e{fill:#f16865;}.f{fill:#6ba790;}</style></defs><g class="a" transform="translate(-484 -122)"><path class="b" d="M7.936,2.9A4.082,4.082,0,0,0,2.014.535,4.036,4.036,0,0,0,.118,3.26,3.651,3.651,0,0,0,0,4.444C0,4.8.118,5.155.118,5.51a3.944,3.944,0,0,0,3.79,2.843A4.313,4.313,0,0,0,7.936,2.9Z" transform="matrix(0.259, 0.966, -0.966, 0.259, 542.885, 164.733)"/><path class="b" d="M2.31,0C-.77,0-.77,4.738,2.31,4.738S5.389,0,2.31,0Z" transform="matrix(0.259, 0.966, -0.966, 0.259, 585.214, 239.655)"/><path class="b" d="M3.663.073A2.906,2.906,0,0,0,.11,3.627,3.639,3.639,0,0,0,4.018,6.351,2.584,2.584,0,0,0,6.505,3.863,3.908,3.908,0,0,0,3.663.073Z" transform="matrix(0.259, 0.966, -0.966, 0.259, 623.321, 177.033)"/><path class="b" d="M3.08,0a3.139,3.139,0,0,0,0,6.277A3.139,3.139,0,0,0,3.08,0Z" transform="matrix(0.259, 0.966, -0.966, 0.259, 674.513, 237.53)"/><path class="c" d="M10.12,8.054A14.437,14.437,0,0,1,.053,0a5.707,5.707,0,0,1,0,1.421V8.054a5.685,5.685,0,0,0,0,1.421A14.992,14.992,0,0,0,10.12,17.529c-.118,0,0-4.382,0-4.738C10.239,12.436,10.357,8.054,10.12,8.054Z" transform="matrix(0.259, 0.966, -0.966, 0.259, 756.325, 203.329)"/><path class="d" d="M8.225,8.054V1.421A5.685,5.685,0,0,1,8.225,0L.053,7.107a5.685,5.685,0,0,0,0,1.421v6.633a5.685,5.685,0,0,1,0,1.421L8.225,9.475Z" transform="matrix(0.259, 0.966, -0.966, 0.259, 622.974, 233.222)"/><path class="c" d="M8.225,8.054V1.421A5.685,5.685,0,0,1,8.225,0L.053,7.107a5.685,5.685,0,0,0,0,1.421c0,1.066,0,2.25,0,3.316s0,2.25,0,3.316a5.685,5.685,0,0,1,0,1.421L8.225,9.475Z" transform="translate(492.225 227.496) rotate(180)"/><path class="c" d="M10.581,2.843A26.837,26.837,0,0,1,.158,0c.237.118,0,4.382,0,4.738s-.355,4.5,0,4.738a26.836,26.836,0,0,0,10.423,2.843C10.462,12.2,10.936,2.843,10.581,2.843Z" transform="matrix(0.259, 0.966, -0.966, 0.259, 618.645, 126)"/><path class="e" d="M11.765,5.8A38.13,38.13,0,0,1,.158,0c.355.237,0,4.264,0,4.738S-.2,9.12.158,9.475a39.52,39.52,0,0,0,11.607,5.8c-.118,0,0-4.382,0-4.738S12,5.922,11.765,5.8Z" transform="matrix(0.259, 0.966, -0.966, 0.259, 574.69, 173.23)"/><path class="f" d="M7.936,2.9A4.082,4.082,0,0,0,2.014.535,4.036,4.036,0,0,0,.118,3.26,3.651,3.651,0,0,0,0,4.444C0,4.8.118,5.155.118,5.51a3.944,3.944,0,0,0,3.79,2.843A4.313,4.313,0,0,0,7.936,2.9Z" transform="matrix(0.259, 0.966, -0.966, 0.259, 683.885, 160.733)"/><path class="f" d="M2.31,0C-.77,0-.77,4.738,2.31,4.738S5.389,0,2.31,0Z" transform="matrix(0.259, 0.966, -0.966, 0.259, 726.214, 235.655)"/><path class="b" d="M3.663.073A2.906,2.906,0,0,0,.11,3.627,3.639,3.639,0,0,0,4.018,6.351,2.584,2.584,0,0,0,6.505,3.863,3.908,3.908,0,0,0,3.663.073Z" transform="matrix(0.259, 0.966, -0.966, 0.259, 764.321, 173.033)"/><path class="f" d="M3.08,0a3.139,3.139,0,0,0,0,6.277A3.139,3.139,0,0,0,3.08,0Z" transform="matrix(0.259, 0.966, -0.966, 0.259, 815.513, 233.53)"/><path class="d" d="M10.12,8.054A14.437,14.437,0,0,1,.053,0a5.707,5.707,0,0,1,0,1.421V8.054a5.685,5.685,0,0,0,0,1.421A14.992,14.992,0,0,0,10.12,17.529c-.118,0,0-4.382,0-4.738C10.239,12.436,10.357,8.054,10.12,8.054Z" transform="matrix(0.259, 0.966, -0.966, 0.259, 897.325, 199.329)"/><path class="c" d="M8.225,8.054V1.421A5.685,5.685,0,0,1,8.225,0L.053,7.107a5.685,5.685,0,0,0,0,1.421v6.633a5.685,5.685,0,0,1,0,1.421L8.225,9.475Z" transform="matrix(0.259, 0.966, -0.966, 0.259, 763.974, 229.222)"/><path class="c" d="M8.225,8.054V1.421A5.685,5.685,0,0,1,8.225,0L.053,7.107a5.685,5.685,0,0,0,0,1.421c0,1.066,0,2.25,0,3.316s0,2.25,0,3.316a5.685,5.685,0,0,1,0,1.421L8.225,9.475Z" transform="translate(633.225 223.496) rotate(180)"/><path class="d" d="M10.581,2.843A26.837,26.837,0,0,1,.158,0c.237.118,0,4.382,0,4.738s-.355,4.5,0,4.738a26.836,26.836,0,0,0,10.423,2.843C10.462,12.2,10.936,2.843,10.581,2.843Z" transform="matrix(0.259, 0.966, -0.966, 0.259, 759.645, 122)"/><path class="e" d="M11.765,5.8A38.13,38.13,0,0,1,.158,0c.355.237,0,4.264,0,4.738S-.2,9.12.158,9.475a39.52,39.52,0,0,0,11.607,5.8c-.118,0,0-4.382,0-4.738S12,5.922,11.765,5.8Z" transform="matrix(0.259, 0.966, -0.966, 0.259, 715.69, 169.23)"/></g></svg>