<svg width="24" height="24" viewBox="0 0 24 24" fill="none" xmlns="http://www.w3.org/2000/svg">
<path fill-rule="evenodd" clip-rule="evenodd" d="M22.9291 7C22.9758 7.3266 23 7.66048 23 8V9V11C23 11.5523 22.5523 12 22 12C21.4477 12 21 11.5523 21 11V9H18C16.3431 9 15 7.65685 15 6V3H10C8.89543 3 8 3.89543 8 5V11C8 11.5523 7.55228 12 7 12C6.44772 12 6 11.5523 6 11V5C6 2.79086 7.79086 1 10 1L15 1H16C16.3395 1 16.6734 1.02417 17 1.07089C17.1088 1.08645 17.2167 1.1045 17.3238 1.125C20.2352 1.68226 22.5062 4.04307 22.9291 7ZM17 6V3.10002C18.9591 3.4977 20.5023 5.04087 20.9 7H18C17.4477 7 17 6.55228 17 6ZM8.99401 22.2546L6.19714 18.0046L9.00002 13.7454L8.99999 13L7.32253 13.0001L7.16467 12.8962L7.0963 13.0001L6.99999 13.0001L7 13.1464L5.00002 16.1855L3.00002 13.1464L3.00003 13L2.90373 13L2.83536 12.8961L2.67749 13L1.00003 13L1 13.7454L3.80291 18.0046L1.00601 22.2546L1.00604 23L2.68355 23L2.84137 23.1038L2.90972 23L3.00604 23L3.00604 22.8536L5.00002 19.8236L6.99399 22.8536L6.99398 22.9999L7.0903 22.9999L7.15865 23.1038L7.31647 22.9999L8.99398 23L8.99401 22.2546ZM13 15C12.4477 15 12 15.4477 12 16C12 16.5522 12.4477 17 13 17C14.6569 17 16 18.3431 16 20C16 21.6568 14.6569 23 13 23C11.3432 23 10 21.6569 10 20L10 19.8537L12 19.8537V20C12 20.5523 12.4477 21 13 21C13.5523 21 14 20.5523 14 20C14 19.4477 13.5523 19 13 19C11.3432 19 10 17.6568 10 16C10 14.3431 11.3431 13 13 13H13.0488C14.6787 13 16 14.3213 16 15.9512H14C14 15.4259 13.5741 15 13.0488 15H13ZM19 13V21H23V23H17V13H19Z" fill="#36B383"/>
</svg>
