<svg xmlns="http://www.w3.org/2000/svg" width="18.06" height="15" viewBox="0 0 18.06 15"><defs><style>.a{fill:#666;}</style></defs><g transform="translate(-22.5 -44.1)"><path class="a" d="M25.921,81.906l.616-.616A9.359,9.359,0,0,1,23.477,78.1,9.254,9.254,0,0,1,31.53,73.45a9.615,9.615,0,0,1,2.486.34l.68-.68a10.4,10.4,0,0,0-3.166-.51,10.164,10.164,0,0,0-9.03,5.5A10.331,10.331,0,0,0,25.921,81.906Z" transform="translate(0 -26.482)"/><path class="a" d="M113.8,96.3l-.616.616a9.224,9.224,0,0,1,3.081,3.187,9.314,9.314,0,0,1-8.074,4.653,9.778,9.778,0,0,1-2.507-.34l-.68.68a9.917,9.917,0,0,0,3.187.51,10.164,10.164,0,0,0,9.03-5.5A10.331,10.331,0,0,0,113.8,96.3Z" transform="translate(-76.657 -48.503)"/><path class="a" d="M49.943,53.873l3.931-3.931.595-.616,1.36-1.339.616-.637L59.1,44.716l-.616-.616-2.847,2.847L55,47.606l-1.126,1.126-.616.595-3.931,3.931-.595.616-1.381,1.36-.616.637L44.1,58.484l.616.616,2.826-2.847.637-.637,1.147-1.147Z" transform="translate(-20.07)"/><path class="a" d="M102.054,99.25a2.424,2.424,0,0,1,.871.149l.659-.659a3.647,3.647,0,0,0-4.844,4.844l.659-.659a3,3,0,0,1-.149-.871A2.8,2.8,0,0,1,102.054,99.25Z" transform="translate(-70.525 -50.454)"/><path class="a" d="M129.93,132.734a2.424,2.424,0,0,1-.871-.149l-.659.659a3.647,3.647,0,0,0,4.844-4.844l-.659.659a3,3,0,0,1,.149.871A2.8,2.8,0,0,1,129.93,132.734Z" transform="translate(-98.4 -78.33)"/></g></svg>