<?xml version="1.0" encoding="utf-8"?>
<!-- Generator: Adobe Illustrator 22.1.0, SVG Export Plug-In . SVG Version: 6.00 Build 0)  -->
<svg xmlns="http://www.w3.org/2000/svg" width="50.919" height="50.932" viewBox="0 0 50.919 50.932"><defs><style>.a{fill:#adadad;stroke:#adadad;stroke-width:0.75px;}</style></defs><g transform="translate(-524.625 -254.944)"><g transform="translate(521.75 252.082)"><g transform="translate(3.25 3.249)"><g transform="translate(23.816 0)"><path class="a" d="M158.315,17.985H143.088a.513.513,0,0,1-.513-.513V3.762a.513.513,0,0,1,.856-.381l15.227,13.71a.513.513,0,0,1-.343.894ZM143.6,16.959h13.378L143.6,4.914Z" transform="translate(-142.575 -3.249)"/></g><g transform="translate(0 0.018)"><path class="a" d="M37.8,53.507H8.772A5.453,5.453,0,0,1,3.25,48.139V8.725A5.453,5.453,0,0,1,8.772,3.356H27.578a.513.513,0,0,1,.513.513V17.048h14.72a.513.513,0,0,1,.513.513V28.171H42.3v-10.1H27.578a.513.513,0,0,1-.513-.513V4.382H8.772a4.427,4.427,0,0,0-4.5,4.343V48.139a4.427,4.427,0,0,0,4.5,4.343H37.8a4.479,4.479,0,0,0,4.4-3.474l1,.213A5.509,5.509,0,0,1,37.8,53.507Z" transform="translate(-3.25 -3.356)"/></g></g><g transform="translate(30.85 27.542)"><path class="a" d="M176,167.277a10.959,10.959,0,1,1,11.285-10.954A11.136,11.136,0,0,1,176,167.277Zm0-20.882a9.934,9.934,0,1,0,10.259,9.928A10.109,10.109,0,0,0,176,146.395Z" transform="translate(-164.713 -145.369)"/></g><g transform="translate(37.371 37.982)"><path class="a" d="M211.878,207.47h-8.5a.513.513,0,0,1,0-1.026h8.5a.513.513,0,1,1,0,1.026Z" transform="translate(-202.862 -206.444)"/></g><g transform="translate(41.622 33.73)"><path class="a" d="M228.244,191.1a.513.513,0,0,1-.513-.513v-8.5a.513.513,0,1,1,1.026,0v8.5A.513.513,0,0,1,228.244,191.1Z" transform="translate(-227.731 -181.569)"/></g><g transform="translate(11.458 12.482)"><path class="a" d="M61.584,58.289h-9.8a.513.513,0,1,1,0-1.026h9.8a.513.513,0,1,1,0,1.026Z" transform="translate(-51.269 -57.263)"/></g><g transform="translate(11.458 18.583)"><path class="a" d="M61.584,93.982h-9.8a.513.513,0,1,1,0-1.026h9.8a.513.513,0,1,1,0,1.026Z" transform="translate(-51.269 -92.956)"/></g><g transform="translate(11.458 24.685)"><path class="a" d="M73.862,129.676H51.782a.513.513,0,1,1,0-1.026h22.08a.513.513,0,0,1,0,1.026Z" transform="translate(-51.269 -128.65)"/></g><g transform="translate(11.458 36.886)"><path class="a" d="M66.949,201.058H51.782a.513.513,0,0,1,0-1.026H66.949a.513.513,0,0,1,0,1.026Z" transform="translate(-51.269 -200.032)"/></g></g></g></svg>
