<svg version="1.1" id="Layer_1" xmlns:x="ns_extend;" xmlns:i="ns_ai;" xmlns:graph="ns_graphs;" xmlns="http://www.w3.org/2000/svg" xmlns:xlink="http://www.w3.org/1999/xlink" x="0px" y="0px" viewBox="0 0 86 43" style="enable-background:new 0 0 86 43;" xml:space="preserve">
 <style type="text/css">
  .st0{fill-rule:evenodd;clip-rule:evenodd;}
	.st1{fill:none;}
 </style>
 <metadata>
  <sfw xmlns="ns_sfw;">
   <slices>
   </slices>
   <sliceSourceBounds bottomLeftOrigin="true" height="42.4" width="85.1" x="0" y="0.6">
   </sliceSourceBounds>
  </sfw>
 </metadata>
 <g>
  <path class="st0" d="M73.7,16c-0.6,0-1-0.4-1-1v-4.4h-0.4c-2.3,0-3.1,0.4-3.1,2.5v4.9l0,0V19c0,0,0,0.1,0,0.1V26
		c0,0.8-0.2,1.5-0.5,2c-0.6,1-1.9,1.4-3.8,1.4c-2,0-3.2-0.4-3.8-1.4c-0.3-0.5-0.5-1.2-0.5-2v-6.8c0,0,0-0.1,0-0.1V18l0,0v-4.9
		c0-2.1-0.8-2.5-3.1-2.5h-0.7c-2.3,0-3.1,0.4-3.1,2.5V26c0,2.1,0.5,3.8,1.4,5.2c1.7,2.7,5.1,4.2,9.9,4.2h0c4.8,0,8.2-1.5,9.9-4.2
		c0.9-1.4,1.4-3.2,1.4-5.2V16L73.7,16z">
  </path>
  <path class="st1" d="M79.8,3.6h5.2v5.3h-5.2V3.6z">
  </path>
  <path class="st0" d="M84.3,8.9l-3.8,0c-0.4,0-0.7-0.3-0.7-0.7c0,0,0,0,0,0l0-3.8c0-0.4,0.3-0.7,0.7-0.7l3.8,0
		c0.4,0,0.7,0.3,0.7,0.7l0,3.8C85.1,8.6,84.7,8.9,84.3,8.9 M79.3,3.6l-2.6,0c-0.3,0-0.5-0.2-0.5-0.5V0.5c0-0.3,0.2-0.5,0.5-0.5
		l2.6,0c0.3,0,0.5,0.2,0.5,0.5l0,2.6C79.8,3.4,79.6,3.6,79.3,3.6">
  </path>
  <path class="st0" d="M14.6,18.4c0,3.1-0.8,4.7-4.9,4.7H3.4v-7.9c0-1.1,0.4-1.5,1.5-1.5h4.8C12.8,13.8,14.6,14.5,14.6,18.4
		 M9.7,10.6H4.2c-2.9,0-4.2,1.3-4.2,4.2v18.8c0,1.1,0.4,1.5,1.5,1.5h0.4c1.1,0,1.5-0.4,1.5-1.5v-7.3h6.3c5.6,0,8.3-2.5,8.3-7.9
		C18,13.1,15.3,10.6,9.7,10.6 M29.8,26.7v2.6c0,2.1-0.8,3.3-4.8,3.3c-2.6,0-3.9-1-3.9-2.9c0-2.1,1.3-3,4.6-3H29.8z M25,16
		c-2.2,0-3.5,0.3-4,0.4c-0.9,0.2-1.3,0.4-1.3,1.5v0.3c0,0.4,0.1,0.7,0.2,0.9c0.1,0.2,0.4,0.3,0.7,0.3c0.2,0,0.3,0,0.6-0.1
		c0.5-0.1,2.2-0.4,4-0.4c3.3,0,4.6,0.9,4.6,3.1v2h-4.1c-5.3,0-7.8,1.8-7.8,5.6c0,3.7,2.6,5.8,7.2,5.8c5.5,0,8-1.9,8-6.1V22
		C33,18,30.4,16,25,16L25,16z M51.2,16.9c-0.2-0.3-0.7-0.3-1.1-0.3h-0.3c-1.1,0-1.5,0.3-1.8,1.4l-3.1,12.8c-0.4,1.6-0.9,1.9-1.8,1.9
		c-1.1,0-1.6-0.3-2-1.9l-3.5-12.8c-0.3-1.1-0.7-1.4-1.8-1.4h-0.3c-0.4,0-0.9,0-1.1,0.3c-0.2,0.3-0.2,0.7,0,1.2l3.5,12.9
		c0.7,2.5,1.4,4.5,4.4,4.5c0.5,0,1.1-0.1,1.5-0.2c-0.9,2.8-1.8,4-4.5,4.3c-0.5,0-0.9,0.1-1.1,0.4c-0.2,0.3-0.2,0.7-0.1,1l0.1,0.3
		c0.2,0.8,0.4,1.2,1.3,1.2c0.1,0,0.2,0,0.3,0c4-0.3,6.1-2.4,7.4-7.4l4.3-17C51.3,17.6,51.4,17.1,51.2,16.9 M78.8,8.9h-5.1
		c-0.6,0-1,0.4-1,1l0,0.7h0.4c2.3,0,3.1,0.4,3.1,2.5v3h2.6c0.6,0,1-0.4,1-1l0-5.1C79.8,9.3,79.4,8.9,78.8,8.9
		C78.8,8.9,78.8,8.9,78.8,8.9">
  </path>
 </g>
</svg>