<?xml version="1.0" encoding="utf-8"?>
<!-- Generator: Adobe Illustrator 19.0.0, SVG Export Plug-In . SVG Version: 6.00 Build 0)  -->
<svg version="1.1" id="Layer_1" xmlns="http://www.w3.org/2000/svg" xmlns:xlink="http://www.w3.org/1999/xlink" x="0px" y="0px"
	 viewBox="-89 390.5 415.2 61.4" style="enable-background:new -89 390.5 415.2 61.4;" xml:space="preserve">
<style type="text/css">
	.st0{font-family:'ComicSansMS';}
	.st1{font-size:18px;}
</style>
<path id="XMLID_17_" d="M-76.1,396c2.5-0.8,5-1.3,7.6-1.7c1.2-0.2,4-1.4,5.1-0.3c1,1,0.2,2.8-0.1,3.8c-0.6,2.8-1.2,5.7-1.9,8.5
	c-0.1,0.3-0.5,0.4-0.8,0.3c-0.2-0.1-0.4-0.4-0.3-0.6c0.3-1.9,0.7-3.8,1-5.7c0.1-0.4,0.6-2.9,0.8-4.1c-7,9-14.2,20.6-11.9,32.8
	c2.5,13,20.3,20.2,31.2,14.1c0.5-0.3,1.1,0.6,0.6,0.9c-10.5,6.8-26.7,1-32.3-10.2c-3-6.1-1.9-13.2-0.2-19.4
	c1.9-6.6,5.1-13.9,10.4-18.6c-1.1,0.3-2.3,0.7-2.7,0.8c-1.9,0.5-3.9,0.9-5.9,1.1C-76.5,397.8-77.1,396.3-76.1,396z"/>
<text transform="matrix(1 0 0 1 -27.7807 448.8897)" class="st0 st1">Enter customer name / mobile no / email</text>
</svg>
