<?xml version="1.0" standalone="no"?>
<!DOCTYPE svg PUBLIC "-//W3C//DTD SVG 1.1//EN" "http://www.w3.org/Graphics/SVG/1.1/DTD/svg11.dtd" >
<svg xmlns="http://www.w3.org/2000/svg">
<metadata>Generated by IcoMoon</metadata>
<defs>
<font id="icomoon" horiz-adv-x="1024">
<font-face units-per-em="1024" ascent="960" descent="-64" />
<missing-glyph horiz-adv-x="1024" />
<glyph unicode="&#x20;" horiz-adv-x="512" d="" />
<glyph unicode="&#xe001;" glyph-name="log" d="M189.229 874.247h206.818c10.089 15.133 20.177 30.266 30.266 45.399 20.177 20.177 50.443 30.266 80.709 30.266s60.532-10.089 80.709-30.266c10.089-10.089 20.177-30.266 25.222-45.399h206.818c20.177 0 35.31-15.133 35.31-35.31v-857.537c0-20.177-15.133-35.31-35.31-35.31h-630.542c-20.177 0-35.31 15.133-35.31 35.31v857.537c5.044 20.177 20.177 35.31 35.31 35.31v0zM300.205 142.819h413.635c20.177 0 35.31 15.133 35.31 35.31s-15.133 35.31-35.31 35.31h-413.635c-20.177 0-35.31-15.133-35.31-35.31s15.133-35.31 35.31-35.31v0zM300.205 455.568h413.635c20.177 0 35.31 15.133 35.31 35.31s-15.133 35.31-35.31 35.31h-413.635c-20.177-5.044-35.31-20.177-35.31-35.31 0-20.177 15.133-35.31 35.31-35.31v0zM300.205 611.942h413.635c20.177 0 35.31 15.133 35.31 35.31s-15.133 35.31-35.31 35.31h-413.635c-20.177 0-35.31-15.133-35.31-35.31s15.133-35.31 35.31-35.31v0zM300.205 299.193h413.635c20.177 0 35.31 15.133 35.31 35.31s-15.133 35.31-35.31 35.31h-413.635c-20.177 0-35.31-15.133-35.31-35.31s15.133-35.31 35.31-35.31v0zM431.357 803.627h-201.773v-791.961h564.966v791.961h-201.773c-20.177 0-35.31 15.133-35.31 35.31 0 10.089-5.044 25.222-15.133 30.266-10.089 10.089-20.177 15.133-30.266 15.133s-30.266-5.044-35.31-15.133c-10.089-5.044-15.133-20.177-15.133-30.266 0-20.177-15.133-35.31-30.266-35.31z" />
<glyph unicode="&#xe002;" glyph-name="recurring" d="M439.466 874.246c20.177 0 35.31-15.133 35.31-35.31s-15.133-35.31-35.31-35.31c-95.842 0-186.64-40.355-247.172-100.887-65.576-65.576-100.887-151.33-100.887-247.172s40.355-186.64 100.887-247.172c65.576-65.576 151.33-100.887 247.172-100.887s186.64 40.355 247.172 100.887c65.576 65.576 100.887 151.33 100.887 247.172 0 45.399-10.089 90.798-25.222 131.153-10.089 25.222-20.177 45.399-35.31 65.576l-65.576-176.552c-5.044-20.177-25.222-30.266-45.399-20.177-10.089 0-20.177 20.177-15.133 35.31l85.754 237.084c0 5.044 5.044 10.089 10.089 15.133 10.089 10.089 25.222 10.089 40.355 5.044l237.084-80.709c20.177-5.044 30.266-25.222 20.177-45.399-5.044-20.177-25.222-30.266-45.399-20.177l-131.153 45.399c5.044-15.133 15.133-25.222 20.177-40.355 20.177-50.443 30.266-100.887 30.266-156.374 0-116.020-45.399-221.951-126.108-302.66-75.665-75.665-181.596-126.108-302.66-126.108-116.020 0-221.951 45.399-302.66 126.108-75.665 75.665-126.108 181.596-126.108 302.66 0 116.020 45.399 221.951 126.108 302.66 80.709 70.621 186.64 121.064 302.66 121.064z" />
<glyph unicode="&#xe004;" glyph-name="dashboard" d="M89.6 222.721c0-20.48-10.24-35.84-30.72-40.96-20.48 0-35.84 10.24-40.96 30.72 0 10.24 0 20.48 0 30.72s0 20.48 0 30.72c0 138.24 56.32 261.12 143.36 353.28 87.040 87.040 209.92 143.36 348.16 143.36s261.12-56.32 353.28-143.36c92.16-92.16 143.36-215.040 143.36-353.28 0-10.24 0-20.48 0-30.72s0-20.48 0-30.72-20.48-35.84-40.96-30.72c-20.48 0-35.84 20.48-30.72 40.96 0 10.24 0 15.36 0 25.6 0 5.12 0 15.36 0 25.6 0 117.76-46.080 225.28-122.88 302.080s-184.32 122.88-302.080 122.88-225.28-51.2-302.080-128c-76.8-76.8-122.88-179.2-122.88-296.96 0-10.24 0-15.36 0-25.6s0-15.36 5.12-25.6v0zM576 330.241l-225.28 235.52c-10.24 10.24-25.6 15.36-40.96 10.24-20.48-10.24-25.6-30.72-20.48-46.080l128-302.080c0-25.6 15.36-51.2 30.72-71.68v0c20.48-20.48 46.080-30.72 76.8-30.72s56.32 10.24 76.8 30.72v0c20.48 20.48 30.72 46.080 30.72 76.8 0 20.48-5.12 40.96-15.36 61.44v0c-10.24 15.36-25.6 30.72-40.96 35.84z" />
<glyph unicode="&#xe005;" glyph-name="purchase" horiz-adv-x="1009" d="M116.020 788.494h776.828c25.222 0 50.443-10.089 70.621-30.266v0c15.133-15.133 30.266-40.355 30.266-70.621v-484.256c0-25.222-10.089-50.443-30.266-70.621v0c-20.177-15.133-40.355-30.266-70.621-30.266h-776.828c-25.222 0-50.443 10.089-70.621 30.266v0c-15.133 15.133-30.266 40.355-30.266 70.621v489.3c0 25.222 10.089 50.443 30.266 70.621v0c20.177 15.133 45.399 25.222 70.621 25.222v0zM90.798 627.075h827.271v65.576c0 5.044-5.044 15.133-10.089 20.177v0c-5.044 5.044-10.089 10.089-20.177 10.089h-771.783c-5.044-5.044-15.133-10.089-20.177-15.133v0c-5.044-5.044-5.044-10.089-5.044-15.133v-65.576zM918.069 506.011h-827.271v-297.616c0-5.044 5.044-15.133 10.089-20.177v0c5.044-5.044 10.089-10.089 20.177-10.089h776.828c5.044 0 15.133 5.044 20.177 10.089v0c5.044 5.044 10.089 10.089 10.089 20.177v297.616z" />
<glyph unicode="&#xe006;" glyph-name="invoice" horiz-adv-x="1009" d="M166.463 944.868h675.941c20.177 0 35.31-15.133 35.31-35.31v-913.025c0-20.177-15.133-35.31-35.31-35.31h-675.941c-20.177 0-35.31 15.133-35.31 35.31v907.98c0 20.177 15.133 40.355 35.31 40.355v0zM509.478 92.375v0c-20.177 0-40.355 15.133-35.31 35.31 0 20.177 15.133 35.31 35.31 35.31h232.039c20.177 0 35.31-15.133 35.31-35.31s-15.133-35.31-35.31-35.31h-232.039zM650.719 546.366h50.443v-252.217h-50.443v252.217zM580.099 294.149h-252.217v252.217h252.217v-252.217zM292.571 707.784h443.901c20.177 0 35.31 15.133 35.31 35.31s-15.133 35.31-35.31 35.31h-443.901c-20.177 0-35.31-15.133-35.31-35.31s15.133-35.31 35.31-35.31v0zM292.571 616.986c-20.177 0-35.31-15.133-35.31-35.31v-322.837c0-20.177 15.133-35.31 35.31-35.31h443.901c20.177 0 35.31 15.133 35.31 35.31v322.837c0 20.177-15.133 35.31-35.31 35.31h-443.901zM807.094 869.203h-605.32v-842.404h605.32v842.404z" />
<glyph unicode="&#xe007;" glyph-name="report" horiz-adv-x="1009" d="M85.754-18.6c-10.089-15.133-30.266-20.177-50.443-10.089-15.133 10.089-20.177 30.266-10.089 50.443l433.813 665.852c10.089 15.133 30.266 20.177 50.443 10.089 10.089-5.044 15.133-20.177 15.133-30.266v0-332.926l363.192 524.611h-136.197c-20.177 0-35.31 15.133-35.31 35.31s15.133 35.31 35.31 35.31h206.818c20.177 0 35.31-15.133 35.31-35.31v-232.039c0-20.177-15.133-35.31-35.31-35.31s-35.31 15.133-35.31 35.31v121.064l-398.502-580.099c-5.044-10.089-20.177-20.177-30.266-20.177-25.222 5.044-40.355 20.177-40.355 40.355v327.882l-368.236-570.010z" />
<glyph unicode="&#xe008;" glyph-name="sales" horiz-adv-x="1009" d="M590.187 929.735l343.015-20.177c20.177 0 30.266-15.133 35.31-35.31l20.177-343.015c0-10.089-5.044-20.177-10.089-25.222l-529.655-529.655c-15.133-15.133-35.31-15.133-50.443 0l-363.192 363.192c-15.133 15.133-15.133 35.31 0 50.443l524.611 529.655c10.089 10.089 20.177 15.133 30.266 10.089v0zM736.473 763.272c-35.31 0-60.532-25.222-60.532-60.532s25.222-60.532 60.532-60.532c35.31 0 60.532 25.222 60.532 60.532s-25.222 60.532-60.532 60.532v0zM897.892 843.981l-297.616 15.133-494.345-494.345 317.793-312.749 494.345 494.345-20.177 297.616z" />
<glyph unicode="&#xe010;" glyph-name="setting" horiz-adv-x="1009" d="M428.768 939.824h156.374c20.177 0 35.31-15.133 35.31-35.31v-116.020c10.089-5.044 15.133-5.044 25.222-10.089v0c5.044-5.044 15.133-5.044 20.177-10.089l80.709 80.709c15.133 15.133 35.31 15.133 50.443 0l110.975-105.931c15.133-15.133 15.133-35.31 0-50.443l-85.754-85.754c5.044-5.044 5.044-15.133 10.089-25.222v0c5.044-5.044 5.044-15.133 10.089-20.177h116.020c20.177 0 35.31-15.133 35.31-35.31v-156.374c0-20.177-15.133-35.31-35.31-35.31h-116.020c-5.044-10.089-5.044-15.133-10.089-25.222s-5.044-15.133-10.089-25.222l80.709-80.709c15.133-15.133 15.133-35.31 0-50.443l-110.975-110.975c-15.133-15.133-35.31-15.133-50.443 0l-80.709 80.709c-5.044-5.044-15.133-5.044-25.222-10.089s-15.133-5.044-25.222-10.089v-116.020c0-20.177-15.133-35.31-35.31-35.31h-146.286c-20.177 0-35.31 15.133-35.31 35.31v116.020c-10.089 5.044-15.133 5.044-25.222 10.089v0c-10.089 5.044-15.133 5.044-25.222 10.089l-80.709-80.709c-15.133-15.133-35.31-15.133-50.443 0l-110.975 116.020c-15.133 15.133-15.133 35.31 0 50.443l80.709 80.709c-5.044 5.044-5.044 15.133-10.089 25.222v0c-5.044 5.044-5.044 15.133-10.089 20.177h-110.975c-20.177 0-35.31 15.133-35.31 35.31v156.374c0 20.177 15.133 35.31 35.31 35.31h116.020c5.044 10.089 5.044 15.133 10.089 25.222 0 5.044 5.044 15.133 10.089 20.177l-85.754 85.754c-15.133 15.133-15.133 35.31 0 50.443l110.975 110.975c15.133 15.133 35.31 15.133 50.443 0l80.709-80.709c10.089 0 15.133 5.044 25.222 5.044 10.089 5.044 15.133 5.044 25.222 10.089v116.020c0 20.177 15.133 35.31 35.31 35.31v0zM504.433 627.075v0c50.443 0 95.842-20.177 126.108-50.443s50.443-75.665 50.443-126.108c0-50.443-20.177-95.842-50.443-126.108s-75.665-50.443-126.108-50.443c-50.443 0-95.842 20.177-126.108 50.443s-50.443 75.665-50.443 126.108c0 50.443 20.177 95.842 50.443 126.108s75.665 50.443 126.108 50.443zM580.099 526.188c-20.177 20.177-45.399 30.266-75.665 30.266s-55.488-10.089-75.665-30.266c-20.177-20.177-30.266-45.399-30.266-75.665s10.089-55.488 30.266-75.665c20.177-20.177 45.399-30.266 75.665-30.266s55.488 10.089 75.665 30.266c20.177 20.177 30.266 45.399 30.266 75.665s-10.089 55.488-30.266 75.665v0zM544.788 869.203h-80.709v-105.931c0-15.133-10.089-30.266-25.222-35.31s-30.266-10.089-45.399-15.133c-10.089-5.044-25.222-10.089-35.31-20.177-15.133-5.044-35.31-5.044-45.399 5.044l-75.665 75.665-60.532-55.488 75.665-75.665c10.089-10.089 15.133-30.266 5.044-45.399-5.044-10.089-10.089-25.222-15.133-40.355-5.044-10.089-10.089-25.222-15.133-35.31 0-20.177-15.133-30.266-35.31-30.266h-105.931v-80.709h105.931c15.133 0 30.266-10.089 35.31-25.222s10.089-25.222 10.089-40.355v0c10.089-15.133 15.133-30.266 20.177-40.355 10.089-15.133 10.089-35.31-5.044-45.399l-75.665-75.665 60.532-60.532 75.665 75.665c10.089 10.089 30.266 15.133 45.399 5.044 10.089-5.044 25.222-15.133 40.355-20.177 10.089-5.044 25.222-10.089 40.355-15.133s30.266-20.177 30.266-35.31v-105.931h80.709v105.931c0 15.133 10.089 30.266 25.222 35.31s25.222 10.089 40.355 15.133c15.133 5.044 25.222 10.089 35.31 20.177 15.133 10.089 35.31 10.089 45.399-5.044l75.665-75.665 60.532 60.532-75.665 75.665c-10.089 10.089-15.133 30.266-5.044 45.399 5.044 10.089 15.133 25.222 20.177 40.355 5.044 10.089 10.089 25.222 15.133 40.355s20.177 30.266 35.31 30.266h105.931v75.665h-105.931c-15.133 0-30.266 10.089-35.31 25.222s-10.089 25.222-10.089 40.355v0c-5.044 15.133-10.089 25.222-20.177 35.31-15.133 15.133-15.133 35.31 0 50.443l75.665 75.665-60.532 60.532-75.665-75.665c-10.089-10.089-30.266-15.133-45.399-5.044-10.089 5.044-25.222 15.133-35.31 20.177v0c-10.089 5.044-25.222 10.089-40.355 15.133s-30.266 20.177-30.266 35.31v100.887z" />
<glyph unicode="&#xe011;" glyph-name="tbpl" horiz-adv-x="1009" d="M50.443 415.213c-20.177 0-35.31 15.133-35.31 35.31s15.133 35.31 35.31 35.31h45.399v302.66c0 20.177 15.133 35.31 35.31 35.31h211.862c20.177 0 35.31-15.133 35.31-35.31v-302.66h580.099c20.177 0 35.31-15.133 35.31-35.31s-15.133-35.31-35.31-35.31h-105.931v-307.704c0-20.177-15.133-35.31-35.31-35.31h-211.862c-20.177 0-35.31 15.133-35.31 35.31v307.704h-519.567z" />
<glyph unicode="&#xe012;" glyph-name="tax" d="M896.404 13.528h-39.84v47.377c0 4.307-3.23 7.537-7.537 7.537h-674.052c-4.307 0-7.537-3.23-7.537-7.537v-47.377h-39.84c-4.307 0-7.537-3.23-7.537-7.537v-62.452c0-4.307 3.23-7.537 7.537-7.537h768.807c4.307 0 7.537 3.23 7.537 7.537v63.529c-1.077 4.307-4.307 6.461-7.537 6.461zM893.173 537.911l-369.329 214.275c-1.077 0-1.077 1.077-2.154 1.077v82.911h137.825c3.23 0 5.384 2.154 5.384 5.384v102.292c0 3.23-2.154 5.384-5.384 5.384h-137.825v5.384c0 3.23-2.154 5.384-5.384 5.384h-9.691c-3.23 0-5.384-2.154-5.384-5.384v-202.431c-1.077 0-1.077 0-2.154-1.077l-368.252-214.275c-6.461-3.23-10.768-9.691-10.768-17.228v-24.766c0-7.537 6.461-13.998 13.998-13.998h753.733c7.537 0 13.998 6.461 13.998 13.998v24.766c1.077 9.691-2.154 15.075-8.614 18.305zM213.737 124.434c-4.307 0-7.537-3.23-7.537-7.537v-22.612c0-4.307 3.23-7.537 7.537-7.537h76.45c4.307 0 7.537 3.23 7.537 7.537v22.612c0 4.307-3.23 7.537-7.537 7.537h-9.691v302.57h9.691c4.307 0 7.537 3.23 7.537 7.537v22.612c0 4.307-3.23 7.537-7.537 7.537h-76.45c-4.307 0-7.537-3.23-7.537-7.537v-22.612c0-4.307 3.23-7.537 7.537-7.537h9.691v-303.647h-9.691zM733.813 124.434c-4.307 0-7.537-3.23-7.537-7.537v-22.612c0-4.307 3.23-7.537 7.537-7.537h76.45c4.307 0 7.537 3.23 7.537 7.537v22.612c0 4.307-3.23 7.537-7.537 7.537h-9.691v302.57h9.691c4.307 0 7.537 3.23 7.537 7.537v22.612c0 4.307-3.23 7.537-7.537 7.537h-76.45c-4.307 0-7.537-3.23-7.537-7.537v-22.612c0-4.307 3.23-7.537 7.537-7.537h9.691v-303.647h-9.691zM603.525 124.434c-4.307 0-7.537-3.23-7.537-7.537v-22.612c0-4.307 3.23-7.537 7.537-7.537h76.45c4.307 0 7.537 3.23 7.537 7.537v22.612c0 4.307-3.23 7.537-7.537 7.537h-9.691v302.57h9.691c4.307 0 7.537 3.23 7.537 7.537v22.612c0 4.307-3.23 7.537-7.537 7.537h-76.45c-4.307 0-7.537-3.23-7.537-7.537v-22.612c0-4.307 3.23-7.537 7.537-7.537h9.691v-303.647h-9.691zM474.313 124.434c-4.307 0-7.537-3.23-7.537-7.537v-22.612c0-4.307 3.23-7.537 7.537-7.537h76.45c4.307 0 7.537 3.23 7.537 7.537v22.612c0 4.307-3.23 7.537-7.537 7.537h-9.691v302.57h9.691c4.307 0 7.537 3.23 7.537 7.537v22.612c0 4.307-3.23 7.537-7.537 7.537h-76.45c-4.307 0-7.537-3.23-7.537-7.537v-22.612c0-4.307 3.23-7.537 7.537-7.537h9.691v-303.647h-9.691zM344.025 124.434c-4.307 0-7.537-3.23-7.537-7.537v-22.612c0-4.307 3.23-7.537 7.537-7.537h76.45c4.307 0 7.537 3.23 7.537 7.537v22.612c0 4.307-3.23 7.537-7.537 7.537h-9.691v302.57h9.691c4.307 0 7.537 3.23 7.537 7.537v22.612c0 4.307-3.23 7.537-7.537 7.537h-76.45c-4.307 0-7.537-3.23-7.537-7.537v-22.612c0-4.307 3.23-7.537 7.537-7.537h9.691v-303.647h-9.691z" />
<glyph unicode="&#xe013;" glyph-name="manufacturing1" d="M801.342 523.481l-383.694-132.091-69.191 213.862 377.403 132.091zM549.74 89.468c0-18.87 0-37.74 0-50.32l459.175 157.251-18.87 44.031-440.304-150.962zM361.038 183.818c-62.901-25.16-100.641-94.351-75.48-157.251s94.351-100.641 157.251-75.48c62.901 25.16 100.641 94.351 75.48 157.251-18.87 69.191-88.060 100.641-157.251 75.48zM423.94 7.697c-31.451-12.58-69.191 6.29-81.771 37.74s6.29 69.191 37.74 81.771c31.451 12.58 69.191-6.29 81.771-37.74 18.87-31.451 0-69.191-37.74-81.771zM436.52 347.36l56.61-163.542c18.87-12.58 37.74-37.74 50.32-62.901l471.755 163.542-81.771 232.733-496.914-169.831zM442.809 215.268l-245.313 698.198v31.451l-188.702 6.29v-81.771l144.672-6.29 226.442-647.877z" />
<glyph unicode="&#xe014;" glyph-name="permission" d="M691.2 960.001c-166.4 0-300.8-134.4-300.8-300.8 0-57.6 19.2-121.6 51.2-166.4l-409.6-422.4 102.4-102.4 70.4 70.4 102.4-102.4 230.4 230.4-102.4 102.4 121.6 121.6c147.2-83.2 326.4-25.6 403.2 121.6s25.6 332.801-115.201 409.6c-51.2 25.6-102.4 38.4-153.6 38.4zM691.2 460.801c-108.8 0-192 89.6-192 198.4s89.6 198.4 192 198.4c108.8 0 192-89.6 192-198.4s-83.2-198.4-192-198.4c0 0 0 0 0 0z" />
<glyph unicode="&#xe015;" glyph-name="daybook" horiz-adv-x="904" d="M842.355 952.001h-686.701c-25.2 0-50.4-25.2-50.4-50.4v-100.8h-44.1c-25.2 0-50.4-25.2-50.4-50.4s18.9-50.4 50.4-50.4h50.4v-100.8h-50.4c-25.2 0-50.4-25.2-50.4-50.4s18.9-50.4 50.4-50.4h50.4v-100.8h-50.4c-25.2 0-50.4-25.2-50.4-50.4s18.9-50.4 50.4-50.4h50.4v-100.8h-50.4c-25.2 0-50.4-25.2-50.4-50.4s18.9-50.4 50.4-50.4h50.4v-100.8c0-25.2 18.9-50.4 50.4-50.4h686.701c25.2 0 50.4 25.2 50.4 50.4v907.2c-6.301 25.2-25.2 50.4-56.7 50.4zM697.454 567.701c0-12.6-6.301-18.9-18.9-18.9h-352.801c-12.6 0-18.9 6.301-18.9 18.9v214.2c0 12.6 6.301 18.9 18.9 18.9h352.801c12.6 0 18.9-6.301 18.9-18.9v-214.2z" />
<glyph unicode="&#xe016;" glyph-name="journal" d="M1023.999 960h-1024v-1024h1024v1024zM992-31.999h-959.999v966.4h959.999v-966.4zM377.6 371.201c0-38.4 0-70.4-6.4-89.6s-12.8-38.4-25.6-51.2c-19.2-19.2-38.4-32-64-44.8s-57.6-12.8-96-12.8c-44.8 0-83.2 12.8-108.8 32s-38.4 44.8-38.4 76.8c0 19.2 6.4 38.4 19.2 51.2s32 19.2 51.2 19.2c19.2 0 32-6.4 44.8-19.2s19.2-25.6 19.2-44.8-6.4-38.4-25.6-51.2c-6.4-6.4-6.4-6.4-6.4-6.4 0-6.4 6.4-6.4 12.8-12.8s12.8-6.4 25.6-6.4c25.6 0 44.8 12.8 51.2 32 12.8 19.2 19.2 51.2 19.2 89.6v288c0 25.6-6.4 38.4-12.8 44.8-12.8 6.4-32 12.8-64 12.8v38.4h262.4v-38.4c-19.2 0-38.4-6.4-44.8-12.8s-12.8-19.2-12.8-44.8v-249.6zM678.4 172.801l-160 441.6c-12.8 25.6-19.2 38.4-25.6 44.8-12.8 12.8-25.6 19.2-44.8 19.2v38.4h256v-38.4c-19.2 0-32-6.4-44.8-12.8s-12.8-12.8-12.8-19.2c0 0 0-6.4 0-12.8s0-6.4 6.4-12.8l108.8-300.8 102.399 288v6.4c6.4 12.8 6.4 25.6 6.4 32 0 12.8-6.4 19.2-12.8 25.6s-25.6 12.8-44.8 12.8v32h166.4v-38.4c-19.2 0-32-12.8-38.4-19.2-12.8-12.8-19.2-25.6-32-51.2l-160-435.2c0 0-70.4 0-70.4 0z" />
<glyph unicode="&#xe900;" glyph-name="branch-transfer" horiz-adv-x="890" d="M502.78 127.127c-17.386 17.386-17.386 45.577 0 62.963l57.562 57.562h-337.733c-24.588 0-44.522 19.932-44.522 44.522s19.933 44.522 44.522 44.522h337.733l-57.562 57.562c-17.386 17.386-17.386 45.577 0 62.963s45.577 17.386 62.963 0l130.418-130.418c19.127-19.127 19.127-50.131 0-69.258l-130.418-130.418c-17.386-17.386-45.577-17.386-62.963 0zM489.739 803.312v-154.964h222.609c98.353 0 178.087-79.732 178.087-178.087v-534.261h-890.435v534.261c0 98.355 79.732 178.087 178.087 178.087v154.964l155.826 124.661 155.826-124.661zM400.696 648.348v112.168l-66.783 53.426-66.783-53.426v-112.168h133.565zM712.348 559.304h-534.261c-49.177 0-89.043-39.866-89.043-89.043v-445.217h712.348v445.217c0 49.177-39.865 89.043-89.043 89.043z" />
<glyph unicode="&#xe901;" glyph-name="create-new" d="M465.455 261.818c0-25.707 20.838-46.545 46.545-46.545s46.545 20.838 46.545 46.545v139.636h139.636c25.707 0 46.545 20.838 46.545 46.545s-20.838 46.545-46.545 46.545h-139.636v139.636c0 25.707-20.838 46.545-46.545 46.545s-46.545-20.839-46.545-46.545v-139.636h-139.636c-25.706 0-46.545-20.838-46.545-46.545s20.839-46.545 46.545-46.545h139.636v-139.636zM512-64c282.768 0 512 229.232 512 512 0 282.77-229.232 512-512 512-282.77 0-512-229.23-512-512 0-282.768 229.23-512 512-512zM930.909 448c0-231.359-187.55-418.909-418.909-418.909-231.357 0-418.909 187.55-418.909 418.909 0 231.357 187.552 418.909 418.909 418.909 231.359 0 418.909-187.552 418.909-418.909z" />
<glyph unicode="&#xe902;" glyph-name="fixed-assets" d="M217.6 550.4h128v-128h-128v128zM345.6 307.2h-128v-128h128v128zM0 806.4v-870.4h563.2v102.4h59.94c21.084-59.658 77.983-102.4 144.86-102.4s123.776 42.742 144.86 102.4h59.94c28.278 0 51.2 22.922 51.2 51.2v161.428c0 50.058-36.188 92.774-85.565 101.007l-91.494 15.247-59.412 74.271c-29.153 36.435-73.283 57.646-119.946 57.646h-104.381v307.2c0 84.831-68.769 153.6-153.6 153.6h-256c-84.831 0-153.6-68.769-153.6-153.6zM623.14 140.8h-59.94v256h104.381c15.555 0 30.264-7.071 39.982-19.215l71.654-89.569c7.88-9.851 19.123-16.445 31.565-18.519l110.817-18.468v-110.228h-8.74c-21.084 59.658-77.983 102.4-144.86 102.4s-123.776-42.742-144.86-102.4zM460.8 38.4h-358.4v768c0 28.277 22.923 51.2 51.2 51.2h256c28.277 0 51.2-22.923 51.2-51.2v-768zM716.8 89.6c0 28.278 22.922 51.2 51.2 51.2s51.2-22.922 51.2-51.2c0-28.278-22.922-51.2-51.2-51.2s-51.2 22.922-51.2 51.2z" />
<glyph unicode="&#xe903;" glyph-name="group-wise" d="M0 820.364c0 77.119 62.518 139.636 139.636 139.636h372.364c77.121 0 139.636-62.518 139.636-139.636v-3.3c15.202 2.175 30.743 3.3 46.545 3.3 179.945 0 325.818-145.874 325.818-325.818 0-162.7-119.254-297.542-275.116-321.899l27.425-47.504c48.538-84.061-12.13-189.142-109.2-189.142h-447.803c-97.069 0-157.736 105.081-109.202 189.142l105.782 183.222h-76.249c-77.119 0-139.636 62.515-139.636 139.636v372.364zM640.74 173.773c-125.291 22.286-225.815 116.187-257.735 237.871l-192.283-333.047c-12.704-22.002 3.176-49.506 28.583-49.506h447.803c25.409 0 41.286 27.504 28.584 49.506l-54.952 95.176zM378.605 558.332c20.282 102.186 88.353 187.168 179.941 230.677v31.354c0 25.706-20.838 46.545-46.545 46.545h-372.364c-25.706 0-46.545-20.839-46.545-46.545v-372.364c0-25.707 20.839-46.545 46.545-46.545h129.995l64.373 111.497c11.338 19.639 26.872 34.837 44.6 45.38zM465.455 494.545c0-128.531 104.197-232.727 232.727-232.727s232.727 104.197 232.727 232.727c0 128.532-104.197 232.727-232.727 232.727s-232.727-104.196-232.727-232.727z" />
<glyph unicode="&#xe904;" glyph-name="item-wise" horiz-adv-x="931" d="M739.812 566.82c11.497 22.993 2.178 50.951-20.815 62.447s-50.949 2.177-62.445-20.816l-83.833-167.662-105.16 131.454c-23.343 29.178-69.066 24.333-85.777-9.087l-65.7-131.402-98.073-32.689c-24.387-8.131-37.567-34.49-29.438-58.875 8.129-24.39 34.489-37.567 58.876-29.44l114.535 38.177c12.882 4.296 23.531 13.531 29.604 25.679l44.18 88.357 105.163-131.454c23.343-29.175 69.064-24.329 85.774 9.090l113.11 226.219zM372.384 905.968l-257.224-148.467c-57.616-33.255-93.11-94.725-93.11-161.249v-296.844c0-66.523 35.494-127.991 93.11-161.247l257.223-148.466c57.595-33.243 128.548-33.243 186.144 0l257.224 148.466c57.614 33.257 93.11 94.725 93.11 161.247v296.844c0 66.524-35.496 127.994-93.11 161.249l-257.224 148.467c-57.595 33.243-128.548 33.243-186.143 0zM511.991 825.343l257.224-148.466c28.807-16.628 46.555-47.362 46.555-80.625v-296.844c0-33.261-17.748-63.995-46.555-80.621l-257.224-148.466c-28.798-16.626-64.274-16.626-93.072 0l-257.223 148.466c-28.808 16.626-46.555 47.36-46.555 80.621v296.844c0 33.262 17.747 63.997 46.555 80.625l257.224 148.466c28.797 16.622 64.274 16.622 93.071 0z" />
<glyph unicode="&#xe905;" glyph-name="manufacturing" d="M334.966 494.722c3.808 0.147 7.592 0.386 11.351 0.714l122.805-213.445c-31.647-45.275-50.213-100.375-50.213-159.809v-93.091h-372.364c-25.706 0-46.545-20.838-46.545-46.545s20.839-46.545 46.545-46.545h930.909c25.707 0 46.545 20.838 46.545 46.545s-20.838 46.545-46.545 46.545v93.091c0 125.822-83.205 232.206-197.595 267.138l-226.476 288.984c3.384 15.788 5.162 32.17 5.162 48.968 0 128.532-104.196 232.727-232.727 232.727s-232.727-104.196-232.727-232.727c0-25.853 4.216-50.721 11.996-73.955l-51.747-73.903c-34.209-48.856-32.779-112.006-1.153-158.579l-42.316-60.435c-14.745-21.057-9.627-50.078 11.43-64.824s50.080-9.626 64.825 11.432l41.067 58.647c56.219-17.054 119.384 2.835 154.913 53.574l52.86 75.492zM465.455 727.273c0-77.119-62.518-139.636-139.636-139.636s-139.636 62.518-139.636 139.636c0 77.119 62.518 139.636 139.636 139.636s139.636-62.518 139.636-139.636zM234.287 513.236c-29.013 12.423-54.991 30.574-76.512 53.029l-28.18-40.245c-14.744-21.057-9.627-50.079 11.431-64.824s50.081-9.626 64.825 11.432l28.436 40.609zM437.753 523.183l99.415-172.788c34.285 24.232 74.268 40.932 117.546 47.7l-145.59 185.771c-19.377-24.736-43.655-45.45-71.371-60.683zM884.364 122.182v-93.091h-372.364v93.091c0 102.824 83.358 186.182 186.182 186.182s186.182-83.358 186.182-186.182z" />
<glyph unicode="&#xe906;" glyph-name="service" horiz-adv-x="1073" d="M426.667 838.095c33.663 0 60.952 27.289 60.952 60.952s-27.289 60.952-60.952 60.952c-33.663 0-60.952-27.289-60.952-60.952s27.29-60.952 60.952-60.952zM848.111 599.516l-165.122-132.099c-26.834 31.714-66.931 51.85-111.723 51.85h-231.308c-63.304 0-124.9-20.532-175.543-58.516l-140.034-105.023c-10.054-7.543-16.367-18.217-18.599-29.652-0.597-3.048-0.904-6.159-0.909-9.289-0.012-5.578 0.93-11.191 2.864-16.564l102.167-306.498c4.247-12.741 13.56-23.167 25.743-28.818s26.157-6.027 38.626-1.039l119.437 47.777h347.588c81.515 0 157.642 40.741 202.859 108.568l199.821 299.73c42.584 63.875 23.133 150.379-42.696 189.876-48.191 28.915-109.285 24.806-153.171-10.302zM186.068 73.621l-75.057 225.173 111.917 83.939c33.762 25.322 74.826 39.010 117.029 39.010h231.308c26.926 0 48.762-21.831 48.762-48.762v-10.001c0-26.931-21.836-48.762-48.762-48.762h-158.791c-26.93 0-48.762-21.831-48.762-48.762s21.832-48.762 48.762-48.762h158.791c80.789 0 146.286 65.492 146.286 146.286v7.197l191.483 153.186c12.054 9.644 28.833 10.772 42.072 2.83 18.081-10.849 23.425-34.609 11.727-52.153l-199.821-299.73c-27.131-40.697-72.806-65.141-121.715-65.141h-356.979c-6.203 0-12.35-1.185-18.11-3.491l-80.141-32.056zM707.048 899.048c0-33.663-27.287-60.952-60.952-60.952s-60.952 27.289-60.952 60.952c0 33.663 27.287 60.952 60.952 60.952s60.952-27.289 60.952-60.952zM409.637 789.369c-13.485 23.311-43.314 31.277-66.625 17.792s-31.277-43.314-17.792-66.625c42.082-72.748 120.857-121.87 211.162-121.87 90.307 0 169.082 49.122 211.163 121.87 13.483 23.311 5.52 53.14-17.793 66.625s-53.141 5.519-66.623-17.792c-25.366-43.852-72.66-73.178-126.747-73.178-54.084 0-101.377 29.326-126.744 73.178z" />
<glyph unicode="&#xe907;" glyph-name="stock" horiz-adv-x="931" d="M372.384 905.968c57.595 33.243 128.548 33.243 186.143 0l257.224-148.466c57.614-33.255 93.11-94.725 93.11-161.25v-296.844c0-66.523-35.496-127.991-93.11-161.247l-257.224-148.466c-57.595-33.243-128.549-33.243-186.144 0l-257.223 148.466c-57.616 33.257-93.11 94.725-93.11 161.247v296.844c0 66.525 35.494 127.994 93.11 161.25l257.224 148.466zM511.991 825.344l256.74-148.188-280.376-162.278c-14.21-8.027-31.597-8.026-45.807 0.005l-280.369 162.274 256.741 148.188c28.797 16.621 64.274 16.621 93.071 0zM115.142 596.782l-0.002-0.53v-296.844c0-33.261 17.747-63.995 46.555-80.621l257.213-148.461v323.863c0 16.468-8.713 31.707-22.899 40.066l-0.502 0.289-280.366 162.238zM534.891 434.25c-14.182-8.364-22.891-23.599-22.891-40.062v-323.863l257.215 148.461c28.807 16.626 46.555 47.36 46.555 80.621v296.844l-0.005 0.53-280.874-162.532z" />
<glyph unicode="&#xe908;" glyph-name="transactions" horiz-adv-x="1071" d="M870.851 911.438c19.6 5.964 40.792-1.587 52.205-18.6l104.685-156.064c14.322-21.348 8.625-50.263-12.721-64.583-21.35-14.321-50.264-8.623-64.586 12.725l-19.493 29.062-0.023-498.719c-0.005-154.233-125.040-279.259-279.273-279.259h-186.192c-25.706 0-46.545 20.838-46.545 46.545s20.839 46.545 46.545 46.545h186.192c102.824 0 186.177 83.354 186.182 186.173l0.028 651.648c0.005 20.486 13.396 38.563 32.996 44.527zM104.716 680.74c0.007 154.233 125.039 279.26 279.273 279.26h186.193c25.707 0 46.545-20.839 46.545-46.545s-20.838-46.545-46.545-46.545h-186.193c-102.822 0-186.177-83.351-186.182-186.173l-0.030-651.645c-0.001-20.489-13.396-38.563-32.995-44.53-19.598-5.962-40.792 1.587-52.205 18.6l-104.687 156.067c-14.32 21.346-8.623 50.26 12.725 64.582s50.263 8.625 64.584-12.726l19.494-29.063 0.023 498.719zM523.636 720.291c21.848 0 39.564-17.713 39.564-39.564v-38.977c44.097-6.413 78.545-44.032 78.545-90.316 0-21.85-17.715-39.564-39.564-39.564-21.853 0-39.564 17.713-39.564 39.564 0 6.251-5.269 12.153-12.8 12.153h-52.364c-21.993 0-38.983-17.48-38.983-38.012s16.99-38.012 38.983-38.012h52.364c64.763 0 118.109-51.982 118.109-117.141 0-60.607-46.159-109.815-104.727-116.392v-38.758c0-21.848-17.715-39.564-39.564-39.564-21.853 0-39.564 17.715-39.564 39.564v38.014h-12.8c-50.306 0-91.928 40.406-91.928 91.28 0 21.848 17.713 39.564 39.564 39.564s39.564-17.715 39.564-39.564c0-6.251 5.266-12.153 12.801-12.153h78.545c21.993 0 38.982 17.478 38.982 38.009s-16.989 38.014-38.982 38.014h-52.364c-64.766 0-118.11 51.982-118.11 117.14 0 60.608 46.156 109.817 104.728 116.392v38.759c0 21.85 17.711 39.564 39.564 39.564z" />
<glyph unicode="&#xe909;" glyph-name="varient-wise" d="M449.617 937.102c39.716 17.651 85.049 17.651 124.765 0l419.21-186.317c18.493-8.218 30.408-26.553 30.408-46.787s-11.914-38.569-30.408-46.787l-182.728-81.213 182.728-81.213c18.493-8.218 30.408-26.553 30.408-46.786s-11.914-38.569-30.408-46.787l-182.728-81.213 182.728-81.213c18.493-8.218 30.408-26.552 30.408-46.787s-11.914-38.569-30.408-46.787l-419.21-186.317c-39.716-17.654-85.049-17.654-124.765 0l-419.211 186.317c-18.49 8.218-30.406 26.552-30.406 46.787s11.916 38.569 30.406 46.787l182.729 81.213-182.729 81.213c-18.49 8.218-30.406 26.552-30.406 46.787 0 20.232 11.916 38.568 30.406 46.786l182.729 81.212-182.729 81.213c-18.49 8.218-30.406 26.554-30.406 46.788s11.916 38.569 30.406 46.787l419.211 186.316zM339.2 519.97l-161.935-71.97 313.94-139.53c13.239-5.883 28.351-5.883 41.587 0l313.943 139.53-161.935 71.969-110.418-49.074c-39.716-17.651-85.049-17.651-124.765 0l-110.417 49.075zM339.2 263.972l-161.935-71.972 313.94-139.53c13.239-5.883 28.351-5.883 41.587 0l313.943 139.53-161.935 71.972-110.418-49.075c-39.716-17.654-85.049-17.654-124.765 0l-110.417 49.075zM532.792 843.528c-13.235 5.884-28.348 5.884-41.587 0l-313.94-139.529 313.94-139.529c13.239-5.884 28.351-5.884 41.587 0l313.943 139.529-313.943 139.529z" />
<glyph unicode="&#xe90a;" glyph-name="warehouse-opening-balance" horiz-adv-x="931" d="M377.019 587.637c0 21.85-17.713 39.564-39.564 39.564s-39.564-17.713-39.564-39.564v-38.759c-58.57-6.575-104.727-55.785-104.727-116.392 0-65.159 53.344-117.141 118.109-117.141h52.364c21.994 0 38.982-17.482 38.982-38.014s-16.988-38.009-38.982-38.009h-78.545c-7.534 0-12.8 5.902-12.8 12.153 0 21.848-17.713 39.564-39.564 39.564s-39.564-17.715-39.564-39.564c0-50.874 41.622-91.28 91.927-91.28h12.8v-38.014c0-21.848 17.713-39.564 39.564-39.564s39.564 17.715 39.564 39.564v38.758c58.571 6.577 104.726 55.785 104.726 116.392 0 65.159-53.343 117.141-118.108 117.141h-52.364c-21.994 0-38.982 17.482-38.982 38.014s16.988 38.009 38.982 38.009h52.364c7.534 0 12.8-5.902 12.8-12.153 0-21.848 17.713-39.564 39.564-39.564s39.564 17.715 39.564 39.564c0 46.285-34.449 83.905-78.545 90.317v38.977zM0 565.265v-629.265h930.909v629.265c0 14.14-6.428 27.513-17.469 36.346l-418.909 335.127c-16.998 13.599-41.155 13.599-58.154 0l-418.909-335.127c-11.041-8.833-17.469-22.206-17.469-36.346zM465.455 840.785l372.364-297.891v-513.803h-744.727v513.803l372.364 297.891z" />
<glyph unicode="&#xe90b;" glyph-name="attachment" d="M833.83 727.164c-42.253 42.248-110.746 42.248-152.998 0l-287.997-288c-12.793-12.793-12.793-33.534 0-46.327s33.534-12.792 46.327 0.001l224 223.999c16.659 16.662 43.68 16.662 60.339 0 16.666-16.662 16.666-43.677 0-60.339l-223.999-224c-46.118-46.117-120.889-46.117-167.007 0s-46.118 120.888 0 167.006l288 288c75.576 75.572 198.097 75.573 273.675 0 75.571-75.572 75.571-198.1 0-273.673l-340.98-340.98c-110.006-110.003-290.124-104.006-392.568 13.075-93.236 106.554-87.889 267.149 12.228 367.266l276.978 276.979c16.662 16.662 43.677 16.662 60.34 0s16.662-43.677 0-60.34l-276.978-276.978c-68.351-68.351-72.002-177.992-8.349-250.735 69.94-79.936 192.907-84.026 268.009-8.928l340.98 340.98c42.246 42.248 42.246 110.746 0 152.993z" />
<glyph unicode="&#xe90c;" glyph-name="download" d="M512.005 64c212.078 0 384.001 171.923 384.001 384.001s-171.923 384-384.001 384c-212.077 0-384-171.923-384-384s171.923-384.001 384-384.001zM981.338 448.001c0-259.207-210.125-469.332-469.332-469.332s-469.333 210.125-469.333 469.332c0 259.206 210.127 469.333 469.333 469.333 259.208 0 469.332-210.128 469.332-469.333zM353.836 563.504c16.662 16.662 43.677 16.662 60.34 0l97.83-97.83 97.83 97.83c16.662 16.662 43.675 16.662 60.34 0 16.659-16.662 16.659-43.677 0-60.34l-124.984-124.983c-18.329-18.328-48.045-18.329-66.374 0l-124.983 124.983c-16.662 16.662-16.662 43.677 0 60.34zM298.672 277.331c0 23.565 19.102 42.669 42.666 42.669h341.331c23.565 0 42.669-19.105 42.669-42.669 0-23.558-19.104-42.662-42.669-42.662h-341.331c-23.564 0-42.666 19.104-42.666 42.662zM512.005 746.668c23.564 0 42.667-19.103 42.667-42.667v-256c0-23.564-19.103-42.667-42.667-42.667s-42.667 19.103-42.667 42.667v256c0 23.564 19.103 42.667 42.667 42.667z" />
<glyph unicode="&#xe90d;" glyph-name="uniE902" d="M321.923 713.612c214.192 212.589 474.036 267.763 578.019 122.862 103.987-144.9 12.595-437.771-201.591-650.358-214.191-214.165-474.036-269.261-579.596-122.786-102.332 146.398-10.942 437.773 203.168 650.282z" />
<glyph unicode="&#xe90e;" glyph-name="uniE903" d="M463.693 827.030c-23.616-17.315-47.231-37.78-70.846-59.896-187.426-185.749-266.222-440.841-173.257-568.427 96.035-127.505 325.967-80.282 518.116 107.123 103.983 100.745 173.257 217.31 201.596 325.927 7.868 80.282-3.149 151.197-39.36 204.718-81.865 113.339-258.27 103.973-436.25-9.445z" />
<glyph unicode="&#xe90f;" glyph-name="uniE904" d="M734.558 803.418v-4.722c-1.57-26.761-17.318-59.817-45.658-88.152-42.505-40.928-99.183-56.669-122.876-33.136-26.765 25.187-10.94 80.361 31.565 124.436 44.083 42.502 100.757 56.669 124.373 31.483 7.872-7.871 12.595-17.315 12.595-29.909zM570.825 80.649c-100.834-75.558-204.742-113.417-305.578-97.677 42.507-1.574 77.221 45.73 105.559 108.698 28.338 64.538 44.081 124.356 58.251 181.103 20.467 89.728 22.042 152.695 11.021 166.861-17.318 22.118-55.102 17.314-99.263-7.872-22.041-12.591-50.379-4.723-17.239 36.207 34.636 40.926 168.457 138.604 215.685 154.345 53.606 14.167 113.434-6.297 92.966-64.54-14.246-42.5-200.021-527.497-61.402-477.124z" />
<glyph unicode="&#xe910;" glyph-name="success" d="M512 64c212.079 0 384 171.921 384 384 0 212.077-171.921 384-384 384-212.077 0-384-171.923-384-384 0-212.079 171.923-384 384-384zM981.333 448c0-259.204-210.129-469.333-469.333-469.333-259.206 0-469.333 210.129-469.333 469.333 0 259.206 210.128 469.333 469.333 469.333s469.333-210.128 469.333-469.333zM732.096 608.11c17.732-15.517 19.533-42.473 4.015-60.206l-224-256c-7.778-8.887-18.889-14.153-30.69-14.545-11.802-0.397-23.241 4.122-31.59 12.471l-160 160c-16.662 16.661-16.662 43.678 0 60.339s43.677 16.661 60.34 0l127.752-127.753 193.967 221.679c15.518 17.734 42.475 19.531 60.207 4.014z" />
<glyph unicode="&#xe911;" glyph-name="alert-2" d="M512 618.667c23.565 0 42.667-19.103 42.667-42.667v-128c0-23.565-19.102-42.667-42.667-42.667s-42.667 19.102-42.667 42.667v128c0 23.564 19.102 42.667 42.667 42.667zM512 192c35.345 0 64 28.655 64 64s-28.655 64-64 64c-35.345 0-64-28.655-64-64s28.655-64 64-64zM623.433 805.517l335.287-593.199c48.23-85.329-13.419-190.985-111.433-190.985h-670.574c-98.015 0-159.661 105.655-111.432 190.985l335.287 593.199c48.997 86.689 173.865 86.689 222.864 0zM884.433 170.325l-335.287 593.203c-16.333 28.896-57.954 28.896-74.287 0l-335.29-593.203c-16.076-28.442 4.473-63.659 37.144-63.659h670.574c32.674 0 53.222 35.217 37.146 63.659z" />
<glyph unicode="&#xe912;" glyph-name="search" d="M469.331 149.331c188.513 0 341.332 152.819 341.332 341.33 0 188.513-152.819 341.334-341.332 341.334s-341.333-152.82-341.333-341.334c0-188.511 152.82-341.33 341.333-341.33zM896 490.661c0-235.64-191.027-426.668-426.669-426.668s-426.666 191.027-426.666 426.668c0 235.642 191.025 426.667 426.666 426.667s426.669-191.025 426.669-426.667zM716.493 243.501c16.666 16.659 43.68 16.659 60.339 0l192-192c16.666-16.666 16.666-43.68 0-60.346-16.659-16.659-43.674-16.659-60.339 0l-192 192c-16.659 16.666-16.659 43.68 0 60.346z" />
<glyph unicode="&#xe913;" glyph-name="success1" d="M512 64c212.079 0 384 171.921 384 384 0 212.077-171.921 384-384 384-212.077 0-384-171.923-384-384 0-212.079 171.923-384 384-384zM981.333 448c0-259.204-210.129-469.333-469.333-469.333-259.206 0-469.333 210.129-469.333 469.333 0 259.206 210.128 469.333 469.333 469.333s469.333-210.128 469.333-469.333zM732.096 608.11c17.732-15.517 19.533-42.473 4.015-60.206l-224-256c-7.778-8.887-18.889-14.153-30.69-14.545-11.802-0.397-23.241 4.122-31.59 12.471l-160 160c-16.662 16.661-16.662 43.678 0 60.339s43.677 16.661 60.34 0l127.752-127.753 193.967 221.679c15.518 17.734 42.475 19.531 60.207 4.014z" />
<glyph unicode="&#xe914;" glyph-name="uniE9021" d="M321.923 713.612c214.192 212.589 474.036 267.763 578.019 122.862 103.987-144.9 12.595-437.771-201.591-650.358-214.191-214.165-474.036-269.261-579.596-122.786-102.332 146.398-10.942 437.773 203.168 650.282z" />
<glyph unicode="&#xe915;" glyph-name="uniE9031" d="M463.693 827.030c-23.616-17.315-47.231-37.78-70.846-59.896-187.426-185.749-266.222-440.841-173.257-568.427 96.035-127.505 325.967-80.282 518.116 107.123 103.983 100.745 173.257 217.31 201.596 325.927 7.868 80.282-3.149 151.197-39.36 204.718-81.865 113.339-258.27 103.973-436.25-9.445z" />
<glyph unicode="&#xe916;" glyph-name="uniE9041" d="M734.558 803.418v-4.722c-1.57-26.761-17.318-59.817-45.658-88.152-42.505-40.928-99.183-56.669-122.876-33.136-26.765 25.187-10.94 80.361 31.565 124.436 44.083 42.502 100.757 56.669 124.373 31.483 7.872-7.871 12.595-17.315 12.595-29.909zM570.825 80.649c-100.834-75.558-204.742-113.417-305.578-97.677 42.507-1.574 77.221 45.73 105.559 108.698 28.338 64.538 44.081 124.356 58.251 181.103 20.467 89.728 22.042 152.695 11.021 166.861-17.318 22.118-55.102 17.314-99.263-7.872-22.041-12.591-50.379-4.723-17.239 36.207 34.636 40.926 168.457 138.604 215.685 154.345 53.606 14.167 113.434-6.297 92.966-64.54-14.246-42.5-200.021-527.497-61.402-477.124z" />
<glyph unicode="&#xe917;" glyph-name="alert-21" d="M512 618.667c23.565 0 42.667-19.103 42.667-42.667v-128c0-23.565-19.102-42.667-42.667-42.667s-42.667 19.102-42.667 42.667v128c0 23.564 19.102 42.667 42.667 42.667zM512 192c35.345 0 64 28.655 64 64s-28.655 64-64 64c-35.345 0-64-28.655-64-64s28.655-64 64-64zM623.433 805.517l335.287-593.199c48.23-85.329-13.419-190.985-111.433-190.985h-670.574c-98.015 0-159.661 105.655-111.432 190.985l335.287 593.199c48.997 86.689 173.865 86.689 222.864 0zM884.433 170.325l-335.287 593.203c-16.333 28.896-57.954 28.896-74.287 0l-335.29-593.203c-16.076-28.442 4.473-63.659 37.144-63.659h670.574c32.674 0 53.222 35.217 37.146 63.659z" />
<glyph unicode="&#xe918;" glyph-name="reload" d="M410.233 596.747c-15.505-17.745-13.689-44.699 4.055-60.204s44.699-13.689 60.206 4.055l115.996 132.751c17.054 19.519 15.057 49.169-4.459 66.224l-133.452 116.605c-17.745 15.505-44.699 13.689-60.203-4.056s-13.689-44.699 4.056-60.203l54.279-47.428c-181.495-19.891-322.71-173.699-322.71-360.491 0-200.294 162.371-362.668 362.668-362.668 200.294 0 362.664 162.374 362.664 362.668 0 23.566-19.102 42.668-42.664 42.668-23.566 0-42.668-19.102-42.668-42.668 0-153.167-124.165-277.332-277.332-277.332-153.169 0-277.335 124.165-277.335 277.332 0 144.753 110.898 263.603 252.368 276.225l-55.468-63.479z" />
<glyph unicode="&#xe919;" glyph-name="link-arrow" d="M524.422 204.576c-16.62 16.704-16.55 43.718 0.155 60.339l183.084 182.148-183.238 184.177c-16.62 16.705-16.551 43.72 0.154 60.34s43.72 16.551 60.34-0.154l210.322-211.4c18.285-18.375 18.208-48.092-0.166-66.374l-210.31-209.236c-16.705-16.614-43.72-16.55-60.34 0.16zM213.336 448c0 23.564 19.103 42.666 42.667 42.666h469.335c23.565 0 42.662-19.102 42.662-42.666s-19.098-42.667-42.662-42.667h-469.335c-23.564 0-42.667 19.103-42.667 42.667z" />
<glyph unicode="&#xe91a;" glyph-name="sort-asc" d="M542.159 776.831c-16.662 16.662-43.677 16.662-60.34 0l-170.666-170.667c-16.662-16.662-16.662-43.677 0-60.34s43.677-16.662 60.339 0.001l140.497 140.497 140.497-140.497c16.659-16.662 43.68-16.662 60.339 0 16.666 16.662 16.666 43.677 0 60.339l-170.666 170.667zM371.492 350.169c-16.662 16.662-43.677 16.662-60.339 0s-16.662-43.679 0-60.339l170.666-170.669c16.662-16.659 43.677-16.659 60.34 0l170.666 170.669c16.666 16.659 16.666 43.676 0 60.339-16.659 16.662-43.68 16.662-60.339 0l-140.497-140.499-140.497 140.499z" />
<glyph unicode="&#xe91b;" glyph-name="discount-new" d="M609.207 763.777c27.584-23.195 60.561-39.075 95.893-46.179l88.162-17.725c21.018-4.226 35.951-22.953 35.392-44.384l-2.334-89.894c-0.939-36.025 7.206-71.711 23.68-103.762l41.109-79.979c9.801-19.068 4.471-42.419-12.629-55.347l-71.74-54.221c-28.753-21.73-51.571-50.347-66.359-83.209l-36.898-82.005c-8.798-19.554-30.379-29.943-51.149-24.631l-87.121 22.281c-34.914 8.93-71.514 8.93-106.428 0l-87.122-22.281c-20.769-5.312-42.351 5.077-51.147 24.631l-36.898 82.005c-14.788 32.862-37.609 61.478-66.359 83.209l-71.739 54.221c-17.103 12.928-22.433 36.279-12.632 55.347l41.109 79.979c16.475 32.051 24.62 67.738 23.683 103.763l-2.337 89.894c-0.557 21.431 14.377 40.158 35.395 44.384l88.16 17.725c35.332 7.104 68.308 22.984 95.892 46.179l68.823 57.875c16.41 13.797 40.363 13.797 56.772 0l68.821-57.875zM94.068 258.432l71.739-54.221c17.327-13.094 31.081-30.345 39.993-50.15l36.898-82.005c25.817-57.378 89.154-87.881 150.11-72.29l87.119 22.285c21.043 5.38 43.102 5.38 64.145 0l87.121-22.285c60.954-15.59 124.292 14.912 150.11 72.29l36.898 82.005c8.909 19.806 22.665 37.056 39.991 50.15l71.74 54.221c50.193 37.935 65.835 106.475 37.073 162.432l-41.109 79.979c-9.929 19.315-14.835 40.822-14.272 62.535l2.338 89.894c1.634 62.897-42.197 117.859-103.881 130.26l-88.162 17.725c-21.291 4.281-41.165 13.852-57.792 27.831l-68.821 57.875c-48.158 40.494-118.455 40.494-166.613 0l-68.823-57.875c-16.624-13.979-36.498-23.55-57.792-27.831l-88.16-17.725c-61.684-12.401-105.515-67.364-103.88-130.26l2.337-89.894c0.564-21.713-4.344-43.22-14.274-62.535l-41.109-79.979c-28.763-55.957-13.12-124.497 37.074-162.432zM725.333 352c0-41.237-33.429-74.667-74.667-74.667s-74.667 33.429-74.667 74.667c0 41.237 33.429 74.667 74.667 74.667s74.667-33.429 74.667-74.667zM616.414 656.829c21.077-10.538 29.619-36.167 19.081-57.243l-170.667-341.333c-10.539-21.077-36.164-29.619-57.242-19.081-21.076 10.539-29.62 36.164-19.081 57.242l170.668 341.334c10.539 21.076 36.164 29.62 57.242 19.081zM448 544c0-41.237-33.429-74.667-74.667-74.667s-74.667 33.429-74.667 74.667c0 41.237 33.429 74.667 74.667 74.667s74.667-33.429 74.667-74.667z" />
<glyph unicode="&#xe91c;" glyph-name="financial-year-new" d="M42.667 618.667c0 23.564 19.103 42.667 42.667 42.667h853.333c23.565 0 42.667-19.103 42.667-42.667s-19.102-42.667-42.667-42.667h-853.333c-23.564 0-42.667 19.103-42.667 42.667zM298.667 917.333c23.564 0 42.667-19.103 42.667-42.667v-85.333c0-23.564-19.103-42.667-42.667-42.667s-42.667 19.103-42.667 42.667v85.333c0 23.564 19.103 42.667 42.667 42.667zM725.333 917.333c23.565 0 42.667-19.103 42.667-42.667v-85.333c0-23.564-19.102-42.667-42.667-42.667s-42.667 19.103-42.667 42.667v85.333c0 23.564 19.102 42.667 42.667 42.667zM810.667 746.667c47.13 0 85.333-38.205 85.333-85.333v-512c0-47.13-38.204-85.333-85.333-85.333h-597.333c-47.128 0-85.333 38.204-85.333 85.333v512c0 47.128 38.205 85.333 85.333 85.333h597.333zM213.333 832c-94.257 0-170.667-76.41-170.667-170.667v-512c0-94.255 76.41-170.667 170.667-170.667h597.333c94.255 0 170.667 76.412 170.667 170.667v512c0 94.257-76.412 170.667-170.667 170.667h-597.333zM522.667 569.6c20.028 0 36.267-16.237 36.267-36.267v-35.729c40.422-5.879 72-40.363 72-82.79 0-20.028-16.239-36.267-36.267-36.267s-36.267 16.239-36.267 36.267c0 5.73-4.826 11.14-11.733 11.14h-48c-20.16 0-35.733-16.021-35.733-34.842s15.573-34.846 35.733-34.846h48c59.366 0 108.267-47.65 108.267-107.379 0-55.556-42.308-100.663-96-106.692v-35.529c0-20.028-16.239-36.267-36.267-36.267s-36.267 16.239-36.267 36.267v34.846h-11.733c-46.114 0-84.267 37.039-84.267 83.674 0 20.028 16.237 36.267 36.267 36.267 20.028 0 36.267-16.239 36.267-36.267 0-5.73 4.826-11.14 11.733-11.14h72c20.16 0 35.733 16.021 35.733 34.842s-15.573 34.846-35.733 34.846h-48c-59.366 0-108.267 47.65-108.267 107.379 0 55.556 42.308 100.663 96 106.692v35.529c0 20.029 16.239 36.267 36.267 36.267z" />
<glyph unicode="&#xe91d;" glyph-name="tag-new" d="M487.821 119.407c-16.986-16.986-44.523-16.986-61.505 0l-242.911 242.91c-16.984 16.986-16.984 44.518 0 61.504l352.774 352.774c8.977 8.975 21.423 13.582 34.078 12.611l243.959-18.718c10.833-0.831 19.439-9.438 20.271-20.271l18.718-243.959c0.973-12.655-3.635-25.101-12.612-34.078l-352.772-352.772zM576.785 874.289c-37.487 2.877-74.359-10.768-100.945-37.354l-352.775-352.775c-50.309-50.308-50.309-131.874 0-182.182l242.911-242.914c50.309-50.308 131.876-50.308 182.184 0l352.777 352.777c26.586 26.586 40.23 63.458 37.35 100.945l-18.718 243.96c-4.049 52.81-46.012 94.773-98.825 98.825l-243.959 18.718zM746.667 618.667c0-35.346-28.654-64-64-64s-64 28.654-64 64c0 35.346 28.654 64 64 64s64-28.654 64-64z" />
<glyph unicode="&#xe91e;" glyph-name="tax-new" d="M794.027 139.981c-67.823-47.053-167.023-75.981-282.027-75.981s-214.204 28.928-282.026 75.981c-65.708 45.585-101.974 107.311-101.974 184.286 0 66.807 36.691 133.325 95.569 199.074 42.444 47.395 87.11 85.065 127.371 119.020 4.3 3.627 8.549 7.21 12.74 10.759l3.445-0.861c95.121-23.78 194.628-23.78 289.749 0l3.443 0.861c4.194-3.549 8.444-7.132 12.74-10.758 40.265-33.956 84.928-71.626 127.373-119.021 58.88-65.749 95.569-132.267 95.569-199.074 0-76.975-36.267-138.701-101.973-184.286zM341.333 746.667c-11.535-10.382-25.41-22.089-40.78-35.058-98.332-82.973-257.887-217.605-257.887-387.342 0-217.6 213.333-345.6 469.333-345.6s469.333 128 469.333 345.6c0 169.737-159.556 304.369-257.886 387.342-15.373 12.969-29.244 24.676-40.781 35.057l-46.49-11.622c-81.532-20.383-166.822-20.382-248.355 0l-46.488 11.622zM398.597 734.977l30.617-7.654c54.353-13.588 111.219-13.588 165.572 0l30.618 7.654 37.171 69.033-27.063-7.38c-30.383-8.286-62.754-5.081-90.923 9.003l-32.589 16.296-32.589-16.296c-28.169-14.084-60.541-17.289-90.924-9.003l-27.061 7.38 37.171-69.033zM682.667 661.333l-67.183-16.796c-67.942-16.986-139.025-16.986-206.966 0l-67.185 16.796-102.188 189.777c-17.777 33.014 12.619 71.257 48.793 61.392l123.001-33.546c10.128-2.762 20.919-1.693 30.306 3.001l51.674 25.836c12.011 6.006 26.15 6.006 38.161 0l51.674-25.836c9.387-4.695 20.177-5.763 30.306-3.001l122.999 33.546c36.177 9.866 66.573-28.378 48.794-61.392l-102.187-189.777zM595.081 528.828c21.077-10.539 29.619-36.164 19.081-57.242l-128-256c-10.539-21.077-36.164-29.619-57.242-19.081s-29.62 36.164-19.082 57.242l128.001 256c10.539 21.077 36.164 29.62 57.242 19.081zM448 458.667c0-41.237-33.429-74.667-74.667-74.667s-74.667 33.429-74.667 74.667c0 41.237 33.429 74.667 74.667 74.667s74.667-33.429 74.667-74.667zM725.333 266.667c0-41.237-33.429-74.667-74.667-74.667s-74.667 33.429-74.667 74.667c0 41.237 33.429 74.667 74.667 74.667s74.667-33.429 74.667-74.667z" />
<glyph unicode="&#xe91f;" glyph-name="trigger-new" d="M512 149.333c-164.949 0-298.667 133.717-298.667 298.667s133.718 298.667 298.667 298.667c164.949 0 298.667-133.718 298.667-298.667s-133.717-298.667-298.667-298.667zM512 64c212.079 0 384 171.921 384 384 0 212.077-171.921 384-384 384-212.077 0-384-171.923-384-384 0-212.079 171.923-384 384-384zM512 362.667c-47.13 0-85.333 38.204-85.333 85.333s38.204 85.333 85.333 85.333c47.13 0 85.333-38.204 85.333-85.333s-38.204-85.333-85.333-85.333zM512 277.333c94.255 0 170.667 76.412 170.667 170.667 0 94.257-76.412 170.667-170.667 170.667-94.257 0-170.667-76.41-170.667-170.667 0-94.255 76.41-170.667 170.667-170.667zM512 917.333c23.565 0 42.667-19.103 42.667-42.667v-85.333c0-23.564-19.102-42.667-42.667-42.667s-42.667 19.103-42.667 42.667v85.333c0 23.564 19.102 42.667 42.667 42.667zM512 149.333c23.565 0 42.667-19.102 42.667-42.667v-85.333c0-23.565-19.102-42.667-42.667-42.667s-42.667 19.102-42.667 42.667v85.333c0 23.565 19.102 42.667 42.667 42.667zM981.333 448c0-23.565-19.102-42.667-42.667-42.667h-85.333c-23.565 0-42.667 19.102-42.667 42.667s19.102 42.667 42.667 42.667h85.333c23.565 0 42.667-19.102 42.667-42.667zM213.333 448c0-23.565-19.103-42.667-42.667-42.667h-85.333c-23.564 0-42.667 19.102-42.667 42.667s19.103 42.667 42.667 42.667h85.333c23.564 0 42.667-19.102 42.667-42.667z" />
<glyph unicode="&#xe920;" glyph-name="accounts-new" d="M554.667 832c23.565 0 42.667-19.103 42.667-42.667v-682.667c0-23.565-19.102-42.667-42.667-42.667h-384c-23.564 0-42.667 19.102-42.667 42.667v682.667c0 23.564 19.103 42.667 42.667 42.667h384zM170.667 917.333c-70.692 0-128-57.308-128-128v-682.667c0-70.694 57.308-128 128-128h384c70.694 0 128 57.306 128 128v682.667c0 70.692-57.306 128-128 128h-384zM896 612.899l-42.667 64.474-42.667-64.474v-292.899h85.333v292.899zM853.333 832l128-193.422v-403.911h-256v403.911l128 193.422zM896 234.667v-85.333h-85.333v85.333h85.333zM725.333 320v-170.667c0-47.13 38.204-85.333 85.333-85.333h85.333c47.13 0 85.333 38.204 85.333 85.333v170.667h-256zM213.333 490.667c0 23.565 19.103 42.667 42.667 42.667h213.333c23.565 0 42.667-19.102 42.667-42.667s-19.102-42.667-42.667-42.667h-213.333c-23.564 0-42.667 19.102-42.667 42.667zM213.333 661.333c0 23.564 19.103 42.667 42.667 42.667h213.333c23.565 0 42.667-19.103 42.667-42.667s-19.102-42.667-42.667-42.667h-213.333c-23.564 0-42.667 19.103-42.667 42.667zM213.333 320c0 23.565 19.103 42.667 42.667 42.667h85.333c23.564 0 42.667-19.102 42.667-42.667s-19.103-42.667-42.667-42.667h-85.333c-23.564 0-42.667 19.102-42.667 42.667z" />
<glyph unicode="&#xe921;" glyph-name="customer" d="M512 917.333c117.82 0 213.333-95.513 213.333-213.333v-42.667c0-117.821-95.514-213.333-213.333-213.333s-213.333 95.513-213.333 213.333v42.667c0 117.821 95.513 213.333 213.333 213.333zM640 661.333v42.667c0 70.692-57.306 128-128 128s-128-57.308-128-128v-42.667c0-70.692 57.306-128 128-128s128 57.308 128 128zM682.667 405.333c117.82 0 213.333-95.514 213.333-213.333s-95.514-213.333-213.333-213.333h-341.333c-117.821 0-213.333 95.514-213.333 213.333s95.513 213.333 213.333 213.333h341.333zM341.333 320c-70.692 0-128-57.306-128-128s57.308-128 128-128h85.318c-26.781 35.657-42.651 79.974-42.651 128s15.869 92.343 42.651 128h-85.318zM682.667 64c70.694 0 128 57.306 128 128s-57.306 128-128 128h-85.333c-70.694 0-128-57.306-128-128s57.306-128 128-128h85.333z" />
<glyph unicode="&#xe922;" glyph-name="aging-report-new" d="M128 746.667c0 94.257 76.41 170.667 170.667 170.667h426.667c94.255 0 170.667-76.41 170.667-170.667v-213.333c0-23.565-19.102-42.667-42.667-42.667s-42.667 19.102-42.667 42.667v213.333c0 47.128-38.204 85.333-85.333 85.333h-426.667c-47.128 0-85.333-38.205-85.333-85.333v-597.333c0-47.13 38.205-85.333 85.333-85.333h448c35.345 0 64 28.655 64 64h85.333c0-82.475-66.859-149.333-149.333-149.333h-448c-94.257 0-170.667 76.412-170.667 170.667v597.333zM640 64c141.385 0 256 114.615 256 256s-114.615 256-256 256c-141.385 0-256-114.615-256-256s114.615-256 256-256zM981.333 320c0-188.514-152.819-341.333-341.333-341.333s-341.333 152.819-341.333 341.333c0 188.514 152.819 341.333 341.333 341.333s341.333-152.819 341.333-341.333zM640 512c23.565 0 42.667-19.102 42.667-42.667v-122.965l104.414-52.207c21.077-10.539 29.619-36.164 19.081-57.242s-36.164-29.619-57.242-19.081l-151.586 75.793v175.701c0 23.565 19.102 42.667 42.667 42.667z" />
<glyph unicode="&#xe923;" glyph-name="import" d="M42.667 533.335c0 117.821 95.513 213.334 213.333 213.334h512c117.821 0 213.335-95.513 213.335-213.334v-298.665c0-117.821-95.514-213.335-213.335-213.335h-512c-117.82 0-213.333 95.514-213.333 213.335v298.665zM256 661.335c-70.692 0-128-57.307-128-128v-298.665c0-70.692 57.308-128 128-128h512c70.692 0 128 57.308 128 128v298.665c0 70.693-57.308 128-128 128h-512zM353.83 478.172c16.663 16.663 43.677 16.663 60.34 0l97.83-97.832 97.833 97.832c16.66 16.663 43.674 16.663 60.339 0 16.66-16.663 16.66-43.678 0-60.339l-124.984-124.984c-18.33-18.33-48.046-18.33-66.374 0l-124.983 124.984c-16.663 16.66-16.663 43.676 0 60.339zM512 874.669c23.562 0 42.665-19.102 42.665-42.666v-512.002c0-23.562-19.103-42.665-42.665-42.665-23.564 0-42.666 19.103-42.666 42.665v512.002c0 23.564 19.103 42.666 42.666 42.666z" />
<glyph unicode="&#xe924;" glyph-name="inventory" d="M790.446 657.805c26.409-15.242 42.675-43.416 42.675-73.906v-272.106c0-30.49-16.266-58.665-42.675-73.907l-235.786-136.095c-26.399-15.232-58.92-15.232-85.318 0.005l-235.788 136.090c-26.407 15.242-42.676 43.418-42.676 73.907v272.106c0 30.49 16.268 58.664 42.676 73.906l235.788 136.094c26.398 15.237 58.919 15.237 85.318 0l235.786-136.094zM597.315 867.805c-52.792 30.473-117.835 30.473-170.63 0l-235.788-136.094c-52.814-30.484-85.351-86.831-85.351-147.812v-272.106c0-60.979 32.537-117.325 85.351-147.809l235.788-136.095c52.795-30.474 117.838-30.474 170.63 0l235.786 136.095c52.818 30.484 85.356 86.83 85.356 147.809v272.106c0 60.981-32.538 117.328-85.356 147.812l-235.786 136.094zM448.049 435.574l-312.089 180.633 42.746 73.855 312.089-180.632c39.529-22.878 63.87-65.085 63.87-110.755v-334.423h-85.331v334.423c0 15.212-8.108 29.271-21.285 36.9zM533.207 509.429l312.084 180.632 42.747-73.855-312.090-180.633c-13.174-7.629-21.284-21.688-21.284-36.9v-334.423h-85.331v334.423c0 45.67 24.344 87.877 63.874 110.755zM887.931 616.1l-311.813-180.434c-39.665-22.948-88.572-22.948-128.236 0l-311.812 180.434 42.739 73.859 311.812-180.432c13.224-7.652 29.535-7.652 42.76 0l311.808 180.432 42.742-73.859z" />
<glyph unicode="&#xe925;" glyph-name="other" d="M213.334 490.666c-23.564 0-42.667-19.102-42.667-42.666 0-23.562 19.103-42.665 42.667-42.665s42.666 19.103 42.666 42.665c0 23.564-19.103 42.666-42.666 42.666zM85.334 448c0 70.692 57.307 128 128 128s128-57.308 128-128c0-70.692-57.308-128-128-128s-128 57.308-128 128zM512 490.666c-23.564 0-42.666-19.102-42.666-42.666 0-23.562 19.102-42.665 42.666-42.665 23.562 0 42.665 19.103 42.665 42.665 0 23.564-19.103 42.666-42.665 42.666zM384 448c0 70.692 57.308 128 128 128s128-57.308 128-128c0-70.692-57.308-128-128-128s-128 57.308-128 128zM810.665 490.666c-23.562 0-42.665-19.102-42.665-42.666 0-23.562 19.103-42.665 42.665-42.665 23.567 0 42.67 19.103 42.67 42.665 0 23.564-19.103 42.666-42.67 42.666zM682.665 448c0 70.692 57.308 128 128 128s128-57.308 128-128c0-70.692-57.308-128-128-128s-128 57.308-128 128z" />
<glyph unicode="&#xe926;" glyph-name="reports" d="M799.826 320c-9.539-36.946-25.257-72.233-46.684-104.3-37.504-56.131-90.813-99.881-153.185-125.716s-131.002-32.594-197.214-19.425c-66.212 13.169-127.032 45.681-174.769 93.414-47.736 47.739-80.245 108.559-93.415 174.771s-6.411 134.842 19.424 197.212c25.834 62.371 69.584 115.68 125.716 153.186 32.067 21.427 67.353 37.146 104.301 46.687v-326.229c0-49.485 40.115-89.6 89.6-89.6h326.226zM893.87 362.737c2.35 23.444-16.973 42.598-40.535 42.598h-379.735c-2.356 0-4.266 1.91-4.266 4.265v379.734c0 23.564-19.151 42.888-42.597 40.536-69.336-6.957-136.146-30.82-194.446-69.775-70.165-46.882-124.852-113.519-157.146-191.482s-40.743-163.753-24.28-246.518c16.463-82.765 57.099-158.787 116.769-218.46 59.671-59.668 135.695-100.306 218.461-116.767 82.765-16.466 168.554-8.013 246.517 24.279s144.599 86.979 191.483 157.143c38.953 58.301 62.817 125.112 69.775 194.447zM640 821.162c15.396-3.976 30.531-9.031 45.292-15.144 41.411-17.154 79.037-42.296 110.735-73.992 31.693-31.695 56.837-69.324 73.989-110.736 6.113-14.757 11.172-29.892 15.145-45.289h-245.161v245.161zM597.263 915.203c-23.45 2.353-42.598-16.971-42.598-40.535v-341.334c0-23.564 19.103-42.666 42.67-42.666h341.33c23.567 0 42.89 19.149 40.535 42.596-4.152 41.418-14.356 82.083-30.346 120.682-21.443 51.765-52.869 98.801-92.488 138.42s-86.656 71.048-138.419 92.49c-38.6 15.988-79.268 26.191-120.684 30.347z" />
<glyph unicode="&#xe927;" glyph-name="vendor" d="M298.667 704v-42.667c0-117.821 95.513-213.333 213.333-213.333s213.333 95.513 213.333 213.333v42.667c0 117.821-95.514 213.333-213.333 213.333s-213.333-95.513-213.333-213.333zM640 704v-42.667c0-70.692-57.306-128-128-128s-128 57.308-128 128v42.667c0 70.692 57.306 128 128 128s128-57.308 128-128zM342.189 405.333c-0.629 0.013-1.259 0.013-1.89-0.004-117.345-0.555-212.299-95.855-212.299-213.329 0-117.82 95.513-213.333 213.333-213.333h341.333c117.82 0 213.333 95.514 213.333 213.333 0 117.474-94.955 212.774-212.301 213.329-0.631 0.017-1.263 0.017-1.89 0.004h-339.62zM682.667 64h-101.632l126.767 253.534c58.658-11.682 102.865-63.445 102.865-125.534 0-70.694-57.306-128-128-128zM512 116.74l-101.632 203.26h203.259l-101.628-203.26zM213.333 192c0 62.089 44.207 113.852 102.863 125.534l126.764-253.534h-101.628c-70.692 0-128 57.306-128 128z" />
<glyph unicode="&#xe928;" glyph-name="voucher" d="M682.665 448.001c0-47.131-38.205-85.336-85.33-85.336-47.13 0-85.335 38.205-85.335 85.336 0 47.128 38.205 85.333 85.335 85.333 47.124 0 85.33-38.205 85.33-85.333zM42.667 411.044c2.113-1.224 4.341-2.268 6.664-3.118 4.575-1.679 9.515-2.591 14.67-2.591 7.379 0 14.321 1.874 20.375 5.171 0.322 0.174 0.642 0.353 0.958 0.538 12.753 7.378 21.333 21.166 21.333 36.957 0 15.793-8.58 29.581-21.334 36.959-0.323 0.186-0.648 0.369-0.975 0.547-6.050 3.291-12.986 5.16-20.358 5.16-7.703 0-14.93-2.041-21.168-5.613l-0.166-0.095v176.373c0 70.692 57.307 128.001 128 128.001h682.668c70.692 0 128-57.308 128-128v-176.373c-0.328 0.19-0.66 0.376-0.998 0.558-6.042 3.284-12.974 5.15-20.337 5.15-7.378 0-14.316-1.873-20.372-5.169-0.323-0.176-0.64-0.356-0.957-0.539-12.754-7.377-21.335-21.166-21.335-36.959 0-15.791 8.581-29.579 21.335-36.957 0.312-0.184 0.635-0.364 0.957-0.538 6.052-3.297 12.995-5.171 20.372-5.171 7.772 0 15.058 2.079 21.335 5.709v-176.379c0-70.692-57.308-127.995-128-127.995h-682.668c-70.692 0-127.999 57.303-128 127.995l-0.001 176.379zM128.001 337.126v-102.456c0.001-23.567 19.103-42.67 42.666-42.67h682.668c23.562 0 42.665 19.103 42.665 42.665v102.461c-38.257 22.129-64 63.498-64 110.875s25.743 88.744 64 110.876v102.456c0 23.564-19.103 42.666-42.665 42.666h-682.668c-23.564 0-42.667-19.103-42.667-42.667l0.001-102.455c38.259-22.132 64-63.498 64-110.876 0-47.376-25.741-88.746-64.001-110.875zM298.666 192v85.335h85.334v-85.335h-85.334zM298.666 362.665v170.669h85.334v-170.669h-85.334zM298.666 618.668v85.334h85.334v-85.334h-85.334z" />
<glyph unicode="&#xe929;" glyph-name="item-product" horiz-adv-x="941" d="M883.2 838.4v-6.4c0-3.535-2.865-6.4-6.4-6.4v0c0-3.535-2.865-6.4-6.4-6.4v0c-3.535 0-6.4-2.865-6.4-6.4v0l-371.2-211.2h-51.2l-307.2 76.8h-25.6c-6.4 0-6.4-6.4-12.8-6.4l-12.8-12.8c0-6.4 0-6.4-6.4-12.8v-12.8l6.4-12.8 12.8-12.8 294.4-166.4 6.4-6.4c6.4 0 6.4-6.4 12.8-6.4 0-6.4 6.4-6.4 6.4-12.8s6.4-6.4 6.4-12.8v-448l-6.4-6.4s0-6.4 0-12.8h-25.6l-364.8 211.2c-6.4 0-6.4 6.4-12.8 12.8s-6.4 6.4-6.4 12.8 0 6.4-6.4 12.8v460.8c0 12.8 6.4 19.2 6.4 32s12.8 19.2 19.2 32 25.6 19.2 38.4 25.6v0l358.4 211.2 12.8 6.4h6.4l6.4 6.4h38.4l377.6-96h6.4c3.535 0 6.4-2.865 6.4-6.4v0c0-3.535 2.865-6.4 6.4-6.4v0c0-6.4 0-12.8 0-12.8zM902.4 684.8c6.4-6.4 12.8-6.4 19.2-12.8l12.8-12.8c0-6.4 6.4-12.8 6.4-19.2v-454.4c0-6.4 0-6.4-6.4-12.8 0-6.4-6.4-6.4-6.4-12.8l-12.8-12.8-364.8-211.2h-12.8c-3.535 0-6.4 2.865-6.4 6.4v0l-19.2 6.4v448c0 6.4 0 6.4 6.4 12.8 0 6.4 6.4 6.4 6.4 12.8s6.4 6.4 12.8 6.4l300.8 172.8c3.535 0 6.4 2.865 6.4 6.4v0c0 3.535 2.865 6.4 6.4 6.4v0 12.8c0 3.535-2.865 6.4-6.4 6.4v0c-12.8 6.4-19.2 6.4-32 12.8s-19.2 12.8-32 19.2c-17.434 8.448-32.108 16.968-46.096 26.426l1.296-0.826 70.4 38.4z" />
<glyph unicode="&#xe92a;" glyph-name="uniE90B" d="M19.922 956.016h984.156c8.802 0 15.938-7.136 15.938-15.938v-984.156c0-8.802-7.136-15.938-15.938-15.938h-984.156c-8.802 0-15.938 7.136-15.938 15.938v984.156c0 8.802 7.136 15.938 15.938 15.938z" />
<glyph unicode="&#xe92b;" glyph-name="windows" d="M896 806.375l-352-46.875v-279.5h352v326.375zM480 750.875l-352-46.875v-224h352v270.875zM128 416v-224l352-46.875v270.875h-352zM544 416v-279.5l352-46.875v326.375h-352z" />
<glyph unicode="&#xe92c;" glyph-name="mac" d="M682.88 878.080c-95.72-32.337-170.316-64.674-159.68-204.8 95.72 21.558 180.951 75.453 159.68 204.8zM378.88 683.52c-92.16 0-225.28-81.92-225.28-235.519 0-215.041 143.36-430.081 225.28-430.081 61.44 0 112.64 40.96 153.6 40.96s81.92-40.96 143.36-40.96c81.92 0 174.080 122.88 194.56 235.52-71.68 51.2-122.88 81.92-122.88 174.081 0 61.44 51.2 122.88 112.64 174.080-30.72 40.96-92.16 81.92-153.6 81.92s-127.509-48.61-174.080-51.2c-40.96 0-92.16 51.2-153.6 51.2z" />
<glyph unicode="&#xe92d;" glyph-name="android" d="M738.611 644.086c0 47.913-17.531 92.068-46.95 127.304l40.356 70.574c2.898 5.059 1.096 11.438-3.881 14.336-5.079 2.908-11.52 1.157-14.367-3.912l-37.069-64.819c-41.359 40.335-99.953 65.495-164.884 65.495-65.004 0-123.638-25.211-164.956-65.597l-37.151 64.901c-2.867 5.069-9.339 6.82-14.316 3.922-5.069-2.888-6.83-9.288-3.922-14.346l40.407-70.666c-29.379-35.215-46.828-79.329-46.828-127.191h453.56zM598.63 755.302c10.045 0 18.166-8.12 18.166-18.156 0-10.025-8.12-18.156-18.166-18.156-10.025 0-18.145 8.141-18.145 18.156 0 10.025 8.11 18.156 18.145 18.156zM425.206 755.302c10.045 0 18.176-8.12 18.176-18.156 0-10.025-8.12-18.156-18.176-18.156-10.025 0-18.145 8.141-18.145 18.156 0 10.025 8.131 18.156 18.145 18.156zM773.816 314.9h0.195c1.946-24.289 23.972-43.438 50.821-43.438 26.829 0 48.855 19.149 50.831 43.438h0.143v226.591h-0.082c0.082 0.87 0.082 1.741 0.082 2.611 0 25.938-22.825 46.981-50.975 46.981s-50.985-21.043-50.985-46.981c0-0.85 0.061-1.731 0.102-2.611h-0.102v-226.591h-0.031zM148.224 314.778h0.123c1.976-24.3 23.972-43.448 50.821-43.448 26.89 0 48.845 19.149 50.842 43.448h0.123v226.601h-0.031c0.072 0.87 0.072 1.761 0.072 2.601 0 25.969-22.825 47.012-50.964 47.012-28.15 0-50.985-21.064-50.985-47.012 0-0.84 0-1.731 0.051-2.601h-0.051v-226.601zM396.851 359.608c-4.444 0-8.684-1.403-12.278-4.045-4.454-3.277-7.352-8.079-8.182-13.578-0.829-5.458 0.522-10.916 3.82-15.38 3.881-5.284 10.117-8.417 16.691-8.417 4.444 0 8.684 1.403 12.278 4.045 4.465 3.297 7.352 8.1 8.192 13.578 0.819 5.499-0.522 10.957-3.809 15.401-3.912 5.274-10.148 8.397-16.712 8.397zM627.139 502.723c4.444 0 8.684 1.393 12.278 4.045 4.454 3.287 7.352 8.11 8.182 13.578 0.819 5.468-0.522 10.936-3.82 15.38-3.871 5.284-10.107 8.428-16.681 8.428-4.444 0-8.694-1.403-12.278-4.045-4.465-3.277-7.363-8.11-8.192-13.578s0.522-10.936 3.809-15.391c3.891-5.274 10.138-8.417 16.701-8.417zM512.573 558.879c11.407 0.317 20.449 9.871 20.132 21.289-0.307 11.305-9.4 20.142-20.695 20.142l-0.594-0.010c-11.428-0.317-20.449-9.861-20.132-21.279 0.317-11.295 9.4-20.142 20.695-20.152l0.594 0.010zM409.17 540.109c-3.594 2.652-7.834 4.045-12.278 4.045-6.564 0-12.81-3.154-16.691-8.428-3.287-4.454-4.649-9.912-3.809-15.391 0.819-5.468 3.727-10.291 8.182-13.578 3.584-2.642 7.834-4.045 12.278-4.045 6.574 0 12.8 3.144 16.701 8.417 3.277 4.454 4.628 9.923 3.809 15.391-0.84 5.489-3.738 10.312-8.192 13.588zM575.58 477.932c-1.638 2.222-3.4 4.362-5.274 6.4-13.578 14.909-32.748 24.566-54.18 25.692-1.372 0.072-2.744 0.215-4.137 0.215s-2.755-0.143-4.137-0.215c-21.432-1.126-40.602-10.783-54.18-25.692-1.864-2.038-3.625-4.178-5.253-6.4-9.667-13.117-15.442-29.235-15.442-46.735s5.775-33.618 15.442-46.735c1.638-2.222 3.389-4.383 5.263-6.4 13.578-14.92 32.748-24.576 54.18-25.702 1.382-0.061 2.755-0.205 4.147-0.205s2.765 0.143 4.137 0.205c21.422 1.116 40.591 10.783 54.18 25.702 1.874 2.017 3.625 4.178 5.263 6.4 9.656 13.097 15.442 29.235 15.442 46.735s-5.796 33.628-15.452 46.735zM741.048 616.1c0 3.564-2.877 6.502-6.492 6.502h-445.471c-3.615 0-6.502-2.939-6.502-6.502v-338.237c0-0.952 0.195-1.812 0.532-2.621-0.338-2.273-0.522-4.577-0.522-6.902 0-23.255 18.278-42.537 42.322-46.295v-0.707h20.019v-139.592h0.174c1.987-24.3 23.972-43.428 50.842-43.428 26.839 0 48.855 19.128 50.811 43.428h0.164v139.571h129.843v-139.581h0.195c1.976-24.32 23.941-43.438 50.801-43.438 26.839 0 48.886 19.118 50.821 43.438h0.184v139.581h19.845v0.686c24.105 3.697 42.455 23.020 42.455 46.316 0 2.324-0.133 4.628-0.512 6.912 0.338 0.799 0.512 1.638 0.512 2.601v338.268zM650.455 321.69c-5.437-7.404-14.193-11.776-23.357-11.776-6.226 0-12.175 1.935-17.203 5.642-6.236 4.598-10.301 11.356-11.459 18.995-0.993 6.564 0.266 13.097 3.523 18.739l-18.678 14.602c-16.62-18.719-40.468-30.863-67.133-32.020v-24.463c13.834-1.935 24.453-13.455 24.852-27.884 0.44-15.985-12.196-29.358-28.191-29.798h-0.829c-15.8 0-28.539 12.38-28.969 28.18-0.41 14.879 10.486 27.443 24.852 29.522v24.443c-26.665 1.157-50.524 13.302-67.164 32.020l-18.657-14.602c3.256-5.642 4.506-12.175 3.512-18.739-1.147-7.639-5.222-14.397-11.459-18.995-5.028-3.697-10.977-5.663-17.193-5.663-9.185 0-17.92 4.403-23.368 11.796-4.598 6.236-6.492 13.875-5.335 21.555 1.157 7.639 5.233 14.397 11.469 18.995 5.028 3.697 10.957 5.663 17.193 5.663 7.506 0 14.684-2.98 20.040-8.1l18.565 14.5c-11.837 15.882-18.852 35.564-18.852 56.852s7.014 40.97 18.842 56.852l-18.555 14.5c-5.356-5.12-12.534-8.1-20.050-8.1-6.226 0-12.165 1.956-17.183 5.663-6.246 4.598-10.312 11.356-11.469 19.005-1.157 7.67 0.748 15.319 5.335 21.545 5.437 7.393 14.172 11.796 23.368 11.796 6.216 0 12.165-1.956 17.183-5.663 6.236-4.598 10.301-11.346 11.469-19.005 0.983-6.543-0.266-13.087-3.523-18.739l18.668-14.592c16.63 18.719 40.489 30.863 67.154 32.010v24.453c-13.834 1.935-24.443 13.466-24.842 27.873-0.451 15.985 12.186 29.358 28.17 29.798l0.829 0.010c15.821 0 28.539-12.38 28.979-28.201 0.41-14.848-10.476-27.433-24.852-29.491v-24.443c26.665-1.157 50.514-13.302 67.144-32.010l18.678 14.592c-3.256 5.652-4.516 12.186-3.523 18.739 1.157 7.67 5.222 14.418 11.459 19.005 5.018 3.697 10.967 5.663 17.203 5.663 9.175 0 17.9-4.403 23.357-11.796 4.598-6.226 6.492-13.875 5.335-21.545-1.147-7.67-5.222-14.418-11.448-19.005-5.028-3.707-10.977-5.663-17.203-5.663-7.506 0-14.694 2.99-20.040 8.1l-18.565-14.5c11.848-15.892 18.862-35.564 18.862-56.852s-7.014-40.97-18.862-56.852l18.565-14.5c5.345 5.12 12.534 8.079 20.040 8.079 6.216 0 12.165-1.935 17.203-5.642 6.226-4.618 10.301-11.356 11.459-19.016 1.147-7.639-0.737-15.299-5.345-21.535zM511.416 303.473c-11.418-0.317-20.449-9.861-20.132-21.279 0.317-11.284 9.411-20.142 20.695-20.142l0.594 0.020c11.428 0.297 20.449 9.841 20.132 21.258-0.307 11.305-9.4 20.142-20.695 20.163l-0.594-0.020zM639.416 355.594c-3.594 2.642-7.844 4.045-12.278 4.045-6.574 0-12.81-3.144-16.701-8.417-3.287-4.444-4.639-9.902-3.809-15.38 0.829-5.499 3.727-10.301 8.192-13.599 3.604-2.642 7.844-4.024 12.278-4.024 6.574 0 12.81 3.144 16.691 8.417 3.287 4.444 4.628 9.902 3.809 15.38s-3.727 10.271-8.182 13.578z" />
<glyph unicode="&#xe92e;" glyph-name="branch-icon" d="M796.467 220.467h227.533v-284.467h-284.467v170.667l-227.533 238.933-227.533-238.933v-170.667h-284.467v284.467h227.533l227.533 227.533v182.067c-34.763 12.699-63.723 34.334-85.005 62.153l-0.328 0.447c-21.236 26.217-34.103 59.97-34.133 96.727v0.007c0 94.257 76.41 170.667 170.667 170.667s170.667-76.41 170.667-170.667v0c0.032-1.138 0.051-2.478 0.051-3.821 0-35.54-12.933-68.060-34.349-93.109l0.164 0.197c-21.611-28.267-50.57-49.901-84.043-62.186l-1.291-0.414v-182.067z" />
<glyph unicode="&#xe92f;" glyph-name="info" d="M870.4 88.849c-89.912-94.275-216.492-152.895-356.763-152.895-2.376 0-4.748 0.017-7.115 0.050l0.359-0.004c-2.939-0.066-6.401-0.103-9.873-0.103-137.714 0-261.698 58.783-348.23 152.625l-0.297 0.327c-91.692 88.058-148.661 211.677-148.661 348.601 0 4.646 0.066 9.277 0.196 13.892l-0.015-0.679c-0.016 1.485-0.025 3.239-0.025 4.996 0 139.475 56.776 265.689 148.478 356.791l0.027 0.027c88.751 91.164 212.659 147.718 349.776 147.718 4.833 0 9.65-0.070 14.449-0.21l-0.705 0.016c1.584 0.018 3.455 0.028 5.329 0.028 139.771 0 266.359-56.443 358.215-147.78l-0.023 0.023c91.692-88.058 148.661-211.677 148.661-348.601 0-4.646-0.066-9.277-0.196-13.892l0.015 0.679c-2.109-141.545-60.429-269.070-153.571-361.579l-0.029-0.029zM798.72 735.881c-72.33 75.408-173.92 122.266-286.454 122.266-0.093 0-0.187 0-0.28 0h0.015c-1.128 0.012-2.461 0.019-3.796 0.019-111.434 0-211.909-46.924-282.743-122.090l-0.181-0.194c-75.725-71.739-122.855-173.006-122.88-285.281v-0.005c-0.040-2.039-0.062-4.443-0.062-6.852 0-110.162 47.279-209.281 122.653-278.173l0.29-0.261c67.293-78.2 166.386-127.415 276.974-127.415 1.627 0 3.251 0.011 4.873 0.032l-0.246-0.003c1.128-0.012 2.461-0.019 3.796-0.019 111.434 0 211.909 46.924 282.743 122.090l0.181 0.194c75.725 71.739 122.855 173.006 122.88 285.281v0.005c0.282 5.423 0.443 11.773 0.443 18.161 0 107.308-45.379 204.017-117.994 271.984l-0.209 0.193zM558.080 190.771h-102.4v305.63h102.4zM558.080 598.323h-102.4v101.922h102.4z" />
<glyph unicode="&#xe930;" glyph-name="copy-small" horiz-adv-x="884" d="M791.296 773.803v-744.704h-744.704v-93.099h744.704c50.887 1.298 91.801 42.212 93.096 92.977l0.002 0.122v744.704zM93.099 960c-50.905-1.254-91.845-42.194-93.096-92.981l-0.002-0.118v-651.605c1.298-50.887 42.212-91.801 92.977-93.096l0.122-0.002h512c50.905 1.254 91.845 42.194 93.096 92.981l0.002 0.118v651.605c-1.254 50.905-42.194 91.845-92.981 93.096l-0.118 0.002zM93.099 215.296v651.605h512v-651.605z" />
<glyph unicode="&#xe931;" glyph-name="envelope" horiz-adv-x="1417" d="M1416.96 960h-1416.96v-1024h1416.96zM708.693 377.173l-600.235 523.861h1200.299zM538.027 448.085l-478.464-417.536v834.987zM582.912 408.917l125.355-110.165 126.293 110.080 474.112-413.781h-1200.384zM879.957 448.085l478.464 417.536v-835.072z" />
<glyph unicode="&#xe932;" glyph-name="tick" horiz-adv-x="1325" d="M421.547 150.016l797.867 809.984 105.387-107.008-903.253-916.992-421.547 427.947 105.387 107.008z" />
<glyph unicode="&#xe933;" glyph-name="branch" horiz-adv-x="1143" d="M737.28 960v-146.286h-737.28v146.286zM737.28 667.429v-146.286h-737.28v146.286zM0 228.571v146.286h491.52v-146.286zM897.682 374.857h245.76v-146.286h-245.76v-292.571h-122.88v292.571h-245.76v146.286h245.76v292.571h122.88z" />
<glyph unicode="&#xe934;" glyph-name="company-profile" horiz-adv-x="1138" d="M568.905 732.453h568.905v-796.453h-1137.81v1024h568.905zM227.547 732.453v113.81h-113.737v-113.81zM227.547 504.905v113.81h-113.737v-113.81zM227.547 277.358v113.81h-113.737v-113.81zM227.547 49.81v113.737h-113.737v-113.737zM455.095 732.453v113.81h-113.81v-113.81zM455.095 504.905v113.81h-113.81v-113.81zM455.095 277.358v113.81h-113.81v-113.81zM455.095 49.81v113.737h-113.81v-113.737zM1029.632 49.81v568.905h-455.095v-113.81h113.737v-113.737h-113.737v-113.81h113.737v-113.81h-113.737v-113.737zM910.19 504.905v-113.737h-113.81v113.737zM910.19 277.358v-113.81h-113.81v113.81z" />
<glyph unicode="&#xe935;" glyph-name="discount" d="M148.48 811.52c88.631 91.718 212.741 148.664 350.152 148.664 4.701 0 9.386-0.067 14.055-0.199l-0.687 0.015c1.513 0.016 3.299 0.026 5.088 0.026 139.984 0 266.712-56.753 358.431-148.504l0.001-0.001c91.726-87.426 148.766-210.538 148.766-346.973 0-5.819-0.104-11.614-0.31-17.383l0.024 0.836c0.016-1.521 0.026-3.319 0.026-5.118 0-139.974-56.753-266.692-148.504-358.4l-0.002-0.002c-87.426-91.726-210.538-148.766-346.973-148.766-5.819 0-11.614 0.104-17.383 0.31l0.836-0.024c-1.521-0.016-3.319-0.026-5.118-0.026-139.974 0-266.692 56.753-358.4 148.504l-0.002 0.002c-91.726 87.426-148.766 210.538-148.766 346.973 0 5.819 0.104 11.614 0.31 17.383l-0.024-0.836c-0.047 2.551-0.074 5.559-0.074 8.573 0 138.895 56.825 264.518 148.495 354.889l0.059 0.058zM225.28 161.28c72.232-75.766 173.937-122.88 286.647-122.88 0.026 0 0.051 0 0.077 0h-0.004c1.058-0.010 2.308-0.016 3.56-0.016 111.624 0 212.229 47.178 282.962 122.682l0.198 0.214c73.896 73.476 120.395 174.437 122.872 286.254l0.008 0.466c0.010 1.058 0.016 2.308 0.016 3.56 0 111.624-47.178 212.229-122.682 282.962l-0.214 0.198c-73.476 73.896-174.437 120.395-286.254 122.872l-0.466 0.008c-1.058 0.010-2.308 0.016-3.56 0.016-111.624 0-212.229-47.178-282.962-122.682l-0.198-0.214c-73.896-73.476-120.395-174.437-122.872-286.254l-0.008-0.466c0-0.022 0-0.047 0-0.073 0-112.71 47.114-214.415 122.722-286.497l0.158-0.15zM711.826 338.505c0.022-0.821 0.035-1.788 0.035-2.757 0-32.95-14.613-62.488-37.713-82.485l-0.137-0.116c-29.892-23.849-67.607-39.070-108.772-41.376l-0.503-0.023v-77.458h-47.47v75.337c-1.95-0.037-4.249-0.058-6.553-0.058-50.028 0-97.728 9.965-141.224 28.020l2.443-0.898v75.337c20.44-9.965 44.353-18.596 69.273-24.652l2.48-0.509c21.872-5.971 47.125-9.743 73.143-10.45l0.439-0.009v133.486l-29.989 11.045c-33.658 11.351-62.347 29.807-85.447 53.701l-0.057 0.059c-16.73 19.734-26.903 45.488-26.903 73.618 0 1.299 0.022 2.593 0.065 3.881l-0.005-0.187c-0.012 0.577-0.019 1.257-0.019 1.939 0 31.998 14.933 60.508 38.209 78.943l0.21 0.16c28.691 21.941 64.474 35.98 103.412 38.302l0.524 0.025v59.977h47.47v-58.88c49.904-1.551 96.916-12.157 140.029-30.221l-2.594 0.964-26.039-65.317c-32.636 13.545-70.45 22.928-109.978 26.307l-1.418 0.098v-129.975l27.136-10.386c36.54-11.855 67.942-30.702 94.055-55.133l-0.14 0.129c16.174-17.951 26.067-41.837 26.067-68.034 0-0.845-0.010-1.688-0.031-2.528l0.002 0.125zM627.566 333.166c0.009 0.337 0.014 0.735 0.014 1.133 0 13.055-5.635 24.794-14.605 32.918l-0.038 0.034c-13.661 11.186-29.689 20.107-47.15 25.884l-1.052 0.301v-113.883q62.83 9.289 62.83 53.541zM458.679 552.594c-0.016-0.456-0.024-0.991-0.024-1.529 0-12.524 4.82-23.922 12.707-32.44l-0.029 0.031c12.815-11.591 28.1-20.723 44.945-26.497l0.916-0.273v111.177c-16.766-1.591-31.806-7.92-44.060-17.614l0.175 0.133c-8.987-7.745-14.642-19.142-14.642-31.86 0-0.371 0.005-0.74 0.014-1.109l-0.001 0.054z" />
<glyph unicode="&#xe936;" glyph-name="financial-year" horiz-adv-x="945" d="M840.192 857.6c28.722-0.203 54.671-11.903 73.51-30.721l-0.001 0.001c19.153-18.012 31.184-43.408 31.524-71.618l0.001-0.062v-716.8c-0.331-28.274-12.364-53.673-31.472-71.631l-0.052-0.049c-18.833-18.823-44.786-30.525-73.471-30.72h-735.196c-0.856-0.027-1.863-0.043-2.873-0.043-27.865 0-52.971 11.814-70.582 30.705l-0.053 0.057c-19.16 18.007-31.193 43.406-31.524 71.619l-0.001 0.061v716.8c0.34 28.272 12.371 53.668 31.473 71.632l0.052 0.048c18.837 18.817 44.787 30.517 73.47 30.72h52.556v102.4h105.033v-102.4h420.133v102.4h105.033v-102.4zM840.192 38.4v563.2h-735.159v-563.2zM735.159 499.2v-102.4h-525.093v102.4zM577.609 294.4v-102.4h-367.616v102.4z" />
<glyph unicode="&#xe937;" glyph-name="refresh" d="M598.443 551.552l118.357 113.301c-53.345 50.65-125.628 81.803-205.188 81.803-133.058 0-245.765-87.135-284.171-207.457l-0.582-2.112-122.197 38.187c55.678 174.905 216.679 299.388 406.754 299.388 115.932 0 221.047-46.309 297.858-121.438l-0.078 0.076 111.253 106.432c1.931 1.936 4.602 3.134 7.552 3.134 5.868 0 10.629-4.738 10.666-10.597v-318.937h-332.693c-5.89 0.001-10.664 4.776-10.664 10.667 0 2.95 1.198 5.621 3.134 7.552v0zM419.221 362.667c5.89-0.001 10.664-4.776 10.664-10.667 0-2.94-1.189-5.602-3.113-7.531v0l-120.021-112.939c53.399-50.879 125.846-82.184 205.606-82.184 133.065 0 245.779 87.132 284.201 207.453l0.582 2.112 122.197-38.187c-55.719-174.903-216.738-299.376-406.829-299.376-116.507 0-222.093 46.758-299.016 122.532l0.053-0.052-109.995-103.509c-1.931-1.936-4.602-3.134-7.552-3.134-5.89 0-10.665 4.774-10.667 10.664v0 314.816z" />
<glyph unicode="&#xe938;" glyph-name="history-icon" horiz-adv-x="1189" d="M312.917 812.117c88.975 91.38 213.189 148.068 350.643 148.068 4.738 0 9.461-0.067 14.166-0.201l-0.692 0.016c1.234 0.011 2.692 0.017 4.152 0.017 140.357 0 267.522-56.477 360.011-147.945l-0.046 0.046c91.391-87.633 148.184-210.732 148.184-347.096 0-5.986-0.109-11.946-0.326-17.879l0.025 0.858c0.011-1.234 0.017-2.692 0.017-4.152 0-140.357-56.477-267.522-147.945-360.011l0.046 0.046c-87.633-91.391-210.732-148.184-347.096-148.184-5.986 0-11.946 0.109-17.879 0.326l0.858-0.025c-2.322-0.040-5.061-0.062-7.805-0.062-137.416 0-261.604 56.637-350.494 147.841l-0.101 0.104 79.616 85.333c69.296-73.626 167.388-119.476 276.188-119.476 0.913 0 1.825 0.003 2.736 0.010l-0.14-0.001c0.338-0.001 0.739-0.002 1.14-0.002 109.982 0 209.84 43.347 283.421 113.888l-0.144-0.138c73.656 70.249 119.456 169.147 119.456 278.741s-45.8 208.492-119.303 278.597l-0.153 0.145c-71.998 70.367-170.598 113.782-279.339 113.782-1.785 0-3.567-0.012-5.347-0.035l0.27 0.003c-2.593 0.064-5.647 0.101-8.71 0.101-105.834 0-201.489-43.58-270-113.774l-0.074-0.076c-70.288-70.009-113.78-166.874-113.78-273.897 0-1.718 0.011-3.434 0.034-5.146l-0.003 0.26h170.667l-227.584-227.584-227.584 227.584h170.667c-0.726 9.773-1.141 21.17-1.141 32.664 0 132.388 54.934 251.945 143.25 337.121l0.141 0.135zM620.117 675.584h85.333v-238.933l199.083-119.467-45.483-68.267-244.651 147.883v278.784z" />
<glyph unicode="&#xe939;" glyph-name="advance-filter" d="M1001.062 936.38c-14.302 14.555-34.185 23.586-56.177 23.62h-866.994c-43.171-0.877-77.832-36.080-77.832-79.379 0-0.389 0.003-0.778 0.008-1.166l-0.001 0.059v-65.536c-0.010-0.46-0.015-1.003-0.015-1.547 0-21.734 8.651-41.447 22.697-55.884l-0.018 0.018 361.267-369.596v-370.278c0-0.089-0.001-0.194-0.001-0.299 0-31.73 18.408-59.161 45.127-72.196l0.475-0.209c9.525-4.577 20.654-7.447 32.401-7.914l0.162-0.005h1.502c19.968 0.518 37.955 8.593 51.291 21.458l-0.023-0.022 98.099 87.177c16.326 14.997 26.623 36.334 26.965 60.081l0.001 0.062v282.078l361.335 369.664c14.023 14.357 22.674 34.015 22.674 55.693 0 0.436-0.004 0.872-0.010 1.306l0.001-0.065v66.56c0.002 0.214 0.003 0.467 0.003 0.72 0 21.697-8.764 41.347-22.944 55.604l0.003-0.003zM979.012 813.5c0.005-0.217 0.008-0.472 0.008-0.728 0-9.512-3.778-18.142-9.915-24.472l0.009 0.009-374.101-382.771v-142.473l-88.064-78.78c-8.721-8.535-20.562-13.912-33.656-14.266l-0.068-0.001c-8 0.187-15.53 2.004-22.335 5.129l0.353-0.145c-9.495 4.678-17.145 11.868-22.258 20.708l-0.133 0.249v209.306l-373.555 382.635c-6.174 6.448-9.974 15.212-9.974 24.864 0 0.259 0.003 0.517 0.008 0.775l-0.001-0.039v66.355c-0.004 0.183-0.006 0.399-0.006 0.616 0 18.922 15.244 34.283 34.121 34.473h865.366c18.921-0.302 34.143-15.711 34.143-34.675 0-0.29-0.004-0.578-0.011-0.866l0.001 0.043z" />
<glyph unicode="&#xe93a;" glyph-name="integration" horiz-adv-x="1536" d="M397.509 210.076v475.848c-0.045 1.823-0.070 3.969-0.070 6.122 0 145.75 116.235 264.353 261.065 268.166l0.353 0.007h472.885c44.903-1.091 80.886-37.751 80.886-82.814 0-0.703-0.009-1.403-0.026-2.101l0.002 0.104v-854.485c0.014-0.563 0.022-1.226 0.022-1.891 0-45.085-35.97-81.769-80.777-82.919l-0.107-0.002h-472.995c-145.132 3.885-261.302 122.461-261.302 268.171 0 2.038 0.023 4.071 0.068 6.098l-0.005-0.302zM1050.991 790.376h-392.133c-55.39-1.397-99.758-46.63-99.758-102.227 0-0.782 0.009-1.563 0.026-2.341l-0.002 0.116v-475.848c-0.015-0.663-0.024-1.444-0.024-2.228 0-55.618 44.356-100.877 99.624-102.331l0.135-0.003h392.133zM0 423.697c-0.015 0.595-0.024 1.295-0.024 1.998 0 45.064 35.984 81.723 80.785 82.812l0.101 0.002h323.34c45.007-2.361 80.606-39.429 80.606-84.812s-35.6-82.452-80.397-84.803l-0.209-0.009h-323.34c-44.903 1.091-80.886 37.751-80.886 82.814 0 0.703 0.009 1.403 0.026 2.101l-0.002-0.104zM1131.853 678.134c-0.015 0.595-0.024 1.295-0.024 1.998 0 45.064 35.984 81.723 80.785 82.812l0.101 0.002h242.587c45.007-2.361 80.606-39.429 80.606-84.812s-35.6-82.452-80.397-84.803l-0.209-0.009h-242.587c-44.903 1.091-80.886 37.751-80.886 82.814 0 0.703 0.009 1.403 0.026 2.101l-0.002-0.104zM1131.853 169.371c-0.015 0.595-0.024 1.295-0.024 1.998 0 45.064 35.984 81.723 80.785 82.812l0.101 0.002h242.587c44.571-2.864 79.637-39.715 79.637-84.757s-35.066-81.894-79.388-84.744l-0.249-0.013h-242.587c-44.902 1.093-80.884 37.751-80.884 82.814 0 0.664 0.008 1.326 0.023 1.986l-0.002-0.098z" />
<glyph unicode="&#xe93b;" glyph-name="invoice-managment" horiz-adv-x="1061" d="M1060.498 708.023c-0.737 3.026-1.766 5.682-3.089 8.157l0.090-0.185c-1.346 2.548-2.953 4.738-4.833 6.661l0.005-0.005-228.425 229.157c-2.138 1.843-4.535 3.494-7.102 4.87l-0.212 0.104c-3.784 1.98-8.257 3.164-13.002 3.218h-427.025c-44.215-0.29-79.945-36.2-79.945-80.456 0-0.001 0-0.001 0-0.002v0-73.801c-4.564 10.422-14.743 17.594-26.61 17.7h-55.31c-40.238-0.208-72.777-32.875-72.777-73.142 0 0 0-0.001 0-0.001v0-741.157c0 0 0-0.001 0-0.001 0-40.267 32.539-72.934 72.757-73.142h55.389c16.158 0 29.257 13.099 29.257 29.257s-13.099 29.257-29.257 29.257h-55.369c-8.139 0.284-14.629 6.95-14.629 15.132 0 0.003 0 0.006 0 0.009v0 740.645c0.236 7.982 6.646 14.392 14.606 14.628l0.022 0.001h55.369c11.865 0.093 22.040 7.235 26.55 17.44l0.074 0.187v-766.098c0-0.001 0-0.001 0-0.002 0-44.23 35.689-80.123 79.84-80.455h604.558c44.215 0.29 79.945 36.2 79.945 80.456 0 0.001 0 0.001 0 0.002v0 686.226c-0.092 1.937-0.407 3.763-0.919 5.504l0.042-0.165zM858.551 672.914h144.823v-656.457c0-0.009 0-0.020 0-0.031 0-11.707-9.168-21.273-20.716-21.909l-0.056-0.002h-605.989c-12.119 0-21.943 9.824-21.943 21.943v0 863.086c0 12.119 9.824 21.943 21.943 21.943v0h398.336v-144.603c0-0.022 0-0.048 0-0.073 0-46.257 37.436-83.77 83.664-83.895h0.012zM833.243 756.37v104.082l128.878-129.243h-103.717c-13.865 0.042-25.088 11.291-25.088 25.161 0 0 0 0 0 0v0zM408.942 505.344c0.243-16.060 13.198-29.014 29.234-29.257h458.629c16.158 0 29.257 13.099 29.257 29.257v0c0.003 0.147 0.004 0.32 0.004 0.493 0 7.982-3.245 15.206-8.488 20.425l-0.001 0.001c-5.314 5.419-12.712 8.778-20.894 8.778-0.060 0-0.12 0-0.18-0.001h-458.304c-16.211-0.247-29.257-13.446-29.257-29.693 0-0.001 0-0.002 0-0.003v0zM926.354 372.882c0 16.158-13.099 29.257-29.257 29.257v0h-458.898c-16.36 0-29.623-13.263-29.623-29.623s13.263-29.623 29.623-29.623v0h458.606c0.090-0.001 0.196-0.002 0.302-0.002 16.158 0 29.257 13.099 29.257 29.257 0 0.258-0.003 0.515-0.010 0.771l0.001-0.038zM64.512 596.699h44.251c16.36 0 29.623 13.263 29.623 29.623s-13.263 29.623-29.623 29.623v0h-44.251c-35.596-0.083-64.429-28.916-64.512-64.504v-590.856c0.083-35.61 28.908-64.461 64.5-64.585h44.263c16.32 0 29.55 13.23 29.55 29.55s-13.23 29.55-29.55 29.55v0h-43.886c-2.982 0.116-5.37 2.504-5.485 5.475v590.859c0.038 2.842 2.291 5.147 5.109 5.266h0.011zM878.885 284.087v20.846c0 10.786-8.743 19.529-19.529 19.529s-19.529-8.743-19.529-19.529v0-18.213c-11.498-2.043-21.501-7.387-29.266-15.003l0.009 0.009c-12.064-11.937-19.534-28.496-19.534-46.8 0-0.287 0.002-0.574 0.005-0.86v0.044c1.463-22.601 13.312-51.712 65.024-63.927 38.693-9.289 38.693-19.529 38.693-33.719-0.030-4.799-2.235-9.076-5.678-11.901l-0.027-0.022c-6.796-6.142-15.693-10.074-25.495-10.601l-0.105-0.004c-0.817-0.064-1.77-0.101-2.73-0.101-19.457 0-35.401 15.045-36.832 34.136l-0.007 0.123v1.609c0 10.786-8.743 19.529-19.529 19.529s-19.529-8.743-19.529-19.529v0c-0.016-0.561-0.025-1.221-0.025-1.883 0-33.649 23.281-61.861 54.614-69.406l0.487-0.099v-19.968c0-10.786 8.743-19.529 19.529-19.529s19.529 8.743 19.529 19.529v18.651c14.491 3.388 27.051 10.242 37.21 19.651l-0.053-0.049c10.97 9.935 17.869 24.191 17.993 40.060v0.022c0.585 48.64-32.768 63.122-68.462 71.826-34.158 8.119-34.67 21.943-35.767 28.453 0.431 6.7 3.314 12.655 7.751 17.040l0.003 0.003c3.403 3.482 8.147 5.641 13.395 5.641 1.029 0 2.039-0.083 3.024-0.243l-0.108 0.014c33.426-2.779 36.571-20.846 37.961-26.77 1.123-9.822 9.389-17.381 19.419-17.381 10.791 0 19.539 8.748 19.539 19.539 0 0.76-0.043 1.51-0.128 2.248l0.008-0.090c-0.101 1.037-0.282 1.982-0.54 2.894l0.028-0.115c-4.935 26.83-25.013 47.912-50.879 54.248l-0.468 0.097z" />
<glyph unicode="&#xe93c;" glyph-name="linked-accounts" horiz-adv-x="1039" d="M314.807-64c-0.462-0.002-1.007-0.004-1.554-0.004-172.894 0-313.051 140.158-313.051 313.051 0 2.65 0.033 5.293 0.098 7.928l-0.008-0.39c1.769 90.489 38.994 171.953 98.308 231.355l-0.004-0.004c13.883 14.56 33.429 23.613 55.090 23.613 42.012 0 76.069-34.057 76.069-76.069 0-21.352-8.797-40.649-22.964-54.464l-0.016-0.015c-32.641-32.558-53.191-77.224-54.341-126.686l-0.004-0.216c-0.039-1.326-0.061-2.886-0.061-4.452 0-44.942 18.283-85.613 47.816-114.983l0.007-0.007c29.999-28.738 70.779-46.431 115.692-46.431 1.55 0 3.095 0.021 4.635 0.063l-0.227-0.005c49.666 1.665 94.114 22.709 126.277 55.766l0.041 0.042c13.692 13.353 32.429 21.589 53.088 21.589 42.012 0 76.069-34.057 76.069-76.069 0-20.351-7.991-38.835-21.007-52.485l0.029 0.030c-58.746-60.031-139.729-98.098-229.599-100.852l-0.509-0.012zM886.126 385.682c-41.864 0.194-75.726 34.177-75.726 76.068 0 20.703 8.27 39.474 21.687 53.189l-0.013-0.014c32.628 32.566 53.175 77.226 54.341 126.683l0.004 0.22c0.037 1.294 0.058 2.818 0.058 4.346 0 44.998-18.279 85.726-47.816 115.165l-0.004 0.004c-30.272 28.737-71.288 46.412-116.433 46.412-1.289 0-2.576-0.014-3.858-0.043l0.191 0.003c-49.687-1.678-94.154-22.717-126.352-55.768l-0.039-0.040c-13.933-14.991-33.761-24.34-55.772-24.34-42.012 0-76.069 34.057-76.069 76.069 0 21.72 9.103 41.314 23.703 55.175l0.033 0.031c58.745 60.046 139.722 98.134 229.592 100.924l0.516 0.013c3.363 0.129 7.313 0.203 11.279 0.203 172.934 0 313.125-140.191 313.125-313.125 0-2.618-0.032-5.228-0.096-7.83l0.007 0.386c-1.769-90.489-38.994-171.953-98.308-231.355l0.004 0.004c-13.709-13.824-32.709-22.382-53.708-22.382-0.121 0-0.242 0-0.363 0.001h0.019zM401.701 250.295c-41.864 0.194-75.726 34.177-75.726 76.068 0 20.703 8.27 39.474 21.687 53.189l-0.013-0.014 213.87 216.283c13.883 14.56 33.429 23.613 55.090 23.613 42.012 0 76.069-34.057 76.069-76.069 0-21.352-8.797-40.649-22.964-54.464l-0.016-0.015-213.943-216.357c-13.695-13.737-32.637-22.237-53.564-22.237-0.172 0-0.344 0.001-0.515 0.002h0.026z" />
<glyph unicode="&#xe93d;" glyph-name="manage-user" horiz-adv-x="833" d="M728.942 664.942c56.939-1.431 102.724-47.217 104.153-104.021l0.003-0.135v-520.704c-1.431-56.939-47.217-102.724-104.021-104.153l-0.135-0.003h-624.786c-56.939 1.431-102.724 47.217-104.153 104.021l-0.003 0.135v520.704c1.431 56.939 47.217 102.724 104.021 104.153l0.135 0.003h52.078v104.155c0 73.143 26.039 65.829 78.117 112.786 47.217 46.123 111.046 75.422 181.691 78.101l0.508 0.015c0.947 0.013 2.065 0.021 3.185 0.021 70.675 0 134.341-30.012 178.948-77.987l0.139-0.151c46.885-52.078 78.117-45.129 78.117-112.786v-104.155zM728.942 40.155v520.704h-624.786v-520.704zM531.090 814.226c-29.467 28.977-69.915 46.867-114.542 46.867s-85.075-17.89-114.564-46.889l0.022 0.022c-31.232-31.232-46.885 1.755-41.691-45.129v-104.155h317.513v104.155c0 41.618-15.506 13.897-46.738 45.129zM489.472 227.547c-18.038-17.214-42.524-27.808-69.485-27.808-55.625 0-100.718 45.093-100.718 100.718s45.093 100.718 100.718 100.718c55.543 0 100.585-44.96 100.717-100.472v-0.013c0.175-2.049 0.275-4.434 0.275-6.843 0-26.653-12.216-50.453-31.355-66.106l-0.152-0.121z" />
<glyph unicode="&#xe93e;" glyph-name="subscription" horiz-adv-x="878" d="M638.83 717.458l-250.002-242.542v210.213c-80.040-12.113-149.303-51.181-199.692-107.493l-0.281-0.319c-48.32-52.030-77.971-121.982-77.971-198.859 0-3.993 0.080-7.967 0.238-11.921l-0.018 0.567c-0.003-0.544-0.005-1.188-0.005-1.833 0-79.887 29.449-152.897 78.083-208.764l-0.327 0.384c49.122-58.682 119.182-98.422 198.549-107.678l1.424-0.135v-107.813c-110.898 11.099-207.98 62.786-277.612 139.771l-0.33 0.371c-68.825 71.159-111.241 168.234-111.241 275.215 0 3.66 0.050 7.308 0.148 10.943l-0.011-0.536c1.737 221.851 170.781 403.682 387.080 425.615l1.82 0.149v167.205zM494.373 49.152c52.456 9.645 99.154 28.456 140.55 54.847l-1.579-0.941 83.456-80.823c-59.955-46.472-134.013-77.542-214.792-86.076l-1.857-0.159v113.152zM877.641 421.010h-111.104c-10.094 51.070-29.461 96.322-56.409 136.010l0.82-1.281 83.31 75.41c44.203-58.51 74.113-130.137 83.262-208.113l0.194-2.027zM711.022 178.469c29.392 37.228 49.325 83.197 55.459 133.428l0.129 1.301h111.104c-11.474-80.43-43.111-151.899-89.593-211.172l0.725 0.959z" />
<glyph unicode="&#xe93f;" glyph-name="tags" d="M877.714 960c0.356 0.003 0.776 0.004 1.197 0.004 38.227 0 73.453-12.845 101.599-34.454l-0.396 0.292c25.585-17.859 42.479-46.645 43.879-79.443l0.007-0.209v-910.19l-512 170.642-512-170.642v910.19c1.478 32.989 18.35 61.748 43.558 79.435l0.328 0.218c27.741 21.317 62.96 34.162 101.179 34.162 0.429 0 0.859-0.002 1.287-0.005h-0.066zM935.497 106.642v739.547h-837.047v-739.547l413.477 125.147z" />
<glyph unicode="&#xe940;" glyph-name="taxes" d="M148.543 84.543c-91.719 87.339-148.76 210.375-148.76 346.733 0 5.868 0.106 11.712 0.315 17.529l-0.024-0.842c-0.048 2.574-0.075 5.61-0.075 8.652 0 138.874 56.853 264.469 148.555 354.78l0.063 0.062c88.567 91.71 212.62 148.655 349.973 148.655 4.729 0 9.442-0.067 14.138-0.202l-0.69 0.016c1.466 0.015 3.198 0.024 4.933 0.024 140.104 0 266.948-56.773 358.782-148.568l-0.001 0.001c91.593-87.461 148.537-210.529 148.537-346.897 0-5.837-0.104-11.649-0.311-17.435l0.024 0.838c0.016-1.502 0.025-3.276 0.025-5.053 0-139.921-56.657-266.61-148.282-358.375l0.007 0.007c-87.524-91.723-210.716-148.753-347.228-148.753-5.797 0-11.571 0.103-17.318 0.307l0.833-0.023c-1.571-0.018-3.427-0.028-5.286-0.028-139.925 0-266.587 56.783-358.201 148.562l-0.008 0.008zM225.264 734.663c-73.841-73.502-120.322-174.436-122.863-286.221l-0.009-0.478c0.025-112.72 47.128-214.434 122.715-286.552l0.156-0.148c72.099-75.755 173.688-122.871 286.281-122.871 0.147 0 0.294 0 0.441 0h-0.023c1.152-0.012 2.512-0.019 3.874-0.019 111.518 0 212.017 47.181 282.623 122.672l0.203 0.219c73.959 73.427 120.477 174.408 122.864 286.25l0.008 0.449c0.010 1.058 0.016 2.308 0.016 3.559 0 111.616-47.175 212.213-122.674 282.942l-0.214 0.198c-73.471 73.89-174.424 120.387-286.233 122.863l-0.466 0.008c-1.058 0.010-2.308 0.016-3.559 0.016-111.616 0-212.213-47.175-282.942-122.674l-0.198-0.214zM589.562 220.432c-18.103 27.385-28.882 60.992-28.882 97.117 0 3.966 0.13 7.902 0.386 11.803l-0.028-0.531q0 145.398 109.706 145.324c1.634 0.098 3.545 0.154 5.469 0.154 31.276 0 59.099-14.783 76.864-37.743l0.166-0.223c18.238-27.063 29.111-60.402 29.111-96.281 0-3.977-0.134-7.923-0.397-11.834l0.029 0.53c0.308-3.909 0.483-8.463 0.483-13.059 0-35.956-10.744-69.403-29.197-97.305l0.409 0.658c-18.138-22.5-45.699-36.774-76.593-36.774-2.232 0-4.448 0.075-6.643 0.221l0.298-0.016c-1.399-0.073-3.038-0.115-4.687-0.115-31.116 0-58.765 14.844-76.251 37.838l-0.172 0.236zM648.073 388.21c-4.751-15.505-7.487-33.327-7.487-51.788 0-2.802 0.063-5.588 0.188-8.359l-0.014 0.394c-0.105-2.342-0.164-5.088-0.164-7.847 0-18.679 2.732-36.72 7.818-53.745l-0.34 1.327c4.608-13.238 12.507-19.893 22.892-19.893 20.405 0 30.645 26.915 30.645 80.451s-10.239 79.281-30.645 79.281c-10.239-0.366-18.065-6.875-22.746-19.82zM340.894 188.617l257.664 464.278h76.283l-257.737-464.278zM264.1 405.617c-18.256 27.366-29.131 61.009-29.131 97.193 0 4.12 0.141 8.207 0.418 12.256l-0.030-0.547q0 144.959 109.706 145.032c1.59 0.092 3.45 0.145 5.323 0.145 31.272 0 59.116-14.68 77.015-37.524l0.161-0.214c18.259-27.25 29.14-60.782 29.14-96.854 0-3.75-0.118-7.472-0.349-11.163l0.025 0.505c0.267-3.67 0.42-7.952 0.42-12.269 0-36.21-10.714-69.917-29.145-98.125l0.422 0.688c-18.287-22.497-45.96-36.754-76.962-36.754-2.128 0-4.241 0.067-6.336 0.2l0.286-0.014c-1.416-0.075-3.075-0.118-4.743-0.118-30.859 0-58.299 14.633-75.762 37.339l-0.166 0.225zM322.61 573.833c-4.729-15.746-7.45-33.841-7.45-52.571 0-2.526 0.049-5.040 0.148-7.542l-0.011 0.36c-0.079-2.077-0.125-4.515-0.125-6.964 0-18.983 2.717-37.331 7.783-54.678l-0.344 1.376c4.827-13.238 12.507-19.747 23.185-19.747 20.113 0 30.352 26.695 30.352 80.013s-10.239 79.501-30.352 79.501c-10.459-0.293-18.138-6.656-22.965-19.967z" />
<glyph unicode="&#xe941;" glyph-name="trigger" d="M926.72 494.153h97.28v-92.233h-97.28c-22.98-194.415-176.059-346.92-368.764-368.828l-1.924-0.178v-96.914h-92.672v96.841c-194.641 22.059-347.735 174.577-370.498 367.028l-0.19 1.978h-92.672v92.233h97.28c22.953 194.428 176.047 346.947 368.766 368.828l1.922 0.177v96.914h92.672v-96.841c98.794-9.523 185.806-53.613 250.127-119.856l0.095-0.098c65.219-64.204 108.039-150.992 115.77-247.674l0.089-1.377zM282.697 217.381c55.452-56.988 132.886-92.343 218.577-92.343 2.871 0 5.734 0.040 8.586 0.119l-0.42-0.009c176.21 0.21 318.974 143.103 318.974 319.342 0 176.368-142.974 319.342-319.342 319.342s-319.342-142.974-319.342-319.342c0-0.386 0.001-0.772 0.002-1.157v0.060c-0.067-2.368-0.105-5.156-0.105-7.952 0-85.651 35.638-162.978 92.894-217.962l0.102-0.098zM379.977 577.17c31.791 30.134 74.842 48.666 122.222 48.666 98.202 0 177.81-79.608 177.81-177.81s-79.608-177.81-177.81-177.81c-98.193 0-177.796 79.594-177.81 177.783v0.002c1.801 50.501 22.683 95.802 55.611 129.193l-0.022-0.022z" />
<glyph unicode="&#xe942;" glyph-name="user" d="M294.4 358.4c63.416 16.263 136.218 25.598 211.2 25.598s147.784-9.335 217.306-26.905l-6.106 1.308c80.152-21.079 150.457-51.771 214.558-91.518l-3.322 1.918c53.772-26.342 91.203-78.697 96-140.213l0.037-0.587v-192h-1024v192c6.541 61.516 43.353 113.18 95.054 140.33l0.983 0.47c56.363 40.735 122.739 71.719 194.496 88.836l3.794 0.764zM761.563 211.163c-77.659 31.498-167.687 50.208-261.963 51.197l-0.4 0.003c-94.761-1.655-184.695-20.299-267.543-53.002l5.18 1.802c-89.6-32.037-128-64-128-83.163v-70.437h780.8v70.437c-0.073 19.237-38.473 51.2-128.073 83.237zM320 883.2c44.307 42.253 104.438 68.253 170.642 68.253 136.659 0 247.442-110.784 247.442-247.442s-110.784-247.442-247.442-247.442c-136.655 0-247.436 110.778-247.442 247.431v0c-0.007 0.666-0.010 1.453-0.010 2.241 0 69.76 29.487 132.633 76.676 176.835l0.134 0.124zM595.237 799.963c-25.357 26.554-61.036 43.063-100.571 43.063-76.752 0-138.971-62.22-138.971-138.971s62.22-138.971 138.971-138.971c76.707 0 138.898 62.147 138.971 138.836v0.007c0.031 1.069 0.049 2.326 0.049 3.587 0 36.146-14.73 68.851-38.514 92.441l-0.009 0.009z" />
<glyph unicode="&#xe943;" glyph-name="warehouse" d="M371.273 960h-251.831c-65.933-0.083-119.359-53.51-119.442-119.434v-251.839c0.083-65.933 53.51-119.359 119.434-119.442h251.839c65.933 0.083 119.359 53.51 119.442 119.434v251.839c-0.083 65.933-53.51 119.359-119.434 119.442h-0.008zM401.262 840.558v-251.904c0-0.044 0-0.096 0-0.148 0-16.401-13.295-29.696-29.696-29.696-0.103 0-0.206 0.001-0.309 0.002h-252.107c-0.050 0-0.109 0-0.169 0-8.074 0-15.384 3.27-20.677 8.558v0c-5.423 5.404-8.779 12.88-8.779 21.14 0 0.102 0.001 0.205 0.002 0.307v-0.016 251.831c-0.001 0.093-0.002 0.204-0.002 0.314 0 8.074 3.271 15.385 8.56 20.678v0c5.321 5.464 12.749 8.854 20.969 8.854 0.162 0 0.325-0.001 0.487-0.004h252.026c16.41-0.041 29.696-13.354 29.696-29.769 0-0.051 0-0.103 0-0.154v0.008zM652.581 469.285h251.831c65.933 0.083 119.359 53.51 119.442 119.434v251.839c-0.083 65.933-53.51 119.359-119.434 119.442h-251.839c-65.933-0.083-119.359-53.51-119.442-119.434v-251.839c0.083-65.933 53.51-119.359 119.434-119.442h0.008zM622.665 588.727v251.904c0 0 0 0 0 0 0 16.481 13.361 29.842 29.842 29.842 0.026 0 0.051 0 0.077 0h252.193c16.219-0.288 29.258-13.504 29.258-29.765 0-0.053 0-0.106 0-0.159v0.008-251.904c0 0 0 0 0 0 0-16.481-13.361-29.842-29.842-29.842-0.051 0-0.103 0-0.154 0h-251.75c-16.211 0.246-29.259 13.446-29.259 29.693 0 0.104 0.001 0.208 0.002 0.312v-0.016zM371.273 426.862h-251.831c-65.933-0.083-119.359-53.51-119.442-119.434v-251.839c0.083-65.933 53.51-119.359 119.434-119.442h251.839c65.933 0.083 119.359 53.51 119.442 119.434v251.839c-0.083 65.933-53.51 119.359-119.434 119.442h-0.008zM401.262 307.419v-251.977c0.002-0.133 0.003-0.291 0.003-0.448 0-16.158-13.099-29.257-29.257-29.257-0.258 0-0.516 0.003-0.773 0.010l0.038-0.001h-251.977c-0.738-0.079-1.595-0.125-2.462-0.125-7.364 0-13.964 3.268-18.43 8.432l-0.026 0.031c-5.467 5.422-8.851 12.937-8.851 21.242 0 0.092 0 0.184 0.001 0.276v-0.014 251.977c-0.003 0.155-0.005 0.337-0.005 0.52 0 16.158 13.099 29.257 29.257 29.257 0.233 0 0.466-0.003 0.697-0.008l-0.034 0.001h252.123c0 0 0.001 0 0.001 0 16.401 0 29.696-13.295 29.696-29.696 0-0.077 0-0.154-0.001-0.231v0.012zM778.24 426.862c-135.37-0.208-245.028-109.995-245.028-245.394 0-135.528 109.867-245.394 245.394-245.394s245.394 109.867 245.394 245.394c0 0.103 0 0.205 0 0.308v-0.016c-0.333 135.437-110.203 245.102-245.686 245.102-0.026 0-0.052 0-0.078 0h0.004zM778.24 25.893c-86.083 0-155.867 69.784-155.867 155.867s69.784 155.867 155.867 155.867v0c86.083 0 155.867-69.784 155.867-155.867s-69.784-155.867-155.867-155.867v0z" />
<glyph unicode="&#xe944;" glyph-name="generate-invoice" horiz-adv-x="762" d="M761.722 710.28v0c-0.463 1.955-1.072 3.662-1.843 5.278l0.068-0.158-0.683 1.161c-0.868 1.733-1.939 3.219-3.21 4.508l-232.583 232.719c-1.333 1.207-2.806 2.311-4.377 3.272l-0.129 0.073-0.887 0.614c-2.699 1.412-5.893 2.244-9.281 2.253h-435.544c-0.061 0-0.133 0-0.205 0-40.38 0-73.114-32.734-73.114-73.114 0 0 0 0 0 0v0-877.909c0.078-40.273 32.704-72.9 72.97-72.977h616.182c40.273 0.078 72.9 32.704 72.977 72.97v697.078c0.002 0.108 0.003 0.235 0.003 0.363 0 1.368-0.125 2.706-0.365 4.004l0.021-0.135zM690.247 727.414h-126.293c-18.851 0-34.133 15.282-34.133 34.133v0 126.43zM689.086-21.403h-616.175c0 0 0 0 0 0-17.055 0-30.886 13.807-30.925 30.853v877.435c0.077 17.048 13.877 30.848 30.917 30.925h414.522v-156.058c0.271-42.087 34.413-76.109 76.52-76.186h156.133v-676.318c-0.155-16.961-13.94-30.652-30.924-30.652-0.024 0-0.049 0-0.073 0h0.004zM147.868 485.409h458.547c11.122 0.653 19.895 9.832 19.895 21.060s-8.773 20.407-19.837 21.058l-0.057 0.003h-458.547c-11.122-0.653-19.895-9.832-19.895-21.060s8.773-20.407 19.837-21.058l0.057-0.003zM627.441 371.54c0 11.65-9.444 21.094-21.094 21.094v0h-458.479c-0.358 0.022-0.778 0.034-1.2 0.034-11.65 0-21.094-9.444-21.094-21.094s9.444-21.094 21.094-21.094c0.422 0 0.841 0.012 1.257 0.037l-0.057-0.003h458.547c11.597 0.039 20.987 9.429 21.026 21.022v0.004z" />
<glyph unicode="&#xe945;" glyph-name="no-selected" horiz-adv-x="1084" d="M1083.597 569.924l-292.591-254.635 86.699-379.29-335.94 205.892-335.94-205.892 86.699 379.29-292.591 254.635 390.076 32.495 151.689 357.581 151.689-357.581zM547.226 239.445l205.892-119.194-54.204 232.994 178.79 157.013-238.387 21.709-92.092 216.747-92.092-216.747-238.387-21.709 178.79-157.013-54.204-232.926z" />
<glyph unicode="&#xe946;" glyph-name="edit-pencil" d="M1009.113 723.692l-221.42 221.342c-6.215 8.992-16.469 14.809-28.081 14.809s-21.867-5.817-28.007-14.696l-0.074-0.113q-329.413-329.255-658.905-658.59c-8.041-7.886-13.673-18.202-15.706-29.759l-0.048-0.331c-13.154-66.481-26.703-132.962-40.094-199.444-5.278-26.23-10.87-52.539-15.754-78.769-0.809-2.724-1.274-5.854-1.274-9.093 0-18.271 14.812-33.083 33.083-33.083 0.531 0 1.060 0.013 1.585 0.037l-0.074-0.003c2.442 0.394 7.089 1.103 11.737 2.048q137.61 27.727 275.141 55.138c11.511 2.255 21.454 7.857 29.050 15.737l0.016 0.017q329.255 329.57 658.668 658.747c9.005 6.196 14.834 16.446 14.834 28.056 0 11.544-5.761 21.742-14.566 27.875l-0.111 0.073zM622.277 738.186l65.063-64.985-388.017-388.332-65.063 65.221zM414.641 169.236l-65.221 65.3 388.332 388.254 65.3-65.221zM851.653 605.538l-182.114 182.036 90.821 90.742 182.351-182.272z" />
<glyph unicode="&#xe947;" glyph-name="collapse" d="M981.052 960c-11.768-0.022-22.414-4.806-30.117-12.528l-305.695-305.816v201.487c0 23.62-19.147 42.767-42.767 42.767s-42.767-19.147-42.767-42.767v0-304.429c-0.002-0.154-0.003-0.336-0.003-0.518 0-14.645 7.392-27.563 18.649-35.227l0.148-0.095 1.325-0.843 0.542-0.301 1.205-0.663 0.663-0.361 1.084-0.542 0.783-0.422 0.904-0.422 1.144-0.482h0.542l1.506-0.542h0.361l1.626-0.542h0.361l1.687-0.482 1.807-0.422h313.224c23.62 0 42.767 19.147 42.767 42.767s-19.147 42.767-42.767 42.767v0h-201.547l305.574 305.815c7.052 7.603 11.379 17.821 11.379 29.049 0 23.215-18.498 42.11-41.558 42.75l-0.059 0.001zM42.767 960c-23.565-0.072-42.641-19.192-42.641-42.767 0-11.809 4.786-22.499 12.524-30.238v0l305.453-305.875h-201.608c-23.62 0-42.767-19.147-42.767-42.767s19.147-42.767 42.767-42.767v0h304.791c0.012 0 0.026 0 0.041 0 5.783 0 11.296 1.151 16.325 3.236l-0.283-0.104 1.687 0.723h0.361l1.385 0.663h0.602l1.144 0.602 0.723 0.422 0.904 1.084 0.964 0.602 0.602 0.301 1.205 0.843h0.361c10.091 7.783 16.528 19.878 16.528 33.475 0 0.493-0.008 0.983-0.025 1.472l0.002-0.071v304.309c0 23.62-19.147 42.767-42.767 42.767s-42.767-19.147-42.767-42.767v0-201.487l-305.272 305.754c-7.718 7.776-18.411 12.589-30.229 12.589-0.003 0-0.007 0-0.010 0h0.001zM602.353 400.474c-19.099-0.006-35.271-12.531-40.757-29.815l-0.083-0.303q-0.602-1.928-1.024-3.976c-0.538-2.554-0.846-5.488-0.846-8.494 0-0.169 0.001-0.338 0.003-0.506v0.026-304.55c0-23.62 19.147-42.767 42.767-42.767s42.767 19.147 42.767 42.767v0 201.487l305.574-305.815c7.899-9.426 19.677-15.377 32.845-15.377 23.62 0 42.767 19.147 42.767 42.767 0 13.168-5.951 24.946-15.31 32.791l-0.066 0.054-305.574 305.815h201.547c23.62 0 42.767 19.147 42.767 42.767s-19.147 42.767-42.767 42.767v0h-304.61zM116.375 400.474c-23.62 0-42.767-19.147-42.767-42.767s19.147-42.767 42.767-42.767v0h201.788l-305.634-305.935c-7.738-7.739-12.523-18.43-12.523-30.238 0-23.618 19.144-42.764 42.761-42.767v0c11.77 0.007 22.421 4.795 30.116 12.527l305.515 305.817v-201.487c0-23.62 19.147-42.767 42.767-42.767s42.767 19.147 42.767 42.767v0 304.309c0.060 0.841 0.095 1.823 0.095 2.813 0 1.491-0.078 2.965-0.231 4.416l0.015-0.181c0 0.663 0 1.385-0.361 2.048s0 0 0 0.301 0 1.205-0.422 1.747v0 0c0 0.602-0.301 1.144-0.482 1.747v0.482l-0.542 1.506v0.361l-0.602 1.566v0.422l-0.602 1.385-0.301 0.663-0.602 1.205-0.361 0.663-1.747 1.385v0.783l-0.602 0.964-0.843 1.205-0.301 0.422-1.265 1.626c-7.892 9.662-19.806 15.782-33.15 15.782-0.014 0-0.028 0-0.042 0h-305.090z" />
<glyph unicode="&#xe948;" glyph-name="info1" d="M870.4 88.849c-89.912-94.275-216.492-152.895-356.763-152.895-2.376 0-4.748 0.017-7.115 0.050l0.359-0.004c-2.939-0.066-6.401-0.103-9.873-0.103-137.714 0-261.698 58.783-348.23 152.625l-0.297 0.327c-91.692 88.058-148.661 211.677-148.661 348.601 0 4.646 0.066 9.277 0.196 13.892l-0.015-0.679c-0.016 1.485-0.025 3.239-0.025 4.996 0 139.475 56.776 265.689 148.478 356.791l0.027 0.027c88.751 91.164 212.659 147.718 349.776 147.718 4.833 0 9.65-0.070 14.449-0.21l-0.705 0.016c1.584 0.018 3.455 0.028 5.329 0.028 139.771 0 266.359-56.443 358.215-147.78l-0.023 0.023c91.692-88.058 148.661-211.677 148.661-348.601 0-4.646-0.066-9.277-0.196-13.892l0.015 0.679c-2.109-141.545-60.429-269.070-153.571-361.579l-0.029-0.029zM798.72 735.881c-72.33 75.408-173.92 122.266-286.454 122.266-0.093 0-0.187 0-0.28 0h0.015c-1.128 0.012-2.461 0.019-3.796 0.019-111.434 0-211.909-46.924-282.743-122.090l-0.181-0.194c-75.725-71.739-122.855-173.006-122.88-285.281v-0.005c-0.040-2.039-0.062-4.443-0.062-6.852 0-110.162 47.279-209.281 122.653-278.173l0.29-0.261c67.293-78.2 166.386-127.415 276.974-127.415 1.627 0 3.251 0.011 4.873 0.032l-0.246-0.003c1.128-0.012 2.461-0.019 3.796-0.019 111.434 0 211.909 46.924 282.743 122.090l0.181 0.194c75.725 71.739 122.855 173.006 122.88 285.281v0.005c0.282 5.423 0.443 11.773 0.443 18.161 0 107.308-45.379 204.017-117.994 271.984l-0.209 0.193zM558.080 190.771h-102.4v305.63h102.4zM558.080 598.323h-102.4v101.922h102.4z" />
</font>
</defs>
</svg>
